<?xml version="1.0" encoding="utf-8"?>
<!-- Generator: Adobe Illustrator 27.3.1, SVG Export Plug-In . SVG Version: 6.00 Build 0)  -->
<svg version="1.1" xmlns="http://www.w3.org/2000/svg" xmlns:xlink="http://www.w3.org/1999/xlink" x="0px" y="0px"
	 viewBox="0 0 855.32 161.7" style="enable-background:new 0 0 855.32 161.7;" xml:space="preserve">
<style type="text/css">
	.st0{fill:#FFFFFF;}
	.st1{fill:#A62167;}
</style>
<g id="Layer_2">
</g>
<g id="Layer_1">
	<path class="st0" d="M723.83,33.9c-0.39,8.84-12.29,27.44-27.44,27.44s-27.44-12.29-27.44-27.44s12.29-27.44,27.44-27.44
		S724.42,20.75,723.83,33.9z"/>
	<g>
		<path class="st1" d="M6.6,138.21l17.44-98.03h48.28c8.79,0,15.83,1.92,21.13,5.75s7.96,9.4,7.96,16.71c0,5.13-1.39,9.8-4.16,13.99
			c-2.78,4.19-7.12,7.6-13.04,10.21c4.16,1.59,7.31,4.19,9.43,7.8c2.13,3.61,3.19,7.66,3.19,12.16c0,2.78-0.41,5.59-1.23,8.42
			c-2.56,7.98-7.01,13.81-13.38,17.48c-6.36,3.67-14.9,5.51-25.62,5.51H6.6z M31.32,119.07h26.92c5.48,0,9.63-1.15,12.47-3.44
			c2.83-2.29,4.25-5.46,4.25-9.51c0-2.95-1.11-5.29-3.33-7.02S66.2,96.51,62,96.51H35.33L31.32,119.07z M38.57,78.33h26.56
			c4.19,0,7.52-1.2,10-3.59c2.48-2.39,3.72-5.04,3.72-7.95c0-2.35-0.81-4.24-2.43-5.66c-1.62-1.43-4.11-2.14-7.49-2.14H42.01
			L38.57,78.33z"/>
		<path class="st1" d="M110.04,109.64c0-8.11,1.85-15.39,5.54-21.84c3.69-6.45,8.86-11.48,15.52-15.11
			c6.65-3.62,14.2-5.43,22.63-5.43c9.3,0,16.63,2.24,22.01,6.71c5.38,4.47,8.07,10.93,8.07,19.37c0,5.14-1.03,10.76-3.08,16.86
			h-50.79c-0.09,3.55,1.31,6.48,4.2,8.78c2.89,2.3,7.05,3.45,12.48,3.45c7.84,0,14.13-1.82,18.87-5.47l9.09,12.58
			c-4.19,3.46-9.08,6.04-14.66,7.72c-5.58,1.69-11.2,2.53-16.85,2.53c-10.66,0-18.83-2.71-24.51-8.13
			C112.87,126.23,110.04,118.89,110.04,109.64z M132.6,95.49h32.74c0.04-0.36,0.07-0.72,0.07-1.08c0-3.02-1.25-5.33-3.76-6.95
			c-2.78-1.89-6.4-2.84-10.87-2.84c-4.1,0-7.76,0.97-10.97,2.9C136.59,89.46,134.19,92.11,132.6,95.49z"/>
		<path class="st1" d="M188.99,86.26c-0.53-2.68-1.34-8.03-5.83-12.79c-2.02-2.14-4.12-3.6-5.83-4.57c11.26,0,22.52,0,33.77,0
			l2.94-16.47l20.45-2.25l-3.27,18.73h17.5l-2.94,17.36h-17.73l-4.64,26.05c-0.11,1.29-0.16,2.13-0.16,2.55
			c0,4.5,2.19,6.75,6.56,6.75c3.14,0,6.04-0.55,8.68-1.64l1.71,16.7c-5.29,2.09-11.03,3.13-17.23,3.13
			c-13.62,0-20.44-6.38-20.44-19.14c0-2.48,0.27-5.26,0.82-8.34l4.65-26.04H188.99z"/>
		<path class="st0" d="M253.55,138.21l12.2-69.18h17.68v7.86c4.83-6.24,11.44-9.37,19.82-9.37c4.24,0,8,1,11.28,3.01
			c3.28,2.01,5.51,5.29,6.7,9.84c3.92-4.74,7.8-8.09,11.66-10.05c3.85-1.96,8.35-2.94,13.5-2.94c3.26,0,6.19,0.38,8.8,1.13
			c2.6,0.75,4.98,1.97,7.13,3.66c2.15,1.69,3.82,4.06,4.99,7.11c1.18,3.05,1.77,6.7,1.77,10.94c0,3.17-0.32,6.44-0.96,9.82
			l-6.77,38.16h-20.17l6.63-37.39c0.36-1.87,0.55-3.74,0.55-5.61c0-2.92-0.66-5.12-1.98-6.6c-1.32-1.48-3.51-2.22-6.56-2.22
			c-3.83,0-7.12,1.41-9.88,4.24c-2.76,2.83-4.55,6.31-5.37,10.46l-6.56,37.12h-19.89l6.56-37.12c0.27-1.69,0.41-3.26,0.41-4.72
			c0-6.93-3.21-10.39-9.64-10.39c-3.87,0-7.14,1.48-9.81,4.44c-2.67,2.96-4.43,6.56-5.3,10.8l-6.63,36.98H253.55z"/>
		<path class="st0" d="M385.02,116.94c0-3.13,0.4-6.86,1.2-11.18l6.45-36.72h20.17l-6.43,36.57c-0.27,1.75-0.41,3.33-0.41,4.76
			c0,7.63,3.96,11.45,11.89,11.45c4.56,0,8.59-1.67,12.1-5c3.51-3.33,5.68-7.34,6.5-12.03l6.36-35.75h19.89l-12.16,69.18h-18.26
			l0.82-9.02c-6.38,6.92-14.22,10.38-23.52,10.38c-2.83,0-5.4-0.2-7.72-0.61s-4.56-1.14-6.7-2.21c-2.14-1.06-3.94-2.42-5.4-4.08
			c-1.46-1.65-2.62-3.82-3.49-6.49C385.45,123.51,385.02,120.43,385.02,116.94z"/>
		<path class="st0" d="M471.03,138.21l12.19-69.18h18.23l-0.82,8.82c6.74-6.97,14.63-10.46,23.65-10.46
			c16.31,0,24.47,7.75,24.47,23.24c0,2.96-0.39,6.58-1.17,10.86l-6.49,36.72h-20.17l6.4-36.58c0.29-1.73,0.44-3.3,0.44-4.72
			c0-7.56-3.96-11.34-11.89-11.34c-4.56,0-8.6,1.66-12.13,4.99c-3.53,3.33-5.71,7.31-6.53,11.96l-6.29,35.68H471.03z"/>
		<path class="st0" d="M562.44,110.09c0-8.32,1.83-15.73,5.5-22.24c3.67-6.5,8.65-11.49,14.94-14.97
			c6.29-3.48,13.33-5.22,21.12-5.22c9.07,0,15.7,3.26,19.89,9.78l6.56-37.12h20.17l-17.11,97.89h-18.03l0.27-8.89
			c-3.69,3.86-7.53,6.51-11.52,7.95c-3.99,1.45-8.4,2.17-13.23,2.17c-8.75,0-15.7-2.69-20.85-8.06
			C565.01,126.01,562.44,118.92,562.44,110.09z M583.15,106.75c0,4.36,1.21,7.87,3.62,10.52c2.42,2.66,5.92,3.98,10.53,3.98
			c2.78,0,5.42-0.39,7.93-1.16c2.51-0.77,4.83-1.93,6.97-3.47c2.14-1.54,3.85-3.68,5.13-6.4c1.28-2.72,1.91-5.88,1.91-9.47
			c0-4.63-1.5-8.27-4.51-10.93c-3.01-2.66-6.72-3.98-11.14-3.98c-5.88,0-10.76,2-14.63,5.99
			C585.09,95.84,583.15,100.81,583.15,106.75z"/>
		<path class="st0" d="M716.45,110.32c0-8.5,1.96-16.05,5.88-22.63c3.92-6.58,9.09-11.59,15.52-15.02s13.49-5.14,21.19-5.14
			c4.51,0,8.59,0.87,12.24,2.6c3.65,1.73,6.08,4.03,7.31,6.9l2.12-8h18.94l-12.24,69.18h-18.18l0.41-8.57
			c-2.64,3.29-6.21,5.81-10.7,7.54c-4.49,1.74-8.62,2.6-12.41,2.6c-9.21,0-16.52-2.61-21.94-7.82
			C719.16,126.74,716.45,119.53,716.45,110.32z M737.16,106.96c0,4.68,1.4,8.35,4.2,11.03c2.8,2.68,6.48,4.02,11.04,4.02
			c6.2,0,11.39-2.11,15.59-6.32c4.19-4.22,6.29-9.05,6.29-14.5c0-4.54-1.3-8.32-3.9-11.34c-2.6-3.02-6.43-4.54-11.48-4.54
			c-5.88,0-10.97,1.98-15.28,5.95C739.32,95.21,737.16,100.45,737.16,106.96z"/>
		<path class="st0" d="M808.34,138.21l17.09-97.89h19.89l-17.09,97.89H808.34z"/>
	</g>
	<g>
		<path class="st1" d="M697,125.1c1.66,3.53,1.89,6.42-1.03,9.39c-1.95,1.98-4.36,3.08-6.86,4.07c-3.52,1.4-7.17,2.13-10.95,2.37
			c-2.97,0.19-5.89-0.1-8.82-0.47c-2.75-0.35-5.44-0.95-8.04-1.91c-2.04-0.75-4-1.66-5.59-3.18c-2.05-1.97-2.44-3.93-1.06-6.43
			c1.11-2.02,2.37-3.99,3.77-5.82c2.17-2.83,4.49-5.53,6.79-8.25c1.87-2.21,3.8-4.36,5.72-6.52c2.27-2.55,4.56-5.08,6.83-7.64
			c1.9-2.14,3.8-4.29,5.67-6.46c3.24-3.74,6.33-7.59,8.48-12.11c1.65-3.47,2.43-7.11,2.09-10.95c-0.17-1.97-0.57-3.94-0.58-5.91
			c-0.02-4.33,0.99-8.51,2.28-12.61c0.92-2.93,1.14-5.95,1.14-9.08c1.09,1.3,1.68,2.78,2,4.38c0.54,2.74,0.09,5.4-0.66,8.05
			c-0.47,1.67-0.87,3.41-0.98,5.14c-0.12,2.01,0.87,3.67,2.44,4.94c0.95,0.77,1.92,1.52,2.86,2.3c0.96,0.79,2.03,0.55,2.96-0.51
			c1.48-1.69,2.53-3.64,2.88-5.9c0.26-1.65-0.45-2.52-2.13-2.65c-0.1-0.01-0.2-0.03-0.3-0.04c0.68-2.46,1.36-4.9,2.02-7.34
			c0.31-1.16,0.58-2.34,0.9-3.5c0.06-0.23,0.19-0.53,0.38-0.63c1.64-0.88,3.29-1.73,4.94-2.58c0.09-0.04,0.2-0.03,0.38-0.06
			c0.62,1.52,1.23,3.04,1.93,4.75c3.14-4.2,5.17-8.73,6.34-13.81c-1.06,0.14-2.01,0.26-2.95,0.39c-0.16-1.4-0.16-2.76-0.5-4.03
			c-0.53-2.04-1.26-4.03-1.97-6.02c-0.18-0.51-0.22-0.89,0.01-1.4c0.78-1.76,1.5-3.55,2.29-5.42c0.52,0.98,1.09,1.94,1.57,2.95
			c2.47,5.1,2.79,7.17,2.59,11.28c-0.21,4.33-1.44,8.97-3.07,12.99c-2.94,7.26-6.96,13.92-11.51,20.26
			c-2.53,3.52-5.19,6.95-7.84,10.39c-1.84,2.39-3.72,4.75-5.66,7.06c-1.69,2.02-3.46,3.97-5.25,5.9c-2.7,2.91-5.42,5.81-8.18,8.66
			c-2.2,2.27-4.43,4.51-6.71,6.71c-1.86,1.79-3.89,3.42-5.68,5.27c-2.48,2.57-4.82,5.27-7.19,7.94c-1.62,1.83-3.2,3.71-4.78,5.57
			c-0.8,0.95-0.94,2.14-1.07,3.3c-0.33,2.89,1.36,4.57,3.66,5.8c3.06,1.64,6.35,2.46,9.82,2.61c2.27,0.1,4.55,0.31,6.81,0.26
			c4.5-0.1,8.95-0.71,13.17-2.36c2.3-0.9,4.36-2.18,5.77-4.34C697.08,128.45,697.33,126.89,697,125.1z"/>
		<path class="st1" d="M680.31,11.65c-0.41,0.44-0.67,0.72-0.94,1c-1.83,1.9-2.39,4.31-2.67,6.82c-0.16,1.48-0.18,2.98-0.32,4.47
			c-0.04,0.39-0.21,0.81-0.45,1.12c-1.49,1.93-3.13,3.75-4.48,5.77c-0.92,1.37-1.68,2.94-2.09,4.52c-0.29,1.14,0.02,2.47,0.24,3.69
			c0.46,2.51,1.4,4.87,2.59,7.13c0.27,0.5,0.59,0.97,1.07,1.43c0.06-1.07,0.11-2.14,0.17-3.32c0.95,0.32,1.85,0.62,2.76,0.93
			c1.39,0.47,2.76,0.98,4.16,1.39c0.58,0.17,0.77,0.49,0.85,1.03c0.26,1.97,0.56,3.94,0.81,5.91c0.06,0.5,0.28,0.71,0.75,0.85
			c3.29,0.97,6.86-0.55,8.38-3.73c0.66-1.38,1.07-2.88,1.65-4.48c-0.28,1.64-0.52,3.16-0.8,4.66c-0.68,3.6-1.44,7.18-2.04,10.78
			c-0.36,2.16-0.43,4.36-0.69,6.54c-0.67,5.77-1.76,11.43-4.23,16.76c-1.42,3.08-3.44,5.75-5.43,8.44c-2.1,2.84-4.23,5.66-6.36,8.48
			c-1.19,1.57-2.42,3.11-3.71,4.63c1.52-3.37,2.48-6.88,2.94-10.53c0.46-3.65,0.93-7.29,1.36-10.67c0.31,1,0.62,5.76,0.44,7.1
			c-0.34,2.47-0.66,4.94-0.99,7.41c0.06,0.05,0.11,0.11,0.17,0.16c0.44-0.5,1-0.93,1.3-1.5c1.07-1.99,2.19-3.97,3.03-6.06
			c1.72-4.32,2.51-8.84,2.92-13.48c0.33-3.76-0.44-7.2-2.11-10.51c-2.98-5.92-5.61-11.99-7.76-18.26c-1.06-3.1-1.62-6.31-1.86-9.58
			c-0.36-4.88-0.27-9.47,0.99-14.21c0.99-3.72,2.91-7.31,5.39-10.27c1.35-1.61,2.84-3.05,4.57-4.24
			C679.99,11.8,680.05,11.78,680.31,11.65z"/>
		<path class="st1" d="M694.7,119.18c0.63,1.99,0.68,3.77,0,5.53c-1.08,2.78-3.29,4.37-5.91,5.46c-2.96,1.23-6.09,1.73-9.26,2.1
			c-3.83,0.44-7.61,0.3-11.34-0.67c-2.02-0.53-3.94-1.29-5.66-2.56c-2.04-1.5-1.77-3.26-0.52-4.78c2.51-3.06,5.19-5.98,7.79-8.96
			c2.57-2.94,5.64-5.29,8.75-7.63c2.22-1.67,4.38-3.43,6.46-5.27c2.08-1.83,4.07-3.76,6.03-5.71c2.76-2.75,4.99-5.92,6.95-9.28
			c0.2-0.34,0.41-0.66,0.74-0.94c-0.42,1.06-0.83,2.13-1.27,3.19c-1.38,3.33-2.72,6.69-4.88,9.59c-1.3,1.74-2.87,3.31-4.48,4.77
			c-2.02,1.83-4.12,3.6-6.33,5.19c-3.52,2.53-7.19,4.85-10.76,7.32c-1.47,1.02-2.95,2.06-4.24,3.29c-0.83,0.8-1.46,1.9-1.91,2.98
			c-0.78,1.88-0.25,3.32,1.63,4.11c1.54,0.65,3.21,1.15,4.86,1.34c2.56,0.29,5.17,0.41,7.74,0.31c2.65-0.1,5.32-0.36,7.91-0.9
			C691.44,126.75,694.19,124.06,694.7,119.18z"/>
		<path class="st1" d="M696.92,21.68c2.45,2.35,4.88,4.74,7.38,7.04c0.71,0.65,0.88,1.2,0.5,2.07c-1.33,3.1-2.61,6.22-3.9,9.33
			c-0.26,0.63-0.59,0.79-1.3,0.68c-3.34-0.48-6.69-0.87-10.04-1.3c-0.1-0.01-0.2-0.04-0.35-0.06c-0.54-2.64-1.08-5.27-1.64-7.9
			c-0.23-1.07-0.5-2.14-0.75-3.21c-0.09-0.37-0.13-0.66,0.31-0.92c3.19-1.86,6.36-3.76,9.53-5.64
			C696.75,21.74,696.83,21.72,696.92,21.68z"/>
		<path class="st1" d="M705.82,8.21c-0.41,0.15-0.72,0.29-1.03,0.37c-2.67,0.74-5,2.11-7.08,3.91c-0.62,0.54-1.25,0.71-2.08,0.63
			c-3.07-0.29-6.11,0.07-9.15,0.51c-0.15,0.02-0.3,0.03-0.58,0.06c0.31-1.81,0.58-3.56,0.93-5.29c0.04-0.21,0.44-0.41,0.71-0.5
			c2.55-0.86,5.16-1.36,7.88-1.44c3.38-0.1,6.63,0.43,9.81,1.48C705.4,7.99,705.55,8.08,705.82,8.21z"/>
		<path class="st1" d="M677.92,87.52c-3.35-8.44-4.38-17.19-4.92-26.27c0.35,1.11,0.62,2.02,0.92,2.92
			c1.04,3.14,2.15,6.26,3.11,9.42c1.35,4.45,1.81,9,1.05,13.62C678.08,87.28,678.02,87.34,677.92,87.52z"/>
		<path class="st1" d="M674.07,122.32c3.55-2.27,7.28-4.21,10.15-7.41c2.83-3.16,5.01-6.75,7.27-10.33
			c-0.39,1.44-0.81,2.87-1.15,4.31c-0.98,4.23-3.9,6.98-7.14,9.47c-2.53,1.95-5.42,3.17-8.53,3.87
			C674.48,122.28,674.28,122.3,674.07,122.32z"/>
	</g>
</g>
</svg>
