<?xml version="1.0" encoding="utf-8"?>
<!-- Generator: Adobe Illustrator 25.0.0, SVG Export Plug-In . SVG Version: 6.00 Build 0)  -->
<svg version="1.1" id="Layer_1" xmlns="http://www.w3.org/2000/svg" xmlns:xlink="http://www.w3.org/1999/xlink" x="0px" y="0px"
	 viewBox="0 0 813.47 255.79" style="enable-background:new 0 0 813.47 255.79;" xml:space="preserve">
<style type="text/css">
	.st0{fill:#341C4B;}
	.st1{fill:#E50654;}
	.st2{fill:#FFFFFF;}
</style>
<g>
	<g>
		<path class="st0" d="M264.85,130c1.62,16.57,13.74,20.08,19.94,20.08c10.38,0,19.94-7.95,19.94-19
			c0-14.01-11.99-17.11-23.58-20.88c-8.08-2.43-25.47-7.55-25.47-26.41c-0.27-17.65,14.42-27.49,29.64-27.49
			c12.4,0,26.68,6.87,28.3,25.74h-11.05c-1.21-6.47-4.45-16.3-17.65-16.3c-9.97,0-18.19,6.74-18.19,17.11
			c-0.13,12.13,9.7,15.09,24.79,20.21c9.43,3.64,24.25,8.89,24.25,27.22c0,16.3-12.26,29.24-30.86,29.24
			c-16.71,0-30.59-10.51-31.26-29.51H264.85z"/>
		<path class="st0" d="M341.65,58.04v63.19c0,7.55,0,13.34,4.72,20.08c3.5,4.99,10.11,8.35,17.38,8.35c7.14,0,13.74-3.23,17.11-8.22
			c4.72-6.6,4.72-12.4,4.72-20.21V58.04h11.05v63.19c0.13,11.59-1.35,23.04-11.32,30.72c-5.52,4.72-12.94,7.55-21.56,7.55
			c-7.01,0-15.76-2.02-21.96-7.55c-10.51-8.49-11.32-19.81-11.32-30.72V58.04H341.65z"/>
		<path class="st0" d="M415.49,58.04h26c15.63,0,22.91,1.89,28.03,5.12c8.08,4.85,13.61,15.5,13.61,26.81
			c0.13,6.74-1.75,13.88-5.93,19.54c-5.93,8.08-13.07,9.97-22.23,10.91l24.79,37.32h-12.13l-28.16-43.52h3.23
			c7.01,0,16.71-0.13,22.1-5.12c5.25-5.12,7.55-11.18,7.55-18.32c0-7.41-3.64-15.23-9.84-19.27c-4.99-3.23-11.18-3.64-20.21-3.64
			h-15.63v89.87h-11.18V58.04z"/>
		<path class="st0" d="M495.53,58.04h55.24v9.84h-44.19v34.63h43.93v9.84h-43.93v35.57h44.19v9.84h-55.24V58.04z"/>
		<path class="st0" d="M567.89,58.04h32.74c9.7,0,17.25,2.02,22.37,5.93c6.74,4.45,9.7,11.72,9.7,19.94
			c0,9.16-4.72,16.3-12.26,20.48c16.71,5.66,17.38,19.67,17.38,23.98c0,9.03-3.77,17.52-10.78,22.37
			c-7.95,6.06-14.28,7.01-28.43,7.01h-30.72V58.04z M587.96,97.93h11.18c2.83,0,6.06-0.27,8.62-1.35c3.91-2.02,5.66-5.25,5.66-9.97
			c0-5.12-2.69-8.22-5.52-9.43c-2.29-1.08-5.25-1.48-8.89-1.48h-11.05V97.93z M587.96,140.1h14.15c2.56,0,6.2-0.13,9.3-1.48
			c4.04-1.75,7.14-5.12,7.14-11.45c0-5.79-2.96-9.3-7.01-11.05c-3.23-1.35-6.6-1.35-10.11-1.35h-13.47V140.1z"/>
		<path class="st0" d="M651.43,58.04h55.92V75.7H671.5v22.64h35.17v17.65H671.5v24.12h35.84v17.65h-55.92V58.04z"/>
		<path class="st0" d="M736.59,75.7h-21.56V58.04h63.06V75.7h-21.42v82.06h-20.08V75.7z"/>
	</g>
	<path class="st1" d="M45.5,61.21c0.25-6.03,1.11-14.29,11.07-18.22s83.03-17.01,151.27,0c12.08,2.92,11.27,14.39,11.27,14.39
		s9.98,118.87-86.8,162.95C132.31,220.33,40.57,182.66,45.5,61.21z"/>
	<path d="M202.42,45.94"/>
	<path d="M200.07,42.42"/>
	<g>
		<g>
			<g>
				<path class="st2" d="M169.4,104.44c7.45-4.13,12.11-11.18,12.11-20.23c0-8.12-2.93-15.31-9.58-19.7
					c-5.06-3.86-12.51-5.86-22.1-5.86h-24.75c2.79,0.73,15.08,4.63,20.41,17.44h2.74c3.59,0,6.52,0.4,8.79,1.46
					c2.8,1.2,5.46,4.26,5.46,9.32c0,4.66-1.73,7.85-5.59,9.85c-2.53,1.06-5.72,1.33-8.52,1.33h-12.21l10.49,16.64h3.99
					c3.46,0,6.79,0,9.98,1.33c3.99,1.73,6.92,5.19,6.92,10.92c0,6.26-3.06,9.58-7.06,11.31c-3.06,1.33-6.66,1.46-9.18,1.46h-3.95
					c-1.25,2.8-6.95,13.84-20.28,17.44h20.77c13.98,0,20.23-0.93,28.09-6.92c6.92-4.79,10.65-13.18,10.65-22.1
					C186.57,123.87,185.9,110.03,169.4,104.44z"/>
			</g>
			<path class="st2" d="M98.74,126.53c0.67,13.31,9.58,15.84,13.84,15.84c7.59,0,13.44-6.12,13.44-13.05
				c0-8.39-7.06-10.52-20.77-15.97c-7.45-2.66-24.63-8.79-24.63-27.42c0-18.9,16.64-29.15,32.61-29.15
				c13.05,0,30.35,6.92,31.15,28.75h-18.26c-1.64-5.03-3.84-12.11-13.56-12.11c-6.52,0-12.11,4.53-12.11,11.18
				c-0.13,7.32,5.19,9.18,21.83,16.11c15.04,6.52,23.43,13.71,23.43,27.69c0,15.84-9.72,30.62-32.88,30.62
				c-22.36,0-33.94-13.44-33.81-32.48H98.74z"/>
		</g>
		<path class="st0" d="M226.3,57.28c0.19-6.24-3.01-17.93-16.72-21.25c-70.16-17.49-144.91-3.94-155.64,0.29
			c-14.85,5.85-15.4,19.47-15.61,24.6c-2.65,65.16,22.15,106.78,43.41,130.21c23.14,25.51,46.85,35.42,47.84,35.83l2.87,1.18
			l2.82-1.29c41.57-18.94,70.49-54.43,83.64-102.64C228.19,90.24,226.6,61.51,226.3,57.28z M205.09,120.44
			c-11.84,43.43-36.32,74.36-72.78,91.98c-6.54-3.26-23.77-12.93-40.39-31.42c-28-31.15-41.21-71.35-39.25-119.5
			c0.05-1.16,0.12-2.23,0.24-3.2c1.07-5.7,7.36-9.06,10.33-9.76c0.4-0.09,0.82-0.22,1.27-0.38c19.4-4.52,79.87-12.4,137.2,0.74
			c3.26,0.81,10.26,4.67,10.4,11.21C212.42,67.33,212.82,92.09,205.09,120.44z"/>
	</g>
</g>
</svg>
