<svg width="20" height="22" viewBox="0 0 20 22" fill="none" xmlns="http://www.w3.org/2000/svg">
<g opacity="0.87">
<path fill-rule="evenodd" clip-rule="evenodd" d="M6.42854 6.83831C6.42854 4.84399 8.04525 3.22728 10.0396 3.22728V3.22728C12.0339 3.22728 13.6506 4.84399 13.6506 6.83831V7.77273V7.77273C13.48 9.40824 13.0067 11.0111 12.2656 12.479V12.479C11.9594 13.0856 11.938 13.8027 12.212 14.4246L12.2674 14.5503C12.5601 15.2149 13.1211 15.7242 13.8108 15.9515L17.0418 17.0166C17.0418 17.0166 18.2205 17.6394 17.0418 18.3831C16.6448 18.6336 16.228 19.03 14.9847 19.5696C14.8118 19.6447 14.0916 19.8945 13.2502 20.1804C11.1468 20.895 8.86097 20.8702 6.77034 20.1192C6.24108 19.9291 5.84194 19.7839 5.77771 19.7558C4.18132 19.0573 3.20992 18.3144 2.84662 18.0827C1.92352 17.4941 3.13284 16.8367 3.13284 16.8367L6.16058 15.9241C6.85544 15.7147 7.42492 15.2135 7.72095 14.5509L7.82967 14.3075C8.07371 13.7613 8.05352 13.1333 7.77489 12.6038L7.48696 12.0567C6.7918 10.7357 6.42854 9.26544 6.42854 7.77273V7.77273V6.83831Z" stroke="white" stroke-width="1.5"/>
</g>
</svg>
