<svg width="41" height="41" viewBox="0 0 41 41" fill="none" xmlns="http://www.w3.org/2000/svg">
<path d="M10.3452 31.125C8.09516 28.875 5.97016 26.625 3.84516 24.25C3.84516 24.5 3.72016 24.625 3.72016 24.875C2.72016 29.75 3.34516 33.875 5.47016 36C6.97016 37.5 9.34516 38.25 12.3452 38.25C13.7202 38.25 15.0952 38.125 16.5952 37.75C16.8452 37.75 16.9702 37.625 17.2202 37.625C14.8452 35.5 12.5952 33.375 10.3452 31.125Z" fill="white"/>
<path d="M31.5952 9.87498C33.8452 12.125 35.9702 14.375 38.0952 16.75C38.0952 16.5 38.2202 16.375 38.2202 16.125C39.2202 11.25 38.5952 7.12497 36.4702 4.99997C34.3452 2.87497 30.2202 2.24998 25.3452 3.24998C25.0952 3.24998 24.9702 3.37497 24.7202 3.37497C27.0952 5.49997 29.3452 7.62498 31.5952 9.87498Z" fill="white"/>
<path d="M29.8452 11.625C27.2202 9.125 24.5952 6.625 21.8452 4.25C17.9702 5.625 14.2202 7.875 11.2202 10.875C8.22015 13.875 5.97015 17.5 4.59515 21.5C6.97015 24.125 9.47015 26.875 11.9702 29.375C14.5952 32 17.2202 34.5 19.8452 36.75C23.7202 35.375 27.4702 33.125 30.4702 30.125C33.4702 27.125 35.7202 23.5 37.0952 19.5C34.8452 16.875 32.3452 14.25 29.8452 11.625ZM28.7202 16.5C28.4702 16.75 28.0952 16.875 27.8452 16.875C27.5952 16.875 27.2202 16.75 26.9702 16.5L26.8452 16.375L24.7202 18.5L24.8452 18.625C25.3452 19.125 25.3452 19.875 24.8452 20.375C24.5952 20.625 24.2202 20.75 23.9702 20.75C23.7202 20.75 23.3452 20.625 23.0952 20.375L22.9702 20.25L20.8452 22.375L20.9702 22.5C21.4702 23 21.4702 23.75 20.9702 24.25C20.7202 24.5 20.3452 24.625 20.0952 24.625C19.8452 24.625 19.4702 24.5 19.2202 24.25H18.9702L16.8452 26.375L16.9702 26.5C17.4702 27 17.4702 27.75 16.9702 28.25C16.7202 28.5 16.3452 28.625 16.0952 28.625C15.8452 28.625 15.4702 28.5 15.2202 28.25L13.2202 26.25C12.7202 25.75 12.7202 25 13.2202 24.5C13.7202 24 14.4702 24 14.9702 24.5L15.0952 24.625L17.2202 22.5V22.375C16.7202 21.875 16.7202 21.125 17.2202 20.625C17.7202 20.125 18.4702 20.125 18.9702 20.625L19.0952 20.75L21.2202 18.625L21.0952 18.5C20.5952 18 20.5952 17.25 21.0952 16.75C21.5952 16.25 22.3452 16.25 22.8452 16.75L22.9702 16.875L25.0952 14.75L24.9702 14.625C24.4702 14.125 24.4702 13.375 24.9702 12.875C25.4702 12.375 26.2202 12.375 26.7202 12.875L28.7202 14.875C29.0952 15.25 29.0952 16 28.7202 16.5Z" fill="white"/>
</svg>
