<svg width="60" height="60" viewBox="0 0 60 60" fill="none" xmlns="http://www.w3.org/2000/svg">
<path d="M58.1182 42.3797C57.0841 40.7677 55.6337 39.8578 54.4656 39.3563C53.293 38.8547 52.3852 38.7448 52.3244 38.737L52.2956 38.7334L39.881 37.7189L38.3356 40.6978C38.2071 40.6464 38.0783 40.5949 37.9781 40.5486C37.7773 40.4553 37.6362 40.3734 37.5475 40.307C37.4146 40.2032 37.3928 40.1657 37.3485 40.0663C37.3078 39.9677 37.2689 39.7662 37.2703 39.4268C37.2703 38.5571 37.2703 37.4676 37.2703 36.0222C37.9406 35.5799 38.5559 35.0758 39.0906 34.4887C39.3395 34.2165 39.5648 33.92 39.7878 33.6208C39.7765 33.7132 39.7616 33.7995 39.7607 33.9113C39.7674 34.0919 39.7633 34.31 39.9289 34.6474C40.0144 34.8123 40.1665 35.0139 40.4017 35.1631C40.6346 35.3157 40.9277 35.3854 41.1613 35.3819C41.4557 35.3785 41.6647 35.3035 41.8303 35.2302C42.0773 35.1159 42.2524 34.9858 42.4392 34.8306C42.6233 34.6763 42.8111 34.4939 43.0233 34.2697C44.3895 32.8077 45.5983 30.6051 46.5207 27.997C47.4354 25.3913 48.0376 22.3915 48.0393 19.3846C48.0393 18.6318 48.0008 17.8791 47.9194 17.1332C47.5027 13.3621 45.8822 9.22488 42.9458 5.95187C41.4769 4.31797 39.6718 2.90666 37.5288 1.90608C35.3869 0.904923 32.9095 0.321339 30.139 0.322267C30.0109 0.322267 29.8802 0.324006 29.7472 0.326672C29.6174 0.324006 29.4872 0.322267 29.3569 0.322267C26.5864 0.321339 24.1091 0.904923 21.967 1.90631C18.7505 3.40921 16.304 5.82829 14.5925 8.54902C12.8802 11.2723 11.8877 14.3036 11.5766 17.1333C11.495 17.88 11.457 18.6319 11.457 19.3847C11.4585 22.3916 12.0605 25.3915 12.9752 27.9971C13.8976 30.6036 15.1065 32.8079 16.4722 34.2698C16.756 34.5689 16.9929 34.7923 17.2427 34.9782C17.3695 35.0697 17.4997 35.1553 17.6658 35.2303C17.8309 35.3036 18.0398 35.3794 18.3353 35.3821C18.5692 35.3855 18.8641 35.3149 19.0962 35.1623C19.2711 35.0506 19.4033 34.9074 19.4911 34.7759C19.6236 34.5752 19.672 34.4042 19.7015 34.2646C19.7296 34.126 19.7354 34.0126 19.7359 33.9105C19.7345 33.805 19.72 33.7246 19.7102 33.6357C20.3006 34.4295 20.9737 35.1308 21.7623 35.7214C21.9106 35.8322 22.0703 35.9307 22.2259 36.0337C22.2259 37.4739 22.2259 38.559 22.2259 39.4269C22.2264 39.7105 22.1911 39.8954 22.1481 40.0105C22.0784 40.1779 22.0242 40.2548 21.7667 40.4223C21.6269 40.5095 21.4215 40.6054 21.165 40.7075L19.615 37.7189L7.18509 38.7352L7.1715 38.737C7.11126 38.7448 6.20281 38.8547 5.0303 39.3563C3.86224 39.8578 2.41184 40.7677 1.3781 42.3797C0.478664 43.7929 0.0752425 45.6597 0.0703125 47.645C0.0716352 49.5484 0.460267 51.5624 1.26459 53.3779C1.32735 53.6395 1.45541 53.8375 1.58973 54.0006C1.90609 54.3671 2.31312 54.6401 2.84521 54.9392C3.77302 55.453 5.08813 55.986 6.76651 56.5216C11.7913 58.1153 20.0529 59.6759 29.7482 59.6777C37.6258 59.6777 44.5614 58.644 49.5766 57.4036C52.0861 56.7825 54.1119 56.1117 55.561 55.4732C56.287 55.153 56.8679 54.8451 57.3176 54.525C57.5428 54.3627 57.7374 54.1988 57.9061 54.0006C58.04 53.8375 58.168 53.6395 58.2314 53.3788C59.0358 51.5617 59.4243 49.5476 59.4257 47.6451C59.4207 45.6597 59.0173 43.7929 58.1182 42.3797ZM36.6277 34.3458C35.8301 34.9415 34.905 35.3943 33.7785 35.7065C32.9016 35.9491 31.897 36.1008 30.7524 36.1567V31.5824C33.3754 31.551 35.7152 31.3573 37.6528 30.9028C38.3842 30.731 39.0579 30.5199 39.6759 30.2669C38.8679 32.0447 37.8985 33.3967 36.6277 34.3458ZM35.5628 40.3185C34.4604 40.9875 32.2563 42.0972 29.7482 42.0972C27.2288 42.0972 25.0171 40.9789 23.9196 40.3108C23.9902 40.0281 24.0308 39.7368 24.0313 39.427C24.0313 38.7571 24.0313 37.9607 24.0313 36.9732C24.4127 37.125 24.8045 37.2654 25.2201 37.3797C26.5443 37.7461 28.0413 37.9241 29.7482 37.9241C31.4546 37.9241 32.9517 37.7462 34.2762 37.3797C34.6928 37.2654 35.0824 37.1198 35.4647 36.9681C35.4647 37.9572 35.4647 38.7563 35.4647 39.427C35.4655 39.7402 35.4981 40.0315 35.5628 40.3185ZM39.9298 28.1856C39.8249 28.25 39.7204 28.3147 39.6041 28.3757C38.654 28.8765 37.3268 29.2577 35.7062 29.5002C34.2689 29.7174 32.592 29.8238 30.7525 29.8465V26.2561H39.9298V28.1856ZM27.2862 2.83108C27.9498 2.74552 28.637 2.69498 29.3568 2.69498C29.4762 2.69498 29.5974 2.69671 29.7201 2.70031H29.778C29.8965 2.69683 30.0168 2.69498 30.139 2.69498C30.8588 2.69498 31.546 2.74564 32.2096 2.83108V12.135H27.2862V2.83108ZM19.5507 19.1344C19.5502 18.817 19.5748 18.5641 19.6236 18.3904C19.6757 18.2151 19.7286 18.1209 19.838 18.0083C20.3072 17.5408 20.9528 17.2773 21.6267 17.2773H37.8696C38.5432 17.2773 39.1883 17.5399 39.6574 18.0074C39.7669 18.1208 39.8203 18.215 39.8724 18.3912C39.9212 18.564 39.9462 18.8169 39.9452 19.1344C39.9452 19.3211 39.938 19.5287 39.9303 19.752L39.9298 19.7712V24.5159H19.5661V19.7712L19.5656 19.752C19.5579 19.5287 19.5507 19.3211 19.5507 19.1344ZM19.5661 26.2561H28.9469V29.8447C26.5846 29.7985 24.521 29.597 22.8839 29.2132C21.9397 28.9908 21.1395 28.709 20.5057 28.3757C20.1325 28.1803 19.8254 27.9666 19.5661 27.7407V26.2561ZM21.7594 33.3382C20.9369 32.4406 20.2592 31.2935 19.668 29.9163C20.8862 30.5478 22.3859 30.956 24.1245 31.2194C25.5726 31.4376 27.1954 31.5474 28.947 31.5797V36.1619C27.7192 36.1148 26.6448 35.9631 25.7174 35.7065C24.029 35.2355 22.7894 34.4593 21.7594 33.3382ZM47.2857 47.338V50.5018H57.2873C57.1086 51.2878 56.8666 52.0607 56.5399 52.7794L56.4797 52.9102L56.4778 52.9338C56.3997 53.0097 56.1991 53.1772 55.8992 53.3463C55.2017 53.7581 53.9955 54.2745 52.409 54.7892C49.2332 55.8237 44.5161 56.8731 38.8756 57.4619L38.8761 50.5018H29.7132V56.1709H32.6535V53.4685H35.9357V57.7167C33.9555 57.8563 31.8894 57.9383 29.7482 57.9383C28.3078 57.9383 26.9121 57.8921 25.5423 57.8266V50.5018H21.6308L20.2085 53.8637H22.1642V57.6042C17.5949 57.2099 13.5583 56.5077 10.3681 55.7173C7.93866 55.1171 5.99117 54.4664 4.68507 53.8907C4.03311 53.6046 3.54046 53.3342 3.2532 53.1265C3.13151 53.0402 3.0572 52.9713 3.01752 52.9295L3.01619 52.9102L2.95607 52.7785C2.62937 52.0606 2.38743 51.2877 2.20863 50.5017H11.1832V47.3379H1.88337C1.92281 45.7119 2.30098 44.2377 2.91314 43.2948C3.70387 42.0613 4.82119 41.3521 5.76499 40.9465C6.23455 40.745 6.65577 40.6211 6.95253 40.5496C7.10043 40.5156 7.21815 40.4929 7.29415 40.4789L7.37688 40.4667L7.38914 40.4649L18.548 39.5525L20.0313 42.4128L29.7483 48.1097L39.4648 42.4136L40.9482 39.5515L52.107 40.4648C52.1568 40.47 52.9073 40.5774 53.8198 40.9848C54.745 41.3974 55.8167 42.0986 56.583 43.2946C57.1952 44.2384 57.5734 45.7118 57.6126 47.3378L47.2857 47.338Z" fill="white"/>
</svg>
