<svg width="56" height="59" viewBox="0 0 56 59" fill="none" xmlns="http://www.w3.org/2000/svg">
<g clip-path="url(#clip0_268_917)">
<rect x="0.447815" y="0.5" width="55.403" height="58" rx="4" fill="white" fill-opacity="0.2"/>
<path d="M4.16497 51.7536H1.98135L1.96951 50.8364H3.95193C4.27938 50.8364 4.5654 50.7812 4.81 50.6707C5.05459 50.5602 5.24396 50.4024 5.37809 50.1973C5.51617 49.9882 5.58521 49.7397 5.58521 49.4517C5.58521 49.1361 5.52406 48.8796 5.40177 48.6824C5.28341 48.4812 5.09996 48.3352 4.85142 48.2445C4.60682 48.1498 4.29516 48.1024 3.91643 48.1024H2.23581V55.7836H1.0937V47.1674H3.91643C4.35828 47.1674 4.75279 47.2128 5.09996 47.3035C5.44713 47.3903 5.74105 47.5284 5.9817 47.7178C6.22629 47.9032 6.41172 48.1399 6.53796 48.4279C6.6642 48.7159 6.72732 49.0611 6.72732 49.4635C6.72732 49.8186 6.63659 50.1401 6.45511 50.4281C6.27364 50.7121 6.02115 50.9449 5.69765 51.1264C5.37809 51.3078 5.00331 51.4242 4.57329 51.4755L4.16497 51.7536ZM4.11171 55.7836H1.5316L2.17663 54.8545H4.11171C4.47466 54.8545 4.78238 54.7914 5.03487 54.6651C5.2913 54.5389 5.48659 54.3614 5.62072 54.1325C5.75485 53.8998 5.82192 53.6256 5.82192 53.31C5.82192 52.9904 5.76472 52.7143 5.65031 52.4815C5.5359 52.2488 5.3564 52.0693 5.1118 51.943C4.8672 51.8168 4.55159 51.7536 4.16497 51.7536H2.53761L2.54944 50.8364H4.77449L5.01712 51.1678C5.43135 51.2033 5.78247 51.3217 6.07046 51.5229C6.35846 51.7201 6.57741 51.9726 6.72732 52.2803C6.88118 52.588 6.95811 52.9273 6.95811 53.2982C6.95811 53.8347 6.83976 54.2884 6.60305 54.6592C6.37029 55.0261 6.04087 55.3062 5.6148 55.4995C5.18873 55.6889 4.6877 55.7836 4.11171 55.7836ZM12.2544 54.6888V51.3927C12.2544 51.1402 12.2031 50.9212 12.1006 50.7358C12.0019 50.5464 11.852 50.4005 11.6508 50.2979C11.4496 50.1953 11.2011 50.144 10.9052 50.144C10.629 50.144 10.3864 50.1914 10.1773 50.2861C9.97219 50.3807 9.81044 50.505 9.69208 50.6589C9.57767 50.8127 9.52047 50.9784 9.52047 51.156H8.4257C8.4257 50.9271 8.48488 50.7003 8.60323 50.4754C8.72158 50.2506 8.89122 50.0474 9.11215 49.8659C9.33702 49.6805 9.60529 49.5345 9.91695 49.428C10.2326 49.3175 10.5837 49.2623 10.9703 49.2623C11.4358 49.2623 11.8461 49.3412 12.2012 49.499C12.5602 49.6568 12.8403 49.8955 13.0415 50.215C13.2466 50.5307 13.3492 50.9271 13.3492 51.4045V54.387C13.3492 54.6 13.367 54.8269 13.4025 55.0675C13.4419 55.3082 13.4991 55.5153 13.5741 55.6889V55.7836H12.432C12.3767 55.6573 12.3333 55.4897 12.3018 55.2806C12.2702 55.0675 12.2544 54.8703 12.2544 54.6888ZM12.4438 51.9016L12.4556 52.6709H11.349C11.0374 52.6709 10.7592 52.6965 10.5146 52.7478C10.27 52.7952 10.0649 52.8681 9.8992 52.9668C9.73351 53.0654 9.60726 53.1897 9.52047 53.3396C9.43368 53.4855 9.39028 53.6572 9.39028 53.8544C9.39028 54.0556 9.43565 54.2391 9.52639 54.4048C9.61712 54.5705 9.75323 54.7026 9.93471 54.8012C10.1201 54.8959 10.347 54.9433 10.6152 54.9433C10.9506 54.9433 11.2465 54.8723 11.5029 54.7302C11.7593 54.5882 11.9625 54.4146 12.1124 54.2095C12.2663 54.0043 12.3491 53.8051 12.361 53.6118L12.8285 54.1385C12.8008 54.3042 12.7259 54.4876 12.6036 54.6888C12.4813 54.89 12.3176 55.0833 12.1124 55.2687C11.9112 55.4502 11.6706 55.6021 11.3905 55.7244C11.1143 55.8428 10.8026 55.9019 10.4555 55.9019C10.0215 55.9019 9.6408 55.8171 9.31335 55.6475C8.98985 55.4778 8.73736 55.251 8.55589 54.9669C8.37836 54.6789 8.28959 54.3574 8.28959 54.0024C8.28959 53.6591 8.35666 53.3573 8.49079 53.097C8.62493 52.8326 8.81824 52.6137 9.07073 52.4401C9.32321 52.2626 9.62699 52.1284 9.98205 52.0377C10.3371 51.947 10.7336 51.9016 11.1715 51.9016H12.4438ZM18.7994 54.0852C18.7994 53.9274 18.7639 53.7814 18.6929 53.6473C18.6258 53.5092 18.4857 53.3849 18.2727 53.2745C18.0636 53.1601 17.748 53.0614 17.3259 52.9786C16.9708 52.9036 16.6493 52.8149 16.3613 52.7123C16.0773 52.6097 15.8346 52.4855 15.6334 52.3395C15.4362 52.1935 15.2843 52.0219 15.1778 51.8247C15.0712 51.6274 15.018 51.3966 15.018 51.1323C15.018 50.8798 15.0732 50.6411 15.1837 50.4162C15.2981 50.1914 15.4579 49.9921 15.663 49.8186C15.8721 49.645 16.1226 49.5089 16.4146 49.4102C16.7065 49.3116 17.032 49.2623 17.391 49.2623C17.9038 49.2623 18.3418 49.353 18.7047 49.5345C19.0677 49.716 19.3458 49.9586 19.5391 50.2624C19.7324 50.5622 19.8291 50.8956 19.8291 51.2625H18.7343C18.7343 51.0849 18.681 50.9133 18.5745 50.7476C18.4719 50.578 18.3201 50.4379 18.1189 50.3275C17.9216 50.217 17.679 50.1618 17.391 50.1618C17.0872 50.1618 16.8406 50.2091 16.6513 50.3038C16.4658 50.3945 16.3297 50.5109 16.2429 50.653C16.1601 50.795 16.1187 50.9449 16.1187 51.1027C16.1187 51.2211 16.1384 51.3276 16.1779 51.4223C16.2213 51.513 16.2962 51.5978 16.4027 51.6767C16.5092 51.7517 16.6592 51.8227 16.8525 51.8897C17.0458 51.9568 17.2924 52.0239 17.5922 52.091C18.1169 52.2093 18.5489 52.3513 18.8882 52.517C19.2274 52.6827 19.4799 52.8859 19.6456 53.1265C19.8113 53.3672 19.8942 53.6591 19.8942 54.0024C19.8942 54.2825 19.835 54.5389 19.7166 54.7717C19.6022 55.0044 19.4346 55.2056 19.2136 55.3753C18.9966 55.541 18.7363 55.6711 18.4325 55.7658C18.1327 55.8566 17.7954 55.9019 17.4206 55.9019C16.8564 55.9019 16.3791 55.8013 15.9885 55.6001C15.5979 55.3989 15.302 55.1386 15.1008 54.819C14.8996 54.4994 14.799 54.1621 14.799 53.8071H15.8997C15.9155 54.1069 16.0023 54.3456 16.1601 54.5231C16.3179 54.6967 16.5112 54.821 16.74 54.8959C16.9689 54.9669 17.1957 55.0024 17.4206 55.0024C17.7204 55.0024 17.9709 54.963 18.1721 54.8841C18.3773 54.8052 18.5331 54.6967 18.6396 54.5586C18.7461 54.4205 18.7994 54.2627 18.7994 54.0852ZM22.4328 46.694V55.7836H21.3322V46.694H22.4328ZM26.3444 49.3807L23.5513 52.3691L21.989 53.9905L21.9003 52.8247L23.0187 51.4873L25.007 49.3807H26.3444ZM25.3443 55.7836L23.0601 52.7301L23.6282 51.7536L26.6344 55.7836H25.3443ZM30.0134 55.9019C29.5676 55.9019 29.1632 55.827 28.8003 55.6771C28.4413 55.5232 28.1316 55.3082 27.8712 55.032C27.6148 54.7559 27.4175 54.4284 27.2794 54.0497C27.1413 53.671 27.0723 53.2567 27.0723 52.807V52.5584C27.0723 52.0377 27.1492 51.5741 27.3031 51.1678C27.4569 50.7575 27.666 50.4103 27.9304 50.1263C28.1947 49.8422 28.4945 49.6272 28.8298 49.4813C29.1652 49.3353 29.5124 49.2623 29.8714 49.2623C30.329 49.2623 30.7235 49.3412 31.0549 49.499C31.3902 49.6568 31.6644 49.8777 31.8775 50.1618C32.0905 50.4419 32.2483 50.7733 32.3509 51.156C32.4534 51.5347 32.5047 51.9489 32.5047 52.3987V52.8898H27.7232V51.9963H31.41V51.9134C31.3942 51.6294 31.335 51.3532 31.2324 51.0849C31.1338 50.8167 30.976 50.5958 30.759 50.4222C30.542 50.2486 30.2461 50.1618 29.8714 50.1618C29.6228 50.1618 29.394 50.215 29.1849 50.3216C28.9758 50.4241 28.7963 50.578 28.6464 50.7831C28.4965 50.9883 28.3801 51.2388 28.2973 51.5347C28.2144 51.8306 28.173 52.1718 28.173 52.5584V52.807C28.173 53.1108 28.2144 53.3968 28.2973 53.6651C28.3841 53.9294 28.5083 54.1621 28.6701 54.3633C28.8358 54.5645 29.035 54.7223 29.2678 54.8368C29.5045 54.9512 29.7727 55.0084 30.0726 55.0084C30.4592 55.0084 30.7866 54.9295 31.0549 54.7717C31.3232 54.6139 31.5579 54.4028 31.7591 54.1385L32.4219 54.6651C32.2838 54.8742 32.1082 55.0735 31.8952 55.2628C31.6822 55.4522 31.4198 55.6061 31.1082 55.7244C30.8004 55.8428 30.4355 55.9019 30.0134 55.9019ZM36.4637 49.3807V50.221H33.0018V49.3807H36.4637ZM34.1735 47.8243H35.2683V54.1976C35.2683 54.4146 35.3018 54.5783 35.3689 54.6888C35.4359 54.7993 35.5227 54.8723 35.6293 54.9078C35.7358 54.9433 35.8502 54.961 35.9725 54.961C36.0632 54.961 36.1579 54.9531 36.2565 54.9374C36.3591 54.9176 36.436 54.9018 36.4873 54.89L36.4932 55.7836C36.4064 55.8112 36.292 55.8368 36.15 55.8605C36.0119 55.8881 35.8443 55.9019 35.647 55.9019C35.3787 55.9019 35.1322 55.8487 34.9073 55.7422C34.6824 55.6356 34.5029 55.4581 34.3688 55.2096C34.2386 54.9571 34.1735 54.6178 34.1735 54.1917V47.8243ZM37.7419 46.694H38.8426V54.5409L38.7479 55.7836H37.7419V46.694ZM43.1684 52.5289V52.6531C43.1684 53.1187 43.1131 53.5506 43.0027 53.9491C42.8922 54.3436 42.7305 54.6868 42.5174 54.9788C42.3044 55.2707 42.044 55.4976 41.7363 55.6593C41.4286 55.8211 41.0755 55.9019 40.677 55.9019C40.2707 55.9019 39.9137 55.8329 39.6059 55.6948C39.3022 55.5528 39.0457 55.3496 38.8366 55.0853C38.6275 54.821 38.4599 54.5014 38.3336 54.1266C38.2113 53.7518 38.1265 53.3297 38.0792 52.8602V52.3158C38.1265 51.8424 38.2113 51.4183 38.3336 51.0435C38.4599 50.6687 38.6275 50.3492 38.8366 50.0849C39.0457 49.8166 39.3022 49.6134 39.6059 49.4753C39.9097 49.3333 40.2628 49.2623 40.6652 49.2623C41.0676 49.2623 41.4246 49.3412 41.7363 49.499C42.048 49.6529 42.3083 49.8738 42.5174 50.1618C42.7305 50.4498 42.8922 50.795 43.0027 51.1974C43.1131 51.5958 43.1684 52.0397 43.1684 52.5289ZM42.0677 52.6531V52.5289C42.0677 52.2093 42.0381 51.9095 41.9789 51.6294C41.9197 51.3453 41.8251 51.0968 41.6949 50.8837C41.5647 50.6668 41.3931 50.4971 41.18 50.3748C40.967 50.2486 40.7047 50.1855 40.393 50.1855C40.1168 50.1855 39.8762 50.2328 39.671 50.3275C39.4698 50.4222 39.2982 50.5504 39.1562 50.7121C39.0142 50.8699 38.8978 51.0514 38.8071 51.2566C38.7203 51.4578 38.6552 51.6669 38.6118 51.8838V53.31C38.6749 53.5861 38.7775 53.8524 38.9195 54.1089C39.0655 54.3614 39.2588 54.5685 39.4994 54.7302C39.744 54.892 40.0458 54.9729 40.4048 54.9729C40.7007 54.9729 40.9532 54.9137 41.1623 54.7953C41.3753 54.673 41.5469 54.5054 41.6771 54.2923C41.8113 54.0793 41.9099 53.8327 41.973 53.5526C42.0361 53.2725 42.0677 52.9727 42.0677 52.6531ZM48.3286 54.6888V51.3927C48.3286 51.1402 48.2773 50.9212 48.1747 50.7358C48.0761 50.5464 47.9262 50.4005 47.725 50.2979C47.5238 50.1953 47.2752 50.144 46.9794 50.144C46.7032 50.144 46.4606 50.1914 46.2515 50.2861C46.0463 50.3807 45.8846 50.505 45.7662 50.6589C45.6518 50.8127 45.5946 50.9784 45.5946 51.156H44.4999C44.4999 50.9271 44.559 50.7003 44.6774 50.4754C44.7957 50.2506 44.9654 50.0474 45.1863 49.8659C45.4112 49.6805 45.6794 49.5345 45.9911 49.428C46.3067 49.3175 46.6578 49.2623 47.0445 49.2623C47.51 49.2623 47.9203 49.3412 48.2753 49.499C48.6343 49.6568 48.9144 49.8955 49.1156 50.215C49.3208 50.5307 49.4234 50.9271 49.4234 51.4045V54.387C49.4234 54.6 49.4411 54.8269 49.4766 55.0675C49.5161 55.3082 49.5733 55.5153 49.6482 55.6889V55.7836H48.5061C48.4509 55.6573 48.4075 55.4897 48.3759 55.2806C48.3444 55.0675 48.3286 54.8703 48.3286 54.6888ZM48.518 51.9016L48.5298 52.6709H47.4232C47.1115 52.6709 46.8334 52.6965 46.5888 52.7478C46.3442 52.7952 46.1391 52.8681 45.9734 52.9668C45.8077 53.0654 45.6814 53.1897 45.5946 53.3396C45.5078 53.4855 45.4644 53.6572 45.4644 53.8544C45.4644 54.0556 45.5098 54.2391 45.6005 54.4048C45.6913 54.5705 45.8274 54.7026 46.0089 54.8012C46.1943 54.8959 46.4211 54.9433 46.6894 54.9433C47.0247 54.9433 47.3206 54.8723 47.577 54.7302C47.8335 54.5882 48.0367 54.4146 48.1866 54.2095C48.3404 54.0043 48.4233 53.8051 48.4351 53.6118L48.9026 54.1385C48.875 54.3042 48.8 54.4876 48.6777 54.6888C48.5554 54.89 48.3917 55.0833 48.1866 55.2687C47.9854 55.4502 47.7447 55.6021 47.4646 55.7244C47.1885 55.8428 46.8768 55.9019 46.5296 55.9019C46.0957 55.9019 45.715 55.8171 45.3875 55.6475C45.064 55.4778 44.8115 55.251 44.63 54.9669C44.4525 54.6789 44.3638 54.3574 44.3638 54.0024C44.3638 53.6591 44.4308 53.3573 44.565 53.097C44.6991 52.8326 44.8924 52.6137 45.1449 52.4401C45.3974 52.2626 45.7011 52.1284 46.0562 52.0377C46.4113 51.947 46.8078 51.9016 47.2457 51.9016H48.518ZM52.3349 46.694V55.7836H51.2342V46.694H52.3349ZM55.2819 46.694V55.7836H54.1812V46.694H55.2819Z" fill="white"/>
<path d="M46.3035 6.49998V29.8333C46.3035 30.2753 46.1279 30.6993 45.8153 31.0118C45.5028 31.3244 45.0789 31.5 44.6368 31.5H41.3035C40.8615 31.5 40.4376 31.3244 40.125 31.0118C39.8124 30.6993 39.6368 30.2753 39.6368 29.8333C39.6368 29.3913 39.8124 28.9674 40.125 28.6548C40.4376 28.3422 40.8615 28.1666 41.3035 28.1666H42.9702V8.16664H12.9702V28.1666H14.6368C15.0789 28.1666 15.5028 28.3422 15.8154 28.6548C16.1279 28.9674 16.3035 29.3913 16.3035 29.8333C16.3035 30.2753 16.1279 30.6993 15.8154 31.0118C15.5028 31.3244 15.0789 31.5 14.6368 31.5H11.3035C10.8615 31.5 10.4376 31.3244 10.125 31.0118C9.81244 30.6993 9.63684 30.2753 9.63684 29.8333V6.49998C9.63684 6.05795 9.81244 5.63403 10.125 5.32146C10.4376 5.0089 10.8615 4.83331 11.3035 4.83331H44.6368C45.0789 4.83331 45.5028 5.0089 45.8153 5.32146C46.1279 5.63403 46.3035 6.05795 46.3035 6.49998ZM32.9785 36.3333L33.1285 34.8333H29.6368V36.5C29.6368 36.942 29.4612 37.3659 29.1487 37.6785C28.8361 37.991 28.4122 38.1666 27.9702 38.1666C27.5281 38.1666 27.1042 37.991 26.7917 37.6785C26.4791 37.3659 26.3035 36.942 26.3035 36.5V34.8333H22.8035L22.9535 36.3333C22.9766 36.5511 22.9566 36.7713 22.8945 36.9814C22.8324 37.1914 22.7296 37.3871 22.5918 37.5574C22.4541 37.7277 22.2841 37.8691 22.0916 37.9737C21.8992 38.0782 21.688 38.1438 21.4702 38.1666C21.4147 38.1698 21.359 38.1698 21.3035 38.1666C20.8906 38.1662 20.4926 38.0126 20.1865 37.7355C19.8804 37.4583 19.6881 37.0775 19.6468 36.6666L18.1368 21.5H17.9702C17.5281 21.5 17.1042 21.3244 16.7917 21.0118C16.4791 20.6993 16.3035 20.2753 16.3035 19.8333C16.3035 19.3913 16.4791 18.9674 16.7917 18.6548C17.1042 18.3422 17.5281 18.1666 17.9702 18.1666H37.9702C38.4122 18.1666 38.8361 18.3422 39.1487 18.6548C39.4612 18.9674 39.6368 19.3913 39.6368 19.8333C39.6368 20.2753 39.4612 20.6993 39.1487 21.0118C38.8361 21.3244 38.4122 21.5 37.9702 21.5H37.8118L36.3035 36.6666C36.262 37.0792 36.0683 37.4615 35.7601 37.7388C35.452 38.0162 35.0515 38.1687 34.6368 38.1666C34.5813 38.1698 34.5257 38.1698 34.4702 38.1666C34.2516 38.1448 34.0395 38.08 33.8461 37.9759C33.6527 37.8718 33.4818 37.7305 33.3432 37.5601C33.2045 37.3897 33.101 37.1936 33.0384 36.9831C32.9758 36.7726 32.9555 36.5517 32.9785 36.3333ZM26.3035 28.1666H22.1452L22.4785 31.5H26.3035V28.1666ZM26.3035 21.5H21.4785L21.8118 24.8333H26.3035V21.5ZM29.6368 24.8333H34.1368L34.4702 21.5H29.6368V24.8333ZM33.4702 31.5L33.8035 28.1666H29.6368V31.5H33.4702Z" fill="white"/>
</g>
<defs>
<clipPath id="clip0_268_917">
<rect x="0.447815" y="0.5" width="55.403" height="58" rx="4" fill="white"/>
</clipPath>
</defs>
</svg>
