<svg width="59" height="60" viewBox="0 0 59 60" fill="none" xmlns="http://www.w3.org/2000/svg">
<mask id="path-1-inside-1_471_67801" fill="white">
<path d="M58.4823 8.07462C58.1477 6.43455 57.2041 4.79062 55.5858 3.15043C54.1451 1.68877 52.7119 0.771813 51.2694 0.346948C50.1918 0.0266031 49.1235 -0.00122242 48.1497 0.187594C46.6806 0.470526 45.4385 1.19668 44.3703 2.01379C43.3039 2.83394 42.3926 3.76423 41.6118 4.5555C38.84 7.36869 35.2345 11.0248 31.0768 15.244C29.9235 16.418 28.7816 17.9632 27.6092 19.7097C25.8528 22.3271 24.0434 25.3964 22.2643 28.2161C20.4926 31.033 18.7286 33.6064 17.2161 35.1344L7.15185 45.3453C5.386 44.5299 3.23434 44.8426 1.78239 46.314C-0.0837138 48.2083 -0.0837138 51.288 1.78239 53.1824L6.27273 57.7371C8.13883 59.6306 11.1753 59.6306 13.0414 57.7362C14.4916 56.2648 14.7997 54.081 13.9962 52.2902L24.0603 42.0794C25.0642 41.0589 26.5277 39.9156 28.2123 38.7415C30.7401 36.9787 33.7614 35.1361 36.5597 33.3292C39.3635 31.5154 41.9312 29.7651 43.665 28.0156C47.8227 23.7964 51.4263 20.1392 54.2 17.3271C54.892 16.6221 55.6936 15.8136 56.431 14.8823C56.9851 14.184 57.503 13.4138 57.9039 12.5497C58.505 11.2618 58.8208 9.71282 58.4823 8.07462ZM10.9881 55.6531C10.2527 56.3984 9.05956 56.3984 8.32597 55.6541L3.83564 51.0982C3.10194 50.353 3.10194 49.1434 3.83564 48.3983C4.57106 47.652 5.76408 47.652 6.49963 48.3973L10.9881 52.9522C11.7235 53.6974 11.7235 54.9069 10.9881 55.6531ZM12.1659 49.9798L9.42819 47.2021L10.6137 45.9995L14.5256 47.5858L12.1659 49.9798ZM16.0154 46.0752L12.1036 44.4879L14.3781 42.1793L18.2899 43.7666L16.0154 46.0752ZM19.7798 42.255L15.8678 40.6685L19.1331 37.3557L21.8709 40.1343L19.7798 42.255ZM55.65 10.1482C55.495 11.0019 55.0374 11.8824 54.389 12.7504C53.7423 13.6174 52.9256 14.4547 52.1448 15.244C49.373 18.0562 45.7693 21.7133 41.6097 25.9325C40.6871 26.8707 39.2767 27.9612 37.6298 29.0987C35.153 30.8088 32.1412 32.6397 29.3127 34.4756C27.0892 35.9219 24.9886 37.3596 23.3003 38.8061L20.4398 35.9038C21.2603 34.9168 22.0753 33.8023 22.8977 32.5918C24.709 29.9169 26.5354 26.8294 28.288 24.0344C30.035 21.2433 31.7348 18.7343 33.1302 17.3282C37.2878 13.1091 40.8933 9.45198 43.6651 6.63973C44.3571 5.93567 45.0831 5.20192 45.8394 4.58812C46.4047 4.12678 46.9813 3.7364 47.5523 3.46505C48.4182 3.06017 49.2218 2.90783 50.1426 3.09583C51.0633 3.28862 52.1864 3.87074 53.5325 5.23372C54.7257 6.44425 55.3116 7.48479 55.5594 8.35089C55.7446 9.00397 55.7541 9.57474 55.65 10.1482Z"/>
<path d="M52.1334 41.5636C51.7836 41.0293 51.3809 40.5211 50.9365 40.0415L50.9308 40.0356L50.8003 39.9024C48.5334 37.5372 45.5063 36.3477 42.4888 36.3477C41.3791 36.3477 40.273 36.5079 39.1973 36.8301C38.2708 37.1044 37.3613 37.5054 36.5106 38.0272L36.5182 38.0233L36.5069 38.03C35.8017 38.4578 35.1285 38.9738 34.5064 39.5674C32.0883 41.8837 30.8669 45.0163 30.8669 48.1431C30.8669 50.2675 31.4284 52.3987 32.5684 54.2805C32.8614 54.7743 33.1981 55.2472 33.5743 55.701L33.5761 55.7038C33.5781 55.7047 33.5781 55.7067 33.5781 55.7067C33.7255 55.887 33.8806 56.0654 34.0413 56.2381C36.3253 58.6895 39.4109 59.9307 42.4926 59.9297C44.1923 59.9297 45.896 59.5508 47.4728 58.7892C48.5468 58.2752 49.5601 57.5799 50.4696 56.709C51.0217 56.1815 51.5114 55.6127 51.933 55.0065C53.3774 52.9694 54.1092 50.5628 54.1092 48.1525V48.1159C54.1092 45.8333 53.4513 43.5428 52.1296 41.5594L52.1334 41.5636ZM34.9243 53.0529L34.8714 53.0969C33.9354 51.6276 33.4402 49.9175 33.4364 48.1431C33.4402 45.9093 34.2285 43.7723 35.6636 42.1082C35.6353 42.3747 35.622 42.6434 35.622 42.9186C35.622 43.6648 35.7259 44.4321 35.9283 45.2003C36.2157 46.2582 36.3707 47.4486 36.3688 48.5525C36.3707 49.2804 36.3045 49.9749 36.1665 50.6185C35.9585 51.5977 35.5804 52.39 35.0661 52.9195L34.9243 53.0529ZM42.4927 57.322C39.9839 57.322 37.6545 56.309 35.9321 54.4704L35.9982 54.4157C36.2459 54.2056 36.4766 53.9582 36.6845 53.681C37.1704 53.0374 37.5392 52.2308 37.7773 51.2851C37.9815 50.4651 38.0855 49.5463 38.0855 48.5517C38.0855 47.2779 37.9134 45.9601 37.5863 44.74C37.4219 44.1253 37.3385 43.5134 37.3385 42.9187C37.3385 42.1159 37.486 41.3102 37.7791 40.5247C37.815 40.4211 37.8585 40.3203 37.8566 40.2551C39.2557 39.4043 40.8589 38.9555 42.4888 38.9555C45.0015 38.9555 47.3385 39.977 49.0666 41.8309C49.2538 42.0334 49.4277 42.2404 49.5942 42.4524L49.5204 42.5713C49.0667 43.2456 48.3445 43.801 47.3727 44.2268C45.6087 44.9941 44.1566 46.2543 43.1715 47.8696C42.2962 49.3016 41.814 50.9857 41.814 52.6115C41.814 54.1395 42.2224 55.4889 42.9938 56.5133C43.1961 56.7857 43.4249 57.0292 43.6707 57.2374L43.6764 57.2421C43.2869 57.2951 42.888 57.322 42.4927 57.322ZM48.7056 54.8138C47.9626 55.5255 47.1061 56.1009 46.2288 56.5125C46.0907 56.499 45.9584 56.4789 45.8298 56.4435C45.6408 56.3993 45.4612 56.3341 45.2815 56.242C44.7465 55.9726 44.3172 55.5159 44.0091 54.8849C43.6971 54.2508 43.5326 53.4644 43.5326 52.6117C43.5326 51.3053 43.9221 49.9463 44.6292 48.7858C45.4346 47.4738 46.6182 46.4504 48.0495 45.8259C49.0836 45.381 49.9269 44.7834 50.5547 44.0545L50.5812 44.0229C51.209 45.2832 51.5398 46.7027 51.5398 48.1357C51.5398 50.6897 50.5339 53.0615 48.7056 54.8138Z"/>
<path d="M32.5703 54.2844C32.5703 54.2835 32.5703 54.2824 32.5684 54.2805L32.5685 54.2815L32.5703 54.2844Z"/>
<path d="M51.933 55.0076L51.933 55.0065L51.9292 55.0123L51.933 55.0076Z"/>
</mask>
<path d="M58.4823 8.07462C58.1477 6.43455 57.2041 4.79062 55.5858 3.15043C54.1451 1.68877 52.7119 0.771813 51.2694 0.346948C50.1918 0.0266031 49.1235 -0.00122242 48.1497 0.187594C46.6806 0.470526 45.4385 1.19668 44.3703 2.01379C43.3039 2.83394 42.3926 3.76423 41.6118 4.5555C38.84 7.36869 35.2345 11.0248 31.0768 15.244C29.9235 16.418 28.7816 17.9632 27.6092 19.7097C25.8528 22.3271 24.0434 25.3964 22.2643 28.2161C20.4926 31.033 18.7286 33.6064 17.2161 35.1344L7.15185 45.3453C5.386 44.5299 3.23434 44.8426 1.78239 46.314C-0.0837138 48.2083 -0.0837138 51.288 1.78239 53.1824L6.27273 57.7371C8.13883 59.6306 11.1753 59.6306 13.0414 57.7362C14.4916 56.2648 14.7997 54.081 13.9962 52.2902L24.0603 42.0794C25.0642 41.0589 26.5277 39.9156 28.2123 38.7415C30.7401 36.9787 33.7614 35.1361 36.5597 33.3292C39.3635 31.5154 41.9312 29.7651 43.665 28.0156C47.8227 23.7964 51.4263 20.1392 54.2 17.3271C54.892 16.6221 55.6936 15.8136 56.431 14.8823C56.9851 14.184 57.503 13.4138 57.9039 12.5497C58.505 11.2618 58.8208 9.71282 58.4823 8.07462ZM10.9881 55.6531C10.2527 56.3984 9.05956 56.3984 8.32597 55.6541L3.83564 51.0982C3.10194 50.353 3.10194 49.1434 3.83564 48.3983C4.57106 47.652 5.76408 47.652 6.49963 48.3973L10.9881 52.9522C11.7235 53.6974 11.7235 54.9069 10.9881 55.6531ZM12.1659 49.9798L9.42819 47.2021L10.6137 45.9995L14.5256 47.5858L12.1659 49.9798ZM16.0154 46.0752L12.1036 44.4879L14.3781 42.1793L18.2899 43.7666L16.0154 46.0752ZM19.7798 42.255L15.8678 40.6685L19.1331 37.3557L21.8709 40.1343L19.7798 42.255ZM55.65 10.1482C55.495 11.0019 55.0374 11.8824 54.389 12.7504C53.7423 13.6174 52.9256 14.4547 52.1448 15.244C49.373 18.0562 45.7693 21.7133 41.6097 25.9325C40.6871 26.8707 39.2767 27.9612 37.6298 29.0987C35.153 30.8088 32.1412 32.6397 29.3127 34.4756C27.0892 35.9219 24.9886 37.3596 23.3003 38.8061L20.4398 35.9038C21.2603 34.9168 22.0753 33.8023 22.8977 32.5918C24.709 29.9169 26.5354 26.8294 28.288 24.0344C30.035 21.2433 31.7348 18.7343 33.1302 17.3282C37.2878 13.1091 40.8933 9.45198 43.6651 6.63973C44.3571 5.93567 45.0831 5.20192 45.8394 4.58812C46.4047 4.12678 46.9813 3.7364 47.5523 3.46505C48.4182 3.06017 49.2218 2.90783 50.1426 3.09583C51.0633 3.28862 52.1864 3.87074 53.5325 5.23372C54.7257 6.44425 55.3116 7.48479 55.5594 8.35089C55.7446 9.00397 55.7541 9.57474 55.65 10.1482Z" fill="white"/>
<path d="M52.1334 41.5636C51.7836 41.0293 51.3809 40.5211 50.9365 40.0415L50.9308 40.0356L50.8003 39.9024C48.5334 37.5372 45.5063 36.3477 42.4888 36.3477C41.3791 36.3477 40.273 36.5079 39.1973 36.8301C38.2708 37.1044 37.3613 37.5054 36.5106 38.0272L36.5182 38.0233L36.5069 38.03C35.8017 38.4578 35.1285 38.9738 34.5064 39.5674C32.0883 41.8837 30.8669 45.0163 30.8669 48.1431C30.8669 50.2675 31.4284 52.3987 32.5684 54.2805C32.8614 54.7743 33.1981 55.2472 33.5743 55.701L33.5761 55.7038C33.5781 55.7047 33.5781 55.7067 33.5781 55.7067C33.7255 55.887 33.8806 56.0654 34.0413 56.2381C36.3253 58.6895 39.4109 59.9307 42.4926 59.9297C44.1923 59.9297 45.896 59.5508 47.4728 58.7892C48.5468 58.2752 49.5601 57.5799 50.4696 56.709C51.0217 56.1815 51.5114 55.6127 51.933 55.0065C53.3774 52.9694 54.1092 50.5628 54.1092 48.1525V48.1159C54.1092 45.8333 53.4513 43.5428 52.1296 41.5594L52.1334 41.5636ZM34.9243 53.0529L34.8714 53.0969C33.9354 51.6276 33.4402 49.9175 33.4364 48.1431C33.4402 45.9093 34.2285 43.7723 35.6636 42.1082C35.6353 42.3747 35.622 42.6434 35.622 42.9186C35.622 43.6648 35.7259 44.4321 35.9283 45.2003C36.2157 46.2582 36.3707 47.4486 36.3688 48.5525C36.3707 49.2804 36.3045 49.9749 36.1665 50.6185C35.9585 51.5977 35.5804 52.39 35.0661 52.9195L34.9243 53.0529ZM42.4927 57.322C39.9839 57.322 37.6545 56.309 35.9321 54.4704L35.9982 54.4157C36.2459 54.2056 36.4766 53.9582 36.6845 53.681C37.1704 53.0374 37.5392 52.2308 37.7773 51.2851C37.9815 50.4651 38.0855 49.5463 38.0855 48.5517C38.0855 47.2779 37.9134 45.9601 37.5863 44.74C37.4219 44.1253 37.3385 43.5134 37.3385 42.9187C37.3385 42.1159 37.486 41.3102 37.7791 40.5247C37.815 40.4211 37.8585 40.3203 37.8566 40.2551C39.2557 39.4043 40.8589 38.9555 42.4888 38.9555C45.0015 38.9555 47.3385 39.977 49.0666 41.8309C49.2538 42.0334 49.4277 42.2404 49.5942 42.4524L49.5204 42.5713C49.0667 43.2456 48.3445 43.801 47.3727 44.2268C45.6087 44.9941 44.1566 46.2543 43.1715 47.8696C42.2962 49.3016 41.814 50.9857 41.814 52.6115C41.814 54.1395 42.2224 55.4889 42.9938 56.5133C43.1961 56.7857 43.4249 57.0292 43.6707 57.2374L43.6764 57.2421C43.2869 57.2951 42.888 57.322 42.4927 57.322ZM48.7056 54.8138C47.9626 55.5255 47.1061 56.1009 46.2288 56.5125C46.0907 56.499 45.9584 56.4789 45.8298 56.4435C45.6408 56.3993 45.4612 56.3341 45.2815 56.242C44.7465 55.9726 44.3172 55.5159 44.0091 54.8849C43.6971 54.2508 43.5326 53.4644 43.5326 52.6117C43.5326 51.3053 43.9221 49.9463 44.6292 48.7858C45.4346 47.4738 46.6182 46.4504 48.0495 45.8259C49.0836 45.381 49.9269 44.7834 50.5547 44.0545L50.5812 44.0229C51.209 45.2832 51.5398 46.7027 51.5398 48.1357C51.5398 50.6897 50.5339 53.0615 48.7056 54.8138Z" fill="white"/>
<path d="M32.5703 54.2844C32.5703 54.2835 32.5703 54.2824 32.5684 54.2805L32.5685 54.2815L32.5703 54.2844Z" fill="white"/>
<path d="M51.933 55.0076L51.933 55.0065L51.9292 55.0123L51.933 55.0076Z" fill="white"/>
<path d="M58.4823 8.07462L58.3694 8.09766L58.3695 8.09793L58.4823 8.07462ZM55.5858 3.15043L55.5037 3.23132L55.5038 3.23137L55.5858 3.15043ZM51.2694 0.346948L51.2366 0.457406L51.2369 0.457487L51.2694 0.346948ZM48.1497 0.187594L48.1715 0.300749L48.1716 0.300721L48.1497 0.187594ZM44.3703 2.01379L44.3002 1.92226L44.3 1.92245L44.3703 2.01379ZM41.6118 4.5555L41.5297 4.47456L41.5297 4.47463L41.6118 4.5555ZM31.0768 15.244L30.9947 15.1631L30.9946 15.1633L31.0768 15.244ZM27.6092 19.7097L27.5135 19.6454L27.5135 19.6455L27.6092 19.7097ZM22.2643 28.2161L22.1668 28.1546L22.1667 28.1548L22.2643 28.2161ZM17.2161 35.1344L17.1342 35.0533L17.134 35.0535L17.2161 35.1344ZM7.15185 45.3453L7.10355 45.4499L7.17707 45.4839L7.23392 45.4262L7.15185 45.3453ZM1.78239 46.314L1.70037 46.2331L1.7003 46.2332L1.78239 46.314ZM1.78239 53.1824L1.7003 53.2633L1.70033 53.2633L1.78239 53.1824ZM6.27273 57.7371L6.3548 57.6562L6.35479 57.6562L6.27273 57.7371ZM13.0414 57.7362L12.9593 57.6553L12.9593 57.6553L13.0414 57.7362ZM13.9962 52.2902L13.9141 52.2093L13.8588 52.2655L13.8911 52.3374L13.9962 52.2902ZM24.0603 42.0794L24.1424 42.1603L24.1425 42.1602L24.0603 42.0794ZM28.2123 38.7415L28.2782 38.8361L28.2782 38.836L28.2123 38.7415ZM36.5597 33.3292L36.6222 33.426L36.6223 33.426L36.5597 33.3292ZM43.665 28.0156L43.7469 28.0967L43.7471 28.0965L43.665 28.0156ZM54.2 17.3271L54.282 17.408L54.2822 17.4078L54.2 17.3271ZM56.431 14.8823L56.3408 14.8107L56.3407 14.8108L56.431 14.8823ZM57.9039 12.5497L57.7995 12.501L57.7994 12.5012L57.9039 12.5497ZM10.9881 55.6531L11.0701 55.7341L11.0702 55.734L10.9881 55.6531ZM8.32597 55.6541L8.2439 55.735L8.2439 55.735L8.32597 55.6541ZM3.83564 51.0982L3.75352 51.179L3.75357 51.1791L3.83564 51.0982ZM3.83564 48.3983L3.75356 48.3174L3.75353 48.3174L3.83564 48.3983ZM6.49963 48.3973L6.5817 48.3165L6.58165 48.3164L6.49963 48.3973ZM10.9881 52.9522L10.906 53.0331L10.9061 53.0331L10.9881 52.9522ZM12.1659 49.9798L12.0839 50.0607L12.1659 50.1439L12.248 50.0607L12.1659 49.9798ZM9.42819 47.2021L9.34613 47.1212L9.26638 47.2021L9.34612 47.283L9.42819 47.2021ZM10.6137 45.9995L10.657 45.8928L10.5857 45.8638L10.5317 45.9187L10.6137 45.9995ZM14.5256 47.5858L14.6077 47.6667L14.7287 47.5439L14.5689 47.479L14.5256 47.5858ZM16.0154 46.0752L15.9721 46.182L16.0435 46.2109L16.0975 46.1561L16.0154 46.0752ZM12.1036 44.4879L12.0215 44.407L11.9005 44.5298L12.0603 44.5946L12.1036 44.4879ZM14.3781 42.1793L14.4214 42.0725L14.35 42.0435L14.296 42.0984L14.3781 42.1793ZM18.2899 43.7666L18.372 43.8475L18.493 43.7247L18.3333 43.6598L18.2899 43.7666ZM19.7798 42.255L19.7365 42.3618L19.8078 42.3907L19.8619 42.3359L19.7798 42.255ZM15.8678 40.6685L15.7858 40.5876L15.6647 40.7105L15.8245 40.7753L15.8678 40.6685ZM19.1331 37.3557L19.2152 37.2749L19.1331 37.1916L19.051 37.2748L19.1331 37.3557ZM21.8709 40.1343L21.9529 40.2152L22.0327 40.1344L21.9529 40.0534L21.8709 40.1343ZM55.65 10.1482L55.5366 10.1276L55.5366 10.1276L55.65 10.1482ZM54.389 12.7504L54.2966 12.6814L54.2966 12.6815L54.389 12.7504ZM52.1448 15.244L52.0628 15.163L52.0627 15.1631L52.1448 15.244ZM41.6097 25.9325L41.5276 25.8516L41.5275 25.8517L41.6097 25.9325ZM37.6298 29.0987L37.6953 29.1935L37.6953 29.1935L37.6298 29.0987ZM29.3127 34.4756L29.2499 34.3789L29.2499 34.379L29.3127 34.4756ZM23.3003 38.8061L23.2183 38.887L23.2937 38.9635L23.3753 38.8936L23.3003 38.8061ZM20.4398 35.9038L20.3511 35.8301L20.2844 35.9104L20.3577 35.9847L20.4398 35.9038ZM22.8977 32.5918L22.993 32.6566L22.9931 32.6565L22.8977 32.5918ZM28.288 24.0344L28.3857 24.0957L28.3857 24.0956L28.288 24.0344ZM33.1302 17.3282L33.212 17.4094L33.2123 17.4091L33.1302 17.3282ZM43.6651 6.63973L43.7472 6.72062L43.7473 6.72051L43.6651 6.63973ZM45.8394 4.58812L45.912 4.6776L45.9122 4.6774L45.8394 4.58812ZM47.5523 3.46505L47.5035 3.36066L47.5029 3.36097L47.5523 3.46505ZM50.1426 3.09583L50.1662 2.98304L50.1656 2.98293L50.1426 3.09583ZM53.5325 5.23372L53.6146 5.15283L53.6145 5.15275L53.5325 5.23372ZM55.5594 8.35089L55.6703 8.31945L55.6702 8.31919L55.5594 8.35089ZM52.1334 41.5636L52.0479 41.6409L52.2298 41.5005L52.1334 41.5636ZM50.9365 40.0415L51.0211 39.9631L51.0186 39.9606L50.9365 40.0415ZM50.9308 40.0356L50.8484 40.1162L50.8487 40.1165L50.9308 40.0356ZM50.8003 39.9024L50.7171 39.9821L50.718 39.983L50.8003 39.9024ZM39.1973 36.8301L39.23 36.9406L39.2303 36.9405L39.1973 36.8301ZM36.5106 38.0272L36.4503 37.9289L36.5627 38.13L36.5106 38.0272ZM36.5182 38.0233L36.5767 38.1226L36.4661 37.9205L36.5182 38.0233ZM36.5069 38.03L36.4483 37.9307L36.4471 37.9315L36.5069 38.03ZM34.5064 39.5674L34.4269 39.484L34.4267 39.4842L34.5064 39.5674ZM33.5743 55.701L33.6712 55.6373L33.663 55.6274L33.5743 55.701ZM33.5761 55.7038L33.4798 55.7671L33.4975 55.7939L33.5265 55.8078L33.5761 55.7038ZM33.5781 55.7067L33.4629 55.7066L33.4628 55.7477L33.4889 55.7796L33.5781 55.7067ZM34.0413 56.2381L33.957 56.3166L33.957 56.3166L34.0413 56.2381ZM42.4926 59.9297L42.4926 59.8145L42.4926 59.8145L42.4926 59.9297ZM47.4728 58.7892L47.4231 58.6853L47.4227 58.6855L47.4728 58.7892ZM50.4696 56.709L50.39 56.6257L50.3899 56.6258L50.4696 56.709ZM51.933 55.0065L51.839 54.9398L51.8384 54.9407L51.933 55.0065ZM52.1296 41.5594L52.215 41.4821L52.0337 41.6233L52.1296 41.5594ZM34.9243 53.0529L34.9982 53.1415L35.0032 53.1368L34.9243 53.0529ZM34.8714 53.0969L34.7742 53.1588L34.8445 53.2693L34.9451 53.1855L34.8714 53.0969ZM33.4364 48.1431L33.3211 48.1429L33.3211 48.1433L33.4364 48.1431ZM35.6636 42.1082L35.7782 42.1204L35.8172 41.7536L35.5763 42.0329L35.6636 42.1082ZM35.9283 45.2003L35.8169 45.2297L35.8171 45.2305L35.9283 45.2003ZM36.3688 48.5525L36.2536 48.5523L36.2536 48.5528L36.3688 48.5525ZM36.1665 50.6185L36.0538 50.5943L36.0538 50.5945L36.1665 50.6185ZM35.0661 52.9195L35.1451 53.0035L35.1488 52.9997L35.0661 52.9195ZM35.9321 54.4704L35.8587 54.3816L35.7642 54.4598L35.848 54.5492L35.9321 54.4704ZM35.9982 54.4157L36.0717 54.5045L36.0728 54.5036L35.9982 54.4157ZM36.6845 53.681L36.5925 53.6116L36.5923 53.6119L36.6845 53.681ZM37.7773 51.2851L37.8891 51.3133L37.8892 51.313L37.7773 51.2851ZM37.5863 44.74L37.475 44.7698L37.475 44.7699L37.5863 44.74ZM37.7791 40.5247L37.8871 40.565L37.8879 40.5625L37.7791 40.5247ZM37.8566 40.2551L37.7968 40.1566L37.7395 40.1914L37.7414 40.2583L37.8566 40.2551ZM49.0666 41.8309L49.1513 41.7526L49.1509 41.7523L49.0666 41.8309ZM49.5942 42.4524L49.6921 42.5131L49.7346 42.4446L49.6848 42.3812L49.5942 42.4524ZM49.5204 42.5713L49.6161 42.6356L49.6184 42.632L49.5204 42.5713ZM47.3727 44.2268L47.4186 44.3325L47.4189 44.3323L47.3727 44.2268ZM43.1715 47.8696L43.2698 47.9297L43.2699 47.9296L43.1715 47.8696ZM42.9938 56.5133L43.0863 56.4446L43.0858 56.444L42.9938 56.5133ZM43.6707 57.2374L43.5962 57.3254L43.5981 57.3269L43.6707 57.2374ZM43.6764 57.2421L43.692 57.3563L43.9559 57.3204L43.749 57.1526L43.6764 57.2421ZM48.7056 54.8138L48.7853 54.897L48.7853 54.897L48.7056 54.8138ZM46.2288 56.5125L46.2176 56.6272L46.2491 56.6302L46.2777 56.6168L46.2288 56.5125ZM45.8298 56.4435L45.8604 56.3323L45.8561 56.3313L45.8298 56.4435ZM45.2815 56.242L45.3341 56.1395L45.3334 56.1391L45.2815 56.242ZM44.0091 54.8849L44.1127 54.8343L44.1125 54.834L44.0091 54.8849ZM44.6292 48.7858L44.531 48.7256L44.5308 48.7259L44.6292 48.7858ZM48.0495 45.8259L48.0039 45.7201L48.0034 45.7203L48.0495 45.8259ZM50.5547 44.0545L50.642 44.1297L50.6429 44.1285L50.5547 44.0545ZM50.5812 44.0229L50.6843 43.9715L50.6059 43.8141L50.4929 43.9488L50.5812 44.0229ZM51.5398 48.1357H51.655H51.5398ZM32.5703 54.2844L32.4733 54.3465L32.6856 54.6783V54.2844H32.5703ZM32.5685 54.2815L32.4536 54.2907L32.4559 54.3194L32.4714 54.3436L32.5685 54.2815ZM51.933 55.0076L52.0219 55.081L52.0481 55.0492L52.0482 55.008L51.933 55.0076ZM51.9292 55.0123L51.833 54.9487L52.0181 55.0856L51.9292 55.0123ZM58.5952 8.05158C58.2549 6.38389 57.2972 4.72083 55.6678 3.06949L55.5038 3.23137C57.1111 4.8604 58.0404 6.4852 58.3694 8.09766L58.5952 8.05158ZM55.6678 3.06954C54.2176 1.59815 52.7682 0.668252 51.302 0.236408L51.2369 0.457487C52.6557 0.875375 54.0726 1.77939 55.5037 3.23132L55.6678 3.06954ZM51.3023 0.23649C50.2062 -0.0893192 49.1192 -0.117757 48.1278 0.0744662L48.1716 0.300721C49.1279 0.115312 50.1773 0.142525 51.2366 0.457405L51.3023 0.23649ZM48.1279 0.0744387C46.6345 0.362048 45.3759 1.09945 44.3002 1.92226L44.4403 2.10532C45.501 1.29391 46.7267 0.579003 48.1715 0.300749L48.1279 0.0744387ZM44.3 1.92245C43.2264 2.74819 42.3097 3.68419 41.5297 4.47456L41.6938 4.63644C42.4755 3.84427 43.3814 2.9197 44.4405 2.10513L44.3 1.92245ZM41.5297 4.47463C38.7579 7.28786 35.1525 10.9439 30.9947 15.1631L31.1589 15.3249C35.3165 11.1058 38.9222 7.44952 41.6939 4.63638L41.5297 4.47463ZM30.9946 15.1633C29.8337 16.345 28.6869 17.8975 27.5135 19.6454L27.7049 19.7739C28.8762 18.0289 30.0134 16.4909 31.159 15.3248L30.9946 15.1633ZM27.5135 19.6455C25.7561 22.2643 23.943 25.3395 22.1668 28.1546L22.3617 28.2776C24.1437 25.4532 25.9494 22.3899 27.7049 19.7739L27.5135 19.6455ZM22.1667 28.1548C20.3947 30.9723 18.6367 33.5355 17.1342 35.0533L17.298 35.2154C18.8206 33.6774 20.5906 31.0938 22.3618 28.2775L22.1667 28.1548ZM17.134 35.0535L7.06978 45.2644L7.23392 45.4262L17.2981 35.2153L17.134 35.0535ZM7.20016 45.2407C5.3921 44.4058 3.18787 44.7256 1.70037 46.2331L1.86442 46.395C3.28082 44.9595 5.3799 44.654 7.10355 45.4499L7.20016 45.2407ZM1.7003 46.2332C-0.209998 48.1723 -0.209994 51.324 1.7003 53.2633L1.86448 53.1015C0.0425664 51.252 0.04257 48.2443 1.86448 46.3949L1.7003 46.2332ZM1.70033 53.2633L6.19067 57.818L6.35479 57.6562L1.86445 53.1015L1.70033 53.2633ZM6.19066 57.818C8.1019 59.7572 11.2122 59.7572 13.1235 57.8171L12.9593 57.6553C11.1383 59.5039 8.17577 59.5039 6.3548 57.6562L6.19066 57.818ZM13.1234 57.8171C14.6089 56.31 14.9232 54.0748 14.1013 52.2431L13.8911 52.3374C14.6762 54.0872 14.3743 56.2197 12.9593 57.6553L13.1234 57.8171ZM14.0783 52.3711L24.1424 42.1603L23.9782 41.9985L13.9141 52.2093L14.0783 52.3711ZM24.1425 42.1602C25.1388 41.1473 26.5954 40.0088 28.2782 38.8361L28.1464 38.647C26.46 39.8223 24.9896 40.9704 23.9782 41.9986L24.1425 42.1602ZM28.2782 38.836C30.8039 37.0747 33.8201 35.2354 36.6222 33.426L36.4972 33.2324C33.7027 35.0369 30.6763 36.8827 28.1464 38.647L28.2782 38.836ZM36.6223 33.426C39.4249 31.613 42.003 29.8564 43.7469 28.0967L43.5832 27.9345C41.8594 29.6738 39.3022 31.4178 36.4971 33.2325L36.6223 33.426ZM43.7471 28.0965C47.9048 23.8773 51.5083 20.2201 54.282 17.408L54.1179 17.2462C51.3442 20.0583 47.7406 23.7155 43.5829 27.9347L43.7471 28.0965ZM54.2822 17.4078C54.9733 16.7037 55.7795 15.8908 56.5214 14.9538L56.3407 14.8108C55.6078 15.7364 54.8106 16.5405 54.1177 17.2464L54.2822 17.4078ZM56.5213 14.9539C57.0791 14.2508 57.6027 13.4729 58.0085 12.5982L57.7994 12.5012C57.4034 13.3548 56.891 14.1171 56.3408 14.8107L56.5213 14.9539ZM58.0084 12.5985C58.6177 11.2928 58.9396 9.71847 58.5952 8.0513L58.3695 8.09793C58.7019 9.70717 58.3923 11.2308 57.7995 12.501L58.0084 12.5985ZM10.9061 55.5722C10.2157 56.2718 9.09643 56.2716 8.40804 55.5732L8.2439 55.735C9.02268 56.5251 10.2897 56.525 11.0701 55.7341L10.9061 55.5722ZM8.40805 55.5732L3.91771 51.0173L3.75357 51.1791L8.2439 55.735L8.40805 55.5732ZM3.91775 51.0173C3.22821 50.317 3.22822 49.1794 3.91775 48.4791L3.75353 48.3174C2.97566 49.1074 2.97567 50.389 3.75352 51.179L3.91775 51.0173ZM3.91771 48.4792C4.60801 47.7787 5.72719 47.7787 6.41761 48.4783L6.58165 48.3164C5.80098 47.5253 4.53412 47.5253 3.75356 48.3174L3.91771 48.4792ZM6.41755 48.4782L10.906 53.0331L11.0702 52.8713L6.5817 48.3165L6.41755 48.4782ZM10.9061 53.0331C11.5972 53.7334 11.5973 54.8708 10.906 55.5723L11.0702 55.734C11.8498 54.9429 11.8499 53.6614 11.0701 52.8713L10.9061 53.0331ZM12.248 49.8989L9.51026 47.1212L9.34612 47.283L12.0839 50.0607L12.248 49.8989ZM9.51025 47.283L10.6958 46.0804L10.5317 45.9187L9.34613 47.1212L9.51025 47.283ZM10.5704 46.1063L14.4823 47.6926L14.5689 47.479L10.657 45.8928L10.5704 46.1063ZM14.4435 47.5049L12.0839 49.8989L12.248 50.0607L14.6077 47.6667L14.4435 47.5049ZM16.0588 45.9684L12.1469 44.3811L12.0603 44.5946L15.9721 46.182L16.0588 45.9684ZM12.1857 44.5687L14.4602 42.2601L14.296 42.0984L12.0215 44.407L12.1857 44.5687ZM14.3348 42.286L18.2466 43.8734L18.3333 43.6598L14.4214 42.0725L14.3348 42.286ZM18.2079 43.6857L15.9334 45.9943L16.0975 46.1561L18.372 43.8475L18.2079 43.6857ZM19.8231 42.1482L15.9111 40.5617L15.8245 40.7753L19.7365 42.3618L19.8231 42.1482ZM15.9499 40.7494L19.2152 37.4366L19.051 37.2748L15.7858 40.5876L15.9499 40.7494ZM19.051 37.4366L21.7888 40.2152L21.9529 40.0534L19.2152 37.2749L19.051 37.4366ZM21.7888 40.0534L19.6978 42.1741L19.8619 42.3359L21.9529 40.2152L21.7888 40.0534ZM55.5366 10.1276C55.386 10.9571 54.9394 11.821 54.2966 12.6814L54.4813 12.8193C55.1354 11.9437 55.604 11.0467 55.7633 10.1688L55.5366 10.1276ZM54.2966 12.6815C53.6554 13.5411 52.8443 14.3731 52.0628 15.163L52.2267 15.3251C53.0069 14.5364 53.8291 13.6937 54.4813 12.8193L54.2966 12.6815ZM52.0627 15.1631C49.291 17.9753 45.6872 21.6324 41.5276 25.8516L41.6918 26.0134C45.8514 21.7942 49.4551 18.137 52.2268 15.3249L52.0627 15.1631ZM41.5275 25.8517C40.6129 26.7818 39.2097 27.8674 37.5644 29.0039L37.6953 29.1935C39.3436 28.055 40.7614 26.9595 41.6919 26.0133L41.5275 25.8517ZM37.5644 29.0039C35.089 30.713 32.083 32.5401 29.2499 34.3789L29.3754 34.5722C32.1994 32.7393 35.217 30.9046 37.6953 29.1935L37.5644 29.0039ZM29.2499 34.379C27.0259 35.8256 24.9198 37.2668 23.2254 38.7186L23.3753 38.8936C25.0574 37.4524 27.1526 36.0182 29.3755 34.5722L29.2499 34.379ZM23.3824 38.7252L20.5218 35.8229L20.3577 35.9847L23.2183 38.887L23.3824 38.7252ZM20.5284 35.9775C21.3521 34.9867 22.1693 33.8689 22.993 32.6566L22.8024 32.5271C21.9813 33.7356 21.1686 34.8469 20.3511 35.8301L20.5284 35.9775ZM22.9931 32.6565C24.8058 29.9793 26.6354 26.8868 28.3857 24.0957L28.1904 23.9732C26.4354 26.7719 24.6121 29.8544 22.8023 32.5272L22.9931 32.6565ZM28.3857 24.0956C30.1335 21.3031 31.827 18.8049 33.212 17.4094L33.0484 17.2471C31.6426 18.6636 29.9364 21.1836 28.1903 23.9733L28.3857 24.0956ZM33.2123 17.4091C37.3699 13.1899 40.9753 9.53289 43.7472 6.72062L43.5831 6.55884C40.8112 9.37108 37.2058 13.0282 33.0481 17.2474L33.2123 17.4091ZM43.7473 6.72051C44.4399 6.0158 45.1615 5.28667 45.912 4.6776L45.7668 4.49865C45.0047 5.11717 44.2743 5.85554 43.5829 6.55895L43.7473 6.72051ZM45.9122 4.6774C46.473 4.21979 47.0417 3.83529 47.6018 3.56912L47.5029 3.36097C46.9209 3.63752 46.3364 4.03377 45.7665 4.49884L45.9122 4.6774ZM47.6011 3.56943C48.4499 3.17255 49.2282 3.02675 50.1195 3.20874L50.1656 2.98293C49.2155 2.78892 48.3865 2.94779 47.5035 3.36066L47.6011 3.56943ZM50.119 3.20862C51.0112 3.39545 52.115 3.96251 53.4505 5.3147L53.6145 5.15275C52.2577 3.77896 51.1154 3.1818 50.1662 2.98304L50.119 3.20862ZM53.4505 5.31461C54.6339 6.51533 55.2075 7.53968 55.4486 8.38258L55.6702 8.31919C55.4158 7.42989 54.8174 6.37317 53.6146 5.15283L53.4505 5.31461ZM55.4485 8.38232C55.6287 9.01757 55.6378 9.5705 55.5366 10.1276L55.7633 10.1688C55.8705 9.57898 55.8605 8.99036 55.6703 8.31945L55.4485 8.38232ZM52.2298 41.5005C51.8762 40.9603 51.4694 40.447 51.0211 39.9632L50.852 40.1198C51.2924 40.5951 51.6911 41.0983 52.0369 41.6267L52.2298 41.5005ZM51.0186 39.9606L51.0128 39.9548L50.8487 40.1165L50.8545 40.1224L51.0186 39.9606ZM51.0131 39.955L50.8827 39.8218L50.718 39.983L50.8484 40.1162L51.0131 39.955ZM50.8835 39.8226C48.5941 37.4339 45.5366 36.2325 42.4888 36.2325V36.4629C45.4761 36.4629 48.4728 37.6404 50.7171 39.9821L50.8835 39.8226ZM42.4888 36.2325C41.368 36.2325 40.2507 36.3943 39.1642 36.7197L39.2303 36.9405C40.2953 36.6215 41.3902 36.4629 42.4888 36.4629V36.2325ZM39.1646 36.7196C38.2285 36.9967 37.3098 37.4018 36.4503 37.9289L36.5708 38.1254C37.4129 37.609 38.313 37.212 39.23 36.9406L39.1646 36.7196ZM36.5627 38.13L36.5703 38.1261L36.4661 37.9205L36.4585 37.9244L36.5627 38.13ZM36.4596 37.9241L36.4483 37.9307L36.5654 38.1292L36.5767 38.1226L36.4596 37.9241ZM36.4471 37.9315C35.7346 38.3637 35.0548 38.8849 34.4269 39.484L34.586 39.6508C35.2021 39.0628 35.8687 38.5519 36.5667 38.1285L36.4471 37.9315ZM34.4267 39.4842C31.9848 41.8234 30.7516 44.9866 30.7516 48.1431H30.9821C30.9821 45.046 32.1919 41.9441 34.5861 39.6506L34.4267 39.4842ZM30.7516 48.1431C30.7516 50.2877 31.3185 52.4397 32.4699 54.3402L32.667 54.2207C31.5383 52.3577 30.9821 50.2473 30.9821 48.1431H30.7516ZM32.4693 54.3393C32.7656 54.8387 33.1058 55.3165 33.4856 55.7745L33.663 55.6274C33.2903 55.178 32.9573 54.7099 32.6675 54.2216L32.4693 54.3393ZM33.478 55.7642L33.4798 55.7671L33.6724 55.6405L33.6706 55.6377L33.478 55.7642ZM33.5265 55.8078C33.4959 55.7931 33.4788 55.7684 33.4708 55.7482C33.467 55.7387 33.4651 55.7302 33.4641 55.7236C33.4636 55.7202 33.4633 55.7171 33.4631 55.7143C33.463 55.7129 33.463 55.7116 33.4629 55.7103C33.4629 55.7096 33.4629 55.709 33.4629 55.7084C33.4629 55.7081 33.4629 55.7078 33.4629 55.7075C33.4629 55.7073 33.4629 55.7072 33.4629 55.707C33.4629 55.7069 33.4629 55.7069 33.4629 55.7068C33.4629 55.7068 33.4629 55.7067 33.4629 55.7067C33.4629 55.7066 33.4629 55.7066 33.5781 55.7067C33.6933 55.7068 33.6933 55.7068 33.6933 55.7067C33.6933 55.7067 33.6933 55.7066 33.6933 55.7066C33.6933 55.7065 33.6933 55.7064 33.6933 55.7064C33.6933 55.7062 33.6933 55.7061 33.6933 55.7059C33.6933 55.7056 33.6933 55.7053 33.6933 55.705C33.6933 55.7044 33.6933 55.7037 33.6933 55.7031C33.6932 55.7017 33.6932 55.7003 33.6931 55.6989C33.6929 55.696 33.6925 55.6927 33.692 55.6891C33.6909 55.6821 33.6889 55.673 33.6849 55.6629C33.6764 55.6415 33.6584 55.6153 33.6258 55.5998L33.5265 55.8078ZM33.4889 55.7796C33.6377 55.9617 33.7945 56.142 33.957 56.3166L34.1257 56.1595C33.9667 55.9888 33.8132 55.8122 33.6673 55.6338L33.4889 55.7796ZM33.957 56.3166C36.2635 58.7922 39.38 60.0459 42.4927 60.045L42.4926 59.8145C39.4418 59.8154 36.3871 58.5868 34.1256 56.1595L33.957 56.3166ZM42.4926 60.045C44.2095 60.045 45.9302 59.6622 47.5229 58.893L47.4227 58.6855C45.8617 59.4394 44.1752 59.8145 42.4926 59.8145V60.045ZM47.5226 58.8932C48.6076 58.3738 49.631 57.6715 50.5493 56.7922L50.3899 56.6258C49.4891 57.4882 48.486 58.1765 47.4231 58.6853L47.5226 58.8932ZM50.5492 56.7923C51.1066 56.2597 51.6014 55.6851 52.0276 55.0723L51.8384 54.9407C51.4214 55.5403 50.9368 56.1032 50.39 56.6257L50.5492 56.7923ZM52.027 55.0731C53.4856 53.016 54.2244 50.586 54.2244 48.1525H53.9939C53.9939 50.5396 53.2692 52.9227 51.839 54.9398L52.027 55.0731ZM54.2244 48.1159C54.2244 45.8112 53.5602 43.4984 52.2255 41.4955L52.0337 41.6233C53.3424 43.5873 53.9939 45.8554 53.9939 48.1159H54.2244ZM52.0441 41.6367L52.0479 41.6409L52.2188 41.4863L52.215 41.4821L52.0441 41.6367ZM34.8505 52.9643L34.7976 53.0084L34.9451 53.1855L34.998 53.1414L34.8505 52.9643ZM34.9686 53.035C34.0446 51.5844 33.5553 49.8958 33.5516 48.1428L33.3211 48.1433C33.325 49.9391 33.8263 51.6707 34.7742 53.1588L34.9686 53.035ZM33.5516 48.1432C33.5553 45.9365 34.3341 43.8263 35.7509 42.1834L35.5763 42.0329C34.1229 43.7183 33.325 45.8821 33.3211 48.1429L33.5516 48.1432ZM35.549 42.096C35.5202 42.3669 35.5068 42.6397 35.5068 42.9186H35.7372C35.7372 42.6471 35.7503 42.3826 35.7782 42.1204L35.549 42.096ZM35.5068 42.9186C35.5068 43.6754 35.6122 44.4526 35.8169 45.2297L36.0397 45.171C35.8397 44.4116 35.7372 43.6541 35.7372 42.9186H35.5068ZM35.8171 45.2305C36.1017 46.2783 36.2554 47.4584 36.2536 48.5523L36.4841 48.5527C36.4859 47.4387 36.3296 46.2381 36.0395 45.1701L35.8171 45.2305ZM36.2536 48.5528C36.2554 49.2737 36.1899 49.9598 36.0538 50.5943L36.2792 50.6426C36.4192 49.9899 36.4859 49.2871 36.4841 48.5522L36.2536 48.5528ZM36.0538 50.5945C35.8487 51.56 35.4781 52.3299 34.9835 52.8392L35.1488 52.9997C35.6827 52.45 36.0683 51.6355 36.2792 50.6424L36.0538 50.5945ZM34.9872 52.8355L34.8453 52.9689L35.0032 53.1368L35.1451 53.0034L34.9872 52.8355ZM42.4927 57.2067C40.0159 57.2067 37.7169 56.2071 36.0162 54.3917L35.848 54.5492C37.5921 56.4109 39.9518 57.4372 42.4927 57.4372V57.2067ZM36.0056 54.5592L36.0717 54.5045L35.9248 54.3269L35.8587 54.3816L36.0056 54.5592ZM36.0728 54.5036C36.3275 54.2875 36.564 54.0337 36.7767 53.7502L36.5923 53.6119C36.3892 53.8828 36.1643 54.1237 35.9237 54.3279L36.0728 54.5036ZM36.7764 53.7505C37.2733 53.0923 37.6479 52.271 37.8891 51.3133L37.6656 51.257C37.4304 52.1907 37.0675 52.9825 36.5925 53.6116L36.7764 53.7505ZM37.8892 51.313C38.096 50.4824 38.2007 49.5541 38.2007 48.5517H37.9703C37.9703 49.5384 37.8671 50.4477 37.6655 51.2573L37.8892 51.313ZM38.2007 48.5517C38.2007 47.2679 38.0274 45.9402 37.6976 44.7102L37.475 44.7699C37.7995 45.9801 37.9703 47.2878 37.9703 48.5517H38.2007ZM37.6976 44.7103C37.5356 44.1045 37.4538 43.5026 37.4538 42.9187H37.2233C37.2233 43.5241 37.3081 44.1461 37.475 44.7698L37.6976 44.7103ZM37.4538 42.9187C37.4538 42.1301 37.5986 41.3381 37.887 40.565L37.6711 40.4844C37.3734 41.2824 37.2233 42.1016 37.2233 42.9187H37.4538ZM37.8879 40.5625C37.9034 40.5179 37.9266 40.4572 37.9416 40.4113C37.9568 40.3647 37.9734 40.3063 37.9718 40.2518L37.7414 40.2583C37.7417 40.2691 37.7375 40.2937 37.7225 40.3397C37.7072 40.3864 37.6907 40.4279 37.6702 40.4869L37.8879 40.5625ZM37.9165 40.3536C39.2975 39.5137 40.8801 39.0707 42.4888 39.0707V38.8402C40.8378 38.8402 39.2138 39.2949 37.7968 40.1566L37.9165 40.3536ZM42.4888 39.0707C44.9692 39.0707 47.2758 40.0787 48.9823 41.9094L49.1509 41.7523C47.4012 39.8752 45.0338 38.8402 42.4888 38.8402V39.0707ZM48.982 41.9091C49.1667 42.1089 49.3386 42.3136 49.5036 42.5236L49.6848 42.3812C49.5167 42.1672 49.3408 41.9578 49.1513 41.7526L48.982 41.9091ZM49.4962 42.3916L49.4225 42.5105L49.6184 42.632L49.6921 42.5131L49.4962 42.3916ZM49.4248 42.507C48.9866 43.1583 48.2843 43.7015 47.3264 44.1212L47.4189 44.3323C48.4046 43.9005 49.1469 43.333 49.616 42.6356L49.4248 42.507ZM47.3267 44.1211C45.5413 44.8977 44.0708 46.1737 43.0731 47.8096L43.2699 47.9296C44.2424 46.3349 45.6761 45.0904 47.4186 44.3325L47.3267 44.1211ZM43.0732 47.8095C42.1871 49.2589 41.6988 50.9638 41.6988 52.6115H41.9292C41.9292 51.0076 42.4052 49.3442 43.2698 47.9297L43.0732 47.8095ZM41.6988 52.6115C41.6988 54.1596 42.1126 55.5346 42.9017 56.5826L43.0858 56.444C42.3322 55.4431 41.9292 54.1194 41.9292 52.6115H41.6988ZM42.9013 56.582C43.1088 56.8613 43.3435 57.1113 43.5962 57.3254L43.7452 57.1495C43.5062 56.9471 43.2835 56.71 43.0863 56.4446L42.9013 56.582ZM43.5981 57.3269L43.6038 57.3316L43.749 57.1526L43.7433 57.148L43.5981 57.3269ZM43.6609 57.1279C43.2766 57.1802 42.8828 57.2067 42.4927 57.2067V57.4372C42.8931 57.4372 43.2973 57.41 43.692 57.3563L43.6609 57.1279ZM48.6259 54.7306C47.8922 55.4333 47.0462 56.0017 46.1798 56.4081L46.2777 56.6168C47.1661 56.2001 48.033 55.6176 48.7853 54.897L48.6259 54.7306ZM46.2399 56.3978C46.1056 56.3847 45.9804 56.3654 45.8604 56.3324L45.7992 56.5546C45.9364 56.5924 46.0758 56.6133 46.2176 56.6272L46.2399 56.3978ZM45.8561 56.3313C45.6761 56.2892 45.5053 56.2272 45.3341 56.1395L45.229 56.3446C45.417 56.4409 45.6055 56.5094 45.8036 56.5557L45.8561 56.3313ZM45.3334 56.1391C44.8244 55.8828 44.4116 55.4466 44.1127 54.8343L43.9056 54.9355C44.2229 55.5852 44.6686 56.0623 45.2297 56.345L45.3334 56.1391ZM44.1125 54.834C43.8097 54.2187 43.6479 53.4504 43.6479 52.6117H43.4174C43.4174 53.4784 43.5844 54.2828 43.9057 54.9358L44.1125 54.834ZM43.6479 52.6117C43.6479 51.3274 44.0311 49.989 44.7276 48.8458L44.5308 48.7259C43.8132 49.9037 43.4174 51.2833 43.4174 52.6117H43.6479ZM44.7274 48.8461C45.5202 47.5546 46.6855 46.5467 48.0955 45.9316L48.0034 45.7203C46.5509 46.354 45.3489 47.3931 44.531 48.7256L44.7274 48.8461ZM48.095 45.9318C49.1426 45.481 50.001 44.8739 50.642 44.1296L50.4673 43.9793C49.8527 44.693 49.0246 45.2809 48.0039 45.7201L48.095 45.9318ZM50.6429 44.1285L50.6694 44.097L50.4929 43.9488L50.4664 43.9804L50.6429 44.1285ZM50.478 44.0743C51.0977 45.3183 51.4246 46.7202 51.4246 48.1357H51.655C51.655 46.6852 51.3202 45.2481 50.6843 43.9715L50.478 44.0743ZM51.4246 48.1357C51.4246 50.6586 50.4313 53.0003 48.6259 54.7306L48.7853 54.897C50.6366 53.1227 51.655 50.7207 51.655 48.1357H51.4246ZM32.6856 54.2844C32.6856 54.2782 32.6853 54.2604 32.6769 54.2396C32.6695 54.2213 32.6591 54.2087 32.6523 54.2015L32.4845 54.3594C32.4795 54.3541 32.4701 54.343 32.4632 54.326C32.4553 54.3064 32.4551 54.2896 32.4551 54.2844H32.6856ZM32.4535 54.2897L32.4536 54.2907L32.6834 54.2723L32.6833 54.2712L32.4535 54.2897ZM32.4714 54.3436L32.4733 54.3465L32.6674 54.2223L32.6656 54.2194L32.4714 54.3436ZM52.0482 55.008L52.0482 55.0069L51.8177 55.0061L51.8177 55.0073L52.0482 55.008ZM51.8368 54.943L51.833 54.9487L52.0253 55.0758L52.0291 55.07L51.8368 54.943ZM52.0181 55.0856L52.0219 55.081L51.8441 54.9343L51.8403 54.9389L52.0181 55.0856ZM54.2244 48.1525V48.1159H53.9939V48.1525H54.2244Z" fill="white" mask="url(#path-1-inside-1_471_67801)"/>
</svg>
