<svg width="57" height="59" viewBox="0 0 57 59" fill="none" xmlns="http://www.w3.org/2000/svg">
<g clip-path="url(#clip0_268_946)">
<rect x="0.910522" y="0.5" width="55.403" height="58" rx="4" fill="white" fill-opacity="0.2"/>
<path d="M10.853 47.9308L8.00072 55.7836H6.83494L10.1193 47.1674H10.8708L10.853 47.9308ZM13.2438 55.7836L10.3855 47.9308L10.3678 47.1674H11.1193L14.4155 55.7836H13.2438ZM13.0958 52.594V53.5289H8.25518V52.594H13.0958ZM15.4215 55.2036C15.4215 55.0182 15.4787 54.8624 15.5931 54.7362C15.7115 54.606 15.8811 54.5409 16.102 54.5409C16.323 54.5409 16.4906 54.606 16.605 54.7362C16.7234 54.8624 16.7826 55.0182 16.7826 55.2036C16.7826 55.3851 16.7234 55.539 16.605 55.6652C16.4906 55.7915 16.323 55.8546 16.102 55.8546C15.8811 55.8546 15.7115 55.7915 15.5931 55.6652C15.4787 55.539 15.4215 55.3851 15.4215 55.2036ZM21.7712 47.1674H24.6235C25.2705 47.1674 25.8169 47.2661 26.2627 47.4633C26.7124 47.6606 27.0537 47.9525 27.2864 48.3391C27.5231 48.7218 27.6415 49.1933 27.6415 49.7535C27.6415 50.148 27.5606 50.509 27.3989 50.8364C27.2411 51.1599 27.0122 51.4361 26.7124 51.6649C26.4165 51.8897 26.0615 52.0574 25.6472 52.1679L25.3277 52.2922H22.647L22.6351 51.3631H24.659C25.0693 51.3631 25.4105 51.2921 25.6827 51.15C25.955 51.0041 26.1601 50.8088 26.2982 50.5642C26.4363 50.3196 26.5053 50.0494 26.5053 49.7535C26.5053 49.4221 26.4402 49.1321 26.31 48.8836C26.1798 48.635 25.9747 48.4437 25.6946 48.3096C25.4184 48.1715 25.0614 48.1024 24.6235 48.1024H22.9133V55.7836H21.7712V47.1674ZM26.8071 55.7836L24.7122 51.8779L25.9017 51.872L28.0261 55.7126V55.7836H26.8071ZM32.9911 54.3042V49.3807H34.0918V55.7836H33.0443L32.9911 54.3042ZM33.1982 52.9549L33.6539 52.9431C33.6539 53.3692 33.6085 53.7637 33.5177 54.1266C33.431 54.4856 33.2889 54.7973 33.0917 55.0616C32.8944 55.3259 32.636 55.5331 32.3165 55.683C31.9969 55.8289 31.6083 55.9019 31.1507 55.9019C30.839 55.9019 30.553 55.8566 30.2926 55.7658C30.0362 55.6751 29.8153 55.535 29.6298 55.3457C29.4444 55.1563 29.3004 54.9097 29.1978 54.606C29.0992 54.3022 29.0499 53.9373 29.0499 53.5112V49.3807H30.1447V53.523C30.1447 53.811 30.1762 54.0497 30.2394 54.2391C30.3064 54.4245 30.3952 54.5724 30.5056 54.6829C30.6201 54.7894 30.7463 54.8644 30.8844 54.9078C31.0264 54.9512 31.1724 54.9729 31.3223 54.9729C31.7878 54.9729 32.1567 54.8841 32.4289 54.7066C32.7011 54.5251 32.8964 54.2825 33.0147 53.9787C33.137 53.671 33.1982 53.3297 33.1982 52.9549ZM36.95 46.694V55.7836H35.8493V46.694H36.95ZM41.3646 55.9019C40.9188 55.9019 40.5144 55.827 40.1515 55.6771C39.7925 55.5232 39.4828 55.3082 39.2224 55.032C38.966 54.7559 38.7687 54.4284 38.6306 54.0497C38.4925 53.671 38.4235 53.2567 38.4235 52.807V52.5584C38.4235 52.0377 38.5004 51.5741 38.6543 51.1678C38.8082 50.7575 39.0172 50.4103 39.2816 50.1263C39.5459 49.8422 39.8457 49.6272 40.1811 49.4813C40.5164 49.3353 40.8636 49.2623 41.2226 49.2623C41.6802 49.2623 42.0747 49.3412 42.4061 49.499C42.7414 49.6568 43.0156 49.8777 43.2287 50.1618C43.4417 50.4419 43.5995 50.7733 43.7021 51.156C43.8046 51.5347 43.8559 51.9489 43.8559 52.3987V52.8898H39.0744V51.9963H42.7612V51.9134C42.7454 51.6294 42.6862 51.3532 42.5836 51.0849C42.485 50.8167 42.3272 50.5958 42.1102 50.4222C41.8932 50.2486 41.5973 50.1618 41.2226 50.1618C40.974 50.1618 40.7452 50.215 40.5361 50.3216C40.327 50.4241 40.1475 50.578 39.9976 50.7831C39.8477 50.9883 39.7313 51.2388 39.6485 51.5347C39.5656 51.8306 39.5242 52.1718 39.5242 52.5584V52.807C39.5242 53.1108 39.5656 53.3968 39.6485 53.6651C39.7353 53.9294 39.8595 54.1621 40.0213 54.3633C40.187 54.5645 40.3862 54.7223 40.619 54.8368C40.8557 54.9512 41.1239 55.0084 41.4238 55.0084C41.8104 55.0084 42.1378 54.9295 42.4061 54.7717C42.6744 54.6139 42.9091 54.4028 43.1103 54.1385L43.7731 54.6651C43.635 54.8742 43.4594 55.0735 43.2464 55.2628C43.0334 55.4522 42.771 55.6061 42.4594 55.7244C42.1516 55.8428 41.7867 55.9019 41.3646 55.9019ZM48.8623 54.0852C48.8623 53.9274 48.8268 53.7814 48.7558 53.6473C48.6887 53.5092 48.5487 53.3849 48.3356 53.2745C48.1265 53.1601 47.8109 53.0614 47.3888 52.9786C47.0337 52.9036 46.7122 52.8149 46.4242 52.7123C46.1402 52.6097 45.8975 52.4855 45.6963 52.3395C45.4991 52.1935 45.3472 52.0219 45.2407 51.8247C45.1342 51.6274 45.0809 51.3966 45.0809 51.1323C45.0809 50.8798 45.1361 50.6411 45.2466 50.4162C45.361 50.1914 45.5208 49.9921 45.7259 49.8186C45.935 49.645 46.1855 49.5089 46.4775 49.4102C46.7694 49.3116 47.0949 49.2623 47.4539 49.2623C47.9667 49.2623 48.4047 49.353 48.7676 49.5345C49.1306 49.716 49.4087 49.9586 49.602 50.2624C49.7953 50.5622 49.892 50.8956 49.892 51.2625H48.7972C48.7972 51.0849 48.7439 50.9133 48.6374 50.7476C48.5348 50.578 48.383 50.4379 48.1818 50.3275C47.9845 50.217 47.7419 50.1618 47.4539 50.1618C47.1501 50.1618 46.9035 50.2091 46.7142 50.3038C46.5288 50.3945 46.3926 50.5109 46.3059 50.653C46.223 50.795 46.1816 50.9449 46.1816 51.1027C46.1816 51.2211 46.2013 51.3276 46.2408 51.4223C46.2842 51.513 46.3591 51.5978 46.4656 51.6767C46.5721 51.7517 46.7221 51.8227 46.9154 51.8897C47.1087 51.9568 47.3553 52.0239 47.6551 52.091C48.1798 52.2093 48.6118 52.3513 48.9511 52.517C49.2903 52.6827 49.5428 52.8859 49.7085 53.1265C49.8742 53.3672 49.9571 53.6591 49.9571 54.0024C49.9571 54.2825 49.8979 54.5389 49.7795 54.7717C49.6651 55.0044 49.4975 55.2056 49.2765 55.3753C49.0595 55.541 48.7992 55.6711 48.4954 55.7658C48.1956 55.8566 47.8583 55.9019 47.4835 55.9019C46.9193 55.9019 46.442 55.8013 46.0514 55.6001C45.6608 55.3989 45.3649 55.1386 45.1637 54.819C44.9625 54.4994 44.8619 54.1621 44.8619 53.8071H45.9626C45.9784 54.1069 46.0652 54.3456 46.223 54.5231C46.3808 54.6967 46.5741 54.821 46.8029 54.8959C47.0318 54.9669 47.2586 55.0024 47.4835 55.0024C47.7833 55.0024 48.0338 54.963 48.235 54.8841C48.4402 54.8052 48.596 54.6967 48.7025 54.5586C48.809 54.4205 48.8623 54.2627 48.8623 54.0852Z" fill="white"/>
<path d="M17.3452 32.125C15.0952 29.875 12.9702 27.625 10.8452 25.25C10.8452 25.5 10.7202 25.625 10.7202 25.875C9.72016 30.75 10.3452 34.875 12.4702 37C13.9702 38.5 16.3452 39.25 19.3452 39.25C20.7202 39.25 22.0952 39.125 23.5952 38.75C23.8452 38.75 23.9702 38.625 24.2202 38.625C21.8452 36.5 19.5952 34.375 17.3452 32.125Z" fill="white"/>
<path d="M38.5952 10.875C40.8452 13.125 42.9702 15.375 45.0952 17.75C45.0952 17.5 45.2202 17.375 45.2202 17.125C46.2202 12.25 45.5952 8.125 43.4702 6C41.3452 3.875 37.2202 3.25 32.3452 4.25C32.0952 4.25 31.9702 4.375 31.7202 4.375C34.0952 6.5 36.3452 8.625 38.5952 10.875Z" fill="white"/>
<path d="M36.8452 12.625C34.2202 10.125 31.5952 7.625 28.8452 5.25C24.9702 6.625 21.2202 8.875 18.2202 11.875C15.2202 14.875 12.9702 18.5 11.5952 22.5C13.9702 25.125 16.4702 27.875 18.9702 30.375C21.5952 33 24.2202 35.5 26.8452 37.75C30.7202 36.375 34.4702 34.125 37.4702 31.125C40.4702 28.125 42.7202 24.5 44.0952 20.5C41.8452 17.875 39.3452 15.25 36.8452 12.625ZM35.7202 17.5C35.4702 17.75 35.0952 17.875 34.8452 17.875C34.5952 17.875 34.2202 17.75 33.9702 17.5L33.8452 17.375L31.7202 19.5L31.8452 19.625C32.3452 20.125 32.3452 20.875 31.8452 21.375C31.5952 21.625 31.2202 21.75 30.9702 21.75C30.7202 21.75 30.3452 21.625 30.0952 21.375L29.9702 21.25L27.8452 23.375L27.9702 23.5C28.4702 24 28.4702 24.75 27.9702 25.25C27.7202 25.5 27.3452 25.625 27.0952 25.625C26.8452 25.625 26.4702 25.5 26.2202 25.25H25.9702L23.8452 27.375L23.9702 27.5C24.4702 28 24.4702 28.75 23.9702 29.25C23.7202 29.5 23.3452 29.625 23.0952 29.625C22.8452 29.625 22.4702 29.5 22.2202 29.25L20.2202 27.25C19.7202 26.75 19.7202 26 20.2202 25.5C20.7202 25 21.4702 25 21.9702 25.5L22.0952 25.625L24.2202 23.5V23.375C23.7202 22.875 23.7202 22.125 24.2202 21.625C24.7202 21.125 25.4702 21.125 25.9702 21.625L26.0952 21.75L28.2202 19.625L28.0952 19.5C27.5952 19 27.5952 18.25 28.0952 17.75C28.5952 17.25 29.3452 17.25 29.8452 17.75L29.9702 17.875L32.0952 15.75L31.9702 15.625C31.4702 15.125 31.4702 14.375 31.9702 13.875C32.4702 13.375 33.2202 13.375 33.7202 13.875L35.7202 15.875C36.0952 16.25 36.0952 17 35.7202 17.5Z" fill="white"/>
</g>
<defs>
<clipPath id="clip0_268_946">
<rect x="0.910522" y="0.5" width="55.403" height="58" rx="4" fill="white"/>
</clipPath>
</defs>
</svg>
