<svg width="57" height="59" viewBox="0 0 57 59" fill="none" xmlns="http://www.w3.org/2000/svg">
<g clip-path="url(#clip0_268_905)">
<rect x="0.985107" y="0.5" width="55.403" height="58" rx="4" fill="white" fill-opacity="0.2"/>
<path d="M16.508 53.6059C16.508 53.4047 16.4764 53.2271 16.4133 53.0733C16.3541 52.9155 16.2476 52.7735 16.0937 52.6472C15.9438 52.521 15.7347 52.4006 15.4665 52.2862C15.2021 52.1718 14.8668 52.0554 14.4605 51.9371C14.0344 51.8108 13.6497 51.6708 13.3065 51.5169C12.9633 51.3591 12.6694 51.1796 12.4248 50.9784C12.1802 50.7772 11.9928 50.5464 11.8626 50.2861C11.7324 50.0257 11.6673 49.7278 11.6673 49.3925C11.6673 49.0572 11.7363 48.7475 11.8744 48.4634C12.0125 48.1794 12.2098 47.9328 12.4662 47.7237C12.7266 47.5107 13.0363 47.345 13.3953 47.2266C13.7543 47.1083 14.1547 47.0491 14.5966 47.0491C15.2436 47.0491 15.7919 47.1734 16.2417 47.4219C16.6954 47.6665 17.0406 47.988 17.2773 48.3865C17.514 48.781 17.6323 49.2031 17.6323 49.6529H16.4961C16.4961 49.3294 16.4271 49.0433 16.289 48.7948C16.1509 48.5423 15.9418 48.3451 15.6617 48.203C15.3816 48.0571 15.0266 47.9841 14.5966 47.9841C14.1902 47.9841 13.8549 48.0452 13.5906 48.1675C13.3262 48.2898 13.129 48.4555 12.9988 48.6646C12.8725 48.8737 12.8094 49.1124 12.8094 49.3807C12.8094 49.5621 12.8469 49.7278 12.9219 49.8777C13.0008 50.0237 13.1211 50.1598 13.2828 50.2861C13.4485 50.4123 13.6576 50.5287 13.9101 50.6352C14.1665 50.7417 14.4723 50.8443 14.8273 50.9429C15.3165 51.081 15.7387 51.2349 16.0937 51.4045C16.4488 51.5741 16.7407 51.7655 16.9695 51.9785C17.2023 52.1876 17.3739 52.4263 17.4844 52.6946C17.5988 52.9589 17.656 53.2587 17.656 53.594C17.656 53.9452 17.585 54.2627 17.443 54.5468C17.3009 54.8308 17.0978 55.0735 16.8334 55.2747C16.5691 55.4759 16.2515 55.6317 15.8807 55.7422C15.5138 55.8487 15.1035 55.9019 14.6498 55.9019C14.2514 55.9019 13.8588 55.8467 13.4722 55.7362C13.0895 55.6258 12.7404 55.4601 12.4248 55.2392C12.1131 55.0182 11.8626 54.746 11.6732 54.4225C11.4878 54.0951 11.3951 53.7163 11.3951 53.2863H12.5313C12.5313 53.5822 12.5885 53.8367 12.7029 54.0497C12.8173 54.2588 12.9731 54.4324 13.1704 54.5705C13.3716 54.7085 13.5984 54.8111 13.8509 54.8782C14.1074 54.9413 14.3737 54.9729 14.6498 54.9729C15.0483 54.9729 15.3856 54.9176 15.6617 54.8072C15.9379 54.6967 16.147 54.5389 16.289 54.3337C16.435 54.1286 16.508 53.886 16.508 53.6059ZM20.0408 50.6115V58.2453H18.9401V49.3807H19.9461L20.0408 50.6115ZM24.3548 52.5289V52.6531C24.3548 53.1187 24.2996 53.5506 24.1891 53.9491C24.0787 54.3436 23.9169 54.6868 23.7039 54.9788C23.4948 55.2707 23.2364 55.4976 22.9286 55.6593C22.6209 55.8211 22.2678 55.9019 21.8694 55.9019C21.463 55.9019 21.104 55.8349 20.7924 55.7007C20.4807 55.5666 20.2164 55.3713 19.9994 55.1149C19.7824 54.8585 19.6088 54.5507 19.4786 54.1917C19.3524 53.8327 19.2656 53.4283 19.2183 52.9786V52.3158C19.2656 51.8424 19.3544 51.4183 19.4846 51.0435C19.6148 50.6687 19.7864 50.3492 19.9994 50.0849C20.2164 49.8166 20.4787 49.6134 20.7865 49.4753C21.0942 49.3333 21.4492 49.2623 21.8516 49.2623C22.254 49.2623 22.6111 49.3412 22.9227 49.499C23.2344 49.6529 23.4967 49.8738 23.7098 50.1618C23.9228 50.4498 24.0826 50.795 24.1891 51.1974C24.2996 51.5958 24.3548 52.0397 24.3548 52.5289ZM23.2541 52.6531V52.5289C23.2541 52.2093 23.2206 51.9095 23.1535 51.6294C23.0865 51.3453 22.9819 51.0968 22.8399 50.8837C22.7018 50.6668 22.5243 50.4971 22.3073 50.3748C22.0903 50.2486 21.8319 50.1855 21.5321 50.1855C21.2559 50.1855 21.0153 50.2328 20.8101 50.3275C20.6089 50.4222 20.4373 50.5504 20.2953 50.7121C20.1533 50.8699 20.0369 51.0514 19.9461 51.2566C19.8593 51.4578 19.7943 51.6669 19.7509 51.8838V53.4165C19.8298 53.6927 19.9402 53.953 20.0822 54.1976C20.2243 54.4383 20.4136 54.6336 20.6503 54.7835C20.8871 54.9295 21.1849 55.0024 21.5439 55.0024C21.8398 55.0024 22.0943 54.9413 22.3073 54.819C22.5243 54.6928 22.7018 54.5211 22.8399 54.3042C22.9819 54.0872 23.0865 53.8386 23.1535 53.5585C23.2206 53.2745 23.2541 52.9727 23.2541 52.6531ZM25.4614 52.6531V52.517C25.4614 52.0554 25.5285 51.6274 25.6626 51.2329C25.7967 50.8344 25.9901 50.4892 26.2425 50.1973C26.495 49.9014 26.8008 49.6726 27.1598 49.5108C27.5188 49.3451 27.9212 49.2623 28.367 49.2623C28.8167 49.2623 29.2211 49.3451 29.5801 49.5108C29.9431 49.6726 30.2508 49.9014 30.5033 50.1973C30.7597 50.4892 30.955 50.8344 31.0891 51.2329C31.2233 51.6274 31.2903 52.0554 31.2903 52.517V52.6531C31.2903 53.1147 31.2233 53.5428 31.0891 53.9373C30.955 54.3318 30.7597 54.677 30.5033 54.9729C30.2508 55.2648 29.945 55.4936 29.586 55.6593C29.231 55.8211 28.8286 55.9019 28.3788 55.9019C27.9291 55.9019 27.5247 55.8211 27.1657 55.6593C26.8067 55.4936 26.499 55.2648 26.2425 54.9729C25.9901 54.677 25.7967 54.3318 25.6626 53.9373C25.5285 53.5428 25.4614 53.1147 25.4614 52.6531ZM26.5562 52.517V52.6531C26.5562 52.9727 26.5937 53.2745 26.6686 53.5585C26.7436 53.8386 26.856 54.0872 27.0059 54.3042C27.1598 54.5211 27.3511 54.6928 27.5799 54.819C27.8088 54.9413 28.0751 55.0024 28.3788 55.0024C28.6787 55.0024 28.941 54.9413 29.1659 54.819C29.3947 54.6928 29.5841 54.5211 29.734 54.3042C29.8839 54.0872 29.9963 53.8386 30.0713 53.5585C30.1502 53.2745 30.1896 52.9727 30.1896 52.6531V52.517C30.1896 52.2014 30.1502 51.9036 30.0713 51.6235C29.9963 51.3394 29.8819 51.0889 29.7281 50.8719C29.5781 50.651 29.3888 50.4774 29.16 50.3512C28.9351 50.2249 28.6708 50.1618 28.367 50.1618C28.0672 50.1618 27.8028 50.2249 27.574 50.3512C27.3492 50.4774 27.1598 50.651 27.0059 50.8719C26.856 51.0889 26.7436 51.3394 26.6686 51.6235C26.5937 51.9036 26.5562 52.2014 26.5562 52.517ZM33.758 50.3867V55.7836H32.6632V49.3807H33.7284L33.758 50.3867ZM35.7582 49.3451L35.7523 50.363C35.6615 50.3433 35.5747 50.3314 35.4919 50.3275C35.413 50.3196 35.3222 50.3156 35.2197 50.3156C34.9672 50.3156 34.7443 50.3551 34.551 50.434C34.3577 50.5129 34.1939 50.6234 34.0598 50.7654C33.9257 50.9074 33.8191 51.0771 33.7402 51.2743C33.6653 51.4676 33.616 51.6807 33.5923 51.9134L33.2846 52.091C33.2846 51.7043 33.3221 51.3414 33.397 51.0021C33.4759 50.6628 33.5962 50.363 33.758 50.1026C33.9197 49.8383 34.1249 49.6331 34.3734 49.4872C34.6259 49.3373 34.9258 49.2623 35.2729 49.2623C35.3518 49.2623 35.4426 49.2722 35.5451 49.2919C35.6477 49.3077 35.7187 49.3254 35.7582 49.3451ZM39.7467 49.3807V50.221H36.2848V49.3807H39.7467ZM37.4565 47.8243H38.5513V54.1976C38.5513 54.4146 38.5848 54.5783 38.6519 54.6888C38.719 54.7993 38.8058 54.8723 38.9123 54.9078C39.0188 54.9433 39.1332 54.961 39.2555 54.961C39.3463 54.961 39.4409 54.9531 39.5396 54.9374C39.6421 54.9176 39.7191 54.9018 39.7704 54.89L39.7763 55.7836C39.6895 55.8112 39.5751 55.8368 39.433 55.8605C39.295 55.8881 39.1273 55.9019 38.93 55.9019C38.6618 55.9019 38.4152 55.8487 38.1903 55.7422C37.9655 55.6356 37.786 55.4581 37.6518 55.2096C37.5216 54.9571 37.4565 54.6178 37.4565 54.1917V47.8243ZM44.759 54.0852C44.759 53.9274 44.7235 53.7814 44.6524 53.6473C44.5854 53.5092 44.4453 53.3849 44.2323 53.2745C44.0232 53.1601 43.7076 53.0614 43.2855 52.9786C42.9304 52.9036 42.6089 52.8149 42.3209 52.7123C42.0368 52.6097 41.7942 52.4855 41.593 52.3395C41.3957 52.1935 41.2439 52.0219 41.1373 51.8247C41.0308 51.6274 40.9776 51.3966 40.9776 51.1323C40.9776 50.8798 41.0328 50.6411 41.1433 50.4162C41.2577 50.1914 41.4174 49.9921 41.6226 49.8186C41.8317 49.645 42.0822 49.5089 42.3741 49.4102C42.6661 49.3116 42.9915 49.2623 43.3506 49.2623C43.8634 49.2623 44.3013 49.353 44.6643 49.5345C45.0272 49.716 45.3054 49.9586 45.4987 50.2624C45.692 50.5622 45.7886 50.8956 45.7886 51.2625H44.6939C44.6939 51.0849 44.6406 50.9133 44.5341 50.7476C44.4315 50.578 44.2796 50.4379 44.0784 50.3275C43.8812 50.217 43.6385 50.1618 43.3506 50.1618C43.0468 50.1618 42.8002 50.2091 42.6108 50.3038C42.4254 50.3945 42.2893 50.5109 42.2025 50.653C42.1197 50.795 42.0783 50.9449 42.0783 51.1027C42.0783 51.2211 42.098 51.3276 42.1374 51.4223C42.1808 51.513 42.2558 51.5978 42.3623 51.6767C42.4688 51.7517 42.6187 51.8227 42.812 51.8897C43.0054 51.9568 43.2519 52.0239 43.5518 52.091C44.0765 52.2093 44.5084 52.3513 44.8477 52.517C45.187 52.6827 45.4395 52.8859 45.6052 53.1265C45.7709 53.3672 45.8537 53.6591 45.8537 54.0024C45.8537 54.2825 45.7946 54.5389 45.6762 54.7717C45.5618 55.0044 45.3941 55.2056 45.1732 55.3753C44.9562 55.541 44.6958 55.6711 44.3921 55.7658C44.0922 55.8566 43.7549 55.9019 43.3801 55.9019C42.816 55.9019 42.3386 55.8013 41.9481 55.6001C41.5575 55.3989 41.2616 55.1386 41.0604 54.819C40.8592 54.4994 40.7586 54.1621 40.7586 53.8071H41.8593C41.8751 54.1069 41.9619 54.3456 42.1197 54.5231C42.2775 54.6967 42.4708 54.821 42.6996 54.8959C42.9284 54.9669 43.1553 55.0024 43.3801 55.0024C43.68 55.0024 43.9305 54.963 44.1317 54.8841C44.3368 54.8052 44.4927 54.6967 44.5992 54.5586C44.7057 54.4205 44.759 54.2627 44.759 54.0852Z" fill="white"/>
<path d="M29.1195 39.0224C38.6814 39.0224 46.4329 31.2709 46.4329 21.709C46.4329 12.147 38.6814 4.39552 29.1195 4.39552C19.5575 4.39552 11.806 12.147 11.806 21.709C11.806 31.2709 19.5575 39.0224 29.1195 39.0224Z" stroke="white" stroke-width="2.59701" stroke-linecap="round" stroke-linejoin="round"/>
<path d="M17 9.58955L41.2388 33.8284" stroke="white" stroke-width="2.59701" stroke-linecap="round" stroke-linejoin="round"/>
<path d="M41.2388 9.58955L17 33.8284" stroke="white" stroke-width="2.59701" stroke-linecap="round" stroke-linejoin="round"/>
<path d="M29.1195 4.39552C29.1195 6.66915 28.6716 8.92052 27.8016 11.0211C26.9315 13.1216 25.6562 15.0303 24.0485 16.638C22.4408 18.2457 20.5322 19.521 18.4316 20.391C16.331 21.2611 14.0797 21.709 11.806 21.709" stroke="white" stroke-width="2.59701" stroke-linecap="round" stroke-linejoin="round"/>
<path d="M29.1195 39.0224C29.1195 34.4306 30.9436 30.0268 34.1905 26.7799C37.4374 23.533 41.8411 21.709 46.4329 21.709" stroke="white" stroke-width="2.59701" stroke-linecap="round" stroke-linejoin="round"/>
</g>
<defs>
<clipPath id="clip0_268_905">
<rect x="0.985107" y="0.5" width="55.403" height="58" rx="4" fill="white"/>
</clipPath>
</defs>
</svg>
