<svg width="57" height="52" viewBox="0 0 57 52" fill="none" xmlns="http://www.w3.org/2000/svg">
<path d="M10.4647 25.9999H45.8647M45.8647 37.7999H10.4647M48.8147 14.1999L45.8647 49.5999M48.8147 14.1999H7.51475M48.8147 14.1999C50.3795 14.1999 51.8802 13.5783 52.9867 12.4718C54.0931 11.3654 54.7147 9.86468 54.7147 8.2999C54.7147 6.73513 54.0931 5.23444 52.9867 4.12797C51.8802 3.02151 50.3795 2.3999 48.8147 2.3999H7.51475C5.94997 2.3999 4.44928 3.02151 3.34282 4.12797C2.23635 5.23444 1.61475 6.73513 1.61475 8.2999C1.61475 9.86468 2.23635 11.3654 3.34282 12.4718C4.44928 13.5783 5.94997 14.1999 7.51475 14.1999M35.0382 14.1999L34.0647 49.5999M21.2912 14.1999L22.2647 49.5999M7.51475 14.1999L10.4647 49.5999" stroke="white" stroke-opacity="0.957" stroke-width="3" stroke-linecap="round" stroke-linejoin="round"/>
</svg>
