<svg width="36" height="45" viewBox="0 0 36 45" fill="none" xmlns="http://www.w3.org/2000/svg">
<path d="M25.3275 3.81656e-07H10.7171C9.00282 -0.000468428 7.31348 0.430967 5.79093 1.25808C4.26838 2.08519 2.95707 3.28382 1.96711 4.75332C0.977161 6.22282 0.337472 7.92028 0.101765 9.70315C-0.133941 11.486 0.041218 13.3023 0.612533 14.9993C0.666026 15.1225 0.731296 15.2397 0.807338 15.3491C0.285168 16.276 0.00747246 17.3322 0.00279247 18.4091V25.247C-0.000862577 26.5907 0.249317 27.9218 0.738852 29.1633C1.22839 30.4048 1.94756 31.5321 2.85474 32.4798L5.84695 35.6195V42.9545C5.84695 43.497 6.05219 44.0173 6.41752 44.4009C6.78285 44.7845 7.27835 45 7.795 45H27.2755C27.7922 45 28.2877 44.7845 28.653 44.4009C29.0183 44.0173 29.2236 43.497 29.2236 42.9545V35.6195L32.2158 32.4798C33.123 31.5321 33.8421 30.4048 34.3317 29.1633C34.8212 27.9218 35.0714 26.5907 35.0677 25.247V10.2273C35.0646 7.51583 34.0374 4.91637 32.2115 2.99909C30.3855 1.0818 27.9098 0.00324827 25.3275 3.81656e-07ZM25.3275 40.9091H9.74305V36.8182H25.3275V40.9091ZM31.1716 25.247C31.1738 26.0533 31.0237 26.852 30.7302 27.597C30.4366 28.342 30.0053 29.0186 29.4612 29.5875L26.469 32.7273H8.60149L5.60929 29.5875C5.06521 29.0186 4.63393 28.342 4.34035 27.597C4.04678 26.852 3.89673 26.0533 3.8989 25.247V18.4091C3.8989 17.8666 4.10414 17.3463 4.46947 16.9627C4.8348 16.5791 5.33029 16.3636 5.84695 16.3636C6.3636 16.3636 6.8591 16.5791 7.22443 16.9627C7.58976 17.3463 7.795 17.8666 7.795 18.4091V24.5455C7.795 25.0879 8.00024 25.6082 8.36557 25.9918C8.7309 26.3754 9.2264 26.5909 9.74305 26.5909C10.2597 26.5909 10.7552 26.3754 11.1205 25.9918C11.4859 25.6082 11.6911 25.0879 11.6911 24.5455V22.5H25.3275C25.8441 22.5 26.3396 22.2845 26.705 21.9009C27.0703 21.5173 27.2755 20.997 27.2755 20.4545C27.2755 19.9121 27.0703 19.3918 26.705 19.0082C26.3396 18.6246 25.8441 18.4091 25.3275 18.4091H11.6911C11.6911 16.7816 11.0754 15.2208 9.97939 14.07C8.8834 12.9192 7.39691 12.2727 5.84695 12.2727C5.22868 12.2813 4.61571 12.3939 4.03136 12.6061C3.8331 11.57 3.8572 10.5004 4.10193 9.47523C4.34665 8.45005 4.80584 7.49501 5.44612 6.67951C6.08641 5.86402 6.8917 5.20856 7.80346 4.76079C8.71522 4.31302 9.71054 4.08418 10.7171 4.09091H25.3275C26.8774 4.09091 28.3639 4.73742 29.4599 5.88821C30.5559 7.039 31.1716 8.59981 31.1716 10.2273V25.247Z" fill="white"/>
</svg>
