<svg width="48" height="62" viewBox="0 0 48 62" fill="none" xmlns="http://www.w3.org/2000/svg">
<path d="M45.9559 28.729C46.6642 22.6753 47.1022 11.8277 42.0814 7.20272C34.5771 0.31885 18.5785 -0.475972 9.7835 5.60052C5.65041 8.44723 3.77744 14.3069 5.25903 19.2695C4.13607 19.8904 3.26003 20.6954 2.68227 21.6818C-0.84741 27.554 3.57226 38.2814 6.92719 42.3851C7.73798 43.374 8.66757 44.2198 9.65073 44.9865C8.4602 45.8093 7.6611 47.2557 7.6611 48.909V55.8543C7.6611 58.4148 9.56222 60.5 11.8967 60.5H36.7977C39.1322 60.5 41.0333 58.4148 41.0333 55.8543V48.909C41.0333 47.0001 39.9756 45.357 38.4728 44.6441C42.5826 41.2633 45.0982 35.9275 45.9559 28.729ZM11.8967 58.7647C10.4359 58.7647 9.2454 57.4589 9.2454 55.8567V48.9114C9.2454 47.3066 10.4359 46.0034 11.8967 46.0034H27.3174C25.5771 47.4906 24.4355 49.7827 24.4355 52.3867C24.4355 54.9881 25.5771 57.2828 27.3174 58.77L11.8967 58.7647ZM39.4512 48.909V55.8543C39.4512 57.4591 38.2607 58.7623 36.7999 58.7623H31.8398C28.6293 58.7623 26.0199 55.8978 26.0199 52.379C26.0199 48.8603 28.6293 45.9957 31.8398 45.9957H36.3479C36.3573 45.9957 36.3619 46.0008 36.3712 46.0008C36.3782 46.0008 36.3852 45.9957 36.3945 45.9957H36.7999C38.2607 46.0008 39.4512 47.3042 39.4512 48.909ZM36.1429 44.2633H11.8968C11.771 44.2633 11.6521 44.2914 11.5287 44.3041C10.2566 43.466 9.10101 42.4387 8.10616 41.225C4.5998 36.9396 1.17742 27.3414 4.01035 22.6268C4.5229 21.7503 5.36627 21.045 6.51256 20.5288C6.51488 20.5288 6.51721 20.5263 6.51721 20.5237C6.51955 20.5212 6.52187 20.5237 6.52187 20.5212C10.4499 18.6762 16.2276 19.4888 18.404 22.2C19.4663 23.5186 19.3685 27.275 18.2339 28.4888C17.1436 29.6694 13.9843 29.6898 11.6081 29.35C11.1655 29.2861 10.7764 29.6234 10.7181 30.0987C10.6622 30.574 10.9674 31.0109 11.4008 31.0748C13.1831 31.3329 17.5142 31.7137 19.3452 29.7307C19.6481 29.4062 19.8834 28.9641 20.0861 28.4811C22.777 29.1506 25.5332 29.5211 28.287 29.5697C28.4967 29.5748 28.7064 29.5748 28.9161 29.5748C31.1434 29.5748 33.3824 29.3678 35.5794 28.9615C37.8649 28.5399 39.7405 26.8866 40.4953 24.5944C41.4016 21.7989 40.9496 19.2537 40.6025 17.9859C40.4767 17.526 40.0364 17.2602 39.6147 17.4059C39.1953 17.5439 38.9577 18.0294 39.0858 18.4868C39.3794 19.5523 39.7568 21.6861 38.988 24.0549C38.4428 25.7056 37.0356 26.9322 35.3162 27.2491C33.0051 27.6733 30.624 27.8675 28.3105 27.8317C25.7105 27.7857 23.1104 27.4382 20.5689 26.8172C20.9183 24.7448 20.6108 22.3147 19.588 21.0498C16.9134 17.715 10.8163 17.0685 6.68306 18.6017C5.49252 14.4058 7.13038 9.47925 10.6251 7.07189C18.7747 1.44239 34.1352 2.17834 41.0616 8.53612C45.6723 12.7832 44.9174 23.9171 44.3816 28.5061C43.4799 36.0978 40.7773 41.2475 36.1437 44.2625L36.1429 44.2633Z" stroke="white" stroke-width="2"/>
</svg>
