<svg width="57" height="59" viewBox="0 0 57 59" fill="none" xmlns="http://www.w3.org/2000/svg">
<g clip-path="url(#clip0_268_934)">
<rect x="0.925476" y="0.5" width="55.403" height="58" rx="4" fill="white" fill-opacity="0.2"/>
<path d="M12.9096 47.1674H15.7619C16.4089 47.1674 16.9553 47.2661 17.4011 47.4633C17.8509 47.6606 18.1921 47.9525 18.4249 48.3391C18.6616 48.7218 18.78 49.1933 18.78 49.7535C18.78 50.148 18.6991 50.509 18.5373 50.8364C18.3795 51.1599 18.1507 51.4361 17.8509 51.6649C17.555 51.8897 17.1999 52.0574 16.7857 52.1679L16.4662 52.2922H13.7854L13.7736 51.3631H15.7975C16.2077 51.3631 16.549 51.2921 16.8212 51.15C17.0934 51.0041 17.2986 50.8088 17.4367 50.5642C17.5747 50.3196 17.6438 50.0494 17.6438 49.7535C17.6438 49.4221 17.5787 49.1321 17.4485 48.8836C17.3183 48.635 17.1132 48.4437 16.833 48.3096C16.5569 48.1715 16.1999 48.1024 15.7619 48.1024H14.0517V55.7836H12.9096V47.1674ZM17.9456 55.7836L15.8507 51.8779L17.0402 51.872L19.1646 55.7126V55.7836H17.9456ZM24.1295 54.3042V49.3807H25.2302V55.7836H24.1828L24.1295 54.3042ZM24.3367 52.9549L24.7923 52.9431C24.7923 53.3692 24.747 53.7637 24.6562 54.1266C24.5694 54.4856 24.4274 54.7973 24.2301 55.0616C24.0329 55.3259 23.7745 55.5331 23.4549 55.683C23.1354 55.8289 22.7468 55.9019 22.2891 55.9019C21.9775 55.9019 21.6915 55.8566 21.4311 55.7658C21.1747 55.6751 20.9537 55.535 20.7683 55.3457C20.5829 55.1563 20.4389 54.9097 20.3363 54.606C20.2377 54.3022 20.1884 53.9373 20.1884 53.5112V49.3807H21.2831V53.523C21.2831 53.811 21.3147 54.0497 21.3778 54.2391C21.4449 54.4245 21.5337 54.5724 21.6441 54.6829C21.7585 54.7894 21.8848 54.8644 22.0229 54.9078C22.1649 54.9512 22.3108 54.9729 22.4608 54.9729C22.9263 54.9729 23.2952 54.8841 23.5674 54.7066C23.8396 54.5251 24.0349 54.2825 24.1532 53.9787C24.2755 53.671 24.3367 53.3297 24.3367 52.9549ZM31.0473 49.3807H32.0415V55.6475C32.0415 56.2116 31.9271 56.6929 31.6983 57.0914C31.4694 57.4898 31.1499 57.7916 30.7396 57.9968C30.3332 58.2059 29.8638 58.3104 29.3312 58.3104C29.1103 58.3104 28.8499 58.2749 28.55 58.2039C28.2542 58.1368 27.9622 58.0205 27.6742 57.8548C27.3902 57.693 27.1515 57.4741 26.9582 57.1979L27.5322 56.547C27.8005 56.8705 28.0806 57.0953 28.3725 57.2216C28.6684 57.3478 28.9603 57.4109 29.2483 57.4109C29.5955 57.4109 29.8953 57.3458 30.1478 57.2157C30.4003 57.0855 30.5956 56.8922 30.7337 56.6357C30.8757 56.3832 30.9467 56.0716 30.9467 55.7007V50.7891L31.0473 49.3807ZM26.6386 52.6531V52.5289C26.6386 52.0397 26.6958 51.5958 26.8103 51.1974C26.9286 50.795 27.0963 50.4498 27.3133 50.1618C27.5342 49.8738 27.8005 49.6529 28.1121 49.499C28.4238 49.3412 28.7749 49.2623 29.1655 49.2623C29.5679 49.2623 29.919 49.3333 30.2188 49.4753C30.5226 49.6134 30.779 49.8166 30.9881 50.0849C31.2012 50.3492 31.3688 50.6687 31.4911 51.0435C31.6134 51.4183 31.6983 51.8424 31.7456 52.3158V52.8602C31.7022 53.3297 31.6174 53.7518 31.4911 54.1266C31.3688 54.5014 31.2012 54.821 30.9881 55.0853C30.779 55.3496 30.5226 55.5528 30.2188 55.6948C29.9151 55.8329 29.56 55.9019 29.1537 55.9019C28.771 55.9019 28.4238 55.8211 28.1121 55.6593C27.8044 55.4976 27.5401 55.2707 27.3192 54.9788C27.0982 54.6868 26.9286 54.3436 26.8103 53.9491C26.6958 53.5506 26.6386 53.1187 26.6386 52.6531ZM27.7334 52.5289V52.6531C27.7334 52.9727 27.765 53.2725 27.8281 53.5526C27.8952 53.8327 27.9958 54.0793 28.1299 54.2923C28.268 54.5054 28.4435 54.673 28.6566 54.7953C28.8696 54.9137 29.1241 54.9729 29.4199 54.9729C29.7829 54.9729 30.0827 54.8959 30.3194 54.7421C30.5561 54.5882 30.7435 54.385 30.8816 54.1325C31.0236 53.8801 31.1341 53.6059 31.213 53.31V51.8838C31.1696 51.6669 31.1025 51.4578 31.0118 51.2566C30.925 51.0514 30.8106 50.8699 30.6686 50.7121C30.5305 50.5504 30.3589 50.4222 30.1537 50.3275C29.9486 50.2328 29.7079 50.1855 29.4318 50.1855C29.132 50.1855 28.8735 50.2486 28.6566 50.3748C28.4435 50.4971 28.268 50.6668 28.1299 50.8837C27.9958 51.0968 27.8952 51.3453 27.8281 51.6294C27.765 51.9095 27.7334 52.2093 27.7334 52.5289ZM33.6984 46.694H34.7991V54.5409L34.7044 55.7836H33.6984V46.694ZM39.1249 52.5289V52.6531C39.1249 53.1187 39.0697 53.5506 38.9592 53.9491C38.8488 54.3436 38.687 54.6868 38.474 54.9788C38.261 55.2707 38.0006 55.4976 37.6929 55.6593C37.3851 55.8211 37.0321 55.9019 36.6336 55.9019C36.2272 55.9019 35.8702 55.8329 35.5625 55.6948C35.2587 55.5528 35.0023 55.3496 34.7932 55.0853C34.5841 54.821 34.4164 54.5014 34.2902 54.1266C34.1679 53.7518 34.0831 53.3297 34.0357 52.8602V52.3158C34.0831 51.8424 34.1679 51.4183 34.2902 51.0435C34.4164 50.6687 34.5841 50.3492 34.7932 50.0849C35.0023 49.8166 35.2587 49.6134 35.5625 49.4753C35.8663 49.3333 36.2194 49.2623 36.6218 49.2623C37.0242 49.2623 37.3812 49.3412 37.6929 49.499C38.0045 49.6529 38.2649 49.8738 38.474 50.1618C38.687 50.4498 38.8488 50.795 38.9592 51.1974C39.0697 51.5958 39.1249 52.0397 39.1249 52.5289ZM38.0242 52.6531V52.5289C38.0242 52.2093 37.9947 51.9095 37.9355 51.6294C37.8763 51.3453 37.7816 51.0968 37.6514 50.8837C37.5212 50.6668 37.3496 50.4971 37.1366 50.3748C36.9236 50.2486 36.6612 50.1855 36.3495 50.1855C36.0734 50.1855 35.8327 50.2328 35.6276 50.3275C35.4264 50.4222 35.2548 50.5504 35.1128 50.7121C34.9707 50.8699 34.8543 51.0514 34.7636 51.2566C34.6768 51.4578 34.6117 51.6669 34.5683 51.8838V53.31C34.6314 53.5861 34.734 53.8524 34.876 54.1089C35.022 54.3614 35.2153 54.5685 35.456 54.7302C35.7006 54.892 36.0024 54.9729 36.3614 54.9729C36.6573 54.9729 36.9098 54.9137 37.1188 54.7953C37.3319 54.673 37.5035 54.5054 37.6337 54.2923C37.7678 54.0793 37.8664 53.8327 37.9296 53.5526C37.9927 53.2725 38.0242 52.9727 38.0242 52.6531ZM42.2376 55.1208L44.0189 49.3807H45.1906L42.6223 56.7718C42.5631 56.9296 42.4842 57.0993 42.3856 57.2808C42.2909 57.4662 42.1686 57.6417 42.0187 57.8074C41.8688 57.9731 41.6873 58.1073 41.4743 58.2098C41.2652 58.3163 41.0147 58.3696 40.7227 58.3696C40.6359 58.3696 40.5255 58.3578 40.3913 58.3341C40.2572 58.3104 40.1625 58.2907 40.1073 58.2749L40.1014 57.3873C40.1329 57.3912 40.1822 57.3952 40.2493 57.3991C40.3203 57.407 40.3696 57.4109 40.3972 57.4109C40.6458 57.4109 40.8568 57.3774 41.0304 57.3103C41.204 57.2472 41.35 57.1387 41.4683 56.9849C41.5906 56.835 41.6952 56.6278 41.782 56.3635L42.2376 55.1208ZM40.9298 49.3807L42.5927 54.3515L42.8767 55.5054L42.0897 55.9079L39.7345 49.3807H40.9298Z" fill="white"/>
<g clip-path="url(#clip1_268_934)">
<path d="M44.6889 4.7681C43.407 3.4856 40.8439 2.74998 37.6552 2.74998C32.0927 2.74998 23.9264 4.97373 17.6914 11.2131C8.78767 20.125 7.37955 34.3568 11.2514 38.2319C12.5327 39.5143 15.0964 40.25 18.2845 40.25H18.2858C23.8483 40.25 32.0133 38.0262 38.2483 31.7862C47.1521 22.875 48.5608 8.64373 44.6889 4.7681ZM37.6552 3.95998C38.2777 3.95998 38.8695 3.99498 39.4339 4.0531C39.8358 4.16623 40.1552 4.32685 40.3677 4.53935C42.5639 6.73748 40.3577 16.4162 32.6139 24.1687C24.867 31.9212 15.1245 34.1625 12.9289 31.9643C11.1539 30.1881 13.0345 20.0981 20.7814 12.345C25.8539 7.26872 31.8702 4.6831 35.9514 4.03435C36.5181 3.9872 37.0865 3.96239 37.6552 3.95998ZM37.3939 30.9312C31.9639 36.3644 25.0227 38.6131 19.807 38.9793C24.882 37.1756 31.5589 33.5218 37.412 25.3293C40.8033 20.5831 43.5458 15.3344 45.5064 11.8619C45.4752 17.4187 43.1152 25.2056 37.3939 30.9312Z" fill="white"/>
<path d="M17.6158 27.0562C16.5639 26.0037 16.8014 22.3181 18.7358 18.5356C15.9627 22.9831 15.2258 27.3094 16.2946 28.3787C17.3633 29.4494 21.6864 28.7112 26.1308 25.9362C22.3502 27.8712 18.6683 28.1087 17.6158 27.0562Z" fill="white"/>
<path d="M35.1676 9.48997C36.2201 10.5425 35.9845 14.2275 34.0483 18.0106C36.822 13.5631 37.5589 9.23747 36.4895 8.16685C35.4214 7.09747 31.0976 7.83497 26.6533 10.6106C30.4333 8.67435 34.1164 8.43747 35.1676 9.48997Z" fill="white"/>
</g>
</g>
<defs>
<clipPath id="clip0_268_934">
<rect x="0.925476" y="0.5" width="55.403" height="58" rx="4" fill="white"/>
</clipPath>
<clipPath id="clip1_268_934">
<rect width="41.5522" height="41.5522" fill="white" transform="translate(7.41803 0.932837)"/>
</clipPath>
</defs>
</svg>
