<svg width="45" height="45" viewBox="0 0 45 45" fill="none" xmlns="http://www.w3.org/2000/svg">
<mask id="path-1-inside-1_376_56465" fill="white">
<path d="M42.4653 28.9261L42.2541 30.0106L41.462 30.3571L40.6612 30.7201L41.4533 31.0555L42.2453 31.402L42.474 32.564L42.7027 33.7123L42.9493 32.5508L43.1871 31.3767L43.9351 31.0797C44.3401 30.9147 44.6482 30.7333 44.6042 30.6783C44.5689 30.6233 44.2699 30.4858 43.953 30.3538C43.6275 30.2383 43.3194 30.0953 43.2666 30.0458C43.2138 29.9908 43.082 29.5179 42.9763 28.9872C42.8707 28.4702 42.7651 27.9802 42.7297 27.9285C42.6941 27.8735 42.5796 28.3168 42.4653 28.9261ZM1.81286 23.7115C1.54882 25.0408 1.55756 25.0023 1.43449 25.0672C1.37295 25.0672 1.02076 25.2486 0.659846 25.4026L0 25.6996L0.739286 26.0351C1.15301 26.2275 1.51393 26.464 1.55801 26.563C1.59326 26.6675 1.71641 27.1823 1.82205 27.7119L2.01581 28.6803L2.23575 27.6217C2.35882 27.0404 2.49978 26.5119 2.53515 26.4602C2.57925 26.4052 2.93142 26.2127 3.32724 26.0312L4.04907 25.6957L3.34515 25.3988C2.95805 25.2283 2.60586 25.0523 2.55305 24.9863C2.50895 24.9203 2.35929 24.3797 2.23621 23.799L2.0066 22.7403L1.81286 23.7115ZM17.3383 16.6513C16.1853 17.2194 14.8211 18.8588 14.3986 20.2012L14.1874 20.8722H12.9288H11.6701L10.3413 22.4087C7.23443 25.9971 5.61489 28.5137 4.6382 31.3014C3.83739 33.599 3.58208 35.8313 3.86356 38.168L3.96046 39.0072L7.85067 39.0622H11.7409L11.8378 38.3264C12.172 35.8351 12.9641 33.2152 14.091 30.8526C14.7072 29.5619 14.7775 29.3556 14.9184 28.3492C15.3937 25.0061 16.7405 21.1724 18.5621 17.9591C19.0639 17.0814 19.1957 16.7844 19.1076 16.7074C18.861 16.4984 17.6993 16.4764 17.3383 16.6414L17.3383 16.6513ZM42.8703 11.0501C42.615 11.4626 41.5676 12.1989 40.9165 12.431C40.1597 12.7005 38.2936 12.717 37.3872 12.431L36.7448 12.2495L35.9353 13.4886C34.9673 14.9602 34.307 16.0574 33.6292 17.3607L33.1278 18.316L33.9024 18.679C34.7561 19.0914 35.7947 19.4142 36.3843 19.4659L36.7714 19.5209L35.3723 21.0701C32.7407 23.9744 30.4613 26.981 29.7748 28.44C29.4667 29.0983 29.0971 31.7177 29.0181 33.8735C28.9566 35.3704 29.0267 38.52 29.1237 38.9071C29.159 39.0501 30.0829 39.0721 34.29 39.0721C39.122 39.0721 39.4035 39.0721 39.3419 38.8411C39.0605 37.7951 38.7523 36.208 38.6288 35.201C38.435 33.5231 38.4965 29.9479 38.7611 28.3217C39.4916 23.7137 41.2255 19.4802 44.077 15.3369L45 13.9956L44.0229 12.3947C43.4861 11.5302 43.0457 10.8076 43.037 10.8076C43.0284 10.8076 42.9493 10.9181 42.8703 11.0501ZM1.01204 15.6449V21.0008H2.71929C4.33882 21.0008 4.43571 21.0008 4.48852 20.7589C4.57668 20.3464 5.7825 18.7708 6.31056 18.3836C6.5833 18.1747 7.01449 17.9822 7.29643 17.9437L7.78913 17.8667V14.1238V10.3808L7.05857 10.4468C6.56587 10.5018 6.15214 10.6283 5.75587 10.8593C5.43903 11.0407 5.09556 11.1947 4.99041 11.1947C4.76173 11.1947 4.5326 10.8703 4.5326 10.5364C4.5326 10.3055 4.45363 10.289 2.77255 10.289H1.01204V15.6449ZM8.75709 11.902V19.4522H11.16H13.5537L13.7296 19.0012C13.9495 18.3946 15.0585 16.8586 15.7275 16.2262C17.2414 14.7815 18.3765 14.7419 21.1316 16.0337C22.8568 16.8339 23.7986 17.1435 24.8106 17.2469L25.673 17.3239L24.1852 18.9633C20.9902 22.4478 18.6052 25.3905 17.0917 27.7014C13.9059 32.5673 12.4889 37.0846 12.656 41.8345C12.6913 42.699 12.7704 43.745 12.8319 44.1707L12.9462 44.945L21.1578 45C27.7237 45 29.3602 45 29.3253 44.8735C28.4543 41.956 28.0405 38.9363 28.0318 35.5156C28.0232 27.1779 30.6547 19.1629 35.8737 11.5863L37.2554 9.58558L35.8999 7.36545C35.1519 6.13906 34.5182 5.14531 34.4916 5.14531C34.465 5.14531 34.2717 5.35429 34.0779 5.60726C33.5673 6.25235 32.4496 7.01403 31.5078 7.3627C30.8213 7.62117 30.4958 7.65967 29.0434 7.64867C26.8343 7.64867 26.1565 7.45619 22.3104 5.81569C18.7108 4.26649 17.1354 4.15045 15.2256 5.2608C14.856 5.48078 14.4597 5.66226 14.3541 5.66226C14.0901 5.66226 13.7732 5.14531 13.7732 4.7202V4.37373H11.2647H8.75619V11.9251L8.75709 11.902ZM18.0069 7.01018C18.2181 7.38415 17.9893 7.62997 17.3204 7.78506C16.9861 7.85105 16.4668 8.05453 16.1674 8.20852C15.5865 8.53298 15.3579 8.45599 15.3579 7.96654C15.3579 7.63107 15.5424 7.46059 16.2556 7.11467C17.0215 6.75171 17.831 6.70221 18.0069 7.01018ZM19.0102 42.2338V42.6187L16.7129 42.6737C14.2485 42.7287 14.1254 42.6737 14.2572 42.0539C14.31 41.7955 14.3541 41.7955 16.6596 41.823L19.0097 41.8779V42.2629L19.0102 42.2338ZM29.3515 0.956359C29.2459 1.51126 29.1141 2.02766 29.0521 2.1052C28.9993 2.18219 28.6999 2.35267 28.383 2.47916C27.5028 2.82563 27.4941 2.86413 28.3302 3.20179L29.0957 3.50976L29.3336 4.67125L29.5806 5.82009L29.7831 4.80049C29.8975 4.23295 30.0205 3.7039 30.0646 3.639C30.1087 3.56201 30.4783 3.35303 30.8741 3.17705L31.596 2.84158L30.9357 2.55561C30.5748 2.40162 30.2226 2.23114 30.1523 2.18164C30.0821 2.12665 29.9324 1.62675 29.8267 1.05865C29.7124 0.503752 29.6068 0.0258475 29.5889 0C29.572 0 29.4663 0.413561 29.3515 0.956359Z"/>
</mask>
<path d="M42.4653 28.9261L42.2541 30.0106L41.462 30.3571L40.6612 30.7201L41.4533 31.0555L42.2453 31.402L42.474 32.564L42.7027 33.7123L42.9493 32.5508L43.1871 31.3767L43.9351 31.0797C44.3401 30.9147 44.6482 30.7333 44.6042 30.6783C44.5689 30.6233 44.2699 30.4858 43.953 30.3538C43.6275 30.2383 43.3194 30.0953 43.2666 30.0458C43.2138 29.9908 43.082 29.5179 42.9763 28.9872C42.8707 28.4702 42.7651 27.9802 42.7297 27.9285C42.6941 27.8735 42.5796 28.3168 42.4653 28.9261ZM1.81286 23.7115C1.54882 25.0408 1.55756 25.0023 1.43449 25.0672C1.37295 25.0672 1.02076 25.2486 0.659846 25.4026L0 25.6996L0.739286 26.0351C1.15301 26.2275 1.51393 26.464 1.55801 26.563C1.59326 26.6675 1.71641 27.1823 1.82205 27.7119L2.01581 28.6803L2.23575 27.6217C2.35882 27.0404 2.49978 26.5119 2.53515 26.4602C2.57925 26.4052 2.93142 26.2127 3.32724 26.0312L4.04907 25.6957L3.34515 25.3988C2.95805 25.2283 2.60586 25.0523 2.55305 24.9863C2.50895 24.9203 2.35929 24.3797 2.23621 23.799L2.0066 22.7403L1.81286 23.7115ZM17.3383 16.6513C16.1853 17.2194 14.8211 18.8588 14.3986 20.2012L14.1874 20.8722H12.9288H11.6701L10.3413 22.4087C7.23443 25.9971 5.61489 28.5137 4.6382 31.3014C3.83739 33.599 3.58208 35.8313 3.86356 38.168L3.96046 39.0072L7.85067 39.0622H11.7409L11.8378 38.3264C12.172 35.8351 12.9641 33.2152 14.091 30.8526C14.7072 29.5619 14.7775 29.3556 14.9184 28.3492C15.3937 25.0061 16.7405 21.1724 18.5621 17.9591C19.0639 17.0814 19.1957 16.7844 19.1076 16.7074C18.861 16.4984 17.6993 16.4764 17.3383 16.6414L17.3383 16.6513ZM42.8703 11.0501C42.615 11.4626 41.5676 12.1989 40.9165 12.431C40.1597 12.7005 38.2936 12.717 37.3872 12.431L36.7448 12.2495L35.9353 13.4886C34.9673 14.9602 34.307 16.0574 33.6292 17.3607L33.1278 18.316L33.9024 18.679C34.7561 19.0914 35.7947 19.4142 36.3843 19.4659L36.7714 19.5209L35.3723 21.0701C32.7407 23.9744 30.4613 26.981 29.7748 28.44C29.4667 29.0983 29.0971 31.7177 29.0181 33.8735C28.9566 35.3704 29.0267 38.52 29.1237 38.9071C29.159 39.0501 30.0829 39.0721 34.29 39.0721C39.122 39.0721 39.4035 39.0721 39.3419 38.8411C39.0605 37.7951 38.7523 36.208 38.6288 35.201C38.435 33.5231 38.4965 29.9479 38.7611 28.3217C39.4916 23.7137 41.2255 19.4802 44.077 15.3369L45 13.9956L44.0229 12.3947C43.4861 11.5302 43.0457 10.8076 43.037 10.8076C43.0284 10.8076 42.9493 10.9181 42.8703 11.0501ZM1.01204 15.6449V21.0008H2.71929C4.33882 21.0008 4.43571 21.0008 4.48852 20.7589C4.57668 20.3464 5.7825 18.7708 6.31056 18.3836C6.5833 18.1747 7.01449 17.9822 7.29643 17.9437L7.78913 17.8667V14.1238V10.3808L7.05857 10.4468C6.56587 10.5018 6.15214 10.6283 5.75587 10.8593C5.43903 11.0407 5.09556 11.1947 4.99041 11.1947C4.76173 11.1947 4.5326 10.8703 4.5326 10.5364C4.5326 10.3055 4.45363 10.289 2.77255 10.289H1.01204V15.6449ZM8.75709 11.902V19.4522H11.16H13.5537L13.7296 19.0012C13.9495 18.3946 15.0585 16.8586 15.7275 16.2262C17.2414 14.7815 18.3765 14.7419 21.1316 16.0337C22.8568 16.8339 23.7986 17.1435 24.8106 17.2469L25.673 17.3239L24.1852 18.9633C20.9902 22.4478 18.6052 25.3905 17.0917 27.7014C13.9059 32.5673 12.4889 37.0846 12.656 41.8345C12.6913 42.699 12.7704 43.745 12.8319 44.1707L12.9462 44.945L21.1578 45C27.7237 45 29.3602 45 29.3253 44.8735C28.4543 41.956 28.0405 38.9363 28.0318 35.5156C28.0232 27.1779 30.6547 19.1629 35.8737 11.5863L37.2554 9.58558L35.8999 7.36545C35.1519 6.13906 34.5182 5.14531 34.4916 5.14531C34.465 5.14531 34.2717 5.35429 34.0779 5.60726C33.5673 6.25235 32.4496 7.01403 31.5078 7.3627C30.8213 7.62117 30.4958 7.65967 29.0434 7.64867C26.8343 7.64867 26.1565 7.45619 22.3104 5.81569C18.7108 4.26649 17.1354 4.15045 15.2256 5.2608C14.856 5.48078 14.4597 5.66226 14.3541 5.66226C14.0901 5.66226 13.7732 5.14531 13.7732 4.7202V4.37373H11.2647H8.75619V11.9251L8.75709 11.902ZM18.0069 7.01018C18.2181 7.38415 17.9893 7.62997 17.3204 7.78506C16.9861 7.85105 16.4668 8.05453 16.1674 8.20852C15.5865 8.53298 15.3579 8.45599 15.3579 7.96654C15.3579 7.63107 15.5424 7.46059 16.2556 7.11467C17.0215 6.75171 17.831 6.70221 18.0069 7.01018ZM19.0102 42.2338V42.6187L16.7129 42.6737C14.2485 42.7287 14.1254 42.6737 14.2572 42.0539C14.31 41.7955 14.3541 41.7955 16.6596 41.823L19.0097 41.8779V42.2629L19.0102 42.2338ZM29.3515 0.956359C29.2459 1.51126 29.1141 2.02766 29.0521 2.1052C28.9993 2.18219 28.6999 2.35267 28.383 2.47916C27.5028 2.82563 27.4941 2.86413 28.3302 3.20179L29.0957 3.50976L29.3336 4.67125L29.5806 5.82009L29.7831 4.80049C29.8975 4.23295 30.0205 3.7039 30.0646 3.639C30.1087 3.56201 30.4783 3.35303 30.8741 3.17705L31.596 2.84158L30.9357 2.55561C30.5748 2.40162 30.2226 2.23114 30.1523 2.18164C30.0821 2.12665 29.9324 1.62675 29.8267 1.05865C29.7124 0.503752 29.6068 0.0258475 29.5889 0C29.572 0 29.4663 0.413561 29.3515 0.956359Z" stroke="white" stroke-width="6" mask="url(#path-1-inside-1_376_56465)"/>
</svg>
