<svg width="45" height="45" viewBox="0 0 45 45" fill="none" xmlns="http://www.w3.org/2000/svg">
<path d="M6.44943 40.9075C5.1742 40.9088 3.92726 40.5315 2.86653 39.8234C1.8058 39.1152 0.97899 38.108 0.490803 36.9294C0.00261717 35.7508 -0.124983 34.4538 0.124162 33.2026C0.373307 31.9514 0.98799 30.8023 1.89037 29.9009L9.67289 22.1252L11.1046 20.4391L9.67289 21.9042C9.2772 21.521 8.96249 21.0622 8.74747 20.5549C8.53244 20.0477 8.42147 19.5024 8.42114 18.9515C8.41814 18.3853 8.527 17.8242 8.74146 17.3002C8.95593 16.7763 9.27177 16.2999 9.67084 15.8985L23.6794 1.88593C24.8892 0.678247 26.5284 0 28.2374 0C29.9464 0 31.5857 0.678247 32.7955 1.88593L39.0215 8.11465C40.2278 9.32583 40.9051 10.9659 40.9051 12.6757C40.9051 14.3855 40.2278 16.0256 39.0215 17.2367C38.638 17.6207 38.1177 17.8365 37.5751 17.8367C37.0326 17.8369 36.5121 17.6215 36.1283 17.2378C35.7445 16.8541 35.5288 16.3336 35.5286 15.7908C35.5284 15.248 35.7438 14.7273 36.1273 14.3434C36.5682 13.9004 36.8158 13.3008 36.8158 12.6757C36.8158 12.0506 36.5682 11.451 36.1273 11.008L29.9033 4.76497C29.461 4.32401 28.8619 4.07641 28.2374 4.07641C27.6129 4.07641 27.0139 4.32401 26.5715 4.76497L12.565 18.7796C13.3319 19.6726 13.7707 20.8011 13.8086 21.9779C13.8136 22.5403 13.706 23.098 13.4921 23.6182C13.2781 24.1383 12.9622 24.6103 12.563 25.0063L4.79066 32.782C4.36798 33.2282 4.13608 33.8218 4.14434 34.4365C4.15259 35.0512 4.40034 35.6384 4.83485 36.0731C5.26935 36.5078 5.8563 36.7557 6.47073 36.7639C7.08516 36.7722 7.67854 36.5402 8.12457 36.1173L15.0153 29.2215C15.4021 28.8497 15.9194 28.6448 16.4557 28.6509C16.9921 28.657 17.5046 28.8737 17.8828 29.2542C18.261 29.6347 18.4746 30.1487 18.4777 30.6853C18.4808 31.2219 18.2731 31.7382 17.8992 32.1231L11.0085 39.0189C10.4104 39.6186 9.6997 40.0941 8.91731 40.4183C8.13493 40.7424 7.29624 40.9086 6.44943 40.9075ZM45 32.7226C45 35.1508 44.2803 37.5246 42.9318 39.5436C41.5833 41.5626 39.6667 43.1362 37.4243 44.0654C35.1818 44.9947 32.7143 45.2378 30.3338 44.7641C27.9533 44.2904 25.7666 43.1211 24.0503 41.404C22.334 39.687 21.1652 37.4994 20.6917 35.1178C20.2182 32.7362 20.4612 30.2677 21.3901 28.0243C22.3189 25.7809 23.8919 23.8634 25.91 22.5143C27.9281 21.1653 30.3008 20.4452 32.728 20.4452C35.9817 20.4485 39.1013 21.743 41.402 24.0448C43.7028 26.3465 44.9968 29.4674 45 32.7226ZM40.9093 32.7226C40.9093 31.1038 40.4295 29.5213 39.5305 28.1753C38.6315 26.8293 37.3538 25.7802 35.8588 25.1607C34.3639 24.5412 32.7189 24.3791 31.1319 24.695C29.5448 25.0108 28.087 25.7903 26.9429 26.935C25.7987 28.0797 25.0195 29.5381 24.7038 31.1258C24.3881 32.7135 24.5501 34.3592 25.1694 35.8548C25.7886 37.3504 26.8372 38.6288 28.1826 39.5281C29.5281 40.4275 31.1098 40.9075 32.728 40.9075C34.8978 40.9075 36.9788 40.0452 38.5131 38.5102C40.0474 36.9753 40.9093 34.8934 40.9093 32.7226Z" fill="white"/>
</svg>
