<svg width="41" height="41" viewBox="0 0 41 41" fill="none" xmlns="http://www.w3.org/2000/svg">
<path d="M7.89027 35.5C6.85114 35.501 5.83506 35.1937 4.97071 34.6169C4.10636 34.0401 3.43263 33.2198 3.03482 32.2598C2.63702 31.2998 2.53304 30.2434 2.73606 29.2243C2.93908 28.2052 3.43996 27.2692 4.17527 26.535L10.5169 20.2016L11.6836 18.8283L10.5169 20.0216C10.1945 19.7095 9.93807 19.3358 9.76285 18.9227C9.58763 18.5095 9.49721 18.0654 9.49694 17.6166C9.4945 17.1555 9.5832 16.6984 9.75796 16.2717C9.93272 15.8449 10.1901 15.4569 10.5153 15.13L21.9303 3.71664C22.9161 2.73298 24.2518 2.18054 25.6444 2.18054C27.0371 2.18054 28.3728 2.73298 29.3586 3.71664L34.4319 8.78997C35.4149 9.77649 35.9668 11.1123 35.9668 12.505C35.9668 13.8976 35.4149 15.2335 34.4319 16.22C34.1194 16.5327 33.6955 16.7085 33.2534 16.7086C32.8112 16.7088 32.3872 16.5333 32.0744 16.2208C31.7617 15.9083 31.5859 15.4843 31.5858 15.0422C31.5856 14.6001 31.7611 14.176 32.0736 13.8633C32.4329 13.5025 32.6346 13.0141 32.6346 12.505C32.6346 11.9958 32.4329 11.5074 32.0736 11.1466L27.0019 6.06164C26.6415 5.70247 26.1533 5.50081 25.6444 5.50081C25.1356 5.50081 24.6474 5.70247 24.2869 6.06164L12.8736 17.4766C13.4985 18.204 13.8561 19.1232 13.8869 20.0816C13.8911 20.5397 13.8034 20.994 13.629 21.4177C13.4547 21.8413 13.1973 22.2258 12.8719 22.5483L6.53861 28.8816C6.19418 29.2451 6.00522 29.7286 6.01194 30.2293C6.01867 30.73 6.22055 31.2082 6.57461 31.5623C6.92868 31.9164 7.40695 32.1182 7.90763 32.125C8.4083 32.1317 8.89183 31.9427 9.25527 31.5983L14.8703 25.9816C15.1854 25.6788 15.607 25.5119 16.044 25.5169C16.4811 25.5219 16.8987 25.6983 17.2068 26.0083C17.515 26.3182 17.6891 26.7368 17.6916 27.1739C17.6942 27.611 17.5249 28.0315 17.2203 28.345L11.6053 33.9616C11.1179 34.4501 10.5388 34.8375 9.90125 35.1014C9.26372 35.3654 8.58031 35.5009 7.89027 35.5ZM39.3036 28.8333C39.3036 30.8111 38.7171 32.7445 37.6183 34.389C36.5195 36.0335 34.9577 37.3152 33.1304 38.0721C31.3032 38.829 29.2925 39.027 27.3527 38.6412C25.4129 38.2553 23.6311 37.3029 22.2325 35.9044C20.834 34.5059 19.8816 32.724 19.4958 30.7842C19.1099 28.8444 19.3079 26.8337 20.0648 25.0065C20.8217 23.1792 22.1034 21.6174 23.7479 20.5186C25.3924 19.4198 27.3258 18.8333 29.3036 18.8333C31.955 18.836 34.497 19.8904 36.3717 21.7652C38.2465 23.64 39.301 26.182 39.3036 28.8333ZM35.9703 28.8333C35.9703 27.5148 35.5793 26.2258 34.8467 25.1295C34.1142 24.0332 33.073 23.1787 31.8548 22.6741C30.6367 22.1695 29.2962 22.0375 28.003 22.2947C26.7098 22.552 25.5219 23.1869 24.5896 24.1193C23.6572 25.0516 23.0223 26.2395 22.765 27.5327C22.5078 28.8259 22.6398 30.1664 23.1444 31.3845C23.649 32.6027 24.5035 33.6439 25.5998 34.3764C26.6961 35.109 27.9851 35.5 29.3036 35.5C31.0717 35.5 32.7674 34.7976 34.0177 33.5473C35.2679 32.2971 35.9703 30.6014 35.9703 28.8333Z" fill="white"/>
</svg>
