<svg width="41" height="41" viewBox="0 0 41 41" fill="none" xmlns="http://www.w3.org/2000/svg">
<path d="M40.8808 11.7956L37.8753 6.3856C38.3155 5.57254 38.2078 4.58652 37.5457 3.92445C36.9056 3.28435 35.9238 3.1596 35.093 3.5998L29.6745 0.589286C29.3974 0.434756 29.0529 0.483667 28.8296 0.707665L23.6847 5.85183C23.5047 6.03188 23.4345 6.29415 23.5018 6.53942L25.3229 13.2154L21.1832 17.3544C20.4708 17.297 19.735 17.5168 19.2168 18.0356L17.4326 19.8198L21.6503 24.0375L23.4345 22.2533C23.9016 21.7862 24.1589 21.1631 24.1589 20.4989C24.1589 20.4195 24.1434 20.343 24.1363 20.265L28.254 16.1465L34.9314 17.9676C34.9931 17.9839 35.0555 17.9924 35.1178 17.9924C35.3036 17.9924 35.4843 17.9194 35.619 17.7847L40.7632 12.6405C40.9858 12.418 41.0347 12.0727 40.8808 11.7956ZM23.4345 18.7452L22.7256 18.0363C22.6888 17.9995 22.6441 17.9733 22.6051 17.9392L26.6137 13.9299C26.6144 13.9292 26.6158 13.9285 26.6165 13.9278L35.5928 4.95087C35.8912 4.68931 36.2839 4.66875 36.5434 4.92748C36.8446 5.22804 36.7468 5.62358 36.5455 5.85183L27.543 14.8543L23.533 18.865C23.4983 18.8253 23.4714 18.7821 23.4345 18.7452Z" fill="white"/>
<path d="M16.5061 29.1824L12.2885 24.9647L13.8586 23.3946L18.0763 27.6123L16.5061 29.1824Z" fill="white"/>
<path d="M7.57741 29.6757C7.11028 30.1429 6.85296 30.766 6.85296 31.4309C6.85296 32.0242 7.06845 32.5785 7.44557 33.0237L1.17857 39.29C0.901413 39.5671 0.901413 40.0151 1.17857 40.2923C1.3168 40.4305 1.49756 40.5 1.67903 40.5C1.86049 40.5 2.04196 40.4305 2.18019 40.2923L8.44718 34.026C8.89234 34.4031 9.44666 34.6179 10.04 34.6179C10.7042 34.6179 11.3265 34.3606 11.7944 33.8934L13.0732 32.6147L8.85548 28.397L7.57741 29.6757Z" fill="white"/>
<path d="M19.0786 26.6106L14.8609 22.393L16.4303 20.8235L20.648 25.0412L19.0786 26.6106Z" fill="white"/>
<path d="M14.0755 31.6131L9.85779 27.3954L11.2861 25.967L15.5038 30.1847L14.0755 31.6131Z" fill="white"/>
</svg>
