<svg width="60" height="60" viewBox="0 0 60 60" fill="none" xmlns="http://www.w3.org/2000/svg">
<path d="M59.6488 17.0839L55.1888 9.05601C55.842 7.84951 55.6821 6.38635 54.6997 5.40389C53.7498 4.45405 52.293 4.26892 51.0602 4.92214L43.0196 0.454813C42.6084 0.225504 42.0971 0.298084 41.7658 0.630477L34.1313 8.26395C33.8641 8.53113 33.76 8.92032 33.8599 9.28427L36.5622 19.1908L30.4192 25.3328C29.3621 25.2476 28.2702 25.5736 27.5013 26.3436L24.8537 28.9912L31.1124 35.2499L33.76 32.6023C34.4531 31.9091 34.835 30.9845 34.835 29.9989C34.835 29.8811 34.8118 29.7675 34.8013 29.6518L40.9117 23.5404L50.8204 26.2426C50.9119 26.2668 51.0044 26.2794 51.097 26.2794C51.3726 26.2794 51.6408 26.1711 51.8407 25.9712L59.4742 18.3378C59.8045 18.0075 59.877 17.4952 59.6488 17.0839ZM33.76 27.3965L32.7081 26.3447C32.6534 26.29 32.5871 26.251 32.5293 26.2006L38.4776 20.2511L38.4818 20.248L51.8018 6.92701C52.2446 6.53887 52.8273 6.50837 53.2123 6.8923C53.6594 7.3383 53.5142 7.92524 53.2155 8.26395L33.9062 27.5743C33.8546 27.5154 33.8147 27.4512 33.76 27.3965Z" fill="white"/>
<path d="M23.4791 42.8845L17.2205 36.6258L19.5504 34.2959L25.809 40.5546L23.4791 42.8845Z" fill="white"/>
<path d="M10.23 43.6165C9.53685 44.3097 9.15501 45.2343 9.15501 46.2209C9.15501 47.1013 9.47478 47.9239 10.0344 48.5845L0.734733 57.8831C0.323448 58.2944 0.323448 58.9592 0.734733 59.3704C0.939849 59.5756 1.20808 59.6786 1.47736 59.6786C1.74664 59.6786 2.01592 59.5756 2.22104 59.3704L11.5207 50.0719C12.1813 50.6315 13.0038 50.9502 13.8843 50.9502C14.8699 50.9502 15.7934 50.5683 16.4877 49.8752L18.3852 47.9776L12.1266 41.7189L10.23 43.6165Z" fill="white"/>
<path d="M27.2968 39.0681L21.0381 32.8095L23.3669 30.4806L29.6256 36.7393L27.2968 39.0681Z" fill="white"/>
<path d="M19.8726 46.4913L13.6139 40.2326L15.7334 38.1131L21.9921 44.3718L19.8726 46.4913Z" fill="white"/>
</svg>
