<svg width="14" height="59" viewBox="0 0 14 59" fill="none" xmlns="http://www.w3.org/2000/svg">
<g clip-path="url(#clip0_268_972)">
<rect x="0.388184" y="0.5" width="55.403" height="58" rx="4" fill="white" fill-opacity="0.2"/>
<path d="M10.6798 50.8719V51.801H6.01672V50.8719H10.6798ZM6.19425 47.1674V55.7836H5.05214V47.1674H6.19425ZM11.674 47.1674V55.7836H10.5378V47.1674H11.674ZM17.3136 54.6888V51.3927C17.3136 51.1402 17.2623 50.9212 17.1597 50.7358C17.0611 50.5464 16.9112 50.4005 16.71 50.2979C16.5088 50.1953 16.2602 50.144 15.9643 50.144C15.6882 50.144 15.4456 50.1914 15.2365 50.2861C15.0313 50.3807 14.8696 50.505 14.7512 50.6589C14.6368 50.8127 14.5796 50.9784 14.5796 51.156H13.4848C13.4848 50.9271 13.544 50.7003 13.6624 50.4754C13.7807 50.2506 13.9504 50.0474 14.1713 49.8659C14.3961 49.6805 14.6644 49.5345 14.9761 49.428C15.2917 49.3175 15.6428 49.2623 16.0294 49.2623C16.495 49.2623 16.9052 49.3412 17.2603 49.499C17.6193 49.6568 17.8994 49.8955 18.1006 50.215C18.3058 50.5307 18.4083 50.9271 18.4083 51.4045V54.387C18.4083 54.6 18.4261 54.8269 18.4616 55.0675C18.501 55.3082 18.5582 55.5153 18.6332 55.6889V55.7836H17.4911C17.4359 55.6573 17.3925 55.4897 17.3609 55.2806C17.3293 55.0675 17.3136 54.8703 17.3136 54.6888ZM17.5029 51.9016L17.5148 52.6709H16.4082C16.0965 52.6709 15.8184 52.6965 15.5738 52.7478C15.3292 52.7952 15.124 52.8681 14.9583 52.9668C14.7926 53.0654 14.6664 53.1897 14.5796 53.3396C14.4928 53.4855 14.4494 53.6572 14.4494 53.8544C14.4494 54.0556 14.4948 54.2391 14.5855 54.4048C14.6763 54.5705 14.8124 54.7026 14.9938 54.8012C15.1793 54.8959 15.4061 54.9433 15.6744 54.9433C16.0097 54.9433 16.3056 54.8723 16.562 54.7302C16.8185 54.5882 17.0216 54.4146 17.1715 54.2095C17.3254 54.0043 17.4082 53.8051 17.4201 53.6118L17.8876 54.1385C17.86 54.3042 17.785 54.4876 17.6627 54.6888C17.5404 54.89 17.3767 55.0833 17.1715 55.2687C16.9703 55.4502 16.7297 55.6021 16.4496 55.7244C16.1734 55.8428 15.8618 55.9019 15.5146 55.9019C15.0806 55.9019 14.6999 55.8171 14.3725 55.6475C14.049 55.4778 13.7965 55.251 13.615 54.9669C13.4375 54.6789 13.3487 54.3574 13.3487 54.0024C13.3487 53.6591 13.4158 53.3573 13.5499 53.097C13.6841 52.8326 13.8774 52.6137 14.1299 52.4401C14.3823 52.2626 14.6861 52.1284 15.0412 52.0377C15.3962 51.947 15.7927 51.9016 16.2306 51.9016H17.5029ZM21.2251 50.7476V55.7836H20.1304V49.3807H21.166L21.2251 50.7476ZM20.9648 52.3395L20.5091 52.3217C20.5131 51.8838 20.5781 51.4795 20.7044 51.1086C20.8306 50.7338 21.0082 50.4084 21.237 50.1322C21.4658 49.856 21.738 49.643 22.0536 49.4931C22.3732 49.3392 22.7263 49.2623 23.1129 49.2623C23.4285 49.2623 23.7125 49.3057 23.965 49.3925C24.2175 49.4753 24.4325 49.6095 24.6101 49.7949C24.7915 49.9803 24.9296 50.221 25.0243 50.5168C25.119 50.8088 25.1663 51.1658 25.1663 51.5879V55.7836H24.0656V51.5761C24.0656 51.2408 24.0163 50.9725 23.9177 50.7713C23.8191 50.5662 23.6751 50.4182 23.4857 50.3275C23.2963 50.2328 23.0636 50.1855 22.7874 50.1855C22.5152 50.1855 22.2667 50.2427 22.0418 50.3571C21.8209 50.4715 21.6295 50.6293 21.4678 50.8305C21.31 51.0317 21.1857 51.2625 21.095 51.5229C21.0082 51.7793 20.9648 52.0515 20.9648 52.3395ZM30.865 54.5409V46.694H31.9657V55.7836H30.9597L30.865 54.5409ZM26.557 52.6531V52.5289C26.557 52.0397 26.6162 51.5958 26.7345 51.1974C26.8568 50.795 27.0284 50.4498 27.2493 50.1618C27.4742 49.8738 27.7405 49.6529 28.0482 49.499C28.3599 49.3412 28.7071 49.2623 29.0897 49.2623C29.4921 49.2623 29.8433 49.3333 30.1431 49.4753C30.4469 49.6134 30.7033 49.8166 30.9124 50.0849C31.1254 50.3492 31.2931 50.6687 31.4154 51.0435C31.5377 51.4183 31.6225 51.8424 31.6698 52.3158V52.8602C31.6265 53.3297 31.5416 53.7518 31.4154 54.1266C31.2931 54.5014 31.1254 54.821 30.9124 55.0853C30.7033 55.3496 30.4469 55.5528 30.1431 55.6948C29.8393 55.8329 29.4843 55.9019 29.0779 55.9019C28.7031 55.9019 28.3599 55.8211 28.0482 55.6593C27.7405 55.4976 27.4742 55.2707 27.2493 54.9788C27.0284 54.6868 26.8568 54.3436 26.7345 53.9491C26.6162 53.5506 26.557 53.1187 26.557 52.6531ZM27.6577 52.5289V52.6531C27.6577 52.9727 27.6892 53.2725 27.7523 53.5526C27.8194 53.8327 27.922 54.0793 28.0601 54.2923C28.1981 54.5054 28.3737 54.673 28.5867 54.7953C28.7998 54.9137 29.0542 54.9729 29.3501 54.9729C29.7131 54.9729 30.0109 54.8959 30.2437 54.7421C30.4804 54.5882 30.6698 54.385 30.8118 54.1325C30.9538 53.8801 31.0643 53.6059 31.1432 53.31V51.8838C31.0958 51.6669 31.0268 51.4578 30.9361 51.2566C30.8493 51.0514 30.7349 50.8699 30.5928 50.7121C30.4548 50.5504 30.2831 50.4222 30.078 50.3275C29.8768 50.2328 29.6381 50.1855 29.362 50.1855C29.0621 50.1855 28.8037 50.2486 28.5867 50.3748C28.3737 50.4971 28.1981 50.6668 28.0601 50.8837C27.922 51.0968 27.8194 51.3453 27.7523 51.6294C27.6892 51.9095 27.6577 52.2093 27.6577 52.5289ZM33.6641 46.694H34.7648V54.5409L34.6701 55.7836H33.6641V46.694ZM39.0906 52.5289V52.6531C39.0906 53.1187 39.0354 53.5506 38.9249 53.9491C38.8145 54.3436 38.6527 54.6868 38.4397 54.9788C38.2266 55.2707 37.9663 55.4976 37.6585 55.6593C37.3508 55.8211 36.9977 55.9019 36.5993 55.9019C36.1929 55.9019 35.8359 55.8329 35.5282 55.6948C35.2244 55.5528 34.968 55.3496 34.7589 55.0853C34.5498 54.821 34.3821 54.5014 34.2559 54.1266C34.1336 53.7518 34.0488 53.3297 34.0014 52.8602V52.3158C34.0488 51.8424 34.1336 51.4183 34.2559 51.0435C34.3821 50.6687 34.5498 50.3492 34.7589 50.0849C34.968 49.8166 35.2244 49.6134 35.5282 49.4753C35.8319 49.3333 36.185 49.2623 36.5874 49.2623C36.9898 49.2623 37.3469 49.3412 37.6585 49.499C37.9702 49.6529 38.2306 49.8738 38.4397 50.1618C38.6527 50.4498 38.8145 50.795 38.9249 51.1974C39.0354 51.5958 39.0906 52.0397 39.0906 52.5289ZM37.9899 52.6531V52.5289C37.9899 52.2093 37.9603 51.9095 37.9012 51.6294C37.842 51.3453 37.7473 51.0968 37.6171 50.8837C37.4869 50.6668 37.3153 50.4971 37.1023 50.3748C36.8892 50.2486 36.6269 50.1855 36.3152 50.1855C36.0391 50.1855 35.7984 50.2328 35.5933 50.3275C35.3921 50.4222 35.2205 50.5504 35.0784 50.7121C34.9364 50.8699 34.82 51.0514 34.7293 51.2566C34.6425 51.4578 34.5774 51.6669 34.534 51.8838V53.31C34.5971 53.5861 34.6997 53.8524 34.8417 54.1089C34.9877 54.3614 35.181 54.5685 35.4217 54.7302C35.6663 54.892 35.9681 54.9729 36.3271 54.9729C36.6229 54.9729 36.8754 54.9137 37.0845 54.7953C37.2976 54.673 37.4692 54.5054 37.5994 54.2923C37.7335 54.0793 37.8321 53.8327 37.8952 53.5526C37.9584 53.2725 37.9899 52.9727 37.9899 52.6531ZM44.2508 54.6888V51.3927C44.2508 51.1402 44.1995 50.9212 44.097 50.7358C43.9983 50.5464 43.8484 50.4005 43.6472 50.2979C43.446 50.1953 43.1975 50.144 42.9016 50.144C42.6254 50.144 42.3828 50.1914 42.1737 50.2861C41.9686 50.3807 41.8068 50.505 41.6885 50.6589C41.5741 50.8127 41.5169 50.9784 41.5169 51.156H40.4221C40.4221 50.9271 40.4813 50.7003 40.5996 50.4754C40.718 50.2506 40.8876 50.0474 41.1085 49.8659C41.3334 49.6805 41.6017 49.5345 41.9133 49.428C42.229 49.3175 42.5801 49.2623 42.9667 49.2623C43.4322 49.2623 43.8425 49.3412 44.1976 49.499C44.5566 49.6568 44.8367 49.8955 45.0379 50.215C45.243 50.5307 45.3456 50.9271 45.3456 51.4045V54.387C45.3456 54.6 45.3634 54.8269 45.3989 55.0675C45.4383 55.3082 45.4955 55.5153 45.5705 55.6889V55.7836H44.4284C44.3731 55.6573 44.3297 55.4897 44.2982 55.2806C44.2666 55.0675 44.2508 54.8703 44.2508 54.6888ZM44.4402 51.9016L44.452 52.6709H43.3454C43.0338 52.6709 42.7556 52.6965 42.511 52.7478C42.2664 52.7952 42.0613 52.8681 41.8956 52.9668C41.7299 53.0654 41.6037 53.1897 41.5169 53.3396C41.4301 53.4855 41.3867 53.6572 41.3867 53.8544C41.3867 54.0556 41.432 54.2391 41.5228 54.4048C41.6135 54.5705 41.7496 54.7026 41.9311 54.8012C42.1165 54.8959 42.3434 54.9433 42.6116 54.9433C42.947 54.9433 43.2429 54.8723 43.4993 54.7302C43.7557 54.5882 43.9589 54.4146 44.1088 54.2095C44.2627 54.0043 44.3455 53.8051 44.3573 53.6118L44.8248 54.1385C44.7972 54.3042 44.7223 54.4876 44.6 54.6888C44.4777 54.89 44.314 55.0833 44.1088 55.2687C43.9076 55.4502 43.667 55.6021 43.3869 55.7244C43.1107 55.8428 42.799 55.9019 42.4519 55.9019C42.0179 55.9019 41.6372 55.8171 41.3097 55.6475C40.9862 55.4778 40.7338 55.251 40.5523 54.9669C40.3748 54.6789 40.286 54.3574 40.286 54.0024C40.286 53.6591 40.3531 53.3573 40.4872 53.097C40.6213 52.8326 40.8146 52.6137 41.0671 52.4401C41.3196 52.2626 41.6234 52.1284 41.9784 52.0377C42.3335 51.947 42.73 51.9016 43.1679 51.9016H44.4402ZM48.2571 46.694V55.7836H47.1564V46.694H48.2571ZM51.2041 46.694V55.7836H50.1034V46.694H51.2041Z" fill="white"/>
<g clip-path="url(#clip1_268_972)">
<path d="M47.6779 6.89792C47.451 5.80199 46.8113 4.70347 45.7141 3.60745C44.7374 2.63074 43.7658 2.018 42.7878 1.73409C42.0572 1.52003 41.3329 1.50144 40.6727 1.62761C39.6767 1.81667 38.8346 2.30191 38.1104 2.84792C37.3874 3.39597 36.7696 4.01761 36.2402 4.54636C34.3611 6.4262 31.9166 8.86933 29.0979 11.6887C28.316 12.4732 27.5418 13.5057 26.7469 14.6728C25.5561 16.4218 24.3294 18.4728 23.1233 20.357C21.9222 22.2393 20.7262 23.9589 19.7008 24.9799L12.8776 31.8032C11.6804 31.2583 10.2216 31.4672 9.23724 32.4505C7.97209 33.7163 7.97209 35.7742 9.23724 37.0401L12.2815 40.0837C13.5467 41.3489 15.6053 41.3489 16.8704 40.0831C17.8536 39.0999 18.0626 37.6406 17.5178 36.4439L24.3409 29.6208C25.0215 28.9389 26.0137 28.1749 27.1558 27.3903C28.8696 26.2124 30.9179 24.9811 32.8151 23.7737C34.716 22.5617 36.4568 21.3921 37.6322 20.223C40.451 17.4036 42.8941 14.9598 44.7746 13.0807C45.2437 12.6096 45.7872 12.0693 46.2872 11.447C46.6628 10.9803 47.014 10.4657 47.2858 9.88831C47.6933 9.02769 47.9073 7.99261 47.6779 6.89792ZM15.4784 38.6911C14.9798 39.1891 14.1709 39.1891 13.6736 38.6917L10.6293 35.6474C10.1319 35.1494 10.1319 34.3411 10.6293 33.8432C11.1279 33.3446 11.9367 33.3446 12.4354 33.8426L15.4784 36.8863C15.977 37.3842 15.977 38.1924 15.4784 38.6911ZM16.2769 34.9L14.4208 33.0439L15.2246 32.2403L17.8767 33.3003L16.2769 34.9ZM18.8868 32.2909L16.2347 31.2302L17.7767 29.6875L20.4288 30.7482L18.8868 32.2909ZM21.4389 29.7382L18.7867 28.678L21.0004 26.4643L22.8565 28.321L21.4389 29.7382ZM45.7576 8.28355C45.6526 8.85402 45.3423 9.44238 44.9027 10.0224C44.4643 10.6018 43.9106 11.1613 43.3812 11.6887C41.5021 13.5678 39.0589 16.0117 36.2388 18.831C35.6133 19.4579 34.6571 20.1867 33.5406 20.9468C31.8614 22.0895 29.8195 23.3129 27.9018 24.5397C26.3944 25.5062 24.9703 26.4669 23.8257 27.4335L21.8863 25.4941C22.4426 24.8346 22.9951 24.0898 23.5527 23.281C24.7807 21.4935 26.019 19.4303 27.2072 17.5627C28.3915 15.6976 29.544 14.021 30.49 13.0814C33.3087 10.2621 35.7531 7.81831 37.6323 5.93909C38.1015 5.46863 38.5936 4.97831 39.1064 4.56816C39.4897 4.25988 39.8806 3.99902 40.2677 3.81769C40.8547 3.54714 41.3996 3.44534 42.0238 3.57097C42.648 3.6998 43.4094 4.08878 44.3221 4.99956C45.131 5.80847 45.5283 6.50378 45.6962 7.08253C45.8218 7.51894 45.8283 7.90034 45.7576 8.28355Z" fill="white"/>
</g>
</g>
<defs>
<clipPath id="clip0_268_972">
<rect x="0.388184" y="0.5" width="55.403" height="58" rx="4" fill="white"/>
</clipPath>
<clipPath id="clip1_268_972">
<rect width="40" height="40" fill="white" transform="translate(8.03003 1.54895)"/>
</clipPath>
</defs>
</svg>
