<svg width="65" height="60" viewBox="0 0 65 60" fill="none" xmlns="http://www.w3.org/2000/svg">
<path d="M54.5492 59.5C50.4924 59.5 47.1747 56.1822 47.1747 52.1255C47.1747 48.0688 50.4925 44.751 54.5492 44.751C58.606 44.751 61.9237 48.0688 61.9237 52.1255C61.9237 56.1823 58.6059 59.5 54.5492 59.5ZM54.5492 49.6688C53.1961 49.6688 52.0902 50.7748 52.0902 52.1279C52.0902 53.481 53.1961 54.5869 54.5492 54.5869C55.9023 54.5869 57.0082 53.481 57.0082 52.1279C57.0082 50.7748 55.9023 49.6688 54.5492 49.6688Z" fill="white"/>
<path d="M19.9635 54.6097C13.5975 54.6097 6.86209 53.7484 2.09382 51.9784C1.13519 51.6339 0.496094 50.7002 0.496094 49.6667V39.8355C0.496094 39.0242 0.890535 38.2628 1.57705 37.7959C2.24113 37.3291 3.09988 37.2317 3.86379 37.5263C11.4108 40.4521 27.2654 40.5994 33.3119 37.8708L40.3419 28.5068C41.1782 27.326 43.0455 27.2037 44.0541 28.2372L46.5131 30.6963C47.2995 31.4827 47.4468 32.6884 46.9076 33.6471L37.0764 50.8527C36.8542 51.2471 36.5347 51.5667 36.1428 51.7864C32.85 53.6537 26.6062 54.5874 20.0185 54.5874L19.9635 54.6097ZM5.38642 47.8992C14.1113 50.4556 28.0243 50.111 33.1121 47.8243L36.7745 41.4334C30.5808 45.6374 15.4397 45.4652 5.38419 43.2034V47.9216L5.38642 47.8992Z" fill="white"/>
<path d="M59.8566 1.6399C60.5931 0.484043 62.1185 0.164498 63.2493 0.878491C64.3802 1.59248 64.7247 3.11531 64.0107 4.27117L46.8051 31.3105C46.0687 32.4664 44.5433 32.7859 43.4124 32.0719C42.2816 31.3579 41.937 29.8351 42.651 28.6792L59.8566 1.6399Z" fill="white"/>
<path d="M12.7606 52.1282C11.4075 52.1282 10.3016 51.0223 10.3016 49.6692V42.2947C10.3016 40.9416 11.4075 39.8357 12.7606 39.8357C14.1137 39.8357 15.2196 40.9416 15.2196 42.2947V49.6692C15.2196 51.0223 14.1137 52.1282 12.7606 52.1282Z" fill="white"/>
<path d="M25.0513 52.1281C23.6982 52.1281 22.5922 51.0221 22.5922 49.669V42.2946C22.5922 40.9415 23.6982 39.8355 25.0513 39.8355C26.4044 39.8355 27.5103 40.9415 27.5103 42.2946V49.669C27.5103 51.0221 26.4044 52.1281 25.0513 52.1281Z" fill="white"/>
</svg>
