<svg width="41" height="41" viewBox="0 0 41 41" fill="none" xmlns="http://www.w3.org/2000/svg">
<g clip-path="url(#clip0_269_1065)">
<path d="M20.8191 8.55457C23.0432 8.55457 24.8462 6.75159 24.8462 4.5275C24.8462 2.30341 23.0432 0.500427 20.8191 0.500427C18.595 0.500427 16.7921 2.30341 16.7921 4.5275C16.7921 6.75159 18.595 8.55457 20.8191 8.55457Z" fill="white"/>
<path d="M34.5439 18.4963C36.5685 18.4963 38.2098 16.855 38.2098 14.8304C38.2098 12.8058 36.5685 11.1646 34.5439 11.1646C32.5193 11.1646 30.8781 12.8058 30.8781 14.8304C30.8781 16.855 32.5193 18.4963 34.5439 18.4963Z" fill="white"/>
<path d="M29.6173 18.2801L22.9449 15.4014L16.9409 10.3622L20.459 12.1862C20.416 11.3523 19.9914 10.5489 19.2411 10.0535L15.1925 7.3807C13.9387 6.55295 12.2512 6.89838 11.4234 8.15221L4.32533 18.9038C3.92582 19.5775 3.46927 20.585 3.91232 21.4518L7.66867 28.4624L5.44105 37.8853C5.17102 39.0275 5.87809 40.1724 7.02029 40.4425C8.16249 40.7125 9.30747 40.0052 9.57749 38.8631L11.9902 28.657C12.1095 28.1523 12.0402 27.6215 11.7953 27.1644L10.1023 24.0048L14.9702 28.2565L18.8533 39.0912C19.2495 40.1966 20.4667 40.7707 21.5709 40.3748C22.6759 39.9788 23.2506 38.7621 22.8545 37.6571L18.7923 26.3224C18.6747 25.9941 18.478 25.6999 18.2198 25.4655L14.5339 22.1211L17.7375 17.2685L14.595 13.1572L20.8037 18.3681C20.9395 18.4821 21.0911 18.5756 21.2538 18.6459L28.1716 21.6305C29.0968 22.0297 30.1704 21.6032 30.5697 20.678C30.969 19.7529 30.5424 18.6793 29.6173 18.2801Z" fill="white"/>
</g>
<defs>
<clipPath id="clip0_269_1065">
<rect width="40" height="40" fill="white" transform="translate(0.970154 0.5)"/>
</clipPath>
</defs>
</svg>
