<svg width="38" height="38" viewBox="0 0 38 38" fill="none" xmlns="http://www.w3.org/2000/svg">
<path d="M1.9552 19.062C1.9552 15.1 1.9552 13.119 2.85411 11.4767C3.75303 9.8345 5.39529 8.81526 8.67979 6.77681L12.1425 4.62776C15.6144 2.47297 17.3505 1.39557 19.2686 1.39557C21.1868 1.39557 22.9228 2.47297 26.3948 4.62776L29.8575 6.77679C33.1421 8.81526 34.7842 9.8345 35.6831 11.4767C36.5821 13.119 36.5821 15.1 36.5821 19.062V21.6956C36.5821 28.4492 36.5821 31.8262 34.5536 33.9242C32.5254 36.0224 29.2606 36.0224 22.7313 36.0224H15.8059C9.27663 36.0224 6.012 36.0224 3.98359 33.9242C1.9552 31.8262 1.9552 28.4492 1.9552 21.6956V19.062Z" stroke="white" stroke-width="2.59701"/>
</svg>
