<svg width="53" height="54" viewBox="0 0 53 54" fill="none" xmlns="http://www.w3.org/2000/svg">
<path d="M34.1509 41.8388H19.312M2 27.5042C2 21.8447 2 19.0149 3.28406 16.669C4.56811 14.3232 6.91401 12.8672 11.6058 9.9554L16.552 6.88559C21.5116 3.80757 23.9914 2.26855 26.7314 2.26855C29.4714 2.26855 31.9512 3.80757 36.9109 6.88559L41.8572 9.95537C46.549 12.8672 48.8947 14.3232 50.1788 16.669C51.4629 19.0149 51.4629 21.8447 51.4629 27.5042V31.2661C51.4629 40.9134 51.4629 45.7372 48.5653 48.7342C45.668 51.7314 41.0044 51.7314 31.6777 51.7314H21.7851C12.4583 51.7314 7.79494 51.7314 4.89746 48.7342C2 45.7372 2 40.9134 2 31.2661V27.5042Z" stroke="white" stroke-width="3" stroke-linecap="round"/>
</svg>
