<svg width="45" height="45" viewBox="0 0 45 45" fill="none" xmlns="http://www.w3.org/2000/svg">
<path d="M3.75 22.8823C3.75 18.5915 3.75 16.4461 4.7235 14.6676C5.697 12.8891 7.47553 11.7853 11.0326 9.57774L14.7826 7.25038C18.5426 4.91679 20.4227 3.75 22.5 3.75C24.5773 3.75 26.4574 4.91679 30.2175 7.25038L33.9675 9.57772C37.5246 11.7853 39.303 12.8891 40.2765 14.6676C41.25 16.4461 41.25 18.5915 41.25 22.8823V25.7344C41.25 33.0484 41.25 36.7056 39.0532 38.9777C36.8567 41.25 33.321 41.25 26.25 41.25H18.75C11.6789 41.25 8.14341 41.25 5.94669 38.9777C3.75 36.7056 3.75 33.0484 3.75 25.7344V22.8823Z" stroke="white" stroke-width="4"/>
<path d="M28.125 33.75H16.875" stroke="white" stroke-width="4" stroke-linecap="round"/>
</svg>
