<svg width="41" height="39" viewBox="0 0 41 39" fill="none" xmlns="http://www.w3.org/2000/svg">
<path d="M15.5845 13.0516V15.2294L18.2456 13.0516H15.5845Z" fill="white"/>
<path d="M40.0888 26.0655C39.3923 24.938 38.4149 24.3023 37.6276 23.9519C36.8376 23.601 36.2257 23.5243 36.1847 23.5188L36.1652 23.5162L27.7986 22.8072L26.7575 24.8899C26.6705 24.8537 26.5841 24.8176 26.5166 24.7851C26.3811 24.7204 26.286 24.6626 26.2266 24.6167C26.137 24.5437 26.122 24.5179 26.0922 24.4482C26.0647 24.3791 26.0387 24.2387 26.0393 24.0011C26.0393 23.528 26.0393 22.9654 26.0393 22.2644C26.4676 21.9718 26.8736 21.6488 27.2348 21.2882C31.0234 17.4996 30.7184 12.2622 30.7184 12.1153C30.7184 11.9673 30.7184 9.54929 30.7184 8.95905C30.7184 8.36882 30.3334 7.77913 29.7345 7.77913C29.5373 7.77913 28.6517 5.61483 28.6517 5.61483C28.6517 5.61483 28.7511 5.86062 28.5534 4.68069C28.358 3.49921 25.7017 1.38452 25.2584 1.1389C24.8162 0.892646 24.4225 1.08976 24.4225 1.28632C24.4225 1.48288 24.4225 2.07257 24.4225 2.07257H23.1438V1.62491C23.1438 1.19397 22.7945 0.843506 22.3624 0.843506H20.98H19.5967C19.1658 0.843506 18.8153 1.19397 18.8153 1.62491V2.07257H17.5372C17.5372 2.07257 17.5372 1.48288 17.5372 1.28632C17.5372 1.08976 17.143 0.892646 16.7007 1.1389C16.2584 1.38452 13.6016 3.49921 13.4051 4.68069C13.2085 5.86062 13.3068 5.61483 13.3068 5.61483C13.3068 5.61483 12.4212 7.77913 12.2246 7.77913C11.6263 7.77913 11.2407 8.36882 11.2407 8.95905C11.2407 9.54929 11.2407 11.9673 11.2407 12.1153C11.2407 12.2622 10.9351 17.4995 14.7242 21.2882C15.0801 21.6435 15.4797 21.961 15.9009 22.2505C15.9009 22.9584 15.9009 23.5248 15.9009 24.0011C15.9009 24.1992 15.8772 24.3283 15.848 24.4094C15.8016 24.5259 15.7648 24.5794 15.5909 24.6966C15.497 24.7576 15.3587 24.8246 15.1859 24.8964L14.1411 22.8066L5.76469 23.5173L5.75554 23.5188C5.71453 23.5243 5.10273 23.6009 4.31265 23.9519C3.52531 24.3024 2.54797 24.938 1.8514 26.0655C1.24562 27.0531 0.972888 28.3578 0.970154 29.7455C0.970701 31.0761 1.23258 32.4838 1.77476 33.7528C1.81695 33.9359 1.90328 34.0741 1.99398 34.1881C2.20679 34.4445 2.48101 34.6351 2.83961 34.8448C3.46484 35.2033 4.35156 35.5764 5.48234 35.9501C8.86914 37.0646 14.4365 38.1554 20.9704 38.1565C26.2791 38.1565 30.9533 37.434 34.3331 36.5667C36.0238 36.1326 37.3889 35.6638 38.3658 35.2178C38.8556 34.9937 39.2466 34.7782 39.55 34.5547C39.7012 34.4413 39.833 34.3268 39.9464 34.1875C40.0366 34.0741 40.123 33.9358 40.1656 33.7527C40.4032 33.196 40.5814 32.6118 40.7121 32.0194H40.7737C40.7737 32.0194 40.8212 31.7148 40.8514 31.2294C40.9222 30.7315 40.9702 30.233 40.9702 29.7455C40.9669 28.3578 40.6947 27.0531 40.0888 26.0655ZM26.5377 9.15671H27.7177C27.9348 9.15671 28.1112 9.33218 28.1112 9.54929C28.1112 9.76632 27.9347 9.94296 27.7177 9.94296H26.5377C26.3196 9.94296 26.1441 9.76632 26.1441 9.54929C26.1441 9.33218 26.3196 9.15671 26.5377 9.15671ZM23.2422 4.33562C23.2422 4.11858 23.4188 3.94249 23.6353 3.94249C23.8529 3.94249 24.0295 4.11858 24.0295 4.33562V5.51608C24.0295 5.73319 23.853 5.90976 23.6353 5.90976C23.4187 5.90976 23.2422 5.73319 23.2422 5.51608V4.33562ZM17.9303 4.33562C17.9303 4.11858 18.1064 3.94249 18.3239 3.94249C18.5405 3.94249 18.717 4.11858 18.717 4.33562V5.51608C18.717 5.73319 18.5405 5.90976 18.3239 5.90976C18.1063 5.90976 17.9303 5.73319 17.9303 5.51608V4.33562ZM14.241 9.15671H15.4215C15.6396 9.15671 15.8152 9.33218 15.8152 9.54929C15.8152 9.76632 15.6397 9.94296 15.4215 9.94296H14.241C14.0239 9.94296 13.8479 9.76632 13.8479 9.54929C13.848 9.33218 14.0239 9.15671 14.241 9.15671ZM13.9354 16.0421V12.0419C13.9354 11.8815 14.065 11.7519 14.2248 11.7519H27.7348C27.8937 11.7519 28.0232 11.8809 28.0237 12.0419V16.0421C28.0211 16.1647 27.9881 16.2998 27.8277 16.486C27.5891 16.7619 27.0188 17.1205 25.927 17.3867C24.8378 17.6556 23.2395 17.8398 20.9801 17.8392C17.967 17.8414 16.1298 17.5094 15.1071 17.0962C14.5952 16.8916 14.2928 16.6697 14.132 16.4861C13.971 16.2998 13.9376 16.1647 13.9354 16.0421ZM14.7157 18.0094C15.0284 18.1357 15.3832 18.2512 15.7941 18.3533C16.9987 18.6492 18.6658 18.8344 20.9802 18.8344C24.0657 18.8328 25.9994 18.5083 27.223 18.0201C27.2301 18.0173 27.236 18.0141 27.243 18.0108C26.8359 19.6908 24.3346 22.8616 20.9802 22.8616C17.623 22.8617 15.1218 19.6887 14.7157 18.0094ZM24.8886 24.6243C24.1455 25.0919 22.6606 25.8673 20.9704 25.8673C19.2727 25.8673 17.7823 25.0859 17.0425 24.6189C17.0901 24.4212 17.117 24.2176 17.1176 24.0012C17.1176 23.6977 17.1176 23.3543 17.1176 22.9655C18.2596 23.5422 19.4735 23.9255 20.5368 24.1162H21.4223C22.4791 23.9266 23.6866 23.546 24.8227 22.9751C24.8227 23.3596 24.8227 23.7004 24.8227 24.0012C24.8233 24.2204 24.8455 24.4234 24.8886 24.6243ZM13.4224 24.0891L14.422 26.0882L20.9704 30.0707L21.2863 29.8784L27.5184 26.0887L28.5179 24.0886L29.7998 24.1971L27.9271 27.6806L20.9704 31.9109L14.0131 27.6806L12.141 24.1976L13.4224 24.0891ZM39.0251 33.3344L38.9851 33.4267L38.9834 33.4423C38.9311 33.4958 38.7961 33.6124 38.5941 33.7312C38.1238 34.0185 37.3111 34.3798 36.242 34.7394C33.0258 35.8259 27.4735 36.9414 20.9704 36.9404C15.773 36.9404 11.1868 36.2303 7.91015 35.3884C6.27297 34.9689 4.96015 34.5142 4.08 34.1113C3.64101 33.9116 3.30836 33.722 3.115 33.5773C3.03297 33.5168 2.98328 33.4687 2.95625 33.4395L2.95523 33.4261L2.91469 33.3337C2.73219 32.9174 2.595 32.4719 2.48109 32.0194H8.2525V24.5275L10.8208 24.3099L13.0984 28.5478L20.9705 33.3348L28.8425 28.5478L31.1202 24.3094L34.1382 24.5653V32.0194H39.4593C39.3448 32.4719 39.2081 32.9175 39.0251 33.3344Z" fill="white"/>
</svg>
