<svg width="55" height="62" viewBox="0 0 55 62" fill="none" xmlns="http://www.w3.org/2000/svg">
<path d="M10.6734 26.8151C10.2007 26.8151 9.81401 27.251 9.81401 27.7838V32.6179C9.81401 33.2185 9.37573 33.7029 8.84292 33.7029C8.31011 33.7029 7.87183 33.2185 7.87183 32.6179V31.7266C7.87183 31.1938 7.48511 30.7579 7.01245 30.7579C6.53979 30.7579 6.15308 31.1938 6.15308 31.7266V32.6179C6.15308 34.2841 7.36479 35.6404 8.84292 35.6404C10.321 35.6404 11.5328 34.2841 11.5328 32.6179V27.7838C11.5328 27.251 11.146 26.8151 10.6734 26.8151ZM15.7351 31.9688V34.6716C15.7351 35.2044 16.1218 35.6404 16.5945 35.6404C17.0671 35.6404 17.4539 35.2044 17.4539 34.6716V29.2369C17.4539 28.4739 17.185 27.742 16.7063 27.2025C16.2276 26.6629 15.5784 26.3597 14.9015 26.3597C14.2246 26.3597 13.5754 26.6629 13.0967 27.2025C12.6181 27.742 12.3492 28.4739 12.3492 29.2369V34.6716C12.3492 35.2044 12.7359 35.6404 13.2085 35.6404C13.6812 35.6404 14.0679 35.2044 14.0679 34.6716V31.9688H15.7351ZM14.9015 28.2972C15.357 28.2972 15.7351 28.7235 15.7351 29.2369V30.0313H14.0679V29.2369C14.0679 28.7138 14.4375 28.2972 14.9015 28.2972ZM23.2289 33.1216C23.1494 33.0318 23.0549 32.9606 22.951 32.9119C22.847 32.8633 22.7355 32.8383 22.623 32.8383C22.5104 32.8383 22.399 32.8633 22.295 32.9119C22.1911 32.9606 22.0966 33.0318 22.0171 33.1216C21.7937 33.3735 21.4929 33.5188 21.1749 33.5188C20.5218 33.5188 19.989 32.9182 19.989 32.1819V29.6341C19.989 28.8979 20.5218 28.2972 21.1749 28.2972C21.4929 28.2972 21.7851 28.4426 22.0171 28.6944C22.0967 28.7841 22.1912 28.8553 22.2951 28.9038C22.3991 28.9523 22.5105 28.9773 22.623 28.9773C22.7355 28.9773 22.8469 28.9523 22.9509 28.9038C23.0548 28.8553 23.1493 28.7841 23.2289 28.6944C23.3084 28.6047 23.3715 28.4983 23.4146 28.3811C23.4576 28.2639 23.4798 28.1383 23.4798 28.0115C23.4798 27.8846 23.4576 27.759 23.4146 27.6418C23.3715 27.5247 23.3084 27.4182 23.2289 27.3285C22.6789 26.7085 21.9484 26.3694 21.1749 26.3694C19.5765 26.3694 18.2703 27.8419 18.2703 29.6438V32.1916C18.2703 33.9935 19.5765 35.466 21.1749 35.466C21.9484 35.466 22.6789 35.1269 23.2289 34.5069C23.3085 34.4173 23.3717 34.3109 23.4149 34.1937C23.458 34.0765 23.4802 33.9508 23.4802 33.824C23.4802 33.6971 23.458 33.5715 23.4149 33.4543C23.3717 33.3371 23.3085 33.2306 23.2289 33.141V33.1216ZM28.8578 27.1251C28.7811 27.0321 28.6889 26.9571 28.5864 26.9044C28.484 26.8516 28.3733 26.8222 28.2608 26.8177C28.1483 26.8132 28.036 26.8337 27.9306 26.8782C27.8251 26.9226 27.7284 26.99 27.646 27.0766L26.0218 28.7816V27.3285C26.0218 26.7957 25.6351 26.3597 25.1625 26.3597C24.6898 26.3597 24.3031 26.7957 24.3031 27.3285V34.6716C24.3031 35.2044 24.6898 35.6404 25.1625 35.6404C25.6351 35.6404 26.0218 35.2044 26.0218 34.6716V33.2185L27.646 34.9235C27.7283 35.0103 27.8249 35.078 27.9304 35.1225C28.036 35.1671 28.1482 35.1877 28.2608 35.1832C28.3734 35.1787 28.4841 35.1492 28.5866 35.0963C28.689 35.0434 28.7812 34.9682 28.8578 34.8751C29.1843 34.4876 29.1585 33.8676 28.8148 33.5091L26.4171 31.0001L28.8148 28.491C29.1585 28.1229 29.1843 27.5126 28.8578 27.1251ZM35.4406 29.1691C35.4406 27.6191 34.3234 26.3597 32.9484 26.3597H30.757C30.2843 26.3597 29.8976 26.7957 29.8976 27.3285V34.6716C29.8976 35.2044 30.2843 35.6404 30.757 35.6404C31.2296 35.6404 31.6164 35.2044 31.6164 34.6716V31.9688H32.9484C34.3234 31.9688 35.4406 30.7094 35.4406 29.1691ZM32.9484 30.0313H31.6164V28.2972H32.9484C33.3695 28.2972 33.7218 28.6847 33.7218 29.1691C33.7218 29.6535 33.3867 30.0313 32.9484 30.0313ZM39.1617 26.3597C37.5632 26.3597 36.257 27.8322 36.257 29.6341V32.1819C36.257 33.9838 37.5546 35.4563 39.1617 35.4563C40.7687 35.4563 42.0664 33.9838 42.0664 32.1819V29.6341C42.0664 27.8322 40.7601 26.3597 39.1617 26.3597ZM40.3476 32.1819C40.3476 32.9182 39.8148 33.5188 39.1617 33.5188C38.5085 33.5188 37.9757 32.9182 37.9757 32.1819V29.6341C37.9757 28.8979 38.5085 28.2972 39.1617 28.2972C39.8148 28.2972 40.3476 28.8979 40.3476 29.6341V32.1819ZM43.7421 26.3597C43.2695 26.3597 42.8828 26.7957 42.8828 27.3285C42.8828 27.8613 43.2695 28.2972 43.7421 28.2972H45.0054V34.6716C45.0054 35.2044 45.3921 35.6404 45.8648 35.6404C46.3374 35.6404 46.7242 35.2044 46.7242 34.6716V28.2972H47.9874C48.4601 28.2972 48.8468 27.8613 48.8468 27.3285C48.8468 26.7957 48.4601 26.3597 47.9874 26.3597H43.7335H43.7421Z" fill="white"/>
<path d="M50.7031 18.881C50.1584 18.881 49.636 18.6371 49.2508 18.2028C48.8656 17.7686 48.6492 17.1797 48.6492 16.5657C48.6492 16.0329 48.2625 15.5969 47.7898 15.5969H7.21016C6.7375 15.5969 6.35078 16.0329 6.35078 16.5657C6.35078 17.1797 6.13439 17.7686 5.74921 18.2028C5.36402 18.6371 4.8416 18.881 4.29688 18.881C3.82422 18.881 3.4375 19.3169 3.4375 19.8497V42.1504C3.4375 42.6832 3.82422 43.1191 4.29688 43.1191C4.8416 43.1191 5.36402 43.363 5.74921 43.7973C6.13439 44.2315 6.35078 44.8204 6.35078 45.4344C6.35078 45.9672 6.7375 46.4032 7.21016 46.4032H47.7898C48.2625 46.4032 48.6492 45.9672 48.6492 45.4344C48.6492 44.8204 48.8656 44.2315 49.2508 43.7973C49.636 43.363 50.1584 43.1191 50.7031 43.1191C51.1758 43.1191 51.5625 42.6832 51.5625 42.1504V19.8497C51.5625 19.3169 51.1758 18.881 50.7031 18.881ZM49.8438 41.2882C48.4516 41.6563 47.3516 42.8963 47.025 44.4657H7.975C7.81256 43.6936 7.46296 42.9876 6.96521 42.4265C6.46746 41.8654 5.84117 41.4713 5.15625 41.2882V20.7119C6.54844 20.3438 7.64844 19.1038 7.975 17.5344H47.025C47.3516 19.1038 48.4516 20.3438 49.8438 20.7119V41.2979V41.2882Z" fill="white" stroke="white" stroke-width="2"/>
<path d="M23.075 23.4896C23.2447 23.4906 23.4108 23.4368 23.5522 23.3351C23.6937 23.2333 23.8041 23.0882 23.8695 22.9181C23.9349 22.748 23.9523 22.5607 23.9195 22.3799C23.8866 22.199 23.8051 22.0329 23.6852 21.9025C23.5219 21.7251 23.307 21.6224 23.075 21.6224C22.843 21.6224 22.6281 21.7251 22.4648 21.9025C22.3449 22.0329 22.2634 22.199 22.2305 22.3799C22.1977 22.5607 22.2151 22.748 22.2805 22.9181C22.3459 23.0882 22.4563 23.2333 22.5978 23.3351C22.7392 23.4368 22.9053 23.4906 23.075 23.4896ZM27.0367 23.4896C27.2064 23.4906 27.3725 23.4368 27.5139 23.3351C27.6554 23.2333 27.7658 23.0882 27.8312 22.9181C27.8966 22.748 27.914 22.5607 27.8812 22.3799C27.8483 22.199 27.7668 22.0329 27.6469 21.9025C27.4836 21.7251 27.2687 21.6224 27.0367 21.6224C26.8047 21.6224 26.5898 21.7251 26.4266 21.9025C26.3066 22.0329 26.2251 22.199 26.1923 22.3799C26.1594 22.5607 26.1768 22.748 26.2422 22.9181C26.3076 23.0882 26.418 23.2333 26.5595 23.3351C26.701 23.4368 26.8671 23.4906 27.0367 23.4896ZM30.9984 23.4896C31.1681 23.4906 31.3342 23.4368 31.4757 23.3351C31.6171 23.2333 31.7276 23.0882 31.7929 22.9181C31.8583 22.748 31.8757 22.5607 31.8429 22.3799C31.8101 22.199 31.7285 22.0329 31.6086 21.9025C31.4453 21.7251 31.2305 21.6224 30.9984 21.6224C30.7664 21.6224 30.5516 21.7251 30.3883 21.9025C30.2684 22.0329 30.1868 22.199 30.154 22.3799C30.1212 22.5607 30.1385 22.748 30.2039 22.9181C30.2693 23.0882 30.3797 23.2333 30.5212 23.3351C30.6627 23.4368 30.8288 23.4906 30.9984 23.4896ZM14.8594 23.5083L19.268 23.4896C19.7406 23.4896 20.1273 23.0695 20.1273 22.556C20.1273 22.0425 19.7406 21.6224 19.268 21.6224L14.8594 21.6411C14.3867 21.6411 14 22.0612 14 22.5747C14 23.0882 14.3867 23.5083 14.8594 23.5083ZM34.8055 23.5083L39.2141 23.4896C39.6867 23.4896 40.0734 23.0695 40.0734 22.556C40.0734 22.0425 39.6867 21.6224 39.2141 21.6224L34.8055 21.6411C34.3328 21.6411 33.9461 22.0612 33.9461 22.5747C33.9461 23.0882 34.3328 23.5083 34.8055 23.5083ZM23.075 39.5104C22.9053 39.5094 22.7392 39.5632 22.5978 39.6649C22.4563 39.7667 22.3459 39.9118 22.2805 40.0819C22.2151 40.252 22.1977 40.4393 22.2305 40.6201C22.2634 40.801 22.3449 40.9671 22.4648 41.0975C22.6281 41.2749 22.843 41.3776 23.075 41.3776C23.307 41.3776 23.5219 41.2749 23.6852 41.0975C23.8051 40.9671 23.8866 40.801 23.9195 40.6201C23.9523 40.4393 23.9349 40.252 23.8695 40.0819C23.8041 39.9118 23.6937 39.7667 23.5522 39.6649C23.4108 39.5632 23.2447 39.5094 23.075 39.5104ZM27.0367 39.5104C26.8671 39.5094 26.701 39.5632 26.5595 39.6649C26.418 39.7667 26.3076 39.9118 26.2422 40.0819C26.1768 40.252 26.1594 40.4393 26.1923 40.6201C26.2251 40.801 26.3066 40.9671 26.4266 41.0975C26.5898 41.2749 26.8047 41.3776 27.0367 41.3776C27.2687 41.3776 27.4836 41.2749 27.6469 41.0975C27.7668 40.9671 27.8483 40.801 27.8812 40.6201C27.914 40.4393 27.8966 40.252 27.8312 40.0819C27.7658 39.9118 27.6554 39.7667 27.5139 39.6649C27.3725 39.5632 27.2064 39.5094 27.0367 39.5104ZM30.9984 39.5104C30.8288 39.5094 30.6627 39.5632 30.5212 39.6649C30.3797 39.7667 30.2693 39.9118 30.2039 40.0819C30.1385 40.252 30.1212 40.4393 30.154 40.6201C30.1868 40.801 30.2684 40.9671 30.3883 41.0975C30.5516 41.2749 30.7664 41.3776 30.9984 41.3776C31.2305 41.3776 31.4453 41.2749 31.6086 41.0975C31.7285 40.9671 31.8101 40.801 31.8429 40.6201C31.8757 40.4393 31.8583 40.252 31.7929 40.0819C31.7276 39.9118 31.6171 39.7667 31.4757 39.6649C31.3342 39.5632 31.1681 39.5094 30.9984 39.5104ZM19.268 39.5104H14.8594C14.3867 39.5197 14 39.9398 14 40.4533C14 40.9668 14.3867 41.3869 14.8594 41.3869H19.268C19.7406 41.3776 20.1273 40.9575 20.1273 40.444C20.1273 39.9305 19.7406 39.5104 19.268 39.5104ZM39.2141 39.5104H34.8055C34.3328 39.5197 33.9461 39.9398 33.9461 40.4533C33.9461 40.9668 34.3328 41.3869 34.8055 41.3869H39.2141C39.6867 41.3776 40.0734 40.9575 40.0734 40.444C40.0734 39.9305 39.6867 39.5104 39.2141 39.5104ZM27.0367 13.1452C27.5094 13.1452 27.8961 12.7251 27.8961 12.2116V9.93361C27.8961 9.42012 27.5094 9 27.0367 9C26.5641 9 26.1773 9.42012 26.1773 9.93361V12.2116C26.1773 12.7251 26.5641 13.1452 27.0367 13.1452ZM20.0844 14.6483C20.2477 14.7977 20.4453 14.8724 20.6516 14.8724C20.8922 14.8724 21.1328 14.7604 21.3047 14.555C21.3788 14.4625 21.4353 14.355 21.4711 14.2388C21.5069 14.1225 21.5212 13.9997 21.5132 13.8774C21.5052 13.7551 21.4751 13.6357 21.4246 13.5261C21.3741 13.4165 21.3041 13.3188 21.2187 13.2386L19.3883 11.5114C19.3032 11.4309 19.2042 11.3695 19.0972 11.3306C18.9902 11.2917 18.8772 11.2762 18.7646 11.2849C18.652 11.2935 18.5421 11.3263 18.4412 11.3812C18.3403 11.4361 18.2504 11.512 18.1766 11.6048C18.1025 11.6973 18.0459 11.8047 18.0101 11.921C17.9744 12.0373 17.96 12.1601 17.968 12.2823C17.976 12.4046 18.0061 12.524 18.0567 12.6336C18.1072 12.7433 18.1771 12.841 18.2625 12.9212L20.093 14.6483H20.0844ZM33.4305 14.8724C33.6281 14.8724 33.8344 14.7977 33.9977 14.6483L35.8281 12.9212C36.1891 12.5851 36.2234 11.9969 35.9141 11.6048C35.8402 11.512 35.7503 11.4361 35.6494 11.3812C35.5485 11.3263 35.4386 11.2935 35.326 11.2849C35.2135 11.2762 35.1004 11.2917 34.9934 11.3306C34.8864 11.3695 34.7875 11.4309 34.7023 11.5114L32.8719 13.2386C32.5109 13.5747 32.4766 14.1629 32.7859 14.555C32.9578 14.7697 33.1984 14.8724 33.4391 14.8724H33.4305ZM27.8961 53.0664V50.7884C27.8961 50.2749 27.5094 49.8548 27.0367 49.8548C26.5641 49.8548 26.1773 50.2749 26.1773 50.7884V53.0664C26.1773 53.5799 26.5641 54 27.0367 54C27.5094 54 27.8961 53.5799 27.8961 53.0664ZM19.3711 51.4979L21.2016 49.7707C21.5625 49.4346 21.5969 48.8465 21.2875 48.4544C21.2137 48.3616 21.1237 48.2856 21.0228 48.2307C20.9219 48.1759 20.812 48.1431 20.6995 48.1345C20.5869 48.1258 20.4739 48.1413 20.3668 48.1802C20.2598 48.2191 20.1609 48.2805 20.0758 48.361L18.2453 50.0882C17.8844 50.4243 17.85 51.0124 18.1594 51.4046C18.3312 51.6193 18.5719 51.722 18.8125 51.722C19.0102 51.722 19.2164 51.6473 19.3797 51.4979H19.3711ZM35.2609 51.722C35.5016 51.722 35.7422 51.61 35.9141 51.4046C35.9881 51.3121 36.0447 51.2046 36.0805 51.0884C36.1163 50.9721 36.1306 50.8493 36.1226 50.727C36.1146 50.6047 36.0845 50.4853 36.034 50.3757C35.9834 50.2661 35.9135 50.1684 35.8281 50.0882L33.9977 48.361C33.9125 48.2805 33.8136 48.2191 33.7066 48.1802C33.5996 48.1413 33.4865 48.1258 33.374 48.1345C33.2614 48.1431 33.1515 48.1759 33.0506 48.2307C32.9497 48.2856 32.8598 48.3616 32.7859 48.4544C32.7119 48.5468 32.6553 48.6543 32.6195 48.7706C32.5837 48.8868 32.5694 49.0096 32.5774 49.1319C32.5854 49.2542 32.6155 49.3736 32.666 49.4832C32.7166 49.5928 32.7865 49.6905 32.8719 49.7707L34.7023 51.4979C34.8656 51.6473 35.0633 51.722 35.2695 51.722H35.2609Z" fill="white"/>
</svg>
