<svg width="43" height="42" viewBox="0 0 43 42" fill="none" xmlns="http://www.w3.org/2000/svg">
<path d="M38.013 26.4447L37.8409 27.3283L37.1956 27.6106L36.5431 27.9063L37.1885 28.1796L37.8338 28.4619L38.0201 29.4087L38.2064 30.3442L38.4073 29.3979L38.6011 28.4413L39.2106 28.1993C39.5405 28.0649 39.7916 27.9171 39.7557 27.8722C39.7269 27.8274 39.4833 27.7154 39.2252 27.6079C38.9599 27.5138 38.7089 27.3973 38.6658 27.357C38.6228 27.3122 38.5155 26.9268 38.4294 26.4944C38.3434 26.0732 38.2573 25.674 38.2285 25.6319C38.1995 25.5871 38.1062 25.9482 38.013 26.4447ZM4.89145 22.1961C4.67633 23.2791 4.68345 23.2477 4.58318 23.3006C4.53304 23.3006 4.2461 23.4485 3.95204 23.5739L3.41443 23.8159L4.01676 24.0892C4.35384 24.246 4.6479 24.4387 4.68382 24.5193C4.71254 24.6045 4.81287 25.0239 4.89894 25.4554L5.05681 26.2444L5.236 25.3819C5.33628 24.9083 5.45113 24.4777 5.47994 24.4356C5.51587 24.3907 5.8028 24.2339 6.12529 24.0861L6.71341 23.8127L6.13989 23.5708C5.8245 23.4319 5.53755 23.2885 5.49453 23.2347C5.4586 23.181 5.33666 22.7405 5.23638 22.2673L5.04931 21.4048L4.89145 22.1961ZM17.5408 16.4438C16.6014 16.9066 15.4899 18.2423 15.1457 19.3361L14.9736 19.8827H13.9481H12.9227L11.84 21.1346C9.30868 24.0583 7.98916 26.1086 7.1934 28.3799C6.54094 30.2519 6.33293 32.0707 6.56226 33.9745L6.64121 34.6583L9.81076 34.7031H12.9803L13.0592 34.1035C13.3316 32.0738 13.977 29.9392 14.8951 28.0143C15.3971 26.9627 15.4544 26.7946 15.5692 25.9747C15.9564 23.2509 17.0537 20.1274 18.5379 17.5093C18.9468 16.7942 19.0541 16.5522 18.9823 16.4895C18.7814 16.3192 17.8349 16.3013 17.5408 16.4357L17.5408 16.4438ZM38.343 11.8802C38.135 12.2163 37.2816 12.8162 36.7511 13.0053C36.1346 13.2249 34.6141 13.2383 33.8756 13.0053L33.3522 12.8574L32.6927 13.8669C31.904 15.066 31.366 15.9599 30.8138 17.0218L30.4053 17.8001L31.0364 18.0958C31.7319 18.4319 32.5782 18.6949 33.0586 18.737L33.3739 18.7818L32.234 20.044C30.0899 22.4103 28.2328 24.8599 27.6735 26.0486C27.4225 26.5849 27.1213 28.7191 27.0569 30.4755C27.0068 31.6952 27.064 34.2613 27.143 34.5767C27.1717 34.6932 27.9245 34.7111 31.3522 34.7111C35.289 34.7111 35.5184 34.7111 35.4683 34.5229C35.2389 33.6707 34.9879 32.3776 34.8872 31.5572C34.7294 30.1901 34.7795 27.2772 34.995 25.9523C35.5902 22.1979 37.0029 18.7487 39.3262 15.3729L40.0782 14.2801L39.282 12.9757C38.8447 12.2714 38.4859 11.6826 38.4788 11.6826C38.4718 11.6826 38.4073 11.7727 38.343 11.8802ZM4.23899 15.6238V19.9876H5.62997C6.94949 19.9876 7.02843 19.9876 7.07145 19.7904C7.14328 19.4544 8.12572 18.1706 8.55596 17.8552C8.77817 17.6849 9.12948 17.5281 9.35919 17.4967L9.76062 17.434V14.3845V11.3349L9.1654 11.3887C8.76397 11.4335 8.42688 11.5365 8.10402 11.7247C7.84588 11.8726 7.56603 11.998 7.48036 11.998C7.29405 11.998 7.10737 11.7337 7.10737 11.4617C7.10737 11.2735 7.04302 11.2601 5.67336 11.2601H4.23899V15.6238ZM10.5493 12.5743V18.7258H12.507H14.4573L14.6006 18.3584C14.7798 17.8642 15.6833 16.6127 16.2284 16.0974C17.4619 14.9203 18.3867 14.8881 20.6314 15.9406C22.037 16.5925 22.8043 16.8448 23.6289 16.929L24.3315 16.9918L23.1193 18.3275C20.5162 21.1664 18.573 23.5641 17.3399 25.4468C14.7443 29.4114 13.5897 33.0918 13.7259 36.9618C13.7546 37.6662 13.8191 38.5184 13.8692 38.8652L13.9624 39.4961L20.6528 39.5409C26.0023 39.5409 27.3357 39.5409 27.3072 39.4378C26.5975 37.0608 26.2604 34.6005 26.2533 31.8135C26.2463 25.0203 28.3903 18.4901 32.6426 12.3171L33.7683 10.687L32.6639 8.87813C32.0544 7.87894 31.5381 7.06927 31.5164 7.06927C31.4948 7.06927 31.3373 7.23954 31.1794 7.44565C30.7633 7.97124 29.8527 8.59181 29.0854 8.87589C28.5261 9.08648 28.2609 9.11785 27.0775 9.10889C25.2776 9.10889 24.7254 8.95206 21.5918 7.61547C18.6591 6.35326 17.3755 6.25872 15.8195 7.16337C15.5183 7.3426 15.1955 7.49046 15.1094 7.49046C14.8943 7.49046 14.6362 7.06927 14.6362 6.72292V6.44063H12.5923H10.5485V12.5931L10.5493 12.5743ZM18.0855 8.58868C18.2576 8.89337 18.0712 9.09365 17.5262 9.22001C17.2539 9.27378 16.8307 9.43956 16.5868 9.56502C16.1135 9.82938 15.9272 9.76665 15.9272 9.36787C15.9272 9.09455 16.0776 8.95565 16.6586 8.67381C17.2827 8.37809 17.9422 8.33776 18.0855 8.58868ZM18.903 37.2871V37.6007L17.0313 37.6455C15.0234 37.6903 14.9231 37.6455 15.0305 37.1406C15.0735 36.93 15.1094 36.93 16.9879 36.9524L18.9026 36.9972V37.3108L18.903 37.2871ZM27.3285 3.65633C27.2425 4.10843 27.1351 4.52917 27.0846 4.59235C27.0416 4.65508 26.7976 4.79398 26.5395 4.89703C25.8223 5.17932 25.8152 5.21068 26.4965 5.4858L27.1201 5.73672L27.3139 6.68304L27.5152 7.61906L27.6802 6.78834C27.7734 6.32593 27.8736 5.89488 27.9095 5.84201C27.9455 5.77928 28.2466 5.60902 28.5691 5.46563L29.1572 5.19231L28.6193 4.95932C28.3252 4.83386 28.0382 4.69495 27.981 4.65463C27.9238 4.60982 27.8018 4.20253 27.7157 3.73967C27.6226 3.28757 27.5365 2.8982 27.5219 2.87714C27.5082 2.87714 27.4221 3.21409 27.3285 3.65633Z" fill="white"/>
</svg>
