<svg width="60" height="50" viewBox="0 0 60 50" fill="none" xmlns="http://www.w3.org/2000/svg">
<path d="M47.4629 19.7281L48.8524 18.9164C52.9588 16.5173 55.0123 15.3178 56.5136 16.4019C58.015 17.486 58.015 20.1683 58.015 25.5328V26.2523C58.015 31.6169 58.015 34.299 56.5136 35.3832C55.0123 36.4674 52.9588 35.2678 48.8524 32.8688L47.4629 32.0571V19.7281Z" stroke="white" stroke-width="3"/>
<path d="M35.7958 23.0866C37.2443 24.5353 37.2443 26.8841 35.7958 28.3329C34.347 29.7815 31.998 29.7815 30.5493 28.3329C29.1008 26.8841 29.1008 24.5353 30.5493 23.0866C31.998 21.6378 34.347 21.6378 35.7958 23.0866Z" stroke="white" stroke-width="3"/>
<path d="M2.46289 23.5625C2.46289 14.111 2.46289 9.38524 5.18677 6.20449C5.68543 5.62218 6.24256 5.08827 6.85018 4.61038C10.1692 2 15.1005 2 24.9629 2C34.8254 2 39.7565 2 43.0757 4.61038C43.6832 5.08827 44.2403 5.62218 44.7389 6.20449C47.4629 9.38524 47.4629 14.111 47.4629 23.5625V26.4375C47.4629 35.8891 47.4629 40.6147 44.7389 43.7956C44.2403 44.3778 43.6832 44.9117 43.0757 45.3895C39.7565 48 34.8254 48 24.9629 48C15.1005 48 10.1692 48 6.85018 45.3895C6.24256 44.9117 5.68543 44.3778 5.18677 43.7956C2.46289 40.6147 2.46289 35.8891 2.46289 26.4375V23.5625Z" stroke="white" stroke-width="3"/>
</svg>
