<svg width="78" height="54" viewBox="0 0 78 54" fill="none" xmlns="http://www.w3.org/2000/svg">
<path d="M70.5703 8.79097V6.46951C70.5703 3.4226 67.8571 0.956055 64.5055 0.956055C61.1539 0.956055 58.4407 3.4226 58.4407 6.46951V8.79097H20.2962V6.46951C20.2962 3.4226 17.583 0.956055 14.2314 0.956055C10.8798 0.956055 8.3262 3.4226 8.3262 6.32442V8.64588H7.3686C3.53819 8.64588 0.346191 11.1124 0.346191 14.0142V45.2088C0.346191 48.1106 3.53819 50.5772 7.3686 50.5772H14.0718V51.5928C14.0718 52.3183 14.7102 53.0437 15.6678 53.0437C16.4658 53.0437 17.2638 52.4633 17.2638 51.5928V50.7223H60.3559V51.5928C60.3559 52.3183 60.9943 53.0437 61.9519 53.0437C62.7499 53.0437 63.5479 52.4633 63.5479 51.5928V50.7223H70.2511C74.0815 50.7223 77.2735 48.2557 77.2735 45.3539V14.0142C76.9543 11.2575 74.0815 8.93606 70.5703 8.79097ZM61.6327 6.32442C61.6327 4.87351 62.9095 3.56769 64.6651 3.56769C66.2611 3.56769 67.6975 4.72842 67.6975 6.32442V8.64588H61.7923V6.32442H61.6327ZM11.3586 6.32442C11.3586 4.87351 12.6354 3.56769 14.391 3.56769C15.987 3.56769 17.4234 4.72842 17.4234 6.32442V8.64588H11.3586V6.32442ZM29.2338 42.307H9.1242V17.0612H29.2338V42.307ZM38.6502 41.7266C36.5754 41.7266 34.8198 40.1306 34.8198 38.2444C34.8198 36.3582 36.5754 34.7622 38.6502 34.7622C40.725 34.7622 42.4806 36.3582 42.4806 38.2444C42.4806 40.1306 40.725 41.7266 38.6502 41.7266ZM38.6502 24.6059C36.5754 24.6059 34.8198 23.0099 34.8198 21.1237C34.8198 19.2375 36.5754 17.6415 38.6502 17.6415C40.725 17.6415 42.4806 19.2375 42.4806 21.1237C42.4806 23.0099 40.725 24.6059 38.6502 24.6059ZM68.1763 42.307H48.0666V17.0612H68.1763V42.307Z" fill="white"/>
<path d="M19.1795 24.8962C21.2543 24.8962 22.3715 26.7824 20.9351 28.5235C19.8179 29.8293 17.5835 31.8606 14.2319 35.0526V37.0839H24.6059V34.7624H17.7431C20.2967 32.2959 22.5311 30.4097 23.4887 28.9588C25.0847 26.202 23.3291 22.7199 19.3391 22.7199C17.1047 22.7199 15.5087 23.4453 14.0723 25.4766L16.1471 26.6373C16.9451 25.4766 17.9027 24.8962 19.1795 24.8962Z" fill="white"/>
<path d="M58.919 38.6796C63.707 38.6796 66.5798 35.4876 66.5798 29.9741C66.5798 24.6058 63.707 21.2687 58.919 21.2687C54.131 21.2687 51.2582 24.4607 51.2582 29.9741C51.2582 35.4876 54.131 38.6796 58.919 38.6796ZM58.919 24.1705C62.7494 24.1705 63.5474 27.3625 63.5474 29.9741C63.5474 32.5858 62.7494 35.7778 58.919 35.7778C55.0886 35.7778 54.2906 32.5858 54.2906 29.9741C54.2906 27.3625 55.0886 24.1705 58.919 24.1705Z" fill="white"/>
</svg>
