<svg width="42" height="43" viewBox="0 0 42 43" fill="none" xmlns="http://www.w3.org/2000/svg">
<path d="M29.418 18.216L30.5579 17.646C33.9267 15.9615 35.6113 15.1193 36.843 15.8805C38.0747 16.6417 38.0747 18.5251 38.0747 22.2917V22.7969C38.0747 26.5636 38.0747 28.4468 36.843 29.2081C35.6113 29.9694 33.9267 29.1271 30.5579 27.4426L29.418 26.8727V18.216Z" stroke="white" stroke-width="2.32364"/>
<path d="M23.4633 21.2475C24.4774 22.2617 24.4774 23.9061 23.4633 24.9203C22.4491 25.9344 20.8047 25.9344 19.7904 24.9203C18.7764 23.9061 18.7764 22.2617 19.7904 21.2475C20.8047 20.2333 22.4491 20.2333 23.4633 21.2475Z" stroke="white" stroke-width="2.32364"/>
<path d="M3.44775 21.2508C3.44775 15.559 3.44775 12.7131 5.01974 10.7977C5.30753 10.447 5.62906 10.1255 5.97972 9.83768C7.89519 8.26569 10.7411 8.26569 16.4328 8.26569C22.1246 8.26569 24.9704 8.26569 26.886 9.83768C27.2366 10.1255 27.5581 10.447 27.8458 10.7977C29.4179 12.7131 29.4179 15.559 29.4179 21.2508V22.9821C29.4179 28.6739 29.4179 31.5197 27.8458 33.4353C27.5581 33.7859 27.2366 34.1074 26.886 34.3951C24.9704 35.9672 22.1246 35.9672 16.4328 35.9672C10.7411 35.9672 7.89519 35.9672 5.97972 34.3951C5.62906 34.1074 5.30753 33.7859 5.01974 33.4353C3.44775 31.5197 3.44775 28.6739 3.44775 22.9821V21.2508Z" stroke="white" stroke-width="2.32364"/>
</svg>
