<svg width="57" height="59" viewBox="0 0 57 59" fill="none" xmlns="http://www.w3.org/2000/svg">
<g clip-path="url(#clip0_268_963)">
<rect x="0.89563" y="0.5" width="55.403" height="58" rx="4" fill="white" fill-opacity="0.2"/>
<path d="M11.1873 50.8719V51.801H6.52416V50.8719H11.1873ZM6.7017 47.1674V55.7836H5.55958V47.1674H6.7017ZM12.1815 47.1674V55.7836H11.0453V47.1674H12.1815ZM17.821 54.6888V51.3927C17.821 51.1402 17.7697 50.9212 17.6672 50.7358C17.5685 50.5464 17.4186 50.4005 17.2174 50.2979C17.0162 50.1953 16.7677 50.144 16.4718 50.144C16.1956 50.144 15.953 50.1914 15.7439 50.2861C15.5388 50.3807 15.377 50.505 15.2587 50.6589C15.1442 50.8127 15.087 50.9784 15.087 51.156H13.9923C13.9923 50.9271 14.0514 50.7003 14.1698 50.4754C14.2882 50.2506 14.4578 50.0474 14.6787 49.8659C14.9036 49.6805 15.1719 49.5345 15.4835 49.428C15.7991 49.3175 16.1503 49.2623 16.5369 49.2623C17.0024 49.2623 17.4127 49.3412 17.7678 49.499C18.1268 49.6568 18.4069 49.8955 18.6081 50.215C18.8132 50.5307 18.9158 50.9271 18.9158 51.4045V54.387C18.9158 54.6 18.9335 54.8269 18.969 55.0675C19.0085 55.3082 19.0657 55.5153 19.1407 55.6889V55.7836H17.9985C17.9433 55.6573 17.8999 55.4897 17.8684 55.2806C17.8368 55.0675 17.821 54.8703 17.821 54.6888ZM18.0104 51.9016L18.0222 52.6709H16.9156C16.6039 52.6709 16.3258 52.6965 16.0812 52.7478C15.8366 52.7952 15.6315 52.8681 15.4658 52.9668C15.3001 53.0654 15.1738 53.1897 15.087 53.3396C15.0003 53.4855 14.9569 53.6572 14.9569 53.8544C14.9569 54.0556 15.0022 54.2391 15.093 54.4048C15.1837 54.5705 15.3198 54.7026 15.5013 54.8012C15.6867 54.8959 15.9135 54.9433 16.1818 54.9433C16.5171 54.9433 16.813 54.8723 17.0695 54.7302C17.3259 54.5882 17.5291 54.4146 17.679 54.2095C17.8328 54.0043 17.9157 53.8051 17.9275 53.6118L18.395 54.1385C18.3674 54.3042 18.2925 54.4876 18.1702 54.6888C18.0479 54.89 17.8841 55.0833 17.679 55.2687C17.4778 55.4502 17.2371 55.6021 16.957 55.7244C16.6809 55.8428 16.3692 55.9019 16.022 55.9019C15.5881 55.9019 15.2074 55.8171 14.8799 55.6475C14.5564 55.4778 14.3039 55.251 14.1225 54.9669C13.9449 54.6789 13.8562 54.3574 13.8562 54.0024C13.8562 53.6591 13.9232 53.3573 14.0574 53.097C14.1915 52.8326 14.3848 52.6137 14.6373 52.4401C14.8898 52.2626 15.1936 52.1284 15.5486 52.0377C15.9037 51.947 16.3002 51.9016 16.7381 51.9016H18.0104ZM21.7326 50.7476V55.7836H20.6378V49.3807H21.6734L21.7326 50.7476ZM21.4722 52.3395L21.0166 52.3217C21.0205 51.8838 21.0856 51.4795 21.2118 51.1086C21.3381 50.7338 21.5156 50.4084 21.7444 50.1322C21.9732 49.856 22.2455 49.643 22.5611 49.4931C22.8806 49.3392 23.2337 49.2623 23.6203 49.2623C23.9359 49.2623 24.22 49.3057 24.4725 49.3925C24.725 49.4753 24.94 49.6095 25.1175 49.7949C25.299 49.9803 25.4371 50.221 25.5317 50.5168C25.6264 50.8088 25.6738 51.1658 25.6738 51.5879V55.7836H24.5731V51.5761C24.5731 51.2408 24.5238 50.9725 24.4251 50.7713C24.3265 50.5662 24.1825 50.4182 23.9931 50.3275C23.8038 50.2328 23.571 50.1855 23.2949 50.1855C23.0226 50.1855 22.7741 50.2427 22.5492 50.3571C22.3283 50.4715 22.137 50.6293 21.9752 50.8305C21.8174 51.0317 21.6931 51.2625 21.6024 51.5229C21.5156 51.7793 21.4722 52.0515 21.4722 52.3395ZM31.3725 54.5409V46.694H32.4732V55.7836H31.4672L31.3725 54.5409ZM27.0644 52.6531V52.5289C27.0644 52.0397 27.1236 51.5958 27.242 51.1974C27.3643 50.795 27.5359 50.4498 27.7568 50.1618C27.9817 49.8738 28.248 49.6529 28.5557 49.499C28.8673 49.3412 29.2145 49.2623 29.5972 49.2623C29.9996 49.2623 30.3507 49.3333 30.6505 49.4753C30.9543 49.6134 31.2107 49.8166 31.4198 50.0849C31.6329 50.3492 31.8005 50.6687 31.9228 51.0435C32.0451 51.4183 32.13 51.8424 32.1773 52.3158V52.8602C32.1339 53.3297 32.0491 53.7518 31.9228 54.1266C31.8005 54.5014 31.6329 54.821 31.4198 55.0853C31.2107 55.3496 30.9543 55.5528 30.6505 55.6948C30.3468 55.8329 29.9917 55.9019 29.5854 55.9019C29.2106 55.9019 28.8673 55.8211 28.5557 55.6593C28.248 55.4976 27.9817 55.2707 27.7568 54.9788C27.5359 54.6868 27.3643 54.3436 27.242 53.9491C27.1236 53.5506 27.0644 53.1187 27.0644 52.6531ZM28.1651 52.5289V52.6531C28.1651 52.9727 28.1967 53.2725 28.2598 53.5526C28.3269 53.8327 28.4294 54.0793 28.5675 54.2923C28.7056 54.5054 28.8811 54.673 29.0942 54.7953C29.3072 54.9137 29.5617 54.9729 29.8576 54.9729C30.2205 54.9729 30.5184 54.8959 30.7511 54.7421C30.9878 54.5882 31.1772 54.385 31.3192 54.1325C31.4613 53.8801 31.5717 53.6059 31.6506 53.31V51.8838C31.6033 51.6669 31.5342 51.4578 31.4435 51.2566C31.3567 51.0514 31.2423 50.8699 31.1003 50.7121C30.9622 50.5504 30.7906 50.4222 30.5854 50.3275C30.3842 50.2328 30.1456 50.1855 29.8694 50.1855C29.5696 50.1855 29.3112 50.2486 29.0942 50.3748C28.8811 50.4971 28.7056 50.6668 28.5675 50.8837C28.4294 51.0968 28.3269 51.3453 28.2598 51.6294C28.1967 51.9095 28.1651 52.2093 28.1651 52.5289ZM34.1716 46.694H35.2722V54.5409L35.1776 55.7836H34.1716V46.694ZM39.5981 52.5289V52.6531C39.5981 53.1187 39.5428 53.5506 39.4324 53.9491C39.3219 54.3436 39.1602 54.6868 38.9471 54.9788C38.7341 55.2707 38.4737 55.4976 38.166 55.6593C37.8583 55.8211 37.5052 55.9019 37.1067 55.9019C36.7004 55.9019 36.3433 55.8329 36.0356 55.6948C35.7318 55.5528 35.4754 55.3496 35.2663 55.0853C35.0572 54.821 34.8896 54.5014 34.7633 54.1266C34.641 53.7518 34.5562 53.3297 34.5089 52.8602V52.3158C34.5562 51.8424 34.641 51.4183 34.7633 51.0435C34.8896 50.6687 35.0572 50.3492 35.2663 50.0849C35.4754 49.8166 35.7318 49.6134 36.0356 49.4753C36.3394 49.3333 36.6925 49.2623 37.0949 49.2623C37.4973 49.2623 37.8543 49.3412 38.166 49.499C38.4776 49.6529 38.738 49.8738 38.9471 50.1618C39.1602 50.4498 39.3219 50.795 39.4324 51.1974C39.5428 51.5958 39.5981 52.0397 39.5981 52.5289ZM38.4974 52.6531V52.5289C38.4974 52.2093 38.4678 51.9095 38.4086 51.6294C38.3494 51.3453 38.2548 51.0968 38.1246 50.8837C37.9944 50.6668 37.8228 50.4971 37.6097 50.3748C37.3967 50.2486 37.1343 50.1855 36.8227 50.1855C36.5465 50.1855 36.3059 50.2328 36.1007 50.3275C35.8995 50.4222 35.7279 50.5504 35.5859 50.7121C35.4439 50.8699 35.3275 51.0514 35.2367 51.2566C35.1499 51.4578 35.0848 51.6669 35.0415 51.8838V53.31C35.1046 53.5861 35.2071 53.8524 35.3492 54.1089C35.4951 54.3614 35.6885 54.5685 35.9291 54.7302C36.1737 54.892 36.4755 54.9729 36.8345 54.9729C37.1304 54.9729 37.3829 54.9137 37.592 54.7953C37.805 54.673 37.9766 54.5054 38.1068 54.2923C38.2409 54.0793 38.3396 53.8327 38.4027 53.5526C38.4658 53.2725 38.4974 52.9727 38.4974 52.6531ZM44.7583 54.6888V51.3927C44.7583 51.1402 44.707 50.9212 44.6044 50.7358C44.5058 50.5464 44.3559 50.4005 44.1547 50.2979C43.9535 50.1953 43.7049 50.144 43.409 50.144C43.1329 50.144 42.8903 50.1914 42.6812 50.2861C42.476 50.3807 42.3143 50.505 42.1959 50.6589C42.0815 50.8127 42.0243 50.9784 42.0243 51.156H40.9295C40.9295 50.9271 40.9887 50.7003 41.1071 50.4754C41.2254 50.2506 41.3951 50.0474 41.616 49.8659C41.8409 49.6805 42.1091 49.5345 42.4208 49.428C42.7364 49.3175 43.0875 49.2623 43.4741 49.2623C43.9397 49.2623 44.35 49.3412 44.705 49.499C45.064 49.6568 45.3441 49.8955 45.5453 50.215C45.7505 50.5307 45.853 50.9271 45.853 51.4045V54.387C45.853 54.6 45.8708 54.8269 45.9063 55.0675C45.9458 55.3082 46.003 55.5153 46.0779 55.6889V55.7836H44.9358C44.8806 55.6573 44.8372 55.4897 44.8056 55.2806C44.7741 55.0675 44.7583 54.8703 44.7583 54.6888ZM44.9476 51.9016L44.9595 52.6709H43.8529C43.5412 52.6709 43.2631 52.6965 43.0185 52.7478C42.7739 52.7952 42.5687 52.8681 42.403 52.9668C42.2373 53.0654 42.1111 53.1897 42.0243 53.3396C41.9375 53.4855 41.8941 53.6572 41.8941 53.8544C41.8941 54.0556 41.9395 54.2391 42.0302 54.4048C42.121 54.5705 42.2571 54.7026 42.4385 54.8012C42.624 54.8959 42.8508 54.9433 43.1191 54.9433C43.4544 54.9433 43.7503 54.8723 44.0067 54.7302C44.2632 54.5882 44.4663 54.4146 44.6163 54.2095C44.7701 54.0043 44.853 53.8051 44.8648 53.6118L45.3323 54.1385C45.3047 54.3042 45.2297 54.4876 45.1074 54.6888C44.9851 54.89 44.8214 55.0833 44.6163 55.2687C44.4151 55.4502 44.1744 55.6021 43.8943 55.7244C43.6181 55.8428 43.3065 55.9019 42.9593 55.9019C42.5253 55.9019 42.1446 55.8171 41.8172 55.6475C41.4937 55.4778 41.2412 55.251 41.0597 54.9669C40.8822 54.6789 40.7934 54.3574 40.7934 54.0024C40.7934 53.6591 40.8605 53.3573 40.9946 53.097C41.1288 52.8326 41.3221 52.6137 41.5746 52.4401C41.8271 52.2626 42.1308 52.1284 42.4859 52.0377C42.841 51.947 43.2374 51.9016 43.6753 51.9016H44.9476ZM48.7645 46.694V55.7836H47.6639V46.694H48.7645ZM51.7115 46.694V55.7836H50.6109V46.694H51.7115Z" fill="white"/>
<g clip-path="url(#clip1_268_963)">
<path d="M28.8191 9.55458C31.0432 9.55458 32.8462 7.7516 32.8462 5.52751C32.8462 3.30342 31.0432 1.50043 28.8191 1.50043C26.595 1.50043 24.7921 3.30342 24.7921 5.52751C24.7921 7.7516 26.595 9.55458 28.8191 9.55458Z" fill="white"/>
<path d="M42.5439 19.4963C44.5685 19.4963 46.2098 17.855 46.2098 15.8304C46.2098 13.8058 44.5685 12.1646 42.5439 12.1646C40.5193 12.1646 38.8781 13.8058 38.8781 15.8304C38.8781 17.855 40.5193 19.4963 42.5439 19.4963Z" fill="white"/>
<path d="M37.6173 19.2801L30.9449 16.4014L24.9409 11.3622L28.459 13.1862C28.416 12.3523 27.9914 11.5489 27.2411 11.0535L23.1925 8.38069C21.9387 7.55293 20.2512 7.89837 19.4234 9.1522L12.3253 19.9038C11.9258 20.5775 11.4693 21.585 11.9123 22.4518L15.6687 29.4624L13.4411 38.8852C13.171 40.0274 13.8781 41.1724 15.0203 41.4424C16.1625 41.7125 17.3075 41.0052 17.5775 39.8631L19.9902 29.657C20.1095 29.1523 20.0402 28.6215 19.7953 28.1643L18.1023 25.0048L22.9702 29.2565L26.8533 40.0912C27.2495 41.1966 28.4667 41.7707 29.5709 41.3748C30.6759 40.9788 31.2506 39.7621 30.8545 38.6571L26.7923 27.3224C26.6747 26.9941 26.478 26.6999 26.2198 26.4655L22.5339 23.1211L25.7375 18.2685L22.595 14.1571L28.8037 19.3681C28.9395 19.4821 29.0911 19.5756 29.2538 19.6459L36.1716 22.6305C37.0968 23.0297 38.1704 22.6032 38.5697 21.678C38.969 20.7529 38.5424 19.6793 37.6173 19.2801Z" fill="white"/>
</g>
</g>
<defs>
<clipPath id="clip0_268_963">
<rect x="0.89563" y="0.5" width="55.403" height="58" rx="4" fill="white"/>
</clipPath>
<clipPath id="clip1_268_963">
<rect width="40" height="40" fill="white" transform="translate(8.97015 1.5)"/>
</clipPath>
</defs>
</svg>
