<svg width="45" height="45" viewBox="0 0 45 45" fill="none" xmlns="http://www.w3.org/2000/svg">
<path fill-rule="evenodd" clip-rule="evenodd" d="M6.75 2.64706C6.75 1.18514 7.75737 0 9 0H36C37.2427 0 38.25 1.18514 38.25 2.64706V18.5294C41.978 18.5294 45 22.0847 45 26.4706V37.0588C45 41.4447 41.978 45 38.25 45H6.75C3.02206 45 0 41.4447 0 37.0588V26.4706C0 22.0847 3.02209 18.5294 6.75 18.5294V2.64706ZM6.75 23.8235C5.50737 23.8235 4.5 25.0086 4.5 26.4706V37.0588C4.5 38.5208 5.50737 39.7059 6.75 39.7059H38.25C39.4927 39.7059 40.5 38.5208 40.5 37.0588V26.4706C40.5 25.0086 39.4927 23.8235 38.25 23.8235V29.1176C38.25 30.5796 37.2427 31.7647 36 31.7647H9C7.75737 31.7647 6.75 30.5796 6.75 29.1176V23.8235ZM11.25 5.29412V21.1765V26.4706H33.75V21.1765V5.29412H11.25ZM15.75 13.2353C15.75 11.7734 16.7574 10.5882 18 10.5882H27C28.2427 10.5882 29.25 11.7734 29.25 13.2353C29.25 14.6972 28.2427 15.8824 27 15.8824H18C16.7574 15.8824 15.75 14.6972 15.75 13.2353ZM15.75 21.1765C15.75 19.7145 16.7574 18.5294 18 18.5294H27C28.2427 18.5294 29.25 19.7145 29.25 21.1765C29.25 22.6384 28.2427 23.8235 27 23.8235H18C16.7574 23.8235 15.75 22.6384 15.75 21.1765Z" fill="white"/>
</svg>
