<svg width="69" height="70" viewBox="0 0 69 70" fill="none" xmlns="http://www.w3.org/2000/svg">
<path d="M57.4205 14.4831C55.2152 14.7599 53.078 15.5361 51.1857 16.7265C50.8629 16.6529 50.5333 16.6048 50.1983 16.5817C51.9096 15.3812 53.8426 14.5202 55.8602 14.0624L55.9309 14.6595L57.4205 14.4831ZM57.4205 14.4831L57.3398 13.8016C57.3382 13.8018 57.3366 13.802 57.335 13.8022L57.4205 14.4831ZM47.6797 19.1056C47.5565 19.1452 47.4337 19.1871 47.3115 19.2315C47.6073 18.8391 47.9407 18.4896 48.2585 18.1825L48.259 18.182C48.4742 17.9739 48.695 17.7721 48.9211 17.5769C49.0447 17.4701 49.1699 17.3653 49.2966 17.2625L49.3508 18.0783L49.9339 18.7586C49.7558 18.7509 49.5764 18.753 49.3963 18.764C48.8257 18.7988 48.2477 18.9229 47.6797 19.1056ZM47.6797 19.1056C47.68 19.1055 47.6802 19.1055 47.6804 19.1054L47.8648 19.6803L47.8639 19.6803L47.679 19.1058C47.6793 19.1058 47.6795 19.1057 47.6797 19.1056ZM46.1046 19.7972L46.3686 19.7796L46.5885 19.765L46.9679 19.7398L46.0979 19.7528L46.1046 19.7972ZM46.1046 19.7972L46.2297 20.6264L45.9853 19.8051L46.1046 19.7972ZM5.76649 25.6955C5.7667 25.6952 5.76692 25.6949 5.76714 25.6946L6.46452 26.1874M5.76649 25.6955C5.76627 25.6958 5.76606 25.6961 5.76584 25.6964L6.46398 26.1882M5.76649 25.6955C4.86038 26.9783 4.51006 28.7113 4.78365 30.2712L5.76649 25.6955ZM6.46452 26.1874C6.46434 26.1877 6.46416 26.188 6.46398 26.1882M6.46452 26.1874L6.99212 26.5603M6.46452 26.1874C6.47558 26.1713 6.48673 26.1553 6.49797 26.1393L6.4981 26.1391C7.76411 24.3425 10.1823 23.1792 13.0997 23.2257L13.0866 23.9145M6.46398 26.1882L6.99212 26.5603M6.46398 26.1882C5.72893 27.2613 5.40685 28.7365 5.64393 30.1204L6.25034 30.0141L5.64394 30.1204C5.64513 30.1273 5.64633 30.1343 5.64754 30.1412L5.64755 30.1412C5.74657 30.7056 5.92924 31.2068 6.17633 31.6359L6.31802 31.4162L7.57862 32.2292M6.99212 26.5603C6.33124 27.4955 6.0518 28.8189 6.26112 30.0122C6.43005 30.9758 6.89755 31.7644 7.57862 32.2292M6.99212 26.5603C8.19487 24.853 10.4814 23.8576 13.0866 23.9145M7.57862 32.2292L7.20261 32.7801C7.20735 32.7835 7.2121 32.7868 7.21686 32.7902L7.57862 32.2292ZM13.0866 23.9145L13.1017 23.2257L23.4868 28.6032L22.9586 28.7935C22.4808 28.2738 21.9851 27.7915 21.4708 27.35C18.9527 25.1898 15.9745 23.9692 13.0866 23.9145ZM50.923 18.9137C50.8655 18.8975 50.8078 18.8826 50.7498 18.869L50.923 18.9137ZM45.6394 19.8281L44.0286 21.1101C42.6757 22.1868 41.3859 23.6084 40.1011 25.3766L39.5782 24.9983L40.101 25.3767C40.0894 25.3926 40.0778 25.4086 40.0662 25.4246L40.0654 25.4257C39.6078 26.0588 39.1848 26.7052 38.7828 27.3321L38.5217 27.7392L38.2217 28.207L38.221 28.2067L38.221 28.2068L37.7369 28.0325L37.3682 27.8998L35.1231 27.0915L34.7359 26.9521L34.7358 26.952L34.6147 26.9085L34.4951 26.9516L34.4948 26.9517L34.1064 27.0916L26.8528 29.7057L26.3468 29.888L45.6394 19.8281ZM5.6678 32.4245L5.29337 33.0051L4.78367 30.2713C4.78489 30.2783 4.78612 30.2852 4.78736 30.2921C4.78736 30.2921 4.78736 30.2921 4.78736 30.2922C4.92581 31.0653 5.2186 31.8015 5.6678 32.4245ZM55.6829 12.5653L55.7637 13.248L55.6829 12.5653Z" stroke="white" stroke-width="3"/>
<path d="M22.2557 6.11506C22.1357 5.54522 21.8838 5.10444 21.5077 4.80694C20.9935 4.40006 20.3963 4.37819 19.999 4.39569C17.8548 4.49303 15.8722 5.84381 14.9468 7.83663L16.8646 8.77944C17.4468 7.526 18.7442 6.64116 20.0935 6.57991C20.1254 6.57881 20.153 6.57772 20.1764 6.57772C20.1796 6.57772 20.1817 6.57991 20.1817 6.57991C20.3135 7.20116 20.067 7.90663 19.7812 8.72475C19.5814 9.2935 19.3763 9.88194 19.2712 10.5251C19.2361 10.7449 19.1277 11.4154 19.5495 11.9951C19.8863 12.4566 20.4187 12.6994 21.121 12.6644C21.9104 12.6437 22.6446 12.4741 23.3554 12.3101C23.909 12.1821 24.4402 12.0596 24.9948 12.0257L24.1767 15.6821C24.1066 15.9949 23.9897 16.5188 24.2033 17.0799C24.5985 18.1135 25.7503 18.411 26.6853 18.1737C26.8702 18.1266 27.054 18.0621 27.2357 17.9965C27.4365 17.9243 27.6352 17.8291 27.7573 17.8554C27.9837 17.8663 28.3088 18.4132 28.3885 19.1012C28.4108 19.2948 28.4267 19.4916 28.4416 19.6907C28.5138 20.6193 28.5967 21.6715 29.2937 22.5563L30.9438 21.1771C30.6622 20.8194 30.6123 20.1862 30.5602 19.5146C30.5422 19.2882 30.5241 19.0618 30.4986 18.8408C30.3212 17.3205 29.4372 15.7499 27.8636 15.6701C27.3408 15.6449 26.8935 15.8024 26.5355 15.9315C26.4515 15.9621 26.3676 15.9927 26.2826 16.0201L27.1666 12.0738C27.2229 11.8233 27.3408 11.3049 27.088 10.7723C26.9275 10.431 26.4972 9.8535 25.4337 9.82288C24.522 9.79663 23.6965 9.98913 22.8911 10.1762C22.4119 10.2877 21.9518 10.3938 21.4652 10.4441C21.5492 10.1302 21.6628 9.80538 21.7808 9.46631C22.125 8.47428 22.5182 7.34991 22.2557 6.11506Z" fill="white"/>
<path d="M3.01025 18.6706L5.09913 19.0742C5.41575 17.3362 6.90325 15.7852 8.80088 15.2154C10.5147 14.7002 12.5898 14.9092 14.6425 15.8049C16.7208 16.7117 18.544 18.1663 19.9146 20.0137L21.6029 18.6859C20.0092 16.5377 17.8884 14.8446 15.4713 13.7902C12.9701 12.6998 10.3904 12.4592 8.20588 13.1154C5.51882 13.9226 3.47882 16.1035 3.01025 18.6706Z" fill="white"/>
<path d="M33.3812 9.02525L31.4321 9.89697L33.9975 15.9753L35.9466 15.1036L33.3812 9.02525Z" fill="white"/>
<path d="M37.1929 16.3756L39.1054 17.3293C39.966 15.5006 41.0827 13.8184 42.4246 12.3298L40.867 10.8423C39.3806 12.4884 38.1449 14.351 37.1929 16.3756Z" fill="white"/>
<path d="M36.0149 10.3282L38.1357 10.1992C38.0347 8.44043 38.5065 6.66746 39.4638 5.2073L37.7032 3.9834C36.4856 5.83949 35.8853 8.09262 36.0149 10.3282Z" fill="white"/>
<path d="M63.1089 23.2238L63.4946 25.3752C64.5326 25.1783 65.5622 25.046 66.5556 24.9815L66.4228 22.7983C65.3454 22.8683 64.2309 23.0116 63.1089 23.2238Z" fill="white"/>
<path d="M31.4272 2.1875H29.3022V4.375H31.4272V2.1875Z" fill="white"/>
<path d="M50.5522 4.375H48.4272V6.5625H50.5522V4.375Z" fill="white"/>
<path d="M64.3647 15.3125H62.2397V17.5H64.3647V15.3125Z" fill="white"/>
<path d="M8.05225 4.375H5.92725V6.5625H8.05225V4.375Z" fill="white"/>
<path d="M26.1147 21.875H23.9897V24.0625H26.1147V21.875Z" fill="white"/>
<path d="M14.4272 28.4375H12.3022V30.625H14.4272V28.4375Z" fill="white"/>
</svg>
