<svg width="42" height="43" viewBox="0 0 42 43" fill="none" xmlns="http://www.w3.org/2000/svg">
<g clip-path="url(#clip0_269_1036)">
<path d="M37.6889 4.76813C36.407 3.48563 33.8439 2.75 30.6552 2.75C25.0927 2.75 16.9264 4.97375 10.6914 11.2131C1.78767 20.125 0.379545 34.3569 4.25142 38.2319C5.53267 39.5144 8.09642 40.25 11.2845 40.25H11.2858C16.8483 40.25 25.0133 38.0262 31.2483 31.7863C40.1521 22.875 41.5608 8.64375 37.6889 4.76813ZM30.6552 3.96C31.2777 3.96 31.8695 3.995 32.4339 4.05313C32.8358 4.16625 33.1552 4.32687 33.3677 4.53937C35.5639 6.7375 33.3577 16.4163 25.6139 24.1688C17.867 31.9213 8.12455 34.1625 5.92892 31.9644C4.15392 30.1881 6.03455 20.0981 13.7814 12.345C18.8539 7.26875 24.8702 4.68312 28.9514 4.03437C29.5181 3.98722 30.0865 3.96241 30.6552 3.96ZM30.3939 30.9312C24.9639 36.3644 18.0227 38.6131 12.807 38.9794C17.882 37.1756 24.5589 33.5219 30.412 25.3294C33.8033 20.5831 36.5458 15.3344 38.5064 11.8619C38.4752 17.4187 36.1152 25.2056 30.3939 30.9312Z" fill="white"/>
<path d="M10.6158 27.0563C9.56393 26.0038 9.80143 22.3181 11.7358 18.5356C8.96268 22.9831 8.22581 27.3094 9.29456 28.3788C10.3633 29.4494 14.6864 28.7113 19.1308 25.9363C15.3502 27.8713 11.6683 28.1088 10.6158 27.0563Z" fill="white"/>
<path d="M28.1676 9.49003C29.2201 10.5425 28.9845 14.2275 27.0483 18.0107C29.822 13.5632 30.5589 9.23753 29.4895 8.1669C28.4214 7.09753 24.0976 7.83503 19.6533 10.6107C23.4333 8.6744 27.1164 8.43753 28.1676 9.49003Z" fill="white"/>
</g>
<defs>
<clipPath id="clip0_269_1036">
<rect width="41.5522" height="41.5522" fill="white" transform="translate(0.41803 0.932861)"/>
</clipPath>
</defs>
</svg>
