<svg width="56" height="59" viewBox="0 0 56 59" fill="none" xmlns="http://www.w3.org/2000/svg">
<g clip-path="url(#clip0_268_893)">
<rect y="0.5" width="55.403" height="58" rx="4" fill="white" fill-opacity="0.2"/>
<path d="M18.0202 50.8719V51.801H13.3571V50.8719H18.0202ZM13.5346 47.1674V55.7836H12.3925V47.1674H13.5346ZM19.0144 47.1674V55.7836H17.8782V47.1674H19.0144ZM20.5885 52.6531V52.517C20.5885 52.0554 20.6556 51.6274 20.7897 51.2329C20.9238 50.8344 21.1172 50.4892 21.3696 50.1973C21.6221 49.9014 21.9279 49.6726 22.2869 49.5108C22.6459 49.3451 23.0483 49.2623 23.4941 49.2623C23.9438 49.2623 24.3482 49.3451 24.7072 49.5108C25.0702 49.6726 25.3779 49.9014 25.6304 50.1973C25.8868 50.4892 26.0821 50.8344 26.2162 51.2329C26.3504 51.6274 26.4174 52.0554 26.4174 52.517V52.6531C26.4174 53.1147 26.3504 53.5428 26.2162 53.9373C26.0821 54.3318 25.8868 54.677 25.6304 54.9729C25.3779 55.2648 25.0721 55.4936 24.7131 55.6593C24.3581 55.8211 23.9557 55.9019 23.5059 55.9019C23.0562 55.9019 22.6518 55.8211 22.2928 55.6593C21.9338 55.4936 21.6261 55.2648 21.3696 54.9729C21.1172 54.677 20.9238 54.3318 20.7897 53.9373C20.6556 53.5428 20.5885 53.1147 20.5885 52.6531ZM21.6833 52.517V52.6531C21.6833 52.9727 21.7208 53.2745 21.7957 53.5585C21.8707 53.8386 21.9831 54.0872 22.133 54.3042C22.2869 54.5211 22.4782 54.6928 22.707 54.819C22.9359 54.9413 23.2022 55.0024 23.5059 55.0024C23.8058 55.0024 24.0681 54.9413 24.293 54.819C24.5218 54.6928 24.7112 54.5211 24.8611 54.3042C25.011 54.0872 25.1234 53.8386 25.1984 53.5585C25.2773 53.2745 25.3167 52.9727 25.3167 52.6531V52.517C25.3167 52.2014 25.2773 51.9036 25.1984 51.6235C25.1234 51.3394 25.009 51.0889 24.8552 50.8719C24.7052 50.651 24.5159 50.4774 24.2871 50.3512C24.0622 50.2249 23.7979 50.1618 23.4941 50.1618C23.1943 50.1618 22.9299 50.2249 22.7011 50.3512C22.4763 50.4774 22.2869 50.651 22.133 50.8719C21.9831 51.0889 21.8707 51.3394 21.7957 51.6235C21.7208 51.9036 21.6833 52.2014 21.6833 52.517ZM28.8792 50.653V55.7836H27.7785V49.3807H28.82L28.8792 50.653ZM28.6543 52.3395L28.1454 52.3217C28.1493 51.8838 28.2065 51.4795 28.317 51.1086C28.4275 50.7338 28.5912 50.4084 28.8082 50.1322C29.0252 49.856 29.2954 49.643 29.6189 49.4931C29.9424 49.3392 30.3172 49.2623 30.7432 49.2623C31.0431 49.2623 31.3192 49.3057 31.5717 49.3925C31.8242 49.4753 32.0432 49.6075 32.2286 49.789C32.414 49.9704 32.558 50.2032 32.6606 50.4873C32.7632 50.7713 32.8144 51.1145 32.8144 51.5169V55.7836H31.7197V51.5702C31.7197 51.2349 31.6625 50.9666 31.5481 50.7654C31.4376 50.5642 31.2798 50.4182 31.0746 50.3275C30.8695 50.2328 30.6288 50.1855 30.3527 50.1855C30.0292 50.1855 29.7589 50.2427 29.542 50.3571C29.325 50.4715 29.1514 50.6293 29.0212 50.8305C28.891 51.0317 28.7963 51.2625 28.7372 51.5229C28.6819 51.7793 28.6543 52.0515 28.6543 52.3395ZM32.8026 51.7359L32.0688 51.9608C32.0728 51.6096 32.13 51.2723 32.2404 50.9488C32.3548 50.6253 32.5186 50.3373 32.7316 50.0849C32.9486 49.8324 33.2149 49.6331 33.5305 49.4872C33.8461 49.3373 34.2071 49.2623 34.6134 49.2623C34.9566 49.2623 35.2604 49.3077 35.5247 49.3984C35.793 49.4891 36.0179 49.6292 36.1993 49.8186C36.3848 50.004 36.5248 50.2427 36.6195 50.5346C36.7142 50.8265 36.7615 51.1737 36.7615 51.5761V55.7836H35.6608V51.5643C35.6608 51.2053 35.6036 50.9271 35.4892 50.7299C35.3788 50.5287 35.221 50.3886 35.0158 50.3097C34.8146 50.2269 34.574 50.1855 34.2939 50.1855C34.0532 50.1855 33.8402 50.2269 33.6547 50.3097C33.4693 50.3926 33.3135 50.507 33.1873 50.653C33.061 50.795 32.9644 50.9587 32.8973 51.1441C32.8342 51.3295 32.8026 51.5268 32.8026 51.7359ZM41.0755 55.9019C40.6297 55.9019 40.2253 55.827 39.8624 55.6771C39.5034 55.5232 39.1937 55.3082 38.9333 55.032C38.6769 54.7559 38.4796 54.4284 38.3415 54.0497C38.2035 53.671 38.1344 53.2567 38.1344 52.807V52.5584C38.1344 52.0377 38.2114 51.5741 38.3652 51.1678C38.5191 50.7575 38.7282 50.4103 38.9925 50.1263C39.2568 49.8422 39.5566 49.6272 39.892 49.4813C40.2273 49.3353 40.5745 49.2623 40.9335 49.2623C41.3911 49.2623 41.7856 49.3412 42.117 49.499C42.4524 49.6568 42.7265 49.8777 42.9396 50.1618C43.1526 50.4419 43.3104 50.7733 43.413 51.156C43.5156 51.5347 43.5669 51.9489 43.5669 52.3987V52.8898H38.7854V51.9963H42.4721V51.9134C42.4563 51.6294 42.3971 51.3532 42.2946 51.0849C42.1959 50.8167 42.0381 50.5958 41.8211 50.4222C41.6042 50.2486 41.3083 50.1618 40.9335 50.1618C40.6849 50.1618 40.4561 50.215 40.247 50.3216C40.0379 50.4241 39.8584 50.578 39.7085 50.7831C39.5586 50.9883 39.4422 51.2388 39.3594 51.5347C39.2765 51.8306 39.2351 52.1718 39.2351 52.5584V52.807C39.2351 53.1108 39.2765 53.3968 39.3594 53.6651C39.4462 53.9294 39.5705 54.1621 39.7322 54.3633C39.8979 54.5645 40.0971 54.7223 40.3299 54.8368C40.5666 54.9512 40.8349 55.0084 41.1347 55.0084C41.5213 55.0084 41.8488 54.9295 42.117 54.7717C42.3853 54.6139 42.62 54.4028 42.8212 54.1385L43.484 54.6651C43.3459 54.8742 43.1704 55.0735 42.9573 55.2628C42.7443 55.4522 42.4819 55.6061 42.1703 55.7244C41.8626 55.8428 41.4976 55.9019 41.0755 55.9019Z" fill="white"/>
<path d="M9.9552 22.062C9.9552 18.1 9.9552 16.1189 10.8541 14.4767C11.753 12.8345 13.3953 11.8152 16.6798 9.77676L20.1425 7.62771C23.6144 5.47292 25.3505 4.39552 27.2686 4.39552C29.1868 4.39552 30.9228 5.47292 34.3948 7.62771L37.8575 9.77674C41.1421 11.8152 42.7842 12.8345 43.6831 14.4767C44.5821 16.1189 44.5821 18.1 44.5821 22.062V24.6955C44.5821 31.4491 44.5821 34.8261 42.5536 36.9242C40.5254 39.0224 37.2606 39.0224 30.7313 39.0224H23.8059C17.2766 39.0224 14.012 39.0224 11.9836 36.9242C9.9552 34.8261 9.9552 31.4491 9.9552 24.6955V22.062Z" stroke="white" stroke-width="2.59701"/>
<path d="M32.4626 32.097H22.0746" stroke="white" stroke-width="2.59701" stroke-linecap="round"/>
</g>
<defs>
<clipPath id="clip0_268_893">
<rect y="0.5" width="55.403" height="58" rx="4" fill="white"/>
</clipPath>
</defs>
</svg>
