<svg width="55" height="56" viewBox="0 0 55 56" fill="none" xmlns="http://www.w3.org/2000/svg">
<path d="M53.4565 28C53.4565 42.2051 41.941 53.7206 27.7358 53.7206M53.4565 28C53.4565 13.7948 41.941 2.2793 27.7358 2.2793M53.4565 28C46.635 28 40.0928 30.7098 35.2693 35.5334C30.4457 40.3569 27.7358 46.8991 27.7358 53.7206M27.7358 53.7206C13.5307 53.7206 2.01514 42.2051 2.01514 28M2.01514 28C2.01514 13.7948 13.5307 2.2793 27.7358 2.2793M2.01514 28C5.39283 28 8.73744 27.3347 11.858 26.0421C14.9786 24.7495 17.814 22.8549 20.2024 20.4666C22.5908 18.0782 24.4854 15.2427 25.778 12.1222C27.0705 9.0016 27.7358 5.65698 27.7358 2.2793M9.73083 9.99562L27.7353 28.0001L45.7398 46.0046M45.7398 9.99562L9.73083 46.0046" stroke="white" stroke-width="3" stroke-linecap="round" stroke-linejoin="round"/>
</svg>
