<svg width="42" height="43" viewBox="0 0 42 43" fill="none" xmlns="http://www.w3.org/2000/svg">
<path d="M21.1195 39.0224C30.6814 39.0224 38.4329 31.2709 38.4329 21.709C38.4329 12.1471 30.6814 4.39557 21.1195 4.39557C11.5575 4.39557 3.80603 12.1471 3.80603 21.709C3.80603 31.2709 11.5575 39.0224 21.1195 39.0224Z" stroke="white" stroke-width="2.59701" stroke-linecap="round" stroke-linejoin="round"/>
<path d="M9 9.5896L33.2388 33.8284" stroke="white" stroke-width="2.59701" stroke-linecap="round" stroke-linejoin="round"/>
<path d="M33.2388 9.5896L9 33.8284" stroke="white" stroke-width="2.59701" stroke-linecap="round" stroke-linejoin="round"/>
<path d="M21.1195 4.39557C21.1195 6.6692 20.6716 8.92057 19.8016 11.0211C18.9315 13.1217 17.6562 15.0303 16.0485 16.638C14.4408 18.2457 12.5322 19.521 10.4316 20.3911C8.33103 21.2612 6.07966 21.709 3.80603 21.709" stroke="white" stroke-width="2.59701" stroke-linecap="round" stroke-linejoin="round"/>
<path d="M21.1195 39.0224C21.1195 34.4306 22.9436 30.0269 26.1905 26.78C29.4374 23.5331 33.8411 21.709 38.4329 21.709" stroke="white" stroke-width="2.59701" stroke-linecap="round" stroke-linejoin="round"/>
</svg>
