<svg width="56" height="59" viewBox="0 0 56 59" fill="none" xmlns="http://www.w3.org/2000/svg">
<g clip-path="url(#clip0_268_953)">
<rect x="0.403076" y="0.5" width="55.403" height="58" rx="4" fill="white" fill-opacity="0.2"/>
<path d="M16.8491 55.7836H15.0502L15.062 54.8545H16.8491C17.4646 54.8545 17.9774 54.7263 18.3877 54.4699C18.798 54.2095 19.1057 53.8465 19.3109 53.381C19.52 52.9115 19.6245 52.3632 19.6245 51.7359V51.2092C19.6245 50.7161 19.5653 50.2782 19.447 49.8955C19.3286 49.5089 19.155 49.1834 18.9262 48.9191C18.6974 48.6508 18.4173 48.4476 18.0859 48.3096C17.7585 48.1715 17.3817 48.1024 16.9556 48.1024H15.0146V47.1674H16.9556C17.5198 47.1674 18.0346 47.2621 18.5002 47.4515C18.9657 47.6369 19.3661 47.9072 19.7014 48.2622C20.0407 48.6133 20.3011 49.0394 20.4826 49.5404C20.6641 50.0375 20.7548 50.5977 20.7548 51.2211V51.7359C20.7548 52.3592 20.6641 52.9214 20.4826 53.4224C20.3011 53.9195 20.0388 54.3436 19.6955 54.6947C19.3562 55.0458 18.946 55.3161 18.4647 55.5054C17.9873 55.6909 17.4488 55.7836 16.8491 55.7836ZM15.6597 47.1674V55.7836H14.5176V47.1674H15.6597ZM26.0807 54.6888V51.3927C26.0807 51.1402 26.0294 50.9212 25.9268 50.7358C25.8282 50.5464 25.6783 50.4005 25.4771 50.2979C25.2759 50.1953 25.0274 50.144 24.7315 50.144C24.4553 50.144 24.2127 50.1914 24.0036 50.2861C23.7985 50.3807 23.6367 50.505 23.5183 50.6589C23.4039 50.8127 23.3467 50.9784 23.3467 51.156H22.252C22.252 50.9271 22.3111 50.7003 22.4295 50.4754C22.5478 50.2506 22.7175 50.0474 22.9384 49.8659C23.1633 49.6805 23.4316 49.5345 23.7432 49.428C24.0588 49.3175 24.4099 49.2623 24.7966 49.2623C25.2621 49.2623 25.6724 49.3412 26.0274 49.499C26.3864 49.6568 26.6666 49.8955 26.8678 50.215C27.0729 50.5307 27.1755 50.9271 27.1755 51.4045V54.387C27.1755 54.6 27.1932 54.8269 27.2287 55.0675C27.2682 55.3082 27.3254 55.5153 27.4003 55.6889V55.7836H26.2582C26.203 55.6573 26.1596 55.4897 26.128 55.2806C26.0965 55.0675 26.0807 54.8703 26.0807 54.6888ZM26.2701 51.9016L26.2819 52.6709H25.1753C24.8636 52.6709 24.5855 52.6965 24.3409 52.7478C24.0963 52.7952 23.8912 52.8681 23.7255 52.9668C23.5598 53.0654 23.4335 53.1897 23.3467 53.3396C23.2599 53.4855 23.2165 53.6572 23.2165 53.8544C23.2165 54.0556 23.2619 54.2391 23.3527 54.4048C23.4434 54.5705 23.5795 54.7026 23.761 54.8012C23.9464 54.8959 24.1732 54.9433 24.4415 54.9433C24.7768 54.9433 25.0727 54.8723 25.3292 54.7302C25.5856 54.5882 25.7888 54.4146 25.9387 54.2095C26.0925 54.0043 26.1754 53.8051 26.1872 53.6118L26.6547 54.1385C26.6271 54.3042 26.5521 54.4876 26.4298 54.6888C26.3075 54.89 26.1438 55.0833 25.9387 55.2687C25.7375 55.4502 25.4968 55.6021 25.2167 55.7244C24.9406 55.8428 24.6289 55.9019 24.2817 55.9019C23.8478 55.9019 23.4671 55.8171 23.1396 55.6475C22.8161 55.4778 22.5636 55.251 22.3822 54.9669C22.2046 54.6789 22.1159 54.3574 22.1159 54.0024C22.1159 53.6591 22.1829 53.3573 22.3171 53.097C22.4512 52.8326 22.6445 52.6137 22.897 52.4401C23.1495 52.2626 23.4533 52.1284 23.8083 52.0377C24.1634 51.947 24.5599 51.9016 24.9978 51.9016H26.2701ZM29.9923 50.3867V55.7836H28.8975V49.3807H29.9627L29.9923 50.3867ZM31.9925 49.3451L31.9865 50.363C31.8958 50.3433 31.809 50.3314 31.7262 50.3275C31.6473 50.3196 31.5565 50.3156 31.454 50.3156C31.2015 50.3156 30.9786 50.3551 30.7853 50.434C30.5919 50.5129 30.4282 50.6234 30.2941 50.7654C30.16 50.9074 30.0534 51.0771 29.9745 51.2743C29.8996 51.4676 29.8503 51.6807 29.8266 51.9134L29.5189 52.091C29.5189 51.7043 29.5564 51.3414 29.6313 51.0021C29.7102 50.6628 29.8305 50.363 29.9923 50.1026C30.154 49.8383 30.3592 49.6331 30.6077 49.4872C30.8602 49.3373 31.16 49.2623 31.5072 49.2623C31.5861 49.2623 31.6769 49.2722 31.7794 49.2919C31.882 49.3077 31.953 49.3254 31.9925 49.3451ZM35.981 49.3807V50.221H32.5191V49.3807H35.981ZM33.6908 47.8243H34.7856V54.1976C34.7856 54.4146 34.8191 54.5783 34.8862 54.6888C34.9533 54.7993 35.0401 54.8723 35.1466 54.9078C35.2531 54.9433 35.3675 54.961 35.4898 54.961C35.5805 54.961 35.6752 54.9531 35.7739 54.9374C35.8764 54.9176 35.9534 54.9018 36.0046 54.89L36.0106 55.7836C35.9238 55.8112 35.8094 55.8368 35.6673 55.8605C35.5293 55.8881 35.3616 55.9019 35.1643 55.9019C34.8961 55.9019 34.6495 55.8487 34.4246 55.7422C34.1998 55.6356 34.0203 55.4581 33.8861 55.2096C33.7559 54.9571 33.6908 54.6178 33.6908 54.1917V47.8243ZM40.9932 54.0852C40.9932 53.9274 40.9577 53.7814 40.8867 53.6473C40.8197 53.5092 40.6796 53.3849 40.4666 53.2745C40.2575 53.1601 39.9419 53.0614 39.5197 52.9786C39.1647 52.9036 38.8432 52.8149 38.5552 52.7123C38.2711 52.6097 38.0285 52.4855 37.8273 52.3395C37.63 52.1935 37.4781 52.0219 37.3716 51.8247C37.2651 51.6274 37.2119 51.3966 37.2119 51.1323C37.2119 50.8798 37.2671 50.6411 37.3775 50.4162C37.492 50.1914 37.6517 49.9921 37.8569 49.8186C38.066 49.645 38.3165 49.5089 38.6084 49.4102C38.9004 49.3116 39.2258 49.2623 39.5848 49.2623C40.0977 49.2623 40.5356 49.353 40.8986 49.5345C41.2615 49.716 41.5396 49.9586 41.733 50.2624C41.9263 50.5622 42.0229 50.8956 42.0229 51.2625H40.9282C40.9282 51.0849 40.8749 50.9133 40.7684 50.7476C40.6658 50.578 40.5139 50.4379 40.3127 50.3275C40.1155 50.217 39.8728 50.1618 39.5848 50.1618C39.2811 50.1618 39.0345 50.2091 38.8451 50.3038C38.6597 50.3945 38.5236 50.5109 38.4368 50.653C38.354 50.795 38.3125 50.9449 38.3125 51.1027C38.3125 51.2211 38.3323 51.3276 38.3717 51.4223C38.4151 51.513 38.4901 51.5978 38.5966 51.6767C38.7031 51.7517 38.853 51.8227 39.0463 51.8897C39.2396 51.9568 39.4862 52.0239 39.786 52.091C40.3107 52.2093 40.7427 52.3513 41.082 52.517C41.4213 52.6827 41.6738 52.8859 41.8395 53.1265C42.0052 53.3672 42.088 53.6591 42.088 54.0024C42.088 54.2825 42.0288 54.5389 41.9105 54.7717C41.7961 55.0044 41.6284 55.2056 41.4075 55.3753C41.1905 55.541 40.9301 55.6711 40.6264 55.7658C40.3265 55.8566 39.9892 55.9019 39.6144 55.9019C39.0503 55.9019 38.5729 55.8013 38.1823 55.6001C37.7918 55.3989 37.4959 55.1386 37.2947 54.819C37.0935 54.4994 36.9929 54.1621 36.9929 53.8071H38.0936C38.1094 54.1069 38.1962 54.3456 38.354 54.5231C38.5118 54.6967 38.7051 54.821 38.9339 54.8959C39.1627 54.9669 39.3896 55.0024 39.6144 55.0024C39.9143 55.0024 40.1648 54.963 40.366 54.8841C40.5711 54.8052 40.727 54.6967 40.8335 54.5586C40.94 54.4205 40.9932 54.2627 40.9932 54.0852Z" fill="white"/>
<path d="M46.8808 12.7956L43.8753 7.3856C44.3155 6.57254 44.2078 5.58652 43.5457 4.92445C42.9056 4.28435 41.9238 4.1596 41.093 4.5998L35.6745 1.58929C35.3974 1.43476 35.0529 1.48367 34.8296 1.70766L29.6847 6.85183C29.5047 7.03188 29.4345 7.29415 29.5018 7.53942L31.3229 14.2154L27.1832 18.3544C26.4708 18.297 25.735 18.5168 25.2168 19.0356L23.4326 20.8198L27.6503 25.0375L29.4345 23.2533C29.9016 22.7862 30.1589 22.1631 30.1589 21.4989C30.1589 21.4195 30.1434 21.343 30.1363 21.265L34.254 17.1465L40.9314 18.9676C40.9931 18.9839 41.0555 18.9924 41.1178 18.9924C41.3036 18.9924 41.4843 18.9194 41.619 18.7847L46.7632 13.6405C46.9858 13.418 47.0347 13.0727 46.8808 12.7956ZM29.4345 19.7452L28.7256 19.0363C28.6888 18.9995 28.6441 18.9733 28.6051 18.9392L32.6137 14.9299C32.6144 14.9292 32.6158 14.9285 32.6165 14.9278L41.5928 5.95087C41.8912 5.68931 42.2839 5.66875 42.5434 5.92748C42.8446 6.22804 42.7468 6.62358 42.5455 6.85183L33.543 15.8543L29.533 19.865C29.4983 19.8253 29.4714 19.7821 29.4345 19.7452Z" fill="white"/>
<path d="M22.5061 30.1824L18.2885 25.9647L19.8586 24.3946L24.0763 28.6123L22.5061 30.1824Z" fill="white"/>
<path d="M13.5774 30.6757C13.1103 31.1429 12.853 31.766 12.853 32.4309C12.853 33.0242 13.0685 33.5785 13.4456 34.0237L7.17857 40.29C6.90141 40.5671 6.90141 41.0151 7.17857 41.2923C7.3168 41.4305 7.49756 41.5 7.67903 41.5C7.86049 41.5 8.04196 41.4305 8.18019 41.2923L14.4472 35.026C14.8923 35.4031 15.4467 35.6179 16.04 35.6179C16.7042 35.6179 17.3265 35.3606 17.7944 34.8934L19.0732 33.6147L14.8555 29.397L13.5774 30.6757Z" fill="white"/>
<path d="M25.0786 27.6107L20.8609 23.393L22.4303 21.8236L26.648 26.0413L25.0786 27.6107Z" fill="white"/>
<path d="M20.0755 32.6131L15.8578 28.3954L17.2861 26.967L21.5038 31.1847L20.0755 32.6131Z" fill="white"/>
</g>
<defs>
<clipPath id="clip0_268_953">
<rect x="0.403076" y="0.5" width="55.403" height="58" rx="4" fill="white"/>
</clipPath>
</defs>
</svg>
