<svg width="60" height="60" viewBox="0 0 60 60" fill="none" xmlns="http://www.w3.org/2000/svg">
<path d="M55.3344 26.5282L56.8107 25.076L56.7988 25.0641L55.3344 26.5282ZM55.9156 30.0716C56.7176 30.8869 58.0285 30.8974 58.8438 30.0954C59.6591 29.2936 59.6699 27.9824 58.8678 27.1671L55.9156 30.0716ZM12.5127 49.4445C11.369 49.4445 10.442 50.3716 10.442 51.5152C10.442 52.6588 11.369 53.5859 12.5127 53.5859V49.4445ZM6.34832 40.3533C5.20472 40.3533 4.27763 41.2804 4.27763 42.424C4.27763 43.5676 5.20472 44.4947 6.34832 44.4947V40.3533ZM19.3035 6.13365C19.7433 5.07801 19.2441 3.86569 18.1885 3.42582C17.1328 2.98597 15.9205 3.48518 15.4806 4.54082L19.3035 6.13365ZM51.5613 43.5726C52.1955 44.5243 53.4813 44.7813 54.4327 44.1468C55.3844 43.5126 55.6414 42.2269 55.007 41.2755L51.5613 43.5726ZM12.845 30.3991C13.0654 31.5211 14.1538 32.2522 15.276 32.0316C16.3981 31.8113 17.1291 30.7229 16.9087 29.6006L12.845 30.3991ZM39.2956 44.6949C40.2291 44.0339 40.45 42.7415 39.789 41.8083C39.128 40.8749 37.8356 40.654 36.9024 41.3149L39.2956 44.6949ZM35.7669 13.6559C34.6481 13.419 33.5493 14.1339 33.3124 15.2528C33.0755 16.3716 33.7903 17.4706 34.9093 17.7074L35.7669 13.6559ZM29.8162 55.5384C15.7117 55.5384 4.27763 44.1043 4.27763 29.9998H0.13623C0.13623 46.3917 13.4244 59.6798 29.8162 59.6798V55.5384ZM55.3548 29.9998C55.3548 44.1043 43.9207 55.5384 29.8162 55.5384V59.6798C46.2081 59.6798 59.4962 46.3917 59.4962 29.9998H55.3548ZM29.8162 4.46122C43.9207 4.46122 55.3548 15.8953 55.3548 29.9998H59.4962C59.4962 13.608 46.2081 0.319824 29.8162 0.319824V4.46122ZM29.8162 0.319824C13.4244 0.319824 0.13623 13.608 0.13623 29.9998H4.27763C4.27763 15.8953 15.7117 4.46122 29.8162 4.46122V0.319824ZM29.8162 32.0705H30.0694V27.9291H29.8162V32.0705ZM28.1818 28.7284L26.9937 30.256L30.2627 32.7986L31.4507 31.2712L28.1818 28.7284ZM27.9048 1.5941L26.0114 6.13818L29.8342 7.73104L31.7276 3.18694L27.9048 1.5941ZM53.8584 27.9805L55.9156 30.0716L58.8678 27.1671L56.8107 25.076L53.8584 27.9805ZM26.0114 6.13818C22.6113 14.2986 23.3748 23.6006 28.0603 31.0973L31.5722 28.9024C27.5978 22.5434 26.9501 14.6531 29.8342 7.73104L26.0114 6.13818ZM26.9937 30.256C22.0385 36.6269 14.4195 40.3533 6.34832 40.3533V44.4947C15.6974 44.4947 24.523 40.1783 30.2627 32.7986L26.9937 30.256ZM30.0694 32.0705C38.7056 32.0705 46.7705 36.3867 51.5613 43.5726L55.007 41.2755C49.4484 32.9375 40.0905 27.9291 30.0694 27.9291V32.0705ZM15.4806 4.54082C12.0308 12.8203 11.1501 21.7718 12.845 30.3991L16.9087 29.6006C15.3719 21.7783 16.1679 13.6589 19.3035 6.13365L15.4806 4.54082ZM36.9024 41.3149C29.7312 46.3934 21.0432 49.4445 12.5127 49.4445V53.5859C22.0014 53.5859 31.5117 50.2071 39.2956 44.6949L36.9024 41.3149ZM34.9093 17.7074C42.0375 19.2167 48.6394 22.7616 53.8703 27.9926L56.7988 25.0641C50.9964 19.2619 43.6736 15.3298 35.7669 13.6559L34.9093 17.7074Z" fill="white"/>
</svg>
