<svg width="45" height="45" viewBox="0 0 45 45" fill="none" xmlns="http://www.w3.org/2000/svg">
<path fill-rule="evenodd" clip-rule="evenodd" d="M0 22.5C0 10.0736 10.0736 0 22.5 0C34.9265 0 45 10.0736 45 22.5C45 34.9265 34.9265 45 22.5 45C17.1617 45 12.2576 43.141 8.39987 40.0349L8.39422 40.0303C3.27518 35.906 0 29.5855 0 22.5ZM14.2158 40.0035C16.7272 41.1943 19.5359 41.8605 22.5 41.8605C29.4384 41.8605 35.524 38.2107 38.9424 32.7263C37.921 31.207 36.706 29.8582 35.342 28.7041C29.8877 34.5684 22.2208 38.7663 14.2158 40.0035ZM32.7661 26.86C26.8945 33.0156 18.3592 37.0626 9.9413 37.2351C8.63609 36.1216 7.48063 34.8377 6.50937 33.4178C12.9188 32.9145 18.8575 29.74 22.8384 24.6217L23.2612 24.0779C26.6603 24.1767 29.9252 25.1558 32.7661 26.86ZM23.4008 20.9413C30.1209 21.1504 36.3855 24.3257 40.5272 29.5746C41.3879 27.3832 41.8605 24.9968 41.8605 22.5C41.8605 22.3725 41.8592 22.2455 41.8567 22.1187L40.735 20.9784L40.7304 20.9738C35.5184 15.7641 28.5124 12.7617 21.1649 12.5681C21.1983 15.4704 21.951 18.3527 23.4008 20.9413ZM21.4104 9.43439C28.6503 9.66211 35.5822 12.348 41.075 17.0233C38.8057 9.31492 31.869 3.6058 23.5352 3.16674L22.5136 5.61834C21.9973 6.85773 21.6301 8.13807 21.4104 9.43439ZM20.0832 3.28893C18.0429 3.54299 16.1013 4.11449 14.3092 4.95241C11.3905 12.3421 11.4165 20.4495 14.3875 27.8263C16.673 26.5483 18.7112 24.8145 20.3603 22.6942L20.6069 22.3771C17.5625 16.8717 17.1805 10.2551 19.6156 4.41082L20.0832 3.28893ZM11.5316 29.1382C8.71244 22.2246 8.24783 14.711 10.1377 7.59962C5.86208 11.1509 3.13953 16.5075 3.13953 22.5C3.13953 25.294 3.73136 27.9496 4.7965 30.3486C7.12306 30.3384 9.39885 29.92 11.5316 29.1382Z" fill="white"/>
</svg>
