<svg width="45" height="45" viewBox="0 0 45 45" fill="none" xmlns="http://www.w3.org/2000/svg">
<path fill-rule="evenodd" clip-rule="evenodd" d="M22.5 0C15.4718 0 9.88297 2.51606 6.03763 5.84871C2.26691 9.11666 0 13.3418 0 16.875V26.25C0 29.3567 2.51841 31.875 5.625 31.875H9.91652L11.1667 40.2094C11.5797 42.963 13.9451 45 16.7294 45H28.2705C31.0549 45 33.4204 42.963 33.8332 40.2094L35.0835 31.875H39.375C42.4817 31.875 45 29.3567 45 26.25V16.875C45 13.3418 42.7331 9.11666 38.9623 5.84871C35.1171 2.51606 29.5282 0 22.5 0ZM9.82924 26.9014C10.1854 26.4879 10.7042 26.25 11.25 26.25V15C11.25 12.9289 12.9289 11.25 15 11.25H30C32.0711 11.25 33.75 12.9289 33.75 15V26.25C34.2958 26.25 34.8146 26.4879 35.1707 26.9014C35.4658 27.2439 35.625 27.6789 35.625 28.125H39.375C40.4106 28.125 41.25 27.2856 41.25 26.25V16.875C41.25 14.7832 39.7669 11.5083 36.5064 8.68254C33.3204 5.92144 28.5968 3.75 22.5 3.75C16.4032 3.75 11.6795 5.92144 8.49362 8.68254C5.23309 11.5083 3.75 14.7832 3.75 16.875V26.25C3.75 27.2856 4.58948 28.125 5.625 28.125H9.37498C9.37498 27.6789 9.53422 27.2439 9.82924 26.9014ZM30 15V26.25H15V15H30ZM14.5522 37.5L14.8752 39.6531C15.0129 40.5711 15.8013 41.25 16.7294 41.25H17.5635L17.0948 37.5H14.5522ZM13.9897 33.75H16.626L16.1573 30H13.4272L13.9897 33.75ZM19.9365 30L20.4053 33.75H24.5947L25.0635 30H19.9365ZM28.8428 30L28.374 33.75H31.0102L31.5728 30H28.8428ZM30.4478 37.5H27.9053L27.4365 41.25H28.2705C29.1986 41.25 29.9871 40.5711 30.1249 39.6531L30.4478 37.5ZM23.6572 41.25L24.126 37.5H20.874L21.3427 41.25H23.6572Z" fill="white"/>
</svg>
