<?xml version="1.0" encoding="utf-8"?><!-- Uploaded to: SVG Repo, www.svgrepo.com, Generator: SVG Repo Mixer Tools -->
<svg width="800px" height="800px" viewBox="0 0 24 24" id="_003_ECOMMERCE_03" data-name="003_ECOMMERCE_03" xmlns="http://www.w3.org/2000/svg"><title>003_081</title><path d="M21,20a.99974.99974,0,0,1-1-1V5a1.001,1.001,0,0,0-1-1H5A1.001,1.001,0,0,0,4,5V19a1,1,0,0,1-2,0V5A3.00328,3.00328,0,0,1,5,2H19a3.00328,3.00328,0,0,1,3,3V19A.99974.99974,0,0,1,21,20Z" style="fill:#333"/><path d="M15,22H9a3.00328,3.00328,0,0,1-3-3V14a1,1,0,0,1,2,0v5a1.001,1.001,0,0,0,1,1h6a1.001,1.001,0,0,0,1-1V14a1,1,0,0,1,2,0v5A3.00328,3.00328,0,0,1,15,22Z" style="fill:#333"/><path d="M16,11H8A2.00229,2.00229,0,0,1,6,9V2H18V9A2.00229,2.00229,0,0,1,16,11ZM8,4V9h8.00146L16,4Z" style="fill:#333"/><path d="M12,17a2.88623,2.88623,0,0,1-3-2.75,1,1,0,0,1,2,0c0,.40625.458.75,1,.75s1-.34375,1-.75a1,1,0,0,1,2,0A2.88623,2.88623,0,0,1,12,17Z" style="fill:#333"/><circle cx="6" cy="7" r="1" style="fill:#333"/><circle cx="18" cy="7" r="1" style="fill:#333"/></svg>