<svg width="32" height="45" viewBox="0 0 32 45" fill="none" xmlns="http://www.w3.org/2000/svg">
<path fill-rule="evenodd" clip-rule="evenodd" d="M6.75 0C3.02209 0 0 3.02209 0 6.75V38.25C0 41.978 3.02209 45 6.75 45H24.75C28.478 45 31.5 41.978 31.5 38.25V6.75C31.5 3.02209 28.478 0 24.75 0H6.75ZM4.5 6.75C4.5 5.50737 5.50737 4.5 6.75 4.5H24.75C25.9927 4.5 27 5.50737 27 6.75V38.25C27 39.4927 25.9927 40.5 24.75 40.5H6.75C5.50737 40.5 4.5 39.4927 4.5 38.25V6.75ZM11.25 33.75C10.0074 33.75 9 34.7573 9 36C9 37.2427 10.0074 38.25 11.25 38.25H20.25C21.4927 38.25 22.5 37.2427 22.5 36C22.5 34.7573 21.4927 33.75 20.25 33.75H11.25Z" fill="white"/>
</svg>
