<?xml version="1.0" encoding="UTF-8"?>
<svg version="1.1" xmlns="http://www.w3.org/2000/svg" width="170" height="170">
<path d="M0 0 C1.08074295 0.00015106 2.1614859 0.00030212 3.27497864 0.00045776 C5.00804512 0.01594162 5.00804512 0.01594162 6.77612305 0.03173828 C7.96763474 0.03456818 9.15914642 0.03739807 10.38676453 0.04031372 C14.18722635 0.05149645 17.98745136 0.07659799 21.7878418 0.10205078 C24.36661443 0.11208303 26.94539077 0.12120845 29.52416992 0.12939453 C35.84131827 0.15142962 42.1582899 0.18594678 48.4753418 0.22705078 C48.4753418 7.15705078 48.4753418 14.08705078 48.4753418 21.22705078 C69.9253418 21.22705078 91.3753418 21.22705078 113.4753418 21.22705078 C114.72508073 24.97626757 114.07188072 25.62313984 112.3581543 29.07470703 C109.31075091 35.47719444 106.82331958 42.02281312 104.3503418 48.66455078 C103.39064239 51.21629187 102.42708642 53.76657259 101.46362305 56.31689453 C101.21919968 56.96463837 100.97477631 57.6123822 100.72294617 58.27975464 C98.02060429 65.43903769 95.29715441 72.58952248 92.5378418 79.72705078 C92.08973145 80.90710693 91.64162109 82.08716309 91.17993164 83.30297852 C90.75276855 84.40198486 90.32560547 85.50099121 89.88549805 86.63330078 C89.51561768 87.59558594 89.1457373 88.55787109 88.76464844 89.54931641 C86.6029403 94.03892345 84.61836305 96.60222871 80.20117188 99.0168457 C76.20424045 100.31510854 73.05594194 100.60001404 68.86206055 100.59033203 C68.16643509 100.59083054 67.47080963 100.59132904 66.75410461 100.59184265 C65.29779167 100.58951953 63.84147336 100.57989619 62.38525391 100.56323242 C60.15125033 100.53942726 57.91842619 100.54271026 55.68432617 100.54931641 C44.75472693 100.50643591 44.75472693 100.50643591 42.4753418 98.22705078 C41.9803418 89.31705078 41.9803418 89.31705078 41.4753418 80.22705078 C22.0053418 79.56705078 2.5353418 78.90705078 -17.5246582 78.22705078 C-17.5667086 70.43604645 -17.60676687 62.6454581 -17.62815857 54.85443878 C-17.63867791 51.22558183 -17.65271316 47.59681977 -17.67553711 43.96801758 C-17.69741912 40.46668507 -17.70925887 36.96544404 -17.71441269 33.46404839 C-17.7198548 31.49171301 -17.73544269 29.51941393 -17.75125122 27.5471344 C-17.75333249 10.73040359 -17.75333249 10.73040359 -13.2121582 4.78955078 C-9.09698292 0.865779 -5.60629517 -0.02625899 0 0 Z " fill="#256D73" transform="translate(38.524658203125,42.77294921875)"/>
<path d="M0 0 C0.74900574 0.0028299 1.49801147 0.00565979 2.26971436 0.00857544 C4.65393276 0.0197399 7.03777079 0.04483719 9.421875 0.0703125 C11.04166123 0.08034715 12.66145336 0.08947215 14.28125 0.09765625 C18.24493746 0.11966695 22.20834181 0.15417075 26.171875 0.1953125 C26.171875 3.8253125 26.171875 7.4553125 26.171875 11.1953125 C17.261875 11.1953125 8.351875 11.1953125 -0.828125 11.1953125 C-0.828125 14.4953125 -0.828125 17.7953125 -0.828125 21.1953125 C18.311875 21.1953125 37.451875 21.1953125 57.171875 21.1953125 C57.501875 32.7453125 57.831875 44.2953125 58.171875 56.1953125 C63.33357614 43.2980766 63.33357614 43.2980766 68.046875 30.2578125 C68.50707031 28.9284668 68.50707031 28.9284668 68.9765625 27.57226562 C69.71154002 25.44772122 70.44221485 23.32168899 71.171875 21.1953125 C76.121875 21.1953125 81.071875 21.1953125 86.171875 21.1953125 C83.66136766 30.32528488 80.30170059 39.09686693 76.86645508 47.91040039 C76.19274643 49.64799707 75.5267709 51.38861109 74.8684082 53.13208008 C73.90716839 55.67701555 72.92311851 58.21204301 71.93359375 60.74609375 C71.64586594 61.52012039 71.35813812 62.29414703 71.06169128 63.09162903 C68.74947212 68.89366329 65.88787002 72.33731499 60.171875 75.1953125 C57.62029845 75.266986 55.09714529 75.28839692 52.546875 75.2578125 C51.84046875 75.25330078 51.1340625 75.24878906 50.40625 75.24414062 C48.66142225 75.23235125 46.916638 75.21441574 45.171875 75.1953125 C43.86391488 72.57939227 43.95947691 70.51279578 43.85546875 67.5859375 C43.81357422 66.43738281 43.77167969 65.28882812 43.72851562 64.10546875 C43.68919922 62.89761719 43.64988281 61.68976563 43.609375 60.4453125 C43.56619141 59.28386719 43.52300781 58.12242188 43.47851562 56.92578125 C43.19042283 48.66712115 43.171875 40.47462976 43.171875 32.1953125 C28.651875 32.1953125 14.131875 32.1953125 -0.828125 32.1953125 C-0.828125 35.1653125 -0.828125 38.1353125 -0.828125 41.1953125 C8.081875 41.1953125 16.991875 41.1953125 26.171875 41.1953125 C26.171875 45.1553125 26.171875 49.1153125 26.171875 53.1953125 C12.641875 53.1953125 -0.888125 53.1953125 -14.828125 53.1953125 C-14.89703799 46.73535738 -14.95676034 40.27668036 -14.99291992 33.81665039 C-15.00799552 31.61966629 -15.02845926 29.42271224 -15.05444336 27.22583008 C-15.09088002 24.0658425 -15.10786384 20.90625326 -15.12109375 17.74609375 C-15.14431953 16.27551262 -15.14431953 16.27551262 -15.16801453 14.77522278 C-15.17017725 5.98875148 -15.17017725 5.98875148 -11.828125 2.1953125 C-8.31089135 -0.49772752 -4.23882079 -0.0605141 0 0 Z " fill="#9DCC60" transform="translate(48.828125,55.8046875)"/>
<path d="M0 0 C5.85028109 5.20675017 8.51757565 11.74772091 9.05859375 19.4140625 C8.90205198 26.32277283 6.20912199 31.57712698 1.546875 36.5625 C-4.29265801 41.98913674 -10.29691819 42.35589178 -17.95703125 42.28125 C-24.84350068 41.64475989 -29.56629518 38.1937685 -34 33 C-38.38739002 26.57560747 -38.81227104 20.26637267 -37.64453125 12.6953125 C-35.87992472 5.85006033 -31.65494752 2.00844634 -26 -2 C-17.88435081 -6.23425175 -7.51266048 -4.9074637 0 0 Z " fill="#3F7C84" transform="translate(144,11)"/>
<path d="M0 0 C3.375 0.5625 3.375 0.5625 7 2 C8.4375 5.625 8.4375 5.625 9 9 C11.64 9 14.28 9 17 9 C17.21914062 8.43410156 17.43828125 7.86820313 17.6640625 7.28515625 C20.23325764 1.34258701 20.23325764 1.34258701 23.9375 -0.3125 C28.07963915 0.11016726 29.40327784 1.86865857 32 5 C31.01 7.97 30.02 10.94 29 14 C27.2984375 14.2165625 27.2984375 14.2165625 25.5625 14.4375 C22.19222799 14.61171478 22.19222799 14.61171478 21 16 C19.98377342 17.99180409 18.98287008 19.99152635 18 22 C14.94928825 22.287803 12.03939738 22.4472872 9 22 C6.89638304 19.5776532 6 18.21754366 6 15 C4.72125 14.9175 3.4425 14.835 2.125 14.75 C-1.78524813 14.25949184 -1.78524813 14.25949184 -3.5 12.1875 C-4 10 -4 10 -4 6 C-3.34 6 -2.68 6 -2 6 C-1.855625 5.195625 -1.71125 4.39125 -1.5625 3.5625 C-1 1 -1 1 0 0 Z " fill="#D2D6D7" transform="translate(116,26)"/>
<path d="M0 0 C1.1001215 3.52709477 1.08592136 6.74050843 1.02172852 10.42089844 C1.00163223 11.72194519 0.98153595 13.02299194 0.96083069 14.36346436 C0.93363624 15.77877009 0.90632537 17.1940736 0.87890625 18.609375 C0.85459336 20.06096643 0.83075039 21.51256581 0.80735779 22.96417236 C0.74463306 26.77827015 0.67553379 30.59222674 0.60510254 34.40618896 C0.52186033 38.98582244 0.44654294 43.56559228 0.36989594 48.14533997 C0.2526653 55.09701663 0.1253749 62.04844395 0 69 C19.47 69 38.94 69 59 69 C59.495 79.395 59.495 79.395 60 90 C71.88 90 83.76 90 96 90 C91.65321739 92.1733913 89.4697352 92.25735713 84.6796875 92.265625 C83.62988205 92.26849518 83.62988205 92.26849518 82.55886841 92.27142334 C81.08465209 92.27278057 79.61042363 92.26911645 78.13623047 92.26074219 C75.87570558 92.25000335 73.61596955 92.26066908 71.35546875 92.2734375 C69.92187324 92.27211645 68.48827823 92.2695552 67.0546875 92.265625 C65.74999512 92.26336914 64.44530273 92.26111328 63.10107422 92.25878906 C60 92 60 92 58 90 C57.505 81.09 57.505 81.09 57 72 C37.53 71.34 18.06 70.68 -2 70 C-2.0420504 62.20899567 -2.08210867 54.41840732 -2.10350037 46.627388 C-2.11401971 42.99853105 -2.12805496 39.36976899 -2.15087891 35.7409668 C-2.17276092 32.23963429 -2.18460067 28.73839326 -2.18975449 25.2369976 C-2.1951966 23.26466222 -2.21078449 21.29236315 -2.22659302 19.32008362 C-2.2274313 12.54672454 -1.78931816 6.54122711 0 0 Z " fill="#B5C8CB" transform="translate(23,51)"/>
<path d="M0 0 C2.35171131 0.59861742 4.6859378 1.26924352 7 2 C8.5121867 5.02437339 8.17263369 7.66241534 8 11 C7 13.4375 7 13.4375 6 15 C0.65247203 14.6549982 0.65247203 14.6549982 -2 14 C-4.30873861 11.21027418 -4 9.73200169 -4 6 C-3.34 6 -2.68 6 -2 6 C-1.855625 5.195625 -1.71125 4.39125 -1.5625 3.5625 C-1 1 -1 1 0 0 Z " fill="#D8DBDB" transform="translate(116,26)"/>
<path d="M0 0 C1.546875 0.433125 1.546875 0.433125 3.125 0.875 C3.764375 1.04902344 4.40375 1.22304688 5.0625 1.40234375 C6.7565162 1.87024742 8.44166976 2.37000093 10.125 2.875 C9.50625 3.41125 8.8875 3.9475 8.25 4.5 C5.8467098 7.18603023 5.06477847 9.42914562 4.125 12.875 C1.155 12.545 -1.815 12.215 -4.875 11.875 C-5.865 9.235 -6.855 6.595 -7.875 3.875 C-3.71610971 -0.16156999 -3.71610971 -0.16156999 0 0 Z " fill="#216972" transform="translate(129.875,23.125)"/>
<path d="M0 0 C2.78649808 0.90372911 4.72051967 1.7391517 6.875 3.75 C8.42645011 6.85290022 7.94581711 8.72601771 7 12 C4.19084526 13.40457737 2.11189466 13.24895157 -1 13 C-3.375 11.9375 -3.375 11.9375 -5 10 C-5.25 6.3125 -5.25 6.3125 -5 3 C-3.35 2.67 -1.7 2.34 0 2 C0 1.34 0 0.68 0 0 Z " fill="#D6D9DA" transform="translate(135,13)"/>
<path d="M0 0 C1 1 1 1 1.0625 4.5625 C1.041875 5.696875 1.02125 6.83125 1 8 C-3.49222798 10.99481865 -3.49222798 10.99481865 -6 12 C-8.9375 11.25 -8.9375 11.25 -11 10 C-11.8125 6.75 -11.8125 6.75 -12 3 C-8.36470815 -1.54411482 -5.41166793 -1.35291698 0 0 Z " fill="#D8DBDB" transform="translate(128,15)"/>
</svg>
