<?xml version="1.0" encoding="UTF-8"?>
<svg version="1.1" viewBox="0 0 1000 1000" width="1000" height="1000" xmlns="http://www.w3.org/2000/svg">
<path transform="translate(195,14)" d="m0 0h606l15 2 7 3 7 5 5 6 5 7 2 9v27l-3 9-6 8-5 4-9 6-7 4-3 6v319l3 6 4 3 22 6 12 8v2h2l8 11 5 11 3 10 1 8v16l-2 11-4 10-6 10-9 10-3 1-1 3-14 10-16 6-3 3-2 6v311l3 7 17 10 7 8 4 6 2 8v27l-3 9-3 3-3 5h-2l-2 4-3 1-1 3-10 4-8 1h-616l-10-2-9-4-5-4-7-11-4-8v-29l3-7 7-12 16-10 5-3 2-2 1-13v-298l-2-10-3-3-19-7v-2l-5-2-9-7v-2l-4-2-5-8-4-13-5-17v-18l4-16 6-18 4-6 6-5h2v-2l11-4 16-4 5-4 2-8v-312l-2-9-8-5-9-5-7-6-7-12-1-3v-30l8-16 7-6 5-4 10-3zm4 23-9 2-6 4-3 4-2 11v8l2 7 6 6 3 1h618l8-5 3-5 1-4v-8l-2-9-4-6-8-5-11-1zm66 64-44 1-7 3-3 6v319l3 6 5 4 19 5 11 8 5 6 3 3 8 16 3 10 1 6v16l-3 12-8 15-3 5-7 8-9 7v2l-5 2-20 10-3 7v313l4 6 4 2h563l6-3 2-2 1-4v-310l-3-7-3-3-17-6-9-7-5-2-2-4-7-6-8-13-6-14-2-5-1-13 2-13 7-18 4-6 8-10v-2l5-2 7-4 22-6 5-4 3-7v-316l-3-7-7-3zm-73 352-9 4-12 6-9 9-5 7-5 14v18l5 11 6 8 5 6 12 8 6 3 11 2 13-1 9-4 11-9 9-9 5-10 3-9v-10l-5-15-5-9-7-6-4-4-7-5-11-5zm600 0-7 3-12 6-9 8-7 10-4 10-1 6v12l4 13 9 11 4 5 10 6 7 4 4 1h17l9-3 10-6 5-4 7-8 5-8 4-13v-8l-4-15-5-9-5-5-9-8-12-6-7-2zm-598 470-9 3-4 5-2 12 1 10 6 9 6 2h613l6-2 6-7 3-7-1-12-5-8-3-3-7-2z" fill="#C1A2B7"/>
<path transform="translate(269,113)" d="m0 0 7 2 4 5 2 7 1 112 6 7 8 4 9 5 3 5 1 4 2 23 6 18 1 9-3 8-7 6-8 7-2 2-1 5 2 6 9 15 8 10 4 6v2l6 2 9-1 15-5 7 4 7 7 7 8 6 5 20 15 5 9-1 9-1 3v9l5 4 16 6 14 7 5 2h6l5-3 6-11 9-7 11-1 50 1 6 5 6 9 6 8 6 1 26-10 6-4 8-4 2-3v-7l-1-3v-11l6-8 10-8 13-10 12-11 9-7h7l11 4h10l5-5 6-9 4-5h2l2-4 4-5 4-10-1-8-10-9-7-6-2-5v-7l4-13 2-5 2-10 2-19 3-6 16-8 9-4 3-3 2-8v-108l2-9 4-4h6l5 5 2 8v123l-2 9-5 6-13 7-6 4-3 3-4 19-1 4v9l3 4v2l4 2 1 3 4 2 6 7 1 4v8l-4 13-4 6-8 10-7 11-3 4-6 12-9 12-6 3h-7l-9-3-8-3-9 2-6 5-4 5-11 7-4 7v8l2 7v8l-3 6-3 4-15 5-10 4-17 7-7 4-24 7-8-1-5-4-5-7-6-12-6-4-3-1h-28l-6 4-6 11-6 8-4 4-7 1-11-2-20-10-13-4-7-4-18-6-8-6-3-4-1-7 3-10v-8l-3-6-11-9-7-11-4-2-10 1-10 5-4 1h-10l-5-3-8-12-8-15-4-6-6-15-10-19-1-2v-7l6-8 8-9 3-7v-9l-3-24-3-5-8-4-10-4-5-4-3-5v-130l3-7 3-3z" fill="#C1A2B7"/>
<path transform="translate(453,515)" d="m0 0h7l7 3 5 6 7 13 3 3 6 2h27l5-2 4-5 3-5 7-11 5-3h13l17 5 11 6 15 6 18 7 6 3 7 8 1 8-4 11-1 11 1 3 10 5 5 3 10 9 6 2 7-3 12-4h8l6 4 8 11 6 12 5 8 7 12 8 14 3 5 1 3v13l-4 7-8 8-5 4-2 5 1 9 3 19 7 8 16 8 6 9 1 5v117l-2 7-5 4h-6l-4-4-2-5v-105l-3-9-13-5-10-5-6-6-6-36-4-13v-7l2-5 4-5 13-10 1-2v-8l-7-9-3-3-7-13-7-11-4-2-9 1-11 4-7-1-8-7-5-5-10-9-20-15-3-4-1-3v-7l1-5v-11l-4-4-11-4v-2l-5-2-14-5-5-3h-8l-4 3h-2l-2 5-5 10-5 5-5 2h-51l-10-3-6-10-9-13-6-1-7 3-5 3-25 10-5 5v10l1 11-3 7-4 4-11 6-9 8-11 9-6 7-6 4-9-1-10-4h-7l-5 3-6 9-10 17-7 9-1 5 2 5 11 8v2l3 1 4 8-1 10-5 20-5 25-4 6-14 7-7 6-1 2-1 113-3 6-4 4-7 1-5-3-4-6v-130l3-6 8-5 10-3 6-3 3-6 2-18 1-5v-9l-4-8-10-12-2-5 1-8 9-13 5-16 4-8 7-12 8-13 4-5 7-3 9 1 14 5 8 1 5-3 7-7 10-5 4-5v-10l-2-9v-11l4-7 12-6 18-7 17-5 8-5 8-3z" fill="#C1A2B7"/>
<path transform="translate(195,14)" d="m0 0h606l15 2 7 3 7 5 5 6 5 7 2 9v27l-3 9-6 8-5 4-9 6-7 4-3 6v319l3 6 4 3 22 6 12 8v2h2l8 11 5 11 3 10 1 8v16l-2 11-4 10-6 10-9 10-3 1-1 3-14 10-16 6-3 3-2 6v311l3 7 17 10 7 8 4 6 2 8v27l-3 9-3 3-3 5h-2l-2 4-3 1-1 3-10 4-8 1h-616l-10-2-9-4-5-4-7-11-4-8v-29l3-7 7-12 16-10 5-3 2-2 1-13v-298l-2-10-3-3-19-7v-2l-5-2-9-7v-2l-4-2-5-8-4-13-5-17v-18l4-16 6-18 4-6 6-5h2v-2l11-4 16-4 5-4 2-8v-312l-2-9-8-5-9-5-7-6-7-12-1-3v-30l8-16 7-6 5-4 10-3zm-4 3-10 2-10 6-5 5-6 12-1 4-1 19 3 14 6 10 11 7 11 6 3 6 1 316-2 10-5 5-11 4-10 2-11 6-6 5-3 8-6 19-2 7-1 16 2 11 7 21 3 8 8 7 11 8 7 4 11 3 5 2 2 7v317l-2 6-5 2-16 9-4 5-4 8-2 7v26l4 9 4 7 8 7 6 3 6 1h624l9-2 12-11 7-10 1-4v-27l-7-14-4-5-10-6-7-4-5-5-1-17v-293l1-11 2-4 7-4 10-3 14-9 1-3 4-2 6-5 9-14 4-10 2-14-1-18-2-11-5-11-10-13-9-6-5-3-14-3-9-4-4-5-1-15v-303l1-9 4-5 14-8 5-3 7-10 3-8v-26l-3-8-4-6-5-6-12-8-10-1z" fill="#D7C3D1"/>
<path transform="translate(491,618)" d="m0 0h18l13 2 28 8 16 8 8 5 11 12 11 6 11 11 9 12 8 16 4 9 4 14 5 17v18l-2 4-7 4-7-1-6-5-2-4-2-19-5-18-11-22-8-11-6-9-7-9-10-7-20-6-8-4-15-4-8-1h-28l-16 3-12 4-6 3-14 5-10 8-8 7-9 11-8 12-7 14-4 10-4 14-2 19-3 6-7 4-7-1-5-4-3-8 1-12 3-9 5-21 8-17 8-14 7-9 9-9 15-9 13-11 10-7 9-5 13-4 12-3 7-2z" fill="#C1A2B7"/>
<path transform="translate(369,238)" d="m0 0h8l6 4 2 7 2 22 4 16 6 11 3 4v2h2l8 13 4 4v2l3 1 7 8 4 4v2l4 2 6 7 6 4 25 10 16 3h28l16-3 19-7 12-7 7-4 5-4 6-8 7-11 12-16 7-11 4-9 3-13 2-22 3-7 3-3 3-1h8l6 4 1 3v21l-2 11-5 17-6 10-8 15-10 14-11 13-8 7-9 10-8 4-10 4-14 4-16 5-10 2-8 1h-26l-14-2-33-10-19-10-7-6v-2l-5-2-6-7-5-5-9-11-6-10-4-6-6-11-4-7-3-11-4-19-1-13 3-9z" fill="#C1A2B7"/>
<path transform="translate(258,99)" d="m0 0h483l45 1 6 5 1 4v321l-3 7-8 5-17 4-12 7-5 5-8 11-6 15-4 15v7l7 20 4 8 7 10 5 5 5 4v2l5 2 11 7 13 4 4 3 2 7v315l-3 6-4 2-41 1h-499l-30-1-6-4-1-2v-321l2-4 7-4 9-4 10-6 4-2v-2l8-7 6-7 6-12 5-13 1-14-2-12-5-13-5-10-7-9-9-6-9-4-12-3-6-4-3-4-1-15 1-312 2-4 4-3zm7 2-44 1-7 3-3 6v319l3 6 5 4 19 5 11 8 5 6 3 3 8 16 3 10 1 6v16l-3 12-8 15-3 5-7 8-9 7v2l-5 2-20 10-3 7v313l4 6 4 2h563l6-3 2-2 1-4v-310l-3-7-3-3-17-6-9-7-5-2-2-4-7-6-8-13-6-14-2-5-1-13 2-13 7-18 4-6 8-10v-2l5-2 7-4 22-6 5-4 3-7v-316l-3-7-7-3z" fill="#D7C3D1"/>
<path transform="translate(269,113)" d="m0 0 7 2 4 5 2 7 1 112 6 7 8 4 9 5 3 5 1 4 2 23 6 18 1 9-3 8-7 6-8 7-2 2-1 5 2 6 9 15 8 10 4 6v2l6 2 9-1 15-5 7 4 7 7 7 8 6 5 20 15 5 9-1 9-1 3v9l5 4 16 6 14 7 5 2h6l5-3 6-11 9-7 11-1 50 1 6 5 6 9 6 8 6 1 26-10 6-4 8-4 2-3v-7l-1-3v-11l6-8 10-8 13-10 12-11 9-7h7l11 4h10l5-5 6-9 4-5h2l2-4 4-5 4-10-1-8-10-9-7-6-2-5v-7l4-13 2-5 2-10 2-19 3-6 16-8 9-4 3-3 2-8v-108l2-9 4-4h6l5 5 2 8v123l-2 9-5 6-13 7-6 4-3 3-4 19-1 4v9l3 4v2l4 2 1 3 4 2 6 7 1 4v8l-4 13-4 6-8 10-7 11-3 4-6 12-9 12-6 3h-7l-9-3-8-3-9 2-6 5-4 5-11 7-4 7v8l2 7v8l-3 6-3 4-15 5-10 4-17 7-7 4-24 7-8-1-5-4-5-7-6-12-6-4-3-1h-28l-6 4-6 11-6 8-4 4-7 1-11-2-20-10-13-4-7-4-18-6-8-6-3-4-1-7 3-10v-8l-3-6-11-9-7-11-4-2-10 1-10 5-4 1h-10l-5-3-8-12-8-15-4-6-6-15-10-19-1-2v-7l6-8 8-9 3-7v-9l-3-24-3-5-8-4-10-4-5-4-3-5v-130l3-7 3-3zm-1 3-5 4-2 8v123l3 6 5 4 17 7 4 5 1 3 1 17 1 6v12l-6 12-4 2-5 6-1 8 8 17 6 12 3 8 7 11 4 8 8 12 4 3h8l15-7h12l6 4 4 8 11 10h2l2 5 1 1v11l-3 8 1 8 7 6 7 4 13 4 11 5 13 4 10 6 8 3 3 1h9l5-3 7-10 5-9 5-5 5-1 30 1 6 4 4 6 6 12 7 6h8l18-5 16-8 9-4 13-5 11-3 5-4 2-5v-10l-1-3v-13l4-6 13-8 7-8 6-4h8l10 5 5 1h7l6-3 6-9 7-14 8-11 6-9 7-9 4-10 1-10-5-9-8-6-6-8-1-8 3-14 2-11 4-6 7-5 12-6 4-5 2-5 1-121-1-9-5-6-5 1-3 6-1 117-4 7-10 5-11 4-6 4-2 3-1 19-2 11-6 14-1 9 3 5 8 8 8 6 1 2v10l-4 9-9 11-7 8-4 8-5 3h-9l-11-4h-8l-5 3-7 8-28 22-6 7-1 2v9l1 3v10l-4 4-9 4-8 5-12 4-9 4h-10l-3-1-2-5-6-9-4-5-6-3h-54l-8 5-4 4-5 10-4 3h-9l-16-8-13-6-9-3-3-2-1-3v-7l1-5v-11l-6-8-4-1v-2l-12-9-7-5-7-8-9-9h-8l-6 3-5 1h-11l-6-5-5-8-9-12-6-9-2-6v-7l4-6 13-11 3-4v-10l-6-18-1-5-1-19-3-7-4-3-14-7-5-5-2-4-1-14v-96l-2-9-5-4z" fill="#D7C3D1"/>
<path transform="translate(453,515)" d="m0 0h7l7 3 5 6 7 13 3 3 6 2h27l5-2 4-5 3-5 7-11 5-3h13l17 5 11 6 15 6 18 7 6 3 7 8 1 8-4 11-1 11 1 3 10 5 5 3 10 9 6 2 7-3 12-4h8l6 4 8 11 6 12 5 8 7 12 8 14 3 5 1 3v13l-4 7-8 8-5 4-2 5 1 9 3 19 7 8 16 8 6 9 1 5v117l-2 7-5 4h-6l-4-4-2-5v-105l-3-9-13-5-10-5-6-6-6-36-4-13v-7l2-5 4-5 13-10 1-2v-8l-7-9-3-3-7-13-7-11-4-2-9 1-11 4-7-1-8-7-5-5-10-9-20-15-3-4-1-3v-7l1-5v-11l-4-4-11-4v-2l-5-2-14-5-5-3h-8l-4 3h-2l-2 5-5 10-5 5-5 2h-51l-10-3-6-10-9-13-6-1-7 3-5 3-25 10-5 5v10l1 11-3 7-4 4-11 6-9 8-11 9-6 7-6 4-9-1-10-4h-7l-5 3-6 9-10 17-7 9-1 5 2 5 11 8v2l3 1 4 8-1 10-5 20-5 25-4 6-14 7-7 6-1 2-1 113-3 6-4 4-7 1-5-3-4-6v-130l3-6 8-5 10-3 6-3 3-6 2-18 1-5v-9l-4-8-10-12-2-5 1-8 9-13 5-16 4-8 7-12 8-13 4-5 7-3 9 1 14 5 8 1 5-3 7-7 10-5 4-5v-10l-2-9v-11l4-7 12-6 18-7 17-5 8-5 8-3zm-2 3-14 4-14 7-15 4-10 5-12 4-6 5-1 2v14l2 14-2 7-7 5-6 3-5 4-6 7h-9l-10-4-9-3h-7l-6 4-6 9-15 25-4 15-4 7-6 9v7l4 6 8 10 5 10-1 8-3 10-1 15-4 6-10 4-11 4-3 3-2 7v124l3 6 4 2 7-1 3-4 1-3v-109l4-10 9-6 12-5 3-5 5-29 4-13 1-11-3-7-7-7-6-4-3-1v-14l3-1 6-8 7-12 5-9 3-5 4-3h11l8 4h11l8-6 7-8 6-5 9-7 12-8 4-5 1-2-1-9-2-5v-7l4-5 9-5 20-7 10-6 7-1 4 3h2l2 5 8 13 6 6 55 1 5-3 7-9 4-8 3-4 5-2h7l12 6 11 4 12 6 5 2 3 5v10l-1 5v7l3 6 6 5 6 4h2l1 3 11 9 10 9 5 5 2 1h7l8-3 4-1h9l5 5 6 10 7 13 8 9 3 6v7l-3 1-3 3-7 5-6 7-2 3v9l6 22 2 21 3 5 6 5 10 5 9 3 4 4 1 3 1 111 4 5h5l4-5v-122l-4-8-7-5-9-4-7-6-3-7-3-20v-8l3-6 7-5 8-10 1-2v-11l-5-9-4-7-7-12-5-9-7-12-5-9-6-8-3-1h-10l-14 6h-7l-5-3-10-9-5-3-8-2-2-5v-11l4-16-3-7-7-6-15-5-12-6-13-5-10-5-16-4h-7l-6 4-9 14-4 6-2 1v2h-34l-7-4-4-5-6-12-6-5-2-1z" fill="#D7C3D1"/>
<path transform="translate(193,35)" d="m0 0h612l8 3 7 8 2 9v14l-3 6-4 5-9 3h-615l-7-3-5-6-3-5v-14l3-9 3-5 4-4zm6 2-9 2-6 4-3 4-2 11v8l2 7 6 6 3 1h618l8-5 3-5 1-4v-8l-2-9-4-6-8-5-11-1z" fill="#D7C3D1"/>
<path transform="translate(191,920)" d="m0 0h615l10 5 4 5 2 9v12l-3 7-4 5-7 3-9 1h-598l-11-1-8-4-6-12v-11l3-9 3-5zm3 3-9 3-4 5-2 12 1 10 6 9 6 2h613l6-2 6-7 3-7-1-12-5-8-3-3-7-2z" fill="#D7C3D1"/>
<path transform="translate(491,618)" d="m0 0h18l13 2 28 8 16 8 8 5 11 12 11 6 11 11 9 12 8 16 4 9 4 14 5 17v18l-2 4-7 4-7-1-6-5-2-4-2-19-5-18-11-22-8-11-6-9-7-9-10-7-20-6-8-4-15-4-8-1h-28l-16 3-12 4-6 3-14 5-10 8-8 7-9 11-8 12-7 14-4 10-4 14-2 19-3 6-7 4-7-1-5-4-3-8 1-12 3-9 5-21 8-17 8-14 7-9 9-9 15-9 13-11 10-7 9-5 13-4 12-3 7-2zm5 2-15 2-29 7-13 7-6 4v2l-5 2-12 10-13 8-14 14-12 22-8 18-3 16-2 9v14l2 4 4 2 8-1 4-5 1-2 2-22 5-15 6-14 6-9 7-11 9-10 7-6v-2l4-2 5-4 5-3 13-4 12-6 32-5 14 1 24 4 17 8 14 4 7 4 6 5 7 11 11 15 5 8 10 24 4 16 2 16 4 4 2 1h6l5-4 1-2v-15l-8-27-3-8-9-20-10-13-4-5-8-7-9-5-5-5-6-7-5-4-19-8-8-3-21-5-8-2z" fill="#D7C3D1"/>
<path transform="translate(369,238)" d="m0 0h8l6 4 2 7 2 22 4 16 6 11 3 4v2h2l8 13 4 4v2l3 1 7 8 4 4v2l4 2 6 7 6 4 25 10 16 3h28l16-3 19-7 12-7 7-4 5-4 6-8 7-11 12-16 7-11 4-9 3-13 2-22 3-7 3-3 3-1h8l6 4 1 3v21l-2 11-5 17-6 10-8 15-10 14-11 13-8 7-9 10-8 4-10 4-14 4-16 5-10 2-8 1h-26l-14-2-33-10-19-10-7-6v-2l-5-2-6-7-5-5-9-11-6-10-4-6-6-11-4-7-3-11-4-19-1-13 3-9zm1 2-4 2-2 4v15l2 14 4 19 7 10 5 9 9 15h2l2 5h2l2 5 6 6h2l2 4 12 10h2l1 3 23 10 9 2 7 3 22 5h29l23-6 20-6 16-6 5-3 5-6v-2l4-2 5-5 5-4 4-6 7-9 7-10 9-17 3-5 6-23 2-8v-17l-4-5-2-1h-7l-5 5-1 5-1 14-5 24-6 10-13 19-7 9-6 10-9 9-16 9-9 4-10 4-10 3-9 1h-32l-13-2-13-4-5-3-7-3-8-5-4-2-2-4-7-7-7-8-3-1-2-4-16-22-6-9-4-12-1-5-2-25-3-7-4-3z" fill="#D7C3D1"/>
<path transform="translate(794,450)" d="m0 0h10l14 5 9 5 9 8 8 11 6 18v10l-6 16-7 9-5 5-6 5-10 6-5 2-15 1-9-1-10-5-9-6-12-13-4-8-3-9v-13l4-14 5-9 5-5 4-5 5-4 18-8zm-2 3-7 3-12 6-9 8-7 10-4 10-1 6v12l4 13 9 11 4 5 10 6 7 4 4 1h17l9-3 10-6 5-4 7-8 5-8 4-13v-8l-4-15-5-9-5-5-9-8-12-6-7-2z" fill="#D7C3D1"/>
<path transform="translate(194,450)" d="m0 0h13l11 5 11 7 10 10 4 6 6 15 1 11-2 9-7 14-4 5-7 6-4 4-7 5-6 3-6 1h-12l-11-2-9-5-9-6-9-11-6-10-2-11 1-14 2-9 6-10h2l2-5 8-7 5-3 15-7zm-2 3-9 4-12 6-9 9-5 7-5 14v18l5 11 6 8 5 6 12 8 6 3 11 2 13-1 9-4 11-9 9-9 5-10 3-9v-10l-5-15-5-9-7-6-4-4-7-5-11-5z" fill="#D7C3D1"/>
</svg>
