<?xml version="1.0" encoding="UTF-8"?>
<svg version="1.1" viewBox="0 0 1000 1000" width="1000" height="1000" xmlns="http://www.w3.org/2000/svg">
<path transform="translate(203,10)" d="m0 0h589v3h14l-1 3 14 1 3 3 5 3 9 9h3l1 6 3 4 1 35-2 18-4 8-4 1-2 4-6 1-2 4-5 1-1 4-6 1 2 6v305l5 1v4h17l4 2v2l7 2 2 6h2v2l4 2 3 4v3h3l2 9 5 1v65l-1 2-4 1-1 4-3 5-2 5-3 1-5 5h-2v3l-5 2v2l-5 4v2l-5 1-3 1v2l-2 1-13 1v300l-2 6 4 3v2l6 1 4 4 3 1v2l3-1 1 3 4 4 2 3v3l4 1 1 34-1 20-4 1v7l-4 1-7 8-2 4-8 1-10 2 1 2h-7v3h-607v-3h-6l1-3-14-1-4-1-1-3-5-5v-2h-2v-3l-3-1-3-5-1-4h-3l-1-5v-41l1-3h2l1-7 5-2 2-5h2l2-4 6-2v-2l7-2 1-4h4l-1-8v-299l-17-1v-4l-5-1-1-4-4-1-1-3-4-1-2-1-1-3-5-4-4-9-1-2h-2v-6h-2v-3l-2-1-1-6v-47l1-7v-5h2v3l1-3 2-8h3l3-9h2l2-4 5-5 4-1v-2l5-2 16-1 1-3 5-1v-295l1-16-7-3v-2l-6-1-3-4-3-1-1-3-4-3-1-3-3-1-3-5h-1l-1-6v-38l1-7 3-1 2-5h3l1-5h3l1-4 5-5 5-1 2-4h7l6-1v-3h11zm600 4m-606 46-2 1 1 14 1 3h3v-4h2l1 3v-3h6v3h4v-3h584v4h2v-4h4v-4h-4v-7l4-1-3-2zm605 6m-546 55-29 1v4h3l-1 291 1 10h-3l1 4h3l1 4 14 1 6 1v2l6 1 1 5h3l2 4 3 2 4 7 2 7 4 1 2 6h2l1 10 1 9 2 1v-2h2l-1 6v12l1 7-4-1-2 15h-2l-2 6h-3l-3 10-2 1-1 4-4 1-1 4-4 1v3l-5 2-2 3-4 2v4l-3-1-4 2v2l-13 1-2 2 1 7h1v-6h2v297h-4v6l1 1h30v-5h-2l-1-4v-127l-1-2h2v-2h-2v-3h3l1 2 2-9 5-1 3-3 10-3v-3h9l1-28-2-5h-2l-2-4-3-1-3-5h-3l-2-6h-3l1-9-1-2 4-1 2-8h2l3-6 3-2 2-5v-4h2l2-7v-5l3-1 3-6 1-4h2l1-8 3-1 3-3v-2h2l2-7v-4h3v-2l8-3 2-3h12l3-1v4l4 2 3 3 2 1h10l7-9 11-1v-10l-2-4h-3v-18l1-5 4-4v-2l3-1v-3l3 1 9-3v-2l9-2v-4h21l6-5 3-1v-4l4 1 6-2 1-2 11-2 1-2-6-3-1-2-15-2v-2l-3-2h-4l-2-4-2-1h-9l-2 1-1-4-9-2v-3l-5-1h-12l-2-4-2-1-3 1v-3h-3l-1-4-1-2h-3v-23l3 1 1-4v-7l-5-3h-4l-1-3h-3l-1-9-2-2-7 2-1 4-4-1-7 2v3h-17v-3h-7l-1-9-1-2h-5l-1-5-3-5-3-9h-2l-2-6-2-1-3-11-3-1-1-6-2-1-2 1v-8l-2-5-3-3-2-3h-2v-11l2-13 2-1v-2h6l4-5 3-1 2-6-1-20-1-5-4-4-6-2h-12v-3h-4v-7h-2v-5l-3-3v-129l1-4h-2v-2h4v-5zm37 1v3l2 1 2 9v106l2 4 7 1 4 1 6 1 2 4 2 9 1 12h4v11l1 6h3v12l2 8 3 1v11l1 3h-4v7h-2v3l-8 1-2 4h-2v2h-5l-2 4 2 4h3l1 5 4 5 2 4h6l2 13 1 1h6l2-4 6-2v-2h19v3l4 1 1 4h2l2 6h2l1 4h3v4l5 3 3 3h5v3l5 1 1 4 9 3 4 4h2l1 7v17l-2 4 1 4 11 1 5 3 6 1v3l4 2h10l-1-7h2l1-7 6-2v-3l2 1 7-1h65l5 2 3 3h4l1 8 3 1 1 5 4 1 11-2 3-1v-3l8-1v-2l9-2 1-2-1-2h-2v-24l3 1 1-5 5-2 1-3 6-1 6-5 2-1v-3l8-1 1-5 4-1v-3l5-1v-4l5-1 5-5v-3l6-1 2-1v-2l5 3 8 1v4l4 1h8l1-1 2-9 1-2-1-2 7-2v-3l4-1 6-10-2-4-4-2-5-3h-3l-1-4-5-1 1-3v-28l4-13 1-4v-11h3l2-15-1-2 4-2 9-4v-2l5-2v-2h3v-2l2 1h6l3-2v-2l-4-1 1-3v-109l-1-3h4l-1-4zm450 0 2 9 1-2h2v3l-2 1 1 125-1 4h2v2l-4-1-1 9-2 5h-2v2h-6l-2 1v3l-7 1-3 1-1 3-6 2v15h-3l-1 7 2 1 2-1v4h2v2h2l1 3 5 1 1 3h3l1 10v17l-1 7v8h-2l-1 2-5 1 1 4-5 1-2 4-3 2v3h-2l1 5-3-1-1 1v5h-2v2l-3 1-4 9-2 4 1 2-5 2-2 9-2 1v2l-3-1-9 2h-9l-7-2-3-3h-13l1 4-5 2-1 2-8 3v3l-5 1v8l4 2 1 15-1 4v2l-4 1-1 6h-3l-1 4-7-1-10 3-3 2-3 1-1 5-10-1-4 1-1 4-5 1-5 3-14 1-3 1v2h-2v2l-5 1v1l11 2h6l1 3 9 2 3-1v4l4 2 1 3 2 1 16 1 1 3 8 2 1 3 13 1 1 4h3l2 5 4 1v32l-5 1 1 4 9 1 2-1-1 4 6 1v4l2 1h16l3-2v-3l3 1h18v3h3l1 5 4 2 2 8h2l1 8 5 3h2l1 3v-3h2l-1 8 1 5 3 1 3 6h2v7h2v5l4-1 1 5h3l1 9v23l-1 7-3-1-1 3h-2l-3 3-2 1v3l-7 1 1 8h2l1 14 3 1-1 3 5 3 3 3 4 1h10l1 5 4 6 1 4h2l1 115-2 13-2 7 27 1 4-1 1-7h-4v-293h2v2h2l-1-5-1 2h-2v-3h2v-2l-2-1-14-1v-3l-5-2-1-3h-4v-2h-2v-2l-3-2h-3l-1-4-4-2v-2l-5-2-2-7-3-1-2-9-2 1-4-12h-2l1-6v-37h2l2-9 3 1 3-10 3-2v-3l4-1 3-5v-2h2v-3h2v-3l5-1 3-2-1-2h11l9-1 1-4 3 1 5-2v-3h-4v-3h2v2h2v-6l-4-1v-293h4l-1-4zm30 7v6l2-2v-4zm-547 291v6h2v-6zm-25 44-5 2v3h-9l-5 3v2l-4 1-3 5-3 7v2l-2 1-2 3v16l3 7 3 5 3 1 1 4 3 1 2 3 9 1v4h4l1 4 1 1h15l3-3v-2l4-1v-3l7-1 7-7v-2l4-1 1-2 1-19-1-15-4-1-1-4-10-10h-8v-3l-6-2zm590 0-7 2v3h-9l-3 1-2 3-3 1v5h-3l-4 7 2 3h-4l-1 4v16l2 7 3 2 1 3h4l-1 4 2 4 4 2 6 1 8 8h13l4-4 5-2v-3h6l3-2v-3l4-2v-2l5-3 2-3 1-22-2-10-3-1-2-4h-3l-1-5-4-4-12-2v-2zm-305 14-6 2 2 10-4-1v4h-2v2l-3-1v3l-4 2-3 3-4 1v2l13 3 5 8 2 10 2 4 3 1h28l2-1 2-4v-5h4l2-6v-4l2-1-1-2 3 1v-2l6-1-3-2-6-3-3-4h-2l-2-5-2-1-2 1 1-7-3-6zm-41 73-1 3-12 1-5 5-3 1v2l-9 1-2 3h2l-1 32-3-1-1 4h-11l-4 2-2 3-3 2v2l-6 2-2 3-5 2-2 4-4 6v3l-3 1v4h-17l-3-1-2 1 1-4-2-1h-12l-2 1v4h-2v8l-4 1-2 3-3 3-1 4-6 5v3l7 1 1 2 2 2h3l1 4h2l1 3h3l1 4v18l1 2h-4l-2 7v18l-3 1-1 5v7l-4-1-1 12-1 5-4 1-5 2v2l-7 1-2 4-4 1v101l-1 13-2 1v2h413l-1-7-1-107h2v-2l-2-1-14-1-6-4h-4v-3h-2v-3h-3v-14l-2-5h-2l-2-17h-2l-1-17v-18l1-3 2-1 2-4 4-2v-4l6-1v-2l3 1 2-5-2-2-4-1-1-3h-4l1-4-2-5-4-2-1-3h-2l-1-10h-6l-4 4-3 2v3l-15-1v-2l-5-2-2-3h-2l-2-7-4 1-1-4-4-1v-3l-5-2-1-4h-5v-4l-7-2-1-3-12-2v-2h-3l1-6-2-4-3 1v-13h4l2-7 2-2v-3l-11-2-3-3-2-1-2-4-14-1-4-1-5 3-2 11-2 1v2h-2v4l-4-1-13 1-64-1-1-3h-2l-3-9-2-2-3-7zm262 324 1 2zm-512 51 1 14 1 3 5 1h595l3-1 1-3 2-1v-2h-4v-7h3l1 4v-7l-1-1z" fill="#BA9AB1"/>
<path transform="translate(466,606)" d="m0 0h65l1 4 13 2 1 2 10 2h3l-1 4 6 2v2l13 2 1 3 3 1 4 4 2 10h9l5 2v3l4 1 1 3 3 2v3h2l3 5 1 4h5l1 4h2l2 14 5 1v3h3l2 11v5l4 1 2 8h2l1 16-1 30-5 6-4 1v2l-14 1-7-1-1-4-9-2 1-4-3-1-1-5-1-25h-3l-2-10v-4l-3-1-1-12-3-1v-2h-2v-4l-4-1-3-5-2-4v-2h-2l-4-8h-2l1-4-8-2-1-2-6-2-2-1v-2l-17-2-3-1v-2l-10-2v-2l-3-1h-40l-3 1v2l-7 2-6 3-18 2v3l-5 2-4 4h-2v3l-4 3v2l-6 2-1 2h-2l-2 7-3 3-4 8-2 7h-3l-1 9-2 4h-2v8l-5 2v21l-1 11-8 5h-2v2l-12 1-9-1-1-3-8-4v-2h-2l-1-4v-28l3-5 1-6h4l2-27h2l2-5 1 2 3-3 1-6 3-1 1-5h2v-2l3-3 1-5h2l3-4h2l2-5 1-3 7-2 1-3 11-2-1-3 5-2 4-4h3l1-4 3-1 1-3 6-2 2-4h3v-4l11-1 4-1 1-2 12-3z" fill="#BA9AB1"/>
<path transform="translate(369,235)" d="m0 0h12l12 2 3 7 1 10v24l4-1 2 11 3 5v5l5 2 4 7 1 5h3v4h2l5 6h2v3l4 2 3 5 5 4 1 3 4 3v2h6l3 2 1 3 12 1 3 3 8 3v2h43v-2h-2v-2l4 1 6-3 2-2 11-1 1-3 5-2h4l1-3 8-1 1-4 3-1 2-5h3l1-9h2v-2l4-4 2-3 2-4 4-2 1-4h2v-2h2l1-7h3l2-13 3-1 1-32 2-6h2l-1-4 13-2h14l10 2 1 4h2l1 7v32l-2 10-2 6-1 7-4-1-1 6-1 3-5 5-3 1-1 11-1 3-4 1v3l-3 1-3 5-2 2-1 3-3 1-2 4-8 7-1 2-4 2-1 3-4 1-1 4h-2v4l-7 1v3l-9 2v4l-19 1v3l-10 2-1 4h-79l-1-3-9-3v-3l-15-1v-4l-5-1-5-4-7-1-5-6-2-1v-2l-4-1-4-4-3-5-3-1-1-2-3-1-2-7-4 1-2-5-2-1-2-7h-2l-3-7v-2l-3-1-1-6-3 1-4-7h-1l-2-17h-3l-1-10-4-1v-38l1-4h2l1-3z" fill="#BA9AB1"/>
<path transform="translate(340,582)" d="m0 0h2v2h-2z" fill="#BA9AB1"/>
<path transform="translate(743,563)" d="m0 0h2v2h-2z" fill="#BA9AB1"/>
<path transform="translate(769,526)" d="m0 0" fill="#BA9AB1"/>
</svg>
