<?xml version="1.0" standalone="no"?>
<!DOCTYPE svg PUBLIC "-//W3C//DTD SVG 20010904//EN"
 "http://www.w3.org/TR/2001/REC-SVG-20010904/DTD/svg10.dtd">
<svg version="1.0" xmlns="http://www.w3.org/2000/svg"
 width="400.000000pt" height="152.000000pt" viewBox="0 0 400.000000 152.000000"
 preserveAspectRatio="xMidYMid meet">

<g transform="translate(0.000000,152.000000) scale(0.100000,-0.100000)"
fill="#000000" stroke="none">
<path d="M3042 1498 c4 -10 110 -14 476 -16 415 -2 472 0 472 13 0 13 -58 15
-476 15 -376 0 -475 -3 -472 -12z"/>
<path d="M3056 1384 c-20 -19 -20 -38 -2 -53 9 -8 142 -10 472 -9 l459 3 3 29
c2 16 -2 32 -10 37 -7 5 -214 9 -460 9 -393 0 -448 -2 -462 -16z"/>
<path d="M3056 1208 c-14 -20 -16 -80 -16 -453 0 -420 1 -432 20 -453 21 -22
21 -22 459 -22 412 0 439 1 454 18 15 17 17 64 17 465 0 431 -1 447 -19 457
-13 6 -176 10 -460 10 l-440 0 -15 -22z m534 -188 l0 -61 -72 3 -73 3 -3 44
c-5 68 -2 71 78 71 l70 0 0 -60z m0 -344 l0 -214 -71 -4 c-39 -2 -73 -1 -75 1
-7 7 -4 417 3 424 3 4 37 7 75 7 l68 0 0 -214z"/>
<path d="M32 944 l-22 -15 0 -442 c0 -243 4 -447 8 -453 21 -32 53 -34 470
-34 409 0 420 1 446 21 l26 20 0 440 c0 426 -1 440 -20 459 -19 19 -33 20
-453 20 -375 0 -435 -2 -455 -16z m583 -156 c2 -2 1 -23 -2 -48 -5 -45 -5 -45
-44 -45 -49 0 -62 -14 -63 -67 l-1 -43 43 -3 42 -3 0 -45 0 -44 -45 0 -45 0 0
-145 0 -146 -62 3 -63 3 -3 143 -3 142 -29 0 c-29 0 -30 2 -30 45 0 43 1 45
30 45 27 0 30 3 30 33 0 121 78 194 194 182 27 -2 50 -6 51 -7z"/>
<path d="M1040 940 c-19 -19 -20 -33 -20 -458 0 -413 1 -440 18 -455 17 -15
63 -17 460 -17 387 0 442 2 456 16 14 14 16 69 16 455 0 426 -1 440 -20 459
-19 19 -33 20 -455 20 -422 0 -436 -1 -455 -20z m517 -265 c43 -13 86 -46 114
-88 1 -1 5 -78 9 -172 3 -93 10 -178 14 -187 7 -16 1 -18 -58 -18 -63 0 -67 2
-77 26 l-10 27 -22 -20 c-35 -32 -62 -43 -109 -43 -117 0 -187 119 -125 211
31 46 80 67 176 75 81 7 81 7 81 35 0 70 -100 95 -129 33 -10 -23 -16 -25 -69
-22 -56 3 -57 3 -55 32 3 43 60 96 119 112 65 17 81 17 141 -1z"/>
<path d="M1421 384 c-24 -30 -25 -38 -11 -65 15 -27 79 -26 114 2 19 15 26 30
26 55 l0 34 -54 0 c-47 0 -57 -4 -75 -26z"/>
<path d="M2050 940 c-19 -19 -20 -33 -20 -459 l0 -440 27 -21 c26 -20 32 -21
461 -18 416 3 434 4 448 22 12 16 14 96 14 462 l0 443 -22 15 c-20 14 -80 16
-455 16 -420 0 -434 -1 -453 -20z m648 -296 c3 -26 -14 -55 -108 -180 l-111
-149 111 -3 110 -3 0 -49 0 -50 -195 0 -195 0 0 36 c0 29 18 59 110 180 61 80
110 147 110 150 0 2 -47 4 -105 4 l-105 0 0 50 0 50 188 -2 187 -3 3 -31z"/>
</g>
</svg>
