<?xml version="1.0" encoding="UTF-8"?>
<svg version="1.1" xmlns="http://www.w3.org/2000/svg" width="1000" height="500">
<path d="M0 0 C28.85880104 -0.11672393 57.71756678 -0.20493465 86.57655621 -0.25906086 C89.2423625 -0.26419342 91.90816864 -0.2693668 94.57397461 -0.2746582 C95.23657954 -0.27596976 95.89918446 -0.27728131 96.58186833 -0.2786326 C106.64603262 -0.29904118 116.71007896 -0.33415269 126.77416992 -0.37719727 C138.45086142 -0.42698289 150.1274468 -0.45927935 161.80424148 -0.47044247 C167.98891285 -0.47696936 174.17328063 -0.49234316 180.35785484 -0.52865028 C186.17646361 -0.56253293 191.99464309 -0.57306843 197.81334114 -0.56553841 C199.9511282 -0.5669164 202.08892929 -0.57689454 204.22663116 -0.59602737 C207.14186776 -0.62084416 210.05547594 -0.61494641 212.9707489 -0.60127258 C213.81997522 -0.61583679 214.66920153 -0.630401 215.54416198 -0.64540654 C219.90377149 -0.58999651 221.466709 -0.44932335 224.92370319 2.46336079 C225.60888114 3.30045173 226.29405909 4.13754267 227 5 C228.31836295 5.69580267 229.64791086 6.37224433 231 7 C232.64175817 10.28351635 232.14414603 13.92533147 232.14044189 17.53440857 C232.14341302 18.42829869 232.14638414 19.32218881 232.1494453 20.24316651 C232.15815857 23.25643999 232.15964275 26.26967388 232.16113281 29.28295898 C232.16575906 31.43599534 232.17078346 33.58903087 232.17617798 35.74206543 C232.18932105 41.60353143 232.19575044 47.46498597 232.20018864 53.32646441 C232.20311578 56.98457733 232.20721986 60.64268709 232.21169281 64.30079842 C232.22537165 75.73503653 232.23503689 87.16926745 232.2388947 98.60351318 C232.24337908 111.82381676 232.26094301 125.04401713 232.2898953 138.26428932 C232.31147333 148.46981439 232.32159687 158.67531035 232.32293582 168.880858 C232.32398647 174.98262338 232.32994951 181.08429179 232.34775543 187.18603325 C232.36416956 192.9225232 232.36642416 198.65884261 232.35761642 204.3953476 C232.35684251 206.50493131 232.361235 208.61452395 232.37107468 210.72408485 C232.38368754 213.59579889 232.37797585 216.46689905 232.36749268 219.33860779 C232.37957728 220.60163016 232.37957728 220.60163016 232.39190602 221.89016813 C232.34311151 227.57388901 232.34311151 227.57388901 230.60175395 229.73648506 C229 231 229 231 227 231 C227 231.66 227 232.32 227 233 C226.34 233 225.68 233 225 233 C224.68713311 233.96704707 224.68713311 233.96704707 224.36794567 234.95363045 C223 237 223 237 220.43848896 237.60482597 C219.34103446 237.65006464 218.24357996 237.69530331 217.11286926 237.74191284 C215.84289911 237.79718014 214.57292896 237.85244743 213.26447487 237.9093895 C211.84308053 237.94386866 210.42157333 237.97392402 209 238 C208.27552162 238.01400172 207.55104324 238.02800344 206.80461097 238.04242945 C200.93434532 238.13874436 195.06498033 238.13629089 189.1940918 238.12939453 C187.23621081 238.13075236 185.27833008 238.13253444 183.32044983 238.13470459 C178.04397691 238.13923196 172.76752371 238.13750922 167.49105048 238.1343255 C161.95129328 238.1317793 156.41153767 238.13414555 150.8717804 238.13571167 C141.57752176 238.13752603 132.2832711 238.13514554 122.98901367 238.13037109 C112.25753476 238.12492187 101.52607483 238.12669888 90.79459637 238.1321975 C81.5577302 238.13673999 72.32086972 238.13737385 63.08400279 238.13475883 C57.57694583 238.13320335 52.06989779 238.13298246 46.56284142 238.13629532 C41.38926876 238.13919082 36.21572053 238.13716751 31.0421505 238.13140106 C29.14793946 238.13008281 27.25372635 238.13045165 25.35951614 238.13266373 C22.7666021 238.1354119 20.17376549 238.13194964 17.58085632 238.12698364 C16.83843191 238.12921436 16.0960075 238.13144509 15.33108538 238.13374341 C1.38283703 238.08222029 1.38283703 238.08222029 -2.875 234.75 C-8.18487822 227.87839289 -9.14961434 223.07690631 -9.14044189 214.50428772 C-9.14341302 213.63868475 -9.14638414 212.77308178 -9.1494453 211.88124841 C-9.15812933 208.9755914 -9.15964028 206.06997561 -9.16113281 203.16430664 C-9.1657611 201.08318494 -9.17078577 199.00206408 -9.17617798 196.92094421 C-9.18930067 191.2640013 -9.19574638 185.60707025 -9.20018864 179.95011449 C-9.20311882 176.41760743 -9.20722347 172.88510362 -9.21169281 169.35259819 C-9.22536574 158.30493245 -9.2350341 147.25727413 -9.2388947 136.20960051 C-9.24337884 123.44721952 -9.26094411 110.68494546 -9.2898953 97.92259699 C-9.31148806 88.06264496 -9.32159765 78.20272306 -9.32293582 68.34274763 C-9.32398533 62.45109825 -9.32992441 56.55954941 -9.34775543 50.66792488 C-9.36419509 45.12838658 -9.3664116 39.58902485 -9.35761642 34.0494709 C-9.35684392 32.01490304 -9.36121675 29.98032584 -9.37107468 27.94578171 C-9.38373143 25.1712077 -9.37795164 22.39726505 -9.36749268 19.62269592 C-9.37554908 18.81510757 -9.38360548 18.00751922 -9.39190602 17.17545849 C-9.35144105 12.59483597 -8.84537375 9.63722311 -6 6 C-4.3603279 4.63360658 -2.69672386 3.29486821 -1 2 C-0.67 1.34 -0.34 0.68 0 0 Z M97 44 C97 51.26 97 58.52 97 66 C100.9510554 66.02294161 104.90194133 66.04285915 108.85302734 66.05493164 C110.85906551 66.06244036 112.86508202 66.0751447 114.87109375 66.08789062 C116.12792969 66.09111328 117.38476562 66.09433594 118.6796875 66.09765625 C119.84226074 66.10289307 121.00483398 66.10812988 122.20263672 66.11352539 C124.95502192 66.19356283 124.95502192 66.19356283 127 65 C127.02888146 61.68751813 127.04675799 58.37506833 127.0625 55.0625 C127.07087891 54.11697266 127.07925781 53.17144531 127.08789062 52.19726562 C127.09111328 51.29814453 127.09433594 50.39902344 127.09765625 49.47265625 C127.10289307 48.64000244 127.10812988 47.80734863 127.11352539 46.94946289 C127.21643292 44.99483202 127.21643292 44.99483202 126 44 C123.85441173 43.91224395 121.70595579 43.89304781 119.55859375 43.90234375 C118.25341797 43.90556641 116.94824219 43.90878906 115.60351562 43.91210938 C114.2148431 43.92046599 112.82617123 43.92893095 111.4375 43.9375 C110.04492344 43.94251334 108.65234519 43.94707653 107.25976562 43.95117188 C103.83982549 43.96300558 100.4199075 43.98094169 97 44 Z M97 89 C97 122 97 155 97 189 C106.57 189 116.14 189 126 189 C127.91926241 187.08073759 127.12679331 184.2216698 127.13552856 181.66748047 C127.13350433 180.75627441 127.1314801 179.84506836 127.12939453 178.90625 C127.13114685 177.95186035 127.13289917 176.9974707 127.13470459 176.01416016 C127.13912487 172.84275523 127.1361845 169.67140555 127.1328125 166.5 C127.13348549 164.30664052 127.13445547 162.1132811 127.13571167 159.91992188 C127.13718888 155.31639905 127.13503334 150.71289558 127.13037109 146.109375 C127.1246738 140.19395405 127.12795268 134.27857846 127.13394356 128.36315918 C127.13754854 123.83202774 127.13641087 119.30090715 127.13381577 114.76977539 C127.13314632 112.58797195 127.13397552 110.40616754 127.13629532 108.22436523 C127.13882082 105.1808001 127.1349827 102.13730954 127.12939453 99.09375 C127.13141876 98.18254395 127.13344299 97.27133789 127.13552856 96.33251953 C127.52302786 92.3487963 127.52302786 92.3487963 126 89 C116.43 89 106.86 89 97 89 Z " fill="#000000" transform="translate(762,102)"/>
<path d="M0 0 C71.61 0 143.22 0 217 0 C217.33 0.66 217.66 1.32 218 2 C218.99 2.33 219.98 2.66 221 3 C221 3.66 221 4.32 221 5 C222.32 5 223.64 5 225 5 C225.474375 6.134375 225.94875 7.26875 226.4375 8.4375 C227.63622083 11.75740166 227.63622083 11.75740166 229 13 C229.09788593 15.76900172 229.12993123 18.51305665 229.12025452 21.28248596 C229.12153615 22.60071324 229.12153615 22.60071324 229.12284368 23.94557136 C229.12450119 26.91368564 229.11897271 29.88174438 229.11352539 32.84985352 C229.11324355 34.96820067 229.11340119 37.08654792 229.1139679 39.20489502 C229.114256 44.97532141 229.10835725 50.74572722 229.10139394 56.51614881 C229.09516248 62.53932419 229.09455677 68.56249999 229.09336853 74.5856781 C229.0902546 86.00021564 229.08204038 97.41474365 229.07201904 108.82927698 C229.06085982 121.8205874 229.05534794 134.81189827 229.05032361 147.80321229 C229.03985782 174.53548015 229.02225718 201.26773954 229 228 C228.34 228 227.68 228 227 228 C226.7525 229.11375 226.505 230.2275 226.25 231.375 C225 235 225 235 223.0625 236.4375 C221 237 221 237 218 237 C218 237.66 218 238.32 218 239 C214.74765386 240.62617307 211.17050804 240.13278365 207.59725952 240.12025452 C206.71758691 240.12110894 205.83791431 240.12196337 204.93158495 240.12284368 C201.96657667 240.12449853 199.00162422 240.11897702 196.03662109 240.11352539 C193.91812644 240.11324349 191.79963168 240.1134013 189.68113708 240.1139679 C183.91490199 240.11425577 178.14868754 240.1083606 172.38245726 240.10139394 C166.36195701 240.0951588 160.34145634 240.09455647 154.32095337 240.09336853 C142.91353232 240.09025569 131.50612082 240.08204293 120.09870398 240.07201904 C107.11462537 240.06085644 94.13054632 240.05534708 81.14646411 240.05032361 C54.43097078 240.03986029 27.71548592 240.02226175 1 240 C0.67 239.01 0.34 238.02 0 237 C-0.928125 236.938125 -1.85625 236.87625 -2.8125 236.8125 C-6 236 -6 236 -7.75 233.5 C-8.1625 232.675 -8.575 231.85 -9 231 C-9.66 230.67 -10.32 230.34 -11 230 C-11.11672504 201.40196705 -11.2049352 172.80396971 -11.25906086 144.20574665 C-11.28485868 130.92752947 -11.32003961 117.64946017 -11.37719727 104.37133789 C-11.42698361 92.80012181 -11.45927952 81.22901282 -11.47044247 69.65769261 C-11.47696924 63.52891137 -11.49234225 57.4004365 -11.52865028 51.27175331 C-11.56253408 45.50567316 -11.5730682 39.74002622 -11.56553841 33.97385597 C-11.56691635 31.85541939 -11.57689382 29.73696864 -11.59602737 27.61861801 C-11.62084602 24.72965103 -11.6149458 21.84232708 -11.60127258 18.95332336 C-11.61583679 18.11187895 -11.630401 17.27043453 -11.64540654 16.4034918 C-11.58972902 12.06180051 -11.37419184 10.47454224 -8.58742046 6.94041729 C-6 5 -6 5 -4 5 C-4 4.34 -4 3.68 -4 3 C-2.68 3 -1.36 3 0 3 C0 2.01 0 1.02 0 0 Z M112 51 C112 51.66 112 52.32 112 53 C109.69 53.33 107.38 53.66 105 54 C105 54.66 105 55.32 105 56 C104.443125 56.04125 103.88625 56.0825 103.3125 56.125 C99.705605 57.48977108 98.26961504 59.91080176 96 63 C96 63.66 96 64.32 96 65 C95.34 65 94.68 65 94 65 C90.54922765 73.13396339 89.63673016 80.15318164 89.375 88.9375 C89.33632812 90.00291016 89.29765625 91.06832031 89.2578125 92.16601562 C89.16413854 94.77717734 89.07841665 97.38834304 89 100 C85.31377896 100.78779987 82.02403752 101.08160081 78.25 101 C76.50040022 100.96257541 74.74936974 100.95303705 73 101 C71.55611429 102.21428988 71.55611429 102.21428988 71.90234375 105.81640625 C71.90901911 107.39846682 71.92098125 108.98051159 71.9375 110.5625 C71.94201172 111.36880859 71.94652344 112.17511719 71.95117188 113.00585938 C71.96299482 115.00393756 71.98093086 117.00197783 72 119 C75.12252607 120.04084202 77.23465308 120.07022251 80.5 120 C83.76534692 119.92977749 85.87747393 119.95915798 89 121 C89.33 142.45 89.66 163.9 90 186 C98.25 186 106.5 186 115 186 C116.08550704 182.74347887 116.0852421 180.48249114 116.02172852 177.05981445 C116.00163223 175.83877518 115.98153595 174.6177359 115.96083069 173.35969543 C115.93379562 172.04087875 115.90676056 170.72206207 115.87890625 169.36328125 C115.85459925 167.99994196 115.83075598 166.63659433 115.80735779 165.27323914 C115.7445745 161.68763721 115.67549169 158.10218324 115.60510254 154.51672363 C115.53436702 150.85692066 115.4695813 147.19701292 115.40429688 143.53710938 C115.27535876 136.35795703 115.13976633 129.17895057 115 122 C115.66 122 116.32 122 117 122 C117 121.34 117 120.68 117 120 C117.84763916 120.00785522 117.84763916 120.00785522 118.71240234 120.01586914 C121.2665903 120.03662422 123.82076053 120.0496554 126.375 120.0625 C127.26445312 120.07087891 128.15390625 120.07925781 129.0703125 120.08789062 C130.34648437 120.09272461 130.34648437 120.09272461 131.6484375 120.09765625 C132.82672119 120.10551147 132.82672119 120.10551147 134.02880859 120.11352539 C136.07772668 120.12573953 136.07772668 120.12573953 138 119 C138 113.39 138 107.78 138 102 C135.23434618 101.07811539 133.61716298 100.88214778 130.76953125 100.90234375 C129.96708984 100.90556641 129.16464844 100.90878906 128.33789062 100.91210938 C127.08782227 100.92467773 127.08782227 100.92467773 125.8125 100.9375 C124.96751953 100.94201172 124.12253906 100.94652344 123.25195312 100.95117188 C121.16793845 100.96294597 119.08396023 100.9808811 117 101 C117 100.34 117 99.68 117 99 C116.34 99 115.68 99 115 99 C115 93.72 115 88.44 115 83 C115.66 83 116.32 83 117 83 C117.33 80.36 117.66 77.72 118 75 C119.32 74.67 120.64 74.34 122 74 C122 73.34 122 72.68 122 72 C123.32 71.67 124.64 71.34 126 71 C126 70.34 126 69.68 126 69 C131.28 69 136.56 69 142 69 C142.144375 67.205625 142.28875 65.41125 142.4375 63.5625 C142.875 58.125 142.875 58.125 144 57 C144.04080783 55.00041636 144.04254356 52.99954746 144 51 C141.32395355 49.66197677 139.25106812 49.87039276 136.2578125 49.8671875 C135.10925781 49.86589844 133.96070313 49.86460937 132.77734375 49.86328125 C130.96943359 49.86908203 130.96943359 49.86908203 129.125 49.875 C127.32869141 49.86919922 127.32869141 49.86919922 125.49609375 49.86328125 C124.34496094 49.86457031 123.19382813 49.86585938 122.0078125 49.8671875 C120.95223145 49.86831543 119.89665039 49.86944336 118.80908203 49.87060547 C116.36524049 49.98317596 114.33067501 50.29456275 112 51 Z " fill="#000000" transform="translate(18,168)"/>
<path d="M0 0 C71.28 0 142.56 0 216 0 C216.33 0.66 216.66 1.32 217 2 C217.99 2.33 218.98 2.66 220 3 C220 3.66 220 4.32 220 5 C220.598125 5.0825 221.19625 5.165 221.8125 5.25 C224.66931115 6.22947811 225.46221001 7.43701668 227 10 C228.25489098 14.15230112 228.14814171 18.26372887 228.14717102 22.56491089 C228.15084771 23.4379754 228.1545244 24.31103991 228.1583125 25.21056092 C228.1693421 28.14151921 228.17319191 31.07244204 228.17700195 34.00341797 C228.183267 36.10262159 228.18991384 38.2018241 228.19691467 40.30102539 C228.2143169 46.00761711 228.2248737 51.71420046 228.2331202 57.42081213 C228.2382706 60.98481867 228.24434622 64.5488226 228.25063133 68.1128273 C228.26967878 79.26033911 228.2839125 90.4078443 228.2922433 101.55536926 C228.30202378 114.43040209 228.32836643 127.30526338 228.36874419 140.18023574 C228.39887511 150.12852466 228.41370919 160.0767643 228.41702431 170.02509797 C228.41937766 175.9687938 228.42837562 181.91230626 228.45348549 187.85595322 C228.4767191 193.445598 228.48101834 199.03493803 228.47072411 204.62461853 C228.47022754 206.67650998 228.47658343 208.7284162 228.49028015 210.78026199 C228.50793022 213.58091588 228.50092688 216.38046782 228.48774719 219.18112183 C228.49871644 219.99357923 228.50968568 220.80603664 228.52098733 221.64311397 C228.46136953 226.88814362 227.42469068 229.8107718 224 234 C221.37390449 236.37989906 219.38875086 237.18202565 216 238 C215.67 238.66 215.34 239.32 215 240 C144.05 240 73.1 240 0 240 C-0.33 239.01 -0.66 238.02 -1 237 C-1.886875 236.979375 -2.77375 236.95875 -3.6875 236.9375 C-7.75191438 235.78719404 -8.68227737 234.48325416 -10.96311414 231.0877732 C-12.78932319 227.41069507 -12.67198742 223.88249026 -12.60127258 219.84413147 C-12.60554471 218.94385253 -12.60981683 218.04357359 -12.61421841 217.11601347 C-12.62242943 214.11076558 -12.59499445 211.10692511 -12.56762695 208.10180664 C-12.56621608 205.94316643 -12.56700923 203.78452382 -12.56983948 201.62588501 C-12.57127347 195.77296976 -12.54188568 189.92056732 -12.50696969 184.0677712 C-12.47570384 177.94856319 -12.47277525 171.82934331 -12.46684265 165.71006775 C-12.45130496 154.12562464 -12.41027721 142.54141758 -12.3600952 130.9570784 C-12.30419968 117.76735755 -12.27671466 104.5776254 -12.25161803 91.38781559 C-12.19936152 64.25841288 -12.1114204 37.12921967 -12 10 C-11.0409375 9.5978125 -11.0409375 9.5978125 -10.0625 9.1875 C-7.66868314 8.11332248 -7.66868314 8.11332248 -7 5 C-6.34 5 -5.68 5 -5 5 C-5 4.34 -5 3.68 -5 3 C-3.68 3 -2.36 3 -1 3 C-0.67 2.01 -0.34 1.02 0 0 Z M63 78 C63 83.94 63 89.88 63 96 C67.17914071 97.04478518 70.97237606 97.14407491 75.23828125 97.1328125 C76.03727341 97.13376923 76.83626556 97.13472595 77.6594696 97.13571167 C79.34809447 97.13639118 81.03672197 97.13455284 82.7253418 97.13037109 C85.29286672 97.12504076 87.86021503 97.13031289 90.42773438 97.13671875 C92.07291705 97.13605752 93.71809961 97.13477542 95.36328125 97.1328125 C96.50426018 97.13584885 96.50426018 97.13584885 97.66828918 97.13894653 C102.21181082 97.11925541 106.51648421 96.74472584 111 96 C111 96.66 111 97.32 111 98 C111.99 98 112.98 98 114 98 C112.87841671 104.0157649 111.79389507 106.90765055 107 111 C105.22722741 112.52007842 105.22722741 112.52007842 104 114 C104 114.99 104 115.98 104 117 C103.34 117 102.68 117 102 117 C102 117.66 102 118.32 102 119 C101.01 119.33 100.02 119.66 99 120 C96.96039529 122.9025144 95.64658926 125.50841798 95 129 C94.34 129 93.68 129 93 129 C90.03764305 132.63323689 90.03764305 132.63323689 89 137 C87.515 137.495 87.515 137.495 86 138 C85.67 138.825 85.34 139.65 85 140.5 C84.67 141.325 84.34 142.15 84 143 C82.515 143.495 82.515 143.495 81 144 C80.67 145.65 80.34 147.3 80 149 C78.515 149.495 78.515 149.495 77 150 C75.96210419 151.64333504 74.96432076 153.31243867 74 155 C73.443125 155.53625 72.88625 156.0725 72.3125 156.625 C70.65476213 158.04486722 70.65476213 158.04486722 71 161 C69.515 161.495 69.515 161.495 68 162 C68 162.66 68 163.32 68 164 C67.34 164 66.68 164 66 164 C64.95107762 165.63631892 63.95093297 167.30485863 63 169 C62.505 169.495 62.505 169.495 62 170 C62 175.28 62 180.56 62 186 C91.7 186 121.4 186 152 186 C152.98660695 182.0535722 153.13339509 178.86313227 153.125 174.8125 C153.12757813 173.56082031 153.13015625 172.30914062 153.1328125 171.01953125 C153.345842 168.12072464 153.345842 168.12072464 152 167 C150.37420782 166.87718048 148.74322996 166.82217496 147.11303711 166.79467773 C146.07203354 166.77473251 145.03102997 166.75478729 143.95848083 166.73423767 C142.8262056 166.71752518 141.69393036 166.70081268 140.52734375 166.68359375 C138.79817467 166.6524221 138.79817467 166.6524221 137.03407288 166.62062073 C133.33527843 166.55500036 129.63641041 166.49618245 125.9375 166.4375 C123.43684121 166.39432665 120.93618999 166.35071276 118.43554688 166.30664062 C112.29044338 166.19930632 106.14526596 166.09756357 100 166 C99.505 162.04 99.505 162.04 99 158 C99.66 158 100.32 158 101 158 C101 157.34 101 156.68 101 156 C101.99 155.67 102.98 155.34 104 155 C104.33 153.35 104.66 151.7 105 150 C105.99 150 106.98 150 108 150 C109.7893427 147.67688993 109.7893427 147.67688993 111.4375 144.75 C113.2062792 141.75850766 114.73237911 139.26150653 117.22265625 136.828125 C119.3485392 135.06645325 119.3485392 135.06645325 119 132 C119.99 131.67 120.98 131.34 122 131 C123.78186573 128.92933918 125.43321572 126.87173701 127.0625 124.6875 C127.50916016 124.10548828 127.95582031 123.52347656 128.41601562 122.92382812 C130.59139533 120.05258705 132.45991797 117.25211497 134 114 C135.31054623 112.64426252 136.64748503 111.31387169 138 110 C141.84817097 106.12861714 141.84817097 106.12861714 143 101 C143.66 101 144.32 101 145 101 C147.2773501 98.18490007 147.2773501 98.18490007 147 95 C147.99 94.67 148.98 94.34 150 94 C151.21869929 91.49552484 151.21869929 91.49552484 152 89 C151.34 89 150.68 89 150 89 C150.875 82.25 150.875 82.25 152 80 C151.505 79.01 151.505 79.01 151 78 C121.96 78 92.92 78 63 78 Z " fill="#000000" transform="translate(517,168)"/>
<path d="M0 0 C28.20691423 -0.07003613 56.41381545 -0.12296172 84.62079906 -0.15543652 C97.71736238 -0.17091493 110.81387172 -0.19202311 123.91040039 -0.22631836 C135.3234027 -0.25619083 146.73636593 -0.27556791 158.14940625 -0.28226548 C164.19426486 -0.28618137 170.23901164 -0.2954046 176.28383446 -0.31719017 C181.97104751 -0.33752125 187.65810242 -0.34384061 193.34534836 -0.33932304 C195.43474371 -0.34014976 197.52414425 -0.34613541 199.61350822 -0.35761642 C202.46272366 -0.37250752 205.31133938 -0.36896585 208.16056824 -0.36076355 C208.99033981 -0.36950207 209.82011138 -0.3782406 210.67502755 -0.38724393 C215.20922754 -0.35188013 218.39532879 -0.08164113 222 3 C222 3.99 222 4.98 222 6 C222.99 6.33 223.98 6.66 225 7 C225 7.66 225 8.32 225 9 C225.99 9.33 226.98 9.66 228 10 C228.97381763 14.87700565 229.14102403 19.61704042 229.12698364 24.57090759 C229.12854363 25.42047407 229.13010362 26.27004055 229.13171089 27.14535147 C229.13569138 29.98485821 229.13254266 32.82431124 229.12939453 35.66381836 C229.13074989 37.70258109 229.13253058 39.74134357 229.13470459 41.78010559 C229.13926318 47.3131078 229.13749573 52.84609135 229.1343255 58.37909389 C229.13179345 64.17074429 229.13414184 69.96239311 229.13571167 75.75404358 C229.13753103 85.48113288 229.1351333 95.20821459 229.13037109 104.93530273 C229.12493045 116.17788773 229.12669063 127.42045459 229.1321975 138.66303915 C229.13673707 148.31754363 229.13737499 157.97204266 229.13475883 167.62654787 C229.13320052 173.39187801 229.13299008 179.15719963 229.13629532 184.92252922 C229.13918622 190.34386353 229.13717587 195.76517448 229.13140106 201.18650627 C229.13007995 203.17507895 229.13045657 205.1636536 229.13266373 207.15222549 C229.13540074 209.8688797 229.13196286 212.5854593 229.12698364 215.30210876 C229.12921436 216.0869434 229.13144509 216.87177804 229.13374341 217.68039554 C229.11762918 222.22089244 228.74574348 226.51947596 228 231 C227.34 231 226.68 231 226 231 C226 231.66 226 232.32 226 233 C221.64705882 237 221.64705882 237 218 237 C218 237.66 218 238.32 218 239 C214.75110507 240.62444746 211.1803043 240.13658468 207.61071777 240.12698364 C206.7324563 240.12854363 205.85419482 240.13010362 204.94931936 240.13171089 C201.9889826 240.13571838 199.02869658 240.1325322 196.06835938 240.12939453 C193.95310943 240.13074868 191.83785973 240.13252869 189.72261047 240.13470459 C183.96450794 240.13927727 178.20642325 240.13749003 172.44832039 240.1343255 C166.43409297 240.13180106 160.41986712 240.13413968 154.40563965 240.13571167 C144.30411504 240.13753312 134.20259772 240.13512771 124.10107422 240.13037109 C112.40745188 240.12492852 100.71384697 240.1266912 89.02022505 240.1321975 C78.99645574 240.13672934 68.97269169 240.13737883 58.94892168 240.13475883 C52.95509588 240.13319645 46.96127828 240.13300124 40.967453 240.13629532 C35.33360665 240.13917505 29.69978286 240.13719644 24.06593895 240.13140106 C21.99302902 240.13007402 19.92011721 240.13046665 17.84720802 240.13266373 C15.02787341 240.13537738 12.20861211 240.13199141 9.38928223 240.12698364 C8.55991827 240.12921436 7.7305543 240.13144509 6.8760581 240.13374341 C1.22830005 240.11415003 1.22830005 240.11415003 -1 239 C-1 238.34 -1 237.68 -1 237 C-1.86625 236.8453125 -1.86625 236.8453125 -2.75 236.6875 C-6.59442437 235.51281478 -8.47893699 233.84119414 -10.594491 230.42588425 C-12.31845186 226.22378354 -12.43764593 222.86356722 -12.42564392 218.37335205 C-12.43511301 217.51773516 -12.4445821 216.66211828 -12.45433813 215.78057361 C-12.48230242 212.92037123 -12.48908498 210.06052053 -12.49584961 207.20019531 C-12.5114184 205.1465867 -12.5282344 203.09298721 -12.54620361 201.03939819 C-12.59089412 195.46490299 -12.61661216 189.89047092 -12.63783717 184.31584263 C-12.65720678 179.65893892 -12.6856254 175.0021081 -12.71397978 170.3452518 C-12.78067473 159.35520783 -12.83183434 148.36516599 -12.87329102 137.375 C-12.91628421 126.04708277 -12.98489766 114.71952702 -13.06628221 103.39182591 C-13.13532496 93.65919826 -13.18862654 83.9265709 -13.22933203 74.19378352 C-13.2537735 68.3841044 -13.28407401 62.5746097 -13.32942009 56.7650528 C-13.37138287 51.29853828 -13.39361616 45.83228692 -13.40090942 40.36561966 C-13.40682173 38.3637604 -13.41957566 36.36190736 -13.43982124 34.36014175 C-13.63434038 14.32315798 -13.63434038 14.32315798 -9 7 C-8.34 6.34 -7.68 5.68 -7 5 C-6.01 5 -5.02 5 -4 5 C-4 4.34 -4 3.68 -4 3 C-2.68 2.67 -1.36 2.34 0 2 C0 1.34 0 0.68 0 0 Z M99 76 C96.65276034 76.397493 94.29671452 76.74368723 91.9375 77.0625 C90.64714844 77.23910156 89.35679687 77.41570312 88.02734375 77.59765625 C87.02832031 77.73042969 86.02929688 77.86320312 85 78 C85 78.66 85 79.32 85 80 C83.35 80.33 81.7 80.66 80 81 C80 81.66 80 82.32 80 83 C78.35 83.33 76.7 83.66 75 84 C75 84.66 75 85.32 75 86 C74.38125 86.061875 73.7625 86.12375 73.125 86.1875 C72.42375 86.455625 71.7225 86.72375 71 87 C70.29788106 88.65204456 69.63028587 90.31923769 69 92 C68.01 92.33 67.02 92.66 66 93 C66 94.65 66 96.3 66 98 C65.34 98 64.68 98 64 98 C62.95785309 102.61507774 62.95785309 102.61507774 64 107 C67.95819611 107.08678303 71.91614934 107.14031733 75.875 107.1875 C77.56689453 107.22520508 77.56689453 107.22520508 79.29296875 107.26367188 C80.90751953 107.27817383 80.90751953 107.27817383 82.5546875 107.29296875 C83.54968262 107.3086792 84.54467773 107.32438965 85.56982422 107.34057617 C86.77276123 107.17199097 86.77276123 107.17199097 88 107 C90.1519437 103.77208445 90.20086443 102.71599191 90 99 C91.32 98.67 92.64 98.34 94 98 C94 97.34 94 96.68 94 96 C95.65 95.67 97.3 95.34 99 95 C99 94.34 99 93.68 99 93 C104.28 93 109.56 93 115 93 C115 93.66 115 94.32 115 95 C116.32 95.33 117.64 95.66 119 96 C119 96.66 119 97.32 119 98 C120.31200404 99.35432675 121.64631404 100.68733482 123 102 C123.495 102.99 123.495 102.99 124 104 C124.66 104 125.32 104 126 104 C126 109.94 126 115.88 126 122 C124.515 122.495 124.515 122.495 123 123 C123 123.66 123 124.32 123 125 C121.86981445 124.99476318 120.73962891 124.98952637 119.57519531 124.98413086 C115.37826328 124.96601774 111.18133469 124.95454488 106.984375 124.94506836 C105.16861388 124.94004259 103.3528568 124.93322097 101.53710938 124.92456055 C98.9257711 124.91241811 96.31448638 124.90675409 93.703125 124.90234375 C92.89256653 124.89718246 92.08200806 124.89202118 91.24688721 124.88670349 C87.6579583 124.88634704 84.45259214 125.02954053 81 126 C81 126.66 81 127.32 81 128 C78.36 128.33 75.72 128.66 73 129 C73 129.66 73 130.32 73 131 C72.46375 131.226875 71.9275 131.45375 71.375 131.6875 C68.17539839 133.45570089 65.70962777 135.53670203 63 138 C63 138.66 63 139.32 63 140 C62.34 140 61.68 140 61 140 C60.67 142.97 60.34 145.94 60 149 C59.34 149 58.68 149 58 149 C57.15111805 154.37625234 56.9975695 158.65370398 58 164 C58.66 164 59.32 164 60 164 C59.938125 165.051875 59.87625 166.10375 59.8125 167.1875 C60.0126458 171.25713126 60.64456841 172.77218634 63 176 C63.7734375 177.1446875 63.7734375 177.1446875 64.5625 178.3125 C65.036875 178.869375 65.51125 179.42625 66 180 C66.66 180 67.32 180 68 180 C68 180.66 68 181.32 68 182 C69.32 182.33 70.64 182.66 72 183 C72 183.66 72 184.32 72 185 C73.10408203 185.18175781 73.10408203 185.18175781 74.23046875 185.3671875 C75.20628906 185.53476562 76.18210937 185.70234375 77.1875 185.875 C78.15042969 186.03742188 79.11335938 186.19984375 80.10546875 186.3671875 C83 187 83 187 85.4375 188.09375 C88.76521776 189.27062579 91.31670541 188.97811056 94.8125 188.625 C95.97394531 188.51414062 97.13539063 188.40328125 98.33203125 188.2890625 C99.21246094 188.19367188 100.09289062 188.09828125 101 188 C101 187.34 101 186.68 101 186 C101.61488281 185.96261719 102.22976563 185.92523438 102.86328125 185.88671875 C103.67152344 185.82097656 104.47976563 185.75523437 105.3125 185.6875 C106.11300781 185.62949219 106.91351563 185.57148438 107.73828125 185.51171875 C110.39066259 184.91161175 111.36503879 184.14291033 113 182 C113 181.34 113 180.68 113 180 C113.99 179.67 114.98 179.34 116 179 C116.69937532 177.68352881 117.36729133 176.34977849 118 175 C120.78863007 173.60568496 122.92078868 173.74339906 126 174 C128 177 128 177 130 186 C138.58 186 147.16 186 156 186 C156 184.68 156 183.36 156 182 C155.34 182 154.68 182 154 182 C153.99191315 181.10099472 153.98382629 180.20198944 153.97549438 179.27574158 C153.89742193 170.78658561 153.81009324 162.29758551 153.71247292 153.80863094 C153.66261388 149.44479972 153.61628322 145.08099148 153.578125 140.71704102 C153.54114052 136.50238075 153.49474549 132.28791784 153.44193649 128.0734272 C153.42346228 126.46879108 153.40832881 124.86411277 153.39665604 123.25941277 C153.3796735 121.00468793 153.3506112 118.75040822 153.31884766 116.49584961 C153.30552399 115.21455673 153.29220032 113.93326385 153.2784729 112.61314392 C152.98718225 108.83369163 152.13269299 105.60808252 151 102 C150.63729412 100.00511766 150.29359301 98.0062189 150 96 C149.34 96 148.68 96 148 96 C147.896875 95.443125 147.79375 94.88625 147.6875 94.3125 C146.16291809 89.18436085 143.44831263 85.92937661 139 83 C137.68 83 136.36 83 135 83 C134.505 81.515 134.505 81.515 134 80 C133.01 80 132.02 80 131 80 C131 79.34 131 78.68 131 78 C124.07 77.505 124.07 77.505 117 77 C117 76.34 117 75.68 117 75 C114.18743719 74.97315688 111.37512759 74.95323812 108.5625 74.9375 C107.76005859 74.92912109 106.95761719 74.92074219 106.13085938 74.91210938 C102.25563093 74.5030304 102.25563093 74.5030304 99 76 Z " fill="#000000" transform="translate(267,168)"/>
<path d="M0 0 C0.82656215 -0.0039821 1.65312431 -0.00796419 2.5047338 -0.01206696 C3.40745528 -0.00624128 4.31017677 -0.00041559 5.24025345 0.00558662 C6.20330595 0.00387777 7.16635846 0.00216892 8.15859437 0.00040829 C11.39383592 -0.00289264 14.62887125 0.00812713 17.86409378 0.01904488 C20.17992523 0.01960886 22.49575704 0.01929268 24.81158829 0.01815987 C31.10663638 0.01758485 37.40160863 0.02936329 43.69663906 0.04330778 C50.27233053 0.05579032 56.84802364 0.05698368 63.42372513 0.0593586 C74.46326898 0.06454007 85.50278619 0.07737498 96.54231644 0.09521675 C107.91308325 0.11357475 119.28384249 0.12773164 130.65462112 0.13623238 C131.70596072 0.13702055 131.70596072 0.13702055 132.77853951 0.13782464 C136.29471367 0.14043471 139.81088788 0.14296213 143.32706213 0.14544845 C172.49730176 0.16618191 201.6675138 0.20155697 230.83772659 0.24609566 C230.83772659 0.90609566 230.83772659 1.56609566 230.83772659 2.24609566 C231.49772659 2.24609566 232.15772659 2.24609566 232.83772659 2.24609566 C232.83772659 10.16609566 232.83772659 18.08609566 232.83772659 26.24609566 C229.38911292 27.97040249 225.40861853 27.38233259 221.61323929 27.3730793 C220.16108985 27.37541929 220.16108985 27.37541929 218.67960405 27.37780654 C215.41523908 27.38181522 212.15092009 27.37862739 208.88655472 27.37549019 C206.55455879 27.37684429 204.22256308 27.37862427 201.89056778 27.38080025 C195.54157554 27.38537355 189.19259948 27.38358544 182.84360695 27.38042116 C176.88407301 27.37815257 170.92454111 27.37988046 164.96500713 27.38134836 C152.44220146 27.38420235 139.9194031 27.38091738 127.39659864 27.37554799 C116.64308424 27.37108002 105.88958064 27.37185598 95.13606644 27.37646675 C82.65916691 27.38181392 70.1822738 27.38392767 57.70537329 27.38085449 C51.09674285 27.37929196 44.48811986 27.3790973 37.8794899 27.38239098 C31.66781813 27.38527032 25.45616684 27.38329281 19.2444973 27.37749672 C16.95872977 27.37616946 14.67296054 27.37656266 12.38719368 27.37875938 C9.27884347 27.38147222 6.17055981 27.37808807 3.0622139 27.3730793 C2.14724907 27.37531002 1.23228425 27.37754074 0.28959322 27.37983906 C-5.93397343 27.36024565 -5.93397343 27.36024565 -8.16227341 26.24609566 C-8.16227341 18.32609566 -8.16227341 10.40609566 -8.16227341 2.24609566 C-4.59873597 0.46432694 -3.64997993 -0.00389124 0 0 Z " fill="#000000" transform="translate(761.1622734069824,59.75390434265137)"/>
<path d="M0 0 C30.15834725 -0.04558865 60.31669332 -0.08100045 90.4750674 -0.10213066 C94.03253197 -0.10463218 97.58999647 -0.10722082 101.14746094 -0.10986328 C101.85571202 -0.1103879 102.5639631 -0.11091252 103.29367633 -0.11145304 C114.77365352 -0.12016449 126.25361076 -0.13593851 137.7335761 -0.15430559 C149.5060537 -0.17298411 161.27852083 -0.18411237 173.05101264 -0.18817699 C179.66639708 -0.19079109 186.28173621 -0.19696207 192.89710617 -0.21146011 C199.11696859 -0.22498162 205.33676681 -0.2292337 211.55664253 -0.22621536 C213.84563737 -0.22676797 216.13463424 -0.2307776 218.42361641 -0.23841095 C221.53650937 -0.24828726 224.64915639 -0.2459958 227.76205444 -0.24050903 C229.13654804 -0.24924756 229.13654804 -0.24924756 230.53880918 -0.25816262 C236.77175758 -0.22824242 236.77175758 -0.22824242 239 2 C239.1953125 4.3828125 239.1953125 4.3828125 239.125 7.125 C239.10695313 8.03507812 239.08890625 8.94515625 239.0703125 9.8828125 C239.04710937 10.58148438 239.02390625 11.28015625 239 12 C238.34 12 237.68 12 237 12 C237 12.66 237 13.32 237 14 C158.79 14 80.58 14 0 14 C0 13.34 0 12.68 0 12 C-0.66 12 -1.32 12 -2 12 C-2 8.7 -2 5.4 -2 2 C-1.34 2 -0.68 2 0 2 C0 1.34 0 0.68 0 0 Z " fill="#000000" transform="translate(755,33)"/>
<path d="M0 0 C1.00353516 -0.0309375 1.00353516 -0.0309375 2.02734375 -0.0625 C5.10468953 -0.08668346 7.76554885 0.25460934 10.71484375 1.12890625 C13.60839763 4.14464474 13.26280365 6.55942786 13.18945312 10.62304688 C13.12661133 12.01620117 13.12661133 12.01620117 13.0625 13.4375 C13.03994141 14.37787109 13.01738281 15.31824219 12.99414062 16.28710938 C12.93519227 18.60967473 12.85297785 20.92903776 12.75 23.25 C12.09 23.25 11.43 23.25 10.75 23.25 C10.255 24.735 10.255 24.735 9.75 26.25 C5.29285714 30.25 5.29285714 30.25 2.75 30.25 C2.75 30.91 2.75 31.57 2.75 32.25 C-0.22 32.745 -0.22 32.745 -3.25 33.25 C-3.25 33.91 -3.25 34.57 -3.25 35.25 C-9.1614744 36.02313045 -14.3814592 36.39819277 -20.25 35.25 C-20.25 34.59 -20.25 33.93 -20.25 33.25 C-21.57 32.92 -22.89 32.59 -24.25 32.25 C-24.25 31.59 -24.25 30.93 -24.25 30.25 C-24.889375 30.146875 -25.52875 30.04375 -26.1875 29.9375 C-26.868125 29.710625 -27.54875 29.48375 -28.25 29.25 C-29.27319033 26.18042902 -29.38371939 24.02559677 -29.375 20.8125 C-29.37757813 19.86503906 -29.38015625 18.91757812 -29.3828125 17.94140625 C-29.09835843 12.17702826 -29.09835843 12.17702826 -26.69140625 9.546875 C-26.07136719 9.03640625 -25.45132812 8.5259375 -24.8125 8 C-24.19503906 7.47921875 -23.57757813 6.9584375 -22.94140625 6.421875 C-21.25 5.25 -21.25 5.25 -19.25 5.25 C-19.25 4.59 -19.25 3.93 -19.25 3.25 C-18.46753906 3.11722656 -17.68507813 2.98445313 -16.87890625 2.84765625 C-15.86699219 2.67105469 -14.85507812 2.49445313 -13.8125 2.3125 C-12.80316406 2.13847656 -11.79382813 1.96445312 -10.75390625 1.78515625 C-2.48919254 0.01875098 -2.48919254 0.01875098 0 0 Z " fill="#000000" transform="translate(380.25,302.75)"/>
</svg>
