<svg width="70" height="39" viewBox="0 0 70 39" fill="none" xmlns="http://www.w3.org/2000/svg">
<path fill-rule="evenodd" clip-rule="evenodd" d="M19.3252 9.5681C13.945 9.5681 9.5681 13.945 9.5681 19.3252C9.5681 24.7053 13.9446 29.0826 19.3252 29.0826C24.7057 29.0826 29.0822 24.7053 29.0822 19.3252C29.0822 13.945 24.7053 9.5681 19.3252 9.5681ZM23.2168 15.7822H17.8251V18.8613H22.491V20.0342H17.8251V24.5511H16.5097V14.609H23.2168V15.7822Z" fill="black"/>
<path fill-rule="evenodd" clip-rule="evenodd" d="M19.3252 0C8.65209 0 0 8.65166 0 19.3252C0 29.9982 8.65209 38.6503 19.3252 38.6503C29.9982 38.6503 38.6503 29.9982 38.6503 19.3252C38.6503 8.65166 29.9982 0 19.3252 0ZM19.3252 30.2237C13.3159 30.2237 8.42706 25.3348 8.42706 19.3252C8.42706 13.3159 13.3159 8.42663 19.3252 8.42663C25.3344 8.42663 30.2233 13.3159 30.2233 19.3252C30.2233 25.3348 25.3344 30.2237 19.3252 30.2237Z" fill="black"/>
<rect x="31.3496" width="38.6503" height="38.6503" rx="19.3252" fill="#D9D9D9"/>
<circle cx="50.4604" cy="19.3247" r="10.3067" fill="#D9D9D9" stroke="white" stroke-width="1.28834"/>
<path d="M46.3722 24.0244V22.5815L52.3227 15.408L52.5975 16.2188H46.4822V14.4048H54.5764V15.8477L48.6397 23.0212L48.3649 22.2104H54.7826V24.0244H46.3722Z" fill="black"/>
</svg>
