<?xml version="1.0" encoding="UTF-8"?>
<svg version="1.1" viewBox="0 0 1856 2000" width="116" height="125" xmlns="http://www.w3.org/2000/svg">
<path transform="translate(82,528)" d="m0 0h1672l36 1 2 2-1 66-1 635v251l-6 2-348 1h-1354l-2-2v-232l-1-592v-127l1-4zm406 23-384 1-1 1-1 163v746l1 1 1656 1 5-1 1-2 1-21 1-811v-75l-1-2-956-1z" fill="#D6233E"/>
<path transform="translate(1288,757)" d="m0 0h295l11 1 3 1 1 17-1 291-4 4-10 2-19 1h-282l-3-1-2-5-1-20-1-158-1-61v-60l4-6 6-5z" fill="#D5223D"/>
<path transform="translate(335,847)" d="m0 0h207l30 1 4 2 1 3 1 42-1 266-3 3-4 1h-299l-10-2-3-7-1-10v-283l2-11 4-2 6-1z" fill="#49494E"/>
<path transform="translate(975,847)" d="m0 0h240l29 1 6 2 4 6 1 4 2 182 1 59v55l-2 5-3 2-5 1-24 1h-279l-3-3-3-6-1-10v-233l1-36 1-17 3-11 2-1z" fill="#4A494E"/>
<path transform="translate(647,847)" d="m0 0h225l37 1 5 4 1 4 1 20v279l-2 8-5 2h-304l-3-5-2-8-1-19v-249l1-21 3-14 1-1z" fill="#D5223D"/>
<path transform="translate(88,541)" d="m0 0 1 3 2 1-1 4h3v5l-2 6 1 5-1 2 2 7v3l2 1 2 2 1-4 4 2 1-3v887l10 2-1 6 3 7v5l8-1v2l4 1 25 1v1h-70l-2-2v-192h1l1 140 1-31v-484l1-38-1-36 1-37v-59l1-34 1-3-1-1v-6-2l-1-18 1-7-1-11-1-27v-27l1-9v-55l3-5z" fill="#F1143A"/>
<path transform="translate(755,944)" d="m0 0h9l14 2 14 5 13 9 7 9 4 8 3 17 2 30 1 49v26l-3 2-6 1h-9l-12-2-15-10-6 2-11 7-6 2-9 1h-20l-10-3-10-6-6-5-6-8-5-12-1-5v-14l2-12 4-6 9-8 8-4 21-7 23-5 21-2h6l1-10-3-10-4-5-5-4-3-1h-16l-6 2-10 7-15 6-18 4h-7l-2-4v-8l9-13 10-10 13-8 16-5z" fill="#FCFCFC"/>
<path transform="translate(82,528)" d="m0 0h1672v1l-16 1-2 1-14 1h-75l-6 2-1-1-11-1-18 1-3-1-6 2-1-1-12-1-8 1-4 2-10 1v-2l-2 1-9-1-1 3-5-1-1-2-6-2-1 3-5-1v-2h-6l3 1v2l-7-1-1 2-6-2-4 1v-2h-2v2h-2l-1-2h-4l-3 1-7 1-11-1-4 1-7 1h-15v-2h-2l1 3h-4v-2l-12 1-3 1v-2l-4 1-5-1-6 2h-5l-2-1v-2h-2l-1 3h-2v-2l-3 1-8-2-1 2-4-1v2l-5 1v-2l-4-1-1 3-9-2-7 2h-11l-3-1-1 2-2-1h-11l-4-1-4 1-4-1-4 1-9 1-3-2-5 2v-2l-8 1-4 1-5-2-3 1-7-2-3 3-5-1-3-1-2 2v-2l-8 2v-2h-4v2h-3l-1-3-12 2-5-1-6 2-3-1-2-2-10 2-5-1h-5l-1 2-3-3-2 3v-2l-4 1-4-3-2 4-2-2-3-1-10 2-2-2h-2l-1 3-3-3-7 2-4-1v2h-6l-1-2h-6l-7 2-8-1-3-1-1 2h-4l-1-2-2 2-6-1h-14v-2l-9 2h-2l-4 1-3-2-2 1-1 1h-2v-2l-13 2-1-2h-4v2h-22l-4-2v2h-13-4-8l-3-2-1 2h-15l-2-1-6 1-4-1-6 1-7-1-1-1-2 2v-2l-3 1-2-2-6 2-4 1h-12v-2h-2l-1 2-3-1-8 1-4-1-3 1v-2l-3 1h-7l-2 1-5-1-4 1h-3l-3-3-9 1-1 2h-6l-2-2-5-1-1 3h-3v-2l-4 2-14-1-2 1v-2h-6l-1 2h-6v-3l-8 2-7-1-8 1-2 1-2-2h-2v2l-11-1-3 1h-4v-2h-2l-1 2h-5v-2l-4 2-3-1-6 1v-2h-2l-1 2v-2l-7 2h-3-8-4l-6-1-2-1-1 2h-25l-4 1-4-2-2 1h-4-6v-2h-2l-1 2h-21l-3-1-1 2v-2l-9 2-1-1h-3-15l-3-1-1 1h-14l-6-2v2l-9-1v-2l-7 1-5-1-7 2-1-1-11-1 1 3h-5v-2l-4 2h-6l-1-2-8 1-3 1h-10v-2h-9v2h-5v-3h-2l-1 3-4-1-1-1-7-1v3l-6-1 1-3-7 1-9 2h-6l-6-2h-9l-1 3-1-2-5 1-7-2-7 1h-8l-4 2h-7l-3-2-14 1h-3-7l-2-1-6 2h-6-3-3v-3h-2l-1 3h-4v-2l-4-1-3 1-1 2h-4v-3l-5 1-5 2h-3v-3h-2v2h-10-3-10v-2h-2l-1 3-5-2-3 2v-2l-8 1-6-2-1 1h-5l-3-2v2l-7 1-2 1-2-4-3 3-9-1v-2h-2v2h-4v-2l-4 1-6-2v-2l-3 1 2 2h-3l-5-2h-5l-2 1v-2l-8 1h-3l-12-1-10 1-8-1-1 2-1-1-13-1h-15l-2 1v-2l-2 1h-11l-5-1v-1l-43-1z" fill="#F4355A"/>
<path transform="translate(1112,947)" d="m0 0h20l22 1 5 2 2 5-4 13-6 12-8 12-36 48-21 27-2 3h36l35 1 5 3 4 6-1 10-4 6-10 2h-104l-9-1-5-4-1-6 4-9 7-11 13-18 12-17 14-19 9-12 10-13 4-9-47-1-14-1-5-2-3-6v-12l3-5 4-2 9-1 23-1z" fill="#FCFCFC"/>
<path transform="translate(443,911)" d="m0 0h14l7 3 4 6v9l-3 11-18 5-11 6-3 4v22l5 1 18 1 5 2 1 1v14l-2 7-5 4-13 3-10 1 1 5-1 53-1 25-4 4-14 2h-11l-6-2-3-6-1-15-1-68h-14l-8-7-1-2v-7l4-6 4-3h2l2-4 2 1-1 2 3-1 2-7 2-1 2-15 3-12 7-14 9-10 9-6 12-4z" fill="#FCFCFC"/>
<path transform="translate(1278,702)" d="m0 0h318l2 1 1 10-1 15-2 1h-318l-6-11v-9l4-6z" fill="#D5223D"/>
<path transform="translate(1440,873)" d="m0 0h12l5 3v67l-1 66-3 3-11 3h-14l-8-2-3-3-1-4-1-15-1-37v-74l2-4 10-2z" fill="#FCFCFC"/>
<path transform="translate(1312,659)" d="m0 0h285l2 1v12l-1 1-324-1-1-1v-6l4-5z" fill="#D6223E"/>
<path transform="translate(98,652)" d="m0 0 4 1v457l-2 5-1 2h-2v-7l-1-3 1-9-1-15 2-7-2-5v-11l1-1v-10l-1-4v-14l2-3-2-1 1-4-1-10-1-1v-7l1-3-1-2v-38l-1-5 1-1-1-10v-14l1-7-1-8v-73l1-4v-21l-1-16v-18l1-5v-35l2-3-1-7v-43l-1-4 1-3-1-2 1-5v-12l1-4-1-6z" fill="#D5213C"/>
<path transform="translate(751,974)" d="m0 0h16l5 3 5 5 4 5 2 8v6l-2 4-33 4-24 6-19 7-9 7-5 6-4-1v-14l4-16 3-8 14-2 7-2 1-2 15-5 10-6 5-4z" fill="#F11338"/>
<path transform="translate(746,1033)" d="m0 0h31l3 2 2 9-1 8-4 7-10 9-9 4h-21l-8-4-3-5-1-5v-7l4-9 8-6z" fill="#F11137"/>
<path transform="translate(1430,812)" d="m0 0 15 1 6 3 4 5 2 13-1 7-3 2-8 1h-23l-7-6-2-6v-13l8-5z" fill="#FCFCFC"/>
<path transform="translate(99,1215)" d="m0 0 3 4v155h-1l-1-34-3-6 1-1v-21l-1-5v-6l-2-1v-3l2-1 1-10-1-7 2-7-1-8 1-8h-2l1-4v-3l1-4h2v-3h-2l-2-6 1-8 2-3 1-5-3-1z" fill="#D5213C"/>
<path transform="translate(1257,1101)" d="m0 0h1v55l-2 5-3 2-5 1-24 1h-62v-1l28-2 38-3 16-3 10-5 2-3z" fill="#DC2643"/>
<path transform="translate(574,1157)" d="m0 0h3l-1 6-6 2h-67v-1l24-2 35-2z" fill="#DC2643"/>
<path transform="translate(82,1472)" d="m0 0 1 3 5 1 1-3 7 1 1 3h5v2l3-1 1 5-5 3h-14l-4-1-1-3z" fill="#D5213C"/>
<path transform="translate(746,1033)" d="m0 0h31l3 2 2 9-1 8h-1l-2-10-1-1v-5h-30l-8 3-8 4-3 2 2-4 9-6z" fill="#DC2643"/>
<path transform="translate(726,1048)" d="m0 0h3l2 6-2 6 3 5 8 3 18 1 6-2 4-1-4 4-6 2h-21l-8-4-3-5-1-5v-7z" fill="#E72D4E"/>
<path transform="translate(1687,528)" d="m0 0h67v1l-16 1-2 1-14 1-14-1v-1l-21-1z" fill="#F4768D"/>
<path transform="translate(98,1136)" d="m0 0h2l1 14 1 4v16l-4-2-1-5v-3l-1-4 1-9-1-4 2-2-2-2h3z" fill="#DA1E3B"/>
<path transform="translate(99,1173)" d="m0 0 3 1v27h-4l-1-4v-13l2-3-2-2 1-4z" fill="#D6213C"/>
<path transform="translate(752,972)" d="m0 0h17l6 7-8-4h-16l-6 2-10 7-9 4-3-1 7-4 7-3 4-2 2-4 1-1z" fill="#F9F4F4"/>
<path transform="translate(99,1215)" d="m0 0 3 4v26l-1-3h-2l-2-6 1-8 2-3 1-5-3-1zm0 30h2v2h-2z" fill="#D7203C"/>
<path transform="translate(693,982)" d="m0 0 4 6 10 2 13-1-4 2-14 3h-7l-2-4z" fill="#F9F4F4"/>
<path transform="translate(746,1033)" d="m0 0h31v1l-29 1-9 4-8 4-3 2 2-4 9-6z" fill="#E92E4F"/>
<path transform="translate(782,990)" d="m0 0 2 3v11l-5 3-23 2h-8v-1l27-3h6l1-10z" fill="#F9F4F4"/>
<path transform="translate(777,984)" d="m0 0 3 1 3 10v6l-2 4h-6l4-4v-8z" fill="#E72D4D"/>
<path transform="translate(388,964)" d="m0 0h1v10l-2 2h-1l-2 7h-3l-1-5 4-3z" fill="#F53B5F"/>
<path transform="translate(80,1460)" d="m0 0h1l2 25 4 1h-5l-2-2z" fill="#F5486A"/>
<path transform="translate(777,943)" d="m0 0h7l3 2 6 2 2 3h-8l-2-1-1-3-7-1z" fill="#EF153A"/>
<path transform="translate(99,641)" d="m0 0 1 2h2v8h-3-2v-7z" fill="#D5223D"/>
<path transform="translate(1412,819)" d="m0 0h1l1 13 3 7 1 2-4-1-3-12z" fill="#F5355A"/>
<path transform="translate(99,1161)" d="m0 0 3 1v8l-4-2-1-5z" fill="#D6213C"/>
<path transform="translate(1734,528)" d="m0 0h20v1l-16 1-6 1 2-1z" fill="#F55070"/>
</svg>
