<?xml version="1.0" encoding="UTF-8"?>
<svg version="1.1" viewBox="0 0 1000 1000" width="1000" height="1000" xmlns="http://www.w3.org/2000/svg">
<path transform="translate(202,50)" d="m0 0h30l4 5 9 2 1 3 5 2 2 4 6 1 1 3 5 2v3l3 1 1 5h3l1 4h114l3-5 1-4h2l2-5 4-2 1-2 8-1v-4l5-1 1-4 9-1v-3l6-1v-2h27v2l6 1 3 3 7 2v3l5 1v4l9 1 1 3 3 1 2 5 4 1 1 3 2 1 3 10 3 2 1 11v15l-2 9-3 9-2 5h-2l-1 3-4 1-2 8h2v3l5 1 3 3 1 7 5 6 1 4 3 3v7h3l2 5h2v3l3 1 2 9h2l2 3v7l3-1 1 12h4l3 8h2v11l10-2v-3h13v3l12 2-1 3 17 2 6 7 3 3v3h3l3 4h1l2 16 5 1-1 3 106-1 10 3v-17l3-4 3-5 4-4h4v-4l6-2 1-3 11-1 5-1-1-3 10-2 2-3h13l1 3 12 2v3l14 2v3l4 1 1 5h3l2 5 3 3 2 6 4 2 3 6 1 1v47l-3 4-1 3-4 2-1 3v11l3 7 7 7v4l5 1 3 3 1 3 2 7 3 2 1 4 2 1 2 9 4 1 3 7h2l1 11 4 1 3 7 2 1 1 5 4 2v3h17l7 1v3l15 1 4 1v3l6 2v3l6 2v3l4 1v3l3 1 3 8 3 3 1 5 3 1v7h3v29h-3v7l-3-1-1 4-4 5-2 6h-3l-1 4-4 1-1 4-4 1-2 4-5 2-1 2-13 2h-2v3l-8 2v3h-18l-1 5-3 1-2 8-4 1v5l-3 1-3 12-7 3-2 4h-2l-1 4h-2l-3 9-1 7-4 1-1 3-3 1-2 9-3 1-2 7h-4v15l5 1 1 6 3 1 1 20v15l-1 17-3 3-3 6-7 10-2 4-4 1v3l-20 2v2l2 1-17 2-10-1-13-1 3-1v-2l-23-2-1-3-6-2-4-9-3-3v-12l-119 1-2 12-3 2-2 5-4 5-2 1-1 3-20 2v2l2 1-13 1h-17l-8-1v11h-2l-4 7-3 1-1 16-3 6-2 6-3 2-2 7-4 2v4l-4 1-1 5-3 1-2 4-3 1-2 12-4 2h-4l-1 10 1 7 4 2 3 5 4 10 2 3 1 8v10l-2 10-2 2-3 9h-2l-2 6-2 1-4 8-3 3-1 2-5 3-1 2-6 1v3h-2v3h-57v-3h-2v-3l-6-1-2-4-3-1v-4l-7-1-1-4h-3l-1-10-1-5h-115v5l-3 1-2 9-3 1-1 3-5 1-2 4-2 1-2 4-5 2-1 2h-3v3h-54l-1-2-3-1-2-3-4-2v-3l-6-2-5-6-2-1-1-7h-4l-5-8-2-12-1-2-2 1v-20l2 1 2-7 2-9 4-6 4-1v-14l-1-4-5-2v-3l-3 1-1-8-1-3-3-1-1-5-4-2v-11l-1-5-5-1-3-3-2-10-3-2-2-4-2-1-1-9h-2l-1-3-2-1-2-5-2-1-2-8h-22l-11-1-1-3-14-2-6-7v-2h-3l-1-4-4-2-2-4-2-1-2-10h-3v-3h-3v-38h3l1-5 3-1 1-8 3-1 2-5 7-2v-3l5-2 1-3 8-2 1-3 4-2 1-3 24-1h10l1-7 1-4 4-3 3-1 2-9 3-1 2-7 3-2 3-9 2-1 1-3 5-1v-12l3-2 2-9 3-1 4-9 3-5 3-1 2-10 2-3-3-1-1-4-4-2-1-3-3-2-3-11-2 1v-25l2 1 2-5 1-9 3-4 2-4 3-1 2-5 3-3-4-2-1-3-4-2v-3l-3-1-4-6-2-2-2-9h-2l-1-5v-10l-1-7h-4l-1-4-3-1-1-8-6-8v-2h-3l-1-5-3-1-2-4-2-1-1-3-2-1-26-1v-3l-9-1-4-4-3-1-1-5h-3l-2-4-4-1-1-4h-4l-1-5-4-1-3-5-3-8v-2l-3-1v-5h-3v-30h3l1-5 2-2 3-8 3-5 5-2 1-3 3-2 1-4 4-1 2-4 3-1 1-3 9-2 1-3 11-2v-3h14l1 3h5l3-8 2-1 4-8 3-2 1-3 3-3 1-2h4l1-7 4-4 1-3 3-3 1-5v-10l2-4 2-3 1-6 3 1 2-11h2l2-4 4-1 2-4h2l-3-4v-5h-4l-3-6-2-2-2-12-1-2h-2v-24l3-3 2-10 2-3h2l1-5 5-2 1-3 6-2v-3l7-2 1-3 5-1 1-4 8-2 1-2 5-1zm14 43v2l-14 1-2 4v25h8v3l4 2h12l3-2v-3l4-1 1-3 2-1 1-19-5-1-1-4h-6v-3zm214 3-2 1v3l-4 1-1 2v15l1 2h4l1 5h5v4l4 1h10l3-2v-3h6l1-4-1-8 3 1 1-9-1-3-2-1-1-5zm-152 35v3h-5l-1 6-2 1v3h-2l-2 9-6 2-5 5-2 3-5 3v1l-24 3-1 1-7-2h-6l-3 3-6 2-1 4v8h-2l-2 5-5 3-3 8-3 5-3 1-2 12-3 1-2 5-3 2-2 9-4 4v3l-3 1-2 9-1 5-4 5-3 1-1 3 1 2 4 1 4 8 2 11h3v30l-3 3-3 15-3 3v2l-4 1 1 4 3 5h3l2 10 2 4 2 3 4 5 1 7h2l1 4h2l1 5 3 1 2 12 4 1 1 6h2l3 9 5 1 1 7 2 7 2 4 5 1h16l7 1 3 3 16 1v3l4 2 4 4h2l1 4 4 1 1 4h3v5l3 1 1 3 1 11h111l3-7 4-9 4-7 4-2 1-3 4-2v-3l6-2 1-3 16-1 2-1v-3h26l2-1 2-8 2-1 2-8 4-3v-6h2v-2l5-2 3-4 1-10 3-3v-2l3-1 2-3v-5h3l4-6v-3h3l1-5 3-4 5-2 1-4v-19l-2-5-3-3-3-5h-2v-37h2l4-7 3-2 1-8 3-1 1-2v-6l-4-2-3-9-3-2-2-3-2 1-1-10-4-2-1-3h-4l-1-5-3-1-2-5-2-1-1-12-5-1-1-4-3-2-2-9-3-1-3-8-2-1-1-8-1-1h-5v-3l-7-1h-15l-9-1h-9l-2-4-5-1-1-4-4-1-1-4-4-1-2-3h-2l-1-11-2-4-2-1-101-1-1-2zm96 1 4 1zm-279 157-1 1v5h-3l-2 4v15l2 4h3v5l5 1h8l9-3 2-2 4-2 2-4v-12l-1-2h-2l-1-4-1-1h-5v-3l-5-2zm454 0-4 2v3h-6l-1 5h-2l-1 2v12l4 6h5v3l9 2 12-1 2-1v-3h6l1-6v-10l1-2-3-7h-5v-3l-7-2zm228 0-4 2v3h-7l-3 3-1 2-1 14 2 5 9 1 2 4 12 1 8-2v-3h6l2-5h2l1-2v-11l-1-2h-3l-1-4-1-1h-5v-3l-7-2zm-55 34-110 1-1 4-4 1-1 15-1 2-3 1v2l-4 1-3 5v2l-5 2-1 2-9 2-1 4h-7l-4 2v2h-25l-4 1v5h-4l-2 4-3 1-1 4v17l-4 2-1 4-3 1-4 9-2 5-5 2-1 8h-2l-2 6v4h-4l-3 8-6 3-2 4 1 5 1 4h4l3 5 2 10 3 4 1 7v15l-1 11-3 1-2 6-2 5h-5l-2 5 1 9h2l1 4 3 5h3l1 6h2v3l6 5 1 11 4 1 1 3 7 7h2l2 5 2 2 1 16 2 5h3l1 5 3 1 1 8h2v4l3 1h34l1 4 5 1 1 4 2 1h7l2 4 4 1v3h2l2 6 5 10h112v3l6 1 1-1 1-11 3-3 4-7 6-3v-3h10l2-2v-3l5-1 1-4h35l4-9 2-5 3-1 2-10 1-15 4-4 3-1 1-3 4-2 1-3 3-1 3-9h2l2-9h4l3-9 2-1 2-6 2-1 2-9v-3l-1-5-5-1-1-5-3-1v-29l1-21h2l1-6 4-1 3-6-2-7-5-1-1-4-3-7-1-4h-4l-1-5-4-1v-8l-2-4-2-1-2-5h-2l-3-9h-4l-2-8h-1l-2-16-3-1-2-5-1-3-4-2h-25l-1-3-3-1h-7l-1-4-8-1v-3l-3-2h-4l-1-4-5-1-2-4h-2l-4-8v-16l-1-1zm-505 155-4 2v2l-7 3v3h-5l-1 1-1 22 1 1 7 1v2l7 3 1 3h7l1-3 6-3v-3l5-1 1-7-1-11-4-1-2-6-4-4-1-3zm673 0-2 1v4l-4 1-1 4-4 1-1 3v20l5 1 1 3 4 2 1 3h7l1-3 6-3v-3h9v-20l-2-4-5-1v-2l-4-2h-4v-4zm-451 1v4l-6 1v4l-4 1-1 3-4 1-1 2v12l1 4 9 2 3 4 4 1v2h6l-1-3 7-1v-4h6l3-4v-8l-2-5-1-4-1-3-4-1-1-3-5-2-1-3zm-59 43-3 2v2h-104l-3 1-7 12v2l-4 1-1 4-4 1-1 3-5 2v3l-13 1-4 4-6 2v3l-15-1-1-2h-3l-1 3-3 1v4h-2l-1 8-3 2-1 6h-2v3h-2l-1 6h-3l-1 3-4 2-10 15-1 3v9l-3 1-1 2v7l-5 2-1 11-4 4v6h2l2 4 2 12 2 1 1 3 1 19-2 16-2 1-3 15-4 5 2 4 3 2 1 11 4 3 3 6h2v12l2 5h4l1 8h3v9l1 2 4 1 4 8 3 1 4 8h3l1 10 5 1 1 4 9 1h12l10 1 2 3 5 1v3l9 2v3l4 1 1 5 4 1 1 3h4l1 10 3 5h116l2-5v-6l1-4 3-1v-3h5l2-5h3v-2l2-1 7-3v-3l7-2v-3h27l5-1 1-3 4-2 1-7 3-2 1-4 3-2v-3l5-2 3-6v-2h3l2-8 3-5 1-5 4-2 2-6 5-7 2-1 2-13 6-3 4-10-2-12-4-2-2-8-3 1 1-41 3-4 2-5 2-1 2-5v-13l-2-5h-3l-1-5-4-1v-9l-2-4-3-1-2-5-2-1-3-8h-3l-1-4-3-1-1-5h-3l-2-5-1-3h-3l-3-9-5-6h-1l-1-10-1-1-19-1-4-3-6-1-1-4-14-1v-3l-6-3-2-3h-3l-1-4-4-1-1-4-3-1-1-4h-2l-2-6-3-4zm-168 41m238 0m-356 114v5l-4 1-1 10v7l2 14 4 2h16l7-1v-5h3l3-9 3-1v-6l-1-2h-2v-5l-2-5-6-1v-2l-4-2zm455 0-4 2v2h-6l-4 6-1 14 2 4h2v5l3 1 1 4 7 1h14l7-2v-3l3-1 2-7 2-5-2-5h-1v-11l-1-1h-6v-3l-3-1zm227 0-4 2v2l-9 1-1 1v23l1 4 5 1 1 4 7 1h14l7-2 4-4 1-4h2l1-2v-17l-3-5-2-1h-6l-1-3-6-1zm-566 198-3 2v3h-5l-2 4v16l2 4 4 1 1 3 2 1h17l2-4 2-1v-2h2l3-4v-8l-1-5-5-5h-2l-1-4-1-1zm224 0-1 5-5 1v4h-4l-1 10 1 4h4l1 5h4l1 5h17l2-2v-3h4l2-6 2-4-1-7h-2l-1-7h-5v-4l-2-1z" fill="yellow"/>
<path transform="translate(625,285)" d="m0 0h94v1h-94z" fill="yellow"/>
<path transform="translate(434,172)" d="m0 0h5v1h-5z" fill="yellow"/>
<path transform="translate(538,312)" d="m0 0" fill="yellow"/>
<path transform="translate(114,680)" d="m0 0" fill="yellow"/>
</svg>
