<?xml version="1.0" encoding="iso-8859-1"?>
<!-- Uploaded to: SVG Repo, www.svgrepo.com, Generator: SVG Repo Mixer Tools -->
<svg height="800px" width="800px" version="1.1" id="Layer_1" xmlns="http://www.w3.org/2000/svg" xmlns:xlink="http://www.w3.org/1999/xlink" 
	 viewBox="0 0 447.97 447.97" xml:space="preserve">
<g transform="translate(0 -1020.36)" shape-rendering="auto" image-rendering="auto" color-rendering="auto" color-interpolation="sRGB">
	<path style="fill:#5A3392;" d="M104.034,1020.36c-22.022,0-40.063,18.01-40.063,40.032c-0.002,30.451,0,60.924,0,91.344
		c0.082,10.625,15.981,10.625,16.063,0c-0.711-34.35,0.787,100.275,0,65.188c0.054-4.838-4.165-8.617-8.969-8.031
		c-4.073,0.465-7.136,3.934-7.094,8.031v211.375c0,22.021,18.041,40.031,40.063,40.031h240c22.022,0,39.906-18.01,39.906-40.031
		c-0.083-30.459,0.062-60.967,0.062-91.375c0.058-4.854-4.185-8.639-9-8.031c-4.061,0.48-7.107,3.943-7.063,8.031v5.406h-4.813v-76
		h4.813v5.406c0.082,10.625,15.98,10.625,16.063,0c-0.12-70.395-0.062-140.889-0.062-211.344c0-22.022-17.885-40.032-39.906-40.032
		H104.034z"/>
	<path style="fill:#29A3EC;" d="M104.023,1036.29h240c13.434,0,23.976,10.661,23.976,24.095v367.914
		c0,13.436-10.542,23.979-23.976,23.979h-240c-13.434,0-23.976-10.543-23.976-23.979v-367.914
		C80.047,1046.951,90.589,1036.29,104.023,1036.29L104.023,1036.29z"/>
	<path style="fill:#3CDEF6;" d="M113.837,1053.287c-12.336,0-22.031,9.789-22.031,22.125v337.846
		c0,12.336,9.695,22.031,22.031,22.031h220.375c12.336,0,22.031-9.695,22.031-22.031v-337.846c0-12.336-9.695-22.125-22.031-22.125
		H113.837L113.837,1053.287z"/>
	<g>
		<path style="fill:#FFFFFF;" d="M256.119,1061.255c0.187-0.006,0.375-0.006,0.562,0c4.418,0,8,3.582,8,8s-3.582,8-8,8s-8-3.582-8-8
			l0,0C248.671,1065.048,251.921,1061.55,256.119,1061.255z"/>
		<path style="fill:#FFFFFF;" d="M288.056,1061.255c0.229-0.01,0.459-0.01,0.688,0h31.906c13.16-0.004,24.094,10.836,24.094,24
			v31.873c-0.03,4.436-3.65,8.008-8.086,7.977c-4.393-0.029-7.947-3.584-7.977-7.977v-31.873c0-4.51-3.518-8.031-8.031-8.031
			h-31.906c-4.419-0.02-7.985-3.617-7.966-8.035C280.797,1065.064,283.948,1061.629,288.056,1061.255z"/>
		<path style="fill:#FFFFFF;" d="M111.212,1363.255c4.418-0.086,8.07,3.424,8.156,7.842c0.002,0.105,0.002,0.209,0,0.314v31.906
			c0,4.512,3.393,8.031,7.906,8.031h31.906c4.401-0.395,8.289,2.852,8.684,7.254c0.395,4.4-2.852,8.289-7.253,8.684
			c-0.476,0.043-0.955,0.043-1.431,0h-31.906c-13.16,0-23.969-10.809-23.969-23.969v-31.906c-0.086-4.418,3.425-8.068,7.843-8.154
			C111.17,1363.255,111.191,1363.255,111.212,1363.255L111.212,1363.255z"/>
		<path style="fill:#FFFFFF;" d="M191.306,1411.287c4.418,0,8,3.582,8,8l0,0c0,4.418-3.582,8-8,8h0c-4.418,0-8-3.582-8-8l0,0
			C183.306,1414.869,186.888,1411.287,191.306,1411.287C191.306,1411.287,191.306,1411.287,191.306,1411.287z"/>
	</g>
	<path style="fill:#5A3392;" d="M224.29,1156.275c-0.302-0.018-0.605-0.018-0.907,0c-2.296,0.182-4.403,1.342-5.781,3.188
		l-71.937,96.031c-2.668,3.521-1.976,8.541,1.546,11.209c0.293,0.223,0.602,0.424,0.923,0.604l36.031,19.969
		c2.395,1.313,5.293,1.313,7.687,0l17.219-9.563c-0.284,0.721-0.278,0.672-0.562,1.408c-2.034,5.285-4.106,10.828-5.687,15.813
		c-1.581,4.982-2.813,8.75-2.813,13.375c0,13.16,10.808,23.969,23.969,23.969c13.16,0,24.094-10.809,24.094-23.969
		c0-4.625-1.387-8.393-2.969-13.375c-1.581-4.982-3.622-10.527-5.657-15.813c-0.284-0.736-0.278-0.672-0.562-1.408l17.219,9.563
		c2.419,1.346,5.362,1.346,7.781,0l36.031-19.969c3.855-2.158,5.231-7.035,3.072-10.891c-0.18-0.32-0.382-0.629-0.604-0.922
		l-71.906-96.031c-1.462-1.963-3.742-3.146-6.188-3.217L224.29,1156.275z"/>
	<g>
		<path style="fill:#EE746C;" d="M224.103,1177.806l60.094,79.969l-24.219,13.469l-32.125-17.846c-2.419-1.346-5.362-1.346-7.781,0
			l-32,17.846l-24.219-13.469L224.103,1177.806z"/>
		<path style="fill:#EE746C;" d="M224.103,1283.65c0.26,0.656,0.212,0.607,0.472,1.279c1.966,5.109,3.894,10.404,5.313,14.875
			c1.419,4.469,2.125,8.705,2.125,8.5c0,4.51-3.518,8.031-8.031,8.031c-4.513,0-7.906-3.52-7.906-8.031
			c0,0.176,0.706-4.029,2.125-8.5c1.419-4.471,3.347-9.766,5.313-14.875c0.266-0.688,0.327-0.607,0.593-1.279H224.103z"/>
	</g>
	<g>
		<path style="fill:#FB9761;" d="M224.082,1190.193l44.16,58.766l-17.797,9.898l-23.607-13.113c-1.778-0.99-3.941-0.99-5.718,0
			l-23.515,13.113l-17.797-9.898L224.082,1190.193L224.082,1190.193z"/>
		<path style="fill:#FB9761;" d="M224.087,1288.068c0.188,0.48,0.157,0.416,0.345,0.943c1.434,3.725,2.841,7.592,3.876,10.854
			c1.035,3.262,1.551,6.352,1.551,6.201c0,3.289-2.567,5.859-5.86,5.859s-5.768-2.57-5.768-5.859c0,0.16,0.514-2.939,1.551-6.201
			c1.035-3.26,2.442-7.125,3.876-10.854C223.85,1288.531,223.893,1288.595,224.087,1288.068L224.087,1288.068z"/>
	</g>
	<g>
		<path style="fill:#5A3392;" d="M71.054,1170.267c-4.07,0.469-7.129,3.936-7.087,8.031v12.049c0.002,4.436,3.6,8.029,8.035,8.027
			c4.433-0.002,8.025-3.594,8.028-8.027v-12.049c0.05-4.418-3.492-8.041-7.91-8.09C71.764,1170.205,71.407,1170.224,71.054,1170.267
			z"/>
		<path style="fill:#5A3392;" d="M375.013,1290.267c-4.07,0.469-7.129,3.936-7.087,8.031v12.049c0.002,4.436,3.6,8.029,8.035,8.027
			c4.433-0.002,8.025-3.594,8.028-8.027v-12.049c0.05-4.418-3.492-8.041-7.91-8.09
			C375.723,1290.205,375.366,1290.224,375.013,1290.267z"/>
	</g>
</g>
</svg>