<?xml version="1.0" encoding="UTF-8"?>
<svg version="1.1" viewBox="0 0 1856 2000" width="116" height="125" xmlns="http://www.w3.org/2000/svg">
<path transform="translate(612,115)" d="m0 0 5 1 11 11 22 33 14 20 10 14 14 19 12 17 14 20 13 18 12 17 14 20 26 36 11 16 13 18 14 20 24 34 13 18 13 19 14 19 12 17 14 20 26 36 13 19 14 19 16 23 12 17 10 15 7 6 5-1 11-7 15-10 11-7 19-12 14-9 19-12 21-13 19-12 17-11 23-15 20-12 23-15 24-15 25-16 18-13 16-11 2-1h6l1 1-1 8-10 29-7 23-11 44-9 33-10 39-15 57-12 43-7 24-2 12 38 6 60 9 72 11 308 48 113 16 8 3 3 3-1 3-33 11-33 10-25 9-68 23-70 25-102 36-183 63-132 47-9 5-1 3 3 11 9 75 14 123 9 78 10 88 10 86 16 143 10 82 5 35 3 16 3 12v10l-5-2-8-8-10-14-12-19-11-18-12-19-21-32-13-20-22-34-14-22-10-15-11-17-47-72-11-17-17-26-14-22-18-27-10-16-19-29-15-23-14-22-9-14-12-19-18-27-20-32-10-18-4-1-17 9-22 14-19 12-24 15-22 14-18 11-23 15-21 13-19 12-23 14-19 12-26 16-15 10-16 10-15 10-18 11h-3v-7l11-29 12-43 19-69 7-23 11-40 15-53 9-31 4-12v-4l-16-3-53-7-40-5-57-8-63-8-58-8-56-7-66-9-50-6-72-10-54-6-40-4-1-4 5-4 18-8 38-14 27-11 21-8 28-11 30-12 28-11 36-14 26-10 30-12 29-11 26-10 40-16 38-15 40-16 16-6 33-13 62-24 44-17 28-10 24-10 6-4 1-5-8-62-10-87-9-74-12-103-7-57-10-87-10-89-8-77-5-29-5-25z" fill="#FFDCDE"/>
</svg>
