<?xml version="1.0" encoding="UTF-8"?>
<svg id="Layer_2" data-name="Layer 2" xmlns="http://www.w3.org/2000/svg" viewBox="0 0 727.05 253.89">
  <defs>
    <style>
      .cls-1 {
        fill: #e91339;
      }
    </style>
  </defs>
  <g id="all_logo_colors">
    <path class="cls-1" d="m474.44,142.97l13.91,110.91-56.08-87.25-44.45,30.24,13.87-46.37-91.69-10.92,98.21-35.38L395.73,0l55.5,81.1,44.96-31.27-14.46,47.67,90.97,10.74-98.25,34.72Zm-195.06,19.63c4.92,8.35,7.38,17.78,7.38,28.26s-2.46,19.91-7.38,28.26c-4.92,8.35-11.88,14.92-20.89,19.68-9.01,4.77-19.43,7.15-31.27,7.15s-22.27-2.38-31.27-7.15c-9.01-4.77-15.97-11.33-20.89-19.68-4.92-8.35-7.38-17.77-7.38-28.26s2.46-19.91,7.38-28.26c4.92-8.35,11.88-14.91,20.89-19.68,9.01-4.77,19.43-7.15,31.27-7.15s22.27,2.38,31.27,7.15c9.01,4.77,15.97,11.33,20.89,19.68Zm-29.35,28.26c0-5.12-.94-9.6-2.82-13.43-1.88-3.84-4.54-6.81-7.98-8.92-3.44-2.11-7.44-3.16-12.01-3.16s-8.57,1.05-12,3.16c-3.44,2.11-6.1,5.08-7.98,8.92-1.88,3.84-2.82,8.32-2.82,13.43s.94,9.6,2.82,13.43c1.88,3.84,4.54,6.81,7.98,8.92,3.44,2.11,7.44,3.16,12,3.16s8.57-1.05,12.01-3.16c3.44-2.11,6.1-5.08,7.98-8.92,1.88-3.84,2.82-8.32,2.82-13.43ZM0,242.35h34.62v-103.86H0v103.86Zm91.75-74.1c3.44-2.18,7.51-3.27,12.23-3.27,3.51,0,6.75.69,9.71,2.07,2.96,1.38,5.37,3.38,7.22,5.98,1.86,2.61,2.96,5.69,3.31,9.26h35c-.5-9.18-3.16-17.28-7.98-24.31-4.82-7.02-11.4-12.48-19.76-16.37-8.35-3.89-17.95-5.83-28.79-5.83s-21.21,2.38-30.07,7.15c-8.86,4.77-15.77,11.34-20.74,19.72-4.97,8.38-7.45,17.79-7.45,28.22s2.48,19.85,7.45,28.22c4.97,8.38,11.88,14.95,20.74,19.72,8.86,4.77,18.88,7.15,30.07,7.15s20.43-1.94,28.79-5.83c8.35-3.89,14.94-9.34,19.76-16.37,4.82-7.02,7.48-15.13,7.98-24.31h-35c-.35,3.56-1.46,6.65-3.31,9.26-1.86,2.61-4.26,4.6-7.22,5.98-2.96,1.38-6.2,2.07-9.71,2.07-4.72,0-8.79-1.09-12.23-3.27-3.44-2.18-6.06-5.23-7.86-9.14-1.81-3.91-2.71-8.4-2.71-13.47s.9-9.56,2.71-13.47c1.81-3.91,4.43-6.96,7.86-9.15Zm300.95,35.79l-20.15,13.71,6.98-23.34,10.93-36.51-25.11-2.99v43.49l-25.99-46.58-30.38-3.62-14.99-1.78v95.95h31.16v-58.96l32.84,58.96h38.51v-40.91l-3.82,2.6Zm37.1-25.25l-14.34,9.76v53.8h34.62v-32.01l-20.28-31.55Zm197.72,31.73c2.1-1.61,5.07-3.47,8.88-5.57,6.57-3.61,11.84-7.15,15.8-10.61,3.97-3.47,6.89-7.2,8.77-11.22,1.88-4.01,2.83-8.57,2.83-13.69,0-6.82-1.49-12.76-4.48-17.8-2.99-5.05-7.35-8.93-13.1-11.67-5.75-2.74-12.71-4.1-20.89-4.1-8.68,0-16.19,1.63-22.54,4.89-6.35,3.26-11.24,7.78-14.68,13.55-3.44,5.77-5.28,12.31-5.53,19.64h31.69c-.1-3.91.86-6.91,2.86-8.99,2.01-2.08,4.6-3.12,7.75-3.12,1.7,0,3.2.31,4.48.94,1.28.63,2.27,1.52,2.97,2.67.7,1.15,1.05,2.53,1.05,4.14s-.38,3.08-1.13,4.41c-.76,1.33-2.12,2.76-4.1,4.28-1.98,1.53-4.78,3.28-8.39,5.23-10.09,5.47-17.77,10.98-23.03,16.52-4.87,5.13-8.31,10.74-10.3,16.82-.17.5-.32,1-.46,1.51-1.85,6.47-2.78,14.47-2.79,24.01h79.63v-25.51h-40.6c.21-.6.48-1.17.82-1.73.88-1.46,2.37-2.98,4.48-4.59Zm76.13-72.03c-1.46,4.97-3.56,9.08-6.32,12.34-2.76,3.26-6.26,5.75-10.5,7.45s-9.34,2.68-15.32,2.94v29.2c4.57.1,8.84-.39,12.83-1.47,3.89-1.05,7.31-2.65,10.27-4.78v58.18h32.44v-103.86h-23.41Zm-194.02,29.77c3.44-2.18,7.51-3.27,12.23-3.27,3.51,0,6.75.69,9.71,2.07,2.96,1.38,5.37,3.38,7.23,5.98,1.86,2.61,2.96,5.69,3.31,9.26h35c-.5-9.18-3.16-17.28-7.98-24.31-4.82-7.02-11.4-12.48-19.76-16.37-8.3-3.86-17.84-5.81-28.59-5.83l-36.87,13.03,11.59,92.38c7.58,3.18,15.95,4.77,25.09,4.77,10.84,0,20.43-1.94,28.79-5.83,8.35-3.89,14.94-9.34,19.76-16.37,4.82-7.02,7.48-15.13,7.98-24.31h-35c-.35,3.56-1.46,6.65-3.31,9.26-1.86,2.61-4.27,4.6-7.23,5.98-2.96,1.38-6.2,2.07-9.71,2.07-4.72,0-8.79-1.09-12.23-3.27-3.44-2.18-6.06-5.23-7.87-9.14-1.81-3.91-2.71-8.4-2.71-13.47s.9-9.56,2.71-13.47c1.81-3.91,4.43-6.96,7.87-9.15Z"/>
  </g>
</svg>