<?xml version="1.0" encoding="UTF-8"?><svg id="b" xmlns="http://www.w3.org/2000/svg" width="24" height="24" viewBox="0 0 24 24"><g id="c"><path d="M12,3.86c-3.49,0-8.23.91-8.23.91h0c-1.02.21-1.81,1.02-2.01,2.04h0S.07,16.01.07,16.01h0c-.05.23-.07.46-.07.7,0,1.89,1.54,3.43,3.43,3.43,1.02,0,1.92-.45,2.55-1.16h.01s1.3-1.42,1.3-1.42h9.43l1.3,1.42h.01c.63.7,1.53,1.15,2.55,1.15,1.89,0,3.43-1.54,3.43-3.43,0-.24-.03-.48-.07-.7h0s-1.69-9.2-1.69-9.2h0c-.19-1.03-.99-1.84-2.01-2.05,0,0,0,0,0,0,0,0-4.74-.91-8.23-.91ZM6,9c.47,0,.86.38.86.86v.86h.86c.47,0,.86.38.86.86s-.38.86-.86.86h-.86v.86c0,.47-.38.86-.86.86s-.86-.38-.86-.86v-.86h-.86c-.47,0-.86-.38-.86-.86s.38-.86.86-.86h.86v-.86c0-.47.38-.86.86-.86ZM18,9c.47,0,.86.38.86.86s-.38.86-.86.86-.86-.38-.86-.86.38-.86.86-.86ZM16.29,10.71c.47,0,.86.38.86.86s-.38.86-.86.86-.86-.38-.86-.86.38-.86.86-.86ZM19.71,10.71c.47,0,.86.38.86.86s-.38.86-.86.86-.86-.38-.86-.86.38-.86.86-.86ZM18,12.43c.47,0,.86.38.86.86s-.38.86-.86.86-.86-.38-.86-.86.38-.86.86-.86Z" style="fill:#666666;"/><rect width="24" height="24" style="fill:none;"/></g></svg>