<?xml version="1.0" encoding="utf-8"?>
<svg xmlns="http://www.w3.org/2000/svg" viewBox="0 0 30 30" fill="#000000"><path d="M 13 3 C 11.067 3 9.3177812 3.5 8.0507812 4 L 6 4 C 4.895 4 4 4.895 4 6 L 4 24 C 3.448 24 3 24.447 3 25 C 3 25.553 3.448 26 4 26 L 22 26 C 22.553 26 23 25.553 23 25 C 23 24.447 22.553 24 22 24 L 22 6 C 22 4.895 21.105 4 20 4 L 17.949219 4 C 16.682219 3.5 14.933 3 13 3 z M 27 6 C 25.895 6 25 6.895 25 8 C 25 8.7389464 25.404366 9.3763868 26 9.7226562 L 26 15 C 26 15.56503 25.56503 16 25 16 L 24 16 L 24 18 L 25 18 C 26.64497 18 28 16.64497 28 15 L 28 9.7226562 C 28.595634 9.3763868 29 8.7389464 29 8 C 29 6.895 28.105 6 27 6 z M 8 7 L 18 7 C 19.105 7 20 7.895 20 9 L 20 13 C 20 14.105 19.105 15 18 15 L 8 15 C 6.895 15 6 14.105 6 13 L 6 9 C 6 7.895 6.895 7 8 7 z M 8 9 L 8 13 L 10 13 L 10 9 L 8 9 z M 12 9 L 12 13 L 14 13 L 14 9 L 12 9 z M 16 9 L 16 13 L 18 13 L 18 9 L 16 9 z M 8 18 L 18 18 L 18 22 L 8 22 L 8 18 z" fill="#666666"/></svg>
