<?xml version="1.0" encoding="UTF-8"?>
<!-- Uploaded to: SVG Repo, www.svgrepo.com, Generator: SVG Repo Mixer Tools -->
<svg width="800px" height="800px" viewBox="0 0 32 32" version="1.1" xmlns="http://www.w3.org/2000/svg" xmlns:xlink="http://www.w3.org/1999/xlink">
    
    <title>roulette</title>
    <desc>Created with Sketch.</desc>
    <g id="icons" stroke="none" stroke-width="1" fill="none" fill-rule="evenodd">
        <g id="ui-gambling-website-lined-icnos-casinoshunter" transform="translate(-1644.000000, -414.000000)" fill="#1C1C1F" fill-rule="nonzero">
            <g id="1" transform="translate(1350.000000, 120.000000)">
                <path d="M301.294248,319.654671 C303.367339,321.525196 306.045865,322.737484 309.000433,322.962143 L309.000433,322.962143 L309.000703,325.969301 C305.218288,325.736217 301.791406,324.189005 299.170997,321.778603 L299.170997,321.778603 Z M318.982613,319.39751 L320.949747,321.363961 C321.003054,321.417268 321.060882,321.463298 321.122218,321.502031 C318.466977,324.07013 314.925065,325.727139 311.000299,325.96924 L311.000299,325.96924 L311.00057,322.962067 C314.088037,322.727064 316.874016,321.41358 318.982613,319.39751 L318.982613,319.39751 Z M310,299 C316.075132,299 321,303.924868 321,310 C321,316.075132 316.075132,321 310,321 C303.924868,321 299,316.075132 299,310 C299,303.924868 303.924868,299 310,299 Z M297.037933,311.00057 C297.245091,313.722203 298.290292,316.209562 299.916055,318.205164 L299.916055,318.205164 L297.786439,320.336328 C295.625803,317.785845 294.249702,314.549627 294.03076,311.000299 L294.03076,311.000299 Z M325.96924,311.000299 C325.758451,314.417451 324.475084,317.544377 322.450871,320.048771 C322.424444,320.014353 322.395474,319.98126 322.363961,319.949747 L322.363961,319.949747 L320.320332,317.906198 C321.810814,315.963525 322.765131,313.58791 322.962067,311.00057 L322.962067,311.00057 Z M308.585786,304.343146 C307.414214,303.171573 305.514719,303.171573 304.343146,304.343146 C303.171573,305.514719 303.171573,307.414214 304.343146,308.585786 C305.266805,309.509446 306.642915,309.704899 307.758058,309.172145 L307.758058,309.172145 L308.586494,309.999293 L307.758058,310.827855 C306.642915,310.295101 305.266805,310.490554 304.343146,311.414214 C303.171573,312.585786 303.171573,314.485281 304.343146,315.656854 C305.514719,316.828427 307.414214,316.828427 308.585786,315.656854 C309.509185,314.733456 309.704788,313.357864 309.172598,312.24289 L309.172598,312.24289 L310.000707,311.413506 L310.827855,312.241942 C310.295101,313.357085 310.490554,314.733195 311.414214,315.656854 C312.585786,316.828427 314.485281,316.828427 315.656854,315.656854 C316.828427,314.485281 316.828427,312.585786 315.656854,311.414214 C314.733456,310.490815 313.357864,310.295212 312.24289,310.827402 L312.24289,310.827402 L311.414921,309.999293 L312.24289,309.172598 C313.357864,309.704788 314.733456,309.509185 315.656854,308.585786 C316.828427,307.414214 316.828427,305.514719 315.656854,304.343146 C314.485281,303.171573 312.585786,303.171573 311.414214,304.343146 C310.490554,305.266805 310.295101,306.642915 310.827855,307.758058 L310.827855,307.758058 L310.000707,308.585079 L309.172598,307.75711 C309.704788,306.642136 309.509185,305.266544 308.585786,304.343146 Z M305.757359,312.828427 C306.147884,312.437903 306.781049,312.437903 307.171573,312.828427 C307.562097,313.218951 307.562097,313.852116 307.171573,314.242641 C306.781049,314.633165 306.147884,314.633165 305.757359,314.242641 C305.366835,313.852116 305.366835,313.218951 305.757359,312.828427 Z M312.828427,312.828427 C313.218951,312.437903 313.852116,312.437903 314.242641,312.828427 C314.633165,313.218951 314.633165,313.852116 314.242641,314.242641 C313.852116,314.633165 313.218951,314.633165 312.828427,314.242641 C312.437903,313.852116 312.437903,313.218951 312.828427,312.828427 Z M322.031716,299.452745 C324.297069,302.034859 325.744482,305.352396 325.969301,309.000703 L325.969301,309.000703 L322.962143,309.000433 C322.74768,306.179961 321.633203,303.611044 319.90526,301.580228 L319.90526,301.580228 Z M297.786439,299.663672 L299.916055,301.794836 C298.290093,303.790683 297.244834,306.278408 297.037857,309.000433 L297.037857,309.000433 L294.030699,309.000703 C294.249443,305.450982 295.625599,302.214396 297.786439,299.663672 L297.786439,299.663672 Z M305.757359,305.757359 C306.147884,305.366835 306.781049,305.366835 307.171573,305.757359 C307.562097,306.147884 307.562097,306.781049 307.171573,307.171573 C306.781049,307.562097 306.147884,307.562097 305.757359,307.171573 C305.366835,306.781049 305.366835,306.147884 305.757359,305.757359 Z M312.828427,305.757359 C313.218951,305.366835 313.852116,305.366835 314.242641,305.757359 C314.633165,306.147884 314.633165,306.781049 314.242641,307.171573 C313.852116,307.562097 313.218951,307.562097 312.828427,307.171573 C312.437903,306.781049 312.437903,306.147884 312.828427,305.757359 Z M309.000703,294.030699 L309.000433,297.037857 C306.046339,297.26248 303.368199,298.474415 301.295247,300.344428 L301.295247,300.344428 L299.170997,298.221397 C301.791406,295.810995 305.218288,294.263783 309.000703,294.030699 L309.000703,294.030699 Z M311.000299,294.03076 C314.683996,294.257991 318.030426,295.731653 320.623025,298.035181 L320.623025,298.035181 L318.496627,300.160647 C316.454186,298.39536 313.856347,297.255301 311.00057,297.037933 L311.00057,297.037933 Z" id="roulette">
</path>
            </g>
        </g>
    </g>
</svg>