<svg width="37" height="40" viewBox="0 0 37 40" fill="none" xmlns="http://www.w3.org/2000/svg">
<path d="M4.09233 39.8817H25.8933C26.3488 39.8838 26.8002 39.7961 27.2217 39.6235C27.6433 39.451 28.0267 39.197 28.35 38.8762C28.6733 38.5554 28.9302 38.174 29.106 37.7538C29.2817 37.3336 29.3729 36.8828 29.3744 36.4274V25.6083H34.8475C35.0464 25.602 35.2353 25.5193 35.3748 25.3773C35.5142 25.2352 35.5935 25.0449 35.5961 24.8459V16.3672C35.5923 16.1714 35.5117 15.9849 35.3717 15.8479C35.2316 15.711 35.0434 15.6346 34.8475 15.6352H34.0407V8.65131C34.7874 8.50202 35.4535 8.08412 35.9128 7.47673C36.3722 6.86934 36.5928 6.11462 36.5331 5.35545C36.4734 4.59628 36.1374 3.88536 35.5887 3.35728C35.04 2.8292 34.3168 2.52061 33.5559 2.48993C32.795 2.45926 32.0493 2.70863 31.4599 3.19083C30.8705 3.67304 30.4783 4.35461 30.3577 5.1065C30.2371 5.8584 30.3963 6.62843 30.8052 7.27083C31.2142 7.91322 31.8444 8.38338 32.5767 8.5923V15.6352H29.3744V4.35868C29.3729 3.9032 29.2817 3.45247 29.106 3.03227C28.9302 2.61207 28.6733 2.23065 28.35 1.90982C28.0267 1.58899 27.6433 1.33505 27.2217 1.16251C26.8002 0.989983 26.3488 0.90225 25.8933 0.904333H4.09233C3.63861 0.90289 3.18909 0.991302 2.7697 1.16447C2.35032 1.33764 1.96938 1.59213 1.64885 1.91327C1.32832 2.23441 1.07455 2.61584 0.902187 3.03555C0.729821 3.45527 0.642266 3.90496 0.644576 4.35868V36.4274C0.642266 36.8811 0.729821 37.3308 0.902187 37.7505C1.07455 38.1702 1.32832 38.5516 1.64885 38.8728C1.96938 39.1939 2.35032 39.4484 2.7697 39.6216C3.18909 39.7947 3.63861 39.8831 4.09233 39.8817ZM31.7824 5.60111C31.7824 5.27537 31.879 4.95696 32.0599 4.68612C32.2409 4.41528 32.4981 4.20419 32.799 4.07954C33.1 3.95489 33.4311 3.92227 33.7506 3.98582C34.0701 4.04937 34.3635 4.20622 34.5939 4.43655C34.8242 4.66688 34.981 4.96033 35.0446 5.27981C35.1081 5.59928 35.0755 5.93042 34.9509 6.23136C34.8262 6.5323 34.6151 6.78951 34.3443 6.97048C34.0735 7.15145 33.755 7.24804 33.4293 7.24804C32.9927 7.24753 32.5741 7.07385 32.2653 6.7651C31.9566 6.45635 31.7829 6.03774 31.7824 5.60111ZM25.8933 38.4178H4.09233C3.8308 38.4194 3.57154 38.369 3.32967 38.2695C3.0878 38.17 2.86815 38.0233 2.68352 37.8381C2.49888 37.6528 2.35296 37.4327 2.25424 37.1905C2.15552 36.9483 2.10598 36.6889 2.10851 36.4274V34.8494H27.9104V36.4274C27.9092 36.6907 27.856 36.9511 27.7539 37.1938C27.6518 37.4365 27.5027 37.6566 27.3153 37.8415C27.1279 38.0265 26.9058 38.1726 26.6618 38.2715C26.4177 38.3703 26.1566 38.4201 25.8933 38.4178ZM34.1322 17.0992V24.1444H29.3744V17.0992H34.1322ZM4.09233 2.36827H25.8933C26.1566 2.36597 26.4177 2.41568 26.6618 2.51457C26.9058 2.61345 27.1279 2.75955 27.3153 2.94448C27.5027 3.12942 27.6518 3.34955 27.7539 3.59223C27.856 3.83492 27.9092 4.09538 27.9104 4.35868V33.3855H2.10851V4.35868C2.10598 4.09715 2.15552 3.83773 2.25424 3.59553C2.35296 3.35333 2.49888 3.13319 2.68352 2.94795C2.86815 2.7627 3.0878 2.61605 3.32967 2.51653C3.57154 2.41701 3.8308 2.36661 4.09233 2.36827Z" fill="black"/>
<path d="M25.8975 13.4393C25.8975 13.2452 25.8204 13.059 25.6831 12.9217C25.5459 12.7845 25.3597 12.7073 25.1656 12.7073H4.8534C4.65927 12.7073 4.47309 12.7845 4.33582 12.9217C4.19855 13.059 4.12143 13.2452 4.12143 13.4393V23.6869C4.12143 23.881 4.19855 24.0672 4.33582 24.2045C4.47309 24.3417 4.65927 24.4188 4.8534 24.4188H25.1656C25.3597 24.4188 25.5459 24.3417 25.6831 24.2045C25.8204 24.0672 25.8975 23.881 25.8975 23.6869V13.4393ZM12.0816 22.9549V14.1713H17.9374V22.9549H12.0816ZM24.4336 22.9549H19.4013V14.1713H24.4336V22.9549ZM5.58537 14.1713H10.6177V22.9549H5.58537V14.1713Z" fill="black"/>
<path d="M4.85285 27.9872H25.1328C25.3269 27.9872 25.5131 27.9101 25.6504 27.7728C25.7876 27.6355 25.8648 27.4494 25.8648 27.2552C25.8648 27.0611 25.7876 26.8749 25.6504 26.7376C25.5131 26.6004 25.3269 26.5233 25.1328 26.5233H4.85285C4.65872 26.5233 4.47254 26.6004 4.33527 26.7376C4.198 26.8749 4.12088 27.0611 4.12088 27.2552C4.12088 27.4494 4.198 27.6355 4.33527 27.7728C4.47254 27.9101 4.65872 27.9872 4.85285 27.9872Z" fill="black"/>
<path d="M4.85285 10.6029H25.1328C25.3269 10.6029 25.5131 10.5258 25.6504 10.3885C25.7876 10.2513 25.8648 10.0651 25.8648 9.87096C25.8648 9.67683 25.7876 9.49065 25.6504 9.35338C25.5131 9.21611 25.3269 9.13899 25.1328 9.13899H4.85285C4.65872 9.13899 4.47254 9.21611 4.33527 9.35338C4.198 9.49065 4.12088 9.67683 4.12088 9.87096C4.12088 10.0651 4.198 10.2513 4.33527 10.3885C4.47254 10.5258 4.65872 10.6029 4.85285 10.6029Z" fill="black"/>
</svg>
