<svg width="41" height="42" viewBox="0 0 41 42" fill="none" xmlns="http://www.w3.org/2000/svg">
<path d="M0.383462 16.6849C0.383462 16.6849 0.383136 16.6838 0.382891 16.6827L0.328125 16.5391L0.383462 16.6849Z" fill="black"/>
<path d="M0.714844 13.4545L1.62583 12.8595C1.62631 12.8595 1.6268 12.859 1.62737 12.8584L0.714844 13.4545Z" fill="black"/>
<path d="M38.458 21.3641C38.4132 21.2471 38.3909 21.1236 38.3909 21.0001C38.3909 20.8762 38.4132 20.7522 38.4582 20.6341L39.833 17.0257L39.9623 16.6857C40.1041 16.3138 40.1727 15.9259 40.1727 15.5443C40.1732 14.486 39.6464 13.4648 38.7192 12.8587L38.2629 12.5607L35.179 10.5471C34.9696 10.4098 34.8166 10.1986 34.7511 9.95647L33.647 5.87775C33.266 4.47354 31.9942 3.5082 30.5519 3.5082C30.4974 3.5082 30.4431 3.50926 30.3886 3.51244L26.1846 3.72262V3.72213L26.1215 3.72376C25.8855 3.72376 25.658 3.6439 25.475 3.49655L22.3971 1.01739L22.1854 0.847138C21.5996 0.374044 20.8839 0.136233 20.173 0.136722C19.4623 0.135663 18.7464 0.374044 18.1602 0.847138L18.161 0.846568L15.2104 3.22304L14.8715 3.49606C14.6876 3.64398 14.4593 3.72385 14.2244 3.72385L14.1695 3.72262L9.96791 3.51301L9.96522 3.51244C9.90002 3.50869 9.84281 3.5082 9.79391 3.5082C8.35132 3.5082 7.07979 4.47346 6.69879 5.87775L5.59457 9.95647C5.52889 10.1996 5.3751 10.4114 5.16443 10.5492L4.86028 10.7477L1.62531 12.8597C0.698594 13.4664 0.172363 14.4869 0.172852 15.5448C0.172852 15.9258 0.241229 16.3121 0.382546 16.6835L1.8874 20.634L1.88765 20.6345C1.93231 20.7516 1.95496 20.8761 1.95496 21.0001C1.95496 21.1241 1.93263 21.2481 1.88765 21.3652L0.383116 25.3146L0.383361 25.3141C0.241555 25.686 0.172852 26.0735 0.172852 26.455C0.172363 27.5134 0.698594 28.535 1.62661 29.1416L4.2523 30.8562L5.16516 31.4522C5.37567 31.5894 5.52889 31.8002 5.59457 32.0438L6.69879 36.1221C7.07946 37.5263 8.35156 38.4916 9.79391 38.4921C9.84281 38.4916 9.89611 38.491 9.95299 38.4879L9.83221 38.4942L14.1874 38.2766H14.1853L14.226 38.276C14.4596 38.276 14.6871 38.3559 14.8706 38.5038L18.1608 41.1543H18.161C18.7466 41.6263 19.4621 41.8641 20.173 41.8637C20.8836 41.8642 21.5993 41.6263 22.1852 41.1538L25.7582 38.2755L25.4756 38.5033C25.6592 38.3553 25.8862 38.276 26.12 38.276L26.1689 38.2771L30.4222 38.4894L30.4009 38.4884C30.4472 38.4905 30.4975 38.4916 30.552 38.4921C31.9938 38.4916 33.2664 37.5268 33.6472 36.1221L34.7513 32.0438C34.817 31.8002 34.97 31.59 35.1801 31.4526L38.7212 29.1406C39.6474 28.5339 40.1733 27.5134 40.1729 26.4554C40.1729 26.0739 40.1042 25.6859 39.9621 25.3135L38.458 21.3641ZM36.4218 19.8582C36.2817 20.2259 36.2114 20.6133 36.2114 21.0001C36.2114 21.3876 36.2817 21.7749 36.4218 22.1427L37.9254 26.0904L37.9256 26.091C37.9717 26.2118 37.9932 26.3342 37.9932 26.4555C37.9926 26.795 37.8251 27.1228 37.5274 27.317L33.9895 29.627H33.9898C33.3308 30.0569 32.8529 30.7147 32.6472 31.4746L31.5431 35.5527C31.422 36.0029 31.0123 36.3126 30.552 36.312L30.4908 36.3104L30.4754 36.3099L26.2804 36.1008H26.2833C26.2317 36.0976 26.1772 36.0966 26.12 36.096C25.3892 36.096 24.6787 36.3461 24.1075 36.8064L23.8247 37.0347L20.8177 39.4569C20.6283 39.6096 20.4032 39.6841 20.1731 39.6841C19.9432 39.6841 19.7178 39.6096 19.5282 39.4569L16.2383 36.8064C15.6673 36.3467 14.9572 36.0966 14.2261 36.0966C14.1771 36.0966 14.1199 36.0971 14.0544 36.1008V36.1014L9.8459 36.3115L9.84721 36.3111L9.79407 36.3121C9.33426 36.3126 8.924 36.0029 8.80298 35.5528L7.69884 31.4746C7.49314 30.7148 7.01532 30.0571 6.35625 29.6271L3.73104 27.9131L2.81876 27.3171C2.52129 27.1234 2.35316 26.7951 2.35259 26.455C2.35284 26.3331 2.37419 26.2108 2.41991 26.0911L3.92444 22.1422L3.92419 22.1427C4.06437 21.7745 4.13462 21.3877 4.13462 21.0002C4.13462 20.6129 4.0647 20.2255 3.92419 19.8578L2.47541 16.0557L2.42007 15.9109C2.37402 15.7896 2.35275 15.6667 2.35243 15.5449C2.353 15.2048 2.52088 14.8775 2.81827 14.6839L6.35641 12.374L6.35698 12.3734C7.01565 11.9425 7.49306 11.2853 7.69876 10.5259L8.80289 6.44718C8.92367 5.99755 9.33451 5.68729 9.79399 5.68786L9.83498 5.68835L14.0655 5.89959L14.0701 5.90016C14.1214 5.90228 14.1731 5.90342 14.2245 5.90391C14.9553 5.90391 15.666 5.65428 16.2375 5.19456L19.5289 2.54351C19.7181 2.39079 19.9429 2.31679 20.1731 2.3163C20.403 2.3163 20.6281 2.39079 20.8175 2.54351L20.6054 2.3727L24.1081 5.19398C24.6804 5.65477 25.3918 5.90334 26.1217 5.90334C26.1759 5.90334 26.2246 5.90171 26.2677 5.90065H26.2563L30.5003 5.68884H30.5031L30.5521 5.68778C31.0119 5.68721 31.4224 5.99747 31.5431 6.44709L32.6473 10.5258C32.853 11.2851 33.3302 11.9423 33.989 12.3734L37.9839 14.9818L37.5274 14.6838C37.8251 14.8775 37.9927 15.2048 37.9932 15.5443C37.9932 15.6662 37.9717 15.7886 37.9254 15.9104L36.2276 20.3669L36.4218 19.8582Z" fill="black"/>
<path d="M15.295 18.5786L14.1717 18.7994C14.1126 18.8116 14.0801 18.8584 14.0919 18.9186L14.9276 23.1707L14.8789 23.1808L11.6575 19.3975C11.6042 19.3358 11.5393 19.3171 11.4696 19.331L10.2768 19.5657C10.2177 19.5774 10.1853 19.6242 10.1981 19.6843L11.4871 26.2406C11.4985 26.3007 11.5462 26.3332 11.6053 26.3214L12.7286 26.1006C12.7877 26.0884 12.8201 26.041 12.8087 25.9809L11.974 21.7388L12.0237 21.7292L15.2521 25.5009C15.3053 25.5626 15.3611 25.5823 15.441 25.5674L16.6234 25.3343C16.6825 25.3226 16.7149 25.2752 16.7022 25.2151L15.4134 18.6583C15.4017 18.5983 15.3541 18.5669 15.295 18.5786Z" fill="black"/>
<path d="M22.1998 22.928L19.2878 23.5006C19.2484 23.5091 19.2242 23.4932 19.2173 23.4532L18.9414 22.0521C18.9331 22.0128 18.9494 21.9894 18.9888 21.9809L21.4139 21.5041C21.473 21.4924 21.5054 21.4455 21.494 21.386L21.2865 20.3329C21.2748 20.2739 21.2272 20.2414 21.1681 20.2526L18.7432 20.7299C18.7038 20.7373 18.6793 20.7208 18.6714 20.6815L18.408 19.3405C18.4001 19.3006 18.4163 19.2766 18.4556 19.2692L21.3676 18.6966C21.4267 18.6849 21.4592 18.6375 21.4464 18.5779L21.2377 17.5154C21.226 17.4552 21.1786 17.4233 21.1193 17.435L16.7875 18.287C16.7272 18.2987 16.6958 18.3461 16.7075 18.4061L17.9966 24.963C18.0093 25.0226 18.0556 25.0545 18.116 25.0428L22.4477 24.1909C22.5071 24.1791 22.5395 24.1318 22.5268 24.0722L22.3179 23.009C22.3066 22.9492 22.2589 22.9163 22.1998 22.928Z" fill="black"/>
<path d="M30.0521 15.6778L28.7804 15.9278C28.7109 15.9412 28.6772 15.9795 28.6806 16.0513L28.5811 20.4759L28.5601 20.4797L26.5351 16.4732C26.5027 16.4163 26.455 16.3849 26.3959 16.3966L25.5312 16.5664C25.4628 16.5802 25.4304 16.627 25.4222 16.692L25.1034 21.1597L25.0837 21.1639L23.2753 17.1134C23.2545 17.0549 23.2069 17.0241 23.1374 17.0378L21.8553 17.289C21.7859 17.3029 21.7741 17.3466 21.7962 17.4045L24.8333 23.6171C24.8658 23.6729 24.9132 23.7054 24.9725 23.6937L25.966 23.4978C26.0354 23.4846 26.0679 23.4366 26.0758 23.3733L26.4318 18.9386L26.4515 18.9349L28.45 22.9062C28.4813 22.962 28.529 22.9945 28.5984 22.9807L29.5919 22.7848C29.6613 22.772 29.7031 22.7221 29.7021 22.6597L30.1507 15.7613C30.1482 15.6991 30.1216 15.664 30.0521 15.6778Z" fill="black"/>
</svg>
