<?xml version="1.0" encoding="UTF-8"?>
<svg version="1.1" viewBox="0 0 1000 1000" width="1000" height="1000" xmlns="http://www.w3.org/2000/svg">
<path transform="translate(480,61)" d="m0 0h41l27 2 28 4 29 6 25 7 24 8 29 12 30 15 17 10 24 16 19 14 14 12 10 9 8 7 19 19 7 8 12 14 15 20 16 24 14 24 14 28 11 27 10 30 8 32 6 36 2 19 1 16v41l-2 26-5 35-7 31-9 30-10 26-9 20-12 24-10 17-16 24-14 19-12 14-9 10-7 8-19 19-8 7-14 12-20 15-24 16-17 10-23 12-19 9-26 10-24 8-32 8-36 6-19 2-16 1h-42l-34-3-36-6-32-8-30-10-29-12-30-15-17-10-27-18-17-13-13-11-10-9-8-7-19-19-7-8-12-14-15-20-16-24-10-17-12-23-9-19-9-23-9-27-8-32-6-36-2-19-1-16v-41l2-27 4-28 6-29 7-25 9-27 12-28 14-28 15-25 11-16 14-19 12-14 9-10 7-8 19-19 8-7 14-12 20-15 24-16 17-10 23-12 19-9 31-12 30-9 31-7 26-4 19-2zm0 43-32 3-30 5-28 7-30 10-26 11-24 12-22 13-19 13-13 10-11 9-14 12-25 25-9 11-11 13-13 18-11 17-12 21-12 24-11 28-8 24-7 28-5 29-3 33v41l3 33 5 29 7 28 10 30 11 26 12 24 13 22 13 19 10 13 9 11 12 14 25 25 11 9 13 11 18 13 17 11 21 12 24 12 28 11 24 8 28 7 30 5 32 3h41l32-3 30-5 28-7 30-10 26-11 26-13 20-12 19-13 13-10 11-9 14-12 25-25 9-11 11-13 13-18 11-17 12-21 12-24 13-33 9-30 6-28 4-27 2-24v-41l-3-33-5-29-7-28-10-30-11-26-12-24-13-22-13-19-10-13-9-11-12-14-25-25-11-9-13-11-18-13-17-11-21-12-24-12-28-11-24-8-28-7-30-5-32-3z" fill="#95D2B2"/>
<path transform="translate(486,326)" d="m0 0h27l21 3 19 5 16 6 16 8 16 10 13 11 8 7 7 7 11 14 10 15 12 25 6 19 4 21 1 10v25l-3 22-5 19-6 16-8 16-10 16-11 13-7 8-7 7-14 11-15 10-16 8-15 6-17 5-17 3-9 1h-27l-21-3-19-5-16-6-16-8-16-10-13-11-8-7-7-7-11-14-10-15-12-25-6-19-4-21-1-10v-25l3-22 5-19 6-16 12-23 10-14 12-14 9-9 14-11 15-10 16-8 15-6 17-5 17-3z" fill="#95D2B2"/>
</svg>
