<?xml version="1.0" encoding="iso-8859-1"?>
<!-- Uploaded to: SVG Repo, www.svgrepo.com, Generator: SVG Repo Mixer Tools -->
<!DOCTYPE svg PUBLIC "-//W3C//DTD SVG 1.1//EN" "http://www.w3.org/Graphics/SVG/1.1/DTD/svg11.dtd">
<svg fill="#000000" version="1.1" id="Capa_1" xmlns="http://www.w3.org/2000/svg" xmlns:xlink="http://www.w3.org/1999/xlink" 
	 width="800px" height="800px" viewBox="0 0 478.813 478.812"
	 xml:space="preserve">
<g>
	<g>
		<path d="M364.351,175.932v-18.992c0-3.3-2.696-5.994-5.997-5.994V21.993C358.354,9.859,348.488,0,336.362,0H136.449
			c-12.134,0-21.993,9.859-21.993,21.993v434.822c0,12.132,9.859,21.998,21.993,21.998h199.917c12.126,0,21.992-9.866,21.992-21.998
			v-43.976c3.306,0,5.997-2.686,5.997-5.996v-41.98c0-3.311-2.691-5.997-5.997-5.997v-88.971c3.306,0,5.997-2.696,5.997-5.997
			v-64.976c0-3.311-2.691-5.997-5.997-5.997v-10.996C361.665,181.929,364.351,179.242,364.351,175.932z M352.357,169.937
			c-3.301,0-5.997,2.694-5.997,5.995v22.99c0,3.309,2.696,5.995,5.997,5.995v52.979c-3.301,0-5.997,2.686-5.997,5.996v100.956
			c0,3.306,2.696,5.991,5.997,5.991v29.991c-3.301,0-5.997,2.696-5.997,5.997v49.982c0,5.515-4.483,9.993-9.998,9.993H136.449
			c-5.515,0-10.001-4.479-10.001-9.993V21.993c0-5.515,4.479-10.001,10.001-10.001h199.917c5.505,0,10.003,4.479,10.003,10.001
			v134.939c0,3.311,2.691,5.997,5.992,5.997v7.008H352.357z"/>
		<path d="M335.188,26.931H138.354c-4.898,0-8.887,3.989-8.887,8.887v412.771c0,4.896,3.989,8.887,8.887,8.887h196.834
			c4.9,0,8.887-3.991,8.887-8.887V35.817C344.075,30.92,340.088,26.931,335.188,26.931z M342.105,448.588
			c0,3.804-3.108,6.911-6.917,6.911H138.354c-3.809,0-6.914-3.107-6.914-6.911V35.817c0-3.809,3.105-6.911,6.914-6.911h196.834
			c3.809,0,6.917,3.103,6.917,6.911V448.588z"/>
		<path d="M331.238,71.059H140.992c-1.635,0-2.961,1.328-2.961,2.963v312.707v28.97c0,1.635,1.326,2.961,2.961,2.961h190.246
			c1.635,0,2.966-1.326,2.966-2.961v-28.97V74.021C334.204,72.387,332.873,71.059,331.238,71.059z M328.278,412.732H143.955v-23.044
			h184.323V412.732z M328.278,383.768H143.955V76.984h184.323V383.768z"/>
		<path d="M219.652,42.739h33.897c1.636,0,2.966-1.328,2.966-2.963c0-1.635-1.33-2.963-2.966-2.963h-33.897
			c-1.635,0-2.963,1.328-2.963,2.963C216.689,41.418,218.017,42.739,219.652,42.739z"/>
		<circle cx="156.129" cy="39.776" r="5.926"/>
		<circle cx="172.917" cy="39.776" r="2.963"/>
		<circle cx="186.079" cy="39.776" r="2.963"/>
		<path d="M164.596,398.87h4.725c1.437,0,2.608,1.132,2.608,2.514c0,1.396-1.171,2.528-2.608,2.528h-4.628
			c-0.389,0-0.696,0.31-0.696,0.681c0,0.386,0.307,0.695,0.696,0.695h4.628c2.189,0,3.981-1.757,3.981-3.904
			c0-2.144-1.792-3.891-3.981-3.891h-4.725l0.145-0.335l-2.427,1.016l2.427,1.021L164.596,398.87z"/>
		<path d="M234.482,402.14v3.428c0,0.214,0.181,0.406,0.417,0.406h2.158c0.229,0,0.419-0.183,0.419-0.406v-2.787h0.955v2.787
			c0,0.214,0.183,0.406,0.419,0.406h1.849c0.229,0,0.419-0.183,0.419-0.406v-3.428h1.896c0.183,0,0.325-0.111,0.401-0.259
			c0.051-0.167,0.015-0.34-0.107-0.467l-5.184-4.829c-0.158-0.157-0.404-0.157-0.569,0l-4.954,4.844
			c-0.127,0.112-0.157,0.295-0.094,0.452c0.045,0.157,0.198,0.259,0.371,0.259H234.482z M237.861,397.448l4.116,3.854h-1.279
			c-0.213,0-0.419,0.184-0.419,0.422v3.428h-1.019v-2.798c0-0.229-0.183-0.417-0.419-0.417h-1.792c-0.231,0-0.419,0.178-0.419,0.417
			v2.798h-1.343v-3.428c0-0.233-0.18-0.422-0.403-0.422h-1.003L237.861,397.448z"/>
		<path d="M301.08,404.755h6.23c0.437,0,0.808-0.345,0.808-0.797v-1.082h1.808v-2.274v-2.275h-7.51v1.483h-1.331
			c-0.432,0-0.787,0.355-0.787,0.797v3.361C300.288,404.41,300.643,404.755,301.08,404.755z M301.862,401.398h4.646v1.777h-4.646
			V401.398z"/>
	</g>
</g>
</svg>