<svg width="32" height="44" viewBox="0 0 32 44" fill="none" xmlns="http://www.w3.org/2000/svg">
<path fill-rule="evenodd" clip-rule="evenodd" d="M31.5493 43.068H0.739812V0.767969H31.5493V43.068ZM30.4913 9.9184V1.82594H1.79778V9.9184L13.7786 14.0685C13.8199 14.085 13.8312 14.0878 13.8697 14.1103C14.233 14.32 14.1804 15.0203 13.6803 15.0917C13.5976 15.1039 13.5139 15.0922 13.4322 15.0682L1.79778 11.0379V42.01H3.85544V34.5727C3.86061 34.4482 3.87283 34.428 3.89398 34.3748C3.97952 34.1633 4.20465 34.0289 4.44529 34.0473C4.70332 34.0872 4.90354 34.3081 4.91388 34.5727V42.01H6.79576V34.5727C6.80563 34.3109 7.00585 34.0769 7.26388 34.0473C7.34143 34.0383 7.36023 34.0454 7.38514 34.0473C7.64364 34.0872 7.84339 34.3081 7.85373 34.5727V42.01H9.73561V34.5727C9.74548 34.3109 9.9457 34.0769 10.2037 34.0473C10.2813 34.0383 10.3001 34.0454 10.3255 34.0473C10.583 34.0872 10.7837 34.3081 10.7936 34.5727V42.01H12.6755V34.5727C12.6853 34.3109 12.8856 34.0769 13.1441 34.0473C13.2211 34.0383 13.2399 34.0454 13.2653 34.0473C13.5233 34.0872 13.7236 34.3081 13.7334 34.5727V42.01H15.6153V34.5727C15.6205 34.4482 15.6327 34.428 15.6539 34.3748C15.7394 34.1633 15.9645 34.0289 16.2052 34.0473C16.4632 34.0872 16.6634 34.3081 16.6738 34.5727V42.01H18.5556V34.5727C18.5603 34.4482 18.5726 34.428 18.5937 34.3748C18.6792 34.1633 18.9048 34.0289 19.145 34.0473C19.403 34.0872 19.6033 34.3081 19.6136 34.5727V42.01H21.4955V34.5727C21.5054 34.3109 21.7056 34.0769 21.9636 34.0473C22.0412 34.0383 22.06 34.0454 22.0853 34.0473C22.3429 34.0872 22.5431 34.3081 22.5535 34.5727V42.01H24.4353V34.5727C24.44 34.4482 24.4523 34.428 24.4739 34.3748C24.5589 34.1633 24.7845 34.0289 25.0252 34.0473C25.2832 34.0872 25.4834 34.3081 25.4933 34.5727V42.01H27.3752V34.5727C27.3799 34.4482 27.3926 34.428 27.4137 34.3748C27.4988 34.1633 27.7244 34.0289 27.965 34.0473C28.2231 34.0872 28.4233 34.3081 28.4336 34.5727V42.01H30.4913V11.0379L18.8569 15.0682C18.8141 15.0809 18.8038 15.0856 18.7591 15.0917C18.339 15.1523 17.9625 14.5582 18.3009 14.2034C18.3587 14.1428 18.4316 14.1 18.5105 14.0685L30.4913 9.9184ZM19.224 30.5476C19.662 30.5476 20.0178 30.1919 20.0178 29.7538C20.0178 29.3153 19.662 28.9595 19.224 28.9595C18.7855 28.9595 18.4297 29.3153 18.4297 29.7538C18.4297 30.1919 18.7855 30.5476 19.224 30.5476ZM10.067 30.5476C10.5055 30.5476 10.8613 30.1919 10.8613 29.7538C10.8613 29.3153 10.5055 28.9595 10.067 28.9595C9.62892 28.9595 9.27313 29.3153 9.27313 29.7538C9.27313 30.1919 9.62892 30.5476 10.067 30.5476ZM28.3805 30.5476C28.8186 30.5476 29.1743 30.1919 29.1743 29.7538C29.1743 29.3153 28.8186 28.9595 28.3805 28.9595C27.9425 28.9595 27.5867 29.3153 27.5867 29.7538C27.5867 30.1919 27.9425 30.5476 28.3805 30.5476ZM3.9626 30.5476C4.40111 30.5476 4.75643 30.1919 4.75643 29.7538C4.75643 29.3153 4.40111 28.9595 3.9626 28.9595C3.52456 28.9595 3.16877 29.3153 3.16877 29.7538C3.16877 30.1919 3.52456 30.5476 3.9626 30.5476ZM7.01478 30.5476C7.45329 30.5476 7.80908 30.1919 7.80908 29.7538C7.80908 29.3153 7.45329 28.9595 7.01478 28.9595C6.57674 28.9595 6.22095 29.3153 6.22095 29.7538C6.22095 30.1919 6.57674 30.5476 7.01478 30.5476ZM16.1718 30.5476C16.6098 30.5476 16.9656 30.1919 16.9656 29.7538C16.9656 29.3153 16.6098 28.9595 16.1718 28.9595C15.7333 28.9595 15.3775 29.3153 15.3775 29.7538C15.3775 30.1919 15.7333 30.5476 16.1718 30.5476ZM25.3283 30.5476C25.7664 30.5476 26.1222 30.1919 26.1222 29.7538C26.1222 29.3153 25.7664 28.9595 25.3283 28.9595C24.8903 28.9595 24.5345 29.3153 24.5345 29.7538C24.5345 30.1919 24.8903 30.5476 25.3283 30.5476ZM13.1196 30.5476C13.5577 30.5476 13.9134 30.1919 13.9134 29.7538C13.9134 29.3153 13.5577 28.9595 13.1196 28.9595C12.6811 28.9595 12.3253 29.3153 12.3253 29.7538C12.3253 30.1919 12.6811 30.5476 13.1196 30.5476ZM22.2762 30.5476C22.7142 30.5476 23.07 30.1919 23.07 29.7538C23.07 29.3153 22.7142 28.9595 22.2762 28.9595C21.8381 28.9595 21.4823 29.3153 21.4823 29.7538C21.4823 30.1919 21.8381 30.5476 22.2762 30.5476ZM26.8272 26.1715C27.2657 26.1715 27.6215 26.5273 27.6215 26.9653C27.6215 27.4033 27.2657 27.7591 26.8272 27.7591C26.3891 27.7591 26.0333 27.4033 26.0333 26.9653C26.0333 26.5273 26.3891 26.1715 26.8272 26.1715ZM11.5663 26.1715C12.0043 26.1715 12.3601 26.5273 12.3601 26.9653C12.3601 27.4033 12.0043 27.7591 11.5663 27.7591C11.1278 27.7591 10.7724 27.4033 10.7724 26.9653C10.7724 26.5273 11.1278 26.1715 11.5663 26.1715ZM17.6706 26.1715C18.1087 26.1715 18.4645 26.5273 18.4645 26.9653C18.4645 27.4033 18.1087 27.7591 17.6706 27.7591C17.2326 27.7591 16.8768 27.4033 16.8768 26.9653C16.8768 26.5273 17.2326 26.1715 17.6706 26.1715ZM5.4619 26.1715C5.89994 26.1715 6.25573 26.5273 6.25573 26.9653C6.25573 27.4033 5.89994 27.7591 5.4619 27.7591C5.02339 27.7591 4.6676 27.4033 4.6676 26.9653C4.6676 26.5273 5.02339 26.1715 5.4619 26.1715ZM23.775 26.1715C24.2135 26.1715 24.5693 26.5273 24.5693 26.9653C24.5693 27.4033 24.2135 27.7591 23.775 27.7591C23.3369 27.7591 22.9812 27.4033 22.9812 26.9653C22.9812 26.5273 23.3369 26.1715 23.775 26.1715ZM20.7228 26.1715C21.1613 26.1715 21.5166 26.5273 21.5166 26.9653C21.5166 27.4033 21.1613 27.7591 20.7228 27.7591C20.2848 27.7591 19.929 27.4033 19.929 26.9653C19.929 26.5273 20.2848 26.1715 20.7228 26.1715ZM8.51408 26.1715C8.95212 26.1715 9.30791 26.5273 9.30791 26.9653C9.30791 27.4033 8.95212 27.7591 8.51408 27.7591C8.07557 27.7591 7.71978 27.4033 7.71978 26.9653C7.71978 26.5273 8.07557 26.1715 8.51408 26.1715ZM14.6184 26.1715C15.0565 26.1715 15.4123 26.5273 15.4123 26.9653C15.4123 27.4033 15.0565 27.7591 14.6184 27.7591C14.1804 27.7591 13.8246 27.4033 13.8246 26.9653C13.8246 26.5273 14.1804 26.1715 14.6184 26.1715ZM16.1445 23.383C16.5826 23.383 16.9384 23.7388 16.9384 24.1768C16.9384 24.6153 16.5826 24.9711 16.1445 24.9711C15.7065 24.9711 15.3507 24.6153 15.3507 24.1768C15.3507 23.7388 15.7065 23.383 16.1445 23.383ZM22.2489 23.383C22.6874 23.383 23.0432 23.7388 23.0432 24.1768C23.0432 24.6153 22.6874 24.9711 22.2489 24.9711C21.8109 24.9711 21.4551 24.6153 21.4551 24.1768C21.4551 23.7388 21.8109 23.383 22.2489 23.383ZM6.98799 23.383C7.42603 23.383 7.78182 23.7388 7.78182 24.1768C7.78182 24.6153 7.42603 24.9711 6.98799 24.9711C6.54948 24.9711 6.19369 24.6153 6.19369 24.1768C6.19369 23.7388 6.54948 23.383 6.98799 23.383ZM3.93581 23.383C4.37385 23.383 4.72964 23.7388 4.72964 24.1768C4.72964 24.6153 4.37385 24.9711 3.93581 24.9711C3.4973 24.9711 3.14151 24.6153 3.14151 24.1768C3.14151 23.7388 3.4973 23.383 3.93581 23.383ZM25.3011 23.383C25.7396 23.383 26.0954 23.7388 26.0954 24.1768C26.0954 24.6153 25.7396 24.9711 25.3011 24.9711C24.863 24.9711 24.5072 24.6153 24.5072 24.1768C24.5072 23.7388 24.863 23.383 25.3011 23.383ZM13.0924 23.383C13.5304 23.383 13.8862 23.7388 13.8862 24.1768C13.8862 24.6153 13.5304 24.9711 13.0924 24.9711C12.6543 24.9711 12.2985 24.6153 12.2985 24.1768C12.2985 23.7388 12.6543 23.383 13.0924 23.383ZM19.1967 23.383C19.6348 23.383 19.9905 23.7388 19.9905 24.1768C19.9905 24.6153 19.6348 24.9711 19.1967 24.9711C18.7587 24.9711 18.4029 24.6153 18.4029 24.1768C18.4029 23.7388 18.7587 23.383 19.1967 23.383ZM10.0402 23.383C10.4782 23.383 10.834 23.7388 10.834 24.1768C10.834 24.6153 10.4782 24.9711 10.0402 24.9711C9.60166 24.9711 9.24587 24.6153 9.24587 24.1768C9.24587 23.7388 9.60166 23.383 10.0402 23.383ZM28.3533 23.383C28.7918 23.383 29.1476 23.7388 29.1476 24.1768C29.1476 24.6153 28.7918 24.9711 28.3533 24.9711C27.9152 24.9711 27.5594 24.6153 27.5594 24.1768C27.5594 23.7388 27.9152 23.383 28.3533 23.383ZM5.4619 20.5944C5.89994 20.5944 6.25573 20.9502 6.25573 21.3888C6.25573 21.8268 5.89994 22.1826 5.4619 22.1826C5.02339 22.1826 4.6676 21.8268 4.6676 21.3888C4.6676 20.9502 5.02339 20.5944 5.4619 20.5944ZM26.8272 20.5944C27.2657 20.5944 27.6215 20.9502 27.6215 21.3888C27.6215 21.8268 27.2657 22.1826 26.8272 22.1826C26.3891 22.1826 26.0333 21.8268 26.0333 21.3888C26.0333 20.9502 26.3891 20.5944 26.8272 20.5944ZM8.51408 20.5944C8.95212 20.5944 9.30791 20.9502 9.30791 21.3888C9.30791 21.8268 8.95212 22.1826 8.51408 22.1826C8.07557 22.1826 7.71978 21.8268 7.71978 21.3888C7.71978 20.9502 8.07557 20.5944 8.51408 20.5944ZM11.5663 20.5944C12.0043 20.5944 12.3601 20.9502 12.3601 21.3888C12.3601 21.8268 12.0043 22.1826 11.5663 22.1826C11.1278 22.1826 10.7724 21.8268 10.7724 21.3888C10.7724 20.9502 11.1278 20.5944 11.5663 20.5944ZM20.7228 20.5944C21.1613 20.5944 21.5166 20.9502 21.5166 21.3888C21.5166 21.8268 21.1613 22.1826 20.7228 22.1826C20.2848 22.1826 19.929 21.8268 19.929 21.3888C19.929 20.9502 20.2848 20.5944 20.7228 20.5944ZM17.6706 20.5944C18.1087 20.5944 18.4645 20.9502 18.4645 21.3888C18.4645 21.8268 18.1087 22.1826 17.6706 22.1826C17.2326 22.1826 16.8768 21.8268 16.8768 21.3888C16.8768 20.9502 17.2326 20.5944 17.6706 20.5944ZM23.775 20.5944C24.2135 20.5944 24.5693 20.9502 24.5693 21.3888C24.5693 21.8268 24.2135 22.1826 23.775 22.1826C23.3369 22.1826 22.9812 21.8268 22.9812 21.3888C22.9812 20.9502 23.3369 20.5944 23.775 20.5944ZM14.6184 20.5944C15.0565 20.5944 15.4123 20.9502 15.4123 21.3888C15.4123 21.8268 15.0565 22.1826 14.6184 22.1826C14.1804 22.1826 13.8246 21.8268 13.8246 21.3888C13.8246 20.9502 14.1804 20.5944 14.6184 20.5944ZM22.2489 17.8064C22.6874 17.8064 23.0432 18.1622 23.0432 18.6002C23.0432 19.0383 22.6874 19.3941 22.2489 19.3941C21.8109 19.3941 21.4551 19.0383 21.4551 18.6002C21.4551 18.1622 21.8109 17.8064 22.2489 17.8064ZM16.1445 17.8064C16.5826 17.8064 16.9384 18.1622 16.9384 18.6002C16.9384 19.0383 16.5826 19.3941 16.1445 19.3941C15.7065 19.3941 15.3507 19.0383 15.3507 18.6002C15.3507 18.1622 15.7065 17.8064 16.1445 17.8064ZM10.0402 17.8064C10.4782 17.8064 10.834 18.1622 10.834 18.6002C10.834 19.0383 10.4782 19.3941 10.0402 19.3941C9.60166 19.3941 9.24587 19.0383 9.24587 18.6002C9.24587 18.1622 9.60166 17.8064 10.0402 17.8064ZM3.93581 17.8064C4.37385 17.8064 4.72964 18.1622 4.72964 18.6002C4.72964 19.0383 4.37385 19.3941 3.93581 19.3941C3.4973 19.3941 3.14151 19.0383 3.14151 18.6002C3.14151 18.1622 3.4973 17.8064 3.93581 17.8064ZM28.3533 17.8064C28.7918 17.8064 29.1476 18.1622 29.1476 18.6002C29.1476 19.0383 28.7918 19.3941 28.3533 19.3941C27.9152 19.3941 27.5594 19.0383 27.5594 18.6002C27.5594 18.1622 27.9152 17.8064 28.3533 17.8064ZM6.98799 17.8064C7.42603 17.8064 7.78182 18.1622 7.78182 18.6002C7.78182 19.0383 7.42603 19.3941 6.98799 19.3941C6.54948 19.3941 6.19369 19.0383 6.19369 18.6002C6.19369 18.1622 6.54948 17.8064 6.98799 17.8064ZM19.1967 17.8064C19.6348 17.8064 19.9905 18.1622 19.9905 18.6002C19.9905 19.0383 19.6348 19.3941 19.1967 19.3941C18.7587 19.3941 18.4029 19.0383 18.4029 18.6002C18.4029 18.1622 18.7587 17.8064 19.1967 17.8064ZM13.0924 17.8064C13.5304 17.8064 13.8862 18.1622 13.8862 18.6002C13.8862 19.0383 13.5304 19.3941 13.0924 19.3941C12.6543 19.3941 12.2985 19.0383 12.2985 18.6002C12.2985 18.1622 12.6543 17.8064 13.0924 17.8064ZM25.3011 17.8064C25.7396 17.8064 26.0954 18.1622 26.0954 18.6002C26.0954 19.0383 25.7396 19.3941 25.3011 19.3941C24.863 19.3941 24.5072 19.0383 24.5072 18.6002C24.5072 18.1622 24.863 17.8064 25.3011 17.8064Z" fill="black"/>
</svg>
