<svg width="37" height="44" viewBox="0 0 37 44" fill="none" xmlns="http://www.w3.org/2000/svg">
<path d="M34.352 4.67459C34.352 4.67459 11.3892 0.850045 11.2376 0.830865C10.058 0.686246 9.41677 1.49125 9.41677 1.49125L3.31834 1.65155C2.58654 1.66897 1.90524 1.97563 1.39995 2.50882C0.892924 3.04199 0.626318 3.73894 0.645498 4.47074L1.5376 37.9403C1.55677 38.6721 1.86169 39.3517 2.39487 39.8587C2.9106 40.3466 7.29967 40.5347 7.29967 40.5347C7.29967 40.5347 28.055 44.0074 28.2066 44.0074C29.5535 44.0074 30.693 43.0438 30.916 41.7144L36.6068 7.83888C36.8559 6.34563 35.8453 4.92728 34.352 4.67459ZM2.14388 4.43066C2.13517 4.0996 2.25714 3.7825 2.48887 3.54029C2.71887 3.29636 3.029 3.15696 3.36006 3.14999L8.55926 3.0106C8.5488 3.04893 2.98716 36.1198 2.98716 36.1198L2.14388 4.43066ZM35.1273 7.5896L29.4365 41.4687C29.325 42.1291 28.6873 42.6082 27.999 42.4932L5.34088 38.6878C5.0133 38.6338 4.72755 38.4509 4.5324 38.1791C4.33726 37.9073 4.26059 37.5762 4.31635 37.2486L10.0053 3.36958C10.1064 2.77718 10.9305 2.22657 11.4445 2.34505L34.1027 6.15041C34.7822 6.26541 35.2423 6.91178 35.1273 7.5896Z" fill="black"/>
<path d="M20.7978 14.8522C20.7978 14.8522 19.7681 16.4273 17.8009 17.3804C15.8355 18.3318 12.8229 20.8129 13.2917 23.4195C13.7587 26.0262 15.6021 26.852 18.2072 26.0714C18.2072 26.0714 17.1043 28.5944 15.7051 29.0422L21.0524 29.9169C21.0524 29.9169 19.4303 27.9184 19.7212 26.2544C19.7212 26.2544 20.3136 27.3661 22.1763 27.3051C24.0371 27.2424 24.7358 26.5454 25.2969 24.2158C25.8579 21.8845 22.6868 18.2218 22.1867 17.6923C21.6884 17.1609 20.7211 15.2738 20.7978 14.8522Z" fill="black"/>
<path d="M10.5841 8.13686C10.5841 8.13686 10.3924 8.49579 10.0126 8.72056C9.63277 8.94359 9.05779 9.51686 9.16409 10.1006C9.27212 10.6825 9.63976 10.8568 10.1468 10.6686C10.1468 10.6686 9.94641 11.24 9.67459 11.3481L10.7305 11.5154C10.7305 11.5154 10.3994 11.0763 10.4447 10.6999C10.4447 10.6999 10.5684 10.9473 10.9344 10.9229C11.2985 10.8986 11.431 10.7383 11.5268 10.212C11.6226 9.68582 10.9762 8.88083 10.8751 8.76584C10.7723 8.6491 10.5719 8.23097 10.5841 8.13686Z" fill="black"/>
<path d="M11.023 3.94641L9.72317 7.49566L12.0231 7.84065L11.8802 4.07534L11.023 3.94641Z" fill="black"/>
<path d="M4.18234 4.11194L3.31811 4.14331L2.69435 7.87204L5.01869 7.78841L4.18234 4.11194Z" fill="black"/>
<path d="M27.9382 34.5151C27.9382 34.5151 28.1456 33.9454 28.4191 33.8425L27.3667 33.6648C27.3667 33.6648 27.6943 34.1074 27.642 34.4802C27.642 34.4802 27.5218 34.2328 27.1559 34.2537C26.79 34.2746 26.6576 34.4332 26.5548 34.9576C26.4537 35.4839 27.0914 36.2923 27.1907 36.4108C27.2918 36.5293 27.4869 36.9492 27.473 37.045C27.473 37.045 27.6699 36.6878 28.0515 36.4666C28.4348 36.247 29.0168 35.6807 28.9157 35.097C28.8129 34.5116 28.447 34.3322 27.9382 34.5151Z" fill="black"/>
<path d="M26.1313 41.0872L26.9868 41.2249L28.3267 37.6913L26.0302 37.3202L26.1313 41.0872Z" fill="black"/>
<path d="M2.59841 10.0049L3.68044 11.5138L4.76074 10.0049L3.63865 8.36011L2.59841 10.0049Z" fill="black"/>
</svg>
