<?xml version="1.0" encoding="UTF-8"?>
<svg version="1.1" viewBox="0 0 1000 1000" width="1000" height="1000" xmlns="http://www.w3.org/2000/svg">
<path transform="translate(484,215)" d="m0 0h32l29 3 24 5 23 7 21 8 21 10 22 13 18 13 13 11 10 9 15 15 9 11 13 17 11 17 12 22 9 21 9 27 5 21 3 19 2 24v24l-3 31-5 25-6 21-7 19-9 20-11 20-13 19-10 13-13 15-17 17-11 9-17 13-15 10-26 14-24 10-25 8-23 5-22 3-12 1h-32l-28-3-25-5-24-7-22-9-23-11-21-13-19-14-15-13-21-21-9-11-12-16-13-21-12-23-8-20-6-18-6-24-3-18-2-22v-32l3-29 5-24 7-24 8-20 12-25 13-21 14-19 13-15 21-21 11-9 19-14 25-15 23-11 21-8 21-6 24-5zm12 6-2 6v73l2 4h8l1-1v-81l-2-1zm-22 1-22 3-23 5-20 6-25 10-20 10-21 13-17 13-13 11 1 5 54 54 5-1 17-13 15-9 16-8 18-7 23-6 22-3 4-2v-80l-1-1zm38 0v81l4 2 22 3 23 6 21 8 17 9 18 12 11 9 5-1 54-54-1-5-13-11-15-11-19-12-25-13-23-9-24-7-25-5-16-2zm-206 78-5 5v4l55 55 4-1 4-4-1-4-55-55zm386 0-56 56 1 4 4 4 4-1 55-55-2-4-4-4zm-206 10-22 3-17 4-20 7-17 8-18 11-14 11-13 12-7 7-11 14-7 10-8 13-9 20-7 21-5 25-1 11v26l2 18 6 25 7 19 8 16 8 14 10 13 11 13 11 11 14 11 10 7 13 8 20 9 21 7 25 5 11 1h27l22-3 17-4 20-7 17-8 16-10 12-9 13-11 11-11 11-14 7-10 10-17 7-16 7-21 5-25 1-10v-27l-2-18-6-25-7-19-8-16-8-14-10-13-11-13-11-11-14-11-10-7-17-10-21-9-20-6-21-4-10-1zm-193 3-13 15-12 17-13 21-12 25-9 24-7 27-4 22-1 10v13l1 1h80l2-4 3-22 5-20 7-19 8-17 12-19 12-15-1-5-54-54zm410 0-55 55 1 5 11 14 11 18 8 16 7 18 5 18 3 17 2 13 1 1h80l1-1v-10l-2-18-6-29-6-20-8-21-9-19-13-22-13-18-9-11-5-6zm-404 181-77 1-1 1v8l1 1 79 1 3-2v-8zm401 0-4 2v8l5 2h74l3-1 1-7-2-3-4-1zm-477 18-1 1v13l3 22 5 23 8 26 10 23 11 21 9 14 10 14 11 13 4 5 5-1 54-54-1-5-11-14-13-21-8-17-8-24-5-25-2-13-1-1zm474 0-2 5-3 21-5 20-7 19-8 17-12 19-12 15 1 5 54 54 5-1 10-12 14-19 12-20 9-17 10-25 6-19 5-21 3-19 1-10v-11l-1-1zm-341 124-56 56 2 4 4 4 4-2 54-54-1-4-4-4zm285 0-5 5 1 4 55 55 4-2 4-4-2-4-54-54zm-273 12-56 56 3 5 17 14 16 11 15 9 21 11 19 8 19 6 24 6 18 3 10 1h14v-81l-4-2-22-3-23-6-18-7-16-8-15-9-13-10-5-4zm260 0-15 12-18 11-16 8-18 7-23 6-25 4-1 1v81h14l22-3 23-5 26-8 25-11 19-10 24-16 16-13 6-5-1-5-54-54zm-132 48-2 5 1 77 1 1h8l1-1v-81l-2-1z" fill="#D3E6C1"/>
<path transform="translate(471,23)" d="m0 0h58l33 3 35 6 36 9 36 12 24 10 25 12 19 10 21 13 19 13 16 12 16 13 12 11 8 7 23 23 7 8 12 14 13 17 12 17 11 17 11 19 12 23 9 19 12 31 8 25 9 36 6 36 3 31v60l-3 32-5 30-7 31-11 35-10 26-9 20-12 24-16 27-15 22-12 16-9 11-11 13-14 15-19 19-8 7-15 13-17 13-20 14-19 12-25 14-31 15-34 13-29 9-29 7-36 6-32 3h-58l-32-3-36-6-36-9-36-12-24-10-29-14-20-11-19-12-23-16-14-11-13-11-10-9-8-7-23-23-7-8-12-14-13-17-12-17-11-17-11-19-12-23-9-19-12-31-8-25-9-36-6-36-3-32v-58l3-32 6-36 9-36 12-36 12-29 15-30 16-27 15-22 12-16 9-11 12-14 12-13 21-21 8-7 14-12 17-13 17-12 17-11 19-11 27-14 20-9 29-11 29-9 29-7 36-6zm3 6-33 3-36 6-26 6-30 9-29 11-24 11-22 11-27 16-19 13-16 12-10 8-13 11-12 11-7 6-7 8-14 14-9 11-11 13-14 19-14 21-9 15-12 22-13 27-12 31-8 25-6 22-6 30-4 30-2 23v52l3 33 6 36 6 26 11 35 10 26 9 20 12 24 16 27 11 16 11 15 11 14 11 13 11 12 27 27 8 7 11 9 18 14 20 14 21 13 24 13 27 13 31 12 28 9 24 6 32 6 23 3 23 2h52l33-3 36-6 26-6 26-8 23-8 28-12 26-13 21-12 24-16 19-14 16-13 14-12 33-33 9-11 11-13 14-19 16-24 11-19 14-27 10-22 11-30 9-29 7-31 5-31 3-33v-52l-3-33-6-36-6-26-11-35-10-26-9-20-11-22-14-24-14-21-14-19-13-16-12-14-33-33-11-9-13-11-19-14-24-16-19-11-23-12-19-9-28-11-31-10-24-6-25-5-30-4-23-2z" fill="#D3E6C0"/>
<path transform="translate(474,74)" d="m0 0h52l31 3 30 5 28 7 26 8 28 11 29 14 23 13 17 11 17 12 14 11 14 12 15 14 16 16 7 8 11 13 15 20 16 24 11 19 12 23 11 25 10 28 8 29 6 29 3 21 2 24v52l-3 31-5 30-8 32-10 30-10 24-12 25-10 18-12 19-12 17-10 13-9 11-10 11-7 8-19 19-8 7-13 11-20 15-24 16-19 11-23 12-25 11-20 7-25 8-31 7-24 4-31 3h-51l-32-3-30-5-28-7-26-8-28-11-29-14-23-13-19-12-16-12-13-10-14-12-13-12-19-19-7-8-11-13-15-20-14-21-13-22-8-15-11-24-9-24-6-18-8-31-5-27-3-24-1-11-1-35 2-36 4-31 6-29 7-25 10-29 10-23 8-17 10-18 13-21 12-17 10-13 9-11 18-20 20-20 8-7 13-11 16-12 17-12 25-15 29-15 26-11 25-9 29-8 29-6 21-3zm4 6-25 2-27 4-28 6-25 7-26 9-27 12-24 12-20 12-15 10-19 14-13 11-11 9-11 11-2 1v2l-3 1v2h-2l-7 8-8 8-9 11-12 15-13 18-13 21-10 18-8 16-8 17-9 24-7 21-8 32-5 30-3 30v52l3 30 5 30 8 32 10 30 11 26 9 19 13 23 14 22 13 17 7 9 9 11 12 13 25 25 11 9 13 11 18 13 17 11 19 11 23 12 25 11 28 10 29 8 29 6 33 4 13 1h46l32-3 30-5 32-8 33-11 28-12 22-11 27-16 16-11 12-9 10-8 13-11 12-11 22-22 9-11 11-13 14-19 11-17 11-19 12-23 11-25 10-28 8-29 5-24 4-27 2-24v-46l-3-32-5-30-8-32-10-30-12-29-12-24-16-27-11-16-9-12-8-10-11-13-11-12-22-22-11-9-13-11-19-14-17-11-19-11-23-12-25-11-28-10-29-8-29-6-32-4-14-1z" fill="#D2E6C0"/>
<path transform="translate(600,371)" d="m0 0 10 1 8 4 8 9 2 5 1 10-3 10-5 7-10 6-5 1h-13l-13 16-20 26-1 4 5 13 2 11v12l-3 14-4 10 2 5 10 13 22 28h13l9 3 6 4 6 9 2 8-1 10-4 8-9 8-5 2-10 1-10-3-8-6-4-6-2-6v-14l-5-5-28-22-11-8-9 3-11 3-8 1h-9l-15-3-10-4-5 2-13 10-15 12-12 9-1 6v9l-4 10-5 5-5 4-10 3-10-1-8-4-7-7-4-10v-9l4-10 4-5 8-5 8-2h12l22-28 12-16-3-9-3-10-1-8v-10l2-12 5-14-4-7-10-12-20-26h-13l-9-3-7-5-6-10-1-4v-9l4-10 7-7 5-3 4-1h14l8 4 5 5 5 8 1 4v13l5 5 17 13 16 13 6 4 9-3 11-3 7-1h10l12 2 10 4h7l16-13 13-10 12-9 1-6v-10l3-8 6-7 10-5zm-208 7-6 3-5 5-3 5-1 8 3 9 4 5 7 4h13l8-5 5-8v-13l-6-9-8-4zm205 0-8 4-4 5-3 8 1 10 6 8 7 4h13l9-6 4-8v-11l-3-6-5-5-6-3zm-178 35-6 6 2 5 14 18 11 14 4 5 4-1 13-13-1-4-14-11-15-12-9-7zm159 0-16 13-13 10-10 8v4l8 7 5 6 5-1 10-13 11-14 9-12-2-4-4-4zm-89 28-15 5-11 7-7 6-9 13-5 13-1 5v20l4 14 7 12 7 8 10 7 10 5 11 3h21l15-5 11-7 11-11 7-12 4-14v-20l-4-14-8-13-6-7-13-9-13-5-5-1zm-45 98-13 16-10 13-8 11 2 4 4 4 5-2 28-22 9-7v-4l-8-7-6-6zm109 0-12 12-2 1 1 5 28 22 11 8 4-2 4-4-2-5-13-16-12-16-4-5zm-162 44-8 5-5 8-1 7 2 8 4 6 6 4 3 1h11l8-4 4-5 2-4v-13l-5-8-8-5zm205 0-8 5-5 7-1 10 2 6 4 6 6 4 3 1h11l6-3 5-5 3-6v-11l-4-8-9-6z" fill="#D3E6C1"/>
<path transform="translate(489,103)" d="m0 0 7 1 2 3v82l-2 4-34 3-30 5-9 1-3-7-19-71-1-6 3-3 23-5 25-4zm-12 7-31 3-24 4-13 3-1 1 1 9 17 63 2 2 13-2 25-4 24-2 1-1 1-73-2-3z" fill="#D4E7C2"/>
<path transform="translate(423,798)" d="m0 0 9 1 30 5 34 3 2 4v82l-2 3h-20l-31-3-24-4-18-4-3-3 2-10 15-55 5-18zm5 7-2 2-18 66v6l5 2 26 5 25 3 26 1 2-5-1-71-1-1-31-3-28-5z" fill="#D4E6C2"/>
<path transform="translate(506,103)" d="m0 0 33 2 30 4 24 5 5 2 2 4-12 45-9 34-3 3-8-1-30-5-34-3-2-3v-83zm4 7-2 3v71l1 3 32 3 28 5 4-1 3-8 14-53 2-7v-5l-9-3-22-4-24-3-14-1z" fill="#D4E6C2"/>
<path transform="translate(571,798)" d="m0 0h5l3 3 11 42 9 33v7l-2 2-28 6-31 4-14 1h-20l-2-3v-83l2-3 34-3 30-5zm-2 7-28 5-32 3-1 7v67l2 3 26-1 31-4 24-5 1-1-1-9-17-63-2-2z" fill="#D4E6C2"/>
<path transform="translate(796,583)" d="m0 0h7l56 15 21 6 1 1-1 10-10 29-10 23-8 16-6 11-5 1-24-14-26-15-22-13-1-5 10-19 8-19 9-26zm5 7-3 5-7 20-11 24-4 8 2 4 22 13 26 15 14 8 4-2 9-17 12-29 9-26-1-4-8-3-44-12-16-4z" fill="#D3E6C1"/>
<path transform="translate(879,400)" d="m0 0 4 1 3 7 5 24 4 31 1 15v18l-3 2h-83l-4-4-1-22-4-29-3-14v-6l7-3 67-18zm-6 8-63 17-5 3 6 39 2 24 3 1h72l2-2-1-25-4-31-5-24-1-2z" fill="#D3E6C1"/>
<path transform="translate(118,400)" d="m0 0 10 2 70 19 4 3-1 8-4 23-2 16-2 25-3 2h-83l-4-4 2-33 4-31 6-27zm3 8-3 9-4 22-3 24-1 14v13l3 2h71l3-1 3-33 5-29-2-3-66-18z" fill="#D3E6C1"/>
<path transform="translate(156,305)" d="m0 0 5 1 22 13 26 15 22 13 1 4-13 26-10 26-4 12-1 2h-7l-63-17-14-4-2-4 8-26 11-27 11-23 6-10zm2 8-6 9-11 23-11 29-4 12v5l8 3 42 11 19 5 5-1 3-7 7-20 9-20 5-9-2-4-22-13-26-15-14-8z" fill="#D3E6C0"/>
<path transform="translate(349,768)" d="m0 0 6 2 16 8 24 10 21 7 1 1v7l-20 74-2 4-4 1-27-9-22-9-18-8-18-10-1-5 14-24 15-26 13-22zm2 8-4 5-14 24-20 35 2 4 17 9 31 13 23 8 5-1 3-8 16-60-1-5-7-3-19-7-21-9-9-5z" fill="#D3E6C0"/>
<path transform="translate(283,720)" d="m0 0 4 1 11 10 14 11 13 10 17 11 1 5-28 49-13 22-2 2-5-1-17-11-17-12-11-9-13-11-12-11-2-2 1-6 8-7 8-8 7-8 10-10h2l2-4 20-20zm0 8-51 51-1 3 7 8 8 7 16 13 18 13 16 10 4-2 10-18 14-24 9-16 2-3-1-5-15-10-12-9-22-18z" fill="#D3E6C0"/>
<path transform="translate(607,118)" d="m0 0 18 5 26 10 20 9 16 8 7 4 1 5-14 24-15 26-13 22-4 1-16-8-20-9-29-10-2-5 21-78zm2 8-5 16-14 52v6l32 12 25 12 4-2 13-22 15-26 8-14-2-4-17-9-31-13-23-8z" fill="#D3E6C0"/>
<path transform="translate(107,502)" d="m0 0h83l3 2 3 33 4 26 2 9-1 5-7 3-71 19h-6l-2-2-6-27-4-30-2-34zm6 6-3 2v12l2 25 4 25 4 19 1 1 9-1 63-17 2-4-4-22-3-26-1-12-3-2z" fill="#D3E6C1"/>
<path transform="translate(810,502)" d="m0 0h83l3 2v17l-2 26-5 32-4 17-4 4-42-11-37-10-4-3 1-9 4-22 2-17 1-22zm6 6-3 1-3 32-5 28 1 4 8 3 60 16h5l4-15 5-32 2-27v-8l-3-2z" fill="#D3E6C1"/>
<path transform="translate(197,583)" d="m0 0h7l3 8 10 27 8 18 7 13-1 4-71 41-4 1-4-4-11-21-10-23-8-22-5-18 4-4zm-2 7-68 18-1 1 1 8 11 31 13 28 6 10 3 1 23-13 19-11 20-12 2-4-8-16-7-16-8-22-2-3z" fill="#D3E6C0"/>
<path transform="translate(649,768)" d="m0 0 4 1 15 26 14 24 13 22-1 5-19 10-19 9-26 10-22 7-4-2-7-24-15-56 2-5 29-10 27-12zm-2 8-25 12-32 12 1 10 11 40 6 23 1 1 8-1 25-9 26-11 17-9 2-4-14-25-9-15-13-22z" fill="#D3E6C1"/>
<path transform="translate(841,305)" d="m0 0 5 1 7 12 12 26 10 26 6 19v6l-8 3-36 10-34 9h-7l-3-7-9-25-9-20-7-13 1-5 24-14 26-15zm-2 8-17 10-19 11-25 15-2 4 12 25 12 32 9-1 52-14 13-4-1-7-9-26-10-23-8-16-4-6z" fill="#D3E6C0"/>
<path transform="translate(392,118)" d="m0 0 4 2 12 43 9 34v7l-7 3-23 8-25 11-11 6-5-2-16-28-15-26-10-17 1-5 12-7 28-13 29-11zm-6 8-26 9-23 10-17 8-7 5 2 6 14 24 20 35 4 1 16-8 19-8 20-7 2-2-1-8-17-63-2-2z" fill="#D3E6C0"/>
<path transform="translate(297,159)" d="m0 0 4 1 6 9 14 25 10 17 12 20v5l-10 7-11 7-14 11-11 9-11 10-5-1-13-13v-2h-2l-4-4v-2l-3-1-5-5-1-3h-2l-4-5-5-4-7-8-12-12 1-5 9-9 11-9 13-11 18-13 20-13zm-1 8-16 10-18 13-13 11-11 9-7 8 3 5 49 49 5-2 12-11 17-13 18-12-1-6-14-24-15-26-6-10z" fill="#D2E6C0"/>
<path transform="translate(216,223)" d="m0 0 5 1 59 59-1 5-10 10-11 14-10 13-11 17-5 1-16-9-24-14-28-16-5-4 1-5 11-17 12-17 13-16 9-10 7-8zm1 8-8 8-9 11-10 12-13 18-10 16 2 4 18 10 43 25 5-1 7-11 12-16 18-22-3-5-48-48z" fill="#D2E5C0"/>
<path transform="translate(764,657)" d="m0 0h5l17 10 26 15 24 14 5 4-1 5-16 24-9 12-11 14-9 10-7 8-4 4-5-1-59-59 1-5 8-8 9-11 13-17 12-18zm2 8-7 10-10 14-13 16-8 10 3 5 48 48 4 1 7-7 9-11 10-12 14-19 10-16-2-4-18-10-17-10-21-12-5-3z" fill="#D2E5C0"/>
<path transform="translate(700,159)" d="m0 0 5 1 14 9 17 12 14 11 13 11 12 11 2 2-1 5-59 59-5-1-10-10-14-11-13-10-17-11-1-1v-5l10-17 15-26 14-24zm2 8-6 9-9 16-14 24-8 14 1 5 18 12 14 11 14 12 1 1h5l50-50 1-4-7-7-11-9-13-11-18-13-16-10z" fill="#D2E5C0"/>
<path transform="translate(231,657)" d="m0 0h5l7 10 11 16 13 16 9 10 4 5-1 4-59 59-5-1-9-9-9-11-11-13-13-18-13-20-1-5 5-4 52-30zm-2 8-15 9-26 15-20 12-1 3 10 16 14 19 11 13 9 11 6 6 5-2 49-49 1-3-9-11-11-13-12-17-6-9z" fill="#D2E5C0"/>
<path transform="translate(780,223)" d="m0 0 5 1 9 9 9 11 11 13 13 18 13 20 1 5-10 7-25 14-24 14-14 8-5-1-15-22-10-13-13-15-5-6 1-4 56-56zm1 8-8 7-44 44v5l10 11 13 17 12 17 2 3 6-1 17-10 21-12 22-13 1-3-10-16-14-19-11-13-9-11-6-6z" fill="#D2E5C0"/>
<path transform="translate(714,720)" d="m0 0 5 1 7 8 51 51-1 5-8 8-11 9-9 8-16 12-21 14-8 5-4-1-6-9-13-23-14-24-9-15v-5l11-8 12-8 13-10 14-12zm1 8-10 8-13 11-17 12-10 7 1 6 14 24 12 21 9 15 3 1 16-10 19-14 13-11 11-9 6-6-2-5-49-49z" fill="#D2E5C0"/>
</svg>
