<?xml version="1.0" encoding="UTF-8"?>
<svg version="1.1" viewBox="0 0 2048 1536" width="1024" height="768" xmlns="http://www.w3.org/2000/svg">
<path transform="translate(973,489)" d="m0 0h26l31 2 32 4 26 5 24 6 26 8 29 11 28 13 26 14 21 13 17 12 12 9 16 13 10 9 8 7 28 28 9 11 8 9 15 20 11 16 13 21 12 22 14 29 12 31 9 29 7 30 5 28 3 28 1 16v45l-2 27-5 35-8 36-9 29-9 25-13 29-13 25-12 20-17 25-10 13-13 16-11 12-7 8-20 20-8 7-14 12-13 10-18 13-17 11-15 9-24 13-26 12-29 11-29 9-30 7-30 5-27 3-16 1h-42l-36-3-32-5-27-6-27-8-26-9-30-13-22-11-24-14-21-14-15-11-14-11-14-12-13-12-23-23-9-11-8-9-13-17-12-17-14-22-16-29-12-26-10-26-7-21-8-30-6-31-4-31-2-34v-22l2-32 5-37 8-37 9-30 10-27 11-25 10-20 14-24 18-27 13-17 9-11 12-14 16-17 9-9 8-7 11-10 14-11 13-10 20-14 20-12 18-10 24-12 27-11 36-12 32-8 35-6 30-3zm-10 50-32 3-29 5-25 6-26 8-24 9-24 11-23 12-21 13-20 14-18 14-10 9-8 7-27 27-9 11-11 13-13 18-11 17-12 21-11 21-11 26-9 25-8 29-7 36-3 26-1 15v41l2 25 4 28 7 32 9 29 10 27 12 26 12 22 12 19 14 20 11 14 13 15 12 13 16 16 8 7 13 11 20 15 18 12 15 9 22 12 28 13 28 10 23 7 26 6 32 5 21 2h56l30-3 28-5 25-6 29-9 32-13 19-9 23-13 19-12 18-13 16-13 14-12 16-15 15-16 12-14 15-20 16-24 11-19 12-23 13-31 10-31 7-28 5-28 3-29v-59l-4-36-6-30-6-23-10-30-11-26-13-26-10-17-16-24-12-16-11-13-7-8-9-10-21-21-11-9-13-11-18-13-15-10-22-13-23-12-26-11-25-9-29-8-29-6-33-4-12-1z" fill="#F19106"/>
<path transform="translate(707,90)" d="m0 0 5 5 12 15 14 20 14 21 15 24 14 24 16 29 20 39 17 35 16 36 14 33 1 3v-24l2-25 4-23 7-24 6-16 11-23 12-19 11-14 11-12 16-16 11-9 2-1-1 5-10 24-8 24-6 24-5 29-2 19-1 17v32l2 27 5 35 6 27 3 11v3l-35 3-28 4-29 6-29 8-29 10-26 11-32 16-17 10-3-1-12-31-12-25-12-23-13-21-13-18-10-13-11-13-12-13-15-15-11-9-12-10-17-12-18-11v-2l22 2 25 5 20 6 20 8 19 10 18 12 14 11 13 12 14 14 11 14 11 15 5 8-10-50-9-54-7-54-4-43-2-31v-72l1-15z" fill="#F19106"/>
<path transform="translate(1048,605)" d="m0 0h20l24 3 20 5 18 7 19 10 14 10 12 11 11 11 10 14 9 17 5 16 2 15-1 15-4 13-6 10-9 10-10 7-12 6-16 5-18 3-13 1h-15l-21-2-19-4-18-6-16-8-12-7-14-11-16-16-11-16-8-16-5-17-1-5v-22l4-15 6-11 9-10 8-7 15-8 17-5z" fill="#F19106"/>
<path transform="translate(1057,859)" d="m0 0h43l4 9 21 56 23 62 21 56 17 46v2h-41l-7-19-11-31h-97l-5 12-13 37-1 1h-41l3-9 17-46 39-104 26-70zm21 44-4 9-19 54-15 42v2h76l-2-9-17-48-16-45-2-5z" fill="#FEFEFE"/>
<path transform="translate(662,855)" d="m0 0h67l22 2 15 4 16 8 11 10 9 14 5 15 1 6v28l-4 15-6 12-9 11-11 8-13 6-15 4-7 1-57 1-1 90h-38v-234zm24 32-1 1v80h47l14-3 10-5 7-7 4-8 2-7v-21l-4-11-4-6-8-7-10-4-12-2z" fill="#FEFEFE"/>
<path transform="translate(1144,855)" d="m0 0h43l3 5 51 102 10-19 26-53 17-34 5-1h39l-1 5-10 19-14 27-10 19-12 23-10 19-12 23-7 13-1 9-1 78h-39l-1-87-15-29-12-22-10-20-12-22-17-33-11-20z" fill="#FEFEFE"/>
<path transform="translate(836,855)" d="m0 0h26l11 1 1 204 80 1v29h-119v-234z" fill="#FEFEFE"/>
</svg>
