<svg width="39" height="39" viewBox="0 0 39 39" fill="none" xmlns="http://www.w3.org/2000/svg">
<path d="M33.0795 6.46638C29.4909 2.87767 24.7196 0.901367 19.6445 0.901367C14.5695 0.901367 9.79816 2.87767 6.20954 6.46638C2.62091 10.055 0.644531 14.8263 0.644531 19.9014C0.644531 24.9764 2.62091 29.7477 6.20954 33.3364C9.79816 36.9251 14.5695 38.9014 19.6445 38.9014C24.7196 38.9014 29.4909 36.9251 33.0795 33.3364C36.6681 29.7477 38.6445 24.9764 38.6445 19.9014C38.6445 14.8263 36.6681 10.055 33.0795 6.46638ZM19.0316 33.8677V37.6638C16.2435 37.5688 13.6166 36.8289 11.2953 35.5885L13.1931 32.3015C14.9538 33.2213 16.9334 33.7768 19.0316 33.8677ZM20.2574 33.8677C22.3557 33.7767 24.3353 33.2213 26.096 32.3015L27.9938 35.5884C25.6724 36.8289 23.0455 37.5688 20.2574 37.6638V33.8677ZM19.6445 32.6562C12.6115 32.6562 6.88978 26.9344 6.88978 19.9014C6.88978 12.8684 12.6115 7.14654 19.6445 7.14654C26.6775 7.14654 32.3993 12.8684 32.3993 19.9014C32.3993 26.9344 26.6775 32.6562 19.6445 32.6562ZM5.67815 19.2885H1.88206C1.97706 16.5004 2.71699 13.8735 3.95743 11.5522L7.24443 13.4499C6.32461 15.2106 5.76917 17.1902 5.67815 19.2885ZM5.67815 20.5143C5.76917 22.6125 6.32461 24.5921 7.24443 26.3529L3.95743 28.2506C2.71699 25.9293 1.97706 23.3024 1.88206 20.5143H5.67815ZM20.2574 5.93499V2.1389C23.0455 2.2339 25.6724 2.97382 27.9937 4.21426L26.096 7.50119C24.3353 6.58145 22.3557 6.02593 20.2574 5.93499ZM19.0316 5.93499C16.9334 6.026 14.9538 6.58145 13.193 7.50126L11.2953 4.21434C13.6166 2.97382 16.2435 2.2339 19.0316 2.1389V5.93499ZM33.6109 20.5143H37.407C37.312 23.3024 36.5721 25.9293 35.3316 28.2506L32.0446 26.3528C32.9645 24.5921 33.5199 22.6125 33.6109 20.5143ZM33.6109 19.2885C33.5199 17.1902 32.9645 15.2106 32.0446 13.4499L35.3316 11.5521C36.5722 13.8734 37.312 16.5004 37.407 19.2884L33.6109 19.2885ZM34.7168 10.4916L31.4306 12.3889C30.3334 10.6736 28.8723 9.21249 27.157 8.11531L29.0543 4.82908C31.3428 6.26304 33.2829 8.20311 34.7168 10.4916ZM10.2348 4.82908L12.1321 8.11531C10.4167 9.21249 8.95565 10.6736 7.85848 12.3889L4.57224 10.4916C6.00621 8.20311 7.94628 6.26304 10.2348 4.82908ZM4.57224 29.3111L7.85848 27.4138C8.95565 29.1292 10.4167 30.5902 12.1321 31.6874L10.2348 34.9737C7.94628 33.5397 6.00621 31.5996 4.57224 29.3111ZM29.0543 34.9737L27.157 31.6874C28.8723 30.5902 30.3334 29.1291 31.4306 27.4138L34.7168 29.3111C33.2829 31.5996 31.3428 33.5397 29.0543 34.9737Z" fill="#ffffff"/>
<path d="M27.7618 25.2217C28.8017 23.6403 29.3498 21.8104 29.3498 19.9013C29.3498 17.9924 28.8017 16.1625 27.7619 14.581C28.0479 14.1352 28.2322 13.6975 28.2789 13.2795C28.3423 12.7118 28.1612 12.1972 27.755 11.791C27.3489 11.3849 26.8342 11.2036 26.2665 11.2671C25.8485 11.3138 25.4109 11.4981 24.965 11.7842C23.3836 10.7444 21.5537 10.1963 19.6447 10.1963C17.7356 10.1963 15.9058 10.7444 14.3243 11.7842C13.8785 11.4981 13.4408 11.3138 13.0229 11.2671C12.4548 11.2041 11.9404 11.3849 11.5343 11.791C11.1281 12.1972 10.947 12.7119 11.0104 13.2795C11.057 13.6975 11.2414 14.1352 11.5274 14.581C10.4876 16.1625 9.93942 17.9924 9.93942 19.9014C9.93942 21.8104 10.4876 23.6403 11.5274 25.2218C11.2413 25.6676 11.057 26.1053 11.0103 26.5232C10.947 27.0909 11.1281 27.6056 11.5343 28.0118C11.9382 28.3979 12.4305 28.5817 13.0228 28.5356C13.4407 28.489 13.8784 28.3047 14.3242 28.0186C15.9056 29.0583 17.7355 29.6065 19.6446 29.6065C21.5536 29.6065 23.3834 29.0583 24.965 28.0186C25.4108 28.3046 25.8485 28.489 26.2664 28.5356C26.8599 28.5193 27.3751 28.3756 27.755 28.0117C28.1611 27.6056 28.3422 27.0909 28.2789 26.5232C28.2322 26.1052 28.048 25.6675 27.7618 25.2217ZM26.4025 12.4854C26.6001 12.463 26.7453 12.5149 26.8882 12.6577C27.0311 12.8007 27.0827 12.946 27.0606 13.1435C26.9478 14.1538 25.1177 15.911 22.2449 17.7862C22.1 17.6085 21.9375 17.4459 21.7597 17.301C23.635 14.4284 25.3922 12.5982 26.4025 12.4854ZM22.834 18.8658C23.6016 18.3682 24.3983 17.8148 25.1388 17.2337C25.5408 18.0606 25.7515 18.9704 25.7515 19.9013C25.7515 20.8323 25.5408 21.742 25.1388 22.569C24.3984 21.988 23.6016 21.4344 22.834 20.9368C22.9402 20.6105 22.9984 20.2627 22.9984 19.9013C22.9983 19.54 22.9402 19.1921 22.834 18.8658ZM19.6447 22.0292C18.4714 22.0292 17.5168 21.0747 17.5168 19.9013C17.5168 18.728 18.4714 17.7735 19.6447 17.7735C20.8179 17.7735 21.7725 18.728 21.7725 19.9013C21.7725 21.0747 20.8179 22.0292 19.6447 22.0292ZM22.3123 25.3955C21.4854 25.7975 20.5756 26.0082 19.6447 26.0082C18.7137 26.0082 17.8039 25.7975 16.977 25.3955C17.558 24.6551 18.1116 23.8582 18.6092 23.0907C18.9355 23.1968 19.2834 23.255 19.6447 23.255C20.006 23.255 20.3539 23.1968 20.6802 23.0907C21.1778 23.8582 21.7313 24.6551 22.3123 25.3955ZM16.977 14.4072C17.804 14.0052 18.7137 13.7945 19.6447 13.7945C20.5756 13.7945 21.4854 14.0052 22.3123 14.4072C21.7313 15.1476 21.1778 15.9444 20.6802 16.712C20.3538 16.6058 20.006 16.5477 19.6447 16.5477C19.2834 16.5477 18.9355 16.6058 18.6092 16.712C18.1115 15.9445 17.558 15.1476 16.977 14.4072ZM19.6447 11.4221C21.1747 11.4221 22.646 11.8257 23.9453 12.5932C23.6683 12.8508 23.3918 13.1366 23.1181 13.4425C22.0545 12.8696 20.8644 12.5688 19.6447 12.5688C18.4249 12.5688 17.2348 12.8697 16.1712 13.4425C15.8976 13.1366 15.621 12.8508 15.3442 12.5932C16.6433 11.8257 18.1146 11.4221 19.6447 11.4221ZM12.4011 12.6578C12.544 12.5149 12.6892 12.4631 12.8868 12.4854C13.8972 12.5983 15.6544 14.4284 17.5296 17.3012C17.3519 17.4461 17.1893 17.6086 17.0444 17.7864C14.1716 15.9111 12.3415 14.1539 12.2287 13.1436C12.2066 12.946 12.2582 12.8007 12.4011 12.6578ZM16.4553 20.9368C15.6878 21.4344 14.891 21.9879 14.1505 22.569C13.7485 21.742 13.5378 20.8323 13.5378 19.9013C13.5378 18.9704 13.7485 18.0606 14.1505 17.2337C14.8909 17.8147 15.6878 18.3682 16.4553 18.8658C16.3491 19.1922 16.2909 19.54 16.2909 19.9013C16.291 20.2627 16.3491 20.6106 16.4553 20.9368ZM11.1653 19.9013C11.1653 18.3712 11.569 16.9 12.3365 15.6008C12.5941 15.8778 12.8799 16.1543 13.1857 16.4279C12.6128 17.4915 12.312 18.6817 12.312 19.9013C12.312 21.121 12.6128 22.3112 13.1857 23.3748C12.8798 23.6485 12.5941 23.925 12.3364 24.2019C11.569 22.9027 11.1653 21.4314 11.1653 19.9013ZM12.8869 27.3173C12.6886 27.3393 12.544 27.2878 12.4011 27.1449C12.2582 27.002 12.2066 26.8567 12.2287 26.6592C12.3415 25.6488 14.1716 23.8917 17.0444 22.0165C17.1893 22.1942 17.3519 22.3568 17.5296 22.5017C15.6544 25.3743 13.8972 27.2045 12.8869 27.3173ZM19.6447 28.3806C18.1146 28.3806 16.6433 27.977 15.3441 27.2095C15.621 26.9519 15.8975 26.6661 16.1712 26.3602C17.2348 26.9331 18.4249 27.2339 19.6447 27.2339C20.8644 27.2339 22.0545 26.933 23.1181 26.3602C23.3917 26.6661 23.6683 26.9519 23.9452 27.2095C22.646 27.977 21.1747 28.3806 19.6447 28.3806ZM26.8882 27.1449C26.7453 27.2878 26.5997 27.3393 26.4025 27.3172C25.3921 27.2044 23.635 25.3743 21.7597 22.5015C21.9375 22.3566 22.1 22.1941 22.2449 22.0163C25.1177 23.8916 26.9478 25.6488 27.0606 26.6591C27.0827 26.8567 27.0311 27.002 26.8882 27.1449ZM26.9528 24.2019C26.6952 23.9249 26.4094 23.6484 26.1036 23.3748C26.6765 22.3112 26.9774 21.121 26.9774 19.9013C26.9774 18.6817 26.6765 17.4915 26.1036 16.4279C26.4095 16.1542 26.6953 15.8777 26.9529 15.6008C27.7204 16.9 28.1241 18.3713 28.1241 19.9013C28.124 21.4315 27.7204 22.9027 26.9528 24.2019Z" fill="#ffffff"/>
</svg>
