<?xml version="1.0" ?>
<!-- Uploaded to: SVG Repo, www.svgrepo.com, Generator: SVG Repo Mixer Tools -->
<svg width="800px" height="800px" viewBox="0 0 64 64" xmlns="http://www.w3.org/2000/svg">
<g id="a"/>
<g id="b"/>
<g id="c"/>
<g id="d"/>
<g id="e"/>
<g id="f"/>
<g id="g"/>
<g id="h"/>
<g id="i"/>
<g id="j"/>
<g id="k"/>
<g id="l"/>
<g id="m"/>
<g id="n"/>
<g id="o"/>
<g id="p"/>
<g id="q"/>
<g id="r">
<path d="M25.06,45.95l24.92,6.68c1.33,.35,2.68-.43,3.04-1.76l.79-2.95c.27-1.01-.36-2.03-1.24-2.58-2.02-1.25-3.2-3.55-3.02-5.95l5.89-5.93c.11,0,.21-.02,.32-.02,1.04-.03,2.09-.6,2.36-1.61l.79-2.95c.36-1.33-.43-2.68-1.75-3.04l-10.55-2.83-21.54,22.94Z" fill="#8fd7f8" fill-rule="evenodd"/>
<path d="M52.24,24.52c1.32,.36,2.1,1.71,1.74,3.04l-.79,2.95c-.27,1.01-1.32,1.58-2.36,1.61-.11,0-.21,0-.32,.02l-5.89,5.93c-.18,2.4,1,4.7,3.02,5.96,.88,.55,1.51,1.57,1.24,2.58l-.79,2.95c-.36,1.33-1.71,2.11-3.04,1.75l4.93,1.32c1.33,.36,2.68-.43,3.04-1.75l.79-2.95c.27-1.01-.36-2.03-1.24-2.58-2.02-1.25-3.21-3.55-3.02-5.96l5.89-5.93c.11,0,.21-.01,.32-.02,1.04-.03,2.09-.6,2.36-1.61l.79-2.95c.36-1.33-.43-2.68-1.75-3.04l-4.92-1.32Z" fill="#75cdf8" fill-rule="evenodd"/>
<path d="M6.84,22.12c-1.33,.36-2.11,1.71-1.75,3.04l.79,2.95c.27,1.01,1.32,1.58,2.36,1.61,2.76,.09,5.26,1.96,6.01,4.77,.75,2.81-.47,5.68-2.82,7.14-.89,.55-1.51,1.57-1.24,2.58l.79,2.95c.36,1.33,1.71,2.11,3.04,1.75l40.11-10.75c1.33-.36,2.11-1.71,1.76-3.04l-.79-2.95c-.27-1.01-1.32-1.58-2.36-1.61-2.76-.09-5.26-1.96-6.01-4.77-.75-2.81,.47-5.68,2.82-7.14,.89-.55,1.51-1.57,1.24-2.58l-.79-2.95c-.36-1.33-1.71-2.11-3.04-1.75L6.84,22.12Z" fill="#f5e680" fill-rule="evenodd"/>
<path d="M28.43,22.47c-.36,.1-.68,.33-.88,.67l-3.02,5.24c-1.04,1.8-.43,4.08,1.37,5.12,1.05,.61,2.26,.65,3.29,.22l.14,2.24c.09,1.45,1.81,2.23,3.21,1.85,1.4-.38,2.5-1.91,1.85-3.21l-1-2.01c1.11-.15,2.14-.79,2.74-1.84,1.04-1.8,.43-4.08-1.37-5.12l-5.24-3.03c-.34-.2-.74-.24-1.09-.14Z" fill="#e6a361" fill-rule="evenodd"/>
<path d="M47.45,11.29c-.16,.01-.33,.04-.5,.08l-3.84,1.03c1.33-.35,2.68,.43,3.03,1.76l.79,2.95c.27,1.01-.36,2.03-1.24,2.58-2.35,1.46-3.57,4.33-2.82,7.13,.75,2.81,3.25,4.68,6.01,4.77,1.04,.03,2.09,.6,2.36,1.61l.79,2.95c.36,1.33-.42,2.68-1.74,3.04l3.83-1.03c1.33-.36,2.11-1.71,1.75-3.04l-.79-2.95c-.27-1.01-1.32-1.58-2.36-1.61-2.76-.09-5.26-1.96-6.01-4.77-.75-2.81,.47-5.68,2.82-7.14,.89-.55,1.51-1.57,1.24-2.58l-.79-2.95c-.31-1.16-1.39-1.91-2.54-1.84Z" fill="#f2d865" fill-rule="evenodd"/>
<path d="M4.12,25.42l.79,2.96c.36,1.35,1.69,2.3,3.3,2.35,2.37,.08,4.46,1.73,5.08,4.03,.62,2.3-.36,4.77-2.38,6.03-1.37,.85-2.04,2.33-1.68,3.69l.79,2.95c.42,1.55,1.83,2.58,3.36,2.58,.3,0,.6-.04,.9-.12l10.78-2.89,24.66,6.61c.3,.08,.61,.12,.91,.12,.6,0,1.2-.16,1.73-.47,.8-.46,1.38-1.22,1.62-2.12l.79-2.95c.36-1.35-.31-2.84-1.68-3.69-1.53-.95-2.42-2.58-2.51-4.35l3.8-1.02c.9-.24,1.65-.82,2.12-1.62,.46-.8,.59-1.74,.35-2.64l-.16-.58c1.18-.31,2.1-1.11,2.39-2.19l.79-2.95c.5-1.85-.61-3.77-2.46-4.26l-9.57-2.56c.41-1.13,1.16-2.14,2.22-2.8,1.37-.85,2.04-2.33,1.68-3.69l-.79-2.95c-.24-.9-.82-1.65-1.62-2.12s-1.74-.59-2.64-.34L6.58,21.15c-.9,.24-1.65,.82-2.12,1.62-.46,.8-.59,1.74-.35,2.64Zm47.92,20.78c.49,.31,.96,.9,.8,1.47l-.79,2.95c-.1,.38-.35,.71-.69,.9s-.74,.25-1.12,.15l-21.32-5.71,19.71-5.28c.24,2.25,1.44,4.3,3.41,5.52Zm5.91-17.58l-.79,2.95c-.11,.43-.53,.69-.97,.8l-.12-.46c-.36-1.35-1.69-2.3-3.3-2.35-2.37-.08-4.46-1.73-5.08-4.03-.11-.41-.11-.82-.12-1.23l9.33,2.5c.79,.21,1.26,1.03,1.05,1.81ZM6.2,23.77c.2-.34,.52-.59,.9-.69L47.21,12.34c.13-.04,.26-.05,.39-.05,.26,0,.51,.07,.73,.2,.34,.2,.59,.52,.69,.9l.79,2.95c.15,.55-.29,1.15-.8,1.47-2.83,1.76-4.06,5.24-3.26,8.24,.85,3.19,3.65,5.41,6.94,5.51,.6,.02,1.28,.33,1.43,.87l.79,2.95c.21,.79-.26,1.6-1.05,1.81L13.76,47.95c-.79,.21-1.6-.26-1.81-1.05l-.79-2.95c-.15-.57,.31-1.16,.8-1.47,2.76-1.71,4.1-5.1,3.26-8.24-.84-3.14-3.7-5.41-6.94-5.51-.58-.02-1.28-.3-1.43-.87l-.79-2.95c-.1-.38-.05-.78,.15-1.12Z"/>
<path d="M25.4,34.37c.89,.51,1.88,.72,2.87,.61l.06,1.04c.05,.87,.49,1.65,1.24,2.18,.63,.46,1.44,.7,2.24,.7,.33,0,.66-.04,.98-.13,1.09-.29,2.05-1.1,2.5-2.11,.38-.84,.37-1.73-.02-2.52l-.47-.93c.91-.4,1.67-1.08,2.18-1.96,.63-1.1,.8-2.38,.48-3.6-.33-1.22-1.11-2.25-2.21-2.88l-5.24-3.03c-.56-.33-1.22-.41-1.85-.24h0c-.63,.17-1.15,.58-1.48,1.14l-3.02,5.24c-.64,1.1-.8,2.38-.48,3.6,.33,1.22,1.11,2.25,2.21,2.88Zm0-5.48l3.02-5.24c.08-.13,.2-.19,.27-.21,.07-.02,.19-.03,.33,.04l5.24,3.03c.64,.37,1.09,.96,1.28,1.67,.19,.71,.09,1.45-.28,2.08-.43,.74-1.16,1.23-2.01,1.35-.32,.04-.6,.24-.75,.52-.15,.29-.16,.63-.01,.92l1,2c.12,.24,.11,.51-.02,.8-.21,.46-.69,.86-1.2,1-.51,.14-1.13,.03-1.54-.26-.26-.19-.4-.42-.41-.68l-.14-2.24c-.02-.32-.19-.62-.47-.79-.28-.18-.62-.2-.91-.08-.79,.33-1.67,.27-2.42-.16-.64-.37-1.09-.96-1.28-1.67-.19-.71-.09-1.45,.28-2.08Z"/>
<path d="M12.13,25.82c.1-.17,.15-.36,.15-.55,0-.39-.21-.76-.55-.95-.17-.1-.36-.15-.55-.15-.39,0-.76,.21-.95,.55-.1,.17-.15,.36-.15,.55,0,.39,.21,.76,.55,.95,.52,.3,1.2,.12,1.51-.4Z"/>
<path d="M16.54,24.63c.1-.17,.15-.36,.15-.55,0-.39-.21-.76-.55-.95-.17-.1-.36-.15-.55-.15-.39,0-.76,.21-.95,.55-.1,.17-.15,.36-.15,.55,0,.39,.21,.76,.55,.95,.52,.3,1.2,.12,1.51-.4Z"/>
<path d="M20,24c.39,0,.76-.21,.95-.55,.1-.17,.15-.36,.15-.55,0-.39-.21-.76-.55-.95-.17-.1-.36-.15-.55-.15-.39,0-.76,.21-.95,.55-.3,.52-.12,1.2,.4,1.5,.17,.1,.36,.15,.55,.15Z"/>
<path d="M41.92,37.93c.1-.17,.15-.36,.15-.55,0-.39-.21-.76-.55-.95-.17-.1-.36-.15-.55-.15-.39,0-.76,.21-.95,.55-.3,.52-.12,1.2,.4,1.5,.52,.3,1.2,.12,1.5-.4Z"/>
<path d="M45.39,37.3c.39,0,.76-.21,.95-.55,.1-.17,.15-.36,.15-.55,0-.39-.21-.76-.55-.95-.17-.1-.36-.15-.55-.15-.39,0-.76,.21-.95,.55-.1,.17-.15,.36-.15,.55,0,.39,.21,.76,.55,.95,.17,.1,.36,.15,.55,.15Z"/>
<path d="M49.8,36.12c.39,0,.76-.21,.95-.55,.1-.17,.15-.36,.15-.55,0-.39-.21-.76-.55-.95-.17-.1-.36-.15-.55-.15-.39,0-.76,.21-.95,.55-.3,.52-.12,1.2,.4,1.5,.17,.1,.36,.15,.55,.15Z"/>
</g>
<g id="s"/>
<g id="t"/>
<g id="u"/>
<g id="v"/>
<g id="w"/>
<g id="x"/>
<g id="y"/>
<g id="a`"/>
<g id="aa"/>
<g id="ab"/>
<g id="ac"/>
<g id="ad"/>
<g id="ae"/>
<g id="af"/>
<g id="ag"/>
<g id="ah"/>
<g id="ai"/>
<g id="aj"/>
<g id="ak"/>
<g id="al"/>
<g id="am"/>
<g id="an"/>
<g id="ao"/>
<g id="ap"/>
<g id="aq"/>
<g id="ar"/>
<g id="as"/>
<g id="at"/>
<g id="au"/>
<g id="av"/>
<g id="aw"/>
<g id="ax"/>
</svg>