<svg width="30" height="31" viewBox="0 0 30 31" fill="none" xmlns="http://www.w3.org/2000/svg">
<path d="M14.6604 30.3702C13.5594 29.8039 12.2812 28.9729 11.1141 28.0651C8.2876 25.8659 5.8343 22.9759 4.15113 19.8557C1.86191 15.6186 0.726562 10.7782 0.726562 5.28406C0.726562 4.35514 0.763614 3.35741 0.808604 3.07423C0.861534 2.72225 1.13412 2.27764 1.47552 1.98388C1.8672 1.64777 2.24036 1.45193 2.73525 1.32755C4.3999 0.904105 7.89592 0.440968 10.7171 0.268946C16.46 -0.0803916 21.8509 0.268946 26.6093 1.30108C27.2815 1.44664 27.345 1.46781 27.6494 1.62131C27.9775 1.78804 28.1337 1.89919 28.3957 2.16119C28.7239 2.48936 28.8985 2.80164 28.9647 3.18009C29.0123 3.4421 29.0282 5.00618 28.9938 5.84247C28.8006 10.4685 27.8505 14.7903 26.1965 18.5562C25.9345 19.1544 25.2808 20.4511 24.9447 21.0387C22.846 24.7067 19.9692 27.6046 16.3753 29.6662C15.9889 29.8885 14.8986 30.4655 14.8642 30.4655C14.8536 30.4655 14.7636 30.4231 14.6604 30.3702ZM11.8815 20.9646C13.9008 20.8534 15.4173 20.0806 16.3541 18.6886C17.3333 17.2303 17.5212 14.9173 16.7776 13.475C16.1715 12.3026 14.9621 11.4028 12.7814 10.4977C10.1137 9.39142 9.53146 9.0315 9.29857 8.34076C9.22711 8.12375 9.20065 7.68443 9.24564 7.42772C9.32239 6.9937 9.5791 6.55173 9.9152 6.27914C10.1216 6.10977 10.4895 5.92451 10.77 5.84776C11.0585 5.77101 11.6751 5.76307 11.9874 5.83718C12.7893 6.02243 13.263 6.51733 13.6415 7.56005L13.7659 7.90409L15.3882 7.91203L17.0078 7.91732L16.9919 7.79294C16.984 7.72148 16.9708 7.58916 16.9628 7.49388C16.8384 6.15476 16.2641 4.95589 15.367 4.17518C13.6626 2.69049 10.86 2.39144 8.65282 3.45533C7.88534 3.82584 7.25282 4.31279 6.75528 4.92149C6.03808 5.79483 5.65699 6.9937 5.71256 8.18462C5.79725 10.0133 6.77381 11.3684 8.67929 12.2946C9.11861 12.509 9.38855 12.6201 10.1216 12.8901C10.6668 13.0912 11.7863 13.5544 12.1885 13.7476C13.0725 14.1684 13.533 14.6103 13.6812 15.1899C13.9326 16.1691 13.4086 17.2806 12.4744 17.7517C11.916 18.0322 11.3046 18.0958 10.7356 17.929C9.93108 17.6961 9.36208 17.1086 9.08949 16.2326C9.00481 15.9547 8.9307 15.5472 8.9307 15.3513C8.9307 15.2614 8.91747 15.2217 8.88836 15.2111C8.86454 15.2031 8.07853 15.1952 7.13903 15.1952H5.42939L5.44527 15.6398C5.49026 16.8863 5.86341 18.0111 6.51445 18.8791C7.49895 20.1838 9.02333 20.8852 11.0744 20.9725C11.1696 20.9778 11.2887 20.9831 11.339 20.9857C11.3893 20.9884 11.6354 20.9778 11.8815 20.9646ZM18.9345 20.6205C20.6573 20.5147 21.4963 20.2394 22.5946 19.4111C23.6743 18.5986 24.2777 17.5056 24.4418 16.0685C24.4842 15.6954 24.4577 14.9782 24.3889 14.5812C24.1719 13.3373 23.4653 12.337 22.3643 11.7045C22.1711 11.596 21.8668 11.4557 21.491 11.3075C21.4486 11.2916 21.4936 11.2519 21.7556 11.0799C22.4861 10.5956 23.0577 9.88367 23.3303 9.1056C23.4891 8.6557 23.542 8.36723 23.5579 7.83793C23.6002 6.4988 23.2297 5.45343 22.4305 4.65948C21.5413 3.77555 20.398 3.31242 18.7889 3.18009C18.6116 3.16686 17.4074 3.15363 16.063 3.15627H13.6547L13.9432 3.25949C14.4857 3.45533 15.0547 3.75968 15.5205 4.10107C15.8037 4.31015 16.4282 4.94795 16.6373 5.24436C16.7352 5.38198 16.902 5.66515 17.0078 5.87158L17.201 6.25003H17.6165C18.6645 6.25003 19.297 6.42735 19.6993 6.83226C20.0116 7.14984 20.1677 7.53093 20.1942 8.06288C20.2286 8.69275 20.0513 9.21675 19.6808 9.57668C19.5088 9.74605 19.2467 9.91014 19.0403 9.97894C18.6195 10.1166 18.564 10.1192 17.0105 10.1377L15.5469 10.1536L16.4706 11.6224L17.3916 13.0912L18.1961 13.1071C19.08 13.1256 19.3367 13.1547 19.7258 13.2897C20.0407 13.4009 20.2921 13.557 20.525 13.7899C20.8558 14.1207 21.0199 14.4806 21.0808 15.0205C21.1337 15.4651 21.057 15.9786 20.8902 16.3173C20.6891 16.7222 20.3953 17.0133 19.9851 17.2198C19.5061 17.4606 19.1568 17.5241 18.2199 17.5453L17.5186 17.5585L17.418 17.7676C17.283 18.0428 16.9522 18.5404 16.7061 18.8341C16.3171 19.3026 15.7772 19.771 15.2876 20.07C15.0362 20.2235 14.5625 20.4405 14.2237 20.557L13.9723 20.6443L16.235 20.647C17.4789 20.647 18.6936 20.6337 18.9345 20.6205Z" fill="#9CA3AF"/>
</svg>
