<?xml version="1.0" encoding="UTF-8"?>
<svg version="1.1" viewBox="0 0 1000 1000" width="1000" height="1000" xmlns="http://www.w3.org/2000/svg">
<path transform="translate(463,132)" d="m0 0h68l49 3 37 4 38 6 29 6 34 9 29 10 26 12 18 11 14 12 9 11 5 10 2 8v12l-3 16-7 19-6 11-1 4v8l3 7 4 3 9 2 9-1 15-9 21-13 15-8 12-3h18l16 4 17 8 12 9 9 8 9 11 7 11 6 12 5 17 1 6v22l-3 15-4 12-8 16-9 12-11 11-14 9-12 5-17 4h-19l-20-4 6 38 2 19v36l-3 28-5 26-7 24-9 24-11 23-12 20-12 17-8 10-12 14-21 21-11 9-17 13-18 12-15 9-27 14-32 13-31 10-34 8-30 5-29 3-18 1h-42l-29-2-31-4-31-6-30-8-29-10-21-9-25-12-17-10-18-12-16-12-13-11-10-9-16-16-9-11-12-15-11-17-12-21-10-22-9-25-6-23-4-21-3-29v-38l4-39 2-15-21 1h-34l-14-7-13-11-10-12-10-16-7-16-4-13-2-11v-21l4-16 8-16 7-10 11-12 10-8 15-9 16-6 17-3h11l15 3 12 5 23 12 16 10 8 1 8-7 7-9 1-7-3-6-7-8-9-16-5-15v-15l4-11 7-11 11-11 14-10 16-9 17-8 28-10 27-8 36-8 36-6 34-4 39-3zm-10 5-44 3-43 5-40 7-34 8-29 9-28 11-21 11-14 10-11 10-7 10-4 10-1 10 3 14 8 16 10 13 12 10 19 12 27 14 27 11 27 9 26 7 34 7 42 6 36 3 21 1h64l36-2 40-4 38-6 36-8 31-9 27-10 29-14 15-9 13-10 6-8 6-13 5-16 1-6v-17l-4-10-6-9-12-12-18-12-16-8-21-9-27-9-35-9-31-6-42-6-44-4-19-1zm446 149-13 2-12 5-17 10-22 14-7 3h-13l-8-3-5-5-2-4-1-10-4 2-19 12-17 9-26 11-36 12-32 8-32 6-36 5-34 3-16 1-32 1h-29l-47-2-40-4-38-6-28-6-32-9-26-9-25-11-16-8-16-9-14-10h-2l-3 9-9 10-4 5-4 2-9-1-14-8-13-8-23-11-12-3h-19l-17 4-19 9-12 9-13 13-10 15-6 15-2 8-1 16 3 19 5 15 8 16 8 12 11 12 9 8 9 5 7 2h14l43-2-4 24-3 30-1 24 2 36 5 30 6 23 6 18 8 19 8 16 9 16 10 15 10 13 12 14 13 14 8 7 12 11 20 15 20 13 29 16 25 11 30 11 29 8 28 6 26 4 33 3h60l33-3 32-5 27-6 30-9 27-10 26-12 22-12 17-11 14-10 14-11 12-11 10-9 12-13 11-13 13-18 12-20 9-17 11-27 7-23 5-23 3-20 2-33-1-24-5-37-4-22 17 5 16 2 14-1 21-6 14-8 13-12 10-14 8-17 4-13 2-15v-9l-3-19-5-13-7-13-10-13-10-10-14-10-15-7-11-3z" fill="#F5F1D1"/>
<path transform="translate(483,163)" d="m0 0h34l31 1 42 3 42 5 39 7 36 9 24 8 22 10 16 10 12 12 5 10 1 4v9l-4 10-7 9-11 9-14 8-17 8-19 7-29 8-34 7-32 5-36 4-29 2-23 1h-65l-40-2-41-4-34-5-36-7-32-9-20-7-23-11-13-9-11-11-5-10-1-10 3-10 6-9 7-7 10-7 21-11 21-8 27-8 31-7 30-5 41-5 42-3zm-16 5-40 2-41 4-40 6-29 6-29 8-18 6-20 9-14 8-9 7-8 10-3 8v8l4 10 9 10 10 7 16 9 20 8 25 8 29 7 33 6 39 5 36 3 19 1h87l45-3 42-5 35-6 30-7 29-9 21-9 13-7 11-8 8-8 5-10v-11l-4-9-8-9-14-10-25-12-27-9-32-8-26-5-34-5-41-4-39-2z" fill="#F5F1D1"/>
<path transform="translate(213,326)" d="m0 0h2l7 8 2 3-4-2-5-5-3 1-14 24-10 19-12 27-11 29-9 31-6 28-3 21-1 12v42l3 25 6 26 7 21 9 20 9 17 12 18 10 13 12 14 22 22 11 9 15 12 19 13 21 13 18 10 15 8 28 13 7 3-3 1-30-13-16-8-27-14-22-14-17-12-16-13-14-12-18-18-9-11-12-15-12-19-12-23-9-23-7-25-4-23-2-24v-22l3-32 5-27 6-24 10-30 10-24 14-29 10-18 12-19z" fill="#F5F1D1"/>
<path transform="translate(793,336)" d="m0 0h3l12 24 12 29 10 28 9 30 7 30 5 31 2 20v53l-3 24-6 27-8 24-9 20-10 18-10 14-8 10-9 10-7 7v-3l8-8 13-17 11-17 11-21 8-21 6-20 5-25 2-15 1-13v-39l-3-31-5-30-7-30-9-31-10-28-12-29-8-16-14 8-15 6-20 6-4-1 30-10 15-8z" fill="#F5F1D1"/>
<path transform="translate(96,320)" d="m0 0 10 1 43 12 12 6 6 7 4 10v13l-4 13-7 16-12 22-8 12-5 5-8 1-52-15-8-5-8-9-4-8-2-8-1-14 2-15 5-13 6-11 10-11 10-6 5-2zm-3 5-10 4-10 9-7 9-6 13-3 13v16l3 12 6 10 7 6 15 5 35 10 3 1h7l7-9 11-19 8-16 6-15 2-9-1-10-4-8-8-7-18-6-33-9z" fill="#F5F1D1"/>
<path transform="translate(899,320)" d="m0 0 10 1 9 4 8 6 9 10 8 16 3 11 1 7v13l-4 16-7 11-8 6-11 4-39 11-5 1h-7l-5-3-21-41-8-17-4-12v-13l5-8 7-6 14-5 39-11zm-3 5-43 12-12 5-5 4-3 5-1 9 4 13 8 18 10 20 11 20 1 1h9l43-12 10-4 7-7 5-10 2-8v-19l-4-15-6-12-8-10-8-6-10-4z" fill="#F5F1D1"/>
<path transform="translate(775,740)" d="m0 0 2 1-5 5-2-1z" fill="#F5F1D1"/>
<path transform="translate(370,822)" d="m0 0 5 1-3 1z" fill="#F5F1D1"/>
<path transform="translate(733,362)" d="m0 0 4 1z" fill="#F5F1D1"/>
<path transform="translate(737,361)" d="m0 0 4 1z" fill="#F5F1D1"/>
<path transform="translate(224,337)" d="m0 0 3 1h-3z" fill="#F5F1D1"/>
<path transform="translate(729,363)" d="m0 0 3 1z" fill="#F5F1D1"/>
<path transform="translate(383,827)" d="m0 0 2 1z" fill="#F5F1D1"/>
<path transform="translate(380,826)" d="m0 0 2 1z" fill="#F5F1D1"/>
<path transform="translate(378,825)" d="m0 0 2 1z" fill="#F5F1D1"/>
<path transform="translate(375,824)" d="m0 0 2 1z" fill="#F5F1D1"/>
<path transform="translate(228,340)" d="m0 0 2 1z" fill="#F5F1D1"/>
<path transform="translate(767,748)" d="m0 0" fill="#F5F1D1"/>
<path transform="translate(768,747)" d="m0 0" fill="#F5F1D1"/>
<path transform="translate(769,746)" d="m0 0" fill="#F5F1D1"/>
<path transform="translate(777,739)" d="m0 0" fill="#F5F1D1"/>
<path transform="translate(778,738)" d="m0 0" fill="#F5F1D1"/>
<path transform="translate(779,737)" d="m0 0" fill="#F5F1D1"/>
<path transform="translate(780,736)" d="m0 0" fill="#F5F1D1"/>
<path transform="translate(781,735)" d="m0 0" fill="#F5F1D1"/>
<path transform="translate(232,342)" d="m0 0" fill="#F5F1D1"/>
<path transform="translate(230,341)" d="m0 0" fill="#F5F1D1"/>
<path transform="translate(227,339)" d="m0 0" fill="#F5F1D1"/>
</svg>
