<?xml version="1.0" encoding="UTF-8"?>
<svg version="1.1" viewBox="0 0 1000 1000" width="1000" height="1000" xmlns="http://www.w3.org/2000/svg">
<path transform="translate(455,123)" d="m0 0h84l34 2 31 3 30 4 39 7 40 10 36 12 16 7 23 12 14 10 13 12 8 11 5 10 2 8v19l-3 14-7 19-6 11-1 8v3l4 1h10l22-14 22-13 14-5 5-1h22l16 4 19 9 14 10 10 9 8 9 8 13 8 16 5 17v38l-4 16-8 18-10 16-11 12-8 6-3 3-18 8-17 5-6 1h-21l-7-1 3 24 2 20v37l-2 23-5 30-6 22-9 25-15 31-10 17-10 15-10 13-9 10-7 8-22 22-11 9-18 13-15 10-13 8-19 10-16 8-27 11-34 11-29 7-26 5-34 4-17 1h-56l-27-2-29-4-26-5-27-7-36-12-21-9-23-11-23-13-15-10-14-10-12-9-15-14-19-19-7-8-11-14-13-20-12-21-12-25-10-28-6-24-4-26-2-22v-40l3-32 2-12-11 1h-38l-14-7-11-9-4-2-12-16-9-15-7-15-6-18-1-5v-36l5-16 9-17 9-12 5-6 14-11 15-9 17-7 12-3 8-1h15l15 3 12 5 16 8 16 9 8 5 4-1 8-9-3-5-7-9-9-16-5-15-1-14 3-14 7-13 9-10 7-7 15-11 22-12 19-8 36-12 40-10 26-5 2-1 18-2 5-2 64-5zm0 23-34 2-38 4-21 3-11 1-11 3-25 5-31 8-35 12-20 9-15 9-10 8-11 11-5 8-2 12 3 12 6 12 3 3h2l2 5 5 7 15 11 8 4 17 10 16 8 27 11 32 10 29 7 33 6 33 4 40 3 22 1h42l42-2 44-4 33-5 30-6 36-10 25-9 25-11 14-8 9-5 15-12 9-19 4-17v-13l-3-8-8-10-7-7-17-12-25-12-34-12-38-10-31-6-10-1-9-2-31-4-34-3-21-1zm444 149-12 2-14 7-19 12-13 8-9 4-6 1h-9l-12-3-7-5h-2l-2-5-3-3-10 7-29 14-28 11-28 9-28 7-30 6-38 5-34 3-50 2h-30l-32-1-39-3-34-4-24-4-30-7-28-8-31-11-29-13-16-8-15-10-5 5-13 14-6 3h-9l-16-8-21-13-17-8-12-3h-16l-16 4-16 8-14 11-8 8-9 13-5 11-3 11-1 12 3 19 7 19 6 11 9 13 12 12 12 7 4 1 33-1h25l4 1 1 4v9l-3 20v8h1l5-27 6-24 4-12-1-2-6 8-9 4h-9l-30-9-15-4-13-5-6-4-5-5-6-9-4-11-2-13 1-18 3-12 6-14 9-13 7-7 10-6 7-3 5-1h12l23 6 27 8 13 7 7 8 5 11 1 8 2 1 10-18 8-14 6-9 4-2 7 1 6 4 5 5 8 6 3 3 1 2v7l-1 4-10 1-13-8-4 5-10 17-8 16-8 17-10 26-9 28-6 23-5 28-2 20v40l3 24 6 25 8 24 11 24 11 18 14 19 10 11 7 8 14 14 8 7 13 11 19 14 14 9 14 8 9 6 18 10 23 11 24 10 21 8 4 4 1 2v6l-1 4-8 2v1l33 6 27 3 15 1h56l26-2 28-4 34-7 21-6 27-9 35-15 6-3v-2l9-3 18-11 17-12 13-10 14-12 7-7 4-3-1-2-14 12-10 7-2 1h-6l-4-1-1-10 4-6 13-11 16-16 9-11 9-12 11-18 8-16 7-18 7-24 4-21 3-28v-35l-3-31-6-34-10-40-8-25-7-20-10-24-5-11-20 9-22 7-10 2h-11l-4-1-1-10 2-4 8-3 26-7 16-7 8-6 6-4 7-1 7 3 14 29 2 3 1-15 5-9 8-7 12-6 45-13 5-1h12l10 3 11 6 10 10 8 13 6 14 3 16v14l-2 12-5 12-7 10-9 6-13 5-39 11-5 1h-11l-8-4-18-33-1 3 10 34 6 26 5 28 3 28v55l-3 24-5 24-6 20-8 20-2 4 1 3 8-16 10-27 6-22 4-21 3-29v-33l-4-35-4-25v-10l1-4 10-1 16 5 6 1h20l18-5 14-8 10-9 9-12 8-16 4-14 2-14-1-14-4-15-5-12-9-13-9-10-11-9-13-8-11-4-12-2zm-804 39-7 3-8 7-7 9-5 13-2 10v10l3 13 5 7 7 4 23 7 25 7 12-20 12-23 4-12v-12l-3-5-6-5-46-13zm803 0-26 7-23 7-5 5v2l-3 1 2 10 9 21 17 33 2 3 17-4 31-9 6-4 5-7 3-11v-14l-4-15-6-11-11-11-8-3zm-63 70m1 2 1 2zm-686 26m-17 70 1 4zm-1 11 1 4zm-1 12v5h1v-5zm0 33 1 2zm1 13m1 10m1 7m1 5 1 3zm1 6 1 2zm1 5 1 3zm1 4 1 3zm1 4 1 4zm1 4 1 3zm1 3 1 8 8 24 9 20 9 17 12 19 12 16 9 10 7 8 6 7 8 7 13 12 12 9 18 13 9 6 14 7 15 9 26 11 24 9 35 10 4-1-28-10-33-15-23-11-14-8-10-5-27-18-13-10-11-9-13-11-10-9-1-2h-2l-2-4-11-12-13-17-9-13-9-16-12-25-8-22zm695 58 1 2zm-1 2 1 2zm-1 2 1 2zm-1 2m-1 1 1 2zm-1 2 1 2zm-1 2m-1 2m-1 2m-1 1m-1 2m-1 2m-1 1m-1 2m-1 1m-1 2m-2 3m-1 1m-1 2m-1 1m-1 1 1 2z" fill="yellow"/>
<path transform="translate(482,154)" d="m0 0h35l31 1 44 3 43 5 24 4 28 6 26 7 27 10 19 9 17 11 10 9 8 14 2 6v14l-5 13-6 8-7 7-15 10-16 8-16 7-27 9-32 8-36 6-32 4-33 3-39 2h-66l-39-2-43-4-41-6-26-5-26-7-24-8-18-8-17-9-11-8-10-9-7-13-2-11 1-11 4-9 5-8 6-7 10-7 15-9 25-11 28-9 17-5 15-3 6-2 15-2 31-4 38-4 32-2zm-3 23-44 2-44 4-38 5-11 3-14 2-11 3-14 3-20 6-20 8-16 8-12 9-7 7-2 4v10l4 6 8 8 14 9 14 7 22 8 29 8 36 7 35 5 40 4 33 2h75l47-3 35-4 40-6 31-7 21-6 20-7 17-8 13-9 9-8 4-8-1-9-8-10-15-10-16-8-24-9-29-8-24-5-39-6-40-4-31-2-26-1z" fill="yellow"/>
</svg>
