<?xml version="1.0" encoding="iso-8859-1"?>
<!-- Uploaded to: SVG Repo, www.svgrepo.com, Generator: SVG Repo Mixer Tools -->
<svg fill="#000000" version="1.1" id="Layer_1" xmlns="http://www.w3.org/2000/svg" xmlns:xlink="http://www.w3.org/1999/xlink" 
	 viewBox="0 0 503.607 503.607" xml:space="preserve">
<g>
	<g>
		<g>
			<path d="M298.472,250.946c-12.498-7.294-19.523-16.804-21.445-28.58c-1.318-8.142,0.101-16.325,2.644-23.695
				c-20.069,14.395-44.653,39.886-44.653,78.311c0,23.141,18.827,41.967,41.967,41.967c23.141,0,41.967-18.826,41.967-41.967
				C318.952,261.245,298.673,251.047,298.472,250.946z"/>
			<path d="M276.984,142.689c-60.164,0-109.115,48.951-109.115,109.115s48.951,109.115,109.115,109.115
				s109.115-48.951,109.115-109.115S337.148,142.689,276.984,142.689z M276.984,335.738c-32.399,0-58.754-26.355-58.754-58.754
				c0-76.212,77.589-107.26,80.896-108.544c3.576-1.402,7.672-0.151,9.896,2.996c2.224,3.156,2.006,7.428-0.529,10.341
				c-4.935,5.691-17.249,23.602-14.89,37.93c1.1,6.673,5.288,12.061,12.8,16.46c0.655,0.285,29.335,14.537,29.335,40.817
				C335.738,309.382,309.382,335.738,276.984,335.738z"/>
			<path d="M243.41,130.586V58.755h-17.307c-3.802,30.325-27.908,54.431-58.234,58.234v72.276
				C184.194,160.895,211.204,139.517,243.41,130.586z"/>
			<path d="M58.754,21.454v28.907h25.18c4.633,0,8.393,3.76,8.393,8.393s-3.76,8.393-8.393,8.393h-25.18v369.311h25.18
				c4.633,0,8.393,3.76,8.393,8.393c0,4.633-3.76,8.393-8.393,8.393h-25.18v28.907c0,11.835,9.619,21.454,21.454,21.454h28.907V0
				H80.208C68.373,0,58.754,9.619,58.754,21.454z"/>
			<rect x="260.197" y="58.751" width="33.574" height="67.148"/>
			<path d="M423.399,0H125.902v503.607h297.497c11.835,0,21.454-9.619,21.454-21.454V21.454C444.852,9.619,435.234,0,423.399,0z
				 M402.885,394.492c0,4.633-3.76,8.393-8.393,8.393c-27.774,0-50.361,22.587-50.361,50.361c0,4.633-3.76,8.393-8.393,8.393
				h-33.574h-50.361h-33.574c-4.633,0-8.393-3.76-8.393-8.393c0-27.774-22.587-50.361-50.361-50.361
				c-4.633,0-8.393-3.76-8.393-8.393V109.115c0-4.633,3.76-8.393,8.393-8.393c27.774,0,50.361-22.587,50.361-50.361
				c0-4.633,3.76-8.393,8.393-8.393h33.574h50.361h33.574c4.633,0,8.393,3.76,8.393,8.393c0,27.774,22.587,50.361,50.361,50.361
				c4.633,0,8.393,3.76,8.393,8.393V394.492z"/>
			<path d="M310.557,373.021v71.831h17.307c3.802-30.326,27.908-54.432,58.234-58.234v-72.276
				C369.773,342.712,342.763,364.09,310.557,373.021z"/>
			<path d="M327.865,58.754h-17.307v71.831c32.206,8.931,59.216,30.309,75.541,58.679v-72.276
				C355.773,113.186,331.667,89.08,327.865,58.754z"/>
			<rect x="260.197" y="377.702" width="33.574" height="67.148"/>
			<path d="M167.869,314.342v72.276c30.326,3.802,54.431,27.908,58.234,58.234h17.307v-71.831
				C211.204,364.09,184.194,342.712,167.869,314.342z"/>
		</g>
	</g>
</g>
</svg>