<svg width="60" height="56" viewBox="0 0 60 56" fill="none" xmlns="http://www.w3.org/2000/svg">
<path d="M20.1096 53.9664C18.4653 54.2278 16.8891 54.3248 15.2994 54.3248C10.4615 54.3248 6.92776 53.1856 4.80734 51.1995C2.07765 48.6427 0.879769 43.5606 1.96899 36.9599C4.88961 39.957 7.83671 42.8483 10.9234 45.7394C13.95 48.5743 16.9765 51.2833 20.1096 53.9664ZM39.4476 2.03008C42.5858 1.58882 45.4506 1.56489 47.9076 1.92329C50.9121 2.36156 53.2048 3.35476 54.6897 4.74561C57.4194 7.30238 58.6173 12.3845 57.5281 18.9852C54.6075 15.988 51.6604 13.0968 48.5737 10.2056C45.5664 7.38887 42.5592 4.69636 39.4476 2.03008ZM43.7573 22.7908L43.8356 22.7174L43.9028 22.6335C44.4409 21.9615 44.703 21.1362 44.703 20.3475C44.703 19.567 44.4403 18.6911 43.7573 18.0514L40.4067 14.9131C38.9923 13.5882 36.8387 13.5882 35.4242 14.9131C34.2935 15.9722 34.0323 17.5066 34.6406 18.7853L32.9713 20.3489C31.654 19.7236 30.0589 19.9385 28.9326 20.9935C27.8018 22.0526 27.5406 23.587 28.149 24.8658L26.4797 26.4293C25.1624 25.804 23.5673 26.0189 22.4409 27.0739C21.3506 28.0952 21.0688 29.5583 21.5954 30.808L19.7786 32.5097C18.4613 31.8844 16.8662 32.0993 15.7398 33.1543C14.2694 34.5316 14.2694 36.7126 15.7398 38.0899L19.0904 41.2282C19.8146 41.9065 20.8213 42.2218 21.5816 42.2218C22.342 42.2218 23.3487 41.9065 24.0729 41.2282C25.2037 40.169 25.4649 38.6346 24.8565 37.3559L26.7454 35.5867C27.2698 35.8293 27.8216 35.9453 28.2827 35.9453C29.0431 35.9453 30.0498 35.6299 30.774 34.9516C31.9047 33.8925 32.1659 32.3581 31.5576 31.0794L33.2371 29.5063C33.7615 29.7489 34.3132 29.8648 34.7744 29.8648C35.5347 29.8648 36.5414 29.5495 37.2656 28.8712C38.3964 27.8121 38.6576 26.2776 38.0492 24.9989L39.7287 23.4258C40.2531 23.6684 40.8049 23.7844 41.266 23.7844C42.0264 23.7844 43.0331 23.4691 43.7573 22.7908ZM14.4402 13.9643C19.0909 9.60817 24.8799 6.27763 30.9131 4.16193C35.2457 7.69834 39.4044 11.407 43.5908 15.1415C47.5437 19.0291 51.4649 22.8868 55.031 26.7376C52.7875 32.4545 49.2672 37.645 44.6382 41.9808C39.9866 46.3377 34.1965 49.6686 28.1622 51.7842C24.0176 48.421 19.8638 44.7071 15.6966 40.8039C11.7694 37.1254 7.83623 33.0938 4.05652 29.1842C6.30039 23.4765 9.81744 18.2942 14.4402 13.9643Z" stroke="#F2C20B" stroke-width="3"/>
</svg>
