<svg width="60" height="60" viewBox="0 0 60 60" fill="none" xmlns="http://www.w3.org/2000/svg">
<mask id="path-1-inside-1_471_67723" fill="white">
<path d="M56.2778 38.4761L55.9991 39.9065L54.9544 40.3635L53.8981 40.8423L54.9429 41.2848L55.9876 41.7418L56.2893 43.2745L56.5909 44.7891L56.9161 43.2571L57.2299 41.7084L58.2165 41.3167C58.7507 41.0991 59.1571 40.8597 59.099 40.7872C59.0525 40.7146 58.658 40.5333 58.2401 40.3592C57.8107 40.2069 57.4043 40.0183 57.3346 39.953C57.265 39.8804 57.0912 39.2566 56.9518 38.5566C56.8126 37.8747 56.6732 37.2284 56.6266 37.1602C56.5796 37.0877 56.4286 37.6724 56.2778 38.4761ZM2.6568 31.598C2.30853 33.3512 2.32006 33.3005 2.15773 33.3861C2.07656 33.3861 1.61202 33.6254 1.13597 33.8285L0.265625 34.2203L1.24075 34.6627C1.78645 34.9166 2.26251 35.2285 2.32065 35.3591C2.36715 35.4969 2.52958 36.1759 2.66892 36.8744L2.9245 38.1518L3.2146 36.7555C3.37693 35.9887 3.56286 35.2916 3.60951 35.2235C3.66768 35.1509 4.1322 34.897 4.65428 34.6577L5.60639 34.2152L4.67791 33.8235C4.16732 33.5986 3.70278 33.3665 3.63313 33.2794C3.57496 33.1924 3.37755 32.4793 3.21521 31.7133L2.91235 30.317L2.6568 31.598ZM23.135 22.2855C21.6142 23.0348 19.8148 25.1972 19.2575 26.9678L18.9789 27.8528H15.6587L13.9058 29.8795C9.80791 34.6127 7.67171 37.9321 6.38346 41.609C5.32717 44.6397 4.99042 47.584 5.3617 50.6662L5.48951 51.7731L10.6207 51.8457H15.7519L15.8798 50.8751C16.3207 47.5891 17.3655 44.1334 18.8518 41.0171C19.6646 39.3146 19.7572 39.0426 19.9432 37.7152C20.5701 33.3055 22.3465 28.2489 24.7492 24.0105C25.4111 22.8527 25.585 22.461 25.4687 22.3595C25.1434 22.0838 23.6111 22.0548 23.1351 22.2724L23.135 22.2855ZM56.812 14.8974C56.4752 15.4415 55.0937 16.4128 54.2349 16.7189C53.2367 17.0743 50.7753 17.0961 49.5797 16.7189L48.7324 16.4795L47.6646 18.1138C46.3878 20.0549 45.5169 21.5021 44.6229 23.2212L43.9615 24.4812L44.9833 24.96C46.1092 25.504 47.4792 25.9298 48.2569 25.998L48.7675 26.0705L46.922 28.114C43.4509 31.9447 40.4444 35.9104 39.5389 37.8349C39.1325 38.7031 38.645 42.1581 38.5408 45.0017C38.4596 46.9762 38.5522 51.1304 38.6801 51.6411C38.7266 51.8297 39.9453 51.8587 45.4944 51.8587C51.8679 51.8587 52.2392 51.8587 52.158 51.5541C51.7867 50.1744 51.3803 48.0809 51.2174 46.7527C50.9618 44.5396 51.0429 39.8239 51.3919 37.6789C52.3555 31.6009 54.6425 26.0169 58.4037 20.5518L59.6211 18.7826L58.3322 16.671C57.6242 15.5307 57.0433 14.5775 57.0318 14.5775C57.0205 14.5775 56.9161 14.7233 56.812 14.8974ZM1.60052 28.0226H3.85239C5.98858 28.0226 6.11637 28.0226 6.18603 27.7034C6.30232 27.1594 7.8928 25.0811 8.58931 24.5705C8.94906 24.2948 9.51781 24.0409 9.88968 23.9901L10.5396 23.8886V14.0146L9.57595 14.1017C8.92607 14.1742 8.38036 14.3411 7.85767 14.6457C7.43976 14.8851 6.98672 15.0882 6.84802 15.0882C6.5464 15.0882 6.24417 14.6602 6.24417 14.2199C6.24417 13.9153 6.14 13.8935 3.92265 13.8935H1.60052V28.0226ZM11.8163 16.0211V25.9799H18.1431L18.3751 25.3851C18.6652 24.585 20.1279 22.559 21.0104 21.7248C23.0072 19.8192 24.5045 19.767 28.1385 21.4709C30.414 22.5263 31.6562 22.9347 32.9911 23.0711L34.1285 23.1726L32.1662 25.335C27.9519 29.9311 24.8061 33.8126 22.8098 36.8607C18.6077 43.2789 16.7386 49.2372 16.9591 55.5023C17.0055 56.6426 17.1099 58.0223 17.191 58.5838L17.3418 59.6051L28.173 59.6777C36.8334 59.6777 38.992 59.6777 38.946 59.5108C37.7971 55.6627 37.2514 51.6796 37.2398 47.1677C37.2285 36.1701 40.6994 25.5983 47.5834 15.6047L49.4059 12.9657L47.618 10.0374C46.6313 8.41974 45.7955 7.10897 45.7604 7.10897C45.7253 7.10897 45.4703 7.38462 45.2147 7.7183C44.5412 8.56917 43.067 9.57383 41.8248 10.0337C40.9193 10.3747 40.4899 10.4254 38.5741 10.4109C35.6603 10.4109 34.7663 10.157 29.6932 7.99322C24.9454 5.94981 22.8674 5.79675 20.3484 7.2613C19.8608 7.55146 19.3381 7.79083 19.1988 7.79083C18.8506 7.79083 18.4327 7.10897 18.4327 6.54825V6.09126H11.8151V16.0515L11.8163 16.0211ZM24.0169 9.56876C24.2955 10.062 23.9936 10.3863 23.1114 10.5908C22.6705 10.6779 21.9855 10.9463 21.5906 11.1494C20.8244 11.5773 20.5228 11.4758 20.5228 10.8302C20.5228 10.3877 20.7662 10.1628 21.7069 9.70658C22.7171 9.22783 23.7849 9.16254 24.0169 9.56876ZM25.3403 56.029V56.5367L22.3101 56.6093C19.0595 56.6818 18.8972 56.6093 19.071 55.7918C19.1406 55.4508 19.1988 55.4508 22.2399 55.4871L25.3397 55.5596V56.0674L25.3403 56.029ZM38.9805 1.58371C38.8412 2.31563 38.6674 2.99676 38.5856 3.09904C38.516 3.2006 38.121 3.42546 37.7031 3.5923C36.5421 4.0493 36.5306 4.10007 37.6335 4.54546L38.6431 4.95168L38.9569 6.48369L39.2827 7.99902L39.5498 6.65416C39.7007 5.90556 39.863 5.20774 39.9211 5.12214C39.9793 5.02059 40.4668 4.74494 40.9889 4.51282L41.941 4.07033L41.0701 3.69313C40.594 3.49002 40.1295 3.26515 40.0368 3.19987C39.9442 3.12733 39.7467 2.46796 39.6074 1.71863C39.4565 0.98672 39.3173 0.356359 39.2936 0.322266C39.2714 0.322266 39.132 0.867756 38.9805 1.58371Z"/>
</mask>
<path d="M56.2778 38.4761L55.9991 39.9065L54.9544 40.3635L53.8981 40.8423L54.9429 41.2848L55.9876 41.7418L56.2893 43.2745L56.5909 44.7891L56.9161 43.2571L57.2299 41.7084L58.2165 41.3167C58.7507 41.0991 59.1571 40.8597 59.099 40.7872C59.0525 40.7146 58.658 40.5333 58.2401 40.3592C57.8107 40.2069 57.4043 40.0183 57.3346 39.953C57.265 39.8804 57.0912 39.2566 56.9518 38.5566C56.8126 37.8747 56.6732 37.2284 56.6266 37.1602C56.5796 37.0877 56.4286 37.6724 56.2778 38.4761ZM2.6568 31.598C2.30853 33.3512 2.32006 33.3005 2.15773 33.3861C2.07656 33.3861 1.61202 33.6254 1.13597 33.8285L0.265625 34.2203L1.24075 34.6627C1.78645 34.9166 2.26251 35.2285 2.32065 35.3591C2.36715 35.4969 2.52958 36.1759 2.66892 36.8744L2.9245 38.1518L3.2146 36.7555C3.37693 35.9887 3.56286 35.2916 3.60951 35.2235C3.66768 35.1509 4.1322 34.897 4.65428 34.6577L5.60639 34.2152L4.67791 33.8235C4.16732 33.5986 3.70278 33.3665 3.63313 33.2794C3.57496 33.1924 3.37755 32.4793 3.21521 31.7133L2.91235 30.317L2.6568 31.598ZM23.135 22.2855C21.6142 23.0348 19.8148 25.1972 19.2575 26.9678L18.9789 27.8528H15.6587L13.9058 29.8795C9.80791 34.6127 7.67171 37.9321 6.38346 41.609C5.32717 44.6397 4.99042 47.584 5.3617 50.6662L5.48951 51.7731L10.6207 51.8457H15.7519L15.8798 50.8751C16.3207 47.5891 17.3655 44.1334 18.8518 41.0171C19.6646 39.3146 19.7572 39.0426 19.9432 37.7152C20.5701 33.3055 22.3465 28.2489 24.7492 24.0105C25.4111 22.8527 25.585 22.461 25.4687 22.3595C25.1434 22.0838 23.6111 22.0548 23.1351 22.2724L23.135 22.2855ZM56.812 14.8974C56.4752 15.4415 55.0937 16.4128 54.2349 16.7189C53.2367 17.0743 50.7753 17.0961 49.5797 16.7189L48.7324 16.4795L47.6646 18.1138C46.3878 20.0549 45.5169 21.5021 44.6229 23.2212L43.9615 24.4812L44.9833 24.96C46.1092 25.504 47.4792 25.9298 48.2569 25.998L48.7675 26.0705L46.922 28.114C43.4509 31.9447 40.4444 35.9104 39.5389 37.8349C39.1325 38.7031 38.645 42.1581 38.5408 45.0017C38.4596 46.9762 38.5522 51.1304 38.6801 51.6411C38.7266 51.8297 39.9453 51.8587 45.4944 51.8587C51.8679 51.8587 52.2392 51.8587 52.158 51.5541C51.7867 50.1744 51.3803 48.0809 51.2174 46.7527C50.9618 44.5396 51.0429 39.8239 51.3919 37.6789C52.3555 31.6009 54.6425 26.0169 58.4037 20.5518L59.6211 18.7826L58.3322 16.671C57.6242 15.5307 57.0433 14.5775 57.0318 14.5775C57.0205 14.5775 56.9161 14.7233 56.812 14.8974ZM1.60052 28.0226H3.85239C5.98858 28.0226 6.11637 28.0226 6.18603 27.7034C6.30232 27.1594 7.8928 25.0811 8.58931 24.5705C8.94906 24.2948 9.51781 24.0409 9.88968 23.9901L10.5396 23.8886V14.0146L9.57595 14.1017C8.92607 14.1742 8.38036 14.3411 7.85767 14.6457C7.43976 14.8851 6.98672 15.0882 6.84802 15.0882C6.5464 15.0882 6.24417 14.6602 6.24417 14.2199C6.24417 13.9153 6.14 13.8935 3.92265 13.8935H1.60052V28.0226ZM11.8163 16.0211V25.9799H18.1431L18.3751 25.3851C18.6652 24.585 20.1279 22.559 21.0104 21.7248C23.0072 19.8192 24.5045 19.767 28.1385 21.4709C30.414 22.5263 31.6562 22.9347 32.9911 23.0711L34.1285 23.1726L32.1662 25.335C27.9519 29.9311 24.8061 33.8126 22.8098 36.8607C18.6077 43.2789 16.7386 49.2372 16.9591 55.5023C17.0055 56.6426 17.1099 58.0223 17.191 58.5838L17.3418 59.6051L28.173 59.6777C36.8334 59.6777 38.992 59.6777 38.946 59.5108C37.7971 55.6627 37.2514 51.6796 37.2398 47.1677C37.2285 36.1701 40.6994 25.5983 47.5834 15.6047L49.4059 12.9657L47.618 10.0374C46.6313 8.41974 45.7955 7.10897 45.7604 7.10897C45.7253 7.10897 45.4703 7.38462 45.2147 7.7183C44.5412 8.56917 43.067 9.57383 41.8248 10.0337C40.9193 10.3747 40.4899 10.4254 38.5741 10.4109C35.6603 10.4109 34.7663 10.157 29.6932 7.99322C24.9454 5.94981 22.8674 5.79675 20.3484 7.2613C19.8608 7.55146 19.3381 7.79083 19.1988 7.79083C18.8506 7.79083 18.4327 7.10897 18.4327 6.54825V6.09126H11.8151V16.0515L11.8163 16.0211ZM24.0169 9.56876C24.2955 10.062 23.9936 10.3863 23.1114 10.5908C22.6705 10.6779 21.9855 10.9463 21.5906 11.1494C20.8244 11.5773 20.5228 11.4758 20.5228 10.8302C20.5228 10.3877 20.7662 10.1628 21.7069 9.70658C22.7171 9.22783 23.7849 9.16254 24.0169 9.56876ZM25.3403 56.029V56.5367L22.3101 56.6093C19.0595 56.6818 18.8972 56.6093 19.071 55.7918C19.1406 55.4508 19.1988 55.4508 22.2399 55.4871L25.3397 55.5596V56.0674L25.3403 56.029ZM38.9805 1.58371C38.8412 2.31563 38.6674 2.99676 38.5856 3.09904C38.516 3.2006 38.121 3.42546 37.7031 3.5923C36.5421 4.0493 36.5306 4.10007 37.6335 4.54546L38.6431 4.95168L38.9569 6.48369L39.2827 7.99902L39.5498 6.65416C39.7007 5.90556 39.863 5.20774 39.9211 5.12214C39.9793 5.02059 40.4668 4.74494 40.9889 4.51282L41.941 4.07033L41.0701 3.69313C40.594 3.49002 40.1295 3.26515 40.0368 3.19987C39.9442 3.12733 39.7467 2.46796 39.6074 1.71863C39.4565 0.98672 39.3173 0.356359 39.2936 0.322266C39.2714 0.322266 39.132 0.867756 38.9805 1.58371Z" stroke="#FF00FF" stroke-width="6" mask="url(#path-1-inside-1_471_67723)"/>
</svg>
