<svg width="60" height="60" viewBox="0 0 60 60" fill="none" xmlns="http://www.w3.org/2000/svg">
<path d="M58.7261 50.9021L55.3886 47.5646C55.1682 47.3442 54.8692 47.2204 54.5575 47.2204C54.2458 47.2204 53.9468 47.3442 53.7265 47.5646L53.3894 47.9017L41.9655 36.4779V30.4566C41.9655 30.1449 41.8416 29.846 41.6212 29.6255L13.6697 1.67365C12.9128 0.916879 11.9065 0.5 10.8361 0.5C9.76559 0.5 8.7593 0.916879 8.0024 1.67365L1.24397 8.43209C0.487074 9.1891 0.0703125 10.1954 0.0703125 11.2659C0.0703125 12.3361 0.487074 13.3425 1.24397 14.0994L29.1956 42.051C29.4161 42.2714 29.715 42.3953 30.0267 42.3953H36.048L47.4718 53.8191L47.1348 54.156C46.6758 54.615 46.6758 55.3592 47.1348 55.8183L50.4723 59.1558C50.6927 59.3761 50.9917 59.5 51.3034 59.5C51.615 59.5 51.914 59.3761 52.1344 59.1558L58.726 52.5642C59.185 52.1053 59.185 51.3611 58.7261 50.9021ZM49.1341 52.1569L38.1971 41.2199L40.7903 38.6267L51.7273 49.5637L49.1341 52.1569ZM2.90619 12.4372C2.59321 12.1243 2.42091 11.7082 2.42091 11.2659C2.42091 10.8232 2.59321 10.4072 2.90619 10.0943L9.66463 3.33588C9.97749 3.0229 10.3935 2.8506 10.8361 2.8506C11.2786 2.8506 11.6946 3.0229 12.0075 3.33588L39.6149 30.9433V36.4777L36.048 40.0447H30.5135L2.90619 12.4372ZM51.3035 56.6625L49.6281 54.9871L49.9641 54.6512L49.9653 54.6501L54.5576 50.0578L56.233 51.7332L51.3035 56.6625Z" fill="white"/>
<path d="M32.7769 35.7999L13.5028 16.5257C13.0438 16.0668 12.2996 16.0668 11.8406 16.5257C11.3816 16.9846 11.3816 17.7288 11.8406 18.1879L31.1148 37.462C31.3443 37.6914 31.6451 37.8062 31.9458 37.8062C32.2466 37.8062 32.5475 37.6914 32.7769 37.462C33.2358 37.003 33.2358 36.2588 32.7769 35.7999Z" fill="white"/>
<path d="M8.32961 11.3525C7.87065 10.8936 7.12645 10.8936 6.6675 11.3525C6.20854 11.8114 6.20854 12.5556 6.6675 13.0147L8.75354 15.1006C8.98307 15.33 9.28383 15.4449 9.58459 15.4449C9.88535 15.4449 10.1862 15.33 10.4156 15.1006C10.8746 14.6417 10.8746 13.8975 10.4156 13.4384L8.32961 11.3525Z" fill="white"/>
<path d="M18.4637 37.6394C14.4782 37.6394 11.2357 40.882 11.2357 44.8675C11.2357 48.8531 14.4782 52.0956 18.4637 52.0956C22.4493 52.0956 25.6918 48.8531 25.6918 44.8675C25.6918 40.882 22.4493 37.6394 18.4637 37.6394ZM18.4637 49.745C15.7743 49.745 13.5862 47.557 13.5862 44.8675C13.5862 42.1781 15.7743 39.99 18.4637 39.99C21.1532 39.99 23.3412 42.1781 23.3412 44.8675C23.3412 47.557 21.1532 49.745 18.4637 49.745Z" fill="white"/>
</svg>
