<svg width="61" height="60" viewBox="0 0 61 60" fill="none" xmlns="http://www.w3.org/2000/svg">
<path d="M32.9065 24.2136L32.6862 24.0542L22.3503 16.5766L23.5221 14.5456L19.5237 12.2701C18.1552 11.4914 16.3759 11.8958 15.6123 12.8928L15.6123 12.8928L3.42566 28.8046C3.14 29.2248 2.92568 29.6223 2.82988 29.96C2.75006 30.2413 2.78687 30.3416 2.80776 30.3802L9.25932 40.7592L9.72062 41.5014L9.48951 42.3441L5.65471 56.3266L3.72593 55.7976L5.65471 56.3266C5.59499 56.5443 5.62826 56.7766 5.7994 57.0155C5.97814 57.265 6.32172 57.5261 6.84392 57.6325C8.00682 57.8695 8.78925 57.1888 8.91796 56.7197L32.9065 24.2136ZM32.9065 24.2136L33.1614 24.3084L44.6477 28.5801C44.6478 28.5801 44.6478 28.5801 44.6478 28.5801C44.9876 28.7065 45.1446 28.9018 45.2032 29.029C45.2555 29.1425 45.2574 29.2459 45.196 29.3684L45.196 29.3685C45.0368 29.6866 44.3453 30.0972 43.5534 29.8027L43.5532 29.8026L31.6452 25.3741C31.5273 25.3302 31.4269 25.2752 31.3451 25.216L31.3447 25.2158L20.6566 17.4832L17.9878 20.4305L22.3036 25.2975L17.7914 31.1891L16.5876 32.7608L18.147 33.9805L24.4919 38.9431C24.6854 39.0945 24.8018 39.26 24.8631 39.4073L24.8631 39.4073L31.8562 56.2269C31.9513 56.4557 31.9375 56.6818 31.8131 56.9089C31.6814 57.1492 31.3954 57.4288 30.9028 57.581L30.9026 57.581C29.8032 57.9208 28.8778 57.339 28.6617 56.8193L21.9769 40.7416L21.768 40.2391L21.3331 39.9117L12.9531 33.6027L10.0516 36.2563L12.966 40.9447C13.103 41.1651 13.1248 41.3803 13.0715 41.5749C13.0714 41.5749 13.0714 41.5749 13.0714 41.575L8.91797 56.7197L32.9065 24.2136ZM35.1314 6.29804C35.1314 8.22536 33.2121 10.2738 30.1989 10.2738C27.1857 10.2738 25.2664 8.22536 25.2664 6.29804C25.2664 4.37072 27.1857 2.32227 30.1989 2.32227C33.2121 2.32227 35.1314 4.37072 35.1314 6.29804ZM58.1361 21.5863C58.1361 23.2176 56.4952 25.0261 53.8254 25.0261C51.1555 25.0261 49.5146 23.2176 49.5146 21.5863C49.5146 19.955 51.1555 18.1465 53.8254 18.1465C56.4952 18.1465 58.1361 19.955 58.1361 21.5863Z" stroke="#AEECEF" stroke-width="4"/>
</svg>
