<svg width="63" height="60" viewBox="0 0 63 60" fill="none" xmlns="http://www.w3.org/2000/svg">
<path d="M61.2485 40.4439C60.169 38.6504 58.6542 37.6393 57.434 37.0819C56.2096 36.5236 55.2613 36.4016 55.1977 36.3929L55.1676 36.3887L42.2007 35.2608L40.5872 38.5739C40.4523 38.5164 40.3185 38.4589 40.2139 38.4073C40.0038 38.3043 39.8565 38.2123 39.7644 38.1394C39.6256 38.0233 39.6022 37.9821 39.5561 37.8713C39.5134 37.7614 39.4732 37.538 39.4741 37.1601C39.4741 36.4076 39.4741 35.5125 39.4741 34.3975C40.1378 33.932 40.7671 33.4182 41.327 32.8445C47.1987 26.8179 46.7258 18.4865 46.7258 18.2528C46.7258 18.0174 46.7258 14.1709 46.7258 13.232C46.7258 12.2931 46.1292 11.3551 45.201 11.3551C44.8955 11.3551 43.5229 7.91223 43.5229 7.91223C43.5229 7.91223 43.6769 8.3032 43.3706 6.42625C43.0676 4.54681 38.9509 1.18288 38.2639 0.792157C37.5784 0.400436 36.9683 0.713986 36.9683 1.02667C36.9683 1.33935 36.9683 2.27739 36.9683 2.27739H34.9866V1.56528C34.9866 0.879772 34.4451 0.322266 33.7755 0.322266H29.4892C28.8213 0.322266 28.2781 0.879772 28.2781 1.56528V2.27739H26.2972C26.2972 2.27739 26.2972 1.33935 26.2972 1.02667C26.2972 0.713986 25.6863 0.400436 25.0008 0.792157C24.3154 1.18288 20.1978 4.54681 19.8932 6.42625C19.5885 8.3032 19.7408 7.91223 19.7408 7.91223C19.7408 7.91223 18.3683 11.3551 18.0636 11.3551C17.1364 11.3551 16.5387 12.2931 16.5387 13.232C16.5387 14.1709 16.5387 18.0174 16.5387 18.2528C16.5387 18.4865 16.0651 26.8177 21.9376 32.8445C22.4891 33.4097 23.1084 33.9148 23.7613 34.3753C23.7613 35.5014 23.7613 36.4025 23.7613 37.1601C23.7613 37.4752 23.7245 37.6805 23.6792 37.8095C23.6073 37.9949 23.5504 38.0801 23.2809 38.2665C23.1353 38.3635 22.921 38.4701 22.6532 38.5843L21.0339 35.26L8.05182 36.3904L8.03765 36.3929C7.97408 36.4016 7.0259 36.5235 5.80141 37.0819C4.58116 37.6394 3.06644 38.6504 1.98688 40.4439C1.04802 42.015 0.625332 44.0905 0.621094 46.298C0.621941 48.4146 1.0278 50.6539 1.8681 52.6725C1.93349 52.9638 2.06728 53.1837 2.20786 53.365C2.53768 53.7729 2.96267 54.0761 3.51843 54.4096C4.48744 54.9799 5.86171 55.5734 7.61423 56.1678C12.8632 57.9408 21.4917 59.6759 31.6181 59.6777C39.8457 59.6777 47.0899 58.5283 52.3281 57.1487C54.9484 56.4581 57.0641 55.7125 58.5781 55.003C59.3373 54.6464 59.9431 54.3037 60.4134 53.9481C60.6478 53.7678 60.852 53.5856 61.0278 53.364C61.1675 53.1836 61.3014 52.9637 61.3675 52.6724C61.7357 51.7868 62.0119 50.8575 62.2145 49.9151H62.3099C62.3099 49.9151 62.3835 49.4307 62.4304 48.6584C62.5401 47.8664 62.6145 47.0735 62.6145 46.2979C62.6093 44.0905 62.1875 42.015 61.2485 40.4439ZM40.2466 13.5464H42.0753C42.4117 13.5464 42.6853 13.8256 42.6853 14.1709C42.6853 14.5162 42.4116 14.7972 42.0753 14.7972H40.2466C39.9085 14.7972 39.6365 14.5162 39.6365 14.1709C39.6365 13.8256 39.9085 13.5464 40.2466 13.5464ZM35.139 5.87732C35.139 5.53208 35.4128 5.25196 35.7483 5.25196C36.0855 5.25196 36.3593 5.53208 36.3593 5.87732V7.75514C36.3593 8.10051 36.0856 8.38137 35.7483 8.38137C35.4127 8.38137 35.139 8.10051 35.139 7.75514V5.87732ZM26.9065 5.87732C26.9065 5.53208 27.1794 5.25196 27.5165 5.25196C27.8521 5.25196 28.1258 5.53208 28.1258 5.87732V7.75514C28.1258 8.10051 27.8521 8.38137 27.5165 8.38137C27.1793 8.38137 26.9065 8.10051 26.9065 7.75514V5.87732ZM21.1887 13.5464H23.0182C23.3563 13.5464 23.6284 13.8256 23.6284 14.1709C23.6284 14.5162 23.3564 14.7972 23.0182 14.7972H21.1887C20.8522 14.7972 20.5794 14.5162 20.5794 14.1709C20.5796 13.8256 20.8522 13.5464 21.1887 13.5464ZM20.715 24.4993V18.136C20.715 17.8808 20.9159 17.6747 21.1635 17.6747H42.1019C42.3481 17.6747 42.5488 17.88 42.5497 18.136V24.4993C42.5455 24.6943 42.4944 24.9092 42.2459 25.2055C41.8761 25.6444 40.9922 26.2147 39.3 26.6383C37.612 27.066 35.1348 27.359 31.6331 27.3581C26.9633 27.3616 24.1161 26.8334 22.531 26.1762C21.7377 25.8507 21.269 25.4977 21.0197 25.2056C20.7703 24.9092 20.7184 24.6943 20.715 24.4993ZM21.9244 27.6288C22.409 27.8297 22.9589 28.0135 23.5957 28.1758C25.4627 28.6466 28.0464 28.9412 31.6333 28.9412C36.4153 28.9386 39.4123 28.4224 41.3087 27.6458C41.3196 27.6414 41.3288 27.6363 41.3397 27.6311C40.7086 30.3034 36.8321 35.3475 31.6333 35.3475C26.4302 35.3476 22.5538 30.3002 21.9244 27.6288ZM37.6907 38.1514C36.5391 38.8953 34.2377 40.1288 31.6181 40.1288C28.9869 40.1288 26.6771 38.8858 25.5305 38.1428C25.6043 37.8284 25.6461 37.5045 25.6469 37.1602C25.6469 36.6775 25.6469 36.1312 25.6469 35.5126C27.4169 36.43 29.2982 37.0399 30.9461 37.3431H32.3186C33.9564 37.0416 35.8277 36.4361 37.5885 35.528C37.5885 36.1396 37.5885 36.6817 37.5885 37.1602C37.5895 37.5089 37.6238 37.8319 37.6907 38.1514ZM19.92 37.3001L21.4691 40.4801L31.6181 46.8152L41.7664 40.481L43.3155 37.2992L45.3022 37.4719L42.3999 43.0132L31.6181 49.7426L20.8355 43.0132L17.9341 37.4727L19.92 37.3001ZM59.5999 52.0069L59.5379 52.1538L59.5353 52.1787C59.4542 52.2637 59.245 52.4492 58.932 52.6382C58.2031 53.0952 56.9435 53.6699 55.2865 54.2419C50.302 55.9702 41.6969 57.7448 31.6181 57.7432C23.563 57.7432 16.4552 56.6136 11.3769 55.2744C8.83957 54.607 6.80493 53.8837 5.44083 53.2428C4.76048 52.9251 4.24492 52.6236 3.94524 52.3933C3.81811 52.2971 3.7411 52.2207 3.69921 52.1742L3.69763 52.1528L3.63479 52.0059C3.35195 51.3436 3.13933 50.6349 2.9628 49.9151H11.9075V37.9974L15.8879 37.6513L19.4179 44.3927L31.6182 52.0077L43.8186 44.3927L47.3486 37.6504L52.026 38.0576V49.9151H60.2728C60.0953 50.635 59.8836 51.3438 59.5999 52.0069Z" fill="#AEECEF"/>
</svg>
