<svg width="64" height="60" viewBox="0 0 64 60" fill="none" xmlns="http://www.w3.org/2000/svg">
<path d="M10.0008 23.8205C9.37735 23.8205 8.86726 24.3955 8.86726 25.0983V31.4744C8.86726 32.2667 8.28917 32.9055 7.58638 32.9055C6.8836 32.9055 6.3055 32.2667 6.3055 31.4744V30.2989C6.3055 29.5961 5.79541 29.0211 5.17198 29.0211C4.54854 29.0211 4.03845 29.5961 4.03845 30.2989V31.4744C4.03845 33.6722 5.63672 35.4611 7.58638 35.4611C9.53604 35.4611 11.1343 33.6722 11.1343 31.4744V25.0983C11.1343 24.3955 10.6242 23.8205 10.0008 23.8205ZM16.6772 30.6183V34.1833C16.6772 34.8861 17.1873 35.4611 17.8108 35.4611C18.4342 35.4611 18.9443 34.8861 18.9443 34.1833V27.0149C18.9443 26.0084 18.5896 25.0432 17.9582 24.3314C17.3269 23.6197 16.4706 23.2199 15.5777 23.2199C14.6849 23.2199 13.8286 23.6197 13.1972 24.3314C12.5659 25.0432 12.2112 26.0084 12.2112 27.0149V34.1833C12.2112 34.8861 12.7212 35.4611 13.3447 35.4611C13.9681 35.4611 14.4782 34.8861 14.4782 34.1833V30.6183H16.6772ZM15.5777 25.7755C16.1785 25.7755 16.6772 26.3377 16.6772 27.0149V28.0627H14.4782V27.0149C14.4782 26.3249 14.9656 25.7755 15.5777 25.7755ZM26.5616 32.1389C26.4567 32.0204 26.3321 31.9264 26.195 31.8623C26.0579 31.7982 25.9109 31.7652 25.7624 31.7652C25.614 31.7652 25.467 31.7982 25.3299 31.8623C25.1927 31.9264 25.0682 32.0204 24.9633 32.1389C24.6686 32.4711 24.2719 32.6628 23.8524 32.6628C22.991 32.6628 22.2882 31.8705 22.2882 30.8994V27.5388C22.2882 26.5677 22.991 25.7755 23.8524 25.7755C24.2719 25.7755 24.6573 25.9672 24.9633 26.2994C25.0682 26.4177 25.1928 26.5115 25.3299 26.5755C25.4671 26.6396 25.614 26.6725 25.7624 26.6725C25.9109 26.6725 26.0578 26.6396 26.1949 26.5755C26.332 26.5115 26.4566 26.4177 26.5616 26.2994C26.6665 26.1811 26.7498 26.0406 26.8066 25.8861C26.8633 25.7315 26.8926 25.5658 26.8926 25.3985C26.8926 25.2312 26.8633 25.0656 26.8066 24.911C26.7498 24.7564 26.6665 24.616 26.5616 24.4977C25.8361 23.6799 24.8726 23.2327 23.8524 23.2327C21.7441 23.2327 20.0211 25.1749 20.0211 27.5516V30.9122C20.0211 33.2889 21.7441 35.2311 23.8524 35.2311C24.8726 35.2311 25.8361 34.7839 26.5616 33.9661C26.6667 33.8479 26.75 33.7075 26.8069 33.5529C26.8638 33.3983 26.8931 33.2326 26.8931 33.0653C26.8931 32.8979 26.8638 32.7322 26.8069 32.5776C26.75 32.4231 26.6667 32.2826 26.5616 32.1644V32.1389ZM33.9862 24.2294C33.885 24.1068 33.7634 24.0079 33.6283 23.9383C33.4932 23.8687 33.3472 23.8299 33.1988 23.8239C33.0503 23.818 32.9023 23.8451 32.7632 23.9037C32.624 23.9623 32.4965 24.0513 32.3879 24.1655L30.2455 26.4144V24.4977C30.2455 23.7949 29.7354 23.2199 29.112 23.2199C28.4886 23.2199 27.9785 23.7949 27.9785 24.4977V34.1833C27.9785 34.8861 28.4886 35.4611 29.112 35.4611C29.7354 35.4611 30.2455 34.8861 30.2455 34.1833V32.2667L32.3879 34.5156C32.4964 34.6301 32.6238 34.7193 32.763 34.7781C32.9022 34.8369 33.0503 34.8641 33.1988 34.8582C33.3473 34.8522 33.4933 34.8133 33.6285 34.7435C33.7636 34.6737 33.8851 34.5746 33.9862 34.4517C34.4169 33.9406 34.3829 33.1228 33.9295 32.65L30.7669 29.3405L33.9295 26.031C34.3829 25.5455 34.4169 24.7405 33.9862 24.2294ZM42.6689 26.9255C42.6689 24.881 41.1954 23.2199 39.3817 23.2199H36.4912C35.8678 23.2199 35.3577 23.7949 35.3577 24.4977V34.1833C35.3577 34.8861 35.8678 35.4611 36.4912 35.4611C37.1147 35.4611 37.6248 34.8861 37.6248 34.1833V30.6183H39.3817C41.1954 30.6183 42.6689 28.9572 42.6689 26.9255ZM39.3817 28.0627H37.6248V25.7755H39.3817C39.9372 25.7755 40.4019 26.2866 40.4019 26.9255C40.4019 27.5644 39.9598 28.0627 39.3817 28.0627ZM47.5771 23.2199C45.4687 23.2199 43.7458 25.1621 43.7458 27.5388V30.8994C43.7458 33.2761 45.4574 35.2183 47.5771 35.2183C49.6968 35.2183 51.4084 33.2761 51.4084 30.8994V27.5388C51.4084 25.1621 49.6855 23.2199 47.5771 23.2199ZM49.1414 30.8994C49.1414 31.8705 48.4386 32.6628 47.5771 32.6628C46.7156 32.6628 46.0128 31.8705 46.0128 30.8994V27.5388C46.0128 26.5677 46.7156 25.7755 47.5771 25.7755C48.4386 25.7755 49.1414 26.5677 49.1414 27.5388V30.8994ZM53.6188 23.2199C52.9953 23.2199 52.4853 23.7949 52.4853 24.4977C52.4853 25.2005 52.9953 25.7755 53.6188 25.7755H55.2851V34.1833C55.2851 34.8861 55.7951 35.4611 56.4186 35.4611C57.042 35.4611 57.5521 34.8861 57.5521 34.1833V25.7755H59.2184C59.8418 25.7755 60.3519 25.2005 60.3519 24.4977C60.3519 23.7949 59.8418 23.2199 59.2184 23.2199H53.6074H53.6188Z" fill="#FFD700"/>
<path d="M62.8004 13.3554C62.0819 13.3554 61.3928 13.0336 60.8847 12.4609C60.3767 11.8882 60.0912 11.1114 60.0912 10.3015C60.0912 9.59867 59.5811 9.02366 58.9577 9.02366H5.43271C4.80927 9.02366 4.29919 9.59867 4.29919 10.3015C4.29919 11.1114 4.01376 11.8882 3.50571 12.4609C2.99765 13.0336 2.30857 13.3554 1.59007 13.3554C0.966629 13.3554 0.456543 13.9304 0.456543 14.6332V44.0479C0.456543 44.7507 0.966629 45.3257 1.59007 45.3257C2.30857 45.3257 2.99765 45.6474 3.50571 46.2201C4.01376 46.7929 4.29919 47.5696 4.29919 48.3796C4.29919 49.0824 4.80927 49.6574 5.43271 49.6574H58.9577C59.5811 49.6574 60.0912 49.0824 60.0912 48.3796C60.0912 47.5696 60.3767 46.7929 60.8847 46.2201C61.3928 45.6474 62.0819 45.3257 62.8004 45.3257C63.4238 45.3257 63.9339 44.7507 63.9339 44.0479V14.6332C63.9339 13.9304 63.4238 13.3554 62.8004 13.3554ZM61.6668 42.9106C59.8305 43.3962 58.3796 45.0318 57.9489 47.1018H6.44155C6.22729 46.0834 5.76616 45.1522 5.10963 44.4121C4.45309 43.672 3.62701 43.1522 2.72359 42.9106V15.7704C4.5599 15.2848 6.01081 13.6493 6.44155 11.5792H57.9489C58.3796 13.6493 59.8305 15.2848 61.6668 15.7704V42.9234V42.9106Z" fill="#FFD700"/>
<path d="M26.3586 19.4342C26.5823 19.4355 26.8014 19.3646 26.988 19.2304C27.1746 19.0962 27.3203 18.9047 27.4065 18.6804C27.4928 18.4561 27.5157 18.2089 27.4724 17.9704C27.4291 17.7319 27.3215 17.5127 27.1634 17.3408C26.948 17.1068 26.6646 16.9713 26.3586 16.9713C26.0525 16.9713 25.7691 17.1068 25.5538 17.3408C25.3956 17.5127 25.288 17.7319 25.2447 17.9704C25.2014 18.2089 25.2243 18.4561 25.3106 18.6804C25.3968 18.9047 25.5425 19.0962 25.7291 19.2304C25.9157 19.3646 26.1348 19.4355 26.3586 19.4342ZM31.5841 19.4342C31.8079 19.4355 32.027 19.3646 32.2136 19.2304C32.4002 19.0962 32.5458 18.9047 32.6321 18.6804C32.7183 18.4561 32.7412 18.2089 32.698 17.9704C32.6547 17.7319 32.5471 17.5127 32.3889 17.3408C32.1735 17.1068 31.8902 16.9713 31.5841 16.9713C31.2781 16.9713 30.9947 17.1068 30.7793 17.3408C30.6211 17.5127 30.5136 17.7319 30.4703 17.9704C30.427 18.2089 30.4499 18.4561 30.5361 18.6804C30.6224 18.9047 30.768 19.0962 30.9546 19.2304C31.1412 19.3646 31.3603 19.4355 31.5841 19.4342ZM36.8097 19.4342C37.0334 19.4355 37.2525 19.3646 37.4391 19.2304C37.6257 19.0962 37.7714 18.9047 37.8576 18.6804C37.9439 18.4561 37.9668 18.2089 37.9235 17.9704C37.8802 17.7319 37.7726 17.5127 37.6145 17.3408C37.3991 17.1068 37.1157 16.9713 36.8097 16.9713C36.5036 16.9713 36.2202 17.1068 36.0049 17.3408C35.8467 17.5127 35.7391 17.7319 35.6958 17.9704C35.6525 18.2089 35.6754 18.4561 35.7617 18.6804C35.8479 18.9047 35.9936 19.0962 36.1802 19.2304C36.3668 19.3646 36.5859 19.4355 36.8097 19.4342ZM15.5221 19.4588L21.337 19.4342C21.9605 19.4342 22.4706 18.8801 22.4706 18.2028C22.4706 17.5255 21.9605 16.9713 21.337 16.9713L15.5221 16.996C14.8986 16.996 14.3885 17.5501 14.3885 18.2274C14.3885 18.9047 14.8986 19.4588 15.5221 19.4588ZM41.8312 19.4588L47.6461 19.4342C48.2696 19.4342 48.7797 18.8801 48.7797 18.2028C48.7797 17.5255 48.2696 16.9713 47.6461 16.9713L41.8312 16.996C41.2077 16.996 40.6976 17.5501 40.6976 18.2274C40.6976 18.9047 41.2077 19.4588 41.8312 19.4588ZM26.3586 40.5657C26.1348 40.5644 25.9157 40.6353 25.7291 40.7695C25.5425 40.9038 25.3968 41.0952 25.3106 41.3195C25.2243 41.5439 25.2014 41.791 25.2447 42.0295C25.288 42.268 25.3956 42.4872 25.5538 42.6592C25.7691 42.8931 26.0525 43.0286 26.3586 43.0286C26.6646 43.0286 26.948 42.8931 27.1634 42.6592C27.3215 42.4872 27.4291 42.268 27.4724 42.0295C27.5157 41.791 27.4928 41.5439 27.4065 41.3195C27.3203 41.0952 27.1746 40.9038 26.988 40.7695C26.8014 40.6353 26.5823 40.5644 26.3586 40.5657ZM31.5841 40.5657C31.3603 40.5644 31.1412 40.6353 30.9546 40.7695C30.768 40.9038 30.6224 41.0952 30.5361 41.3195C30.4499 41.5439 30.427 41.791 30.4703 42.0295C30.5136 42.268 30.6211 42.4872 30.7793 42.6592C30.9947 42.8931 31.2781 43.0286 31.5841 43.0286C31.8902 43.0286 32.1735 42.8931 32.3889 42.6592C32.5471 42.4872 32.6547 42.268 32.698 42.0295C32.7412 41.791 32.7183 41.5439 32.6321 41.3195C32.5458 41.0952 32.4002 40.9038 32.2136 40.7695C32.027 40.6353 31.8079 40.5644 31.5841 40.5657ZM36.8097 40.5657C36.5859 40.5644 36.3668 40.6353 36.1802 40.7695C35.9936 40.9038 35.8479 41.0952 35.7617 41.3195C35.6754 41.5439 35.6525 41.791 35.6958 42.0295C35.7391 42.268 35.8467 42.4872 36.0049 42.6592C36.2202 42.8931 36.5036 43.0286 36.8097 43.0286C37.1157 43.0286 37.3991 42.8931 37.6145 42.6592C37.7726 42.4872 37.8802 42.268 37.9235 42.0295C37.9668 41.791 37.9439 41.5439 37.8576 41.3195C37.7714 41.0952 37.6257 40.9038 37.4391 40.7695C37.2525 40.6353 37.0334 40.5644 36.8097 40.5657ZM21.337 40.5657H15.5221C14.8986 40.578 14.3885 41.1322 14.3885 41.8095C14.3885 42.4868 14.8986 43.0409 15.5221 43.0409H21.337C21.9605 43.0286 22.4706 42.4745 22.4706 41.7972C22.4706 41.1199 21.9605 40.5657 21.337 40.5657ZM47.6461 40.5657H41.8312C41.2077 40.578 40.6976 41.1322 40.6976 41.8095C40.6976 42.4868 41.2077 43.0409 41.8312 43.0409H47.6461C48.2696 43.0286 48.7797 42.4745 48.7797 41.7972C48.7797 41.1199 48.2696 40.5657 47.6461 40.5657ZM31.5841 5.78986C32.2075 5.78986 32.7176 5.23571 32.7176 4.55842V1.5537C32.7176 0.876413 32.2075 0.322266 31.5841 0.322266C30.9607 0.322266 30.4506 0.876413 30.4506 1.5537V4.55842C30.4506 5.23571 30.9607 5.78986 31.5841 5.78986ZM22.4139 7.77248C22.6293 7.96951 22.89 8.06802 23.162 8.06802C23.4794 8.06802 23.7968 7.92025 24.0235 7.64933C24.1212 7.52735 24.1958 7.38561 24.243 7.23225C24.2902 7.07889 24.3091 6.91691 24.2986 6.75561C24.288 6.59431 24.2483 6.43685 24.1816 6.29226C24.115 6.14766 24.0227 6.01878 23.9101 5.913L21.4957 3.63484C21.3835 3.52868 21.253 3.44765 21.1118 3.39637C20.9707 3.34509 20.8216 3.32459 20.6731 3.33603C20.5246 3.34747 20.3797 3.39063 20.2466 3.46303C20.1135 3.53544 19.9948 3.63567 19.8975 3.75798C19.7998 3.87997 19.7252 4.0217 19.678 4.17507C19.6308 4.32843 19.6119 4.4904 19.6224 4.65171C19.633 4.81301 19.6727 4.97047 19.7393 5.11506C19.806 5.25965 19.8982 5.38853 20.0108 5.49431L22.4252 7.77248H22.4139ZM40.0175 8.06802C40.2782 8.06802 40.5503 7.96951 40.7656 7.77248L43.1801 5.49431C43.6561 5.05099 43.7015 4.27519 43.2934 3.75798C43.196 3.63567 43.0774 3.53544 42.9443 3.46303C42.8112 3.39063 42.6663 3.34747 42.5178 3.33603C42.3693 3.32459 42.2202 3.34509 42.0791 3.39637C41.9379 3.44765 41.8074 3.52868 41.6951 3.63484L39.2807 5.913C38.8047 6.35632 38.7593 7.13213 39.1674 7.64933C39.3941 7.93256 39.7115 8.06802 40.0289 8.06802H40.0175ZM32.7176 58.4462V55.4415C32.7176 54.7642 32.2075 54.2101 31.5841 54.2101C30.9607 54.2101 30.4506 54.7642 30.4506 55.4415V58.4462C30.4506 59.1235 30.9607 59.6777 31.5841 59.6777C32.2075 59.6777 32.7176 59.1235 32.7176 58.4462ZM21.4731 56.3774L23.8875 54.0992C24.3636 53.6559 24.4089 52.8801 24.0008 52.3629C23.9035 52.2406 23.7848 52.1404 23.6517 52.068C23.5186 51.9956 23.3737 51.9524 23.2252 51.941C23.0767 51.9295 22.9277 51.95 22.7865 52.0013C22.6453 52.0526 22.5148 52.1336 22.4026 52.2398L19.9882 54.5179C19.5121 54.9613 19.4667 55.7371 19.8748 56.2543C20.1015 56.5375 20.4189 56.673 20.7363 56.673C20.997 56.673 21.269 56.5744 21.4844 56.3774H21.4731ZM42.4319 56.673C42.7493 56.673 43.0667 56.5252 43.2934 56.2543C43.3911 56.1323 43.4657 55.9905 43.5129 55.8372C43.5601 55.6838 43.579 55.5218 43.5685 55.3605C43.5579 55.1992 43.5182 55.0418 43.4515 54.8972C43.3849 54.7526 43.2926 54.6237 43.1801 54.5179L40.7656 52.2398C40.6534 52.1336 40.5229 52.0526 40.3817 52.0013C40.2406 51.95 40.0915 51.9295 39.943 51.941C39.7945 51.9524 39.6496 51.9956 39.5165 52.068C39.3834 52.1404 39.2648 52.2406 39.1674 52.3629C39.0697 52.4849 38.9951 52.6266 38.9479 52.78C38.9007 52.9334 38.8818 53.0953 38.8923 53.2566C38.9029 53.4179 38.9426 53.5754 39.0092 53.72C39.0759 53.8646 39.1681 53.9935 39.2807 54.0992L41.6951 56.3774C41.9105 56.5744 42.1712 56.673 42.4433 56.673H42.4319Z" fill="#FFD700"/>
</svg>
