<svg width="66" height="66" viewBox="0 0 66 66" fill="none" xmlns="http://www.w3.org/2000/svg">
<mask id="path-1-outside-1_471_67759" maskUnits="userSpaceOnUse" x="-0.00878906" y="0.819824" width="66" height="65" fill="black">
<rect fill="white" x="-0.00878906" y="0.819824" width="66" height="65"/>
<path d="M28.625 24.3744C29.2588 25.8259 30.4068 27.1986 31.7451 27.9688L37.3414 31.1898L36.2866 36.7118H32.6513C31.8243 36.7118 31.0031 37.2506 30.7816 37.9386L29.1369 43.048C29.019 43.4143 29.0901 43.7821 29.3319 44.0567C29.5739 44.3315 29.9652 44.4892 30.4057 44.4892H53.0621C53.5026 44.4892 53.8939 44.3314 54.1359 44.0567C54.3777 43.7818 54.4489 43.4141 54.3309 43.048L52.686 37.9384C52.4646 37.2508 51.6432 36.7118 50.8162 36.7118H46.5788L45.5214 31.1772L51.0969 27.9688C52.4351 27.1985 53.5833 25.8256 54.2171 24.3741C58.7668 24.024 62.3459 20.7167 62.3459 16.6997C62.3459 11.2661 60.6045 8.99898 56.3528 8.92673L57.3859 5.44269C57.5074 5.0329 57.417 4.61955 57.1376 4.30885C56.8579 3.99802 56.4166 3.81982 55.9265 3.81982H26.9376C26.4475 3.81982 26.0062 3.99802 25.7267 4.30885C25.4473 4.61955 25.3569 5.03276 25.4784 5.44269L26.5115 8.92644C22.2435 8.99127 20.4961 11.2568 20.4961 16.7002C20.4959 20.7173 24.0752 24.0244 28.625 24.3744ZM55.171 12.1118C55.2186 12.0659 55.2635 12.0181 55.3055 11.9683C55.5979 11.9579 55.8797 11.9494 56.1414 11.9494C57.3214 11.9494 57.7039 12.1169 57.9661 12.4062C58.3649 12.8463 58.8402 13.9484 58.8402 16.6995C58.8402 18.7512 57.3033 20.4987 55.171 21.1291V12.1118ZM34.8363 15.0855C34.8842 14.9583 35.0974 14.5431 35.8303 14.5431H39.3879C39.3973 14.5389 39.4091 14.5315 39.4165 14.5251L40.5161 11.604C40.7427 11.0024 41.266 10.9557 41.421 10.9557C41.576 10.9557 42.0995 11.0024 42.3257 11.6042L43.425 14.5251C43.4326 14.5317 43.4442 14.5389 43.4536 14.5431H47.011C47.7439 14.5431 47.9571 14.9581 48.0051 15.0854C48.0529 15.2126 48.1632 15.6565 47.5704 16.0286L44.6923 17.8336C44.6875 17.8419 44.6828 17.8539 44.6812 17.8628L45.7803 20.7841C45.9308 21.1838 45.808 21.4509 45.6787 21.6045C45.5158 21.7981 45.2611 21.9092 44.9796 21.9092C44.7584 21.9092 44.5353 21.8397 44.3161 21.7022L41.439 19.8971C41.4301 19.896 41.4122 19.896 41.4033 19.8971L38.5247 21.7023C38.3057 21.8398 38.0826 21.9094 37.8614 21.9094C37.5801 21.9095 37.3252 21.7984 37.1623 21.6048C37.0328 21.451 36.9102 21.1839 37.0607 20.7841L38.1603 17.8629C38.1586 17.8539 38.1542 17.8421 38.1494 17.8338L35.2711 16.029C34.6781 15.6569 34.7884 15.2129 34.8363 15.0855ZM24.8755 12.4065C25.1377 12.1173 25.5203 11.9497 26.7001 11.9497C26.969 11.9497 27.2585 11.9587 27.5597 11.9696C27.5946 12.011 27.6318 12.0511 27.6706 12.0899V21.1298C25.5385 20.4994 24.0014 18.752 24.0014 16.7005C24.0016 13.9487 24.4769 12.8465 24.8755 12.4065Z"/>
<path d="M58.2323 50.7278C57.7905 50.7278 57.3461 50.8328 56.9116 51.0398C53.4531 52.6877 49.0204 53.992 45.0544 54.529C44.4764 54.6072 43.8032 54.6469 43.0533 54.6469C41.1176 54.6471 38.8794 54.3858 37.0661 53.9481C35.4202 53.5508 34.5334 53.0946 34.2849 52.7545C34.6614 52.773 35.3331 52.8817 36.0997 53.0058C37.6528 53.2571 39.7798 53.6013 41.7617 53.6013C42.7236 53.6013 43.5721 53.5182 44.2835 53.3544C46.1171 52.9321 46.7511 51.8978 46.7331 51.0708C46.715 50.2469 46.088 49.5513 45.2084 49.3791C44.7962 49.2983 43.8085 49.0241 42.5579 48.6769C39.0058 47.6911 33.0606 46.041 30.0437 45.9639C28.1484 45.9126 23.5923 46.5093 21.112 46.858C21.0314 46.8693 20.954 46.8793 20.8801 46.8888C20.2398 46.9715 19.5779 47.057 19.5165 47.865C19.4128 49.237 19.2627 51.2677 19.1072 53.3716C18.9241 55.8491 18.7334 58.4284 18.602 60.154C18.5971 60.2193 18.6259 60.6005 18.8829 60.8377C19.0159 60.9603 19.1867 61.0253 19.3768 61.0253C19.6098 61.0253 19.8545 60.9286 20.1247 60.7299C21.4046 59.7875 22.4883 59.3919 23.3436 59.5602C25.0703 59.8986 39.3862 62.1794 43.5453 62.1797C43.9378 62.1797 44.2298 62.1594 44.4365 62.1179C47.7453 61.4541 57.0846 56.723 59.0115 55.1247C60.2489 54.0982 60.711 52.8925 60.2479 51.8993C59.911 51.1767 59.1387 50.7278 58.2323 50.7278Z"/>
<path d="M15.2572 46.7382L6.50471 46.366C5.67291 46.3333 4.83533 46.8677 4.62973 47.5599L4.62378 47.5798L3.03214 60.0541C2.93588 60.4021 3.01113 60.7516 3.23988 61.0164C3.47326 61.2866 3.85021 61.4497 4.27412 61.4638L4.28719 61.4641L13.9742 61.4629C13.9945 61.4636 14.0114 61.4638 14.0352 61.4641C14.8733 61.4641 15.5804 60.8994 15.6447 60.1782L16.7097 48.1604C16.7416 47.8004 16.6075 47.4534 16.3321 47.1838C16.0569 46.9142 15.6751 46.756 15.2572 46.7382ZM12.173 57.4322C12.173 58.4244 11.2378 59.2317 10.0883 59.2317C8.93889 59.2317 8.00372 58.4244 8.00372 57.4322C8.00372 56.44 8.93873 55.6325 10.0883 55.6325C11.2376 55.6325 12.173 56.4398 12.173 57.4322Z"/>
</mask>
<path d="M28.625 24.3744C29.2588 25.8259 30.4068 27.1986 31.7451 27.9688L37.3414 31.1898L36.2866 36.7118H32.6513C31.8243 36.7118 31.0031 37.2506 30.7816 37.9386L29.1369 43.048C29.019 43.4143 29.0901 43.7821 29.3319 44.0567C29.5739 44.3315 29.9652 44.4892 30.4057 44.4892H53.0621C53.5026 44.4892 53.8939 44.3314 54.1359 44.0567C54.3777 43.7818 54.4489 43.4141 54.3309 43.048L52.686 37.9384C52.4646 37.2508 51.6432 36.7118 50.8162 36.7118H46.5788L45.5214 31.1772L51.0969 27.9688C52.4351 27.1985 53.5833 25.8256 54.2171 24.3741C58.7668 24.024 62.3459 20.7167 62.3459 16.6997C62.3459 11.2661 60.6045 8.99898 56.3528 8.92673L57.3859 5.44269C57.5074 5.0329 57.417 4.61955 57.1376 4.30885C56.8579 3.99802 56.4166 3.81982 55.9265 3.81982H26.9376C26.4475 3.81982 26.0062 3.99802 25.7267 4.30885C25.4473 4.61955 25.3569 5.03276 25.4784 5.44269L26.5115 8.92644C22.2435 8.99127 20.4961 11.2568 20.4961 16.7002C20.4959 20.7173 24.0752 24.0244 28.625 24.3744ZM55.171 12.1118C55.2186 12.0659 55.2635 12.0181 55.3055 11.9683C55.5979 11.9579 55.8797 11.9494 56.1414 11.9494C57.3214 11.9494 57.7039 12.1169 57.9661 12.4062C58.3649 12.8463 58.8402 13.9484 58.8402 16.6995C58.8402 18.7512 57.3033 20.4987 55.171 21.1291V12.1118ZM34.8363 15.0855C34.8842 14.9583 35.0974 14.5431 35.8303 14.5431H39.3879C39.3973 14.5389 39.4091 14.5315 39.4165 14.5251L40.5161 11.604C40.7427 11.0024 41.266 10.9557 41.421 10.9557C41.576 10.9557 42.0995 11.0024 42.3257 11.6042L43.425 14.5251C43.4326 14.5317 43.4442 14.5389 43.4536 14.5431H47.011C47.7439 14.5431 47.9571 14.9581 48.0051 15.0854C48.0529 15.2126 48.1632 15.6565 47.5704 16.0286L44.6923 17.8336C44.6875 17.8419 44.6828 17.8539 44.6812 17.8628L45.7803 20.7841C45.9308 21.1838 45.808 21.4509 45.6787 21.6045C45.5158 21.7981 45.2611 21.9092 44.9796 21.9092C44.7584 21.9092 44.5353 21.8397 44.3161 21.7022L41.439 19.8971C41.4301 19.896 41.4122 19.896 41.4033 19.8971L38.5247 21.7023C38.3057 21.8398 38.0826 21.9094 37.8614 21.9094C37.5801 21.9095 37.3252 21.7984 37.1623 21.6048C37.0328 21.451 36.9102 21.1839 37.0607 20.7841L38.1603 17.8629C38.1586 17.8539 38.1542 17.8421 38.1494 17.8338L35.2711 16.029C34.6781 15.6569 34.7884 15.2129 34.8363 15.0855ZM24.8755 12.4065C25.1377 12.1173 25.5203 11.9497 26.7001 11.9497C26.969 11.9497 27.2585 11.9587 27.5597 11.9696C27.5946 12.011 27.6318 12.0511 27.6706 12.0899V21.1298C25.5385 20.4994 24.0014 18.752 24.0014 16.7005C24.0016 13.9487 24.4769 12.8465 24.8755 12.4065Z" stroke="#CCFF99" stroke-width="6" mask="url(#path-1-outside-1_471_67759)"/>
<path d="M58.2323 50.7278C57.7905 50.7278 57.3461 50.8328 56.9116 51.0398C53.4531 52.6877 49.0204 53.992 45.0544 54.529C44.4764 54.6072 43.8032 54.6469 43.0533 54.6469C41.1176 54.6471 38.8794 54.3858 37.0661 53.9481C35.4202 53.5508 34.5334 53.0946 34.2849 52.7545C34.6614 52.773 35.3331 52.8817 36.0997 53.0058C37.6528 53.2571 39.7798 53.6013 41.7617 53.6013C42.7236 53.6013 43.5721 53.5182 44.2835 53.3544C46.1171 52.9321 46.7511 51.8978 46.7331 51.0708C46.715 50.2469 46.088 49.5513 45.2084 49.3791C44.7962 49.2983 43.8085 49.0241 42.5579 48.6769C39.0058 47.6911 33.0606 46.041 30.0437 45.9639C28.1484 45.9126 23.5923 46.5093 21.112 46.858C21.0314 46.8693 20.954 46.8793 20.8801 46.8888C20.2398 46.9715 19.5779 47.057 19.5165 47.865C19.4128 49.237 19.2627 51.2677 19.1072 53.3716C18.9241 55.8491 18.7334 58.4284 18.602 60.154C18.5971 60.2193 18.6259 60.6005 18.8829 60.8377C19.0159 60.9603 19.1867 61.0253 19.3768 61.0253C19.6098 61.0253 19.8545 60.9286 20.1247 60.7299C21.4046 59.7875 22.4883 59.3919 23.3436 59.5602C25.0703 59.8986 39.3862 62.1794 43.5453 62.1797C43.9378 62.1797 44.2298 62.1594 44.4365 62.1179C47.7453 61.4541 57.0846 56.723 59.0115 55.1247C60.2489 54.0982 60.711 52.8925 60.2479 51.8993C59.911 51.1767 59.1387 50.7278 58.2323 50.7278Z" stroke="#CCFF99" stroke-width="6" mask="url(#path-1-outside-1_471_67759)"/>
<path d="M15.2572 46.7382L6.50471 46.366C5.67291 46.3333 4.83533 46.8677 4.62973 47.5599L4.62378 47.5798L3.03214 60.0541C2.93588 60.4021 3.01113 60.7516 3.23988 61.0164C3.47326 61.2866 3.85021 61.4497 4.27412 61.4638L4.28719 61.4641L13.9742 61.4629C13.9945 61.4636 14.0114 61.4638 14.0352 61.4641C14.8733 61.4641 15.5804 60.8994 15.6447 60.1782L16.7097 48.1604C16.7416 47.8004 16.6075 47.4534 16.3321 47.1838C16.0569 46.9142 15.6751 46.756 15.2572 46.7382ZM12.173 57.4322C12.173 58.4244 11.2378 59.2317 10.0883 59.2317C8.93889 59.2317 8.00372 58.4244 8.00372 57.4322C8.00372 56.44 8.93873 55.6325 10.0883 55.6325C11.2376 55.6325 12.173 56.4398 12.173 57.4322Z" stroke="#CCFF99" stroke-width="6" mask="url(#path-1-outside-1_471_67759)"/>
</svg>
