<svg width="61" height="60" viewBox="0 0 61 60" fill="none" xmlns="http://www.w3.org/2000/svg">
<path d="M6.49601 33.9923H10.496V52.9923C10.496 56.8517 13.6366 59.9923 17.496 59.9923H43.496C47.3554 59.9923 50.496 56.8517 50.496 52.9923V33.9923H54.496C57.8046 33.9923 60.496 31.3009 60.496 27.9923V15.1133C60.496 12.3516 58.6249 9.96491 55.9569 9.29301L44.4959 6.43361L44.285 5.14451C44.1561 4.38279 43.9139 3.68361 43.5545 3.06641C42.4529 1.17581 40.4139 0.0078125 38.2264 0.0078125H22.7774C20.586 0.0078125 18.5469 1.17971 17.4493 3.06641C17.0899 3.6875 16.8399 4.38671 16.7188 5.14451L16.5079 6.43361L5.04689 9.29301C2.36719 9.96489 0.496094 12.3516 0.496094 15.1133V27.9923C0.496094 31.3009 3.18741 33.9923 6.49601 33.9923ZM46.496 52.9923C46.496 54.6407 45.1444 55.9923 43.496 55.9923H17.496C15.8476 55.9923 14.496 54.6407 14.496 52.9923V43.9923H46.496V52.9923ZM42.9765 10.1723L56.4965 13.5512V27.9922C56.4965 29.0938 55.5981 29.9922 54.4965 29.9922H48.4965C47.3949 29.9922 46.4965 30.8907 46.4965 31.9922V39.9922H40.8363L32.7152 26.8122L42.9652 10.1712L42.9765 10.1723ZM20.9065 5.07071C21.2854 4.41055 22.0081 3.99261 22.7776 3.99261H38.2266C38.9961 3.99261 39.7071 4.40277 40.0977 5.07071C40.4766 5.73087 40.4883 6.55901 40.0977 7.21911L30.4961 22.7971L20.9258 7.27711C20.5157 6.55836 20.5039 5.73801 20.8946 5.06621L20.9065 5.07071ZM4.49651 13.5512L17.9575 10.1801L36.1955 39.9891H14.4965V31.9891C14.4965 30.8875 13.5981 29.9891 12.4965 29.9891H6.49651C5.39491 29.9891 4.49651 29.0907 4.49651 27.9891V13.5481V13.5512Z" fill="#FF6347"/>
</svg>
