<svg width="63" height="56" viewBox="0 0 63 56" fill="none" xmlns="http://www.w3.org/2000/svg">
<path d="M14.7322 44.3889H8.17665C4.55611 44.3889 1.62109 41.454 1.62109 37.8334V24.7223C1.62109 19.2915 6.02364 14.8889 11.4544 14.8889H14.7322M14.7322 44.3889V34.5556H47.51V44.3889M14.7322 44.3889V47.6667C14.7322 51.2874 17.6672 54.2223 21.2878 54.2223H40.9544C44.5751 54.2223 47.51 51.2874 47.51 47.6667V44.3889M14.7322 14.8889V8.33339C14.7322 4.71285 17.6672 1.77783 21.2878 1.77783H40.9544C44.5751 1.77783 47.51 4.71285 47.51 8.33339V14.8889M14.7322 14.8889H47.51M47.51 44.3889H54.0655C57.6862 44.3889 60.6211 41.454 60.6211 37.8334V24.7223C60.6211 19.2915 56.2187 14.8889 50.7878 14.8889H47.51M40.9544 24.7223H47.51" stroke="#F2C20B" stroke-width="3" stroke-linecap="round" stroke-linejoin="round"/>
</svg>
