<svg width="69" height="70" viewBox="0 0 69 70" fill="none" xmlns="http://www.w3.org/2000/svg">
<path d="M40.101 25.3766L40.7922 25.8766L40.101 25.3766ZM40.101 25.3766C40.101 25.3766 40.101 25.3766 40.101 25.3767L40.101 25.3766ZM46.0979 19.7528L46.0796 19.6312L46.0589 19.4941L45.9623 19.571L45.7249 19.76L45.6394 19.8281L45.7584 19.8202L45.9853 19.8051M46.0979 19.7528L45.9853 19.8051M46.0979 19.7528L46.1046 19.7972M46.0979 19.7528L46.2127 19.6996L46.497 19.5678C46.7657 19.4432 47.0373 19.3312 47.3115 19.2315C47.1893 19.3936 47.0735 19.5631 46.9679 19.7398L46.5885 19.765L46.3686 19.7796L46.1046 19.7972M45.9853 19.8051L46.1046 19.7972M45.9853 19.8051L45.8764 19.8556L45.8428 19.9721L45.6868 20.5129C45.6553 20.6223 45.6283 20.7329 45.6061 20.8448M46.1046 19.7972L46.2297 20.6264L46.2119 20.6363C46.2008 20.6425 46.1898 20.6486 46.1787 20.6548C46.0499 20.727 45.9211 20.8027 45.7925 20.882M45.6061 20.8448C45.5945 20.9029 45.5844 20.961 45.5757 21.0191C45.6467 20.9731 45.7177 20.9282 45.7887 20.8844M45.6061 20.8448L45.7925 20.882M45.6061 20.8448C45.6059 20.8459 45.6056 20.8471 45.6054 20.8482L45.7887 20.8844M45.7887 20.8844L46.2833 20.982L46.283 20.98L45.7925 20.882M45.7887 20.8844C45.79 20.8836 45.7912 20.8828 45.7925 20.882M47.8639 19.6803L47.8648 19.6803L47.8639 19.6803ZM47.8639 19.6803L47.679 19.1058L47.8639 19.6803ZM57.335 13.8022L57.2337 12.9948C56.7398 13.0568 56.2493 13.1415 55.7637 13.248L55.8602 14.0624L57.335 13.8022ZM51.1857 16.7265C50.8629 16.6529 50.5333 16.6048 50.1983 16.5817L51.1857 16.7265ZM49.3508 18.0783L49.9339 18.7586C49.7558 18.7509 49.5764 18.753 49.3963 18.764C48.8255 18.7988 48.2473 18.923 47.6792 19.1058L49.3508 18.0783ZM50.923 18.9137C50.8655 18.8975 50.8078 18.8826 50.7498 18.869L50.923 18.9137ZM43.7353 22.4689L43.4795 22.5074C43.4883 22.5663 43.498 22.625 43.5086 22.6836C43.5842 22.6106 43.6598 22.539 43.7353 22.4689Z" stroke="#FFD700" stroke-width="3"/>
<path d="M22.2557 6.11506C22.1357 5.54522 21.8838 5.10444 21.5077 4.80694C20.9935 4.40006 20.3963 4.37819 19.999 4.39569C17.8548 4.49303 15.8722 5.84381 14.9468 7.83663L16.8646 8.77944C17.4468 7.526 18.7442 6.64116 20.0935 6.57991C20.1254 6.57881 20.153 6.57772 20.1764 6.57772C20.1796 6.57772 20.1817 6.57991 20.1817 6.57991C20.3135 7.20116 20.067 7.90663 19.7812 8.72475C19.5814 9.2935 19.3763 9.88194 19.2712 10.5251C19.2361 10.7449 19.1277 11.4154 19.5495 11.9951C19.8863 12.4566 20.4187 12.6994 21.121 12.6644C21.9104 12.6437 22.6446 12.4741 23.3554 12.3101C23.909 12.1821 24.4402 12.0596 24.9948 12.0257L24.1767 15.6821C24.1066 15.9949 23.9897 16.5188 24.2033 17.0799C24.5985 18.1135 25.7503 18.411 26.6853 18.1737C26.8702 18.1266 27.054 18.0621 27.2357 17.9965C27.4365 17.9243 27.6352 17.8291 27.7573 17.8554C27.9837 17.8663 28.3088 18.4132 28.3885 19.1012C28.4108 19.2948 28.4267 19.4916 28.4416 19.6907C28.5138 20.6193 28.5967 21.6715 29.2937 22.5563L30.9438 21.1771C30.6622 20.8194 30.6123 20.1862 30.5602 19.5146C30.5422 19.2882 30.5241 19.0618 30.4986 18.8408C30.3212 17.3205 29.4372 15.7499 27.8636 15.6701C27.3408 15.6449 26.8935 15.8024 26.5355 15.9315C26.4515 15.9621 26.3676 15.9927 26.2826 16.0201L27.1666 12.0738C27.2229 11.8233 27.3408 11.3049 27.088 10.7723C26.9275 10.431 26.4972 9.8535 25.4337 9.82288C24.522 9.79663 23.6965 9.98913 22.8911 10.1762C22.4119 10.2877 21.9518 10.3938 21.4652 10.4441C21.5492 10.1302 21.6628 9.80538 21.7808 9.46631C22.125 8.47428 22.5182 7.34991 22.2557 6.11506Z" fill="#FFD700"/>
<path d="M3.01025 18.6706L5.09913 19.0742C5.41575 17.3362 6.90325 15.7852 8.80088 15.2154C10.5147 14.7002 12.5898 14.9092 14.6425 15.8049C16.7208 16.7117 18.544 18.1663 19.9146 20.0137L21.6029 18.6859C20.0092 16.5377 17.8884 14.8446 15.4713 13.7902C12.9701 12.6998 10.3904 12.4592 8.20588 13.1154C5.51882 13.9226 3.47882 16.1035 3.01025 18.6706Z" fill="#FFD700"/>
<path d="M33.3812 9.02525L31.4321 9.89697L33.9975 15.9753L35.9466 15.1036L33.3812 9.02525Z" fill="#FFD700"/>
<path d="M37.1929 16.3756L39.1054 17.3293C39.966 15.5006 41.0827 13.8184 42.4246 12.3298L40.867 10.8423C39.3806 12.4884 38.1449 14.351 37.1929 16.3756Z" fill="#FFD700"/>
<path d="M36.0149 10.3282L38.1357 10.1992C38.0347 8.44043 38.5065 6.66746 39.4638 5.2073L37.7032 3.9834C36.4856 5.83949 35.8853 8.09262 36.0149 10.3282Z" fill="#FFD700"/>
<path d="M63.1089 23.2238L63.4946 25.3752C64.5326 25.1783 65.5622 25.046 66.5556 24.9815L66.4228 22.7983C65.3454 22.8683 64.2309 23.0116 63.1089 23.2238Z" fill="#FFD700"/>
<path d="M31.4272 2.1875H29.3022V4.375H31.4272V2.1875Z" fill="#FFD700"/>
<path d="M50.5522 4.375H48.4272V6.5625H50.5522V4.375Z" fill="#FFD700"/>
<path d="M64.3647 15.3125H62.2397V17.5H64.3647V15.3125Z" fill="#FFD700"/>
<path d="M8.05225 4.375H5.92725V6.5625H8.05225V4.375Z" fill="#FFD700"/>
<path d="M26.1147 21.875H23.9897V24.0625H26.1147V21.875Z" fill="#FFD700"/>
<path d="M14.4272 28.4375H12.3022V30.625H14.4272V28.4375Z" fill="#FFD700"/>
</svg>
