<svg width="56" height="62" viewBox="0 0 56 62" fill="none" xmlns="http://www.w3.org/2000/svg">
<path d="M20.2025 59.2662C20.5201 59.2662 20.7821 59.5236 20.7821 59.8366C20.7821 60.1497 20.5201 60.407 20.2025 60.407H7.7514C6.9238 60.407 6.17264 60.0592 5.62789 59.5005C5.09005 58.9509 4.75857 58.1927 4.75857 57.3603V30.5129C4.75857 30.1999 5.01821 29.9471 5.33813 29.9471C5.65805 29.9471 5.91769 30.1999 5.91769 30.5129V57.3603C5.91769 57.8913 6.12634 58.3712 6.46481 58.7214C6.794 59.0576 7.24837 59.2686 7.74915 59.2686H20.2003L20.2025 59.2662ZM34.9237 3.2315C35.1509 3.00659 35.5172 3.00659 35.7443 3.2315C35.9715 3.45177 35.9715 3.81116 35.7443 4.03609L31.692 8.01026C31.4649 8.23053 31.0986 8.23053 30.8737 8.01026C30.6465 7.78535 30.6465 7.42828 30.8737 7.20567L34.9237 3.2315ZM27.5913 1.8658C27.5913 1.55046 27.8509 1.29541 28.1686 1.29541C28.4885 1.29541 28.7481 1.54814 28.7481 1.8658V7.48625C28.7481 7.79927 28.4885 8.05664 28.1686 8.05664C27.8509 8.05664 27.5913 7.79927 27.5913 7.48625V1.8658ZM20.6571 4.03603C20.4323 3.81112 20.4323 3.45405 20.6571 3.23144C20.8843 3.00653 21.2506 3.00653 21.4778 3.23144L25.5301 7.20561C25.7573 7.42588 25.7573 7.78527 25.5301 8.0102C25.3029 8.23047 24.9366 8.23047 24.7094 8.0102L20.6571 4.03603ZM28.5438 60.085C28.5438 60.4004 28.2842 60.6554 27.9666 60.6554C27.6467 60.6554 27.387 60.4027 27.387 60.085V31.2432C27.387 30.9302 27.6467 30.6728 27.9666 30.6728C28.2842 30.6728 28.5438 30.9301 28.5438 31.2432V60.085ZM24.1484 18.7573H31.7823C32.1347 18.7573 32.4592 18.9011 32.691 19.1306H32.6934C32.9275 19.3602 33.0735 19.6778 33.0735 20.0256V28.4769C33.0735 28.8247 32.9275 29.1424 32.6934 29.3719C32.6794 29.3858 32.6655 29.3998 32.6493 29.409C32.4198 29.6177 32.1161 29.7429 31.78 29.7429H24.1461C23.7891 29.7429 23.4692 29.5992 23.235 29.3696C23.0008 29.1401 22.8548 28.8224 22.8548 28.4746V20.0233C22.8548 19.6755 23.0009 19.3578 23.235 19.1283C23.4691 18.8988 23.7914 18.755 24.1461 18.755L24.1484 18.7573ZM31.7823 19.8958H24.1484C24.1137 19.8958 24.0812 19.9097 24.0557 19.9329C24.0325 19.9561 24.0163 19.9885 24.0163 20.0256V28.477C24.0163 28.5117 24.0325 28.5442 24.0557 28.5697C24.0789 28.5929 24.1113 28.6068 24.1484 28.6068H31.7823C31.8124 28.6068 31.8426 28.5999 31.8634 28.579L31.875 28.5674C31.8982 28.5442 31.9144 28.5117 31.9144 28.4746V20.0233C31.9144 19.9885 31.8982 19.9561 31.875 19.9306H31.8774C31.8542 19.9074 31.8217 19.8935 31.7823 19.8935V19.8958ZM39.5669 17.8925C39.2911 18.0501 38.9387 17.9574 38.7764 17.6838C38.6165 17.4148 38.7115 17.0647 38.9874 16.9093C39.764 16.4688 40.3018 15.9309 40.638 15.3466C41.0066 14.709 41.1364 14.0157 41.0761 13.3502C41.0483 13.0812 40.9927 12.8169 40.9046 12.5619C40.8188 12.3091 40.7006 12.0634 40.5545 11.8338C40.4085 11.6043 40.2346 11.3909 40.0375 11.1985C39.8428 11.0107 39.6226 10.8391 39.3838 10.6977C38.7718 10.3336 38.0299 10.1342 37.2139 10.1852C36.472 10.2339 35.6653 10.4936 34.8284 11.0293L29.4176 14.4933C29.1487 14.6626 28.7916 14.5884 28.6154 14.3264C28.5528 14.2313 28.5227 14.1246 28.5227 14.018H28.5204V13.1067C28.5204 12.956 28.4578 12.8215 28.3581 12.7218C28.2584 12.6244 28.117 12.5618 27.964 12.5618C27.8133 12.5618 27.6719 12.6244 27.5722 12.7218C27.4725 12.8215 27.4099 12.956 27.4099 13.1067V14.018C27.4099 14.331 27.1503 14.5837 26.8304 14.5837C26.6982 14.5837 26.573 14.5397 26.478 14.4655L21.1066 11.0269C20.2696 10.489 19.4629 10.2316 18.7211 10.1829C17.9074 10.1296 17.1632 10.3313 16.5512 10.6953C16.3101 10.8391 16.0922 11.0083 15.8974 11.1961C15.7004 11.3886 15.5242 11.6019 15.3805 11.8314C15.2344 12.061 15.1162 12.3068 15.0304 12.5595C14.9423 12.8123 14.8844 13.0766 14.8589 13.3478C14.7963 14.0133 14.9261 14.7089 15.297 15.3442C15.6378 15.9262 16.1757 16.4664 16.95 16.907C17.2258 17.0647 17.3186 17.4078 17.1609 17.6791C17.0033 17.9527 16.6509 18.0431 16.3727 17.8901C15.406 17.3429 14.7268 16.6543 14.2933 15.903C13.7995 15.0567 13.6279 14.1338 13.7114 13.2458C13.7438 12.8864 13.8227 12.534 13.9362 12.2024C14.0545 11.8569 14.2121 11.5323 14.4022 11.2332C14.5946 10.9318 14.8265 10.6466 15.0908 10.3915C15.3504 10.1411 15.6379 9.9162 15.9532 9.72838C16.7599 9.24842 17.7336 8.9841 18.8 9.05367C19.7273 9.11395 20.7265 9.42929 21.7372 10.0762L26.2602 12.9745C26.2926 12.5641 26.4781 12.1955 26.7586 11.9196C27.0716 11.6135 27.4981 11.4257 27.9664 11.4257C28.4394 11.4257 28.8659 11.6135 29.1743 11.9196H29.1766C29.4571 12.1955 29.6402 12.5641 29.675 12.9745L34.198 10.0762C35.2087 9.42934 36.2056 9.11397 37.1352 9.05367C38.2016 8.9841 39.1753 9.24843 39.982 9.72838C40.2973 9.9162 40.5871 10.1411 40.8444 10.3915C41.1087 10.6489 41.3405 10.9318 41.533 11.2332C41.7254 11.5323 41.8807 11.8569 41.9989 12.2024C42.1125 12.534 42.1913 12.8887 42.2238 13.2458C42.3073 14.1338 42.1357 15.0567 41.6442 15.9076C41.2107 16.6589 40.5292 17.3452 39.5671 17.8901L39.5669 17.8925ZM20.5805 28.1803C20.9004 28.1803 21.16 28.4377 21.16 28.7507C21.16 29.0637 20.9004 29.3211 20.5805 29.3211H3.91446C3.27927 29.3211 2.70662 29.0684 2.28935 28.658C1.87438 28.2499 1.61475 27.6865 1.61475 27.065V21.4423C1.61475 20.8209 1.87439 20.2574 2.28935 19.8494C2.70432 19.439 3.27927 19.1862 3.91446 19.1862H20.5805C20.9004 19.1862 21.16 19.4436 21.16 19.7566C21.16 20.0696 20.9004 20.327 20.5805 20.327H3.91446C3.6015 20.327 3.31636 20.4522 3.11001 20.6539C2.90137 20.858 2.77618 21.1362 2.77618 21.4446V27.0673C2.77618 27.3757 2.90368 27.654 3.11001 27.8557C3.31865 28.0597 3.60148 28.1849 3.91446 28.1849H20.5805V28.1803ZM35.2897 20.3226C34.9698 20.3226 34.7102 20.0652 34.7102 19.7522C34.7102 19.4392 34.9698 19.1818 35.2897 19.1818H52.0186C52.6538 19.1818 53.2265 19.4345 53.6438 19.8449C54.0587 20.253 54.3184 20.8164 54.3184 21.4378V27.0606C54.3184 27.682 54.0587 28.2454 53.6438 28.6535C53.2288 29.0639 52.6538 29.3167 52.0186 29.3167H35.2897C34.9698 29.3167 34.7102 29.0593 34.7102 28.7463C34.7102 28.4333 34.9698 28.1759 35.2897 28.1759H52.0186C52.3316 28.1759 52.6167 28.0507 52.8231 27.8466C53.0317 27.6449 53.1569 27.3667 53.1569 27.0583V21.4355C53.1569 21.1272 53.0294 20.8489 52.8231 20.6449C52.6191 20.4432 52.3316 20.318 52.0186 20.318H35.2897V20.3226ZM50.0109 30.5131C50.0109 30.2001 50.2729 29.9473 50.5905 29.9473C50.9104 29.9473 51.17 30.2001 51.17 30.5131V57.3605C51.17 58.1906 50.8385 58.9511 50.3007 59.5006C49.7582 60.0594 49.0048 60.4072 48.1772 60.4072H35.7261C35.4085 60.4072 35.1465 60.1498 35.1465 59.8368C35.1465 59.5238 35.4085 59.2664 35.7261 59.2664H48.1772C48.678 59.2664 49.1323 59.0554 49.4639 58.7192C49.8 58.3714 50.0087 57.8915 50.0087 57.3582V30.5107L50.0109 30.5131Z" stroke="#FFD700" stroke-width="1.78043"/>
</svg>
