<svg width="57" height="56" viewBox="0 0 57 56" fill="none" xmlns="http://www.w3.org/2000/svg">
<path d="M53.0573 3.17191C51.1551 1.26883 47.3518 0.177246 42.62 0.177246C34.3659 0.177246 22.2481 3.47704 12.9961 12.7355C-0.216065 25.9597 -2.30556 47.0782 3.43986 52.8283C5.34109 54.7313 9.1454 55.8229 13.8762 55.8229H13.8781C22.1322 55.8229 34.2481 52.5231 43.5001 43.2637C56.7123 30.0404 58.8027 8.92289 53.0573 3.17191ZM42.62 1.97275C43.5437 1.97275 44.422 2.02468 45.2595 2.11093C45.8558 2.2788 46.3297 2.51715 46.6451 2.83247C49.904 6.09424 46.6302 20.4564 35.1394 31.9602C23.6439 43.464 9.18713 46.7898 5.92908 43.528C3.29518 40.8923 6.08581 25.9199 17.5813 14.4151C25.1083 6.88255 34.0357 3.04578 40.0918 2.08311C40.9328 2.01314 41.7762 1.97633 42.62 1.97275ZM42.2323 41.995C34.1748 50.0571 23.8748 53.394 16.1354 53.9375C23.6662 51.2609 33.5739 45.8392 42.2592 33.6824C47.2915 26.6395 51.361 18.851 54.2704 13.6982C54.224 21.944 50.722 33.4988 42.2323 41.995Z" fill="#32CD32"/>
<path d="M12.8839 36.2449C11.323 34.6831 11.6754 29.2141 14.5458 23.6013C10.4308 30.2009 9.33738 36.6205 10.9233 38.2074C12.5092 39.796 18.9242 38.7007 25.5192 34.583C19.9091 37.4543 14.4457 37.8067 12.8839 36.2449Z" fill="#32CD32"/>
<path d="M38.9288 10.1786C40.4906 11.7404 40.141 17.2085 37.2678 22.8223C41.3837 16.2227 42.4772 9.80395 40.8904 8.21527C39.3054 6.62844 32.8894 7.7228 26.2945 11.8415C31.9036 8.96834 37.3689 8.61684 38.9288 10.1786Z" fill="#32CD32"/>
</svg>
