<svg width="56" height="60" viewBox="0 0 56 60" fill="none" xmlns="http://www.w3.org/2000/svg">
<path d="M36.1726 10.412L42.8178 12.1755C42.9911 12.2109 43.1319 12.3525 43.1718 12.5269L44.9237 19.1721C44.9709 19.3672 45.1425 19.5043 45.3421 19.5043C45.5436 19.5043 45.7134 19.3672 45.7587 19.1721L47.5132 12.5269C47.5504 12.3527 47.6921 12.2109 47.8654 12.1755L54.5115 10.412C54.7058 10.3756 54.8439 10.2023 54.8439 10.0026C54.8439 9.80103 54.7058 9.63129 54.5115 9.59234L47.8654 7.8296C47.6921 7.79249 47.5504 7.6526 47.5132 7.47836L45.7587 0.833143C45.7133 0.639779 45.5435 0.5 45.3421 0.5C45.1425 0.5 44.9708 0.639779 44.9237 0.833143L43.1718 7.47836C43.1319 7.6526 42.9912 7.79249 42.8178 7.8296L36.1726 9.59234C35.9764 9.6314 35.8403 9.80114 35.8403 10.0026C35.8403 10.2023 35.9765 10.3757 36.1726 10.412Z" fill="#FFD700"/>
<path d="M42.9698 38.1273L39.9535 37.3277C39.8745 37.3095 39.8101 37.2477 39.7928 37.168L38.9977 34.1517C38.9768 34.0637 38.8996 34.001 38.808 34.001C38.7181 34.001 38.6401 34.0637 38.6183 34.1517L37.8232 37.168C37.805 37.2478 37.7415 37.3095 37.6626 37.3277L34.6473 38.1273C34.5583 38.1446 34.4956 38.2227 34.4956 38.3134C34.4956 38.4042 34.5583 38.4823 34.6473 38.5004L37.6626 39.2992C37.7415 39.3155 37.805 39.3809 37.8232 39.4608L38.6183 42.4752C38.6401 42.5632 38.7181 42.6259 38.808 42.6259C38.8997 42.6259 38.9768 42.5632 38.9977 42.4752L39.7928 39.4608C39.8101 39.3809 39.8745 39.3155 39.9535 39.2992L42.9698 38.5004C43.0569 38.4823 43.1206 38.4042 43.1206 38.3134C43.1204 38.2226 43.0569 38.1446 42.9698 38.1273Z" fill="#FFD700"/>
<path d="M2.93603 16.6416L7.68415 17.8996C7.80929 17.926 7.90839 18.0268 7.93824 18.1519L9.18899 22.9001C9.22345 23.0408 9.34606 23.1379 9.4886 23.1379C9.63196 23.1379 9.75364 23.0408 9.78729 22.9001L11.039 18.1519C11.0654 18.0268 11.1679 17.926 11.2923 17.8996L16.0413 16.6416C16.1801 16.6125 16.279 16.4873 16.279 16.3456C16.279 16.204 16.1801 16.0825 16.0413 16.0534L11.2923 14.7934C11.1679 14.7662 11.0654 14.6683 11.039 14.5429L9.78729 9.79215C9.75364 9.6541 9.63207 9.55615 9.4886 9.55615C9.34617 9.55615 9.22356 9.6541 9.18899 9.79215L7.93824 14.543C7.90828 14.6683 7.80929 14.7662 7.68415 14.7936L2.93603 16.0535C2.79441 16.0826 2.69727 16.2041 2.69727 16.3458C2.69727 16.4873 2.79441 16.6126 2.93603 16.6416Z" fill="#FFD700"/>
<path d="M44.2765 32.408C43.3688 31.346 42.0717 30.4039 40.4723 29.6142H40.4742C37.2845 28.0348 32.9104 27.0682 28.0769 27.0654L28.0633 27.0662V27.0654C24.8891 27.0662 21.91 27.4829 19.3349 28.2164C16.7598 28.9499 14.5923 29.9955 13.031 31.2663L13.0336 31.2645C11.9908 32.1122 11.2238 33.0581 10.7981 34.0865C10.5547 34.6702 10.4268 35.2856 10.4277 35.9091C10.4277 36.422 10.8435 36.8386 11.3572 36.8386C11.871 36.8386 12.2867 36.422 12.2867 35.9091C12.2876 35.5342 12.3585 35.1776 12.5154 34.7963C12.7868 34.1355 13.3414 33.4076 14.2047 32.7086L14.2073 32.7067C15.4926 31.6538 17.4551 30.6808 19.8441 30.0046C22.2332 29.3229 25.0525 28.9244 28.0633 28.9253H28.1123C32.6789 28.9262 36.8043 29.8639 39.6473 31.2799L39.65 31.2808C41.0769 31.9834 42.1779 32.8093 42.8632 33.6154C43.2082 34.0194 43.4532 34.416 43.6103 34.7963C43.8064 35.271 44.3492 35.4962 44.8239 35.3001C45.2987 35.1041 45.5238 34.5612 45.3277 34.0865C45.0852 33.5 44.7313 32.9381 44.2765 32.408Z" fill="#FFD700"/>
<path d="M54.569 31.8399C54.1768 30.8941 53.6404 30.0146 52.9931 29.2022C52.346 28.3907 51.589 27.6446 50.7465 26.9584L50.6949 26.9167L50.7448 26.9584C48.2141 24.9016 44.8838 23.3294 41.0262 22.2257H41.0253C37.164 21.1283 32.7589 20.5156 28.0752 20.5156C24.5062 20.5156 21.1004 20.8715 17.9726 21.5259C14.8447 22.1804 11.9946 23.1334 9.53654 24.3479L9.53469 24.3488C7.07939 25.5669 4.99169 27.0501 3.44225 28.8591L3.47037 28.8245L3.44133 28.8591C2.66799 29.765 2.02902 30.7589 1.58145 31.8399C1.13307 32.9219 0.883473 34.0883 0.884279 35.2891V44.7237C0.883473 45.9256 1.13307 47.0928 1.58145 48.1748C1.97359 49.1206 2.51012 49.9991 3.15728 50.8116C3.80536 51.624 4.56141 52.3692 5.40366 53.0554L5.4055 53.0563C7.93616 55.1113 11.2655 56.687 15.1232 57.7889L15.144 57.7935C19.0011 58.8874 23.3988 59.4992 28.0752 59.5001H28.0761C31.6443 59.4992 35.0499 59.1433 38.1778 58.4889C41.3057 57.8344 44.1558 56.8805 46.6139 55.6668L46.6156 55.6651C49.0709 54.4469 51.1577 52.9629 52.7081 51.1556L52.709 51.1539C53.4823 50.2498 54.1204 49.2569 54.5679 48.1749L54.5398 48.2411L54.5689 48.1749C55.0163 47.0928 55.266 45.9256 55.266 44.7238V35.2892C55.266 34.0883 55.0164 32.9219 54.569 31.8399ZM6.96865 49.6371C6.68276 49.3675 6.41587 49.0934 6.17815 48.8165C5.61442 48.1557 5.19139 47.4796 4.90907 46.7987C4.62675 46.1162 4.48524 45.4291 4.48524 44.7238V40.4468C5.03617 41.1267 5.68702 41.7684 6.42313 42.3694C6.60025 42.5118 6.78174 42.6526 6.96865 42.7924V49.6371ZM12.1824 52.9239C11.8239 52.7678 11.4709 52.6079 11.1322 52.4392C10.3434 52.0489 9.6172 51.6322 8.95472 51.1976V44.0904C9.9432 44.6577 11.0233 45.1777 12.1824 45.6462V52.9239ZM18.6388 54.9489C17.0031 54.603 15.4682 54.1701 14.0531 53.6645H14.1702V46.3713C14.6249 46.522 15.0915 46.6645 15.5671 46.8007C16.5511 47.0803 17.5786 47.3253 18.6388 47.5387V54.9489ZM27.0813 55.8883C24.8321 55.8429 22.6699 55.6378 20.6258 55.3074V47.8862C22.6817 48.2038 24.8438 48.3899 27.0813 48.4336V55.8883ZM35.7733 55.2629C33.6566 55.616 31.411 55.8375 29.0691 55.8829V48.438C31.3964 48.3925 33.6448 48.1902 35.7733 47.8524V55.2629ZM42.2298 53.6191C41.5291 53.8733 40.7993 54.1093 40.0394 54.3253C39.3061 54.5341 38.5418 54.7201 37.7594 54.8907V47.4895C39.3325 47.1645 40.8283 46.7597 42.2298 46.2868V53.6191ZM47.4444 51.0285C46.5041 51.673 45.422 52.2721 44.2157 52.8166V45.5425C44.7966 45.3019 45.3604 45.0495 45.8986 44.7836C46.4369 44.5158 46.9515 44.2354 47.4444 43.9448V51.0285ZM51.6652 44.7237C51.6652 45.429 51.5237 46.1162 51.2404 46.7986C50.8773 47.6809 50.2683 48.5587 49.4304 49.4002V42.6887H49.3124C50.1366 42.0596 50.8673 41.3888 51.4818 40.6709C51.5444 40.5974 51.6043 40.523 51.6651 40.4485V44.7237H51.6652ZM51.2404 37.3624C50.7503 38.5533 49.8153 39.7351 48.472 40.8289C46.4614 42.47 43.5451 43.8933 40.0395 44.889C36.535 45.8875 32.4431 46.4639 28.0753 46.4639C21.421 46.4666 15.4021 45.1205 11.1323 43.0028C8.99747 41.9473 7.30548 40.7019 6.17815 39.3794C5.61442 38.7194 5.19139 38.0432 4.90907 37.3625C4.62675 36.6799 4.48524 35.9937 4.48524 35.2894C4.48524 34.5851 4.62675 33.8988 4.90907 33.2162C5.40112 32.0244 6.33417 30.8426 7.6785 29.7506C9.69003 28.1085 12.6055 26.6845 16.111 25.6887C19.6156 24.6913 23.7084 24.1157 28.0753 24.1157C34.7297 24.112 40.7475 25.4591 45.0174 27.5758C47.1532 28.6305 48.846 29.8777 49.9716 31.1983C50.5361 31.8583 50.9591 32.5345 51.2405 33.2161C51.5238 33.8987 51.6653 34.5848 51.6653 35.2892C51.6653 35.9937 51.5237 36.6798 51.2404 37.3624Z" fill="#FFD700"/>
</svg>
