<svg width="61" height="60" viewBox="0 0 61 60" fill="none" xmlns="http://www.w3.org/2000/svg">
<g clip-path="url(#clip0_471_67740)">
<path d="M60.0703 0.322266H0.714844V59.6777H60.0703V30V0.322266Z" fill="white" fill-opacity="0.01"/>
<path d="M30.3926 54.7314C44.0514 54.7314 55.124 43.6588 55.124 30C55.124 16.3412 44.0514 5.26855 30.3926 5.26855C16.7338 5.26855 5.66113 16.3412 5.66113 30C5.66113 43.6588 16.7338 54.7314 30.3926 54.7314Z" stroke="#F2C20B" stroke-width="3"/>
<path d="M30.3926 5.26855C30.2678 13.5143 28.2433 19.6988 24.319 23.8226C20.3946 27.9461 14.1753 30.0087 5.66113 30.0102" stroke="#F2C20B" stroke-width="3" stroke-linecap="round" stroke-linejoin="round"/>
<path d="M55.0847 31.2427C47.0315 30.6904 40.8781 32.4117 36.6243 36.4067C32.3703 40.4016 30.2944 46.5098 30.3961 54.731" stroke="#F2C20B" stroke-width="3" stroke-linecap="round"/>
</g>
<defs>
<clipPath id="clip0_471_67740">
<rect width="59.3554" height="59.3554" fill="white" transform="translate(0.714844 0.322266)"/>
</clipPath>
</defs>
</svg>
