<svg width="58" height="58" viewBox="0 0 58 58" fill="none" xmlns="http://www.w3.org/2000/svg">
<path d="M9.9671 36.1719H14.8145M9.9671 45.8419H14.8145M7.04828 17.3016C11.3249 13.8662 16.6488 11.9984 22.1345 12.0091H36.6271C42.0618 12.0322 47.3279 13.898 51.5649 17.3016M51.0452 26.4525C52.3571 26.4525 53.6152 26.9736 54.5428 27.9012C55.4704 28.8288 55.9915 30.0869 55.9915 31.3988V50.714C55.9915 52.0258 55.4704 53.2839 54.5428 54.2115C53.6152 55.1392 52.3571 55.6603 51.0452 55.6603H36.5526L33.0408 50.4172C32.6308 49.8102 32.0783 49.3131 31.4315 48.9694C30.7847 48.6258 30.0635 48.446 29.331 48.446C28.5986 48.446 27.8774 48.6258 27.2306 48.9694C26.5838 49.3131 26.0312 49.8102 25.6213 50.4172L22.06 55.5119H7.56738C6.25554 55.5119 4.99744 54.9908 4.06983 54.0632C3.14222 53.1355 2.62109 51.8774 2.62109 50.5656V31.3988C2.62109 30.0869 3.14222 28.8288 4.06983 27.9012C4.99744 26.9736 6.25554 26.4525 7.56738 26.4525H51.0452ZM29.3071 2.33936C35.7068 2.33934 41.8452 4.87825 46.3752 9.39892C50.9051 13.9196 53.4566 20.0527 53.4697 26.4525H5.14447C5.15757 20.0527 7.70905 13.9196 12.239 9.39892C16.7689 4.87825 22.9073 2.33934 29.3071 2.33936Z" stroke="#4162E4" stroke-width="3.95703" stroke-miterlimit="10"/>
</svg>
