<?xml version="1.0" encoding="utf-8"?>
<!-- Generator: Adobe Illustrator 27.3.1, SVG Export Plug-In . SVG Version: 6.00 Build 0)  -->
<svg version="1.1" id="Layer_1" xmlns="http://www.w3.org/2000/svg" xmlns:xlink="http://www.w3.org/1999/xlink" x="0px" y="0px"
	 viewBox="0 0 200 200" style="enable-background:new 0 0 200 200;" xml:space="preserve">
<style type="text/css">
	.st0{fill:#DE0751;}
	.st1{fill:#FFFFFF;}
	.st2{fill:#0F0F1F;}
</style>
<g id="Layer_2_00000164507560779066288490000007907385854254286265_">
	<rect class="st0" width="200" height="200"/>
</g>
<g id="Layer_1_00000059993597852732977830000015917573492408455602_">
	<path class="st1" d="M28.06,34.46c0-1.04,0.84-1.89,1.89-1.89h50.08c14.01,0,19.43,3.71,19.43,14.01v5.06
		c0,4.93-1.3,7.72-3.36,9.33c-0.96,0.76-0.89,2.27,0.12,2.96c2.5,1.69,4.06,4.98,4.06,11.48v5.43c0,9.76-5.33,13.37-19.34,13.37
		H29.94c-1.04,0-1.89-0.84-1.89-1.89V34.46H28.06z M41.8,45.66v10.42c0,1.04,0.84,1.89,1.89,1.89H80.3c4.8,0,6.32-1.36,6.32-5.43
		v-3.89c0-3.71-1.9-4.88-7.68-4.88H43.68C42.64,43.77,41.8,44.62,41.8,45.66z M41.8,69.79v11.32c0,1.04,0.84,1.89,1.89,1.89h36.52
		c5.15,0,7.23-1.17,7.23-4.97v-3.79c0-5.06-1.8-6.32-6.78-6.32H43.68C42.64,67.91,41.8,68.75,41.8,69.79z"/>
	<path class="st2" d="M163.82,168.39v-28.3c0-1.54-1.95-2.2-2.89-0.98l-22.82,29.81c-1.24,1.54-2.86,2.24-5.17,2.24
		s-3.93-0.7-5.17-2.24l-22.74-29.79c-0.93-1.23-2.89-0.56-2.89,0.98v28.28c0,0.89-0.72,1.61-1.61,1.61h-7.43
		c-0.89,0-1.61-0.72-1.61-1.61v-47.4c0-3.32,2.7-4.79,6.33-4.79c2.78,0,4.25,0.7,5.56,2.47l28.43,37.75
		c0.64,0.86,1.92,0.86,2.57,0.01l28.66-37.75c1.31-1.7,2.55-2.47,5.25-2.47c3.55,0,6.33,1.47,6.33,4.79v47.4
		c0,0.89-0.72,1.61-1.61,1.61h-7.59C164.54,169.99,163.82,169.27,163.82,168.39z"/>
</g>
</svg>
