<?xml version="1.0" encoding="utf-8"?>
<!-- Generator: Adobe Illustrator 27.3.1, SVG Export Plug-In . SVG Version: 6.00 Build 0)  -->
<svg version="1.1" id="Layer_1" xmlns="http://www.w3.org/2000/svg" xmlns:xlink="http://www.w3.org/1999/xlink" x="0px" y="0px"
	 viewBox="0 0 32 32" style="enable-background:new 0 0 32 32;" xml:space="preserve">
<style type="text/css">
	.st0{fill:#DC0752;}
	.st1{fill:#FFFFFF;}
</style>
<rect x="0.03" class="st0" width="32" height="32"/>
<path class="st1" d="M3.01,25.1L6.01,8.2h8.32c1.52,0,2.73,0.33,3.64,0.99c0.91,0.66,1.37,1.62,1.37,2.88
	c0,0.88-0.24,1.69-0.72,2.41c-0.48,0.72-1.23,1.31-2.25,1.76c0.72,0.27,1.26,0.72,1.63,1.34c0.37,0.62,0.55,1.32,0.55,2.1
	c0,0.48-0.07,0.96-0.21,1.45c-0.44,1.38-1.21,2.38-2.31,3.01c-1.1,0.63-2.57,0.95-4.42,0.95L3.01,25.1L3.01,25.1z M7.27,21.8h4.64
	c0.94,0,1.66-0.2,2.15-0.59c0.49-0.39,0.73-0.94,0.73-1.64c0-0.51-0.19-0.91-0.57-1.21s-0.94-0.45-1.66-0.45h-4.6L7.27,21.8z
	 M8.52,14.77h4.58c0.72,0,1.3-0.21,1.72-0.62c0.43-0.41,0.64-0.87,0.64-1.37c0-0.41-0.14-0.73-0.42-0.98
	c-0.28-0.25-0.71-0.37-1.29-0.37H9.11L8.52,14.77z"/>
<g id="Trophy">
	<path class="st0" d="M29.05,11.38c-0.05,1.13-1.57,3.51-3.51,3.51s-3.51-1.57-3.51-3.51s1.57-3.51,3.51-3.51S29.13,9.7,29.05,11.38
		z"/>
	<g>
		<path class="st1" d="M25.62,23.06c0.21,0.45,0.24,0.82-0.13,1.2c-0.25,0.25-0.56,0.39-0.88,0.52c-0.45,0.18-0.92,0.27-1.4,0.3
			c-0.38,0.02-0.75-0.01-1.13-0.06c-0.35-0.04-0.7-0.12-1.03-0.24c-0.26-0.1-0.51-0.21-0.72-0.41c-0.26-0.25-0.31-0.5-0.14-0.82
			c0.14-0.26,0.3-0.51,0.48-0.75c0.28-0.36,0.58-0.71,0.87-1.06c0.24-0.28,0.49-0.56,0.73-0.84c0.29-0.33,0.58-0.65,0.87-0.98
			c0.24-0.27,0.49-0.55,0.73-0.83c0.41-0.48,0.81-0.97,1.09-1.55c0.21-0.44,0.31-0.91,0.27-1.4c-0.02-0.25-0.07-0.5-0.07-0.76
			c0-0.55,0.13-1.09,0.29-1.61c0.12-0.38,0.15-0.76,0.15-1.16c0.14,0.17,0.22,0.36,0.26,0.56c0.07,0.35,0.01,0.69-0.08,1.03
			c-0.06,0.21-0.11,0.44-0.13,0.66c-0.02,0.26,0.11,0.47,0.31,0.63c0.12,0.1,0.25,0.19,0.37,0.29c0.12,0.1,0.26,0.07,0.38-0.07
			c0.19-0.22,0.32-0.47,0.37-0.76c0.03-0.21-0.06-0.32-0.27-0.34c-0.01,0-0.03,0-0.04-0.01c0.09-0.32,0.17-0.63,0.26-0.94
			c0.04-0.15,0.07-0.3,0.12-0.45c0.01-0.03,0.02-0.07,0.05-0.08c0.21-0.11,0.42-0.22,0.63-0.33c0.01-0.01,0.03,0,0.05-0.01
			c0.08,0.19,0.16,0.39,0.25,0.61c0.4-0.54,0.66-1.12,0.81-1.77c-0.14,0.02-0.26,0.03-0.38,0.05c-0.02-0.18-0.02-0.35-0.06-0.52
			c-0.07-0.26-0.16-0.52-0.25-0.77c-0.02-0.07-0.03-0.11,0-0.18c0.1-0.23,0.19-0.45,0.29-0.69c0.07,0.13,0.14,0.25,0.2,0.38
			c0.32,0.65,0.36,0.92,0.33,1.44c-0.03,0.55-0.18,1.15-0.39,1.66c-0.38,0.93-0.89,1.78-1.47,2.59c-0.32,0.45-0.66,0.89-1,1.33
			c-0.24,0.31-0.48,0.61-0.72,0.9c-0.22,0.26-0.44,0.51-0.67,0.76c-0.35,0.37-0.69,0.74-1.05,1.11c-0.28,0.29-0.57,0.58-0.86,0.86
			c-0.24,0.23-0.5,0.44-0.73,0.67c-0.32,0.33-0.62,0.67-0.92,1.02c-0.21,0.23-0.41,0.48-0.61,0.71c-0.1,0.12-0.12,0.27-0.14,0.42
			c-0.04,0.37,0.17,0.59,0.47,0.74c0.39,0.21,0.81,0.32,1.26,0.33c0.29,0.01,0.58,0.04,0.87,0.03c0.58-0.01,1.15-0.09,1.69-0.3
			c0.29-0.12,0.56-0.28,0.74-0.56C25.63,23.49,25.66,23.29,25.62,23.06z"/>
		<path class="st1" d="M23.48,8.53c-0.05,0.06-0.09,0.09-0.12,0.13c-0.23,0.24-0.31,0.55-0.34,0.87C23,9.72,23,9.92,22.98,10.11
			c-0.01,0.05-0.03,0.1-0.06,0.14c-0.19,0.25-0.4,0.48-0.57,0.74c-0.12,0.18-0.22,0.38-0.27,0.58c-0.04,0.15,0,0.32,0.03,0.47
			c0.06,0.32,0.18,0.62,0.33,0.91c0.03,0.06,0.08,0.12,0.14,0.18c0.01-0.14,0.01-0.27,0.02-0.43c0.12,0.04,0.24,0.08,0.35,0.12
			c0.18,0.06,0.35,0.13,0.53,0.18c0.07,0.02,0.1,0.06,0.11,0.13c0.03,0.25,0.07,0.5,0.1,0.76c0.01,0.06,0.04,0.09,0.1,0.11
			c0.42,0.12,0.88-0.07,1.07-0.48c0.08-0.18,0.14-0.37,0.21-0.57c-0.04,0.21-0.07,0.4-0.1,0.6c-0.09,0.46-0.18,0.92-0.26,1.38
			c-0.05,0.28-0.06,0.56-0.09,0.84c-0.09,0.74-0.23,1.46-0.54,2.15c-0.18,0.39-0.44,0.74-0.7,1.08c-0.27,0.36-0.54,0.72-0.81,1.09
			c-0.15,0.2-0.31,0.4-0.48,0.59c0.19-0.43,0.32-0.88,0.38-1.35c0.06-0.47,0.12-0.93,0.17-1.37c0.04,0.13,0.08,0.74,0.06,0.91
			c-0.04,0.32-0.08,0.63-0.13,0.95c0.01,0.01,0.01,0.01,0.02,0.02c0.06-0.06,0.13-0.12,0.17-0.19c0.14-0.25,0.28-0.51,0.39-0.78
			c0.22-0.55,0.32-1.13,0.37-1.73c0.04-0.48-0.06-0.92-0.27-1.35c-0.38-0.76-0.72-1.54-0.99-2.34c-0.14-0.4-0.21-0.81-0.24-1.23
			c-0.05-0.62-0.03-1.21,0.13-1.82c0.13-0.48,0.37-0.94,0.69-1.32c0.17-0.21,0.36-0.39,0.59-0.54C23.44,8.55,23.45,8.55,23.48,8.53z
			"/>
		<path class="st1" d="M25.32,22.3c0.08,0.25,0.09,0.48,0,0.71c-0.14,0.36-0.42,0.56-0.76,0.7c-0.38,0.16-0.78,0.22-1.19,0.27
			c-0.49,0.06-0.97,0.04-1.45-0.09c-0.26-0.07-0.5-0.17-0.72-0.33c-0.26-0.19-0.23-0.42-0.07-0.61c0.32-0.39,0.66-0.77,1-1.15
			c0.33-0.38,0.72-0.68,1.12-0.98c0.28-0.21,0.56-0.44,0.83-0.67c0.27-0.23,0.52-0.48,0.77-0.73c0.35-0.35,0.64-0.76,0.89-1.19
			c0.03-0.04,0.05-0.08,0.09-0.12c-0.05,0.14-0.11,0.27-0.16,0.41c-0.18,0.43-0.35,0.86-0.62,1.23c-0.17,0.22-0.37,0.42-0.57,0.61
			c-0.26,0.23-0.53,0.46-0.81,0.66c-0.45,0.32-0.92,0.62-1.38,0.94c-0.19,0.13-0.38,0.26-0.54,0.42c-0.11,0.1-0.19,0.24-0.24,0.38
			c-0.1,0.24-0.03,0.43,0.21,0.53c0.2,0.08,0.41,0.15,0.62,0.17c0.33,0.04,0.66,0.05,0.99,0.04c0.34-0.01,0.68-0.05,1.01-0.12
			C24.91,23.27,25.26,22.93,25.32,22.3z"/>
		<path class="st1" d="M25.61,9.82c0.31,0.3,0.62,0.61,0.95,0.9c0.09,0.08,0.11,0.15,0.06,0.27c-0.17,0.4-0.33,0.8-0.5,1.19
			c-0.03,0.08-0.08,0.1-0.17,0.09c-0.43-0.06-0.86-0.11-1.29-0.17c-0.01,0-0.03-0.01-0.04-0.01c-0.07-0.34-0.14-0.67-0.21-1.01
			c-0.03-0.14-0.06-0.27-0.1-0.41c-0.01-0.05-0.02-0.08,0.04-0.12c0.41-0.24,0.81-0.48,1.22-0.72C25.59,9.82,25.6,9.82,25.61,9.82z"
			/>
		<path class="st1" d="M26.75,8.09c-0.05,0.02-0.09,0.04-0.13,0.05c-0.34,0.09-0.64,0.27-0.91,0.5c-0.08,0.07-0.16,0.09-0.27,0.08
			c-0.39-0.04-0.78,0.01-1.17,0.07c-0.02,0-0.04,0-0.07,0.01c0.04-0.23,0.07-0.46,0.12-0.68c0.01-0.03,0.06-0.05,0.09-0.06
			c0.33-0.11,0.66-0.17,1.01-0.18c0.43-0.01,0.85,0.06,1.26,0.19C26.69,8.06,26.71,8.08,26.75,8.09z"/>
		<path class="st1" d="M23.17,18.25c-0.43-1.08-0.56-2.2-0.63-3.36c0.04,0.14,0.08,0.26,0.12,0.37c0.13,0.4,0.28,0.8,0.4,1.21
			c0.17,0.57,0.23,1.15,0.13,1.74C23.2,18.22,23.19,18.23,23.17,18.25z"/>
		<path class="st1" d="M22.68,22.71c0.45-0.29,0.93-0.54,1.3-0.95c0.36-0.4,0.64-0.86,0.93-1.32c-0.05,0.18-0.1,0.37-0.15,0.55
			c-0.13,0.54-0.5,0.89-0.91,1.21c-0.32,0.25-0.69,0.41-1.09,0.5C22.73,22.7,22.71,22.7,22.68,22.71z"/>
	</g>
</g>
</svg>
