<svg width="56" height="59" viewBox="0 0 56 59" fill="none" xmlns="http://www.w3.org/2000/svg">
<g clip-path="url(#clip0_268_898)">
<rect x="0.492554" y="0.5" width="55.403" height="58" rx="4" fill="white" fill-opacity="0.2"/>
<path d="M23.5723 54.8545V55.7836H19.2642V54.8545H23.5723ZM19.4891 47.1674V55.7836H18.347V47.1674H19.4891ZM25.9039 49.3807V55.7836H24.8032V49.3807H25.9039ZM24.7203 47.6823C24.7203 47.5048 24.7736 47.3548 24.8801 47.2325C24.9906 47.1102 25.1523 47.0491 25.3653 47.0491C25.5744 47.0491 25.7342 47.1102 25.8447 47.2325C25.9591 47.3548 26.0163 47.5048 26.0163 47.6823C26.0163 47.8519 25.9591 47.9979 25.8447 48.1202C25.7342 48.2385 25.5744 48.2977 25.3653 48.2977C25.1523 48.2977 24.9906 48.2385 24.8801 48.1202C24.7736 47.9979 24.7203 47.8519 24.7203 47.6823ZM29.6083 54.7953L31.36 49.3807H32.4784L30.1764 55.7836H29.4426L29.6083 54.7953ZM28.1467 49.3807L29.9515 54.8249L30.0758 55.7836H29.342L27.0223 49.3807H28.1467ZM36.1059 55.9019C35.6601 55.9019 35.2558 55.827 34.8928 55.6771C34.5338 55.5232 34.2241 55.3082 33.9637 55.032C33.7073 54.7559 33.51 54.4284 33.372 54.0497C33.2339 53.671 33.1648 53.2567 33.1648 52.807V52.5584C33.1648 52.0377 33.2418 51.5741 33.3956 51.1678C33.5495 50.7575 33.7586 50.4103 34.0229 50.1263C34.2872 49.8422 34.5871 49.6272 34.9224 49.4813C35.2577 49.3353 35.6049 49.2623 35.9639 49.2623C36.4215 49.2623 36.8161 49.3412 37.1474 49.499C37.4828 49.6568 37.757 49.8777 37.97 50.1618C38.183 50.4419 38.3408 50.7733 38.4434 51.156C38.546 51.5347 38.5973 51.9489 38.5973 52.3987V52.8898H33.8158V51.9963H37.5025V51.9134C37.4867 51.6294 37.4275 51.3532 37.325 51.0849C37.2263 50.8167 37.0685 50.5958 36.8516 50.4222C36.6346 50.2486 36.3387 50.1618 35.9639 50.1618C35.7154 50.1618 35.4865 50.215 35.2775 50.3216C35.0684 50.4241 34.8889 50.578 34.7389 50.7831C34.589 50.9883 34.4727 51.2388 34.3898 51.5347C34.307 51.8306 34.2655 52.1718 34.2655 52.5584V52.807C34.2655 53.1108 34.307 53.3968 34.3898 53.6651C34.4766 53.9294 34.6009 54.1621 34.7626 54.3633C34.9283 54.5645 35.1275 54.7223 35.3603 54.8368C35.597 54.9512 35.8653 55.0084 36.1651 55.0084C36.5517 55.0084 36.8792 54.9295 37.1474 54.7717C37.4157 54.6139 37.6504 54.4028 37.8516 54.1385L38.5144 54.6651C38.3763 54.8742 38.2008 55.0735 37.9878 55.2628C37.7747 55.4522 37.5124 55.6061 37.2007 55.7244C36.893 55.8428 36.5281 55.9019 36.1059 55.9019Z" fill="white"/>
<g clip-path="url(#clip1_268_898)">
<path d="M36.418 18.2159L37.5579 17.646C40.9267 15.9615 42.6113 15.1193 43.843 15.8805C45.0747 16.6417 45.0747 18.525 45.0747 22.2917V22.7969C45.0747 26.5636 45.0747 28.4468 43.843 29.2081C42.6113 29.9693 40.9267 29.127 37.5579 27.4426L36.418 26.8726V18.2159Z" stroke="white" stroke-width="2.32364"/>
<path d="M30.4633 21.2475C31.4774 22.2617 31.4774 23.9061 30.4633 24.9203C29.4491 25.9344 27.8047 25.9344 26.7904 24.9203C25.7764 23.9061 25.7764 22.2617 26.7904 21.2475C27.8047 20.2333 29.4491 20.2333 30.4633 21.2475Z" stroke="white" stroke-width="2.32364"/>
<path d="M10.4478 21.2507C10.4478 15.559 10.4478 12.7131 12.0197 10.7976C12.3075 10.4469 12.6291 10.1254 12.9797 9.83762C14.8952 8.26563 17.7411 8.26563 23.4328 8.26563C29.1246 8.26563 31.9704 8.26563 33.886 9.83762C34.2366 10.1254 34.5581 10.4469 34.8458 10.7976C36.4179 12.7131 36.4179 15.559 36.4179 21.2507V22.9821C36.4179 28.6738 36.4179 31.5197 34.8458 33.4352C34.5581 33.7858 34.2366 34.1073 33.886 34.3951C31.9704 35.9671 29.1246 35.9671 23.4328 35.9671C17.7411 35.9671 14.8952 35.9671 12.9797 34.3951C12.6291 34.1073 12.3075 33.7858 12.0197 33.4352C10.4478 31.5197 10.4478 28.6738 10.4478 22.9821V21.2507Z" stroke="white" stroke-width="2.32364"/>
</g>
</g>
<defs>
<clipPath id="clip0_268_898">
<rect x="0.492554" y="0.5" width="55.403" height="58" rx="4" fill="white"/>
</clipPath>
<clipPath id="clip1_268_898">
<rect width="41.5522" height="41.5522" fill="white" transform="translate(7.41797 0.5)"/>
</clipPath>
</defs>
</svg>
