<svg width="45" height="45" viewBox="0 0 45 45" fill="none" xmlns="http://www.w3.org/2000/svg">
<path d="M44.0087 31.8857C43.2247 30.6635 42.1251 29.9737 41.2395 29.5935C40.3505 29.2132 39.6622 29.1299 39.6162 29.124L39.5943 29.1212L30.1823 28.3521L29.0106 30.6105C28.9132 30.5715 28.8155 30.5325 28.7396 30.4974C28.5874 30.4267 28.4803 30.3645 28.4132 30.3143C28.3123 30.2355 28.2958 30.2071 28.2623 30.1317C28.2314 30.057 28.2019 29.9043 28.2029 29.6469C28.2029 28.9876 28.2029 28.1616 28.2029 27.0657C28.7112 26.7304 29.1776 26.3482 29.583 25.9031C29.7718 25.6968 29.9425 25.4719 30.1116 25.2451C30.103 25.3151 30.0917 25.3806 30.091 25.4653C30.0961 25.6023 30.093 25.7676 30.2185 26.0234C30.2834 26.1484 30.3987 26.3013 30.577 26.4144C30.7536 26.5301 30.9758 26.583 31.1529 26.5803C31.3761 26.5777 31.5346 26.5208 31.6601 26.4653C31.8474 26.3786 31.9801 26.28 32.1218 26.1623C32.2613 26.0453 32.4037 25.9071 32.5645 25.7371C33.6003 24.6287 34.5168 22.9588 35.2161 20.9814C35.9096 19.006 36.3661 16.7317 36.3674 14.452C36.3674 13.8813 36.3382 13.3106 36.2765 12.7451C35.9606 9.88611 34.732 6.74947 32.5058 4.26806C31.3922 3.02933 30.0236 1.95935 28.3989 1.20076C26.775 0.441739 24.8968 -0.000702288 22.7964 8.36785e-07C22.6993 8.36785e-07 22.6002 0.0013192 22.4994 0.00334068C22.401 0.0013192 22.3022 8.36785e-07 22.2035 8.36785e-07C20.103 -0.000702288 18.2249 0.441739 16.6009 1.20094C14.1623 2.34035 12.3075 4.17437 11.0099 6.23707C9.71178 8.30171 8.95932 10.5999 8.72339 12.7452C8.66158 13.3113 8.63278 13.8814 8.63278 14.4521C8.63387 16.7317 9.09032 19.0061 9.7838 20.9815C10.4831 22.9576 11.3996 24.6288 12.435 25.7372C12.6502 25.9639 12.8297 26.1333 13.0192 26.2742C13.1153 26.3436 13.214 26.4085 13.3399 26.4654C13.4651 26.5209 13.6235 26.5784 13.8475 26.5804C14.0248 26.583 14.2484 26.5295 14.4244 26.4138C14.557 26.3291 14.6572 26.2206 14.7237 26.1208C14.8242 25.9687 14.8609 25.8391 14.8833 25.7332C14.9046 25.6281 14.909 25.5422 14.9094 25.4647C14.9083 25.3847 14.8973 25.3238 14.8898 25.2564C15.3375 25.8582 15.8478 26.3899 16.4456 26.8377C16.5581 26.9217 16.6792 26.9964 16.7972 27.0744C16.7972 28.1663 16.7972 28.989 16.7972 29.647C16.7975 29.862 16.7707 30.0022 16.7382 30.0894C16.6853 30.2164 16.6442 30.2746 16.449 30.4016C16.343 30.4677 16.1873 30.5405 15.9928 30.6178L14.8177 28.3521L5.39403 29.1226L5.38373 29.124C5.33805 29.1299 4.64932 29.2132 3.76039 29.5935C2.87483 29.9737 1.77522 30.6635 0.991489 31.8857C0.30959 32.9571 0.00373769 34.3724 0 35.8775C0.00100279 37.3206 0.295642 38.8475 0.905432 40.2238C0.953019 40.4222 1.05011 40.5723 1.15194 40.696C1.39179 40.9738 1.70037 41.1808 2.10377 41.4076C2.80718 41.7971 3.80423 42.2012 5.07669 42.6073C8.88621 43.8155 15.1497 44.9987 22.5001 45C28.4725 45 33.7307 44.2164 37.5329 43.2759C39.4355 42.805 40.9713 42.2965 42.0699 41.8124C42.6204 41.5696 43.0608 41.3362 43.4017 41.0935C43.5725 40.9705 43.72 40.8462 43.8479 40.696C43.9494 40.5723 44.0464 40.4222 44.0945 40.2245C44.7044 38.847 44.9989 37.3199 45 35.8776C44.9962 34.3724 44.6903 32.9571 44.0087 31.8857ZM27.7158 25.7948C27.1111 26.2464 26.4098 26.5897 25.5557 26.8264C24.8909 27.0103 24.1292 27.1253 23.2614 27.1677V23.6997C25.2501 23.6759 27.024 23.529 28.4929 23.1845C29.0475 23.0542 29.5583 22.8942 30.0267 22.7024C29.4142 24.0502 28.6793 25.0752 27.7158 25.7948ZM26.9084 30.323C26.0726 30.8302 24.4016 31.6715 22.5001 31.6715C20.5901 31.6715 18.9132 30.8236 18.0812 30.3171C18.1347 30.1028 18.1655 29.8819 18.1659 29.6471C18.1659 29.1392 18.1659 28.5354 18.1659 27.7867C18.455 27.9018 18.7521 28.0083 19.0672 28.0949C20.0711 28.3727 21.2061 28.5077 22.5001 28.5077C23.7938 28.5077 24.9288 28.3728 25.933 28.0949C26.2489 28.0083 26.5442 27.8979 26.834 27.7828C26.834 28.5327 26.834 29.1386 26.834 29.6471C26.8347 29.8845 26.8594 30.1054 26.9084 30.323ZM30.2193 21.1244C30.1397 21.1733 30.0605 21.2223 29.9723 21.2686C29.252 21.6483 28.2458 21.9372 27.0172 22.1211C25.9275 22.2858 24.6561 22.3664 23.2615 22.3836V19.6616H30.2193V21.1244ZM20.6336 1.90204C21.1367 1.83718 21.6577 1.79886 22.2034 1.79886C22.2939 1.79886 22.3858 1.80018 22.4788 1.8029H22.5041H22.5227C22.6125 1.80026 22.7038 1.79886 22.7964 1.79886C23.3421 1.79886 23.8631 1.83727 24.3662 1.90204V8.95579H20.6336V1.90204ZM14.769 14.2624C14.7686 14.0217 14.7872 13.8299 14.8242 13.6983C14.8637 13.5654 14.9038 13.4939 14.9868 13.4086C15.3425 13.0541 15.8319 12.8544 16.3429 12.8544H28.6573C29.168 12.8544 29.6571 13.0534 30.0127 13.4079C30.0958 13.4938 30.1362 13.5653 30.1757 13.6989C30.2127 13.8299 30.2317 14.0216 30.2309 14.2624C30.2309 14.4039 30.2255 14.5613 30.2196 14.7306L30.2193 14.7451V18.3422H14.7806V14.7451L14.7803 14.7306C14.7744 14.5613 14.769 14.4039 14.769 14.2624ZM14.7806 19.6616H21.8926V22.3823C20.1016 22.3472 18.5372 22.1945 17.296 21.9035C16.5802 21.7349 15.9735 21.5213 15.493 21.2686C15.21 21.1205 14.9772 20.9584 14.7806 20.7872V19.6616ZM16.4434 25.0309C15.8199 24.3504 15.3061 23.4807 14.8578 22.4365C15.7814 22.9154 16.9184 23.2248 18.2365 23.4245C19.3344 23.5899 20.5647 23.6732 21.8927 23.6977V27.1717C20.9619 27.136 20.1473 27.0209 19.4442 26.8264C18.1641 26.4693 17.2243 25.8808 16.4434 25.0309ZM35.7961 35.6447V38.0434H43.3788C43.2433 38.6393 43.0598 39.2252 42.8121 39.7702L42.7665 39.8693L42.765 39.8871C42.7058 39.9447 42.5537 40.0717 42.3264 40.1999C41.7975 40.5121 40.8831 40.9036 39.6803 41.2938C37.2726 42.0782 33.6963 42.8737 29.4201 43.3201V40.2926L29.4204 38.0434H27.1911H24.7027H22.4736V42.3414H24.7027V40.2926H27.1911V43.5133C25.6898 43.6191 24.1235 43.6813 22.5001 43.6813C21.4081 43.6813 20.35 43.6463 19.3114 43.5966V38.0434H16.7504H16.346L15.2676 40.5922H16.7504V43.428C13.2862 43.1291 10.2259 42.5967 7.8072 41.9975C5.96535 41.5425 4.48887 41.0491 3.49866 40.6127C3.00437 40.3958 2.63087 40.1907 2.41309 40.0333C2.32083 39.9678 2.26449 39.9156 2.23441 39.8839L2.2334 39.8693L2.18782 39.7695C1.94013 39.2251 1.75671 38.6392 1.62115 38.0433H8.4252V35.6447H1.37456C1.40446 34.4119 1.69117 33.2943 2.15528 32.5794C2.75477 31.6442 3.60185 31.1066 4.31739 30.7991C4.67338 30.6463 4.99273 30.5524 5.21772 30.4981C5.32985 30.4724 5.4191 30.4552 5.47671 30.4445L5.53943 30.4353L5.54873 30.434L14.0088 29.7422L15.1333 31.9107L22.5002 36.2298L22.8559 36.0215L29.8668 31.9113L30.9913 29.7415L39.4514 30.4339C39.4891 30.4378 40.0581 30.5192 40.7499 30.8281C41.4513 31.1409 42.2638 31.6725 42.8448 32.5793C43.3089 33.2948 43.5956 34.4118 43.6254 35.6446L35.7961 35.6447Z" fill="white"/>
</svg>
