<svg width="45" height="45" viewBox="0 0 45 45" fill="none" xmlns="http://www.w3.org/2000/svg">
<path d="M14.5118 43.3094C13.5085 43.4466 12.5319 43.5 11.5455 43.5C7.9453 43.5 5.38812 42.5969 3.87371 41.0839C1.99042 39.2025 1.06463 35.4632 1.69591 30.5101C3.73388 32.7243 5.79487 34.8725 7.94513 37.0207C10.1115 39.1849 12.2778 41.2586 14.5118 43.3094Z" stroke="white" stroke-width="3"/>
<path d="M30.5416 1.6955C35.4994 1.06527 39.2427 1.99026 41.1263 3.87199C43.0096 5.75343 43.9354 9.49268 43.3041 14.4458C41.2662 12.2316 39.2052 10.0834 37.0549 7.93526C34.9058 5.78828 32.7567 3.73038 30.5416 1.6955Z" stroke="white" stroke-width="3"/>
<path d="M33.4034 18.4638L33.4788 18.3884L33.5428 18.3031C33.9909 17.7063 34.2005 16.9879 34.2005 16.3122C34.2005 15.6489 33.9933 14.8688 33.4034 14.2795L30.8632 11.7418C29.6425 10.5223 27.741 10.5223 26.5203 11.7418C25.6232 12.638 25.3849 13.902 25.8055 14.9936L24.8524 15.9458C23.7604 15.5248 22.4957 15.7624 21.5987 16.6586C20.7016 17.5548 20.4633 18.8188 20.8839 19.9104L19.9308 20.8625C18.8388 20.4416 17.5741 20.6792 16.677 21.5754C15.8117 22.4399 15.5594 23.6466 15.9201 24.7107L14.8504 25.7793C13.7584 25.3584 12.4937 25.596 11.5967 26.4922C10.3752 27.7125 10.3752 29.6147 11.5967 30.835L14.1369 33.3727C14.7542 33.9894 15.6202 34.2874 16.3083 34.2874C16.9964 34.2874 17.8625 33.9894 18.4798 33.3727C19.3769 32.4765 19.6152 31.2125 19.1946 30.1209L20.3154 29.0012C20.6826 29.1425 21.0564 29.212 21.3887 29.212C22.0768 29.212 22.9429 28.914 23.5602 28.2973C24.4573 27.4011 24.6955 26.1371 24.275 25.0455L25.237 24.0844C25.6043 24.2257 25.978 24.2952 26.3103 24.2952C26.9984 24.2952 27.8645 23.9972 28.4818 23.3805C29.3789 22.4843 29.6171 21.2203 29.1966 20.1288L30.1586 19.1676C30.5259 19.3089 30.8996 19.3784 31.2319 19.3784C31.92 19.3784 32.7861 19.0805 33.4034 18.4638ZM23.2975 3.57309C26.5086 6.37765 29.597 9.31505 32.7117 12.2784C35.6721 15.3838 38.6028 18.4593 41.273 21.5276C39.5819 26.0702 36.9501 30.1885 33.5058 33.6294C30.0762 37.0556 25.822 39.6884 21.3821 41.384C18.3081 38.713 15.225 35.7705 12.1293 32.6778C9.19342 29.7448 6.25185 26.5322 3.41775 23.4061C5.10916 18.8724 7.73802 14.7619 11.1768 11.3265C14.6055 7.90107 18.8587 5.26873 23.2975 3.57309Z" stroke="white" stroke-width="3"/>
</svg>
