<svg width="45" height="45" viewBox="0 0 45 45" fill="none" xmlns="http://www.w3.org/2000/svg">
<path d="M43.3419 30.3412C41.7254 28.7534 39.1995 28.3703 37.1371 29.1852L25.3111 15.4934L12.3164 2.72974C9.60136 0.0629604 5.07362 0.175435 2.22001 2.97605L2.21543 2.98055C-0.637022 5.7823 -0.750388 10.2318 1.96466 12.8974L15.1013 25.7893L28.8736 37.2569C28.5773 37.9383 28.4166 38.6754 28.4166 39.4381C28.4166 40.9239 29.0063 42.3208 30.0747 43.3702C31.1442 44.4207 32.5664 45 34.0791 45C35.5907 45 37.0129 44.4207 38.0824 43.3702L43.3407 38.2054C44.4103 37.1549 45 35.7579 45 34.2733C45 32.7875 44.4103 31.3905 43.3419 30.3412ZM5.28088 9.64018C4.39571 8.76963 4.50793 7.24335 5.53166 6.23782L5.53624 6.23332C6.09734 5.68332 6.81647 5.40101 7.4978 5.40101C8.0612 5.40101 8.5994 5.59334 9.00018 5.987L21.8643 18.6112L33.5226 32.1205L31.8863 33.7278L18.2755 22.4038L5.28088 9.64018ZM40.0245 34.9481L34.7662 40.1129C34.2692 40.6011 33.889 40.6022 33.3921 40.1118C33.1436 39.8689 33.1069 39.5854 33.1069 39.4381C33.1069 39.2908 33.1436 39.0073 33.3921 38.7633L33.6761 38.4843L38.3664 33.8774L38.6504 33.5984C38.8989 33.3543 39.1874 33.3184 39.3375 33.3184C39.4875 33.3184 39.776 33.3543 40.0245 33.5995C40.273 33.8425 40.3097 34.1259 40.3097 34.2733C40.3097 34.4206 40.273 34.704 40.0245 34.9481Z" fill="white"/>
<path d="M30.8454 16.1244C35.3708 16.1244 39.0535 12.5072 39.0535 8.06219C39.0535 3.61719 35.3708 0 30.8454 0C26.3199 0 22.6372 3.61719 22.6372 8.06219C22.6372 12.5072 26.3199 16.1244 30.8454 16.1244ZM30.8454 4.60696C32.7852 4.60696 34.3631 6.15687 34.3631 8.06219C34.3631 9.96751 32.7852 11.5174 30.8454 11.5174C28.9055 11.5174 27.3276 9.96751 27.3276 8.06219C27.3276 6.15687 28.9055 4.60696 30.8454 4.60696Z" fill="white"/>
</svg>
