<svg xmlns="http://www.w3.org/2000/svg" width="50" height="50" viewBox="0 0 50 50"><g fill="none" fill-rule="evenodd" transform="translate(7)"><path fill="#EB5556" d="M6.23814973,37.8057191 C6.50047673,37.9409401 6.76294587,38.0392037 7.02468842,38.0977701 L7.0930115,38.1081499 L7.08934075,38.1389341 C13.0069334,38.9761178 19.1243097,38.9761178 25.4349225,38.142633 L25.939286,38.0752922 L25.939286,46.0646264 C25.939286,48.2380732 24.1750363,50 21.9987241,50 L10.1770382,50 C8.00072596,50 6.23647629,48.2380732 6.23647629,46.0646264 L6.23814973,37.8057191 Z"/><path fill="#000" d="M25.9384823,38.0770897 L25.939286,46.0646264 C25.939286,48.2380732 24.1750363,50 21.9987241,50 L16.0878811,50 L16.0870774,38.7672744 C19.1538742,38.7690019 22.2700978,38.5606326 25.4349225,38.142633 L25.9384823,38.0770897 Z" opacity=".301"/><path fill="#A63C3D" d="M35.4758192,25.6490202 C34.3752354,31.4593004 32.2340821,34.6433661 29.0523596,35.2012172 C29.237418,34.6607004 29.4145111,34.1196695 29.5836418,33.5781248 C31.651789,29.0132 33.1056044,21.7291815 33.2246164,14.8468698 C35.707337,16.8635692 36.4577725,20.4650229 35.4758192,25.6490202 Z"/><path fill="#EB5556" d="M14.5705337,0 L15.1489047,0.00383973572 C22.0917769,0.106381333 29.0603605,2.23638754 29.4190689,5.82501546 C32.2178781,17.0487952 27.8876555,32.9719401 25.0474394,35.2165806 C18.9986966,36.0154785 13.1508393,36.0154785 7.50386776,35.2165806 C5.53966979,35.5220737 -3.5389586,14.4748932 1.50733208,4.61233087 C3.10089993,1.54235297 8.41906515,0.105901777 13.9931352,0.00561982819 L14.5705337,0 Z"/><path fill="#000" d="M29.4190689,5.82501546 C32.2178781,17.0487952 27.8876555,32.9719401 25.0474394,35.2165806 C21.1411254,35.6097329 18.2353406,35.8093498 16.3300849,35.8154313 C19.5466952,33.1120975 26.4268466,21.8889241 29.4190689,5.82501546 Z" opacity=".295"/></g></svg>