<svg xmlns="http://www.w3.org/2000/svg" width="50" height="50" viewBox="0 0 50 50"><g fill="#97E39E" transform="translate(0 12)"><path d="M6.7119283 5.85286396C7.65058895 5.85286396 9.0081143 6.3666789 10.1183581 7.45073931 10.2796269 7.60790332 10.5362322 7.74402687 10.886536 7.85814597L10.7538483 13.6118665 13.2084284 13.6116671 12.4895596 14.8297392C11.9956691 15.6687205 11.492758 16.5485841 11.1024378 17.3914248 10.5977815 18.4814253 10.269755 20.5752954 10.1183581 23.6730352L2.80084226 23.6730352C2.46776913 21.5821351 2.82607507 19.7733877 3.88080666 18.2497631 4.94058482 16.7201984 6.72202143 15.1282631 9.23016305 13.4680171 8.30159553 13.2571451 7.66825192 13.0581532 7.33517879 12.8710414 6.28801704 12.2889158 5.50579983 11.5285885 5.10207482 11.3503868 4.41851791 11.0536809 4.09263613 11.1515137 3.92944543 11.1329094L3.88080666 11.1216946C3.57044306 10.9969534 3.20961383 11.7157003 2.80084226 13.2749653L0 13.2749653.166536567 6.10828641 3.38119696 6.10828641 3.38119696 7.07057566C4.38293965 6.25975787 5.49066014 5.85286396 6.7119283 5.85286396ZM15.1396879 6.3666789C15.1396879 7.50878987 14.912384 8.98472224 14.4596721 10.7967074L14.3470034 11.232252 13.1924806 11.2323082 13.3049712 6.36526217 15.1396879 6.3666789ZM41.5722404 5.8654927C42.5109011 5.8654927 43.8684264 6.37930764 44.9786702 7.46336806 45.2133353 7.69206025 45.649863 7.87620202 46.2832066 8.01282334L47.559987 6.37930764 50 6.37930764C50 7.63562971 49.7249623 9.29587567 49.1774103 11.3630155 48.8317208 12.663888 46.9998185 15.1646521 45.9627499 17.4040536 45.4580936 18.4940541 45.1300671 20.5879242 44.9786702 23.685664L37.6611544 23.685664C37.3280812 21.5947639 37.6863872 19.7860165 38.7411188 18.2623918 39.8008969 16.7328271 41.5823335 15.1408918 44.0904752 13.4806459 43.1619076 13.2697739 42.528564 13.0707819 42.1954909 12.8836701 41.1483291 12.3015446 40.3661119 11.5412172 39.9623869 11.3630155 39.27883 11.0663097 38.9529482 11.1641424 38.7897575 11.1455382L38.7411188 11.1343233C38.4307552 11.0095821 38.0699259 11.728329 37.6611544 13.287594L35.0387522 13.2836595 35.5515297 12.4018272C35.6516775 12.2268001 35.7446222 12.0621658 35.8343617 11.9007957 36.5169075 10.6734364 36.941575 9.76099802 37.1623742 8.93010357 37.4250422 7.93846983 37.6490321 7.00211474 37.8339974 6.11953708L38.2415091 6.12091516 38.2415091 7.0832044C39.2432517 6.27238661 40.3509722 5.8654927 41.5722404 5.8654927ZM35.3968116 6.11911787C35.2941082 6.58324291 35.1802485 7.06395774 35.0552495 7.56128229L34.9864755 7.82466234 35.0268487 6.12091516 35.3968116 6.11911787Z"/><path d="M13.4445103,0.386546022 L13.1924806,11.2323082 L17.4311621,11.2323082 C18.0497805,8.87257961 18.5958448,7.78485709 19.0655366,7.97363538 C19.2831986,8.05903508 19.7643462,7.82081486 20.9137544,8.31972891 C21.5247356,8.58941218 22.7085115,9.7400608 24.2932437,10.6210262 C24.7973032,10.9041936 25.7557798,11.2053399 27.1610364,11.5244651 C23.3653162,14.0370142 20.669362,16.4461848 19.0655366,18.7609662 C17.4693484,21.0667582 16.9271026,23.8040434 17.4311621,26.9683271 L28.5051948,26.9683271 C28.7343127,22.2803329 29.2307349,19.1115545 29.9944613,17.4619918 C31.563919,14.072972 34.3362458,10.2884168 34.8593984,8.31972891 C35.6880416,5.19140296 36.1042725,2.67885382 36.1042725,0.777586764 L32.4116553,0.777586764 L30.4794275,3.24968341 C29.5209509,3.04292624 28.8603276,2.76425353 28.5051948,2.41816 C26.8249967,0.777586764 24.7705727,0 23.3500416,0 C21.5018238,0 19.8254443,0.615776802 18.3094474,1.84283568 L18.3094474,0.386546022 L13.4483289,0.386546022 L13.4445103,0.386546022 Z"/></g></svg>