<svg xmlns="http://www.w3.org/2000/svg" width="50" height="50" viewBox="0 0 50 50"><g fill="none" fill-rule="evenodd"><path fill="#EB5556" d="M49.4549692,30.2164515 C47.0556982,41.5196384 37.0181964,50 25,50 C12.9818036,50 2.94430177,41.5196384 0.545030772,30.2164515 C6.90108008,33.6889406 15.0598601,35.4094142 25,35.4094142 C34.9102833,35.4094142 43.0498918,33.6992604 49.3986985,30.24787 Z M49.8989123,22.7364825 C49.9658216,23.4820405 50,24.2370288 50,25 C50,25.3680776 49.9920455,25.7342973 49.9762989,26.0984966 C43.9189047,30.1171576 35.6032058,32.1485446 25,32.1485446 C14.3963445,32.1485446 6.08038978,30.1169853 0.0229962935,26.0988678 C0.00795452968,25.7342973 0,25.3680776 0,25 C0,24.2370288 0.0341784225,23.4820405 0.101087717,22.7364825 C6.52030312,26.3738558 14.827309,28.1757726 25,28.1757726 C35.140755,28.1757726 43.4275206,26.3851519 49.8387327,22.7706082 Z M25,0 C36.8369216,0 46.7524491,8.22646621 49.3412082,19.2740244 C43.3418236,23.0213983 35.2370319,24.914903 25,24.914903 C14.7629681,24.914903 6.65817637,23.0213983 0.659404425,19.2748817 C3.24755095,8.22646621 13.1630784,0 25,0 Z"/><path fill="#000" d="M49.4521616,30.2191064 C49.2000217,31.4058569 48.8608472,32.577816 48.434638,33.7247722 C48.3030346,34.0789254 48.163133,34.4306947 48.0149334,34.7797796 L48.0979182,34.5819095 C48.047623,34.7030131 47.9964031,34.8236358 47.9442674,34.9437689 C46.8593295,37.4437232 45.3777761,39.7316513 43.5790046,41.7281555 L43.6967994,41.59723 C43.6199631,41.683626 43.5424244,41.769617 43.4641832,41.8551957 L43.5790046,41.7281555 C43.4864617,41.8308714 43.3930792,41.9328158 43.2988678,42.0339781 L43.4641832,41.8551957 C43.3784589,41.9489593 43.2918912,42.0422279 43.2044804,42.1349918 L43.2988678,42.0339781 C43.2036976,42.13617 43.1076816,42.2375637 43.010831,42.3381481 C42.8376653,42.5179896 42.6618314,42.6952438 42.483393,42.8698471 C40.0836555,45.218008 37.2128621,47.0867048 34.0259678,48.3209823 C28.1230034,50.6013581 21.5292327,50.5590111 15.6523578,48.1936098 C12.6054236,46.9647025 9.85598586,45.1523847 7.54257122,42.8952166 L7.32233047,42.6776695 C20.3886657,46.7839811 31.8611361,42.4491423 38.4427206,34.1424869 C42.5472136,33.283503 46.2002153,31.9866557 49.3986985,30.24787 Z M49.8980168,22.7372795 C49.9247184,23.0328441 49.9461767,23.3287932 49.9623917,23.6249757 C49.9744176,23.8446412 49.9835594,24.0644352 49.9898171,24.2842959 L49.9797137,23.983565 C49.9870571,24.167208 49.9924197,24.3513607 49.9957804,24.5360023 L50,25 L49.9954616,25.4778316 C49.9946641,25.5198126 49.9937614,25.5617921 49.9927536,25.6037695 L49.9762989,26.0984966 C47.4139246,27.7984543 44.4474437,29.1428042 41.0746456,30.1282072 C41.8230491,28.7314374 42.4518161,27.2611444 42.9507507,25.7326814 C45.4460458,24.9391471 47.74263,23.9523589 49.8387327,22.7706082 Z M42.7502537,7.39521207 L42.8686808,7.51538471 C42.9231194,7.57099466 42.9772464,7.62679572 43.0310617,7.68278571 L42.8686943,7.51542899 C42.9578177,7.60649795 43.0462504,7.69824544 43.1339842,7.79066298 C45.1251041,9.88808189 46.7561777,12.3306214 47.9281896,15.0192662 L47.9074475,14.9708369 C47.9520037,15.0726783 47.9958485,15.174756 48.0389817,15.2770625 C48.587378,16.5777895 49.0207556,17.9154995 49.3391144,19.2746789 C47.6863686,20.3076808 45.8713395,21.2002858 43.8955575,21.9510076 C44.7064687,17.3396493 44.3850497,12.3491759 42.6776695,7.32233047 C42.7022958,7.34695834 42.7262993,7.3710609 42.7502537,7.39521207 Z" opacity=".303"/></g></svg>