<svg width="45" height="45" viewBox="0 0 45 45" fill="none" xmlns="http://www.w3.org/2000/svg">
<path d="M44.8997 12.7082L41.5184 6.62182C42.0136 5.70711 41.8924 4.59782 41.1475 3.85298C40.4274 3.13286 39.3229 2.99251 38.3883 3.48774L32.2924 0.100861C31.9805 -0.0729891 31.593 -0.0179633 31.3418 0.234039L25.5537 6.02132C25.3511 6.22388 25.2722 6.51894 25.3479 6.79487L27.3967 14.3055L22.7394 18.962C21.9379 18.8974 21.1102 19.1446 20.5272 19.7283L18.52 21.7356L23.2649 26.4806L25.2722 24.4733C25.7977 23.9478 26.0872 23.2468 26.0872 22.4996C26.0872 22.4102 26.0697 22.3241 26.0617 22.2364L30.6942 17.6031L38.2064 19.6518C38.2758 19.6701 38.346 19.6797 38.4162 19.6797C38.6251 19.6797 38.8285 19.5975 38.98 19.446L44.7673 13.6587C45.0177 13.4083 45.0727 13.02 44.8997 12.7082ZM25.2722 20.5266L24.4747 19.7291C24.4332 19.6877 24.383 19.6581 24.3391 19.6199L28.8489 15.1093C28.8497 15.1086 28.8513 15.1078 28.852 15.107L38.9505 5.00773C39.2862 4.71346 39.728 4.69033 40.0199 4.98141C40.3588 5.31954 40.2488 5.76453 40.0223 6.02132L29.8944 16.1493L25.383 20.6614C25.344 20.6167 25.3137 20.5681 25.2722 20.5266Z" fill="white"/>
<path d="M17.4776 32.2687L12.7327 27.5237L14.4991 25.7573L19.2441 30.5022L17.4776 32.2687Z" fill="white"/>
<path d="M7.43267 32.8237C6.90713 33.3492 6.61765 34.0502 6.61765 34.7982C6.61765 35.4657 6.86008 36.0893 7.28434 36.5901L0.23386 43.6398C-0.0779532 43.9516 -0.0779532 44.4556 0.23386 44.7674C0.389367 44.923 0.592724 45.0011 0.796877 45.0011C1.00103 45.0011 1.20518 44.923 1.36069 44.7674L8.41117 37.7178C8.91199 38.142 9.53561 38.3837 10.2031 38.3837C10.9503 38.3837 11.6505 38.0942 12.1769 37.5686L13.6155 36.13L8.87052 31.385L7.43267 32.8237Z" fill="white"/>
<path d="M20.3717 29.3754L15.6267 24.6304L17.3923 22.8648L22.1373 27.6098L20.3717 29.3754Z" fill="white"/>
<path d="M14.7431 35.0032L9.99811 30.2582L11.605 28.6513L16.35 33.3963L14.7431 35.0032Z" fill="white"/>
</svg>
