<svg xmlns="http://www.w3.org/2000/svg" width="50" height="50" viewBox="0 0 50 50"><g fill="none" fill-rule="evenodd"><ellipse cx="25" cy="24.967" fill="#1A1A1A" rx="25" ry="24.967"/><ellipse cx="24.999" cy="25.029" fill="#6D6570" rx="21.29" ry="21.262"/><ellipse cx="24.999" cy="25.029" stroke="#EB5556" stroke-width="2.565" rx="20.008" ry="19.98"/><path fill="#FAF8F8" d="M25.9724191,29.7901991 L29.0477058,45.907429 C28.3369796,46.0440264 27.6136759,46.1453273 26.8796955,46.2094334 C26.2460146,46.2616096 25.6131231,46.2885628 24.9807351,46.2909582 C23.6024807,46.2898461 22.2551646,46.1578421 20.9502601,45.9068523 L24.0305804,29.7901991 L25.9724191,29.7901991 Z M21.0933586,27.9188807 L22.536426,29.2182244 L14.0341912,43.2572975 C13.6316235,43.0152281 13.2377302,42.7602341 12.8530871,42.4928908 C12.1189425,41.9679443 11.4180607,41.4071431 10.75085,40.8104538 C10.2053054,40.3225709 9.68713818,39.8114918 9.19634836,39.2772164 C8.78084344,38.816475 8.38440974,38.3379452 8.00920259,37.8424913 L21.0933586,27.9188807 Z M29.1449704,27.5640685 L43.0462826,36.3163724 C42.9523914,36.465771 42.8566916,36.6139209 42.7592138,36.7607914 L43.0555514,36.3227228 C42.294938,37.4775467 41.4530033,38.5533597 40.5297476,39.5501618 C40.0550533,40.0626701 39.5596647,40.5498714 39.0435818,41.0117657 C38.5519401,41.4414418 38.0409524,41.8498405 37.5115295,42.2344616 L27.8206396,28.9842394 L29.1449704,27.5640685 Z M4.02938608,21.341029 L20.2217399,24.1436044 L20.2556297,26.0851473 L4.17052164,29.4470419 C4.1557786,29.3773719 4.14137717,29.3075761 4.12731916,29.2376562 L4.16492254,29.4478002 C3.90985403,28.0887229 3.7681686,26.7299909 3.73986626,25.3716041 C3.71464243,24.1609717 3.78696749,22.9618436 3.95684146,21.77422 C3.98043275,21.6293659 4.00418482,21.4849486 4.02938608,21.341029 Z M45.8060456,20.6271674 C46.0791322,21.9614746 46.2298267,23.3078216 46.258129,24.6662084 C46.2864314,26.0245952 46.1822797,27.3446832 45.945674,28.6264725 L29.7764628,25.9060881 L29.7433953,24.0116525 L45.8060456,20.6271674 Z M12.4304518,7.89018783 L22.1718712,21.0791465 L20.8796724,22.4648601 L6.97410782,13.7414004 C7.70455345,12.5918782 8.53140415,11.518716 9.45465991,10.5219139 C10.3779157,9.52511171 11.3698463,8.6478697 12.4304518,7.89018783 Z M35.9700539,6.80949971 C37.1321491,7.51977216 38.2195784,8.32776766 39.2323417,9.23348622 C40.2451051,10.1392048 41.1395251,11.1156743 41.9156017,12.1628949 L28.8986629,22.1330097 L27.4906085,20.8651918 L35.9700539,6.80949971 Z M25.0054933,3.76677676 C25.0091676,3.7667776 25.0128416,3.76677938 25.0165154,3.76678208 L25.4556102,3.77153819 C26.1020973,3.78507839 26.7414979,3.82739736 27.3725795,3.89726405 C27.9094765,3.95857337 28.4389926,4.04246572 28.9617103,4.14841973 L25.9595486,20.2676911 L24.0648244,20.2676911 L20.9612602,4.14893416 C20.9812623,4.14509784 21.0012743,4.14128948 21.0212962,4.13750911 L20.9611867,4.14841973 C22.1087896,3.93434132 23.2636673,3.81032434 24.42582,3.7763688 Z"/><path fill="#68D977" d="M28.1465163,41.1858784 L29.0476182,45.9071932 C29.0203678,45.9124322 28.9930989,45.9176194 28.9658117,45.9227545 L28.5648508,45.9942352 C28.3772984,46.0258184 28.188913,46.0549524 27.9997287,46.0816032 L28.4954036,46.0060284 C28.3109008,46.036458 28.1255978,46.0645185 27.9395269,46.0901777 L27.9997287,46.0816032 C27.8299085,46.1055261 27.6594446,46.1274481 27.4883616,46.1473445 C27.3024127,46.1689697 27.1157325,46.1882021 26.9283527,46.2050099 L26.8423811,46.212547 L26.8796955,46.2094334 C26.2480168,46.2614448 25.6171225,46.2883922 24.9867293,46.2909348 L24.9559745,46.2907762 L24.4441026,46.2840374 C24.2467358,46.2789929 24.0500369,46.2712661 23.8540411,46.260892 L24.3568822,46.281493 C24.1579189,46.2756091 23.9596462,46.266997 23.7620993,46.2556933 L23.8540411,46.260892 C23.6502638,46.250106 23.4472466,46.2364583 23.245029,46.2199885 L23.7620993,46.2556933 C23.5691911,46.2446551 23.3769751,46.2310502 23.185484,46.2149127 L23.245029,46.2199885 C23.0684099,46.2056036 22.8924008,46.1890658 22.7170281,46.1704015 L23.185484,46.2149127 C22.9893194,46.1983814 22.7939157,46.1791924 22.5993079,46.1573822 C22.0700545,46.0980676 21.5466887,46.0193669 21.0299204,45.9220166 L20.9499456,45.9070446 L21.852824,41.1860721 C22.8712891,41.3827209 23.9231856,41.4857115 24.9991684,41.4857115 C26.0755047,41.4857115 27.1277387,41.3826532 28.1465163,41.1858784 Z M16.5244417,39.1454226 L14.0341912,43.2572975 L13.6631703,43.0298259 C13.6455104,43.0187105 13.627868,43.00757 13.6102431,42.9964043 C13.362724,42.8387404 13.1185326,42.6768552 12.8779477,42.5101439 L12.8437701,42.487326 L12.8530871,42.4928908 C12.1189425,41.9679443 11.4180607,41.4071431 10.75085,40.8104538 C10.2111604,40.327807 9.69826361,39.8224593 9.21215976,39.2944104 L9.17150563,39.2497841 L9.19634836,39.2772164 C8.78084344,38.816475 8.38440974,38.3379452 8.00920259,37.8424913 L11.8407423,34.9368831 C13.1146018,36.6215528 14.7053452,38.0538707 16.5244417,39.1454226 Z M38.9741631,33.7530947 L43.0455986,36.3153693 C42.9472567,36.4718691 42.8469303,36.6269988 42.7446545,36.7807233 L43.0555514,36.3227228 C42.294938,37.4775467 41.4530033,38.5533597 40.5297476,39.5501618 C40.1737269,39.9345431 39.8060656,40.3046891 39.4267638,40.6605999 L39.1011999,40.9583742 C38.7680385,41.2527612 38.4255735,41.5368849 38.0743012,41.8102492 L38.4416058,41.5192626 C38.2804982,41.6502264 38.1174744,41.7789406 37.9525636,41.9053251 L38.0743012,41.8102492 C37.9205495,41.9299007 37.7651105,42.0474909 37.6080258,42.1629783 C37.575746,42.1867102 37.5433966,42.2103533 37.5109782,42.2339072 L34.6726122,38.353154 C36.3846282,37.1113457 37.8480297,35.5484803 38.9741631,33.7530947 Z M4.02938608,21.341029 L8.77002524,22.1612667 C8.60616494,23.0925352 8.52071035,24.0507761 8.52071035,25.0289496 C8.52071035,26.2065754 8.64456667,27.355311 8.8799796,28.462873 L4.17052164,29.4470419 C4.1557786,29.3773719 4.14137717,29.3075761 4.12731916,29.2376562 L4.16492254,29.4478002 C3.90985403,28.0887229 3.7681686,26.7299909 3.73986626,25.3716041 C3.71492505,24.1745362 3.78535901,22.9887163 3.95116815,21.8141445 L3.97121153,21.6821212 L3.95684146,21.77422 C3.98043275,21.6293659 4.00418482,21.4849486 4.02938608,21.341029 Z M45.8060456,20.6271674 C46.0791322,21.9614746 46.2298267,23.3078216 46.258129,24.6662084 C46.2864314,26.0245952 46.1822797,27.3446832 45.945674,28.6264725 L41.2391253,27.834474 C41.3959298,26.9227423 41.4776265,25.9853741 41.4776265,25.0289496 C41.4776265,23.858043 41.3551795,22.7156977 41.1223759,21.6139883 L45.8060456,20.6271674 Z M12.4304518,7.89018783 L15.2751613,11.7415674 C13.5899512,12.9736894 12.1478708,14.5178349 11.0342061,16.2888304 L6.97410782,13.7414004 C7.70455345,12.5918782 8.53140415,11.518716 9.45465991,10.5219139 C10.3779157,9.52511171 11.3698463,8.6478697 12.4304518,7.89018783 Z M35.9700539,6.80949971 C37.1321491,7.51977216 38.2195784,8.32776766 39.2323417,9.23348622 C40.2451051,10.1392048 41.1395251,11.1156743 41.9156017,12.1628949 L38.119746,15.0711583 C36.8560197,13.412984 35.2843223,12.0015936 33.4898284,10.9220496 L35.9700539,6.80949971 Z M25.0029745,3.76677618 L25.0439745,3.76677618 L25.4144687,3.77074064 C25.4505861,3.77143073 25.4866814,3.77221065 25.5227545,3.77308017 L26.0642224,3.7929182 C26.2643429,3.80276454 26.4637367,3.81537038 26.6623666,3.83069841 C26.8772571,3.84728125 27.0912534,3.86705022 27.3043083,3.88995807 L27.3972316,3.90015485 L27.3725795,3.89726405 C27.9094765,3.95857337 28.4389926,4.04246572 28.9617103,4.14841973 L28.0835694,8.85999015 C27.084415,8.67104743 26.0533519,8.5721877 24.9991684,8.5721877 C23.9295356,8.5721877 22.8837059,8.6739663 21.8708594,8.8683552 L20.9612602,4.14893416 L20.9969745,4.14177618 L21.5355944,4.04888564 C22.4939509,3.89550403 23.4573595,3.80466508 24.42582,3.7763688 L25.0029745,3.76677618 Z"/><ellipse cx="25" cy="24.967" fill="#68D977" rx="6.164" ry="6.156"/><ellipse cx="24.999" cy="24.967" fill="#EB5556" rx="3.202" ry="3.198"/></g></svg>