<svg width="45" height="45" viewBox="0 0 45 45" fill="none" xmlns="http://www.w3.org/2000/svg">
<path fill-rule="evenodd" clip-rule="evenodd" d="M22.5 45C34.9264 45 45 34.9264 45 22.5C45 10.0736 34.9264 0 22.5 0C10.0736 0 0 10.0736 0 22.5C0 34.9264 10.0736 45 22.5 45ZM22.5 41.7857C33.1512 41.7857 41.7857 33.1512 41.7857 22.5C41.7857 11.8488 33.1512 3.21429 22.5 3.21429C11.8488 3.21429 3.21429 11.8488 3.21429 22.5C3.21429 33.1512 11.8488 41.7857 22.5 41.7857ZM24.1071 27.3214C25.8823 27.3214 27.3214 25.8823 27.3214 24.1071C27.3214 22.3319 25.8823 20.8929 24.1071 20.8929C22.3319 20.8929 20.8929 22.3319 20.8929 24.1071C20.8929 25.8823 22.3319 27.3214 24.1071 27.3214ZM12.0315 29.8409C13.3508 31.0288 15.1424 31.1896 16.0333 30.2002C16.9242 29.2108 16.5769 27.4458 15.2577 26.2579C13.9385 25.0701 12.1468 24.9092 11.2559 25.8987C10.3651 26.8881 10.7123 28.6531 12.0315 29.8409ZM32.9244 18.5909C34.2436 19.7788 36.0353 19.9396 36.9262 18.9502C37.817 17.9608 37.4698 16.1958 36.1506 15.0079C34.8313 13.8201 33.0397 13.6592 32.1488 14.6487C31.2579 15.6381 31.6052 17.4031 32.9244 18.5909ZM18.472 15.3767C17.1528 16.5645 15.3611 16.7253 14.4702 15.7359C13.5793 14.7465 13.9266 12.9815 15.2458 11.7936C16.5651 10.6058 18.3567 10.4449 19.2476 11.4344C20.1385 12.4238 19.7912 14.1888 18.472 15.3767ZM19.4797 5.70878C17.7177 5.92512 16.2406 5.70322 16.1804 5.21315C16.1202 4.72308 17.4998 4.15042 19.2618 3.93408C21.0237 3.71773 22.5009 3.93963 22.561 4.42971C22.6212 4.91978 21.2416 5.49244 19.4797 5.70878ZM16.4987 38.1162C14.8414 37.48 13.3545 37.338 13.1775 37.7989C13.0006 38.2599 14.2006 39.1493 15.8579 39.7855C17.5152 40.4216 19.0022 40.5637 19.1791 40.1027C19.3561 39.6418 18.156 38.7524 16.4987 38.1162ZM33.1361 8.15729C31.7 7.11385 30.771 5.94416 31.0612 5.5447C31.3514 5.14525 32.7509 5.6673 34.1871 6.71074C35.6233 7.75418 36.5522 8.92387 36.262 9.32332C35.9718 9.72277 34.5723 9.20072 33.1361 8.15729ZM37.6991 30.3419C38.3063 28.6737 39.1746 27.4583 39.6386 27.6272C40.1026 27.7961 39.9865 29.2853 39.3793 30.9534C38.7722 32.6216 37.9039 33.837 37.4399 33.6681C36.9759 33.4992 37.092 32.01 37.6991 30.3419ZM3.93734 24.427C3.53801 22.6973 3.60429 21.205 4.08539 21.094C4.56648 20.9829 5.28021 22.2951 5.67955 24.0248C6.07888 25.7545 6.0126 27.2467 5.5315 27.3578C5.05041 27.4688 4.33668 26.1567 3.93734 24.427ZM7.70341 10.8771C8.64412 9.37164 9.74617 8.36334 10.1649 8.62498C10.5836 8.88663 10.1605 10.3192 9.21975 11.8246C8.27904 13.3301 7.17699 14.3384 6.75827 14.0767C6.33954 13.8151 6.7627 12.3826 7.70341 10.8771ZM30.3254 35.6059C31.9343 34.8556 32.8585 33.4323 32.3896 32.4267C31.9207 31.4212 30.2363 31.2142 28.6274 31.9645C27.0185 32.7147 26.0944 34.138 26.5633 35.1436C27.0322 36.1491 28.7166 36.3561 30.3254 35.6059Z" fill="white"/>
</svg>
