<svg width="45" height="45" viewBox="0 0 45 45" fill="none" xmlns="http://www.w3.org/2000/svg">
<path d="M22.3029 9.06101C25.2056 9.06101 27.5587 7.03263 27.5587 4.5305C27.5587 2.02838 25.2056 0 22.3029 0C19.4001 0 17.047 2.02838 17.047 4.5305C17.047 7.03263 19.4001 9.06101 22.3029 9.06101Z" fill="white"/>
<path d="M40.2155 20.2456C42.8579 20.2456 45 18.3991 45 16.1214C45 13.8437 42.8579 11.9973 40.2155 11.9973C37.5732 11.9973 35.4311 13.8437 35.4311 16.1214C35.4311 18.3991 37.5732 20.2456 40.2155 20.2456Z" fill="white"/>
<path d="M33.7857 20.0023L25.0774 16.7637L17.2412 11.0946L21.8328 13.1467C21.7768 12.2085 21.2227 11.3046 20.2434 10.7473L14.9594 7.74035C13.323 6.80912 11.1206 7.19774 10.0403 8.60831L0.77633 20.704C0.254915 21.4619 -0.340939 22.5954 0.237299 23.5705L5.13983 31.4575L2.2325 42.0583C1.88008 43.3433 2.80289 44.6314 4.29361 44.9352C5.78432 45.239 7.27867 44.4434 7.6311 43.1585L10.78 31.6765C10.9357 31.1087 10.8453 30.5115 10.5256 29.9972L8.31605 26.4427L14.6693 31.2259L19.7373 43.415C20.2544 44.6587 21.843 45.3046 23.2841 44.8591C24.7262 44.4136 25.4763 43.0448 24.9594 41.8017L19.6576 29.05C19.5041 28.6807 19.2475 28.3497 18.9104 28.0859L14.0999 24.3235L18.281 18.8643L14.1796 14.2389L22.2828 20.1014C22.4599 20.2296 22.6579 20.3348 22.8702 20.4139L31.8988 23.7715C33.1063 24.2207 34.5076 23.7409 35.0287 22.7C35.5498 21.6593 34.9931 20.4514 33.7857 20.0023Z" fill="white"/>
</svg>
