<?xml version="1.0" encoding="UTF-8"?>
<svg width="37px" height="28px" viewBox="0 0 37 28" version="1.1" xmlns="http://www.w3.org/2000/svg" xmlns:xlink="http://www.w3.org/1999/xlink">
    <title>Navigation / Icons / Category Nav Icon - Home - Default@1x</title>
    <g id="Navigation-/-Icons-/-Category-Nav-Icon---Home---Default" stroke="none" stroke-width="1" fill="none" fill-rule="evenodd">
        <path d="M18.6293669,2.13475507 C18.8440672,1.95508164 19.1559328,1.95508164 19.3706331,2.13475507 L29.7916857,10.8556853 C29.9236814,10.9661468 30,11.1297792 30,11.3023256 L30,26.4186047 C30,26.7397004 29.7407964,27 29.4210526,27 L22.2847274,27 C21.9649836,27 21.70578,26.7397004 21.70578,26.4186047 L21.7048421,18.95 L16.5788421,18.95 L16.5796376,26.4186047 C16.5796376,26.7040231 16.3748348,26.9414051 16.1047567,26.9906329 L16.0006902,27 L8.57894737,27 C8.25920357,27 8,26.7397004 8,26.4186047 L8,11.3023256 C8,11.1297792 8.07631858,10.9661468 8.20831429,10.8556853 L18.6293669,2.13475507 Z" id="Home-Inactive" fill="#BBBBBB" fill-rule="nonzero"></path>
    </g>
</svg>