<svg xmlns="http://www.w3.org/2000/svg" width="50" height="50" viewBox="0 0 50 50"><g fill="none" fill-rule="evenodd" transform="translate(.002 9)"><path fill="#BEE3FC" d="M49.997313,0.00174117858 L49.9953928,17.3480961 C49.9953928,20.1322636 39.2150063,22.3990394 25.7637164,22.4820392 L24.9995246,22.4843939 C11.1946878,22.4843939 0.00365644684,20.184795 0.00365644684,17.3480961 L0.00205198154,0.00194566617 C3.99554246,2.58839634 13.5373834,3.97100903 24.9995246,3.97100903 C36.4619679,3.97100903 46.0040097,2.58832346 49.997313,0.00174117858 Z" transform="translate(-.002 9.234)"/><path fill="#000" d="M49.9947114,9.23500061 L49.9921115,26.5817958 C49.9921115,28.4130874 45.3281105,30.0205359 38.3078099,30.9299412 C38.3078099,26.5817958 38.2929906,19.0268723 38.2929906,12.4690312 C43.3203994,11.8426276 47.3080413,10.8238454 49.6588731,9.44210447 L49.9947114,9.23500061 Z" opacity=".303"/><ellipse cx="24.999" cy="5.136" fill="#BEE3FC" stroke="#282828" stroke-width="1.5" rx="25.746" ry="5.886"/></g></svg>