<svg width="47" height="45" viewBox="0 0 47 45" fill="none" xmlns="http://www.w3.org/2000/svg">
<path d="M45.9644 30.4181C45.1459 29.0583 43.9975 28.2917 43.0724 27.8691C42.1441 27.4459 41.4252 27.3534 41.377 27.3468L41.3541 27.3436L31.5234 26.4885L30.3001 29.0003C30.1978 28.9567 30.0964 28.9131 30.0171 28.874C29.8578 28.7959 29.7461 28.7261 29.6763 28.6708C29.571 28.5828 29.5533 28.5517 29.5183 28.4676C29.486 28.3843 29.4555 28.2149 29.4562 27.9284C29.4562 27.3579 29.4562 26.6793 29.4562 25.834C29.9594 25.481 30.4365 25.0915 30.8609 24.6566C35.3125 20.0875 34.9541 13.7711 34.9541 13.594C34.9541 13.4155 34.9541 10.4993 34.9541 9.78747C34.9541 9.07564 34.5017 8.36447 33.798 8.36447C33.5664 8.36447 32.5258 5.75429 32.5258 5.75429C32.5258 5.75429 32.6425 6.05071 32.4103 4.62771C32.1806 3.20282 29.0595 0.652473 28.5387 0.356246C28.019 0.0592643 27.5565 0.296981 27.5565 0.534038C27.5565 0.771096 27.5565 1.48227 27.5565 1.48227H26.054V0.942387C26.054 0.42267 25.6435 0 25.1359 0H23.5115H21.8862C21.3798 0 20.968 0.42267 20.968 0.942387V1.48227H19.4662C19.4662 1.48227 19.4662 0.771096 19.4662 0.534038C19.4662 0.296981 19.003 0.0592643 18.4834 0.356246C17.9637 0.652473 14.842 3.20282 14.611 4.62771C14.38 6.05071 14.4955 5.75429 14.4955 5.75429C14.4955 5.75429 13.4549 8.36447 13.224 8.36447C12.521 8.36447 12.0679 9.07564 12.0679 9.78747C12.0679 10.4993 12.0679 13.4155 12.0679 13.594C12.0679 13.7711 11.7088 20.0874 16.161 24.6566C16.5791 25.0851 17.0487 25.468 17.5436 25.8171C17.5436 26.6709 17.5436 27.354 17.5436 27.9284C17.5436 28.1673 17.5157 28.323 17.4814 28.4208C17.4269 28.5614 17.3837 28.6259 17.1794 28.7672C17.069 28.8408 16.9066 28.9216 16.7035 29.0081L15.4758 26.4879L5.63356 27.3449L5.62282 27.3468C5.57463 27.3534 4.85577 27.4458 3.92743 27.8691C3.0023 28.2918 1.85393 29.0583 1.03547 30.4181C0.323675 31.6092 0.00321288 33.1827 0 34.8563C0.000642577 36.4609 0.308345 38.1587 0.945414 39.6891C0.994984 39.91 1.09642 40.0766 1.203 40.2141C1.45305 40.5233 1.77526 40.7532 2.1966 41.006C2.93125 41.4384 3.97314 41.8884 5.30181 42.339C9.28129 43.6832 15.8229 44.9987 23.5002 45C29.7379 45 35.2301 44.1287 39.2014 43.0827C41.188 42.5591 42.792 41.9938 43.9398 41.4559C44.5153 41.1856 44.9747 40.9257 45.3312 40.6562C45.5089 40.5195 45.6637 40.3813 45.797 40.2133C45.9029 40.0765 46.0045 39.9099 46.0546 39.689C46.3337 39.0176 46.5431 38.313 46.6967 37.5986H46.769C46.769 37.5986 46.8249 37.2313 46.8604 36.6458C46.9436 36.0453 47 35.4442 47 34.8562C46.9961 33.1827 46.6762 31.6092 45.9644 30.4181ZM30.0418 10.0258H31.4283C31.6834 10.0258 31.8907 10.2375 31.8907 10.4993C31.8907 10.761 31.6833 10.9741 31.4283 10.9741H30.0418C29.7856 10.9741 29.5793 10.761 29.5793 10.4993C29.5793 10.2375 29.7856 10.0258 30.0418 10.0258ZM26.1696 4.21154C26.1696 3.94979 26.3771 3.73742 26.6315 3.73742C26.8872 3.73742 27.0947 3.94979 27.0947 4.21154V5.6352C27.0947 5.89704 26.8873 6.10997 26.6315 6.10997C26.377 6.10997 26.1696 5.89704 26.1696 5.6352V4.21154ZM19.9281 4.21154C19.9281 3.94979 20.1351 3.73742 20.3906 3.73742C20.6451 3.73742 20.8525 3.94979 20.8525 4.21154V5.6352C20.8525 5.89704 20.6451 6.10997 20.3906 6.10997C20.135 6.10997 19.9281 5.89704 19.9281 5.6352V4.21154ZM15.5932 10.0258H16.9803C17.2366 10.0258 17.4428 10.2375 17.4428 10.4993C17.4428 10.761 17.2367 10.9741 16.9803 10.9741H15.5932C15.3381 10.9741 15.1313 10.761 15.1313 10.4993C15.1314 10.2375 15.3381 10.0258 15.5932 10.0258ZM15.2341 18.3297V13.5054C15.2341 13.312 15.3864 13.1556 15.5741 13.1556H31.4485C31.6351 13.1556 31.7873 13.3113 31.7879 13.5054V18.3297C31.7848 18.4776 31.7461 18.6405 31.5576 18.8651C31.2772 19.1979 30.6071 19.6302 29.3242 19.9513C28.0444 20.2757 26.1664 20.4977 23.5116 20.4971C19.9712 20.4997 17.8126 20.0993 16.6109 19.601C16.0094 19.3543 15.6541 19.0866 15.4651 18.8652C15.276 18.6405 15.2367 18.4776 15.2341 18.3297ZM16.151 20.7023C16.5184 20.8546 16.9353 20.994 17.4181 21.117C18.8336 21.4739 20.7923 21.6973 23.5117 21.6973C27.1372 21.6954 29.4094 21.304 30.8471 20.7152C30.8553 20.7119 30.8623 20.708 30.8706 20.7041C30.3921 22.7301 27.4532 26.5542 23.5117 26.5542C19.567 26.5543 16.6281 22.7276 16.151 20.7023ZM28.1041 28.68C27.231 29.244 25.4863 30.1791 23.5002 30.1791C21.5054 30.1791 19.7542 29.2367 18.885 28.6735C18.9409 28.4351 18.9725 28.1896 18.9732 27.9285C18.9732 27.5625 18.9732 27.1483 18.9732 26.6794C20.3151 27.3749 21.7414 27.8373 22.9908 28.0672H24.0313C25.273 27.8386 26.6917 27.3796 28.0266 26.6911C28.0266 27.1547 28.0266 27.5657 28.0266 27.9285C28.0274 28.1929 28.0534 28.4377 28.1041 28.68ZM14.6314 28.0346L15.8058 30.4455L23.5002 35.2484L23.8715 35.0165L31.1941 30.4461L32.3685 28.0339L33.8747 28.1648L31.6744 32.366L23.5002 37.4678L15.3255 32.366L13.1257 28.1654L14.6314 28.0346ZM44.7144 39.1845L44.6675 39.2958L44.6655 39.3147C44.604 39.3791 44.4454 39.5198 44.2081 39.6631C43.6555 40.0095 42.7005 40.4452 41.4443 40.8789C37.6653 42.1892 31.1414 43.5346 23.5002 43.5334C17.3933 43.5334 12.0045 42.677 8.15448 41.6617C6.23079 41.1557 4.68824 40.6074 3.65406 40.1215C3.13825 39.8806 2.74738 39.652 2.52019 39.4774C2.4238 39.4045 2.36542 39.3465 2.33366 39.3113L2.33246 39.2951L2.28482 39.1837C2.07038 38.6816 1.90919 38.1443 1.77535 37.5986H8.55674V28.5632L11.5745 28.3008L14.2507 33.4118L23.5003 39.185L32.7499 33.4118L35.4262 28.3002L38.9724 28.6088V37.5986H45.2247C45.0901 38.1444 44.9295 38.6817 44.7144 39.1845Z" fill="white"/>
</svg>
