<?xml version="1.0" encoding="UTF-8"?>
<svg width="37px" height="28px" viewBox="0 0 37 28" version="1.1" xmlns="http://www.w3.org/2000/svg" xmlns:xlink="http://www.w3.org/1999/xlink">
    <title>Navigation / Icons / Category Nav Icon - Jackpots - Default@1x</title>
    <g id="Navigation-/-Icons-/-Category-Nav-Icon---Jackpots---Default" stroke="none" stroke-width="1" fill="none" fill-rule="evenodd">
        <path d="M28,25 L28,26 L26,26 L26,25 L28,25 Z M31,25 L31,26 L29,26 L29,25 L31,25 Z M15.0513183,2.20700178 C15.3546898,2.31245362 15.5931431,2.5509069 15.6985949,2.85427836 L17.9931784,9.45550177 C18.1374228,9.8704744 18.5246879,10.1518389 18.9639243,10.1607899 L25.9511261,10.3031783 C26.5311123,10.3149975 26.9917027,10.7947506 26.9798835,11.3747368 C26.9733397,11.6958467 26.8202433,11.9963153 26.5643063,12.1903529 L20.9952351,16.4125218 C20.6451466,16.6779399 20.4972245,17.1331973 20.6244432,17.5537019 L22.6481879,24.2429262 C22.8161727,24.7981782 22.5022306,25.3844775 21.9469786,25.5524624 C21.6395629,25.6454673 21.3064908,25.5927139 21.0428612,25.4092642 L15.3064024,21.4174847 C14.9457914,21.1665495 14.4671055,21.1665495 14.1064946,21.4174847 L8.37003575,25.4092642 C7.89386987,25.7406096 7.23925265,25.6232094 6.90790725,25.1470436 C6.72445762,24.883414 6.67170419,24.5503419 6.76470913,24.2429262 L8.78845381,17.5537019 C8.91567246,17.1331973 8.76775037,16.6779399 8.41766191,16.4125218 L2.84859068,12.1903529 C2.38631914,11.8398836 2.29568551,11.181027 2.64615482,10.7187554 C2.84019241,10.4628184 3.14066107,10.309722 3.46177089,10.3031783 L10.4489727,10.1607899 C10.8882091,10.1518389 11.2754742,9.8704744 11.4197185,9.45550177 L13.7143021,2.85427836 C13.9047684,2.30633103 14.503371,2.01653543 15.0513183,2.20700178 Z M27,19 L27,20 L25,20 L25,19 L27,19 Z M30,19 L30,20 L28,20 L28,19 L30,19 Z M31,15 L31,16 L29,16 L29,15 L31,15 Z M32,10 L32,11 L30,11 L30,10 L32,10 Z M35,10 L35,11 L33,11 L33,10 L35,10 Z M23,6 L23,7 L21,7 L21,6 L23,6 Z M25,6 L25,7 L24,7 L24,6 L25,6 Z M21,2 L21,3 L19,3 L19,2 L21,2 Z M24,2 L24,3 L22,3 L22,2 L24,2 Z M27,2 L27,3 L25,3 L25,2 L27,2 Z" id="Jackpots-Inactive" fill="#BBBBBB" fill-rule="nonzero" transform="translate(18.7164, 14) scale(-1, 1) translate(-18.7164, -14)"></path>
    </g>
</svg>