<svg width="51" height="51" viewBox="0 0 51 51" fill="none" xmlns="http://www.w3.org/2000/svg">
<path d="M34.2082 15.7572L34.2084 15.7569L34.2082 15.7572ZM34.2082 15.7572C34.4006 15.5247 34.6512 15.4484 34.8338 15.4484M34.2082 15.7572L34.8338 15.4484M34.8338 15.4484C34.9986 15.4484 35.1053 15.5035 35.1377 15.5242L34.8338 15.4484ZM22.6397 28.8556L22.6397 28.8556L21.3928 32.7953C21.157 33.5401 21.2888 34.3748 21.8365 35.0075C22.3597 35.6119 23.1069 35.8593 23.7847 35.8593H40.9616C41.6398 35.8593 42.3866 35.6116 42.9095 35.0078L42.9101 35.0071C43.4571 34.3748 43.5895 33.5406 43.3536 32.7954C43.3536 32.7953 43.3535 32.7952 43.3535 32.7951L42.1065 28.8555L42.1065 28.8553C41.7094 27.6016 40.4284 26.8623 39.2588 26.8623H37.2907L36.9138 24.8558L40.2293 22.9153L40.2295 22.9152C41.2994 22.2888 42.2002 21.3077 42.8178 20.2344C46.4919 19.5839 49.5 16.6861 49.5 12.9314C49.5 10.7437 49.1688 8.84654 48.1327 7.47866C47.4166 6.53323 46.4707 5.97166 45.3845 5.68356L45.6796 4.67139C45.6796 4.67132 45.6796 4.67126 45.6796 4.6712C45.9107 3.87879 45.74 3.02243 45.1752 2.38357L45.1748 2.38316C44.6311 1.7686 43.8581 1.5 43.1332 1.5H21.1554C20.4306 1.5 19.6574 1.76854 19.1136 2.38349L19.1136 2.38357C18.5487 3.02249 18.3781 3.87877 18.6091 4.67123C18.6091 4.67124 18.6091 4.67124 18.6091 4.67125L18.9031 5.6795C17.8133 5.96554 16.8638 6.52571 16.1446 7.47162C15.1041 8.84017 14.7718 10.7404 14.7718 12.9318C14.7717 16.6866 17.7799 19.5843 21.4542 20.2347C22.0717 21.3079 22.9724 22.2889 24.0424 22.9153C24.0424 22.9153 24.0424 22.9153 24.0425 22.9153L27.3738 24.8654L26.9988 26.8623H25.4872C24.3176 26.8623 23.0366 27.6015 22.6397 28.8556ZM30.959 13.0636L30.791 12.7685H30.9143L31.2063 12.638C31.3496 12.574 31.4861 12.4869 31.6059 12.3818L31.8912 12.1313L32.023 11.7753L32.1357 11.4706L32.2484 11.7751L32.3802 12.1313L32.6656 12.3818C32.7865 12.488 32.9231 12.5746 33.0651 12.638L33.3571 12.7685H33.4805L33.3126 13.0635C33.2355 13.1987 33.1674 13.3661 33.1323 13.5572L33.0579 13.9623L33.1716 14.2696L32.9564 14.1324L32.6746 13.9525L32.3431 13.9094C32.2078 13.8918 32.0642 13.8918 31.929 13.9094L31.5976 13.9525L31.3159 14.1322L31.0998 14.27L31.2128 13.9647L31.1399 13.5615C31.1066 13.3771 31.0413 13.2081 30.959 13.0636ZM31.4151 9.52304C31.4151 9.52299 31.4151 9.52295 31.4151 9.5229L31.4151 9.52304Z" stroke="white" stroke-width="3"/>
<path d="M37.6029 40.0484C39.5889 39.5578 41.5709 38.8623 43.2251 38.0607C43.7393 37.8115 44.2987 37.67 44.8805 37.67C46.0648 37.67 47.2371 38.2812 47.7721 39.4483C48.537 41.1166 47.5981 42.7285 46.4385 43.7068L46.4385 43.7069C45.9594 44.111 45.1358 44.6288 44.2299 45.1506C43.2913 45.6913 42.1639 46.293 41.0085 46.8691C38.7663 47.9871 36.1988 49.1207 34.7217 49.4223L37.6029 40.0484ZM37.6029 40.0484C37.6466 39.8398 37.6668 39.6238 37.6621 39.4023L37.6621 39.4022C37.6318 37.9952 36.5867 36.9154 35.2998 36.659L37.6029 40.0484ZM33.4045 36.145L33.4047 36.1451C34.3957 36.4249 35.0615 36.6114 35.2994 36.6589L33.4045 36.145ZM33.4045 36.145L33.3918 36.1414M33.4045 36.145L33.3918 36.1414M14.0325 36.8514L14.0325 36.8509C14.0592 36.4938 14.1597 36.1205 14.3809 35.7777C14.6039 35.4322 14.8951 35.2021 15.175 35.0528C15.6202 34.8155 16.1209 34.7533 16.3248 34.7279C16.3405 34.726 16.3544 34.7243 16.3664 34.7227L16.3668 34.7226L14.0325 36.8514ZM14.0325 36.8514C13.9537 37.9108 13.8398 39.478 13.7219 41.0999C13.5831 43.0109 13.4386 44.9978 13.3392 46.3265L13.3392 46.3265M14.0325 36.8514L13.3392 46.3265M13.3392 46.3265C13.3214 46.5649 13.3581 46.8312 13.4248 47.0646C13.4976 47.3194 13.6579 47.7181 14.0215 48.0593L14.0217 48.0595M13.3392 46.3265L14.0217 48.0595M14.0217 48.0595C14.4129 48.4265 14.9143 48.6102 15.4224 48.6102C16.0395 48.6102 16.5358 48.3469 16.8879 48.0836L16.8886 48.0831M14.0217 48.0595L16.8886 48.0831M16.8886 48.0831C17.2999 47.775 17.6201 47.6025 17.8509 47.5171C18.0425 47.4461 18.1285 47.451 18.1382 47.4519C18.8384 47.5913 21.9111 48.1005 25.1818 48.5728C28.4167 49.0399 32.0378 49.5002 33.7455 49.5003H33.7456M16.8886 48.0831L33.7456 49.5003M33.7456 49.5003H33.746M33.7456 49.5003H33.746M33.3918 36.1414C32.0502 35.7628 30.2284 35.2486 28.4517 34.8214M33.3918 36.1414L28.4517 34.8214M28.4517 34.8214C26.7065 34.4019 24.8689 34.0317 23.5496 33.9972M28.4517 34.8214L23.5496 33.9972M23.5496 33.9972C21.9532 33.9536 18.3471 34.4408 16.5264 34.7011L23.5496 33.9972ZM33.746 49.5003C34.0743 49.5003 34.415 49.4849 34.7212 49.4224L33.746 49.5003ZM16.5256 34.7012C16.4742 34.7085 16.4238 34.7151 16.3668 34.7226L16.5256 34.7012Z" stroke="white" stroke-width="3"/>
<path d="M12.3642 34.5948L12.3645 34.5948C13.0236 34.6234 13.6773 34.8806 14.1726 35.374L12.3642 34.5948ZM12.3642 34.5948L5.72856 34.3077L5.72856 34.3077M12.3642 34.5948L5.72856 34.3077M5.72856 34.3077L5.72366 34.3075M5.72856 34.3077L5.72366 34.3075M5.72366 34.3075C5.07169 34.2815 4.45273 34.4784 3.9592 34.7983C3.47254 35.1136 3.00288 35.6199 2.80238 36.3065L2.799 36.3179L2.76455 36.4347M5.72366 34.3075L2.76455 36.4347M2.76455 36.4347L2.74939 36.5556M2.76455 36.4347L2.74939 36.5556M2.74939 36.5556L1.55268 46.0947C1.40571 46.7814 1.56656 47.5103 2.04515 48.0739L2.04529 48.0741M2.74939 36.5556L2.04529 48.0741M2.04529 48.0741C2.5444 48.6617 3.25963 48.9246 3.92179 48.9471L3.93043 48.9474M2.04529 48.0741L3.93043 48.9474M3.93043 48.9474L3.93906 48.9476M3.93043 48.9474L3.93906 48.9476M3.93906 48.9476L3.94897 48.9478L3.96584 48.9482M3.93906 48.9476L3.96584 48.9482M3.96584 48.9482L3.98272 48.9482M3.96584 48.9482L3.98272 48.9482M3.98272 48.9482L11.3062 48.9473C11.3289 48.9478 11.347 48.948 11.3546 48.9481L11.3638 48.9482M3.98272 48.9482H11.3638M11.3638 48.9482H11.3729M11.3638 48.9482H11.3729M11.3729 48.9482C12.6199 48.9482 13.9571 48.0735 14.0874 46.5877L14.0875 46.5868M11.3729 48.9482L14.0875 46.5868M14.0875 46.5868L14.8949 37.3203M14.0875 46.5868L14.8949 37.3203M14.8949 37.3203C14.8949 37.3203 14.8949 37.3202 14.8949 37.3202M14.8949 37.3203L14.8949 37.3202M14.8949 37.3202C14.9601 36.572 14.6759 35.8752 14.1729 35.3743L14.8949 37.3202Z" stroke="white" stroke-width="3"/>
</svg>
