<svg width="45" height="45" viewBox="0 0 45 45" fill="none" xmlns="http://www.w3.org/2000/svg">
<path d="M35 17.8264L36.0534 17.211C39.1667 15.3922 40.7235 14.4828 41.8618 15.3047C43 16.1266 43 18.1602 43 22.2273V22.7728C43 26.8399 43 28.8733 41.8618 29.6953C40.7235 30.5173 39.1667 29.6078 36.0534 27.789L35 27.1736V17.8264Z" stroke="white" stroke-width="4"/>
<path d="M25.4263 22.0003C26.5245 23.0986 26.5245 24.8794 25.4263 25.9778C24.3279 27.076 22.547 27.076 21.4486 25.9778C20.3505 24.8794 20.3505 23.0986 21.4486 22.0003C22.547 20.9019 24.3279 20.9019 25.4263 22.0003Z" stroke="white" stroke-width="2.32364"/>
<path d="M30.7661 5.54153L30.7663 5.54169C31.2422 5.99744 31.6744 6.50258 32.0583 7.04833L30.7661 5.54153ZM30.7661 5.54153C29.3161 4.15321 27.5683 3.54818 25.5296 3.26702C23.5924 2.99987 21.1659 2.99993 18.206 3L18.0625 3L17.919 3C14.9591 2.99993 12.5326 2.99987 10.5954 3.26702C8.5567 3.54817 6.80894 4.1532 5.35891 5.54155C4.88281 5.99739 4.45052 6.5026 4.06661 7.04837C2.93046 8.6635 2.4509 10.5624 2.22299 12.8118C1.99995 15.0132 1.99997 17.7936 2 21.2945L2 21.4062V23.5938L2 23.7055C1.99997 27.2065 1.99995 29.9868 2.22299 32.1882C2.4509 34.4377 2.93046 36.3365 4.06658 37.9517L4.06671 37.9518M30.7661 5.54153L4.06671 37.9518M4.06671 37.9518C4.45056 38.4974 4.88279 39.0025 5.35887 39.4583L4.06671 37.9518Z" stroke="white" stroke-width="4"/>
</svg>
