<svg xmlns="http://www.w3.org/2000/svg" width="50" height="50" viewBox="0 0 50 50"><g fill="none" fill-rule="evenodd" transform="translate(0 9.42)"><path fill="#7AC487" d="M44.5554981,2.77605525 L44.8349442,3.36723521 C47.4066616,8.85031976 48.9982707,13.3454919 49.6097714,16.8527517 C50.2076524,20.2818952 50.1184665,23.6568163 49.3419148,26.977445 C48.9155418,28.7993644 47.4832024,30.2159975 45.6566928,30.6222571 L44.9601886,30.7769178 C43.0357784,31.204637 41.121511,30.0191863 40.6468754,28.1058072 L40.5108294,27.559625 C39.6607807,24.1620252 38.9001034,21.399559 38.2287972,19.2722262 C38.8835238,18.3291107 39.2667064,17.1838786 39.2667064,15.9492672 C39.2667064,12.7202836 36.645647,10.1026752 33.4124063,10.1026752 C30.1791657,10.1026752 27.5581063,12.7202836 27.5581063,15.9492672 C27.5581063,16.2567232 27.5818699,16.5586363 27.6276627,16.8532744 L20.9826082,16.8532744 C21.028401,16.5586363 21.0521646,16.2567232 21.0521646,15.9492672 C21.0521646,12.7202836 18.4311052,10.1026752 15.1978645,10.1026752 C11.9646239,10.1026752 9.34356454,12.7202836 9.34356454,15.9492672 C9.34356454,17.7401676 10.1498486,19.3429983 11.4196722,20.415466 C10.8384249,22.3579278 10.1945471,24.7400758 9.48912143,27.559625 L9.35307538,28.1058072 C8.95754573,29.7002898 7.56227178,30.7892665 5.99450405,30.8604449 L5.8055969,30.8640681 C5.55275792,30.8622977 5.2963502,30.8339471 5.03976217,30.7769178 L4.34325798,30.6222571 C2.51674837,30.2159975 1.08440901,28.7993644 0.658035984,26.977445 C-0.118515712,23.6568163 -0.207701565,20.2818952 0.390179379,16.8527517 C1.00168013,13.3454919 2.59328921,8.85031976 5.16500662,3.36723521 L5.44445272,2.77605525 C6.26961591,1.04497644 7.98969709,0.0176512393 9.79688283,0.000225318387 L10.0141115,0.00300131777 C10.5942272,0.0234351914 11.1799536,0.148536724 11.7448203,0.388337699 L14.7928567,1.68044944 C15.9291376,2.16216746 16.787559,3.02463758 17.282522,4.05626923 L32.7174288,4.05626923 C33.2123918,3.02463758 34.0708133,2.16216746 35.2070941,1.68044944 L38.2551305,0.388337699 C40.6558139,-0.630816442 43.4332762,0.421788074 44.5554981,2.77605525 Z M15.1978645,12.2080776 C17.2667905,12.2080776 18.9439864,13.8830653 18.9439864,15.9492672 C18.9439864,16.2610251 18.9058032,16.5638765 18.8338523,16.8534116 L12.5979235,16.8527623 C12.4530795,17.2368922 12.302911,17.6588627 12.1474178,18.118674 C11.7089984,17.507689 11.4517427,16.7584812 11.4517427,15.9492672 C11.4517427,13.8830653 13.1289386,12.2080776 15.1978645,12.2080776 Z M33.4124063,12.2080776 C35.4813323,12.2080776 37.1585282,13.8830653 37.1585282,15.9492672 C37.1585282,16.2610251 37.120345,16.5638765 37.0483941,16.8534116 L29.7764186,16.8534116 C29.7044677,16.5638765 29.6662845,16.2610251 29.6662845,15.9492672 C29.6662845,13.8830653 31.3434804,12.2080776 33.4124063,12.2080776 Z M35.5362393,4.02682127 C35.1822862,4.34042602 35.1496652,4.88015372 35.462439,5.23316769 C35.7757421,5.58677892 36.3162525,5.61980198 36.6702731,5.30696162 L36.8334478,5.17110019 C38.3329406,3.99531391 40.6715788,4.0648439 42.1749137,5.32206375 C42.537463,5.62525913 43.076853,5.57752281 43.3803912,5.21551867 C43.6836631,4.85287904 43.6356479,4.314316 43.2738575,4.01175526 L43.0708811,3.84970059 C40.8733057,2.17541044 37.6076557,2.19635549 35.5362393,4.02682127 Z M6.69580031,4.02682127 C6.68941508,4.03213654 6.68311215,4.03754992 6.67689376,4.04305947 C6.34266561,4.33918892 6.31178051,4.85019474 6.60790997,5.18442289 L6.63609011,5.21622856 C6.9442103,5.56399013 7.47284407,5.60412639 7.82993688,5.3068708 C9.31812326,3.99179274 11.7754607,4.0182802 13.3344747,5.32206375 L13.4286743,5.39067051 C13.7852845,5.61512067 14.2617088,5.5473558 14.5399522,5.21551867 L14.6090211,5.12077798 C14.8330425,4.76475744 14.7650597,4.2891026 14.4334185,4.01175526 L14.2304421,3.84970059 C12.0328667,2.17541044 8.76721669,2.19635549 6.69580031,4.02682127 Z"/><path fill="#000" d="M40.5026714,27.527399 L40.6478875,28.1098225 C41.12186,30.0206457 43.0360884,31.2045681 44.9601886,30.7769178 C47.2799255,30.2613335 49.0743181,28.4236971 49.532134,26.0947915 C50.12887,23.0591622 50.1547516,19.9784828 49.6097714,16.8527517 C49.0695069,13.7540667 47.7641866,9.88423424 45.6938105,5.24325434 L45.40681,4.60558394 C50.0646536,24.0836083 42.943656,27.3454213 40.5026714,27.527399 Z" opacity=".302"/><path fill="#EBEBEB" d="M15.1978645 12.2080776C17.2667905 12.2080776 18.9439864 13.8830653 18.9439864 15.9492672 18.9439864 18.0154692 17.2667905 19.6904568 15.1978645 19.6904568 13.1289386 19.6904568 11.4517427 18.0154692 11.4517427 15.9492672 11.4517427 13.8830653 13.1289386 12.2080776 15.1978645 12.2080776ZM33.4124063 12.2080776C35.4813323 12.2080776 37.1585282 13.8830653 37.1585282 15.9492672 37.1585282 18.0154692 35.4813323 19.6904568 33.4124063 19.6904568 31.3434804 19.6904568 29.6662845 18.0154692 29.6662845 15.9492672 29.6662845 13.8830653 31.3434804 12.2080776 33.4124063 12.2080776Z"/></g></svg>