<svg width="59" height="40" viewBox="0 0 59 40" fill="none" xmlns="http://www.w3.org/2000/svg">
<path d="M53.24 5.94V4.18C53.24 1.87 51.183 0 48.642 0C46.101 0 44.044 1.87 44.044 4.18V5.94H15.125V4.18C15.125 1.87 13.068 0 10.527 0C7.986 0 6.05 1.87 6.05 4.07V5.83H5.324C2.42 5.83 0 7.7 0 9.9V33.55C0 35.75 2.42 37.62 5.324 37.62H10.406V38.39C10.406 38.94 10.89 39.49 11.616 39.49C12.221 39.49 12.826 39.05 12.826 38.39V37.73H45.496V38.39C45.496 38.94 45.98 39.49 46.706 39.49C47.311 39.49 47.916 39.05 47.916 38.39V37.73H52.998C55.902 37.73 58.322 35.86 58.322 33.66V9.9C58.08 7.81 55.902 6.05 53.24 5.94ZM46.464 4.07C46.464 2.97 47.432 1.98 48.763 1.98C49.973 1.98 51.062 2.86 51.062 4.07V5.83H46.585V4.07H46.464ZM8.349 4.07C8.349 2.97 9.317 1.98 10.648 1.98C11.858 1.98 12.947 2.86 12.947 4.07V5.83H8.349V4.07ZM21.901 31.35H6.655V12.21H21.901V31.35ZM29.04 30.91C27.467 30.91 26.136 29.7 26.136 28.27C26.136 26.84 27.467 25.63 29.04 25.63C30.613 25.63 31.944 26.84 31.944 28.27C31.944 29.7 30.613 30.91 29.04 30.91ZM29.04 17.93C27.467 17.93 26.136 16.72 26.136 15.29C26.136 13.86 27.467 12.65 29.04 12.65C30.613 12.65 31.944 13.86 31.944 15.29C31.944 16.72 30.613 17.93 29.04 17.93ZM51.425 31.35H36.179V12.21H51.425V31.35Z" fill="white"/>
<path d="M14.278 18.15C15.851 18.15 16.698 19.58 15.609 20.9C14.762 21.89 13.068 23.43 10.527 25.85V27.39H18.392V25.63H13.189C15.125 23.76 16.819 22.33 17.545 21.23C18.755 19.14 17.424 16.5 14.399 16.5C12.705 16.5 11.495 17.05 10.406 18.59L11.979 19.47C12.584 18.59 13.31 18.15 14.278 18.15Z" fill="white"/>
<path d="M44.407 28.6C48.037 28.6 50.215 26.18 50.215 22C50.215 17.93 48.037 15.4 44.407 15.4C40.777 15.4 38.599 17.82 38.599 22C38.599 26.18 40.777 28.6 44.407 28.6ZM44.407 17.6C47.311 17.6 47.916 20.02 47.916 22C47.916 23.98 47.311 26.4 44.407 26.4C41.503 26.4 40.898 23.98 40.898 22C40.898 20.02 41.503 17.6 44.407 17.6Z" fill="white"/>
</svg>
