<svg xmlns="http://www.w3.org/2000/svg" width="50" height="50" viewBox="0 0 50 50"><g fill="none" fill-rule="evenodd" transform="translate(6)"><path fill="#F7D0A9" d="M9.06419345,1.5595556 C10.819904,1.5595556 12.2431887,2.98096629 12.2431887,4.73436523 L12.243386,7.6048705 C10.4510594,7.91905715 8.69052669,8.32499786 6.97363318,8.82504647 L5.88519824,9.15483871 L5.88519824,4.73436523 C5.88519824,3.04840471 7.20110489,1.66938599 8.86314879,1.56580166 L9.06419345,1.5595556 Z M33.7055283,3.92507522 C33.8508145,3.92507522 33.9956455,3.93830603 34.1382345,3.9645224 L34.350213,4.01355546 C36.1619435,4.52043307 37.444811,6.12934281 37.5337915,8.00624397 L37.572188,8.79431697 C35.5097595,8.26401355 33.4194403,7.835931 31.3180102,7.51340377 L31.3156715,6.31178543 C31.3156715,4.99364178 32.3856468,3.92507522 33.7055283,3.92507522 Z M26.407749,1.22536512 C28.1634596,1.22536512 29.5867442,2.6467758 29.5867442,4.40017474 L29.5878028,7.27204432 C27.4692184,7.00608738 25.3440463,6.84784933 23.2293625,6.80072348 L23.2287538,4.40017474 C23.2287538,2.6467758 24.6520385,1.22536512 26.407749,1.22536512 Z M17.6515692,0 C19.4072798,0 20.8305645,1.42141068 20.8305645,3.17480962 L20.8313895,6.79518956 C18.6890281,6.83341896 16.5642435,6.98815041 14.4750557,7.26296478 L14.472574,3.17480962 C14.472574,1.42141068 15.8958587,0 17.6515692,0 Z"/><path fill="#EB5556" d="M37.6569273,11.3186026 L37.8214212,12.9023577 C38.7558099,22.3594252 38.6985384,30.9589761 35.2025241,36.5849493 C34.3342897,36.0006532 33.2895456,35.6611845 32.1654098,35.6611845 L13.4713065,35.6611845 C12.1910208,35.6611845 11.0137147,36.1015121 10.0829462,36.8387985 C8.28519,34.6976606 1.5602932,31.0676403 0.0520675115,21.7544637 C-0.272740204,17.0089809 0.916520876,15.5483441 3.77701783,14.6706078 C4.52660765,14.4405981 4.46990106,22.3525255 8.20825595,25.3679369 C6.6022337,19.4517751 6.04059649,13.5569508 6.68077949,11.4426692 C16.8380021,8.2275267 28.1134512,8.74697366 37.6569273,11.3186026 Z"/><path fill="#000" d="M31.3156715,10.0116639 C33.4161708,10.3533152 35.6797607,10.7858262 37.6569273,11.3186026 L37.8214212,12.9023577 C38.7558099,22.3594252 38.6985384,30.9589761 35.2025241,36.5849493 C34.3340414,36.0005725 33.289412,35.6611845 32.1654098,35.6611845 L29.2911907,35.661003 C32.160549,28.5638 33.8441553,17.9463775 31.3156715,10.0116639 Z" opacity=".295"/><rect width="24.763" height="11.919" x="10.437" y="38.081" fill="#EB5556" rx="1.879"/><path fill="#000" d="M29.0365394,38.0805393 L33.32092,38.0805393 C34.3585459,38.0805393 35.1997079,38.9217013 35.1997079,39.9593272 L35.1997079,48.1212121 C35.1997079,49.158838 34.3585459,50 33.32092,50 C31.8927932,50 30.4646663,50 29.0365394,50 C29.0365394,47.5858784 29.0365394,43.6127249 29.0365394,38.0805393 Z" opacity=".297"/></g></svg>