<svg width="36" height="45" viewBox="0 0 36 45" fill="none" xmlns="http://www.w3.org/2000/svg">
<path d="M34.8327 18.75C35.2387 15.0914 35.1372 11.4329 34.424 7.77438C34.3015 7.27442 34.1317 6.78482 33.9165 6.31097C33.4886 5.46967 32.8194 4.74646 31.9779 4.2159C31.1365 3.68535 30.1533 3.36666 29.1296 3.29268C28.3748 2.10026 27.1316 1.22182 25.6666 0.845678C24.2016 0.469535 22.6313 0.625624 21.2925 1.28049C20.2472 0.461657 18.9111 0.00738565 17.5262 0C15.5922 0 13.7598 0.914633 12.6378 2.37805C9.6862 1.28049 6.22432 2.56097 5.00364 5.21341C4.71306 5.85101 4.57474 6.53662 4.59769 7.2256C4.59769 7.59145 4.59769 7.95731 4.69918 8.32316L5.00364 9.60365L0.729863 15.8232C0.222422 16.6463 -0.0820429 17.561 0.0194453 18.4756L0.524068 22.6829C0.745248 24.2698 1.33504 25.7969 2.25501 27.1646L3.88446 29.4512C3.73853 30.269 3.78085 31.1052 4.00879 31.9077C4.23673 32.7101 4.64542 33.4618 5.20944 34.1158C5.61539 34.5731 6.12283 35.0304 6.73458 35.3963V38.2317C6.73383 39.1224 6.92832 40.0045 7.30689 40.8273C7.68546 41.6501 8.24064 42.3974 8.94056 43.0263C9.64048 43.6552 10.4713 44.1533 11.3855 44.492C12.2996 44.8307 13.2789 45.0033 14.2673 45H23.1249C24.1133 45.0033 25.0926 44.8307 26.0067 44.492C26.9208 44.1533 27.7517 43.6552 28.4516 43.0263C29.1516 42.3974 29.7067 41.6501 30.0853 40.8273C30.4639 40.0045 30.6584 39.1224 30.6576 38.2317V33.6585C32.753 31.8524 34.0239 29.4058 34.221 26.7988L34.8327 18.75ZM10.3994 4.84756C10.9069 4.84756 11.4171 5.03048 11.9274 5.30487L12.5363 8.14023C12.7421 8.96341 13.554 9.42072 14.4702 9.32926C15.3865 9.23779 15.8967 8.41463 15.7952 7.59146L15.0792 4.57317C15.3836 3.56707 16.4042 2.92683 17.6248 2.92683C18.4396 2.92683 19.1528 3.29268 19.6602 3.84146L20.3735 6.95121C20.5764 7.68292 21.4927 8.14023 22.3074 7.95731C22.6693 7.86139 22.9811 7.65185 23.1864 7.36663C23.3917 7.08141 23.4769 6.73937 23.4266 6.40243L22.9191 3.84146C23.2184 3.6857 23.5494 3.58572 23.8923 3.54747C24.2353 3.50922 24.5833 3.53347 24.9157 3.61878C25.2481 3.7041 25.5581 3.84873 25.8272 4.04411C26.0964 4.23948 26.3192 4.4816 26.4825 4.75609C26.6095 4.88127 26.6817 5.04382 26.6855 5.21341L27.2944 8.32316C27.3628 8.64768 27.551 8.94179 27.8284 9.15767C28.1059 9.37354 28.4562 9.49849 28.8224 9.51219H29.1268C29.9444 9.32926 30.5533 8.59755 30.4518 7.86585L30.2488 6.58536C30.6548 6.76829 30.9593 7.13414 31.1651 7.49999C31.2665 7.59146 31.368 8.14023 31.368 8.2317V8.32316C31.8755 10.6097 32.0813 12.9878 31.9798 15.2744L31.571 15.0914L31.0636 14.9085C30.7563 14.7256 30.3503 14.6341 30.043 14.4512L29.6371 14.2683C29.1296 14.0854 28.7209 13.9024 28.2106 13.811C27.7032 13.628 27.1957 13.5366 26.6855 13.4451L26.178 13.3536C25.7693 13.2622 25.462 13.1707 25.056 13.1707L24.5486 13.0793C24.1398 12.9878 23.8353 12.9878 23.4266 12.9878H22.9191C22.4117 12.9878 21.7971 12.8963 21.2897 12.8963C20.7822 12.8963 20.1705 12.8963 19.5587 12.9878L19.0513 13.0793C18.6425 13.0793 18.2338 13.1707 17.9293 13.1707L17.3204 13.2622L16.2998 13.4451L15.6909 13.5366C15.2821 13.628 14.9777 13.7195 14.5717 13.811L14.0643 13.9939L12.5363 14.5427L12.4348 14.6341C11.9274 14.8171 11.5186 15 11.1099 15.2744L10.6024 15.5488C10.3554 15.6555 10.1171 15.7778 9.88917 15.9146L7.95526 7.86585C7.81046 7.24644 7.94355 6.60055 8.32546 6.06929C8.70736 5.53803 9.30703 5.16457 9.99348 5.03048C10.095 4.93902 10.2979 4.93902 10.3994 4.84756ZM3.27271 18.1097C3.27271 17.8353 3.27271 17.4695 3.47568 17.2866L5.91986 13.628L7.03905 18.1097L5.00364 25.5183C4.29919 24.5631 3.87886 23.4607 3.78297 22.3171L3.27271 18.1097ZM23.1249 42.0731H14.2673C11.9274 42.0731 9.99348 40.3353 9.99348 38.2317V36.4024H22.6147C23.0234 36.4024 23.4322 36.4024 23.8382 36.3109H23.9397C25.1603 36.2195 26.2795 35.8536 27.4015 35.4878V38.2317C27.4015 40.3353 25.4648 42.0731 23.1249 42.0731ZM28.1148 31.7378L28.0105 31.8292C27.0942 32.5609 25.9751 33.0183 24.853 33.2926H24.6529L24.1426 33.3841H10.6052C10.095 33.3841 9.58471 33.2926 9.07727 33.1097H8.97296C8.26605 32.7835 7.6955 32.2595 7.34684 31.6164C6.99818 30.9733 6.89019 30.2457 7.03905 29.5427C7.14054 29.3597 7.14054 29.1768 7.14054 28.9939L9.99348 18.9329L10.3994 18.6585L11.0112 18.2927L11.7216 17.9268L12.3333 17.561L13.0466 17.1951L13.6583 16.9207L14.4702 16.6463L15.082 16.4634C15.3865 16.3719 15.5894 16.2805 15.8967 16.2805L16.5085 16.0975C16.8129 16.0061 17.1174 16.0061 17.4247 15.9146L18.0336 15.8232C18.3409 15.8232 18.7468 15.7317 19.0513 15.7317L19.5616 15.6402C20.069 15.6402 20.5793 15.5488 21.0895 15.5488C22.0057 15.5488 22.922 15.6402 23.8382 15.7317C25.5263 15.9943 27.1689 16.4555 28.7237 17.1036C29.1296 17.2866 29.6399 17.4695 30.0487 17.6524L30.2517 17.7439C30.6576 17.9268 31.0664 18.2012 31.4723 18.3841L30.8606 26.3414C30.8606 28.5366 29.8457 30.4573 28.1119 31.7378H28.1148Z" fill="white"/>
</svg>
