<?xml version="1.0" encoding="UTF-8"?>
<svg width="37px" height="28px" viewBox="0 0 37 28" version="1.1" xmlns="http://www.w3.org/2000/svg" xmlns:xlink="http://www.w3.org/1999/xlink">
    <title>Navigation / Icons / Category Nav Icon - Offers - Default@1x</title>
    <g id="Navigation-/-Icons-/-Category-Nav-Icon---Offers---Default" stroke="none" stroke-width="1" fill="none" fill-rule="evenodd">
        <path d="M18.9728243,2.13712623 L20.706,3.781 L22.9463659,2.94555243 C23.1953497,2.85261508 23.4735324,2.97069663 23.5796375,3.21436026 L24.523,5.381 L27.2202074,5.38163006 C27.4963498,5.38163006 27.7202074,5.60548768 27.7202074,5.88163006 L27.72,7.95 L29.9683518,8.78980116 C30.2270591,8.88636799 30.3584999,9.17437456 30.2619331,9.43308184 C30.258818,9.44142734 30.2554805,9.44968811 30.251924,9.45785529 L29.212,11.843 L31.1016668,13.6344747 C31.3020765,13.8244499 31.3105352,14.1409194 31.12056,14.341329 L31.1016668,14.3602222 L29.212,16.15 L30.251924,18.5368417 C30.3621728,18.7900211 30.2463047,19.0846379 29.9931253,19.1948867 C29.9849581,19.1984431 29.9766973,19.2017807 29.9683518,19.2048958 L27.72,20.043 L27.7202074,22.1156513 C27.7202074,22.3917937 27.4963498,22.6156513 27.2202074,22.6156513 L24.522,22.615 L23.5796375,24.7803367 C23.4735324,25.0240003 23.1953497,25.1420819 22.9463659,25.0491445 L20.706,24.213 L18.9728243,25.8575707 C18.779947,26.0404057 18.4777403,26.0404057 18.2848631,25.8575707 L16.55,24.213 L14.3113214,25.0491445 C14.0623377,25.1420819 13.784155,25.0240003 13.6780499,24.7803367 L12.735,22.615 L10.0396042,22.6156513 C9.76346186,22.6156513 9.53960424,22.3917937 9.53960424,22.1156513 L9.539,20.044 L7.28933553,19.2048958 C7.03062825,19.108329 6.89918743,18.8203224 6.99575426,18.5616151 C6.99886936,18.5532696 7.00220692,18.5450089 7.00576338,18.5368417 L8.044,16.15 L6.15602055,14.3602222 C5.95561091,14.170247 5.94715213,13.8537776 6.13712735,13.6533679 C6.14325566,13.646903 6.14955564,13.640603 6.15602055,13.6344747 L8.044,11.844 L7.00576338,9.45785529 C6.89551456,9.20467589 7.01138269,8.9100591 7.26456209,8.79981028 C7.27272927,8.79625382 7.28099003,8.79291626 7.28933553,8.78980116 L9.539,7.949 L9.53960424,5.88163006 C9.53960424,5.60548768 9.76346186,5.38163006 10.0396042,5.38163006 L12.734,5.381 L13.6780499,3.21436026 C13.784155,2.97069663 14.0623377,2.85261508 14.3113214,2.94555243 L16.55,3.781 L18.2848631,2.13712623 C18.4777403,1.95429126 18.779947,1.95429126 18.9728243,2.13712623 Z M22.2253433,14.5503312 C21.6326501,14.5503312 20.6968187,14.6377741 20.0417367,15.3227437 C19.6362098,15.7308107 19.4022519,16.3429112 19.4022519,16.9695856 C19.4022519,17.5671123 19.6050154,18.0917699 20.0573339,18.5435583 C20.7124159,19.1848065 21.5078726,19.3159709 22.2253433,19.3159709 C22.8960225,19.3159709 23.7694651,19.1848065 24.4245471,18.5435583 C24.7832825,18.1937866 25.0952263,17.669129 25.0952263,16.9258641 C25.0952263,16.1388777 24.7520881,15.628794 24.4401443,15.3227437 C24.0190202,14.9146767 23.348341,14.5503312 22.2253433,14.5503312 Z M22.3189265,9.47864118 L20.9619709,9.47864118 L14.9414556,19.1993803 L16.2828139,19.1993803 L22.3189265,9.47864118 Z M22.2565377,15.8328275 C22.5528843,15.8328275 22.8180365,15.9056966 23.0519944,16.1097301 C23.3015494,16.3283374 23.4263269,16.6343877 23.4263269,16.9258641 C23.4263269,17.2319144 23.2859522,17.5233908 23.0831888,17.7128505 C22.8804253,17.8877363 22.5684815,18.0189007 22.2565377,18.0189007 C21.9445939,18.0189007 21.6794417,17.916884 21.4922754,17.756572 C21.2583175,17.5671123 21.0867485,17.261062 21.0867485,16.9258641 C21.0867485,16.6489615 21.1959288,16.3720589 21.3986923,16.1680254 C21.5858585,15.9785657 21.8978023,15.8328275 22.2565377,15.8328275 Z M14.9882472,9.37662442 C14.395554,9.37662442 13.4597226,9.46406736 12.8046406,10.149037 C12.3991136,10.557104 12.1651558,11.1692045 12.1651558,11.7958788 C12.1651558,12.3934055 12.3679193,12.9180631 12.8202378,13.3698516 C13.4753197,14.0110998 14.2707764,14.1422641 14.9882472,14.1422641 C15.6589263,14.1422641 16.532369,14.0110998 17.187451,13.3698516 C17.5461863,13.0200799 17.8581301,12.4954223 17.8581301,11.7521574 C17.8581301,10.965171 17.5149919,10.4550872 17.2030481,10.149037 C16.781924,9.74096997 16.1112449,9.37662442 14.9882472,9.37662442 Z M15.0194416,10.6591207 C15.3157882,10.6591207 15.5809404,10.7319899 15.8148982,10.9360234 C16.0644533,11.1546307 16.1892308,11.4606809 16.1892308,11.7521574 C16.1892308,12.0582076 16.0488561,12.3496841 15.8460926,12.5391438 C15.6433292,12.7140296 15.3313854,12.845194 15.0194416,12.845194 C14.7074978,12.845194 14.4423455,12.7431773 14.2551792,12.5828652 C14.0212214,12.3934055 13.8496523,12.0873553 13.8496523,11.7521574 C13.8496523,11.4752548 13.9588326,11.1983521 14.1615961,10.9943186 C14.3487624,10.804859 14.6607062,10.6591207 15.0194416,10.6591207 Z" id="Default-Offers" fill="#BBBBBB"></path>
    </g>
</svg>