<svg width="45" height="45" viewBox="0 0 45 45" fill="none" xmlns="http://www.w3.org/2000/svg">
<path d="M41.3086 3.67664C39.8665 2.23383 36.983 1.40625 33.3956 1.40625C27.1378 1.40625 17.9508 3.90797 10.9364 10.9273C0.919698 20.9531 -0.664442 36.964 3.69142 41.3234C5.13282 42.7662 8.01704 43.5938 11.6037 43.5938H11.6051C17.8629 43.5938 27.0485 41.092 34.0629 34.072C44.0796 24.0469 45.6645 8.03672 41.3086 3.67664ZM33.3956 2.7675C34.096 2.7675 34.7618 2.80687 35.3967 2.87227C35.8488 2.99953 36.2081 3.18023 36.4472 3.4193C38.918 5.89219 36.436 16.7808 27.7242 25.5023C19.009 34.2239 8.04868 36.7453 5.57861 34.2724C3.58173 32.2741 5.69743 20.9229 14.4127 12.2006C20.1192 6.48984 26.8875 3.58102 31.4789 2.85117C32.1165 2.79813 32.7559 2.77021 33.3956 2.7675ZM33.1017 33.1102C26.993 39.2224 19.1841 41.7523 13.3165 42.1643C19.0259 40.1351 26.5374 36.0246 33.1221 26.808C36.9373 21.4685 40.0226 15.5637 42.2283 11.6571C42.1931 17.9086 39.5381 26.6688 33.1017 33.1102Z" fill="white"/>
<path d="M10.8513 28.7508C9.66796 27.5667 9.93515 23.4204 12.1113 19.1651C8.99156 24.1685 8.16257 29.0356 9.36492 30.2386C10.5673 31.4431 15.4308 30.6127 20.4307 27.4908C16.1775 29.6677 12.0354 29.9349 10.8513 28.7508Z" fill="white"/>
<path d="M30.5972 8.98874C31.7812 10.1728 31.5161 14.3184 29.3379 18.5744C32.4583 13.571 33.2873 8.70468 32.0843 7.50023C30.8826 6.29718 26.0184 7.12687 21.0185 10.2494C25.271 8.07116 29.4145 7.80468 30.5972 8.98874Z" fill="white"/>
</svg>
