<svg xmlns="http://www.w3.org/2000/svg" xmlns:xlink="http://www.w3.org/1999/xlink" width="50" height="50" viewBox="0 0 50 50"><defs><path id="a" d="M18.454782,18.4522408 C22.6689548,14.2436166 22.6689548,7.42008853 18.454782,3.2114643 C21.6515963,12.6110893 13.591968,21.715699 3.1939124,18.4522408 C7.40808517,22.660865 14.2406092,22.660865 18.454782,18.4522408 Z"/></defs><g fill="none" fill-rule="evenodd"><path fill="#FFF" d="M21.505213,0 C24.0042894,0 26.4044109,0.423118148 28.6376689,1.20153506 C29.2742669,1.82577819 29.9202867,2.62152399 30.5765712,3.62319165 C32.6944105,4.07462438 34.664626,4.86499058 36.5760575,6.09911993 C37.7658971,7.25397544 38.8234355,8.54402072 39.7236926,9.94442673 C38.1688043,9.52996064 36.5371829,9.30911297 34.8539117,9.30911297 C33.8847284,9.30911297 32.9326677,9.38232738 32.0029726,9.52352023 L27.9219103,9.22084602 L27.8144442,10.6690757 C23.7258806,12.3182986 20.3506095,15.3612968 18.2790498,19.2084289 C17.7503508,18.8615595 17.1523928,18.4847684 16.5280302,18.0981553 L12.9449604,15.9040253 C12.7646763,15.7924069 12.5899456,15.6835597 12.4221225,15.5781004 C10.251398,17.0629091 8.55783365,18.7457323 6.38964453,21.2096863 C6.44077844,23.3701833 8.57911263,27.6227449 9.76464112,29.1805135 C10.204008,29.2002495 10.6447453,29.208552 11.086738,29.2063808 C9.52310983,30.8856661 8.36187701,32.9492805 7.75589845,35.2383021 C5.92158722,34.9093015 4.59064991,34.3738211 3.62153546,33.6912453 L3.50089854,33.5993816 L3.08337246,32.9486939 C1.44227666,30.2953939 0.359856178,27.2609478 1.51006204e-15,24.0090288 C0.350525052,22.5894091 0.832446514,21.112582 1.64398464,19.4926376 C1.55742154,17.1184526 1.59838611,13.5330754 2.42318712,11.5198347 L2.3587664,11.5338581 C4.14330659,8.15839477 6.79660796,5.31190414 10.0214387,3.2912266 L9.57628739,3.8027188 C8.83732246,4.67477864 8.15007125,5.60201026 8.06869094,5.94402775 C8.73431431,5.92424975 11.5793426,6.90024611 13.3876768,8.09204239 C15.7019441,6.58241926 17.653453,5.86621638 21.3472601,4.83024667 L21.2537692,0.702878471 C20.1606956,0.432527735 19.0823662,0.277836723 18.0967494,0.268250129 C19.2070588,0.0911209284 20.3454806,0 21.505213,0 Z"/><g transform="translate(20.064 12.965)"><path fill="#F0AD7A" d="M21.8271998,18.4318476 C22.1307515,21.1639189 23.0941027,23.8865217 24.7064795,26.5943762 L24.4516202,26.8147361 C22.0651457,28.7851394 19.0651085,30.0404459 15.7805079,30.2520459 L15.7817062,26.5700708 C15.7910716,26.3580323 15.7958036,26.1447914 15.7958036,25.9304468 C15.7958036,25.7146441 15.791007,25.4999602 15.7815144,25.2864957 L15.7781951,19.0674923 C17.7954101,19.0152623 19.8118507,18.8032938 21.8271998,18.4318476 Z M29.9356576,16.0712644 C29.7214362,19.5491155 28.3330798,22.7097563 26.1616005,25.162638 C24.7990146,22.7700648 24.0047016,20.3907543 23.7680633,18.0229219 C25.6001609,17.5936939 27.427929,17.0320808 29.2544764,16.3393227 L29.9356576,16.0712644 Z M13.7994635,0 L13.8004281,17.0897072 L12.6844072,17.0398172 C11.3022766,15.3090238 9.52551906,13.9064138 7.49017271,12.9678461 C6.91755494,10.2031405 5.67074499,7.45262395 3.76046486,4.71772176 C6.31347484,2.01591408 9.85092042,0.253813607 13.7994635,0 Z M15.7805079,0.000138784285 C19.7285242,0.254477304 23.2654175,2.01671072 25.8198616,4.71618981 C23.1099067,8.59519581 21.7351914,12.5040559 21.7172936,16.4375027 C20.1483516,16.7401147 18.5791057,16.9387508 17.0102171,17.0350586 L15.7764714,17.0868732 L15.7805079,0.000138784285 Z M27.1258817,6.30308987 C28.6981514,8.48660053 29.6998177,11.1053471 29.9191422,13.9430659 C28.2597721,14.6359312 26.6018062,15.2144928 24.9449538,15.6791151 L23.701386,16.0055707 L23.7078605,15.8391285 C23.8495103,12.6820979 24.9833034,9.50504507 27.1258817,6.30308987 Z M2.4528359,6.30308987 C3.76489705,8.26388682 4.6986607,10.2153453 5.25794857,12.158586 C4.06082863,11.8329415 2.8040313,11.6603194 1.50686277,11.6603194 C0.997922185,11.6603194 0.495196195,11.6868922 0,11.7387244 C0.439345496,9.79554658 1.2563331,7.99598856 2.36703203,6.41781087 L2.4528359,6.30308987 Z"/><path fill="#000" d="M22.3956442,21.3135803 C22.8877573,23.0730556 23.6566071,24.828152 24.6962021,26.5771011 C22.1108408,28.8056234 18.9714152,30.0156298 15.7793493,30.2207772 L15.7818967,26.5657433 C15.7911357,26.355131 15.7958036,26.1433333 15.7958036,25.9304468 L15.7923316,25.7902532 L16.4243083,25.5495725 C18.7562333,24.6000329 20.7831244,23.1386957 22.3956442,21.3135803 Z M29.9169694,16.0774983 C29.7262255,19.1186366 28.6199492,22.1132101 26.5981405,24.614216 L26.150058,25.141992 L25.7571079,24.4208201 C24.8557745,22.6908951 24.2516298,20.9678227 23.9406538,19.2509262 C24.2447325,18.7756898 24.5222848,18.2825679 24.7743348,17.7746542 L24.8668272,17.7495088 C26.3312193,17.3638029 27.7932385,16.8935292 29.2544764,16.3393227 L29.9169694,16.0774983 Z M27.1188352,6.32080644 C28.7648326,8.61153713 29.6922924,11.2582463 29.9012146,13.9501389 C28.5163385,14.5288026 27.1145383,15.0328496 25.713566,15.455427 C26.4860729,13.0280598 26.7195638,10.3680916 26.2981036,7.62877648 L26.6821923,6.98884375 L27.1188352,6.32080644 Z" opacity=".302"/></g><g transform="translate(10.764 28.091)"><path fill="#E0FB85" d="M4.74424733,1.84745676 L4.75270216,1.8759425 C5.00294515,2.72667665 4.9482231,3.51748536 4.61650533,4.53728557 L4.42336694,5.08311345 L4.01384667,6.09439345 C3.3013628,7.82916271 3.01418425,8.85131426 3.01418425,10.197016 C3.01418425,13.354788 6.49224972,16.50859 11.0087239,16.50859 C15.4924954,16.50859 18.5588293,13.4634723 18.5588293,10.197016 C18.5588293,8.9748548 18.3442585,8.02037967 17.8195743,6.51793438 L17.3293597,5.1318285 L17.2340648,4.82845607 C16.911102,3.76857986 16.8364556,2.9497901 17.045451,2.09258731 L17.0669852,2.01332929 C19.7954955,3.96808114 21.5730136,7.16288551 21.5730136,10.7723048 C21.5730136,16.7216845 16.74373,21.5446097 10.7865068,21.5446097 C4.82928359,21.5446097 0,16.7216845 0,10.7723048 C0,7.05887842 1.88143398,3.78430587 4.74424733,1.84745676 Z M10.7865068,0 C12.6012168,0 14.311259,0.447545531 15.8120053,1.23814597 L15.7421666,1.47490125 C15.4011463,2.62559164 15.442916,3.68671217 15.7901966,4.94681873 L15.9787584,5.56970566 L16.3659558,6.66622341 C16.9248022,8.22153565 17.1389867,9.09296136 17.1389867,10.197016 C17.1389867,12.6785561 14.7101204,15.0906167 11.0087239,15.0906167 C7.24745995,15.0906167 4.43402691,12.5394828 4.43402691,10.197016 C4.43402691,9.15899591 4.64858148,8.32613277 5.20334958,6.93859142 L5.67563733,5.77922502 L5.86549307,5.27255879 C6.36640005,3.86678159 6.48269603,2.72637844 6.11498124,1.47628335 L6.00773404,1.11220093 C7.44808885,0.400183941 9.07050222,0 10.7865068,0 Z"/><use xlink:href="#a" fill="#000" opacity=".288"/></g></g></svg>