<svg width="43" height="43" viewBox="0 0 43 43" fill="none" xmlns="http://www.w3.org/2000/svg">
<path d="M21.5 41C32.2696 41 41 32.2696 41 21.5C41 10.7304 32.2696 2 21.5 2C10.7304 2 2 10.7304 2 21.5C2 32.2696 10.7304 41 21.5 41Z" stroke="white" stroke-width="4" stroke-linecap="round" stroke-linejoin="round"/>
<path d="M7.84985 7.84998L35.1499 35.15" stroke="white" stroke-width="4" stroke-linecap="round" stroke-linejoin="round"/>
<path d="M35.1499 7.84998L7.84985 35.15" stroke="white" stroke-width="4" stroke-linecap="round" stroke-linejoin="round"/>
<path d="M21.5 2C21.5 4.56078 20.9956 7.09648 20.0157 9.46233C19.0357 11.8282 17.5993 13.9778 15.7886 15.7886C13.9778 17.5993 11.8282 19.0357 9.46233 20.0157C7.09648 20.9956 4.56078 21.5 2 21.5" stroke="white" stroke-width="4" stroke-linecap="round" stroke-linejoin="round"/>
<path d="M21.5 41C21.5 35.8283 23.5545 30.8684 27.2114 27.2114C30.8684 23.5545 35.8283 21.5 41 21.5" stroke="white" stroke-width="4" stroke-linecap="round" stroke-linejoin="round"/>
</svg>
