<svg xmlns="http://www.w3.org/2000/svg" width="50" height="50" viewBox="0 0 50 50"><g fill="none" fill-rule="evenodd"><path fill="#EB5556" d="M14.6813127,0.00222300087 C16.8783524,0.0405219783 18.9511768,0.571001588 20.7962492,1.48658764 C17.0194222,5.11383964 14.8753791,10.0998739 14.8753791,15.3404605 L14.8753791,19.9121295 C14.8753791,24.2602249 16.7890472,28.3424864 20.0304182,31.1232 C19.3435173,31.2515654 18.6313846,31.3128278 17.9033137,31.300136 L10.367553,31.168772 C4.54091306,31.0672015 -0.100064219,26.2676565 0.00164016014,20.4486881 L0.113446773,14.0517251 C0.251474145,6.15455371 6.7737299,-0.135622639 14.6813127,0.00222300087 Z M22.6208743,3.66385788 L22.76102,3.52814906 C22.8189055,3.47276099 22.8772355,3.41776219 22.9360069,3.36315836 L22.7608928,3.52827077 C22.850523,3.44250579 22.9412187,3.35767413 23.0329692,3.27379693 L22.9360069,3.36315836 C23.0292438,3.27653309 23.1235918,3.19090187 23.2190397,3.10628744 L23.2759661,3.05605749 C24.4297287,3.95932467 25.4385946,5.03681297 26.265886,6.24694377 C24.9296905,5.98768489 23.4965676,6.20198109 22.2379215,6.95725627 C19.5344153,8.57954789 18.6596515,12.0834143 20.2840819,14.783361 C21.9085123,17.4833076 25.4169981,18.3569196 28.1205043,16.734628 C28.3309937,16.6083198 28.5303975,16.4706057 28.7183993,16.3227532 L28.6375307,20.9478713 C28.5695197,24.8390937 26.3979095,28.2008124 23.2241615,29.970759 C22.8345907,29.7215937 22.4622586,29.4517036 22.1082937,29.1629995 C21.9267014,29.0148875 21.7499432,28.8618238 21.5781716,28.7040664 L21.6337044,28.7558836 C21.561849,28.6907179 21.4908519,28.6247342 21.4207239,28.5579513 L21.5781716,28.7040664 C21.4932733,28.6260947 21.4095933,28.5469764 21.3271497,28.4667427 L21.4207239,28.5579513 C21.3344765,28.4758178 21.2495438,28.3924753 21.1659463,28.3079584 L21.3271497,28.4667427 C21.2564139,28.3979028 21.1865883,28.3282418 21.1176846,28.2577793 C20.9652941,28.1019414 20.817413,27.9421833 20.674167,27.7787177 L20.689417,27.7971359 C20.6252516,27.7241883 20.5620103,27.6504973 20.4997046,27.5760818 L20.674167,27.7787177 C20.5850109,27.676977 20.4976503,27.5738002 20.4121157,27.4692385 L20.4997046,27.5760818 C20.4298873,27.4926948 20.3612447,27.4083982 20.2937926,27.3232188 L20.4121157,27.4692385 C20.353652,27.3977697 20.2960414,27.325654 20.2392935,27.2529077 C20.0334542,26.9890382 19.8389654,26.716872 19.6562889,26.4371911 C19.5309125,26.2452376 19.4111003,26.0497443 19.2970017,25.8509641 C19.1556058,25.6046271 19.0229844,25.3532424 18.8994218,25.097291 C18.8031634,24.898419 18.7123743,24.6961539 18.6272194,24.4913401 L18.6842813,24.6257764 C18.6463691,24.5376713 18.6095063,24.4490804 18.5737037,24.360022 C18.5235858,24.2353546 18.4755454,24.1097712 18.4296125,23.9833225 C18.3499587,23.764043 18.2766424,23.5421613 18.2098197,23.3179412 L18.1812886,23.2206976 L18.1030153,22.9367141 C18.0598716,22.7721235 18.0201933,22.6063787 17.9840403,22.4395806 C17.8766233,21.9439824 17.8002877,21.4388503 17.7566797,20.9270648 L17.7332632,20.5988053 C17.7201685,20.3710302 17.7135529,20.1420616 17.7135529,19.9121295 L17.7135529,15.3404605 C17.7135529,15.1239276 17.7178457,14.9079229 17.7263772,14.6925551 C17.7388033,14.378921 17.7602091,14.0667351 17.7904315,13.7562343 C17.82901,13.3598862 17.8819542,12.966285 17.9489174,12.5761266 C18.006067,12.2431464 18.0734277,11.9126739 18.1507838,11.5851426 C18.218209,11.2996694 18.2931918,11.0165517 18.3756187,10.7359531 L18.2899139,11.0384438 C18.3235147,10.9153474 18.3585399,10.7927102 18.3949777,10.670556 L18.3756187,10.7359531 C18.4026352,10.6439829 18.4304515,10.5522833 18.4590625,10.4608644 L18.3949777,10.670556 C18.4377416,10.527194 18.4824513,10.3844973 18.5290876,10.2425042 L18.4590625,10.4608644 C18.4983399,10.3353639 18.539115,10.2103923 18.5813747,10.085976 C18.6213914,9.96816341 18.6627393,9.85084865 18.7054074,9.73405383 L18.658713,9.86355885 C18.6967264,9.75672262 18.7358408,9.65031182 18.7760477,9.54434328 L18.7054074,9.73405383 C18.7540122,9.6010086 18.8043302,9.46863808 18.8563451,9.33697503 L18.7760477,9.54434328 C18.8234728,9.41935063 18.8724179,9.29497328 18.9228693,9.17123879 L18.8563451,9.33697503 C18.905694,9.21206019 18.9565703,9.08778216 19.00896,8.96416894 L18.9228693,9.17123879 C18.9689259,9.05828276 19.0162378,8.94586247 19.0647946,8.83399891 L19.00896,8.96416894 C19.0589451,8.84622947 19.1103079,8.72889518 19.1630363,8.61219037 L19.0647946,8.83399891 C19.1225549,8.7009327 19.1820767,8.56865427 19.2433423,8.43719892 L19.1630363,8.61219037 C19.2139044,8.49960287 19.2660435,8.38760123 19.3194427,8.27620726 L19.2433423,8.43719892 C19.2953284,8.32565455 19.3485701,8.21470281 19.4030567,8.10436527 L19.3194427,8.27620726 C19.3797934,8.15031209 19.4417536,8.0251931 19.5053077,7.90088181 L19.4030567,8.10436527 C19.4607707,7.98749199 19.5198815,7.87130784 19.5803763,7.75583845 L19.5053077,7.90088181 C19.5605236,7.79287989 19.6169426,7.68548763 19.6745543,7.5787257 L19.5803763,7.75583845 C19.6386248,7.64465679 19.6981564,7.5341378 19.7589597,7.42430437 L19.6745543,7.5787257 C19.741309,7.45502079 19.8096651,7.33216213 19.8796066,7.21018188 L19.7589597,7.42430437 C19.8226928,7.30917865 19.8878232,7.19480615 19.9543377,7.08121323 L19.8796066,7.21018188 C19.9376523,7.10894838 19.9967899,7.00831989 20.0570104,6.90831478 L19.9543377,7.08121323 C20.0244893,6.96140891 20.0961805,6.84247176 20.169396,6.72443269 L20.0570104,6.90831478 C20.1257882,6.79409893 20.1959785,6.68069622 20.2675676,6.56813401 L20.169396,6.72443269 C20.2427632,6.60614892 20.3176611,6.48876696 20.394074,6.37231793 L20.2675676,6.56813401 C20.336379,6.4599392 20.4064828,6.35252093 20.477867,6.24590352 C20.6347858,6.01153376 20.7978913,5.78103392 20.967055,5.55466219 L20.8342239,5.7349757 C20.9039565,5.63894639 20.9747646,5.54363391 21.046639,5.44905741 L20.967055,5.55466219 C21.0304541,5.46982273 21.0947041,5.3855631 21.1597982,5.3018969 L21.046639,5.44905741 C21.1406398,5.32536547 21.2364642,5.20293242 21.3340909,5.08180109 L21.1597982,5.3018969 C21.2306115,5.21087981 21.3024239,5.12056501 21.3752265,5.03096998 L21.3340909,5.08180109 C21.4064341,4.99204052 21.4797669,4.90299474 21.5540807,4.81468119 L21.3752265,5.03096998 C21.4801869,4.90179981 21.5872058,4.77412573 21.6962569,4.64800016 L21.5540807,4.81468119 C21.6332827,4.72055854 21.7135989,4.62726761 21.7950189,4.53482952 L21.6962569,4.64800016 C21.7909049,4.53853286 21.8870838,4.43023203 21.9847766,4.32313198 L21.7950189,4.53482952 C21.8846052,4.43311993 21.9755279,4.33244284 22.0677727,4.23282636 L21.9847766,4.32313198 C22.0534009,4.24789962 22.1227721,4.17325975 22.1928844,4.09922428 L22.0677727,4.23282636 C22.1641301,4.12876872 22.2619303,4.02586836 22.3611574,3.92415734 L22.1928844,4.09922428 C22.3326196,3.9516701 22.4752986,3.80651661 22.6208743,3.66385788 Z"/><path fill="#F1DBA3" d="M34.9794671,49.0878096 C34.9794671,50.3040635 28.0989832,50.3040635 28.0989832,49.0878096 L28.0989832,36.6328537 C28.0989832,34.4430853 26.7746175,34.0435272 25.7265107,33.7279523 L37.7837278,33.88093 C36.3283171,34.0435272 34.9175827,34.4430853 34.9175827,36.6328537 L34.9794671,49.0878096 Z"/><path fill="#000" d="M34.9794671,49.0878096 C34.9794671,49.6959365 33.2593461,50 31.5392251,50 C31.5392251,46.9694854 31.7551192,37.278042 31.7551192,33.8044411 C33.09481,33.8214387 35.1043462,33.846935 37.7837278,33.88093 C36.3283171,34.0435272 34.9175827,34.4430853 34.9175827,36.6328537 L34.9794671,49.0878096 Z" opacity=".3"/><path fill="#F1DBA3" d="M17.5835475,49.0878096 C17.5835475,50.3040635 10.7030637,50.3040635 10.7030637,49.0878096 L10.7030637,36.6328537 C10.7030637,34.4430853 9.3786979,34.0435272 8.33059112,33.7279523 L20.3878082,33.88093 C18.9323975,34.0435272 17.5216631,34.4430853 17.5216631,36.6328537 L17.5835475,49.0878096 Z"/><path fill="#639AEB" d="M32.2178615,0.00222300087 C36.0444119,0.0689277446 39.4941595,1.62864554 42.0200849,4.11566692 C40.8854055,4.21717828 39.7558765,4.56989533 38.7141912,5.19497891 C35.0361229,7.4020755 33.8460236,12.1690185 36.05603,15.842244 C38.1661117,19.349386 42.6128646,20.5914442 46.2120461,18.7755431 L46.1740795,20.9478713 C46.0723752,26.7668397 41.2665025,31.4017065 35.4398625,31.300136 L27.9041018,31.168772 C26.2652563,31.1402035 24.7202103,30.7399712 23.348113,30.0499283 C19.8570009,27.8775342 17.7135529,24.0509064 17.7135529,19.9121295 L17.7135529,15.3404605 C17.7135529,10.4244612 19.9262181,5.78071357 23.7188997,2.68074165 L24.320955,2.20793315 C26.6022493,0.766238314 29.3168287,-0.0483480431 32.2178615,0.00222300087 Z"/><path fill="#000" d="M46.2128299,18.7751476 L46.1740795,20.9478713 C46.0723752,26.7668397 41.2665025,31.4017065 35.4398625,31.300136 C38.4217125,29.6087827 40.5307353,24.8359136 40.9922445,19.4116359 C42.703273,19.8010449 44.5486813,19.6149973 46.2128299,18.7751476 Z M39.4017326,8.19936754 C40.4795928,10.8120115 41.005431,13.6790544 41.0783242,16.4897019 C40.0318682,16.1238546 39.1039229,15.4047567 38.4888198,14.3824011 C37.2865103,12.3840566 37.6697085,9.87569929 39.2738378,8.31764191 Z M32.2178615,0.00199794681 C36.0443695,0.0688803493 39.494083,1.62860127 42.0200008,4.11558218 C40.8854055,4.21717828 39.7558765,4.56989533 38.7141912,5.19497891 C38.4979394,5.32474504 38.2902881,5.46336016 38.0914227,5.6100817 C36.6935061,3.32396811 34.764025,1.36522172 32.2178615,0.00199794681 Z" opacity=".304"/><path fill="#EFEFEF" d="M40.1759588,7.62456558 C37.8414832,9.02541317 37.0861253,12.0509992 38.4888198,14.3824011 C39.8915142,16.713803 42.9210891,17.4681663 45.2555646,16.0673187 C47.5900402,14.6664711 48.3453981,11.6408851 46.9427036,9.30948321 C45.5400092,6.97808131 42.5104343,6.22371799 40.1759588,7.62456558 Z"/><path fill="#000" d="M40.2468065,8.21082149 C43.2843817,8.18288084 47.4547499,10.5367034 45.3207416,16.6530785 C47.6553542,15.250665 48.4120925,12.2239206 47.0109641,9.89265566 C45.6098356,7.56139076 42.5814191,6.80840795 40.2468065,8.21082149 Z" opacity=".298" transform="rotate(26 43.98 12.08)"/></g></svg>