<svg width="45" height="45" viewBox="0 0 45 45" fill="none" xmlns="http://www.w3.org/2000/svg">
<g clip-path="url(#clip0_370_56541)">
<path d="M45 0H0V45H45V0Z" fill="white" fill-opacity="0.01"/>
<path d="M22.5 41.25C32.8553 41.25 41.25 32.8553 41.25 22.5C41.25 12.1447 32.8553 3.75 22.5 3.75C12.1447 3.75 3.75 12.1447 3.75 22.5C3.75 32.8553 12.1447 41.25 22.5 41.25Z" stroke="white" stroke-width="3.75"/>
<path d="M22.5 3.75C22.4054 10.0014 20.8705 14.6903 17.8954 17.8166C14.9201 20.9429 10.205 22.5067 3.75 22.5078" stroke="white" stroke-width="3.75" stroke-linecap="round" stroke-linejoin="round"/>
<path d="M41.2202 23.4424C35.1147 23.0236 30.4495 24.3286 27.2245 27.3574C23.9994 30.3862 22.4255 35.0171 22.5027 41.2499" stroke="white" stroke-width="3.75" stroke-linecap="round"/>
</g>
<defs>
<clipPath id="clip0_370_56541">
<rect width="45" height="45" fill="white"/>
</clipPath>
</defs>
</svg>
