<svg xmlns="http://www.w3.org/2000/svg" xmlns:xlink="http://www.w3.org/1999/xlink" width="50" height="50" viewBox="0 0 50 50"><defs><path id="a" d="M42.6459621,42.6963055 C52.3842214,32.9580462 52.3842214,17.1692083 42.6459621,7.43094903 C50.0332736,29.1805709 31.4087999,50.2475623 7.3806056,42.6963055 C17.1188649,52.4345648 32.9077028,52.4345648 42.6459621,42.6963055 Z"/></defs><g fill="none" fill-rule="evenodd"><path fill="#E0FB85" d="M10.9631743,4.2747967 L10.982712,4.34070935 C11.5609824,6.30920767 11.4345287,8.13904562 10.6679836,10.4987428 L10.2216726,11.7617241 C10.0915837,12.1039963 9.9274455,12.5100904 9.57622404,13.3677422 L9.27533867,14.1017065 C7.62890577,18.1157577 6.96528344,20.4808956 6.96528344,23.5946904 C6.96528344,30.9014018 15.00252,38.198927 25.4393481,38.198927 C35.8006055,38.198927 42.8863983,31.1528845 42.8863983,23.5946904 C42.8863983,20.7667538 42.3905605,18.5582111 41.1781018,15.0817302 L40.0452965,11.8744449 L39.8250856,11.172477 C39.0787719,8.72004862 38.9062762,6.82546584 39.3892303,4.84199985 L39.4389924,4.65860614 C45.7441303,9.18167101 49.8516818,16.5740709 49.8516818,24.9258409 C49.8516818,38.6920027 38.6920027,49.8516818 24.9258409,49.8516818 C11.1596791,49.8516818 0,38.6920027 0,24.9258409 C0,16.3334108 4.3476841,8.75643676 10.9631743,4.2747967 Z"/><path fill="#E0FB85" d="M24.9258409,0 C29.1193368,0 33.0709629,1.03556749 36.5389403,2.86492352 L36.3775547,3.41274727 C35.589513,6.07530889 35.6860357,8.53061646 36.4885441,11.4463542 L36.8319764,12.600472 C36.9229554,12.8892637 37.0113476,13.1540197 37.1561804,13.5672474 L37.8190287,15.4248535 C39.1104308,19.0236623 39.6053758,21.0400384 39.6053758,23.5946904 C39.6053758,29.336681 33.9926659,34.9179045 25.4393481,34.9179045 C16.7476865,34.9179045 10.246306,29.014882 10.246306,23.5946904 C10.246306,21.1928346 10.7421063,19.2656877 12.024084,16.0550809 L13.1154632,13.372444 L13.4437108,12.5088017 L13.5541886,12.2000782 C14.7117021,8.94727581 14.980443,6.30851765 14.1307147,3.41594528 L13.882884,2.57350156 C17.2113068,0.925978366 20.9604369,0 24.9258409,0 Z"/><use xlink:href="#a" fill="#000" opacity=".288"/></g></svg>