<svg width="45" height="45" viewBox="0 0 45 45" fill="none" xmlns="http://www.w3.org/2000/svg">
<g clip-path="url(#clip0_373_56455)">
<path d="M31.6687 20.625H38.9813C39.9758 20.625 40.9296 21.0201 41.6329 21.7234C42.3362 22.4266 42.7313 23.3804 42.7313 24.375V39.0187C42.7313 40.0133 42.3362 40.9671 41.6329 41.6704C40.9296 42.3737 39.9758 42.7687 38.9813 42.7687H27.9938L25.3313 38.7937C25.0205 38.3336 24.6016 37.9567 24.1112 37.6961C23.6208 37.4356 23.074 37.2993 22.5188 37.2993C21.9635 37.2993 21.4167 37.4356 20.9263 37.6961C20.436 37.9567 20.017 38.3336 19.7063 38.7937L17.0063 42.6562H6.01875C5.02419 42.6562 4.07036 42.2612 3.3671 41.5579C2.66384 40.8546 2.26875 39.9008 2.26875 38.9062V24.375C2.26875 23.3804 2.66384 22.4266 3.3671 21.7234C4.07036 21.0201 5.02419 20.625 6.01875 20.625H31.6687Z" stroke="white" stroke-width="3.75" stroke-miterlimit="10"/>
<path d="M7.83749 27.9938H11.5125" stroke="white" stroke-width="3.65625" stroke-miterlimit="10"/>
<path d="M7.83749 35.325H11.5125" stroke="white" stroke-width="3.65625" stroke-miterlimit="10"/>
<path d="M22.5 2.34375C27.3519 2.34374 32.0057 4.2686 35.4401 7.69592C38.8744 11.1232 40.8088 15.7731 40.8187 20.625H4.18124C4.19118 15.7731 6.12557 11.1232 9.55992 7.69592C12.9943 4.2686 17.648 2.34374 22.5 2.34375Z" stroke="white" stroke-width="3.75" stroke-miterlimit="10"/>
<path d="M5.625 13.6875C8.8673 11.0829 12.9036 9.66692 17.0625 9.67502H28.05C32.1703 9.69249 36.1628 11.1071 39.375 13.6875" stroke="white" stroke-width="3" stroke-miterlimit="10"/>
</g>
<defs>
<clipPath id="clip0_373_56455">
<rect width="45" height="45" fill="white"/>
</clipPath>
</defs>
</svg>
