<svg xmlns="http://www.w3.org/2000/svg" xmlns:xlink="http://www.w3.org/1999/xlink" width="50" height="50" viewBox="0 0 50 50"><defs><ellipse id="a" cx="25" cy="24.967" rx="23.407" ry="23.377"/></defs><g fill="none" fill-rule="evenodd"><use xlink:href="#a" fill="#98E39E" opacity=".097"/><path fill="#98E39E" fill-rule="nonzero" d="M25,0 C38.8071187,0 50,11.1781443 50,24.967084 C50,38.7560238 38.8071187,49.934168 25,49.934168 C11.1928813,49.934168 0,38.7560238 0,24.967084 C0,11.1781443 11.1928813,0 25,0 Z M25,2.81416417 C12.7491503,2.81416417 2.8178743,12.7323642 2.8178743,24.967084 C2.8178743,37.2018038 12.7491503,47.1200038 25,47.1200038 C37.2508497,47.1200038 47.1821257,37.2018038 47.1821257,24.967084 C47.1821257,12.7323642 37.2508497,2.81416417 25,2.81416417 Z"/><path fill="#98E39E" fill-rule="nonzero" d="M24.5535387,15.0069477 L33.1906417,19.9870158 L33.1906417,29.9471522 L24.5535387,34.9272204 L15.9164356,29.9471522 L15.9164356,19.9870158 L24.5535387,15.0069477 Z M24.551789,17.1738541 L17.7945264,21.0686573 L17.7945264,28.863892 L24.551789,32.7586953 L31.3109301,28.863892 L31.3109301,21.0686573 L24.551789,17.1738541 Z"/><path fill="#98E39E" fill-rule="nonzero" d="M9.15804603 15.0069477 17.7951491 19.9870158 17.7951491 29.9471522 9.15804603 34.9272204.52094298 29.9471522.52094298 19.9870158 9.15804603 15.0069477ZM9.15629634 17.1738541 2.39903377 21.0686573 2.39903377 28.863892 9.15629634 32.7586953 15.9154375 28.863892 15.9154375 21.0686573 9.15629634 17.1738541ZM32.3967273 1.59048423 41.0338303 6.5705524 41.0338303 16.5306887 32.3967273 21.5107569 23.7596242 16.5306887 23.7596242 6.5705524 32.3967273 1.59048423ZM32.3949776 3.75739064 25.637715 7.65219385 25.637715 15.4474286 32.3949776 19.3422318 39.1541187 15.4474286 39.1541187 7.65219385 32.3949776 3.75739064Z"/><path fill="#98E39E" fill-rule="nonzero" d="M17.0650876 1.59048423 25.7021906 6.5705524 25.7021906 16.5306887 17.0650876 21.5107569 8.42798454 16.5306887 8.42798454 6.5705524 17.0650876 1.59048423ZM17.0633379 3.75739064 10.3060753 7.65219385 10.3060753 15.4474286 17.0633379 19.3422318 23.822479 15.4474286 23.822479 7.65219385 17.0633379 3.75739064ZM40.0267325 15.0069477 48.6638355 19.9870158 48.6638355 29.9471522 40.0267325 34.9272204 31.3896294 29.9471522 31.3896294 19.9870158 40.0267325 15.0069477ZM40.0249828 17.1738541 33.2677202 21.0686573 33.2677202 28.863892 40.0249828 32.7586953 46.7841239 28.863892 46.7841239 21.0686573 40.0249828 17.1738541Z"/><path fill="#98E39E" fill-rule="nonzero" d="M32.3967273,28.4234111 L41.0338303,33.4034793 L41.0338303,43.3636156 L32.3967273,48.3436838 L23.7596242,43.3636156 L23.7596242,33.4034793 L32.3967273,28.4234111 Z M32.3949776,30.5903175 L25.637715,34.4851207 L25.637715,42.2803555 L32.3949776,46.1751587 L39.1541187,42.2803555 L39.1541187,34.4851207 L32.3949776,30.5903175 Z"/><path fill="#98E39E" fill-rule="nonzero" d="M17.0650876,28.4234111 L25.7021906,33.4034793 L25.7021906,43.3636156 L17.0650876,48.3436838 L8.42798454,43.3636156 L8.42798454,33.4034793 L17.0650876,28.4234111 Z M17.0633379,30.5903175 L10.3060753,34.4851207 L10.3060753,42.2803555 L17.0633379,46.1751587 L23.822479,42.2803555 L23.822479,34.4851207 L17.0633379,30.5903175 Z"/></g></svg>