<svg xmlns="http://www.w3.org/2000/svg" width="50" height="50" viewBox="0 0 50 50"><g fill="none" fill-rule="evenodd" transform="translate(0 1)"><path fill="#F6D551" d="M21.7324729,39.6005274 C26.5648704,42.8583432 32.4146268,44.5698602 38.3093663,44.5385634 C33.3643996,47.597837 27.2226822,48.7018455 22.0492052,48.0205984 C22.0305382,47.9222823 22.0082046,47.7849277 21.9822044,47.6085345 L21.9404541,47.3146659 C21.8959537,46.9915184 21.8432035,46.5805341 21.7822033,46.0817132 C21.4737215,43.9074494 21.4677759,41.7290481 21.7324729,39.6005274 Z M28.1698748,15.0960167 C28.8854501,16.3218136 29.5063988,17.6518923 30.0405758,19.0947816 C21.7322641,25.1878003 16.8642099,35.8852312 18.3791946,46.5632572 L18.4910566,47.3612773 L18.4422312,47.3500275 C15.3900903,46.557298 12.9548123,45.3217415 10.7819423,43.8978103 C10.7493365,43.7871004 10.7228813,43.0422225 10.7025764,41.6631767 C10.3255377,28.6533353 16.9615487,19.2314199 26.7843165,15.6071516 L28.1698748,15.0960167 Z M32.0159162,21.9048085 L32.4465013,22.1294409 C37.774851,24.893117 43.9859726,25.8991779 50,25.0638823 C49.9416986,26.9743324 49.6437309,28.8164632 49.1353266,30.6099163 C41.7002416,32.7804704 33.4710003,31.4548749 27.2419564,27.1881218 L26.906431,26.9587399 C28.3664487,25.0395805 30.0858585,23.3291806 32.0159162,21.9048085 Z M11.1587238,3.8894119 L12.8157331,4.35943849 C14.4754493,4.83043492 16.0059808,5.3631864 17.4156944,5.96462659 C8.56138377,10.1033604 2.27418869,18.6569232 0.803377487,30.1439011 C-1.47282447,21.7435331 0.818408901,10.7516933 11.1587238,3.8894119 Z M44.3356439,7.91009003 C47.6245594,12.0774798 49.6872072,16.6222933 49.8866577,21.7405662 L48.3581521,21.9121244 C48.220256,16.01669 46.517376,11.7189583 44.3356439,7.91009003 Z M19.2174476,0.47996862 C19.7843617,0.514386896 20.7475054,0.756478577 22.1068789,1.20624366 C31.8047894,4.39661644 38.2716443,12.1235874 39.2323691,20.8206134 L39.2551154,21.0776791 L38.35528,20.8274523 C37.1600847,20.4706783 35.9931514,20.026846 34.8672045,19.4968913 L34.0306281,19.0832918 L33.6070361,18.8632404 C30.6444852,10.1141382 25.023926,4.71919827 15.5890381,1.61813536 C16.7167149,1.16310251 17.9480112,0.779545514 19.2174476,0.47996862 Z"/><path fill="#000" d="M25.1970122,41.588286 L25.5323324,41.7508877 C29.49256,43.6051758 33.8883117,44.562036 38.3093663,44.5385634 C33.3643996,47.597837 27.2226822,48.7018455 22.0492052,48.0205984 L21.9722824,47.5405572 C21.9218133,47.1915207 21.8584535,46.7052394 21.7822033,46.0817132 C21.6085144,44.8575066 21.5307352,43.6319883 21.5431727,42.4148004 C22.4845606,42.2675608 23.4054946,42.0745513 24.3048675,41.8385352 L25.1970122,41.588286 Z M10.7120045,42.1301852 C13.2602068,42.6395259 15.7333041,42.8333 18.1057071,42.7461499 C18.1084224,44.0131719 18.1983128,45.2883528 18.3791946,46.5632572 L18.4910566,47.3612773 L18.4422312,47.3500275 C15.3900903,46.557298 12.9548123,45.3217415 10.7819423,43.8978103 L10.7647673,43.7745304 C10.7454414,43.557329 10.7286063,43.0833158 10.7142617,42.3524908 L10.7120045,42.1301852 Z M50,25.0638823 C49.9416986,26.9743324 49.6437309,28.8164632 49.1353266,30.6099163 C45.9489591,31.5401253 42.6167352,31.8282237 39.3585982,31.5178949 C40.7577916,29.5797022 41.9033766,27.4534369 42.761695,25.1870858 C45.159513,25.4374649 47.5955094,25.397845 50,25.0638823 Z M44.3356439,7.91009003 C47.6245594,12.0774798 49.6872072,16.6222933 49.8866577,21.7405662 L48.3581521,21.9121244 C48.220256,16.01669 46.517376,11.7189583 44.3356439,7.91009003 Z" opacity=".297"/><path fill="#74A7F8" d="M21.3486385,8.02109519 C23.2065343,9.20731967 24.7890072,10.5865747 26.1325215,12.1895243 L25.5931998,12.3873919 C14.4105107,16.513425 6.84651331,27.2529105 7.26701569,41.7624808 L7.24833748,41.0115772 C5.90587048,39.7346574 4.80967523,38.3581187 3.86396644,36.920707 L3.86254168,36.8376531 L3.86207301,36.6329474 C3.86431012,36.1720725 3.88559394,35.4024156 3.92592447,34.3239767 C4.27170371,21.6232057 10.62347,12.4689766 19.8750864,8.63156865 L21.3486385,8.02109519 Z M25.0096672,29.8213947 L25.2979158,30.018763 C31.6612589,34.3775081 39.8260127,36.0323824 47.538784,34.5279805 C46.3581152,36.9781086 44.5753359,39.1073102 43.0847545,40.634446 C36.2962047,41.9443556 29.0971218,40.4837919 23.5082395,36.6555349 L22.4592318,35.939947 C23.0495239,33.7962724 23.9120097,31.7371928 25.0096672,29.8213947 Z M28.0399923,0 C29.5840953,0.164384317 31.1482015,0.473100154 32.744538,0.980867956 L32.7870881,0.998478123 C40.8539294,4.4430322 45.1652262,11.4838357 46.0427367,21.1256293 L46.1131166,21.9149573 C44.9924195,21.9253624 43.8730207,21.8650948 42.7639216,21.7348164 L42.7177434,21.170865 C42.0178547,12.3964412 36.5303851,4.46213029 28.0399923,0 Z"/><path fill="#000" d="M47.538784,34.5279805 C46.3581152,36.9781086 44.5753359,39.1073102 43.0847545,40.634446 C38.6367554,41.4927261 34.0125084,41.1616023 29.7804375,39.7543748 C32.391918,38.4158862 34.7345764,36.6787008 36.7440782,34.6262156 C40.287445,35.2438691 43.9617242,35.225698 47.538784,34.5279805 Z M46.0427367,21.1256293 L46.1131166,21.9149573 C45.3378975,21.9221548 44.5632997,21.8955361 43.7923025,21.8353205 C44.4088644,19.2785662 44.6744507,16.5896431 44.5466068,13.8281045 C45.3072135,16.0526689 45.8030589,18.4921295 46.0427367,21.1256293 Z" opacity=".295"/></g></svg>