<svg fill="#ffffff" width="99px" height="99px" viewBox="-51.2 -51.2 614.40 614.40" version="1.1" xml:space="preserve" xmlns="http://www.w3.org/2000/svg" xmlns:xlink="http://www.w3.org/1999/xlink" stroke="#ffffff" transform="matrix(1, 0, 0, 1, 0, 0)rotate(0)" stroke-width="0.00512"><g id="SVGRepo_bgCarrier" stroke-width="0"></g><g id="SVGRepo_tracerCarrier" stroke-linecap="round" stroke-linejoin="round" stroke="#2e3436" stroke-width="25.6"> <g id="x31_011_x2CAfl_x2Caustralia_x2Cfootball_x2Crugby_x2Crugby_ball_x2Csport_x2Csydney"> <g id="XMLID_432"> <path d="M354.865,101.313c-70.823,4.577-131.776,30.699-177.322,76.244 c-45.667,45.666-71.891,107.777-76.275,178.654c1.052,0.093,2.08,0.521,2.884,1.324l48.917,48.918 c1.193,1.193,1.588,2.869,1.217,4.396c72.044-4.038,134.03-30.223,180.178-76.37c44.796-44.796,70.891-105.398,76.012-174.568 l-54.35-54.351C354.973,104.407,354.556,102.8,354.865,101.313z M362.716,140.9c1.82,1.819,1.82,4.771,0,6.59l-17.67,17.67 l17.67,17.67c1.82,1.819,1.82,4.771,0,6.59c-0.909,0.91-2.103,1.365-3.294,1.365c-1.192,0-2.386-0.455-3.295-1.365l-17.67-17.67 l-21.364,21.363l17.67,17.67c1.82,1.819,1.82,4.771,0,6.59c-0.909,0.91-2.103,1.365-3.295,1.365c-1.191,0-2.385-0.455-3.294-1.365 l-17.67-17.67l-21.363,21.363l17.67,17.67c1.82,1.819,1.82,4.77,0,6.59c-0.909,0.909-2.103,1.364-3.295,1.364 s-2.385-0.455-3.295-1.364l-17.67-17.671l-21.362,21.363l17.669,17.67c1.82,1.82,1.82,4.771,0,6.591 c-0.909,0.91-2.103,1.365-3.295,1.365s-2.385-0.455-3.294-1.365l-17.67-17.67l-21.363,21.362l17.67,17.67 c1.82,1.819,1.82,4.771,0,6.59c-0.91,0.91-2.103,1.365-3.295,1.365c-1.193,0-2.385-0.455-3.295-1.365l-17.669-17.67 l-21.363,21.364l17.67,17.67c1.82,1.819,1.82,4.77,0,6.589c-0.91,0.91-2.103,1.365-3.295,1.365s-2.385-0.455-3.295-1.365 l-17.669-17.67l-21.364,21.364l17.67,17.67c1.82,1.819,1.82,4.77,0,6.589c-0.91,0.91-2.103,1.365-3.295,1.365 c-1.193,0-2.385-0.455-3.295-1.365l-17.669-17.67l-17.67,17.67c-0.91,0.91-2.103,1.365-3.295,1.365 c-1.193,0-2.385-0.455-3.295-1.365c-1.82-1.819-1.82-4.77,0-6.589l17.67-17.67l-17.67-17.671c-1.82-1.819-1.82-4.77,0-6.589 c1.821-1.82,4.771-1.82,6.59,0l17.67,17.67l21.363-21.363l-17.67-17.671c-1.82-1.819-1.82-4.771,0-6.59 c1.821-1.82,4.771-1.819,6.59,0l17.67,17.671l21.363-21.364l-17.67-17.669c-1.82-1.82-1.82-4.771,0-6.591 c1.82-1.819,4.77-1.819,6.59,0l17.669,17.67l21.363-21.362l-17.67-17.67c-1.82-1.82-1.82-4.771,0-6.59 c1.82-1.819,4.77-1.819,6.59,0l17.67,17.67l21.362-21.363l-17.669-17.67c-1.82-1.819-1.82-4.771,0-6.59 c1.818-1.819,4.771-1.819,6.589,0l17.67,17.67l21.362-21.363l-17.669-17.67c-1.82-1.819-1.82-4.77,0-6.59 c1.818-1.819,4.771-1.819,6.59,0l17.67,17.67l21.363-21.363l-17.669-17.67c-1.82-1.819-1.82-4.771,0-6.59 c1.818-1.819,4.771-1.819,6.589,0l17.67,17.67l17.67-17.67C357.945,139.081,360.897,139.081,362.716,140.9z" id="XMLID_433_"></path> <path d="M102.017,409.984c10.901,0.952,21.793,1.434,32.431,1.434c3.438,0,6.847-0.066,10.243-0.163 l-43.948-43.948C100.334,381.236,100.751,395.48,102.017,409.984z" id="XMLID_436_"></path> <path d="M409.992,102.009c-10.876-0.947-21.741-1.427-32.354-1.427c-4.39,0-8.738,0.094-13.059,0.252 l46.584,46.585C411.713,132.619,411.344,117.466,409.992,102.009z" id="XMLID_437_"></path> </g> </g> <g id="Layer_1"></g> </g><g id="SVGRepo_iconCarrier"> <g id="x31_011_x2CAfl_x2Caustralia_x2Cfootball_x2Crugby_x2Crugby_ball_x2Csport_x2Csydney"> <g id="XMLID_432"> <path d="M354.865,101.313c-70.823,4.577-131.776,30.699-177.322,76.244 c-45.667,45.666-71.891,107.777-76.275,178.654c1.052,0.093,2.08,0.521,2.884,1.324l48.917,48.918 c1.193,1.193,1.588,2.869,1.217,4.396c72.044-4.038,134.03-30.223,180.178-76.37c44.796-44.796,70.891-105.398,76.012-174.568 l-54.35-54.351C354.973,104.407,354.556,102.8,354.865,101.313z M362.716,140.9c1.82,1.819,1.82,4.771,0,6.59l-17.67,17.67 l17.67,17.67c1.82,1.819,1.82,4.771,0,6.59c-0.909,0.91-2.103,1.365-3.294,1.365c-1.192,0-2.386-0.455-3.295-1.365l-17.67-17.67 l-21.364,21.363l17.67,17.67c1.82,1.819,1.82,4.771,0,6.59c-0.909,0.91-2.103,1.365-3.295,1.365c-1.191,0-2.385-0.455-3.294-1.365 l-17.67-17.67l-21.363,21.363l17.67,17.67c1.82,1.819,1.82,4.77,0,6.59c-0.909,0.909-2.103,1.364-3.295,1.364 s-2.385-0.455-3.295-1.364l-17.67-17.671l-21.362,21.363l17.669,17.67c1.82,1.82,1.82,4.771,0,6.591 c-0.909,0.91-2.103,1.365-3.295,1.365s-2.385-0.455-3.294-1.365l-17.67-17.67l-21.363,21.362l17.67,17.67 c1.82,1.819,1.82,4.771,0,6.59c-0.91,0.91-2.103,1.365-3.295,1.365c-1.193,0-2.385-0.455-3.295-1.365l-17.669-17.67 l-21.363,21.364l17.67,17.67c1.82,1.819,1.82,4.77,0,6.589c-0.91,0.91-2.103,1.365-3.295,1.365s-2.385-0.455-3.295-1.365 l-17.669-17.67l-21.364,21.364l17.67,17.67c1.82,1.819,1.82,4.77,0,6.589c-0.91,0.91-2.103,1.365-3.295,1.365 c-1.193,0-2.385-0.455-3.295-1.365l-17.669-17.67l-17.67,17.67c-0.91,0.91-2.103,1.365-3.295,1.365 c-1.193,0-2.385-0.455-3.295-1.365c-1.82-1.819-1.82-4.77,0-6.589l17.67-17.67l-17.67-17.671c-1.82-1.819-1.82-4.77,0-6.589 c1.821-1.82,4.771-1.82,6.59,0l17.67,17.67l21.363-21.363l-17.67-17.671c-1.82-1.819-1.82-4.771,0-6.59 c1.821-1.82,4.771-1.819,6.59,0l17.67,17.671l21.363-21.364l-17.67-17.669c-1.82-1.82-1.82-4.771,0-6.591 c1.82-1.819,4.77-1.819,6.59,0l17.669,17.67l21.363-21.362l-17.67-17.67c-1.82-1.82-1.82-4.771,0-6.59 c1.82-1.819,4.77-1.819,6.59,0l17.67,17.67l21.362-21.363l-17.669-17.67c-1.82-1.819-1.82-4.771,0-6.59 c1.818-1.819,4.771-1.819,6.589,0l17.67,17.67l21.362-21.363l-17.669-17.67c-1.82-1.819-1.82-4.77,0-6.59 c1.818-1.819,4.771-1.819,6.59,0l17.67,17.67l21.363-21.363l-17.669-17.67c-1.82-1.819-1.82-4.771,0-6.59 c1.818-1.819,4.771-1.819,6.589,0l17.67,17.67l17.67-17.67C357.945,139.081,360.897,139.081,362.716,140.9z" id="XMLID_433_"></path> <path d="M102.017,409.984c10.901,0.952,21.793,1.434,32.431,1.434c3.438,0,6.847-0.066,10.243-0.163 l-43.948-43.948C100.334,381.236,100.751,395.48,102.017,409.984z" id="XMLID_436_"></path> <path d="M409.992,102.009c-10.876-0.947-21.741-1.427-32.354-1.427c-4.39,0-8.738,0.094-13.059,0.252 l46.584,46.585C411.713,132.619,411.344,117.466,409.992,102.009z" id="XMLID_437_"></path> </g> </g> <g id="Layer_1"></g> </g></svg>