<svg height="64px" width="64px" version="1.1" id="_x32_" xmlns="http://www.w3.org/2000/svg" xmlns:xlink="http://www.w3.org/1999/xlink" viewBox="-158.72 -158.72 829.44 829.44" xml:space="preserve" fill="#000000"><g id="SVGRepo_bgCarrier" stroke-width="0"></g><g id="SVGRepo_tracerCarrier" stroke-linecap="round" stroke-linejoin="round"></g><g id="SVGRepo_iconCarrier"> <style type="text/css"> .st0{fill:#babdb6;} </style> <g> <path class="st0" d="M511.999,288.414l-12.415-23.7l-104.08,54.502l-37.624-37.622l86.994-63.475l-13.337-18.288l-89.861,65.558 l-39.534-39.535l76.474-76.465l-16.006-16.015l-76.474,76.474l-39.526-39.526l65.558-89.86L293.88,67.123l-63.466,86.994 l-37.632-37.623l54.504-104.088L223.585,0L78.438,277.186l-1.433-1.442l-52.131,52.13c-9.58,9.572-16.377,21.098-20.381,33.479 c-6.014,18.593-5.865,39.032-0.304,58.754c5.577,19.738,16.6,38.858,32.713,54.988c21.509,21.485,48.316,33.941,74.859,36.445 c13.272,1.244,26.494-0.024,38.884-4.036c12.382-4.004,23.907-10.8,33.48-20.381l52.131-52.122l-1.45-1.45L511.999,288.414z M374.49,330.214l-60.929,31.907L285.7,334.25l53.671-39.156L374.49,330.214z M323.166,278.89l-53.662,39.164l-29.781-29.772 l46.413-46.421L323.166,278.89z M223.716,304.28l27.276,27.276l-59.075,43.102l-19.285-19.286L223.716,304.28z M156.626,339.366 l-19.285-19.285l43.101-59.076l27.269,27.276L156.626,339.366z M233.108,188.833l37.022,37.021l-46.414,46.414l-29.772-29.764 L233.108,188.833z M181.785,137.51l35.119,35.119L177.748,226.3l-26.008-26l-5.964,5.972L181.785,137.51z M138.882,219.446 l25.364,25.364l-43.102,59.075l-17.382-17.382L138.882,219.446z M165.21,468.201c-6.484,6.476-14.178,11.048-22.811,13.857 c-12.918,4.202-28.035,4.3-43.242,0.008c-15.2-4.292-30.398-12.942-43.332-25.892c-17.267-17.243-26.88-38.538-28.726-58.433 c-0.939-9.943,0.05-19.516,2.842-28.141c2.809-8.634,7.373-16.328,13.848-22.811l44.123-44.123l121.42,121.421L165.21,468.201z M208.122,390.854l59.066-43.093l25.366,25.357l-67.058,35.118L208.122,390.854z"></path> </g> </g></svg>