<svg fill="#babdb6" version="1.1" id="Capa_1" xmlns="http://www.w3.org/2000/svg" xmlns:xlink="http://www.w3.org/1999/xlink" width="64px" height="64px" viewBox="-184.93 -184.93 869.66 869.66" xml:space="preserve"><g id="SVGRepo_bgCarrier" stroke-width="0"></g><g id="SVGRepo_tracerCarrier" stroke-linecap="round" stroke-linejoin="round"></g><g id="SVGRepo_iconCarrier"> <g> <g> <path d="M439.658,296.974c4.093-10.901-1.252-22.845-12.115-26.928c-1.712-0.622-3.452-1.033-5.212-1.243l-74.616-10.318 l-92.268-143.457l28.859,3.94l41.931,64.91c2.468,4.064,6.627,6.98,11.667,7.698c8.96,1.262,17.26-4.982,18.522-13.914 c0.688-4.867-0.842-9.476-3.777-12.928l-45.221-69.778c-2.477-4.025-6.646-6.971-11.676-7.688l-78.184-11.026 c-5.728-0.793-11.235,0.756-15.529,3.911l-56.887,42.802l-35.486-47.076c-2.563-2.878-6.12-4.896-10.194-5.46 c-9.256-1.31-17.805,5.164-19.115,14.401c-0.564,4.036,0.335,7.908,2.285,11.141l42.745,57.184 c12.995,17.26,26.946,6.168,26.946,6.168l34.885-26.421l40,61.984l-49.945,37.59c0,0-10.395,7.248-7.603,25.044l9.143,112.828 c0.611,9.744,7.994,18.083,18.063,19.488c11.484,1.626,22.127-6.378,23.753-17.862c0.248-1.808,0.268-3.615,0.086-5.364 l-7.516-92.489l56.552-41.367l36.022,53.731c0,0,5.699,9.524,24.174,11.456l86.713,12.384 C426.338,311.844,436.072,306.469,439.658,296.974z"></path> <circle cx="181.414" cy="47.191" r="32.503"></circle> <path d="M493.764,459.067l-35.697-25.321c-24.585-17.471-63.753-17.528-89.122-0.153c-15.894,10.901-44.485,10.768-62.443-0.268 c-27.378-16.84-69.022-16.734-94.803,0.229c-16.619,10.921-45.575,10.796-63.218-0.268c-26.774-16.82-69.979-16.906-98.341-0.21 L7.07,458.408c-6.827,4.025-9.104,12.813-5.087,19.641c2.678,4.552,7.459,7.067,12.374,7.067c2.467,0,4.981-0.632,7.258-1.979 l43.069-25.341c19.269-11.332,50.652-11.428,68.534-0.201c27.023,16.964,68.42,16.926,94.248-0.066 c16.658-10.979,45.967-10.863,64.002,0.238c27.463,16.869,68.61,16.658,93.674-0.497c15.587-10.681,41.358-10.758,56.305-0.134 l35.696,25.331c6.465,4.571,15.415,3.061,19.995-3.395C501.748,472.608,500.228,463.648,493.764,459.067z"></path> <circle cx="379.156" cy="352.292" r="31.011"></circle> </g> </g> </g></svg>