<svg fill="#babdb6" version="1.1" id="Capa_1" xmlns="http://www.w3.org/2000/svg" xmlns:xlink="http://www.w3.org/1999/xlink" width="64px" height="64px" viewBox="-130.29 -130.29 803.46 803.46" xml:space="preserve"><g id="SVGRepo_bgCarrier" stroke-width="0"></g><g id="SVGRepo_tracerCarrier" stroke-linecap="round" stroke-linejoin="round"></g><g id="SVGRepo_iconCarrier"> <g> <g> <path d="M112.446,60.683c0,0,25.369,9.027,21.678,38.365l-46.263,26.938c31.633,19.928,73.488,10.767,93.779-20.741 c20.416-31.7,11.255-73.947-20.435-94.363c-31.7-20.416-73.957-11.265-94.363,20.435c-12.02,18.666-13.55,40.908-6.502,60.282 L112.446,60.683z"></path> <path d="M328.539,326.606c5.326,0,10.69-1.683,15.242-5.173c11.017-8.435,13.11-24.193,4.676-35.219l-123.346-161.1 c-8.434-11.016-24.193-13.11-35.209-4.667c-1.282,0.985-2.419,2.084-3.462,3.251l-45.651,32.13 c-9.075,6.388-10.939,18.686-4.15,27.464l46.521,63.954L123.213,299.2c-13.99,12.135-16.18,33.048-4.992,47.812l111.231,146.784 c6.914,9.133,17.413,13.933,28.047,13.923c7.401,0,14.869-2.323,21.209-7.133c15.481-11.733,18.513-33.784,6.799-49.267 l-91.351-120.535l46.608-40.392c3.49-3.022,6.177-6.608,8.167-10.471l20.034-14.899l39.617,51.743 C313.516,323.212,320.984,326.606,328.539,326.606z"></path> <path d="M190.877,482.6c-5.556,0-10.05,4.494-10.05,10.05v20.091c0,17.185,21.592,30.142,50.232,30.142h67.817 c5.536,0,10.04-4.494,10.04-10.041c0-5.556-4.504-10.05-10.04-10.05h-67.817c-19.44,0-30.141-7.545-30.141-10.051v-20.091 C200.918,487.094,196.433,482.6,190.877,482.6z"></path> <path d="M313.898,203.202c0.938,1.167,1.53,2.094,1.817,2.562l0.028,0.966c0.02,1.846,1.769,4.408,3.213,6.216l19.699,24.422 c2.295,2.878,6.809,5.394,10.471,5.843l3.089,0.373c2.61,0.315,6.817,1.645,9.16,2.878l17.758,9.371 c2.151,1.081,5.403,2.716,6.455,4.188c1.415,1.999,2.285,4.944,2.486,8.596c0.172,3.396,1.816,8.215,4.561,10.902l49.897,48.224 c5.308,5.106,13.961,5.184,19.354,0.153l21.124-19.785c2.457-2.313,3.787-5.202,3.748-8.166c-0.057-3.614-2.104-6.885-5.623-8.95 l-82.83-48.961l2.257-5.393c0.469-1.09,0.688-2.247,0.66-3.375c-0.058-3.07-1.741-6.015-4.581-7.497l-16.926-8.836 c-1.377-0.698-2.868-0.975-4.312-0.822c-0.611-1.779-1.501-3.5-2.734-5.021c-2.334-2.917-5.518-4.886-8.97-5.575 c-3.614-0.698-7.086,0.076-9.744,2.228c-0.431,0.363-0.804,0.793-1.167,1.224l-16.591-16.936L221.449,58.827 c-3.117-3.624-6.703-4.857-8.931-3.06c-0.698,0.574-1.205,1.311-1.482,2.152c-2.17-1.205-4.695-1.167-6.512,0.296 c-2.496,1.999-2.218,6.512,0.545,9.936L313.898,203.202z M376.122,221.457c0.373,0.01,0.765,0.067,1.1,0.258l16.935,8.826 c1.396,0.717,2.075,2.563,1.473,4.017l-1.97,4.724l-19.584-11.542C375.318,225.932,376.007,223.78,376.122,221.457z M357.341,211.933c1.396-1.138,3.28-1.54,5.317-1.128c2.208,0.43,4.255,1.731,5.823,3.653c1.052,1.339,1.616,2.85,1.941,4.37 c-0.507,0.583-1.005,1.167-1.32,1.903l-1.262,2.926c-1.559-1.186-3.108-2.505-4.169-3.567l-7.163-7.315 C356.758,212.468,357.025,212.181,357.341,211.933z"></path> </g> </g> </g></svg>