<svg fill="#babdb6" height="64px" width="64px" version="1.1" id="Capa_1" xmlns="http://www.w3.org/2000/svg" xmlns:xlink="http://www.w3.org/1999/xlink" viewBox="-96.91 -96.91 528.01 528.01" xml:space="preserve"><g id="SVGRepo_bgCarrier" stroke-width="0"></g><g id="SVGRepo_tracerCarrier" stroke-linecap="round" stroke-linejoin="round"></g><g id="SVGRepo_iconCarrier"> <path d="M281.784,139.468c-2.421-4.172-6.109-13.979-6.109-13.979c-7.455-22.526-8.465-46.631-2.922-69.707 c0,0,4.353-18.511,4.055-22.746c-1.219-17.777-15.544-31.953-33.319-32.975c-9.892-0.57-19.284,2.845-26.461,9.619 c-7.075,6.679-11.134,16.09-11.134,25.821c0,3.544,4.122,20.155,4.122,20.155c5.588,23.147,4.575,47.334-2.94,69.975 c0,0-3.23,8.668-5.235,12.302l-0.462-1.448c-7.457-22.529-8.468-46.633-2.924-69.707c0,0,4.345-18.506,4.054-22.744 c-1.219-17.771-15.542-31.946-33.318-32.973c-20.552-1.188-37.597,15.171-37.597,35.439c0,3.54,4.124,20.157,4.124,20.157 c5.585,23.152,4.57,47.337-2.959,70.01l-0.408,1.278c-2.01-3.661-5.276-12.458-5.276-12.458c-7.454-22.525-8.464-46.63-2.921-69.707 c0,0,4.353-18.509,4.055-22.746c-1.22-17.777-15.545-31.953-33.319-32.975c-9.892-0.57-19.284,2.845-26.461,9.619 c-7.075,6.679-11.134,16.09-11.134,25.821c0,3.546,4.121,20.156,4.121,20.156c5.589,23.145,4.575,47.332-2.941,69.979 c0,0-3.649,9.668-6.058,13.795c-12.312,21.143-19.372,51.604-19.372,83.571c0,38.272,9.924,73.442,26.548,94.078l1.333,1.655 l2.053,0.548c9.697,2.587,19.729,3.899,29.816,3.899s20.118-1.312,29.815-3.899l2.058-0.549c0,0,1.498-1.875,1.581-1.98 c2.359,4.133,4.909,7.93,7.645,11.327l1.334,1.656l2.055,0.547c9.722,2.591,19.752,3.905,29.813,3.905s20.091-1.314,29.813-3.905 l2.055-0.547l1.334-1.656c2.736-3.396,5.286-7.194,7.644-11.326c0.083,0.105,1.581,1.981,1.581,1.981l2.058,0.549 c9.697,2.587,19.729,3.899,29.815,3.899s20.118-1.312,29.815-3.899l2.053-0.548l1.333-1.655 c8.085-10.036,14.793-23.895,19.399-40.077c4.678-16.415,7.149-35.088,7.149-54.001C301.143,191.031,294.085,160.58,281.784,139.468 z M225.951,19.134c4.547-4.292,10.51-6.449,16.789-6.094c11.256,0.647,20.326,9.626,21.099,20.896 c0.189,2.687-0.1,5.343-0.859,7.906l-2.866,10.9c-0.738,3.071-1.365,6.159-1.892,9.258H224.58c-0.535-3.144-1.175-6.276-1.927-9.391 c0,0-2.209-8.687-2.769-10.516c-0.657-2.132-0.991-4.35-0.991-6.593C218.893,29.242,221.4,23.43,225.951,19.134z M256.266,83.001 h-29.734c-0.048-2.668-0.175-5.335-0.375-8h30.486C256.442,77.666,256.315,80.333,256.266,83.001z M168.44,24.04 c11.072,0.64,20.34,9.813,21.1,20.883c0.185,2.695-0.104,5.361-0.859,7.923c0,0-1.332,4.511-1.819,6.538 c0,0-2.412,10.517-2.94,13.617H150.28c-0.535-3.144-2.94-13.6-2.94-13.6c-0.451-1.87-1.01-3.873-1.757-6.3 c-0.656-2.136-0.989-4.356-0.989-6.6C144.593,33.649,155.413,23.274,168.44,24.04z M181.967,94.001h-29.736 c-0.048-2.668-0.175-5.335-0.375-8h30.487C182.142,88.666,182.015,91.333,181.967,94.001z M77.351,19.134 c4.547-4.292,10.505-6.449,16.789-6.094c11.255,0.647,20.325,9.626,21.099,20.896c0.189,2.687-0.1,5.343-0.861,7.909l-2.864,10.897 c-0.738,3.071-1.365,6.159-1.892,9.258H75.98c-0.535-3.144-1.175-6.275-1.927-9.39c0,0-2.246-8.811-2.77-10.517 c-0.657-2.129-0.99-4.348-0.99-6.593C70.293,29.242,72.8,23.43,77.351,19.134z M107.666,83.001H77.932 c-0.048-2.668-0.175-5.335-0.375-8h30.486C107.842,77.666,107.714,80.333,107.666,83.001z M117.166,307.255 c-15.904,3.885-32.843,3.884-48.749,0c-13.839-18.432-22.374-50.425-22.374-84.253c0-29.737,6.417-57.813,17.604-77.024 c2.883-4.941,7.175-16.278,7.175-16.278c3.644-10.978,5.896-22.293,6.752-33.698h30.448c0.851,11.358,3.085,22.62,6.698,33.537 c0,0,4.327,11.471,7.229,16.469c1.215,2.081,2.393,4.324,3.522,6.685c-11.532,21.019-18.127,50.446-18.127,81.309 c0,25.713,4.486,50.019,12.469,69.466C118.953,304.78,118.071,306.049,117.166,307.255z M191.467,318.254 c-15.947,3.894-32.8,3.894-48.749,0c-13.84-18.435-22.375-50.428-22.375-84.253c0-29.743,6.418-57.819,17.609-77.029 c2.889-4.958,7.166-16.276,7.166-16.276c3.645-10.975,5.897-22.289,6.754-33.695h30.45c0.851,11.349,3.083,22.6,6.692,33.5 c0,0,4.332,11.512,7.234,16.497c11.182,19.209,17.595,47.276,17.595,77.003C213.843,267.826,205.307,299.819,191.467,318.254z M281.491,273.441c-3.876,13.615-9.291,25.251-15.722,33.813c-15.908,3.885-32.845,3.885-48.749,0 c-0.905-1.205-1.787-2.474-2.646-3.788c7.983-19.448,12.469-43.753,12.469-69.466c0-30.861-6.596-60.291-18.129-81.311 c1.124-2.352,2.306-4.605,3.534-6.715c2.884-4.946,7.174-16.277,7.174-16.277c3.644-10.978,5.895-22.293,6.752-33.698h30.448 c0.851,11.358,3.085,22.62,6.698,33.537c0,0,4.325,11.47,7.226,16.465c11.183,19.194,17.597,47.258,17.597,76.998 C288.143,240.726,285.843,258.167,281.491,273.441z"></path> </g></svg>