<svg height="64px" width="64px" version="1.1" id="_x32_" xmlns="http://www.w3.org/2000/svg" xmlns:xlink="http://www.w3.org/1999/xlink" viewBox="-256 -256 1024.00 1024.00" xml:space="preserve" fill="#babdb6" stroke="#babdb6"><g id="SVGRepo_bgCarrier" stroke-width="0"></g><g id="SVGRepo_tracerCarrier" stroke-linecap="round" stroke-linejoin="round"></g><g id="SVGRepo_iconCarrier"> <style type="text/css"> .st0{fill:#babdb6;} </style> <g> <path class="st0" d="M496.08,339.042h-60.508c-8.794,0-15.92,7.126-15.92,15.928v14.326c0,8.794,7.126,15.92,15.92,15.92h60.508 c8.786,0,15.92-7.126,15.92-15.92V354.97C512,346.169,504.866,339.042,496.08,339.042z"></path> <path class="st0" d="M498.73,329.993c0-2.868-2.323-5.19-5.191-5.19h-5.693v-9.682c0-2.963-1.208-5.67-3.145-7.607 c-1.936-1.936-4.652-3.145-7.6-3.145H450.43v7.964h26.672c0.779,0,1.448,0.306,1.972,0.816c0.51,0.517,0.816,1.186,0.816,1.972 v9.682h-40.722c-2.868,0-5.19,2.323-5.19,5.19v4.368h64.753V329.993z"></path> <path class="st0" d="M303.472,212.734c23.732,0,42.976-19.24,42.976-42.98c0-23.732-19.244-42.971-42.976-42.971 c-23.735,0-42.971,19.24-42.971,42.971C260.501,193.494,279.737,212.734,303.472,212.734z"></path> <path class="st0" d="M396.298,313.426l-57.266-15.928l-40.303-45.054c0,0-36.748-53.934-79.424-18.374L92.466,335.431l-72.92,5.606 C8.517,341.889,0,351.083,0,362.148v1.9c0,11.691,9.478,21.169,21.169,21.169h71.526c12.277,0,24.347-3.203,35.008-9.296 l50.113-28.631l54.528-11.858l-13.71,26.171c-2.617,5.001-2.432,11.006,0.491,15.84c2.919,4.818,8.156,7.774,13.798,7.774h3.265 c11.021,0,21.412-5.154,28.088-13.933l28.769-37.854l-15.178-5.832l3.37-8.772l18.112,6.959l21.41,8.546 c3.828,1.528,7.789,2.722,11.822,3.552l54.86,11.757c4.738,1.019,9.703,0.094,13.758-2.57c4.062-2.664,6.879-6.85,7.833-11.611 l0.204-0.998C411.098,325.145,405.456,315.966,396.298,313.426z"></path> </g> </g></svg>