<svg fill="#babdb6" height="64px" width="64px" version="1.1" id="Capa_1" xmlns="http://www.w3.org/2000/svg" xmlns:xlink="http://www.w3.org/1999/xlink" viewBox="-92.43 -92.43 464.94 464.94" xml:space="preserve"><g id="SVGRepo_bgCarrier" stroke-width="0"></g><g id="SVGRepo_tracerCarrier" stroke-linecap="round" stroke-linejoin="round"></g><g id="SVGRepo_iconCarrier"> <g> <path d="M230.489,35.774c-0.877,0-1.777,0.126-2.677,0.373l-10.172,2.802l-10.563-25.73C204.085,5.93,195.242,0,187.362,0H88.511 c-7.879,0-16.724,5.93-19.717,13.219L58.246,38.914l-10.045-2.767c-0.899-0.247-1.799-0.373-2.676-0.373 c-4.808,0-8.297,3.672-8.297,8.732v5.996c0,5.906,4.806,10.711,10.712,10.711h1.151l-1.705,4.153 c-2.78,6.771-5.043,18.236-5.043,25.559v51.112c0,5.906,4.806,10.712,10.712,10.712h13.99c5.906,0,10.712-4.806,10.712-10.712 v-12.764h120.357v12.764c0,5.906,4.806,10.712,10.712,10.712h13.988c5.906,0,10.712-4.806,10.712-10.712V90.925 c0-7.321-2.262-18.787-5.042-25.558l-1.705-4.153h1.293c5.906,0,10.712-4.805,10.712-10.711v-5.996 C238.786,39.446,235.296,35.774,230.489,35.774z M65.927,55.396l15.977-38.919c1.789-4.36,7.11-7.927,11.823-7.927h88.418 c4.713,0,10.034,3.567,11.823,7.927l15.978,38.919c1.789,4.36-0.603,7.927-5.315,7.927H71.243 C66.53,63.324,64.138,59.756,65.927,55.396z M101.594,104.622c0,2.357-1.928,4.284-4.284,4.284H66.957 c-2.356,0-4.284-1.928-4.284-4.284V90.055c0-2.356,1.928-4.284,4.284-4.284H97.31c2.356,0,4.284,1.928,4.284,4.284V104.622z M212.912,104.622c0,2.357-1.928,4.284-4.284,4.284h-30.352c-2.356,0-4.284-1.928-4.284-4.284V90.055 c0-2.356,1.928-4.284,4.284-4.284h30.352c2.357,0,4.284,1.928,4.284,4.284V104.622z"></path> <path d="M95.075,215.158c-3.042-3.213-6.414-5.855-9.398-8.191c-4.26-3.336-7.952-6.228-9.417-9.614 c-1.408-4.375,0.213-10.732,3.834-14.91c4.341-5.009,3.799-12.587-1.209-16.928c-5.009-4.341-12.587-3.799-16.928,1.209 c-9.334,10.77-12.649,26.384-8.249,38.852l0.174,0.463c3.794,9.483,11.115,15.217,16.998,19.824 c2.596,2.033,5.048,3.953,6.871,5.906l0.442,0.45c7.635,7.362,10.111,14.324,1.35,30.003c-3.232,5.785-1.164,13.096,4.622,16.329 c1.853,1.035,3.861,1.526,5.843,1.526c4.206,0,8.288-2.216,10.486-6.148C105.288,265.348,119.849,239.287,95.075,215.158z"></path> </g> <g> <path d="M223.737,280.077c-1.981,0-3.99-0.491-5.843-1.526c-5.786-3.233-7.855-10.544-4.622-16.329 c8.762-15.679,6.285-22.641-1.35-30.003l-0.442-0.45c-1.823-1.953-4.275-3.873-6.871-5.906 c-5.883-4.607-13.204-10.341-16.998-19.824l-0.174-0.463c-4.4-12.468-1.085-28.081,8.249-38.852 c4.341-5.008,11.919-5.55,16.928-1.209c5.008,4.341,5.55,11.919,1.209,16.928c-3.621,4.178-5.242,10.535-3.834,14.91 c1.465,3.387,5.157,6.278,9.417,9.614c2.984,2.337,6.356,4.979,9.398,8.191c24.774,24.129,10.214,50.19,5.419,58.771 C232.025,277.861,227.943,280.077,223.737,280.077z"></path> </g> </g></svg>