<svg fill="#abadb6" width="64px" height="64px" viewBox="-220.16 -220.16 952.32 952.32" data-name="Layer 1" id="Layer_1" xmlns="http://www.w3.org/2000/svg" stroke="#abadb6"><g id="SVGRepo_bgCarrier" stroke-width="0"></g><g id="SVGRepo_tracerCarrier" stroke-linecap="round" stroke-linejoin="round"></g><g id="SVGRepo_iconCarrier"><title></title><path d="M376.25,34.76H327.58A100.16,100.16,0,0,0,267,55a102,102,0,0,0-36,51.17,20.46,20.46,0,0,1-19.54,14.14h-19.6A157.4,157.4,0,0,0,34.67,277.05c-.1,41.4,16.23,80.64,46,110.47a158.37,158.37,0,0,0,101.2,46.64,8,8,0,0,0,2.51.41h53.86v34.66a8,8,0,0,0,8,8h128a8,8,0,0,0,8-8V434.4a101.2,101.2,0,0,0,95.09-100.9V135.84A101.2,101.2,0,0,0,376.25,34.76ZM215.67,354.58H191.81a77.15,77.15,0,0,1,0-154.3h81.91A32.81,32.81,0,0,0,306.5,167.5V135.84a21.11,21.11,0,0,1,21.08-21.08h48.67a21.1,21.1,0,0,1,21.08,21.08V333.5a21.1,21.1,0,0,1-21.08,21.08Zm-23.29,16h15.29v48H192.38Zm61.86,90.66V434.58h112v26.66ZM461.33,333.5a85.17,85.17,0,0,1-85.08,85.08H223.67v-48H376.25a37.12,37.12,0,0,0,37.08-37.08V135.84a37.12,37.12,0,0,0-37.08-37.08H327.58a37.13,37.13,0,0,0-37.08,37.08V167.5a16.8,16.8,0,0,1-16.78,16.78H191.81a93.15,93.15,0,0,0-15.43,185v16.18a108.74,108.74,0,0,1-20.61-5,8,8,0,1,0-5.3,15.09,124.47,124.47,0,0,0,25.91,6.06v15.95A142.73,142.73,0,0,1,92,376.23c-26.75-26.81-41.42-62-41.33-99.14A141.38,141.38,0,0,1,191.82,136.28h19.6a36.13,36.13,0,0,0,34.83-25.43,85.77,85.77,0,0,1,81.33-60.09h48.67a85.17,85.17,0,0,1,85.08,85.08Zm-331-156a8,8,0,0,1-1.84,11.16,113.49,113.49,0,0,0-13.79,11.72,115.47,115.47,0,0,0-7.85,8.72A8,8,0,0,1,94.4,199a130.11,130.11,0,0,1,9-10,126.84,126.84,0,0,1,15.77-13.4A8,8,0,0,1,130.32,177.45Zm124.89-17.17a8,8,0,0,1-8,8h-32a8,8,0,0,1,0-16h32A8,8,0,0,1,255.21,160.28Zm-64-.27a8,8,0,0,1-7.4,8.56,108,108,0,0,0-29.05,6.18,7.88,7.88,0,0,1-2.72.48,8,8,0,0,1-2.73-15.52,124.21,124.21,0,0,1,33.34-7.1A8,8,0,0,1,191.2,160ZM67.73,261a123.93,123.93,0,0,1,9-32.88,8,8,0,0,1,14.69,6.33,107.75,107.75,0,0,0-7.86,28.63,8,8,0,0,1-7.93,7,7.61,7.61,0,0,1-1-.07A8,8,0,0,1,67.73,261ZM277.39,118.56a53,53,0,0,0-2.88,17.28v11.74a8,8,0,1,1-16,0V135.84a68.68,68.68,0,0,1,3.76-22.5,8,8,0,1,1,15.12,5.22ZM91.91,321.4a8,8,0,1,1-14.63,6.46,123.8,123.8,0,0,1-9.37-32.77,8,8,0,0,1,15.84-2.25A108.42,108.42,0,0,0,91.91,321.4Zm4.34,24.2a8,8,0,0,1,11.26,1.09,110.42,110.42,0,0,0,21.83,20.2,8,8,0,1,1-9.18,13.1,125.89,125.89,0,0,1-25-23.13A8,8,0,0,1,96.25,345.6Zm349.09-14.08v2a69.05,69.05,0,0,1-8.19,32.6,8,8,0,1,1-14.09-7.57,53,53,0,0,0,6.28-25v-2a8,8,0,0,1,16,0Zm0-128v32a8,8,0,1,1-16,0v-32a8,8,0,0,1,16,0Zm0,64v32a8,8,0,0,1-16,0v-32a8,8,0,0,1,16,0Zm-8-136a8,8,0,0,1,8,8v32a8,8,0,1,1-16,0v-32A8,8,0,0,1,437.34,131.52ZM438,105a8,8,0,0,1-3.57,10.74,7.91,7.91,0,0,1-3.58.85,8,8,0,0,1-7.15-4.41,53.5,53.5,0,0,0-18.26-20.58,8,8,0,1,1,8.83-13.34A69.57,69.57,0,0,1,438,105ZM290.2,394.58a8,8,0,0,1-8,8h-32a8,8,0,0,1,0-16h32A8,8,0,0,1,290.2,394.58ZM387.88,75.34a8,8,0,0,1-8,7.53h-.47c-1.05-.07-2.12-.1-3.17-.1H347.9a8,8,0,0,1,0-16h28.36c1.36,0,2.74,0,4.11.12A8,8,0,0,1,387.88,75.34Zm-64.05-1a8,8,0,0,1-6.34,9.37A53.05,53.05,0,0,0,292.8,95.78a8,8,0,0,1-10.5-12.07A69,69,0,0,1,314.46,68,8,8,0,0,1,323.83,74.35Zm91.42,306.81a8,8,0,0,1-2.56,11,69,69,0,0,1-34.24,10.37h-.26a8,8,0,0,1-.25-16,53,53,0,0,0,26.29-8A8,8,0,0,1,415.25,381.16ZM354.2,394.58a8,8,0,0,1-8,8h-32a8,8,0,0,1,0-16h32A8,8,0,0,1,354.2,394.58Z"></path></g></svg>