<svg height="64px" width="64px" version="1.1" id="_x32_" xmlns="http://www.w3.org/2000/svg" xmlns:xlink="http://www.w3.org/1999/xlink" viewBox="-153.6 -153.6 819.20 819.20" xml:space="preserve" fill="#ffffff" stroke="#ffffff" stroke-width="5.12"><g id="SVGRepo_bgCarrier" stroke-width="0"></g><g id="SVGRepo_tracerCarrier" stroke-linecap="round" stroke-linejoin="round" stroke="#CCCCCC" stroke-width="7.168000000000001"> <style type="text/css"> .st0{fill:#babdb6;} </style> <g> <path class="st0" d="M511.98,444.96c-0.199-7.957-3.446-15.516-9.06-21.122c-0.352-0.36-0.72-0.704-1.088-1.042l-0.13-0.115 l-0.13-0.122c0,0-0.834-0.712-2.359-2.03c-5.337-4.641-19.054-16.587-33.994-29.935c-7.459-6.67-15.224-13.686-22.393-20.302 c-7.153-6.602-13.716-12.82-18.686-17.798c-0.398-0.398-0.789-0.789-1.164-1.164c-2.106-2.136-3.516-4.135-4.511-5.981 c-1.478-2.795-2.084-5.322-2.252-7.88c-0.161-2.527,0.176-5.069,0.804-7.359c3.01-11.151,7.95-25.824,12.184-43.001 c6.349-25.793,11.09-57.567,5.085-93.223c-2.994-17.813-8.684-36.553-18.027-55.844c-9.351-19.299-22.339-39.134-39.861-59.275 c-3.714-4.273-7.559-8.401-11.533-12.368C325.334,26.876,273.772,2.683,219.927,0.21c-26.904-1.241-54.35,3.002-80.863,13.432 c-26.513,10.407-52.046,27.003-75.227,50.192c-23.19,23.181-39.777,48.714-50.2,75.227c-15.645,39.776-17.323,81.614-7.596,120.663 c9.718,39.088,30.71,75.487,60.362,105.139c3.975,3.974,8.095,7.819,12.368,11.533c26.842,23.365,53.178,38.674,78.359,48.024 c18.892,7.016,37.096,10.676,54.25,12.009c25.747,2.022,49.074-1.165,69.154-5.682c10.04-2.252,19.284-4.84,27.6-7.283 c8.31-2.451,15.722-4.756,21.98-6.456c3.063-0.828,6.525-1.149,9.917-0.46c1.723,0.337,3.461,0.927,5.314,1.922 c1.861,0.988,3.853,2.397,5.981,4.504c0.384,0.375,0.774,0.766,1.172,1.164c5.683,5.682,12.989,13.432,20.654,21.787 c11.51,12.544,23.886,26.482,33.367,37.258c4.74,5.391,8.761,9.994,11.587,13.248c1.416,1.632,2.535,2.91,3.301,3.791 c0.758,0.881,1.156,1.348,1.156,1.348l0.115,0.122l0.107,0.13c0.345,0.376,0.697,0.743,1.057,1.096 c5.606,5.605,13.165,8.86,21.122,9.06l0.834,0.023l-0.827-0.023c8.462,0.206,16.65-3.064,22.638-9.052l35.32-35.32 c5.988-5.989,9.251-14.176,9.052-22.638l0.015,0.529L511.98,444.96z M186.322,403.751c-11.533-2.826-23.496-7.022-35.91-13.034 c-16.87-8.179-34.584-19.697-53.01-35.734c-3.784-3.285-7.428-6.686-10.928-10.193c-34.937-34.921-55.821-80.043-57.912-126.161 c-1.049-23.074,2.55-46.432,11.496-69.184c8.944-22.753,23.234-44.923,43.85-65.539C104.526,63.29,126.696,49,149.448,40.056 c34.118-13.395,69.651-14.85,103.439-6.479c33.772,8.394,65.723,26.704,91.914,52.895c3.5,3.5,6.9,7.145,10.186,10.929 c21.374,24.574,34.738,47.848,42.825,69.612c2.442,6.571,4.387,13.012,5.935,19.314L186.322,403.751z M482.856,447.533 l-35.312,35.32c-0.498,0.49-1.172,0.773-1.877,0.75c-0.674-0.015-1.302-0.291-1.769-0.75l-0.008-0.008 c-1.402-1.631-12.62-14.582-26.459-30.166c-7.397-8.324-15.546-17.415-23.372-25.938c-7.827-8.531-15.301-16.48-21.489-22.676 c-0.436-0.429-0.865-0.857-1.294-1.279c-3.952-3.913-8.202-7.03-12.552-9.358c-6.548-3.5-13.294-5.169-19.467-5.545 c-6.188-0.383-11.802,0.444-16.58,1.746c-12.437,3.378-26.497,8.125-42.35,12.015c-18.931,4.649-40.205,8.08-63.479,6.701 l191.47-191.47c1.226,20.807-1.355,40.06-5.253,57.436c-2.06,9.137-4.458,17.76-6.831,25.808 c-2.367,8.065-4.694,15.547-6.609,22.562c-1.723,6.349-2.634,14.252-0.911,22.906c0.866,4.312,2.389,8.776,4.718,13.126 c2.32,4.366,5.445,8.608,9.351,12.56c0.428,0.429,0.857,0.858,1.294,1.286c6.188,6.196,14.144,13.67,22.668,21.504 c24.514,22.492,53.715,47.772,56.104,49.832l0.008,0.008c0.46,0.468,0.735,1.103,0.75,1.761 C483.622,446.37,483.354,447.043,482.856,447.533z"></path> </g> </g><g id="SVGRepo_iconCarrier"> <style type="text/css"> .st0{fill:#babdb6;} </style> <g> <path class="st0" d="M511.98,444.96c-0.199-7.957-3.446-15.516-9.06-21.122c-0.352-0.36-0.72-0.704-1.088-1.042l-0.13-0.115 l-0.13-0.122c0,0-0.834-0.712-2.359-2.03c-5.337-4.641-19.054-16.587-33.994-29.935c-7.459-6.67-15.224-13.686-22.393-20.302 c-7.153-6.602-13.716-12.82-18.686-17.798c-0.398-0.398-0.789-0.789-1.164-1.164c-2.106-2.136-3.516-4.135-4.511-5.981 c-1.478-2.795-2.084-5.322-2.252-7.88c-0.161-2.527,0.176-5.069,0.804-7.359c3.01-11.151,7.95-25.824,12.184-43.001 c6.349-25.793,11.09-57.567,5.085-93.223c-2.994-17.813-8.684-36.553-18.027-55.844c-9.351-19.299-22.339-39.134-39.861-59.275 c-3.714-4.273-7.559-8.401-11.533-12.368C325.334,26.876,273.772,2.683,219.927,0.21c-26.904-1.241-54.35,3.002-80.863,13.432 c-26.513,10.407-52.046,27.003-75.227,50.192c-23.19,23.181-39.777,48.714-50.2,75.227c-15.645,39.776-17.323,81.614-7.596,120.663 c9.718,39.088,30.71,75.487,60.362,105.139c3.975,3.974,8.095,7.819,12.368,11.533c26.842,23.365,53.178,38.674,78.359,48.024 c18.892,7.016,37.096,10.676,54.25,12.009c25.747,2.022,49.074-1.165,69.154-5.682c10.04-2.252,19.284-4.84,27.6-7.283 c8.31-2.451,15.722-4.756,21.98-6.456c3.063-0.828,6.525-1.149,9.917-0.46c1.723,0.337,3.461,0.927,5.314,1.922 c1.861,0.988,3.853,2.397,5.981,4.504c0.384,0.375,0.774,0.766,1.172,1.164c5.683,5.682,12.989,13.432,20.654,21.787 c11.51,12.544,23.886,26.482,33.367,37.258c4.74,5.391,8.761,9.994,11.587,13.248c1.416,1.632,2.535,2.91,3.301,3.791 c0.758,0.881,1.156,1.348,1.156,1.348l0.115,0.122l0.107,0.13c0.345,0.376,0.697,0.743,1.057,1.096 c5.606,5.605,13.165,8.86,21.122,9.06l0.834,0.023l-0.827-0.023c8.462,0.206,16.65-3.064,22.638-9.052l35.32-35.32 c5.988-5.989,9.251-14.176,9.052-22.638l0.015,0.529L511.98,444.96z M186.322,403.751c-11.533-2.826-23.496-7.022-35.91-13.034 c-16.87-8.179-34.584-19.697-53.01-35.734c-3.784-3.285-7.428-6.686-10.928-10.193c-34.937-34.921-55.821-80.043-57.912-126.161 c-1.049-23.074,2.55-46.432,11.496-69.184c8.944-22.753,23.234-44.923,43.85-65.539C104.526,63.29,126.696,49,149.448,40.056 c34.118-13.395,69.651-14.85,103.439-6.479c33.772,8.394,65.723,26.704,91.914,52.895c3.5,3.5,6.9,7.145,10.186,10.929 c21.374,24.574,34.738,47.848,42.825,69.612c2.442,6.571,4.387,13.012,5.935,19.314L186.322,403.751z M482.856,447.533 l-35.312,35.32c-0.498,0.49-1.172,0.773-1.877,0.75c-0.674-0.015-1.302-0.291-1.769-0.75l-0.008-0.008 c-1.402-1.631-12.62-14.582-26.459-30.166c-7.397-8.324-15.546-17.415-23.372-25.938c-7.827-8.531-15.301-16.48-21.489-22.676 c-0.436-0.429-0.865-0.857-1.294-1.279c-3.952-3.913-8.202-7.03-12.552-9.358c-6.548-3.5-13.294-5.169-19.467-5.545 c-6.188-0.383-11.802,0.444-16.58,1.746c-12.437,3.378-26.497,8.125-42.35,12.015c-18.931,4.649-40.205,8.08-63.479,6.701 l191.47-191.47c1.226,20.807-1.355,40.06-5.253,57.436c-2.06,9.137-4.458,17.76-6.831,25.808 c-2.367,8.065-4.694,15.547-6.609,22.562c-1.723,6.349-2.634,14.252-0.911,22.906c0.866,4.312,2.389,8.776,4.718,13.126 c2.32,4.366,5.445,8.608,9.351,12.56c0.428,0.429,0.857,0.858,1.294,1.286c6.188,6.196,14.144,13.67,22.668,21.504 c24.514,22.492,53.715,47.772,56.104,49.832l0.008,0.008c0.46,0.468,0.735,1.103,0.75,1.761 C483.622,446.37,483.354,447.043,482.856,447.533z"></path> </g> </g></svg>